<svg id="Capa_2" enable-background="new 0 0 453.543 453.543" viewBox="0 0 453.543 453.543" xmlns="http://www.w3.org/2000/svg"><g><path d="m226.769.855c-65.42 65.42 0 123.172 0 123.172s65.421-57.752 0-123.172z" fill="#00d5d2"/><path d="m226.166.252c-18.603 18.748-32.169 43.196-28.775 70.325 2.127 17.003 10.228 32.821 21.105 45.888 2.377 2.856 4.883 5.697 7.671 8.165.361.319.842.321 1.205 0 7.574-6.705 13.838-15.436 18.717-24.222 9.994-17.996 13.581-38.965 7.576-58.906-4.782-15.883-14.723-29.589-26.294-41.249-.773-.779-1.978.425-1.205 1.205 18.55 18.693 32.001 43.126 28.136 70.16-2.342 16.377-10.341 31.657-20.939 44.207-2.241 2.653-4.592 5.294-7.197 7.601h1.205c-7.089-6.277-12.971-14.352-17.673-22.503-10.058-17.44-14.078-37.865-8.606-57.508 4.515-16.207 14.558-30.145 26.279-41.957.773-.78-.431-1.985-1.205-1.206z"/><path d="m227.621 166.67c0-15.707 0-31.413 0-47.12 0-25.027 0-50.054 0-75.082 0-5.734 0-11.468 0-17.203 0-1.096-1.704-1.098-1.704 0v47.12 75.081 17.203c0 1.097 1.704 1.099 1.704.001z"/><path d="m377.445 245.176c0 15.725-67.46 28.473-150.676 28.473s-150.677-12.747-150.677-28.473c0-15.725 67.46-81.837 150.676-81.837s150.677 66.112 150.677 81.837z" fill="#ffce71"/><path d="m376.593 245.176c-.094 4.925-6.483 8.021-10.223 9.797-8.249 3.918-17.347 6.163-26.233 8.089-28.217 6.115-57.367 8.28-86.166 9.273-33.3 1.148-66.785.392-99.936-3.068-13.163-1.374-26.31-3.181-39.265-5.912-9.077-1.914-18.339-4.149-26.812-8.014-3.812-1.739-10.338-4.706-10.978-9.534-.538-4.064 3.078-8.733 5.267-11.775 10.802-15.004 26.316-27.087 41.656-37.097 21.376-13.948 45.258-24.374 70.323-29.435 27.654-5.583 56.051-3.752 82.963 4.569 23.35 7.22 45.397 18.844 64.859 33.601 7.586 5.752 14.829 12.029 21.36 18.964 4.364 4.635 8.748 9.666 11.609 15.405.79 1.583 1.549 3.34 1.576 5.137.017 1.095 1.72 1.099 1.704 0-.068-4.528-3.327-8.994-5.88-12.477-4.859-6.627-10.697-12.535-16.792-18.022-17.492-15.749-37.929-28.435-59.607-37.548-26.246-11.034-54.836-16.525-83.302-14.02-26.998 2.376-53.166 11.36-76.756 24.544-18.285 10.219-35.938 23.03-49.821 38.835-3.873 4.409-7.93 9.301-10.052 14.851-1.528 3.998-.593 7.392 2.572 10.278 5.155 4.699 12.495 7.115 19.02 9.146 11.144 3.469 22.698 5.632 34.22 7.392 32.612 4.981 65.8 6.495 98.758 6.338 32.216-.154 64.688-1.87 96.496-7.222 10.904-1.835 21.869-4.058 32.332-7.7 5.769-2.008 12.701-4.494 16.742-9.354 1.202-1.446 2.033-3.133 2.069-5.039.022-1.098-1.682-1.098-1.703-.002z"/><path d="m10.269 232.627c-.018 1.168-.089 2.324-.089 3.497 0 119.618 96.97 216.588 216.589 216.588 119.618 0 216.587-96.97 216.587-216.588 0-1.173-.07-2.329-.088-3.497z" fill="#3b81ed"/><path d="m201.72 315.589c.862-10.778 11.696-19.754 9.783-30.395-1.544-8.585-11.067-14.515-11.262-23.235-.202-8.949 9.62-15.714 9.582-24.665-.007-1.663-.362-3.216-.965-4.667h-61.442c.166 2.841.536 5.633 1.546 8.243 3.083 7.969 11.86 13.659 12.095 22.2.271 9.823-10.761 15.797-20.367 17.869s-20.758 3.381-26.26 11.523c-6.176 9.138-1.792 22.229-6.958 31.974-4.051 7.643-12.798 11.228-19.894 16.175-12.282 8.562-19.95 21.665-25.95 35.637 35.981 42.364 87.965 70.699 146.615 75.669 4.562-4.928 7.432-11.184 7.033-17.845-1.059-17.657-23.329-31.072-18.748-48.157 3.018-11.254 16.818-17.353 19.006-28.798 2.798-14.637-15.002-26.675-13.814-41.528z" fill="#00d5d2"/><path d="m310.7 232.627c.323.335.668.642.97 1.004 6.451 7.751 5.516 18.984 5.223 29.065-.294 10.08 1.494 21.99 10.423 26.677 12.75 6.694 30.289-6.568 42.034 1.766 6.702 4.755 7.694 14.088 8.721 22.241 1.026 8.153 3.871 17.639 11.703 20.127 7.31 2.322 14.803-2.836 22.452-3.409 3.133-.235 6.159.318 9.041 1.401 14.139-28.779 22.091-61.145 22.091-95.374 0-1.171-.045-2.33-.064-3.497h-132.594z" fill="#00d5d2"/><path d="m9.418 232.627c-1.127 45.511 13.158 91.14 39.294 128.327 25.261 35.941 61.296 63.832 102.493 79.118 43.058 15.976 91.045 17.782 135.21 5.21 42.772-12.176 81.297-37.725 109.294-72.262 28.184-34.768 45.114-77.891 48.032-122.56.388-5.94.526-11.882.379-17.832-.011-.46-.381-.852-.852-.852-3.879 0-7.759 0-11.638 0-10.495 0-20.99 0-31.485 0-15.507 0-31.015 0-46.522 0-18.915 0-37.831 0-56.747 0-20.815 0-41.63 0-62.445 0-20.919 0-41.838 0-62.757 0-19.51 0-39.02 0-58.529 0-16.561 0-33.123 0-49.684 0-11.856 0-23.712 0-35.568 0-5.604 0-11.286-.274-16.885 0-.245.012-.493 0-.739 0-1.097 0-1.098 1.704 0 1.704h11.638 31.485 46.521 56.747 62.445 62.757 58.529 49.685 35.567 11.117c1.785 0 4.012.363 5.768 0 .225-.047.505 0 .739 0-.284-.284-.568-.568-.852-.852 1.111 44.987-12.926 90.01-38.634 126.855-25.155 36.053-61.334 64.057-102.615 79.208-42.608 15.638-89.942 17.373-133.593 4.947-42.27-12.033-80.291-37.214-108.072-71.246-28.326-34.702-45.292-78.011-48.051-122.723-.351-5.679-.469-11.355-.328-17.042.027-1.097-1.677-1.096-1.704 0z"/><path d="m202.572 315.589c.855-8.34 6.92-14.759 9.207-22.629 2.111-7.266-.86-13.007-5.007-18.825-2.226-3.123-4.71-6.369-5.465-10.218-.791-4.036.836-7.808 2.813-11.234 3.692-6.402 8.459-12.557 5.56-20.282-.134-.356-.423-.625-.822-.625-17.925 0-35.85 0-53.775 0-2.556 0-5.111 0-7.667 0-.438 0-.884.391-.852.852.478 6.962 2.907 11.89 7.087 17.343 3.735 4.874 8.142 10.502 5.987 17.033-1.997 6.053-8.418 9.668-14.068 11.667-5.784 2.047-11.978 2.58-17.853 4.32-5.173 1.532-10.281 3.949-13.564 8.395-3.68 4.983-4.112 11.298-4.457 17.268-.415 7.183-.981 14.333-6.215 19.798-4.635 4.838-10.904 7.631-16.332 11.422-12.519 8.745-20.31 22.195-26.255 35.943-.164.379-.138.715.133 1.032 30.133 35.335 71.225 60.627 116.512 71.102 5.87 1.358 11.797 2.469 17.759 3.33 2.484.359 4.973.677 7.468.953 1.516.167 3.04.356 4.563.454 1.577.102 1.642-.238 2.719-1.546 6.6-8.014 7.607-17.857 3.374-27.198-3.922-8.654-10.727-15.657-14.552-24.353-1.971-4.481-2.809-9.389-1.318-14.147 1.576-5.028 5.356-8.956 8.88-12.709 3.473-3.699 7.145-7.498 9.018-12.306 1.842-4.729 1.412-9.764-.363-14.443-3.844-10.136-13.202-18.91-12.515-30.397.065-1.095-1.638-1.091-1.704 0-.557 9.33 5.392 17.086 9.683 24.84 2.357 4.258 4.535 8.906 4.427 13.885-.113 5.199-2.925 9.567-6.225 13.373-5.608 6.467-12.952 12.389-13.645 21.553-.652 8.627 4.8 16.303 9.374 23.097 5.477 8.135 11.901 17.37 9.413 27.712-.679 2.823-1.929 5.483-3.556 7.881-.916 1.349-1.737 2.913-3.468 3.012-1.611.092-3.403-.33-5.014-.515-5.938-.68-11.847-1.615-17.707-2.79-22.511-4.513-44.254-12.663-64.19-24.048-21.866-12.486-41.395-28.793-57.728-47.945.044.344.089.688.134 1.032 5.694-13.169 13.062-26.237 24.913-34.812 5.196-3.76 11.128-6.486 15.931-10.79 4.647-4.164 6.896-9.402 7.66-15.52.846-6.779.02-14.165 3.052-20.488 3.083-6.429 9.682-9.281 16.216-10.974 10.363-2.684 23.908-3.527 29.941-13.949 3.031-5.236 1.862-11.042-1.243-15.938-1.84-2.901-4.132-5.483-6.092-8.3-2.853-4.102-4.131-8.291-4.473-13.28-.284.284-.568.568-.852.852h53.775 7.667c-.273-.208-.547-.417-.821-.625 3.24 8.634-3.899 14.993-7.114 22.305-2.901 6.599-.876 12.323 3.045 17.96 2.111 3.035 4.533 5.979 5.897 9.454 1.586 4.04 1.062 8.168-.484 12.125-2.762 7.069-7.717 13.131-8.513 20.891-.115 1.092 1.59 1.084 1.701.002z"/><path d="m310.098 233.229c9.947 9.935 4.722 26.385 6.377 38.788 1.43 10.716 7.459 19.907 19.126 20.165 10.763.238 25.048-7.7 34.373.534 5.085 4.49 6.114 11.91 6.942 18.268.715 5.495 1.497 11.084 4.235 16.004 3.088 5.548 8.414 8.567 14.804 7.826 3.787-.439 7.358-1.867 11.016-2.857 4.818-1.304 9.328-1.31 14.068.363.331.117.806-.073.962-.391 15.041-30.791 22.843-65.008 22.142-99.301-.009-.46-.383-.852-.852-.852-14.944 0-29.887 0-44.831 0-23.806 0-47.612 0-71.418 0-5.448 0-10.895 0-16.343 0-1.096 0-1.098 1.704 0 1.704h44.831 71.419 16.343c-.284-.284-.568-.568-.852-.852.694 33.987-7.001 67.92-21.91 98.441.321-.13.642-.261.962-.392-7.233-2.553-13.325-.787-20.398 1.259-3.583 1.037-7.425 1.934-11.095.749-3.173-1.025-5.545-3.402-7.192-6.237-5.93-10.204-2.242-23.94-10.034-33.278-7.414-8.884-19.539-5.075-29.216-3.426-5.713.973-12.014 1.487-17.097-1.863-5.501-3.625-7.629-10.417-8.38-16.642-1.539-12.759 3.479-28.971-6.777-39.214-.777-.776-1.982.428-1.205 1.204z"/><ellipse cx="163.789" cy="317.851" fill="#fff" rx="55.476" ry="55.476" transform="matrix(.995 -.099 .099 .995 -30.523 17.686)"/><ellipse cx="289.749" cy="317.851" fill="#fff" rx="55.476" ry="55.476" transform="matrix(.987 -.16 .16 .987 -47.173 50.517)"/><path d="m218.413 317.851c-.16 22.701-14.443 43.529-35.887 51.328-21.424 7.793-45.961 1.18-60.617-16.252-14.775-17.574-16.812-43.375-5.034-63.074 11.734-19.626 35.14-30.058 57.584-25.587 25.388 5.057 43.773 27.824 43.954 53.585.008 1.096 1.712 1.098 1.704 0-.166-23.5-14.975-44.911-37.138-52.972-22.189-8.07-47.808-.997-62.747 17.26-14.941 18.259-16.896 44.687-4.634 64.887 12.211 20.115 36.243 30.648 59.315 26.052 26.119-5.203 45.017-28.755 45.204-55.227.008-1.097-1.696-1.098-1.704 0z"/><path d="m233.421 317.851c.165 23.5 14.974 44.91 37.138 52.972 22.189 8.07 47.808.996 62.747-17.26 14.941-18.259 16.895-44.687 4.633-64.887-12.21-20.115-36.242-30.648-59.315-26.052-26.119 5.202-45.017 28.755-45.203 55.227-.008 1.096 1.696 1.098 1.704 0 .16-22.701 14.443-43.529 35.887-51.329 21.425-7.792 45.961-1.18 60.617 16.252 14.776 17.574 16.812 43.375 5.034 63.074-11.734 19.626-35.139 30.058-57.584 25.587-25.388-5.057-43.772-27.824-43.953-53.584-.009-1.096-1.713-1.099-1.705 0z"/><path d="m251.917 378.114c-.093-6.524-5.407-12.113-11.919-12.512-2.896-.177-5.598.615-7.813 2.083-3.31 2.194-7.521 2.194-10.831 0-2.216-1.469-4.919-2.261-7.815-2.083-6.512.4-11.826 5.99-11.919 12.513-.03 2.145.478 4.166 1.387 5.948l-.006.002s6.251 13.805 23.767 13.805c17.517 0 23.767-13.805 23.767-13.805l-.004-.002c.908-1.783 1.416-3.804 1.386-5.949z" fill="#fff"/><path d="m225.366 369.311v28.56c0 1.096 1.704 1.098 1.704 0 0-9.52 0-19.04 0-28.56-.001-1.096-1.704-1.098-1.704 0z"/><path d="m232.246 367.663c1.94 7.887 3.881 15.773 5.821 23.66.273 1.109.546 2.217.818 3.326.262 1.064 1.906.613 1.643-.453-1.941-7.887-3.881-15.773-5.821-23.66-.272-1.109-.545-2.217-.818-3.326-.262-1.064-1.905-.613-1.643.453z"/><path d="m239.733 366.286c2.751 5.649 5.501 11.297 8.252 16.945.395.811.79 1.621 1.184 2.432.48.986 1.95.123 1.471-.86-2.751-5.648-5.501-11.297-8.252-16.945-.394-.811-.789-1.621-1.184-2.432-.479-.986-1.949-.123-1.471.86z"/><path d="m219.708 367.21c-1.937 7.873-3.874 15.745-5.811 23.618-.272 1.107-.545 2.213-.816 3.32-.262 1.065 1.38 1.519 1.643.453 1.937-7.872 3.874-15.745 5.811-23.618.272-1.107.544-2.213.816-3.32.262-1.065-1.38-1.519-1.643-.453z"/><path d="m212.253 365.712c-2.71 5.565-5.42 11.13-8.13 16.695-.389.799-.778 1.597-1.167 2.396-.478.982.991 1.847 1.471.86 2.71-5.565 5.42-11.13 8.13-16.695.389-.799.778-1.597 1.167-2.396.479-.982-.99-1.847-1.471-.86z"/><path d="m252.769 378.114c-.242-5.67-3.786-10.734-9.194-12.648-3.059-1.083-6.502-.955-9.5.266-1.706.695-3.133 1.918-4.923 2.418-2.266.633-4.632.304-6.695-.791-3.138-1.667-5.933-2.96-9.611-2.547-2.7.303-5.251 1.453-7.305 3.226-4.826 4.165-5.93 10.774-3.27 16.455.17-.417.339-.834.509-1.252l-.006.002c-.55.207-.754.719-.509 1.251 2.677 5.829 8.545 10.392 14.438 12.535 10.2 3.71 22.412 1.409 30.074-6.385 1.745-1.775 3.445-3.868 4.493-6.15.184-.399.136-.94-.306-1.166l-.004-.002c.102.389.204.777.306 1.166.963-2.055 1.455-4.111 1.503-6.378.024-1.097-1.68-1.097-1.704 0-.043 1.995-.427 3.72-1.27 5.519-.187.398-.134.941.306 1.166l.004.002c-.102-.389-.204-.777-.306-1.166-8.158 17.77-37.904 17.77-46.063 0-.17.417-.339.834-.509 1.252l.006-.002c.547-.206.758-.721.509-1.251-2.711-5.79-.655-12.684 5.032-15.781 2.772-1.51 6.075-1.824 9.09-.884 2.683.837 4.684 2.746 7.551 3.119 1.984.258 4.017-.059 5.831-.905 3.177-1.483 5.616-3.086 9.326-2.661 5.88.673 10.245 5.79 10.493 11.594.047 1.09 1.751 1.096 1.704-.002z"/><path d="m141.035 369.311c0 6.856-10.254 12.414-22.903 12.414-12.648 0-22.903-5.558-22.903-12.414s10.254-12.414 22.903-12.414c12.648 0 22.903 5.558 22.903 12.414z" fill="#ff5f6e"/><ellipse cx="335.406" cy="369.311" fill="#ff5f6e" rx="22.903" ry="12.414"/><path d="m140.183 369.311c-.214 6.862-9.259 9.866-14.755 10.907-7.756 1.469-16.916.828-23.817-3.297-2.424-1.449-4.937-3.632-5.442-6.567-.482-2.798 1.123-5.298 3.172-7.047 5.962-5.089 15.159-6.071 22.657-5.382 6.205.57 17.935 3.368 18.185 11.386.034 1.094 1.738 1.099 1.704 0-.233-7.497-9.111-11.117-15.304-12.411-8.711-1.82-19.505-1.17-27.011 4.09-5.26 3.686-7.049 9.966-2.18 14.841 6.329 6.336 17.312 7.453 25.727 6.449 6.988-.833 18.496-4.211 18.769-12.969.032-1.097-1.672-1.096-1.705 0z"/><path d="m357.457 369.311c-.214 6.862-9.258 9.866-14.754 10.907-7.757 1.469-16.916.828-23.817-3.297-2.424-1.449-4.937-3.632-5.442-6.567-.481-2.798 1.124-5.298 3.172-7.047 5.962-5.089 15.159-6.071 22.657-5.382 6.205.57 17.934 3.368 18.184 11.386.034 1.094 1.738 1.099 1.704 0-.233-7.497-9.111-11.117-15.304-12.411-8.711-1.82-19.505-1.17-27.011 4.09-5.26 3.686-7.05 9.966-2.18 14.841 6.329 6.336 17.312 7.453 25.727 6.449 6.988-.833 18.496-4.211 18.768-12.969.034-1.097-1.67-1.096-1.704 0z"/><path d="m208.125 284.507c-10.124-13.44-26.214-22.132-44.336-22.132-18.279 0-34.489 8.844-44.595 22.482-.56 2.846-.869 5.783-.869 8.793 0 22.944 17.038 41.898 39.151 44.927l6.211-44.927 4.272 45.155c23.048-2.154 41.088-21.544 41.088-45.155 0-3.132-.318-6.19-.922-9.143z"/><path d="m334.188 284.507c-10.124-13.44-26.214-22.132-44.336-22.132-18.279 0-34.489 8.844-44.595 22.482-.56 2.846-.869 5.783-.869 8.793 0 22.944 17.038 41.898 39.151 44.927l6.211-44.927 4.272 45.155c23.048-2.154 41.088-21.544 41.088-45.155-.001-3.132-.318-6.19-.922-9.143z"/><path d="m255.801 111.848c5.36-1.713 9.623-5.933 11.285-11.309.704-2.275 1.587-3.63 2.546-3.63.946 0 1.816 1.316 2.516 3.532 1.699 5.391 5.947 9.681 11.353 11.331 2.319.707 3.701 1.599 3.701 2.568s-1.382 1.861-3.701 2.568c-5.407 1.65-9.655 5.94-11.354 11.332-.699 2.216-1.57 3.532-2.516 3.532-.959 0-1.842-1.354-2.546-3.63-1.662-5.376-5.925-9.596-11.285-11.309-2.174-.695-3.461-1.557-3.461-2.493 0-.935 1.288-1.798 3.462-2.492z" fill="#ffce71"/><path d="m256.027 112.669c2.859-.96 5.471-2.509 7.581-4.678 2.36-2.426 3.43-5.18 4.662-8.247.167-.415.71-1.989 1.362-1.984.641.005 1.165 1.5 1.336 1.915.651 1.589 1.115 3.182 1.983 4.681 1.501 2.593 3.647 4.803 6.198 6.375 1.301.802 2.684 1.37 4.126 1.861.782.267 1.666.479 2.336.983 1.236.931.317 1.421-.785 1.932-1.496.694-3.105 1.053-4.581 1.817-1.402.726-2.708 1.655-3.87 2.722-2.231 2.047-3.87 4.636-4.887 7.479-.353.984-1.251 4.597-2.605 2.677-.985-1.397-1.244-3.308-1.99-4.851-1.445-2.987-3.763-5.534-6.551-7.322-1.544-.989-3.182-1.576-4.885-2.213-.517-.194-2.265-.748-2.265-1.478-.001-.839 2.386-1.517 2.835-1.669 1.033-.35.59-1.997-.453-1.643-2.121.719-5.865 2.744-3.077 5.138 1.455 1.249 3.546 1.527 5.229 2.351 1.891.926 3.595 2.19 5.019 3.742 1.368 1.49 2.469 3.254 3.188 5.147.605 1.595.984 3.771 2.502 4.81 2.836 1.942 4.201-2.968 4.87-4.715 1.546-4.042 4.749-7.406 8.713-9.141 1.671-.731 7.795-2.067 5.619-5.221-.851-1.234-2.577-1.731-3.911-2.186-2.283-.78-4.361-1.878-6.148-3.523-1.432-1.318-2.624-2.869-3.525-4.595-.931-1.782-1.217-3.962-2.453-5.578-.79-1.033-1.991-1.593-3.165-.789-1.517 1.04-1.896 3.215-2.502 4.81-1.768 4.658-5.673 8.176-10.359 9.749-1.034.349-.59 1.995.453 1.644z"/><path d="m246.57 136.067c2.679-.856 4.811-2.967 5.642-5.654.352-1.138.794-1.815 1.273-1.815.473 0 .908.658 1.258 1.766.85 2.696 2.973 4.841 5.677 5.666 1.16.354 1.851.799 1.851 1.284s-.691.931-1.851 1.284c-2.703.825-4.827 2.97-5.677 5.666-.349 1.108-.785 1.766-1.258 1.766-.479 0-.921-.677-1.273-1.815-.831-2.688-2.963-4.798-5.642-5.654-1.087-.347-1.731-.779-1.731-1.246 0-.469.644-.901 1.731-1.248z" fill="#ffce71"/><path d="m246.797 136.889c1.499-.503 2.872-1.311 3.978-2.448 1.221-1.255 1.784-2.672 2.419-4.261l.292-.73.278.696c.331.81.571 1.627 1.013 2.391.786 1.358 1.916 2.517 3.252 3.34.681.419 1.411.717 2.165.974.32.109.755.42 1.066.449.29.027.074.186.152-.032l-.493.241c-.762.358-1.587.539-2.342.93-.732.379-1.414.871-2.021 1.428-1.17 1.074-2.02 2.438-2.554 3.927-.128.356-.22.728-.408 1.06l-.161.323c.2-.107.108.171.045-.147-.072-.363-.362-.804-.484-1.164-.145-.43-.313-.853-.511-1.262-.753-1.557-1.976-2.883-3.429-3.814-.803-.515-1.663-.806-2.544-1.149l-.51-.227-.309-.101c-.077.247.14-.014.215-.045.299-.124.579-.274.891-.379 1.033-.35.59-1.997-.453-1.643-.788.267-1.75.606-2.177 1.386-.374.683-.099 1.413.451 1.894.76.665 1.816.811 2.701 1.242.916.446 1.734 1.053 2.424 1.804.633.69 1.147 1.511 1.484 2.386.351.908.567 2.085 1.447 2.66 1.767 1.155 2.605-1.436 3.06-2.612.74-1.912 2.277-3.506 4.16-4.316 1.155-.497 4.235-1.257 2.963-3.193-.478-.728-1.434-1.024-2.21-1.289-1.068-.365-2.049-.882-2.886-1.652-.692-.637-1.261-1.378-1.696-2.211-.47-.9-.625-1.958-1.226-2.789-.517-.715-1.374-1.064-2.165-.547-.879.575-1.097 1.752-1.447 2.66-.841 2.181-2.682 3.838-4.882 4.577-1.035.347-.592 1.993.452 1.643z"/><path d="m262.786 150.443c2.679-.856 4.811-2.967 5.642-5.654.352-1.138.794-1.815 1.273-1.815.473 0 .908.658 1.258 1.766.85 2.696 2.973 4.841 5.677 5.666 1.159.354 1.85.799 1.85 1.284s-.691.93-1.85 1.284c-2.704.825-4.828 2.97-5.677 5.666-.349 1.108-.785 1.766-1.258 1.766-.479 0-.921-.677-1.273-1.815-.831-2.688-2.963-4.798-5.642-5.654-1.087-.347-1.731-.779-1.731-1.246 0-.47.644-.901 1.731-1.248z" fill="#ffce71"/><path d="m263.012 151.264c1.499-.503 2.872-1.311 3.978-2.448 1.221-1.255 1.784-2.672 2.419-4.261l.292-.73.278.696c.331.81.571 1.627 1.013 2.391.786 1.359 1.916 2.517 3.252 3.34.681.419 1.411.716 2.165.974.32.109.755.42 1.067.448.289.027.073.186.151-.032l-.493.241c-.762.358-1.587.539-2.341.93-.732.379-1.415.871-2.022 1.428-1.17 1.074-2.02 2.438-2.554 3.927-.128.356-.22.728-.408 1.06l-.161.323c.2-.107.108.171.045-.147-.072-.363-.362-.804-.484-1.164-.145-.43-.313-.853-.511-1.262-.753-1.557-1.976-2.883-3.429-3.814-.803-.515-1.663-.806-2.544-1.149l-.511-.227-.309-.101c-.077.247.14-.014.215-.045.301-.123.58-.272.892-.378 1.033-.35.59-1.996-.453-1.643-.789.267-1.751.606-2.177 1.386-.374.683-.099 1.413.451 1.894.76.665 1.816.811 2.701 1.242.916.447 1.734 1.053 2.424 1.804.633.69 1.147 1.511 1.484 2.386.351.908.567 2.085 1.447 2.66 1.767 1.155 2.605-1.436 3.06-2.612.74-1.912 2.278-3.506 4.161-4.316 1.154-.497 4.234-1.257 2.962-3.193-.478-.728-1.434-1.024-2.21-1.289-1.069-.365-2.05-.882-2.886-1.652-.692-.637-1.261-1.378-1.696-2.211-.47-.9-.625-1.958-1.226-2.789-.517-.715-1.374-1.064-2.165-.547-.879.575-1.097 1.752-1.447 2.66-.841 2.181-2.682 3.838-4.882 4.577-1.035.347-.591 1.994.452 1.643z"/><g><path d="m197.738 111.907c-5.361-1.713-9.623-5.933-11.286-11.309-.704-2.275-1.586-3.63-2.546-3.63-.945 0-1.816 1.316-2.515 3.532-1.699 5.391-5.947 9.681-11.354 11.331-2.318.707-3.701 1.599-3.701 2.568s1.383 1.861 3.701 2.568c5.407 1.65 9.655 5.94 11.354 11.332.699 2.216 1.57 3.532 2.515 3.532.96 0 1.842-1.354 2.546-3.63 1.663-5.376 5.925-9.596 11.286-11.309 2.174-.695 3.461-1.557 3.461-2.493 0-.935-1.288-1.798-3.461-2.492z" fill="#ffce71"/><path d="m197.964 111.085c-4.124-1.385-7.603-4.234-9.621-8.108-.883-1.695-1.961-7.988-5.171-6.703-1.156.463-1.774 1.805-2.205 2.882-.932 2.329-1.684 4.522-3.288 6.506-1.218 1.506-2.7 2.798-4.364 3.79-1.851 1.103-3.963 1.481-5.844 2.483-1.022.545-2.129 1.44-1.952 2.726.179 1.301 1.535 2.037 2.613 2.51 1.981.868 3.989 1.372 5.823 2.578 1.906 1.254 3.543 2.923 4.77 4.846 1.064 1.666 1.571 3.455 2.329 5.251.497 1.179 1.346 2.837 2.853 2.837 1.155 0 1.947-1.039 2.448-1.956 1.011-1.85 1.385-3.954 2.48-5.783 1.295-2.163 3.098-4.025 5.223-5.383 1.923-1.229 4.15-1.653 6.111-2.753 1.043-.586 2.145-1.558 1.821-2.888-.407-1.663-2.63-2.361-4.026-2.835-1.04-.353-1.488 1.292-.453 1.643.587.199 2.227.625 2.594 1.286.423.764-.351 1.081-1.011 1.43-1.459.771-3.119 1.113-4.592 1.887-2.717 1.427-5.048 3.558-6.738 6.118-.781 1.185-1.409 2.465-1.889 3.801-.315.876-.542 1.796-.992 2.618-.595 1.085-1.093 1.42-1.818.235-.814-1.331-1.112-2.958-1.774-4.372-.674-1.441-1.547-2.773-2.569-3.99-1.933-2.304-4.45-4.084-7.251-5.172-.957-.372-4.839-1.171-4.005-2.587.709-1.205 3.671-1.57 4.914-2.127 2.74-1.228 5.135-3.163 6.948-5.553.921-1.214 1.678-2.526 2.272-3.929.368-.869 1.095-4.542 2.306-4.552 1.255-.01 2.023 3.949 2.427 4.877.665 1.531 1.542 2.946 2.6 4.236 2.242 2.734 5.24 4.675 8.577 5.796 1.043.348 1.489-1.297.454-1.645z"/><path d="m206.968 136.126c-2.68-.856-4.811-2.967-5.643-5.654-.352-1.138-.793-1.815-1.273-1.815-.473 0-.908.658-1.258 1.766-.849 2.696-2.973 4.841-5.677 5.666-1.159.354-1.85.799-1.85 1.284s.691.931 1.85 1.284c2.703.825 4.828 2.97 5.677 5.666.349 1.108.785 1.766 1.258 1.766.48 0 .921-.677 1.273-1.815.831-2.688 2.963-4.798 5.643-5.654 1.087-.347 1.73-.779 1.73-1.246 0-.469-.644-.9-1.73-1.248z" fill="#ffce71"/><path d="m207.194 135.305c-1.96-.658-3.598-2.02-4.556-3.858-.595-1.142-1.08-4.253-3.067-3.547-.74.263-1.131 1.057-1.4 1.738-.432 1.094-.788 2.13-1.535 3.065-.582.728-1.296 1.352-2.095 1.828-.925.551-1.981.74-2.922 1.242-.649.346-1.271.935-1.187 1.731.092.871.887 1.352 1.62 1.666.962.411 1.923.663 2.81 1.246.89.586 1.659 1.372 2.232 2.27.533.835.778 1.728 1.164 2.626.322.75.866 1.63 1.794 1.63 1.823 0 2.12-2.892 2.831-4.08.61-1.019 1.458-1.899 2.459-2.539.962-.615 2.073-.825 3.055-1.377.69-.387 1.332-1.07 1.107-1.925-.263-1-1.445-1.423-2.31-1.716-1.04-.353-1.488 1.292-.453 1.643.418.142.727.35 1.109.534v-.218l-.419.264c-.733.379-1.559.556-2.296.943-1.423.747-2.638 1.873-3.521 3.212-.411.623-.735 1.3-.988 2.002-.145.404-.247.828-.453 1.207l-.169.341c.194-.103.1.03-.004-.223-.631-1.519-1.162-2.985-2.238-4.267-1.015-1.209-2.345-2.128-3.814-2.696-.39-.151-.804-.247-1.188-.413l-.555-.299c-.234-.052.042.032-.072.13.63-.539 1.625-.66 2.371-.997 1.437-.648 2.681-1.673 3.627-2.929.46-.61.835-1.263 1.136-1.964.15-.351.271-.71.397-1.07.081-.229.158-.459.278-.671.05-.088.331-.371.109-.324-.169.036-.037-.069.007.147l.347.743c.166.448.3.898.493 1.337.349.8.812 1.531 1.367 2.204 1.17 1.422 2.74 2.424 4.476 3.007 1.042.35 1.489-1.295.453-1.643z"/><path d="m190.752 150.502c-2.68-.856-4.811-2.967-5.643-5.654-.352-1.138-.793-1.815-1.273-1.815-.473 0-.908.658-1.258 1.766-.849 2.696-2.973 4.841-5.677 5.666-1.159.354-1.85.8-1.85 1.284 0 .485.691.93 1.85 1.284 2.703.825 4.828 2.97 5.677 5.666.349 1.108.785 1.766 1.258 1.766.48 0 .921-.677 1.273-1.815.831-2.688 2.963-4.798 5.643-5.654 1.087-.347 1.73-.779 1.73-1.246.001-.47-.643-.901-1.73-1.248z" fill="#ffce71"/><path d="m190.979 149.68c-1.96-.658-3.598-2.02-4.556-3.858-.595-1.142-1.08-4.254-3.067-3.547-.74.263-1.131 1.057-1.4 1.739-.432 1.094-.788 2.13-1.535 3.065-.582.728-1.296 1.352-2.095 1.828-.925.551-1.981.74-2.922 1.242-.65.346-1.271.935-1.187 1.731.092.871.887 1.352 1.62 1.666.962.411 1.923.663 2.81 1.246.89.586 1.659 1.372 2.232 2.27.532.835.778 1.728 1.164 2.626.322.75.866 1.63 1.794 1.629 1.823 0 2.12-2.892 2.831-4.08.61-1.019 1.458-1.899 2.459-2.539.962-.615 2.073-.825 3.055-1.377.69-.387 1.332-1.07 1.107-1.925-.263-1-1.445-1.422-2.31-1.716-1.04-.353-1.488 1.292-.453 1.643.418.142.727.35 1.109.534v-.218l-.419.264c-.733.379-1.559.556-2.296.943-1.423.747-2.638 1.873-3.521 3.212-.411.623-.735 1.3-.988 2.002-.145.404-.247.828-.453 1.207l-.169.341c.194-.103.1.03-.004-.223-.631-1.519-1.162-2.985-2.238-4.267-1.015-1.209-2.345-2.127-3.814-2.696-.39-.151-.804-.247-1.189-.412l-.554-.3c-.234-.052.042.033-.072.13.63-.539 1.625-.66 2.371-.997 1.437-.648 2.681-1.673 3.627-2.929.46-.61.835-1.263 1.136-1.965.15-.351.271-.71.397-1.07.081-.229.158-.459.278-.671.05-.087.331-.371.109-.324-.169.036-.037-.069.007.147l.347.744c.166.448.3.898.493 1.337.349.8.812 1.531 1.367 2.204 1.17 1.422 2.74 2.424 4.476 3.007 1.042.35 1.488-1.295.453-1.643z"/></g></g></svg>