<?xml version="1.0" encoding="iso-8859-1"?>
<!-- Generator: Adobe Illustrator 19.0.0, SVG Export Plug-In . SVG Version: 6.00 Build 0)  -->
<svg version="1.1" id="Layer_1" xmlns="http://www.w3.org/2000/svg" xmlns:xlink="http://www.w3.org/1999/xlink" x="0px" y="0px"
	 viewBox="0 0 512 512" style="enable-background:new 0 0 512 512;" xml:space="preserve">
<rect x="173.1" y="7.286" style="fill:#FFE000;" width="165.81" height="497.43"/>
<path style="fill:#ED1F34;" d="M395.901,7.286h-56.997v497.427h56.997c60.095,0,108.812-48.717,108.812-108.812V116.099
	C504.714,56.003,455.997,7.286,395.901,7.286z"/>
<path style="fill:#164FCE;" d="M116.099,7.286C56.003,7.286,7.286,56.003,7.286,116.099v279.803
	c0,60.095,48.717,108.812,108.812,108.812h56.997V7.286H116.099z"/>
<rect x="206.26" y="206.21" style="fill:#FFE000;" width="49.743" height="55.59"/>
<path style="fill:#ED1F34;" d="M206.257,261.803v14.978c0,37.918,33.089,28.742,49.743,40.617v-55.595H206.257z"/>
<path style="fill:#FFE000;" d="M305.743,261.803v14.978c0,37.918-33.089,28.742-49.743,40.617v-55.595H305.743z"/>
<rect x="256" y="206.21" style="fill:#ED1F34;" width="49.743" height="55.59"/>
<path d="M395.901,0H116.099C52.082,0,0,52.082,0,116.099v279.803C0,459.918,52.082,512,116.099,512h279.803
	C459.918,512,512,459.918,512,395.901V116.099C512,52.082,459.918,0,395.901,0z M14.573,395.901V116.099
	c0-55.982,45.544-101.526,101.526-101.526h49.71v92.199c0,4.024,3.262,7.286,7.287,7.286c4.024,0,7.286-3.262,7.286-7.286V14.573
	h151.236v482.854H180.382V141.1c0-4.024-3.262-7.286-7.286-7.286s-7.287,3.262-7.287,7.286v356.327h-49.71
	C60.117,497.427,14.573,451.883,14.573,395.901z M497.427,395.901c0,55.982-45.544,101.526-101.526,101.526h-49.71V14.573h49.71
	c55.981,0,101.526,45.544,101.526,101.526V395.901z"/>
<path d="M235.371,317.435c6.346,1.544,12.341,3.002,16.399,5.896c1.266,0.902,2.748,1.353,4.23,1.353s2.964-0.451,4.23-1.353
	c4.058-2.894,10.053-4.352,16.399-5.896c15.362-3.736,36.401-8.853,36.401-40.654v-70.573c0-4.024-3.262-7.286-7.286-7.286h-99.487
	c-4.024,0-7.287,3.262-7.287,7.286v70.573C198.97,308.582,220.009,313.699,235.371,317.435z M213.543,213.495h84.914v63.286
	c0,20.347-10.054,22.793-25.272,26.494c-5.826,1.417-11.809,2.872-17.185,5.629c-5.376-2.757-11.359-4.212-17.185-5.629
	c-15.218-3.702-25.272-6.147-25.272-26.494V213.495z"/>
<g>
</g>
<g>
</g>
<g>
</g>
<g>
</g>
<g>
</g>
<g>
</g>
<g>
</g>
<g>
</g>
<g>
</g>
<g>
</g>
<g>
</g>
<g>
</g>
<g>
</g>
<g>
</g>
<g>
</g>
</svg>
