<?xml version="1.0" encoding="iso-8859-1"?>
<!-- Generator: Adobe Illustrator 19.0.0, SVG Export Plug-In . SVG Version: 6.00 Build 0)  -->
<svg version="1.1" id="Layer_1" xmlns="http://www.w3.org/2000/svg" xmlns:xlink="http://www.w3.org/1999/xlink" x="0px" y="0px"
	 viewBox="0 0 512 512" style="enable-background:new 0 0 512 512;" xml:space="preserve">
<rect x="173.09" y="173.1" style="fill:#FFFFFF;" width="331.62" height="165.81"/>
<path style="fill:#259245;" d="M395.901,7.286H173.095v165.809h331.618v-56.997C504.713,56.004,455.997,7.286,395.901,7.286z"/>
<path style="fill:#333333;" d="M173.095,504.714h222.806c60.095,0,108.812-48.717,108.812-108.812v-56.997H173.095V504.714z"/>
<path style="fill:#ED1F34;" d="M173.095,173.096V7.286h-56.997C56.003,7.286,7.286,56.004,7.286,116.099v279.803
	c0,60.095,48.717,108.812,108.812,108.812h56.997v-165.81V173.096z"/>
<path d="M395.901,0H116.099C52.082,0,0,52.082,0,116.099v279.803C0,459.918,52.082,512,116.099,512h279.803
	C459.918,512,512,459.918,512,395.901V116.099C512,52.082,459.918,0,395.901,0z M497.427,116.099v49.71H240.314
	c-4.024,0-7.287,3.262-7.287,7.287c0,4.024,3.262,7.286,7.287,7.286h257.113v151.236H180.382V180.382h26.77
	c4.024,0,7.286-3.262,7.286-7.286s-3.262-7.287-7.286-7.287h-26.77V14.573h215.519C451.883,14.573,497.427,60.117,497.427,116.099z
	 M14.573,395.901V116.099c0-55.982,45.544-101.526,101.526-101.526h49.71v482.854h-49.71
	C60.117,497.427,14.573,451.883,14.573,395.901z M395.901,497.427H180.382V346.191h317.045v49.71
	C497.427,451.883,451.883,497.427,395.901,497.427z"/>
<g>
</g>
<g>
</g>
<g>
</g>
<g>
</g>
<g>
</g>
<g>
</g>
<g>
</g>
<g>
</g>
<g>
</g>
<g>
</g>
<g>
</g>
<g>
</g>
<g>
</g>
<g>
</g>
<g>
</g>
</svg>
