<?xml version="1.0" encoding="iso-8859-1"?>
<!-- Generator: Adobe Illustrator 19.0.0, SVG Export Plug-In . SVG Version: 6.00 Build 0)  -->
<svg version="1.1" id="Layer_1" xmlns="http://www.w3.org/2000/svg" xmlns:xlink="http://www.w3.org/1999/xlink" x="0px" y="0px"
	 viewBox="0 0 512.002 512.002" style="enable-background:new 0 0 512.002 512.002;" xml:space="preserve">
<path style="fill:#333333;" d="M395.902,7.287H116.1C56.004,7.287,7.287,56.004,7.287,116.099v279.803
	c0,60.095,48.717,108.812,108.812,108.812h279.803c60.095,0,108.812-48.717,108.812-108.812V116.099
	C504.714,56.004,455.998,7.287,395.902,7.287z"/>
<rect x="7.287" y="206.26" style="fill:#3DB4EA;" width="497.43" height="149.23"/>
<rect x="7.287" y="355.49" style="fill:#FFFFFF;" width="497.43" height="149.23"/>
<g>
	<path style="fill:#ED1F34;" d="M256.001,504.713L256.001,504.713l139.901,0.001c60.095,0,108.812-48.717,108.812-108.812V116.099
		c0-24.498-8.098-47.104-21.76-65.291L256.001,504.713z"/>
	<path style="fill:#ED1F34;" d="M29.049,50.806c-13.65,18.17-21.745,40.75-21.76,65.222v279.943
		C7.326,456.034,56.028,504.714,116.1,504.714h139.901h0.001v-0.001L29.049,50.806z"/>
</g>
<polygon style="fill:#FFE000;" points="394.27,208.006 342.545,190.792 383.745,155.092 329.37,158.983 353.772,110.235 
	305.024,134.637 308.914,80.261 273.216,121.462 256.001,69.736 238.786,121.462 203.088,80.261 206.978,134.637 158.23,110.235 
	182.632,158.983 128.257,155.092 169.457,190.792 117.732,208.006 "/>
<path d="M489.266,47.172c-0.291-0.506-0.647-0.975-1.058-1.403C466.977,17.971,433.501,0,395.902,0H116.1
	C78.503,0,45.03,17.969,23.798,45.764c-0.414,0.431-0.774,0.904-1.066,1.414C8.456,66.467,0.001,90.313,0.001,116.099v279.803
	C0.001,459.918,52.083,512,116.1,512h139.862c0.011,0,0.022,0.002,0.033,0.002c0.002,0,0.004,0,0.006,0c0.002,0,0.004,0,0.006,0
	c0.011,0,0.022-0.002,0.033-0.002h139.862c64.017,0,116.099-52.082,116.099-116.099V116.099
	C512.001,90.31,503.545,66.462,489.266,47.172z M116.1,14.573h279.803c31.566,0,59.812,14.482,78.447,37.15l-73.624,147.248h-10.529
	l-33.209-11.052l31.529-27.319c2.372-2.054,3.161-5.396,1.96-8.295c-1.199-2.898-4.122-4.704-7.251-4.479l-41.611,2.976
	l18.675-37.304c1.404-2.805,0.855-6.196-1.363-8.415c-2.219-2.218-5.61-2.766-8.415-1.363l-37.305,18.675l2.976-41.612
	c0.224-3.13-1.581-6.051-4.479-7.251c-2.898-1.203-6.242-0.413-8.295,1.96l-27.32,31.529l-13.174-39.583
	c-0.991-2.977-3.776-4.986-6.914-4.986c-3.138,0-5.923,2.008-6.914,4.986l-13.174,39.583l-27.32-31.529
	c-2.055-2.372-5.398-3.162-8.295-1.96c-2.898,1.2-4.703,4.121-4.479,7.251l2.976,41.612L161.49,103.72
	c-2.807-1.402-6.195-0.855-8.415,1.363c-2.218,2.219-2.768,5.609-1.363,8.415l18.675,37.304l-41.611-2.976
	c-3.114-0.227-6.051,1.58-7.251,4.479c-1.201,2.898-0.412,6.241,1.96,8.295l31.529,27.319l-33.209,11.052h-10.528L37.653,51.722
	C56.288,29.055,84.534,14.573,116.1,14.573z M174.228,185.285l-24.653-21.361l32.537,2.327c2.623,0.207,5.124-1.042,6.579-3.219
	c1.454-2.177,1.629-4.969,0.457-7.31l-14.603-29.17l29.17,14.602c2.342,1.171,5.134,0.995,7.31-0.457
	c2.177-1.455,3.406-3.967,3.219-6.579l-2.327-32.538l21.362,24.654c1.715,1.981,4.363,2.89,6.928,2.375
	c2.568-0.51,4.665-2.36,5.492-4.845L256,92.813l10.301,30.951c0.827,2.485,2.924,4.335,5.492,4.845
	c2.568,0.515,5.213-0.394,6.928-2.375l21.362-24.654l-2.327,32.538c-0.187,2.612,1.042,5.123,3.219,6.579
	c2.177,1.453,4.967,1.629,7.31,0.457l29.17-14.602l-14.603,29.17c-1.172,2.342-0.997,5.133,0.457,7.31
	c1.454,2.178,3.963,3.428,6.579,3.219l32.537-2.327l-24.653,21.361c-1.979,1.714-2.886,4.359-2.375,6.928
	c0.51,2.568,2.361,4.665,4.845,5.492l3.803,1.266H167.954l3.803-1.266c2.485-0.827,4.335-2.924,4.845-5.492
	C177.114,189.644,176.207,186.999,174.228,185.285z M14.574,395.901V116.099c0-18.466,4.958-35.795,13.609-50.73l216.028,432.058
	H116.1C60.119,497.427,14.574,451.882,14.574,395.901z M497.428,395.901c0,55.981-45.544,101.526-101.526,101.526H267.791
	l22.384-44.768c1.8-3.6,0.341-7.976-3.258-9.776c-3.602-1.804-7.977-0.341-9.776,3.258l-21.139,42.279L119.347,215.111
	c0.229-0.053,0.458-0.116,0.686-0.192l4.134-1.376h263.67l4.134,1.376c0.231,0.077,0.464,0.119,0.696,0.171L289.278,421.866
	c-1.8,3.6-0.341,7.976,3.258,9.776c1.047,0.524,2.158,0.771,3.253,0.771c2.673,0,5.247-1.476,6.523-4.029L483.819,65.37
	c8.651,14.935,13.609,32.263,13.609,50.729V395.901z"/>
<g>
</g>
<g>
</g>
<g>
</g>
<g>
</g>
<g>
</g>
<g>
</g>
<g>
</g>
<g>
</g>
<g>
</g>
<g>
</g>
<g>
</g>
<g>
</g>
<g>
</g>
<g>
</g>
<g>
</g>
</svg>
