<?xml version="1.0" encoding="iso-8859-1"?>
<!-- Generator: Adobe Illustrator 19.0.0, SVG Export Plug-In . SVG Version: 6.00 Build 0)  -->
<svg version="1.1" id="Layer_1" xmlns="http://www.w3.org/2000/svg" xmlns:xlink="http://www.w3.org/1999/xlink" x="0px" y="0px"
	 viewBox="0 0 512 512" style="enable-background:new 0 0 512 512;" xml:space="preserve">
<path style="fill:#103B9B;" d="M395.901,7.286H116.099C56.003,7.286,7.286,56.004,7.286,116.099v279.803
	c0,60.095,48.717,108.812,108.812,108.812h279.803c60.095,0,108.812-48.717,108.812-108.812V116.099
	C504.714,56.004,455.997,7.286,395.901,7.286z"/>
<g>
	<polygon style="fill:#FFFFFF;" points="312.401,165.22 312.401,98.067 193.42,98.067 193.42,7.286 126.267,7.286 126.267,98.067 
		7.286,98.067 7.286,165.22 126.267,165.22 126.267,256 193.42,256 193.42,165.22 	"/>
	<path style="fill:#FFFFFF;" d="M159.844,171.997L285.848,256h26.553v-63.006l-92.027-61.351l92.027-61.351V7.286h-26.553
		L159.844,91.29L58.536,23.751C39.097,35.894,23.77,54,15.116,75.511l84.198,56.132L7.286,192.994V256h26.552L159.844,171.997z"/>
</g>
<g>
	<path style="fill:#ED1F34;" d="M180.021,145.094l132.38,88.254v-26.383l-132.613-88.618l132.613-88.409V7.286h-6.376
		L139.676,118.198L32.34,46.641c-4.776,5.753-8.966,12.007-12.489,18.67l119.602,79.927L7.286,233.348V256h6.376L180.021,145.094z"
		/>
	<polygon style="fill:#ED1F34;" points="312.401,149.675 312.401,113.612 177.876,113.612 177.876,7.286 141.812,7.286 
		141.812,113.612 7.286,113.612 7.286,149.675 141.812,149.675 141.812,256 177.876,256 177.876,149.675 	"/>
</g>
<path d="M395.901,512H116.099C52.082,512,0,459.918,0,395.901V116.099C0,52.082,52.082,0,116.099,0h279.803
	C459.918,0,512,52.082,512,116.099v279.803C512,459.918,459.918,512,395.901,512z M116.099,14.573
	c-55.981,0-101.526,45.544-101.526,101.526v279.803c0,55.982,45.544,101.526,101.526,101.526h279.803
	c55.981,0,101.526-45.544,101.526-101.526V116.099c0-55.982-45.545-101.526-101.526-101.526
	C395.902,14.573,116.099,14.573,116.099,14.573z"/>
<path style="fill:#FFFFFF;" d="M321.391,293.661c6.828,10.681,17.779,17.653,30.16,17.653c12.38,0,23.331-6.972,30.169-17.653
	c6.828,10.681,17.78,17.653,30.16,17.653s23.352-6.972,30.169-17.653c6.727,14.983,10.649,32.66,10.649,51.606
	c0,76.789-71.02,114.013-71.02,114.013s-71.02-37.224-71.02-114.013C310.659,326.321,314.58,308.644,321.391,293.661z"/>
<path style="fill:#3DB4EA;" d="M320.656,393.039c19.564,44.507,61.023,66.241,61.023,66.241s41.459-21.734,61.023-66.241H320.656z"
	/>
<path d="M381.678,466.566c-1.161,0-2.324-0.277-3.382-0.833c-0.769-0.404-19.054-10.102-37.439-29.676
	c-24.523-26.111-37.485-57.506-37.485-90.79c0-19.346,3.937-38.234,11.385-54.622c1.105-2.431,3.453-4.063,6.117-4.253
	c2.653-0.19,5.217,1.093,6.657,3.343c5.806,9.082,14.56,14.29,24.02,14.29c9.457,0,18.216-5.21,24.033-14.295
	c1.34-2.092,3.653-3.358,6.137-3.358c0.001,0,0.002,0,0.003,0c2.485,0.001,4.798,1.269,6.137,3.362
	c5.806,9.082,14.56,14.29,24.02,14.29c9.474,0,18.232-5.207,24.027-14.286c1.441-2.257,4.001-3.547,6.674-3.347
	c2.671,0.195,5.019,1.84,6.116,4.282c7.385,16.448,11.289,35.325,11.289,54.591c0,33.285-12.962,64.68-37.485,90.79
	c-18.385,19.574-36.67,29.272-37.439,29.676C384.002,466.289,382.84,466.566,381.678,466.566z M323.771,307.64
	c-3.83,11.743-5.826,24.548-5.826,37.627c0,62.137,50.107,97.201,63.734,105.583c5.817-3.573,18.257-11.97,30.529-25.123
	c22.032-23.615,33.204-50.686,33.204-80.46c0-13.027-1.98-25.82-5.779-37.591c-7.823,6.979-17.598,10.923-27.753,10.923
	c-11.222,0-21.984-4.825-30.163-13.247c-8.185,8.421-18.95,13.247-30.166,13.247C341.388,318.6,331.603,314.643,323.771,307.64z"/>
<path style="fill:#FFE000;" d="M381.678,382.395c-14.555,0-26.397-11.842-26.397-26.397s11.841-26.397,26.397-26.397
	c14.555,0,26.397,11.842,26.397,26.397C408.075,370.554,396.233,382.395,381.678,382.395z M381.678,344.175
	c-6.52,0-11.824,5.304-11.824,11.824c0,6.519,5.304,11.824,11.824,11.824c6.52,0,11.823-5.304,11.823-11.824
	C393.502,349.479,388.198,344.175,381.678,344.175z"/>
<g>
</g>
<g>
</g>
<g>
</g>
<g>
</g>
<g>
</g>
<g>
</g>
<g>
</g>
<g>
</g>
<g>
</g>
<g>
</g>
<g>
</g>
<g>
</g>
<g>
</g>
<g>
</g>
<g>
</g>
</svg>
