<?xml version="1.0" encoding="iso-8859-1"?>
<!-- Generator: Adobe Illustrator 19.0.0, SVG Export Plug-In . SVG Version: 6.00 Build 0)  -->
<svg version="1.1" id="Layer_1" xmlns="http://www.w3.org/2000/svg" xmlns:xlink="http://www.w3.org/1999/xlink" x="0px" y="0px"
	 viewBox="0 0 512 512" style="enable-background:new 0 0 512 512;" xml:space="preserve">
<path style="fill:#ED1F34;" d="M395.901,7.286H116.099C56.003,7.286,7.286,56.003,7.286,116.099v279.803
	c0,60.095,48.717,108.812,108.812,108.812h279.803c60.095,0,108.812-48.717,108.812-108.812V116.099
	C504.714,56.003,455.997,7.286,395.901,7.286z"/>
<path style="fill:#333333;" d="M346.24,190.627h-51.367c0,21.468-17.404,38.872-38.872,38.872s-38.872-17.404-38.872-38.872H165.76
	c0,44.341,31.989,81.184,74.143,88.779l-8.934,50.5h50.063l-8.935-50.5C314.25,271.811,346.24,234.967,346.24,190.627z"/>
<path d="M368.347,197.914c4.025,0,7.287-3.262,7.287-7.287s-3.262-7.286-7.287-7.286H346.24h-51.367
	c-4.025,0-7.287,3.262-7.287,7.286c0,9.573-4.287,18.159-11.035,23.956v-50.73h17.032c4.025,0,7.286-3.262,7.286-7.286
	s-3.262-7.286-7.286-7.286h-24.319c-4.025,0-7.286,3.262-7.286,7.286v65.072c-1.937,0.373-3.934,0.575-5.978,0.575
	s-4.041-0.202-5.978-0.575v-65.072c0-4.024-3.262-7.286-7.286-7.286h-24.319c-4.025,0-7.286,3.262-7.286,7.286
	s3.262,7.286,7.286,7.286h17.032v50.73c-6.748-5.797-11.035-14.383-11.035-23.956c0-4.024-3.262-7.286-7.287-7.286H165.76h-22.107
	c-4.025,0-7.287,3.262-7.287,7.286s3.262,7.287,7.287,7.287h15.106c0.379,5.118,1.158,10.134,2.301,15.02h-17.407
	c-4.025,0-7.287,3.262-7.287,7.286s3.262,7.287,7.287,7.287h22.048c2.14,5.244,4.727,10.265,7.714,15.02h-29.762
	c-4.025,0-7.287,3.262-7.287,7.286s3.262,7.287,7.287,7.287h40.954c12.372,13.292,28.478,23.178,46.902,27.925l-6.652,37.595
	h-15.996c-4.025,0-7.286,3.262-7.286,7.286c0,4.024,3.262,7.287,7.286,7.287h22.107h17.745v18.24c0,4.024,3.262,7.286,7.286,7.286
	c4.025,0,7.286-3.262,7.286-7.286v-18.24h17.745h22.108c4.025,0,7.286-3.262,7.286-7.287c0-4.024-3.262-7.286-7.286-7.286h-15.997
	l-6.652-37.595c18.425-4.747,34.531-14.634,46.902-27.925h40.954c4.025,0,7.287-3.262,7.287-7.287s-3.262-7.286-7.287-7.286h-29.762
	c2.988-4.755,5.574-9.776,7.714-15.02h22.048c4.025,0,7.287-3.262,7.287-7.287c0-4.024-3.262-7.286-7.287-7.286H350.94
	c1.143-4.886,1.922-9.902,2.301-15.02H368.347z M270.805,272.235c-3.952,0.712-6.583,4.487-5.883,8.441l7.421,41.944h-32.685
	l7.421-41.944c0.699-3.954-1.932-7.729-5.883-8.441c-18.979-3.419-35.446-13.134-47.443-26.752c-0.24-0.323-0.502-0.627-0.791-0.906
	c-10.99-12.845-18.063-29.033-19.6-46.663h37.052c2.639,16.568,14.128,30.224,29.452,35.959c0.268,0.115,0.545,0.21,0.827,0.293
	c4.793,1.69,9.942,2.62,15.306,2.62s10.513-0.93,15.306-2.62c0.283-0.083,0.56-0.178,0.828-0.293
	c15.324-5.736,26.813-19.391,29.452-35.959h37.052c-1.537,17.63-8.61,33.818-19.6,46.663c-0.289,0.279-0.551,0.583-0.79,0.906
	C306.25,259.101,289.784,268.815,270.805,272.235z"/>
<path d="M395.901,0H116.099C52.082,0,0,52.082,0,116.099v279.803C0,459.918,52.082,512,116.099,512h279.803
	C459.918,512,512,459.918,512,395.901V116.099C512,52.082,459.918,0,395.901,0z M497.427,395.901
	c0,55.982-45.545,101.526-101.526,101.526H116.099c-55.981,0-101.526-45.544-101.526-101.526V116.099
	c0-55.982,45.544-101.526,101.526-101.526h279.803c55.981,0,101.526,45.544,101.526,101.526v279.802H497.427z"/>
<g>
</g>
<g>
</g>
<g>
</g>
<g>
</g>
<g>
</g>
<g>
</g>
<g>
</g>
<g>
</g>
<g>
</g>
<g>
</g>
<g>
</g>
<g>
</g>
<g>
</g>
<g>
</g>
<g>
</g>
</svg>
