<?xml version="1.0" encoding="iso-8859-1"?>
<!-- Generator: Adobe Illustrator 19.0.0, SVG Export Plug-In . SVG Version: 6.00 Build 0)  -->
<svg version="1.1" id="Layer_1" xmlns="http://www.w3.org/2000/svg" xmlns:xlink="http://www.w3.org/1999/xlink" x="0px" y="0px"
	 viewBox="0 0 512 512" style="enable-background:new 0 0 512 512;" xml:space="preserve">
<path style="fill:#ED1F34;" d="M395.901,7.286H116.099C56.003,7.286,7.286,56.004,7.286,116.099V256h497.427V116.099
	C504.714,56.004,455.997,7.286,395.901,7.286z"/>
<path style="fill:#333333;" d="M7.286,395.901c0,60.095,48.717,108.812,108.812,108.812h279.803
	c60.095,0,108.812-48.717,108.812-108.812V256H7.286V395.901z"/>
<path d="M395.901,0H116.099C52.082,0,0,52.082,0,116.099v279.803C0,459.918,52.082,512,116.099,512h279.803
	C459.918,512,512,459.918,512,395.901V116.099C512,52.082,459.918,0,395.901,0z M395.901,497.427H116.099
	c-55.981,0-101.526-45.545-101.526-101.526V263.286h25.876c4.025,0,7.286-3.262,7.286-7.286c0-4.025-3.262-7.286-7.286-7.286H14.573
	V116.099c0-55.981,45.544-101.526,101.526-101.526h279.803c55.981,0,101.526,45.544,101.526,101.526v132.615H73.61
	c-4.025,0-7.287,3.262-7.287,7.286c0,4.025,3.262,7.286,7.287,7.286h423.817v132.615
	C497.427,451.882,451.882,497.427,395.901,497.427z"/>
<g>
	<path style="fill:#FFE000;" d="M414.969,350.571l-27.161-19.018c-0.001-0.001-0.002-0.002-0.004-0.003
		c-0.001-0.001-0.003-0.002-0.004-0.002l-51.58-36.118c1.408-1.73,2.78-3.5,4.072-5.346c28.875-41.236,18.817-98.276-22.42-127.151
		c-10.233-7.166-21.595-12.081-33.768-14.608c-3.935-0.809-7.797,1.714-8.616,5.654c-0.818,3.94,1.714,7.797,5.654,8.616
		c10.224,2.122,19.77,6.252,28.372,12.276c34.655,24.266,43.107,72.2,18.842,106.855c-1.294,1.848-2.67,3.616-4.102,5.326
		l-89.763-62.853c-3.297-2.308-7.839-1.507-10.148,1.789c-5.068,7.238-7.014,16.016-5.48,24.717
		c1.534,8.702,6.365,16.285,13.603,21.353l55.649,38.966c-3.026,0.926-6.119,1.695-9.284,2.252
		c-20.186,3.56-40.543-0.954-57.33-12.71c-8.603-6.024-15.749-13.582-21.24-22.463c-2.116-3.422-6.607-4.481-10.029-2.365
		c-3.422,2.116-4.482,6.606-2.365,10.029c6.537,10.575,15.042,19.57,25.276,26.736c15.522,10.869,33.609,16.535,52.172,16.535
		c5.326,0,10.693-0.467,16.048-1.411c7.415-1.307,14.532-3.488,21.245-6.458l28.828,20.186c3.298,2.31,7.841,1.508,10.148-1.789
		c2.308-3.296,1.508-7.84-1.789-10.148l-23.027-16.124c3.235-2.195,6.332-4.597,9.268-7.207l47.443,33.22l-3.006,4.293
		c-2.308,3.296-1.508,7.84,1.789,10.148c1.272,0.891,2.73,1.319,4.173,1.319c2.297,0,4.558-1.083,5.975-3.108l3.006-4.293
		l21.196,14.842c1.272,0.891,2.73,1.319,4.173,1.319c2.297-0.001,4.558-1.083,5.975-3.108
		C419.066,357.423,418.266,352.879,414.969,350.571z M303.82,304.231l-62.995-44.109c-4.049-2.836-6.752-7.078-7.61-11.946
		c-0.416-2.361-0.375-4.73,0.102-7.008l80.375,56.279C310.578,299.965,307.284,302.238,303.82,304.231z"/>
	<circle style="fill:#FFE000;" cx="256.47" cy="192.81" r="21.555"/>
</g>
<g>
</g>
<g>
</g>
<g>
</g>
<g>
</g>
<g>
</g>
<g>
</g>
<g>
</g>
<g>
</g>
<g>
</g>
<g>
</g>
<g>
</g>
<g>
</g>
<g>
</g>
<g>
</g>
<g>
</g>
</svg>
