<?xml version="1.0" encoding="iso-8859-1"?>
<!-- Generator: Adobe Illustrator 19.0.0, SVG Export Plug-In . SVG Version: 6.00 Build 0)  -->
<svg version="1.1" id="Layer_1" xmlns="http://www.w3.org/2000/svg" xmlns:xlink="http://www.w3.org/1999/xlink" x="0px" y="0px"
	 viewBox="0 0 512 512" style="enable-background:new 0 0 512 512;" xml:space="preserve">
<path style="fill:#103B9B;" d="M395.901,7.286H116.099C56.003,7.286,7.286,56.004,7.286,116.099v279.803
	c0,60.095,48.717,108.812,108.812,108.812h279.803c60.095,0,108.812-48.717,108.812-108.812V116.099
	C504.714,56.004,455.997,7.286,395.901,7.286z"/>
<path style="fill:#FFFFFF;" d="M461.777,29.495L23.867,256l437.909,226.505c26.092-19.878,42.937-51.271,42.937-86.603V116.099
	C504.714,80.767,487.869,49.373,461.777,29.495z"/>
<path style="fill:#ED1F34;" d="M461.771,489.793c-1.128,0-2.271-0.263-3.341-0.817L20.52,262.471
	c-2.42-1.251-3.939-3.748-3.939-6.471s1.519-5.22,3.939-6.471L458.43,23.024c3.574-1.849,7.971-0.452,9.82,3.124
	c1.848,3.574,0.45,7.971-3.125,9.82L39.728,256l425.397,220.032c3.575,1.849,4.973,6.246,3.125,9.82
	C466.953,488.356,464.408,489.793,461.771,489.793z"/>
<path style="fill:#F2A643;" d="M344.814,207.731c-13.237,0-23.969,10.731-23.969,23.969c0,13.238,10.732,23.969,23.969,23.969
	c0,13.238,10.731,24.3,23.969,24.3h31.839V256l46.247-48.269H344.814z"/>
<path d="M395.901,0H116.099C52.082,0,0,52.082,0,116.099v279.803C0,459.918,52.082,512,116.099,512h279.803
	C459.918,512,512,459.918,512,395.901V116.099C512,52.082,459.918,0,395.901,0z M497.427,395.901
	c0,55.981-45.545,101.526-101.526,101.526H116.099c-55.981,0-101.526-45.545-101.526-101.526V116.099
	c0-55.981,45.544-101.526,101.526-101.526h279.803c55.981,0,101.526,45.544,101.526,101.526v279.802H497.427z"/>
<path d="M446.869,248.714h-29.175l34.436-35.941c2.02-2.107,2.586-5.216,1.441-7.901c-1.146-2.684-3.784-4.426-6.702-4.426H344.814
	c-17.234,0-31.255,14.021-31.255,31.255c0,6.271,1.862,12.113,5.054,17.013h-10.107c-4.025,0-7.286,3.262-7.286,7.286
	c0,4.025,3.262,7.286,7.286,7.286h29.945c3.381,13.749,15.695,23.97,30.331,23.97h31.84c4.025,0,7.286-3.262,7.286-7.287v-16.683
	h38.96c4.025,0,7.286-3.262,7.286-7.286C454.156,251.975,450.894,248.714,446.869,248.714z M393.336,272.683h-24.553
	c-7.272,0-13.455-4.778-15.734-11.411c1.393-1.327,2.266-3.196,2.266-5.272c0-4.025-3.262-7.286-7.286-7.286h-1.04
	c-0.687-0.214-1.417-0.33-2.174-0.33c-9.198,0-16.682-7.484-16.682-16.683c0-9.198,7.484-16.682,16.682-16.682h84.983
	l-32.284,33.695h-7.945c-4.025,0-7.286,3.262-7.286,7.286c0,4.025,3.262,7.286,7.286,7.286h3.768L393.336,272.683L393.336,272.683z"
	/>
<path style="fill:#FFE000;" d="M419.041,311.924h-82.706c-4.025,0-7.286-3.262-7.286-7.286c0-4.025,3.262-7.287,7.286-7.287h82.706
	c4.025,0,7.286,3.262,7.286,7.287C426.327,308.662,423.065,311.924,419.041,311.924z"/>
<g>
</g>
<g>
</g>
<g>
</g>
<g>
</g>
<g>
</g>
<g>
</g>
<g>
</g>
<g>
</g>
<g>
</g>
<g>
</g>
<g>
</g>
<g>
</g>
<g>
</g>
<g>
</g>
<g>
</g>
</svg>
