<?xml version="1.0" encoding="iso-8859-1"?>
<!-- Generator: Adobe Illustrator 19.0.0, SVG Export Plug-In . SVG Version: 6.00 Build 0)  -->
<svg version="1.1" id="Layer_1" xmlns="http://www.w3.org/2000/svg" xmlns:xlink="http://www.w3.org/1999/xlink" x="0px" y="0px"
	 viewBox="0 0 512 512" style="enable-background:new 0 0 512 512;" xml:space="preserve">
<path style="fill:#103B9B;" d="M395.901,7.286H116.099C56.003,7.286,7.286,56.004,7.286,116.099v279.803
	c0,60.095,48.717,108.812,108.812,108.812h279.803c60.095,0,108.812-48.717,108.812-108.812V116.099
	C504.714,56.004,455.997,7.286,395.901,7.286z"/>
<g>
	<circle style="fill:#FFFFFF;" cx="131.64" cy="397.2" r="33.16"/>
	<circle style="fill:#FFFFFF;" cx="390.07" cy="195.38" r="16.581"/>
	<circle style="fill:#FFFFFF;" cx="390.07" cy="394.35" r="16.581"/>
	<circle style="fill:#FFFFFF;" cx="439.81" cy="236.83" r="16.581"/>
	<circle style="fill:#FFFFFF;" cx="340.33" cy="278.28" r="16.581"/>
	<circle style="fill:#FFFFFF;" cx="414.94" cy="315.59" r="11.05"/>
	<path style="fill:#FFFFFF;" d="M126.267,194.381V256h67.153v-61.619L285.848,256h26.553v-63.006l-41.662-27.775h41.662V98.067
		h-41.662l41.662-27.775V7.286h-26.553L193.42,68.905V7.286h-67.153v61.619L58.536,23.751C39.097,35.894,23.77,54,15.116,75.511
		l33.833,22.556H8.782c-0.978,5.866-1.496,11.888-1.496,18.032v49.121h41.662L7.286,192.994V256h26.552L126.267,194.381z"/>
</g>
<path style="fill:#ED1F34;" d="M312.401,7.286h-6.376l-128.15,85.442V7.286h-36.064v106.325h-9.016L32.34,46.641
	c-4.776,5.753-8.966,12.007-12.489,18.67l72.277,48.301H7.286v36.063h125.51L7.286,233.348V256h6.376l128.15-85.433V256h36.064
	V149.675h9.016l125.509,83.673v-26.383l-85.733-57.291h85.733v-36.063h-125.51l125.51-83.673V7.286z"/>
<path d="M395.901,512H116.099C52.082,512,0,459.918,0,395.901V116.099C0,52.082,52.082,0,116.099,0h279.803
	C459.918,0,512,52.082,512,116.099v279.803C512,459.918,459.918,512,395.901,512z M116.099,14.573
	c-55.981,0-101.526,45.544-101.526,101.526v279.803c0,55.982,45.544,101.526,101.526,101.526h279.803
	c55.981,0,101.526-45.544,101.526-101.526V116.099c0-55.982-45.545-101.526-101.526-101.526
	C395.902,14.573,116.099,14.573,116.099,14.573z"/>
<g>
</g>
<g>
</g>
<g>
</g>
<g>
</g>
<g>
</g>
<g>
</g>
<g>
</g>
<g>
</g>
<g>
</g>
<g>
</g>
<g>
</g>
<g>
</g>
<g>
</g>
<g>
</g>
<g>
</g>
</svg>
