<?xml version="1.0" encoding="iso-8859-1"?>
<!-- Generator: Adobe Illustrator 19.0.0, SVG Export Plug-In . SVG Version: 6.00 Build 0)  -->
<svg version="1.1" id="Layer_1" xmlns="http://www.w3.org/2000/svg" xmlns:xlink="http://www.w3.org/1999/xlink" x="0px" y="0px"
	 viewBox="0 0 512 512" style="enable-background:new 0 0 512 512;" xml:space="preserve">
<path style="fill:#3DB4EA;" d="M395.901,7.286H116.099C56.003,7.286,7.286,56.004,7.286,116.099v279.803
	c0,60.095,48.717,108.812,108.812,108.812h279.803c60.095,0,108.812-48.717,108.812-108.812V116.099
	C504.714,56.004,455.997,7.286,395.901,7.286z"/>
<g>
	<path style="fill:#FFE000;" d="M12.238,428.441h487.524c2.96-9.458,4.665-19.472,4.917-29.846H7.321
		C7.573,408.97,9.278,418.983,12.238,428.441z"/>
	<rect x="7.286" y="338.9" style="fill:#FFE000;" width="497.43" height="29.846"/>
</g>
<polygon style="fill:#ED1F34;" points="155.598,73.04 178.21,141.622 246.793,164.235 178.21,186.848 155.598,255.43 
	132.985,186.848 64.403,164.235 132.985,141.622 "/>
<path style="fill:#FFFFFF;" d="M155.598,262.717c-3.145,0-5.936-2.018-6.92-5.005l-21.463-65.094L62.12,171.156
	c-2.987-0.985-5.005-3.775-5.005-6.92s2.018-5.935,5.005-6.92l65.095-21.463l21.462-65.094c0.985-2.987,3.775-5.005,6.92-5.005
	s5.936,2.018,6.92,5.005l21.462,65.094l65.094,21.463c2.987,0.985,5.005,3.775,5.005,6.92s-2.018,5.935-5.005,6.92l-65.093,21.462
	l-21.463,65.094C161.533,260.699,158.743,262.717,155.598,262.717z M87.672,164.235l47.595,15.692
	c2.194,0.723,3.915,2.445,4.639,4.639l15.693,47.595l15.693-47.595c0.724-2.194,2.445-3.915,4.639-4.639l47.594-15.692
	l-47.594-15.693c-2.193-0.723-3.915-2.444-4.639-4.638L155.598,96.31l-15.693,47.594c-0.724,2.194-2.445,3.915-4.639,4.638
	L87.672,164.235z"/>
<path d="M395.901,512H116.099C52.082,512,0,459.918,0,395.901V116.099C0,52.082,52.082,0,116.099,0h279.803
	C459.918,0,512,52.082,512,116.099v279.803C512,459.918,459.918,512,395.901,512z M116.099,14.573
	c-55.981,0-101.526,45.544-101.526,101.526v279.803c0,55.982,45.544,101.526,101.526,101.526h279.803
	c55.981,0,101.526-45.544,101.526-101.526V116.099c0-55.982-45.545-101.526-101.526-101.526
	C395.902,14.573,116.099,14.573,116.099,14.573z"/>
<g>
</g>
<g>
</g>
<g>
</g>
<g>
</g>
<g>
</g>
<g>
</g>
<g>
</g>
<g>
</g>
<g>
</g>
<g>
</g>
<g>
</g>
<g>
</g>
<g>
</g>
<g>
</g>
<g>
</g>
</svg>
