<?xml version="1.0" encoding="iso-8859-1"?>
<!-- Generator: Adobe Illustrator 19.0.0, SVG Export Plug-In . SVG Version: 6.00 Build 0)  -->
<svg version="1.1" id="Layer_1" xmlns="http://www.w3.org/2000/svg" xmlns:xlink="http://www.w3.org/1999/xlink" x="0px" y="0px"
	 viewBox="0 0 512 512" style="enable-background:new 0 0 512 512;" xml:space="preserve">
<rect x="7.286" y="173.1" style="fill:#164FCE;" width="497.43" height="165.81"/>
<path style="fill:#F2A643;" d="M7.286,395.901c0,60.095,48.717,108.812,108.812,108.812h279.803
	c60.095,0,108.812-48.717,108.812-108.812v-56.997H7.286V395.901z"/>
<path style="fill:#ED1F34;" d="M395.901,7.286H116.099C56.003,7.286,7.286,56.004,7.286,116.099v56.997h497.427v-56.997
	C504.713,56.004,455.997,7.286,395.901,7.286z"/>
<path d="M395.901,0H116.099C52.082,0,0,52.082,0,116.099v279.803C0,459.918,52.082,512,116.099,512h279.803
	C459.918,512,512,459.918,512,395.901V116.099C512,52.082,459.918,0,395.901,0z M116.099,14.573h279.803
	c55.982,0,101.526,45.544,101.526,101.526v49.71H73.61c-4.024,0-7.287,3.262-7.287,7.287c0,4.024,3.262,7.286,7.287,7.286h423.817
	v151.236H14.573V180.382h25.875c4.024,0,7.286-3.262,7.286-7.286s-3.262-7.287-7.286-7.287H14.573v-49.71
	C14.573,60.117,60.117,14.573,116.099,14.573z M395.901,497.427H116.099c-55.981,0-101.526-45.544-101.526-101.526v-49.71h482.854
	v49.71C497.427,451.883,451.883,497.427,395.901,497.427z"/>
<path style="fill:#FFFFFF;" d="M464.162,394.174h-40.551v-55.27H383.06v-55.27h-40.551v-55.27h40.551v-55.269h40.551v-55.27h40.551
	v-55.27h26.481c-15.173-26.789-41.374-46.506-72.439-52.978v52.978h-40.551v55.27h-40.551v55.27h-40.551v55.269H256v55.27h40.551
	v55.27h40.551v55.27h40.551v55.27h40.551v52.978c31.065-6.471,57.267-26.189,72.439-52.978h-26.481V394.174z"/>
<path d="M512,395.901V116.099c0-20.462-5.328-39.7-14.659-56.412c-0.198-0.461-0.444-0.896-0.729-1.302
	c-16.214-28.183-43.917-48.95-76.667-55.874c-0.143-0.035-0.287-0.068-0.434-0.095C411.886,0.834,403.989,0,395.901,0H116.099
	C52.082,0,0,52.082,0,116.099v279.803C0,459.918,52.082,512,116.099,512h279.803c8.085,0,15.979-0.833,23.603-2.414
	c0.153-0.028,0.304-0.062,0.453-0.099c32.746-6.927,60.444-27.693,76.656-55.873c0.283-0.405,0.529-0.838,0.726-1.298
	C506.671,435.603,512,416.364,512,395.901z M464.162,386.887h-33.264v-47.983c0-4.024-3.262-7.287-7.287-7.287h-33.265v-47.983
	c0-4.024-3.262-7.287-7.287-7.287h-33.265v-40.696h33.265c4.024,0,7.287-3.262,7.287-7.286v-47.983h33.265
	c4.024,0,7.287-3.262,7.287-7.286v-47.983h33.264c4.024,0,7.287-3.262,7.287-7.286V69.842h14.814
	c7.134,13.88,11.164,29.606,11.164,46.256v279.803c0,16.65-4.03,32.376-11.163,46.256h-14.815v-47.983
	C471.449,390.149,468.186,386.887,464.162,386.887z M116.099,497.427c-55.981,0-101.526-45.544-101.526-101.526V116.099
	c0-55.982,45.544-101.526,101.526-101.526h279.803c5.102,0,10.115,0.382,15.017,1.112v39.584h-33.265
	c-4.024,0-7.286,3.262-7.286,7.287v47.983h-33.265c-4.024,0-7.286,3.262-7.286,7.286v47.983h-33.264
	c-4.024,0-7.286,3.262-7.286,7.287v47.983H256c-4.024,0-7.287,3.262-7.287,7.287v55.27c0,4.024,3.262,7.286,7.287,7.286h33.265
	v47.983c0,4.024,3.262,7.286,7.286,7.286h33.264v47.983c0,4.024,3.262,7.287,7.286,7.287h33.265v47.983
	c0,4.024,3.262,7.287,7.286,7.287h33.265v39.584c-4.902,0.73-9.915,1.112-15.017,1.112L116.099,497.427L116.099,497.427z
	 M425.491,493.024v-43.581c0-4.024-3.262-7.286-7.287-7.286H384.94v-47.983c0-4.024-3.262-7.287-7.287-7.287h-33.265v-47.983
	c0-4.024-3.262-7.287-7.286-7.287h-33.264v-47.983c0-4.024-3.262-7.287-7.287-7.287h-33.265v-40.696h33.265
	c4.024,0,7.287-3.262,7.287-7.286v-47.983h33.264c4.024,0,7.286-3.262,7.286-7.286v-47.983h33.265c4.024,0,7.287-3.262,7.287-7.286
	V69.842h33.265c4.024,0,7.287-3.262,7.287-7.286v-43.58c20.84,6.362,38.856,19.257,51.645,36.294h-12.974
	c-4.024,0-7.286,3.262-7.286,7.287v47.983h-33.264c-4.024,0-7.286,3.262-7.286,7.286v47.983H383.06
	c-4.024,0-7.286,3.262-7.286,7.287v47.983h-33.265c-4.024,0-7.287,3.262-7.287,7.287v55.27c0,4.024,3.262,7.286,7.287,7.286h33.265
	v47.983c0,4.024,3.262,7.286,7.286,7.286h33.265v47.983c0,4.024,3.262,7.287,7.286,7.287h33.264v47.983
	c0,4.024,3.262,7.287,7.286,7.287h12.975C464.347,473.767,446.331,486.663,425.491,493.024z"/>
<g>
</g>
<g>
</g>
<g>
</g>
<g>
</g>
<g>
</g>
<g>
</g>
<g>
</g>
<g>
</g>
<g>
</g>
<g>
</g>
<g>
</g>
<g>
</g>
<g>
</g>
<g>
</g>
<g>
</g>
</svg>
