<?xml version="1.0" encoding="iso-8859-1"?>
<!-- Generator: Adobe Illustrator 19.0.0, SVG Export Plug-In . SVG Version: 6.00 Build 0)  -->
<svg version="1.1" id="Layer_1" xmlns="http://www.w3.org/2000/svg" xmlns:xlink="http://www.w3.org/1999/xlink" x="0px" y="0px"
	 viewBox="0 0 512 512" style="enable-background:new 0 0 512 512;" xml:space="preserve">
<path style="fill:#103B9B;" d="M395.901,7.286H116.099C56.003,7.286,7.286,56.003,7.286,116.099v279.803
	c0,60.095,48.717,108.812,108.812,108.812h279.803c60.095,0,108.812-48.717,108.812-108.812V116.099
	C504.714,56.003,455.997,7.286,395.901,7.286z"/>
<g>
	<path style="fill:#FFFFFF;" d="M403.065,479.735c-10.68-0.465-19.716,7.816-20.181,18.496c-0.191,4.38,1.107,8.47,3.42,11.819
		l27.732-5.337c2.595-3.135,7.334-0.417,7.525-4.797C422.027,489.236,413.746,480.201,403.065,479.735z"/>
	<circle style="fill:#FFFFFF;" cx="342.38" cy="419.63" r="19.357"/>
	<circle style="fill:#FFFFFF;" cx="282.54" cy="340.18" r="19.357"/>
	<circle style="fill:#FFFFFF;" cx="222.69" cy="260.73" r="19.357"/>
	<circle style="fill:#FFFFFF;" cx="162.85" cy="181.28" r="19.357"/>
	<circle style="fill:#FFFFFF;" cx="103" cy="101.83" r="19.357"/>
</g>
<path style="fill:#FFE000;" d="M395.901,7.286H116.099c-3.122,0-6.21,0.139-9.265,0.397L454.504,487.6
	c4.355-2.789,8.496-5.881,12.398-9.243V33.643C447.844,17.219,423.033,7.286,395.901,7.286z"/>
<path d="M395.901,0H116.099c-2.569,0-5.116,0.093-7.644,0.258c-1.633-0.443-3.407-0.315-4.999,0.433
	C45.365,7.011,0,56.354,0,116.099v279.803C0,459.918,52.082,512,116.099,512h279.803C459.918,512,512,459.918,512,395.901V116.099
	C512,52.082,459.918,0,395.901,0z M395.901,497.427H116.099c-55.982,0-101.526-45.544-101.526-101.526V116.099
	c0-51.682,38.817-94.466,88.828-100.733l338.681,467.508c0.621,0.857,1.302,1.642,2.03,2.357
	C429.761,493.007,413.338,497.427,395.901,497.427z M457.424,475.479c-0.817,0.264-2.363,0.469-3.541-1.155L120.822,14.573h275.079
	c24.11,0,46.28,8.453,63.714,22.544v435.349C459.615,474.47,458.243,475.214,457.424,475.479z M497.427,395.901
	c0,24.507-8.728,47.013-23.239,64.574V51.525c14.511,17.561,23.239,40.067,23.239,64.574V395.901z"/>
<g>
</g>
<g>
</g>
<g>
</g>
<g>
</g>
<g>
</g>
<g>
</g>
<g>
</g>
<g>
</g>
<g>
</g>
<g>
</g>
<g>
</g>
<g>
</g>
<g>
</g>
<g>
</g>
<g>
</g>
</svg>
