<?xml version="1.0" encoding="iso-8859-1"?>
<!-- Generator: Adobe Illustrator 19.0.0, SVG Export Plug-In . SVG Version: 6.00 Build 0)  -->
<svg version="1.1" id="Layer_1" xmlns="http://www.w3.org/2000/svg" xmlns:xlink="http://www.w3.org/1999/xlink" x="0px" y="0px"
	 viewBox="0 0 512 512" style="enable-background:new 0 0 512 512;" xml:space="preserve">
<rect x="173.1" y="7.286" style="fill:#FFE000;" width="165.81" height="497.43"/>
<g>
	<path style="fill:#103B9B;" d="M116.099,7.286C56.003,7.286,7.286,56.004,7.286,116.099v279.803
		c0,60.095,48.717,108.812,108.812,108.812h56.997V7.286H116.099z"/>
	<path style="fill:#103B9B;" d="M395.901,7.286h-56.997v497.427h56.997c60.095,0,108.812-48.717,108.812-108.812V116.099
		C504.714,56.004,455.997,7.286,395.901,7.286z"/>
</g>
<path d="M217.361,281.453c0.315,2.352,1.756,4.404,3.862,5.498c2.106,1.095,4.615,1.095,6.719,0l20.77-10.794v39.534
	c0,4.025,3.262,7.286,7.286,7.286c4.025,0,7.286-3.262,7.286-7.286v-39.534l20.77,10.794c1.053,0.548,2.206,0.821,3.36,0.821
	c1.153,0,2.306-0.273,3.36-0.821c2.106-1.094,3.547-3.146,3.862-5.498l8.976-67c0.534-3.989-2.266-7.656-6.254-8.19
	c-3.985-0.532-7.656,2.266-8.19,6.254l-7.599,56.719l-18.286-9.503v-63.426c0-4.025-3.262-7.286-7.286-7.286
	c-4.025,0-7.286,3.262-7.286,7.286v63.426l-18.286,9.503l-7.599-56.719c-0.535-3.989-4.201-6.786-8.19-6.254
	c-3.989,0.534-6.788,4.201-6.254,8.19L217.361,281.453z"/>
<path d="M395.901,0H116.099C52.082,0,0,52.082,0,116.099v279.803C0,459.918,52.082,512,116.099,512h279.803
	C459.918,512,512,459.918,512,395.901V116.099C512,52.082,459.918,0,395.901,0z M14.573,395.901V116.099
	c0-55.981,45.544-101.526,101.526-101.526h49.711v42.456c0,4.025,3.262,7.287,7.286,7.287c4.025,0,7.287-3.262,7.287-7.287V14.573
	h151.235v482.854H180.382V87.342c0-4.025-3.262-7.287-7.287-7.287c-4.025,0-7.286,3.262-7.286,7.287v410.085h-49.711
	C60.118,497.427,14.573,451.882,14.573,395.901z M497.427,395.901c0,55.981-45.545,101.526-101.526,101.526H346.19V14.573h49.711
	c55.981,0,101.526,45.544,101.526,101.526V395.901z"/>
<g>
</g>
<g>
</g>
<g>
</g>
<g>
</g>
<g>
</g>
<g>
</g>
<g>
</g>
<g>
</g>
<g>
</g>
<g>
</g>
<g>
</g>
<g>
</g>
<g>
</g>
<g>
</g>
<g>
</g>
</svg>
