<?xml version="1.0" encoding="iso-8859-1"?>
<!-- Generator: Adobe Illustrator 19.0.0, SVG Export Plug-In . SVG Version: 6.00 Build 0)  -->
<svg version="1.1" id="Layer_1" xmlns="http://www.w3.org/2000/svg" xmlns:xlink="http://www.w3.org/1999/xlink" x="0px" y="0px"
	 viewBox="0 0 512 512" style="enable-background:new 0 0 512 512;" xml:space="preserve">
<path style="fill:#259245;" d="M395.901,7.287H116.099C56.003,7.287,7.286,56.004,7.286,116.099v279.803
	c0,60.095,48.717,108.812,108.812,108.812h279.803c60.095,0,108.812-48.717,108.812-108.812V116.099
	C504.713,56.004,455.997,7.287,395.901,7.287z"/>
<path d="M395.901,512H116.099C52.082,512,0,459.918,0,395.901V116.099C0,52.082,52.082,0,116.099,0h279.803
	C459.918,0,512,52.082,512,116.099v279.803C512,459.918,459.918,512,395.901,512z M116.099,14.573
	c-55.981,0-101.526,45.544-101.526,101.526v279.803c0,55.982,45.544,101.526,101.526,101.526h279.803
	c55.982,0,101.526-45.544,101.526-101.526V116.099c0-55.981-45.544-101.526-101.526-101.526
	C395.902,14.573,116.099,14.573,116.099,14.573z"/>
<circle style="fill:#ED1F34;" cx="220.8" cy="256" r="82.904"/>
<path d="M220.802,346.191c-49.732,0-90.191-40.459-90.191-90.191s40.46-90.191,90.191-90.191c42.725,0,79.895,30.348,88.384,72.16
	c0.801,3.944-1.748,7.79-5.691,8.591c-3.941,0.802-7.79-1.747-8.591-5.691c-7.115-35.048-38.279-60.487-74.102-60.487
	c-41.696,0-75.618,33.922-75.618,75.618s33.922,75.618,75.618,75.618c35.823,0,66.987-25.438,74.102-60.487
	c0.801-3.944,4.646-6.491,8.591-5.691c3.944,0.801,6.492,4.647,5.691,8.591C300.697,315.843,263.527,346.191,220.802,346.191z"/>
<g>
</g>
<g>
</g>
<g>
</g>
<g>
</g>
<g>
</g>
<g>
</g>
<g>
</g>
<g>
</g>
<g>
</g>
<g>
</g>
<g>
</g>
<g>
</g>
<g>
</g>
<g>
</g>
<g>
</g>
</svg>
