<?xml version="1.0" encoding="iso-8859-1"?>
<!-- Generator: Adobe Illustrator 19.0.0, SVG Export Plug-In . SVG Version: 6.00 Build 0)  -->
<svg version="1.1" id="Layer_1" xmlns="http://www.w3.org/2000/svg" xmlns:xlink="http://www.w3.org/1999/xlink" x="0px" y="0px"
	 viewBox="0 0 512 512" style="enable-background:new 0 0 512 512;" xml:space="preserve">
<rect x="173.09" y="7.287" style="fill:#FFE000;" width="165.81" height="497.43"/>
<path style="fill:#ED1F34;" d="M395.901,7.287h-56.997v497.427h56.997c60.095,0,108.812-48.717,108.812-108.812V116.099
	C504.713,56.003,455.997,7.287,395.901,7.287z"/>
<path style="fill:#333333;" d="M116.099,7.287C56.003,7.287,7.286,56.003,7.286,116.099v279.803
	c0,60.095,48.717,108.812,108.812,108.812h56.997V7.287H116.099z"/>
<path d="M395.901,0H116.099C52.082,0,0,52.082,0,116.099v279.803C0,459.918,52.082,512,116.099,512h279.803
	C459.918,512,512,459.918,512,395.901V116.099C512,52.082,459.918,0,395.901,0z M14.573,395.901V116.099
	c0-55.982,45.544-101.526,101.526-101.526h49.71v482.854h-49.71C60.117,497.427,14.573,451.883,14.573,395.901z M497.427,395.901
	c0,55.982-45.544,101.526-101.526,101.526h-49.71V156.515c0-4.024-3.262-7.287-7.287-7.287c-4.024,0-7.286,3.262-7.286,7.287
	v340.912H180.382V14.573h151.236v92.199c0,4.024,3.262,7.286,7.286,7.286c4.024,0,7.287-3.262,7.287-7.286V14.573h49.71
	c55.982,0,101.526,45.544,101.526,101.526L497.427,395.901L497.427,395.901z"/>
<g>
</g>
<g>
</g>
<g>
</g>
<g>
</g>
<g>
</g>
<g>
</g>
<g>
</g>
<g>
</g>
<g>
</g>
<g>
</g>
<g>
</g>
<g>
</g>
<g>
</g>
<g>
</g>
<g>
</g>
</svg>
