<?xml version="1.0" encoding="iso-8859-1"?>
<!-- Generator: Adobe Illustrator 19.0.0, SVG Export Plug-In . SVG Version: 6.00 Build 0)  -->
<svg version="1.1" id="Layer_1" xmlns="http://www.w3.org/2000/svg" xmlns:xlink="http://www.w3.org/1999/xlink" x="0px" y="0px"
	 viewBox="0 0 512 512" style="enable-background:new 0 0 512 512;" xml:space="preserve">
<path style="fill:#259245;" d="M7.286,395.901c0,60.095,48.717,108.812,108.812,108.812h279.803
	c60.095,0,108.812-48.717,108.812-108.812V256H7.286V395.901z"/>
<path style="fill:#ED1F34;" d="M395.901,7.286H116.099C56.003,7.286,7.286,56.004,7.286,116.099V256h497.427V116.099
	C504.714,56.004,455.997,7.286,395.901,7.286z"/>
<polygon style="fill:#FFE000;" points="168.829,236.429 233.012,233.113 256,173.096 278.988,233.113 343.171,236.429 
	293.195,276.838 309.875,338.905 256,303.861 202.125,338.905 218.805,276.838 "/>
<path d="M343.547,229.152l-59.45-3.071l-21.292-55.591c-1.08-2.819-3.786-4.68-6.805-4.68c-3.019,0-5.725,1.862-6.805,4.68
	l-21.292,55.591l-59.45,3.071c-3.015,0.156-5.621,2.155-6.554,5.026s0.001,6.02,2.348,7.917l46.291,37.429l-15.451,57.49
	c-0.784,2.915,0.312,6.011,2.754,7.786c2.442,1.774,5.725,1.859,8.256,0.213L256,312.554l49.901,32.458
	c1.211,0.788,2.593,1.178,3.973,1.178c1.506,0,3.009-0.466,4.283-1.392c2.442-1.774,3.538-4.871,2.754-7.786l-15.451-57.49
	l46.291-37.429c2.347-1.898,3.281-5.046,2.348-7.917C349.168,231.307,346.562,229.307,343.547,229.152z M288.613,271.172
	c-2.241,1.812-3.203,4.774-2.455,7.557l11.743,43.694l-37.927-24.67c-1.209-0.786-2.591-1.178-3.973-1.178
	c-1.382,0-2.765,0.393-3.973,1.178l-37.927,24.67l11.743-43.694c0.748-2.783-0.214-5.745-2.455-7.557l-35.183-28.448l45.184-2.334
	c2.879-0.149,5.398-1.98,6.429-4.671L256,193.468l16.183,42.251c1.03,2.691,3.55,4.522,6.429,4.671l45.184,2.334L288.613,271.172z"
	/>
<path d="M395.901,0H116.099C52.082,0,0,52.082,0,116.099v279.803C0,459.918,52.082,512,116.099,512h279.803
	C459.918,512,512,459.918,512,395.901V116.099C512,52.082,459.918,0,395.901,0z M497.427,395.901
	c0,55.981-45.545,101.526-101.526,101.526H116.099c-55.981,0-101.526-45.545-101.526-101.526V116.099
	c0-55.981,45.544-101.526,101.526-101.526h279.803c55.981,0,101.526,45.544,101.526,101.526v279.802H497.427z"/>
<g>
</g>
<g>
</g>
<g>
</g>
<g>
</g>
<g>
</g>
<g>
</g>
<g>
</g>
<g>
</g>
<g>
</g>
<g>
</g>
<g>
</g>
<g>
</g>
<g>
</g>
<g>
</g>
<g>
</g>
</svg>
