<?xml version="1.0" encoding="iso-8859-1"?>
<!-- Generator: Adobe Illustrator 19.0.0, SVG Export Plug-In . SVG Version: 6.00 Build 0)  -->
<svg version="1.1" id="Layer_1" xmlns="http://www.w3.org/2000/svg" xmlns:xlink="http://www.w3.org/1999/xlink" x="0px" y="0px"
	 viewBox="0 0 512 512" style="enable-background:new 0 0 512 512;" xml:space="preserve">
<path style="fill:#ED1F34;" d="M395.902,7.286H116.099C56.004,7.286,7.287,56.004,7.287,116.099v279.803
	c0,60.095,48.717,108.812,108.812,108.812h279.803c60.095,0,108.812-48.717,108.812-108.812V116.099
	C504.714,56.004,455.997,7.286,395.902,7.286z"/>
<path style="fill:#FFFFFF;" d="M133.302,380.373l79.588-62.178l-79.588-62.178l79.588-62.178l-79.588-62.178l79.588-62.195
	l-79.588-62.18h-17.203C56.004,7.286,7.287,56.004,7.287,116.099v279.803c0,60.095,48.717,108.812,108.812,108.812h17.203
	l79.588-62.178L133.302,380.373z"/>
<path d="M395.902,0H116.099C52.082,0,0,52.082,0,116.099v279.803C0,459.918,52.082,512,116.099,512h17.199c0.003,0,0.006,0,0.009,0
	c0.002,0,0.004,0,0.006,0h262.589C459.919,512,512,459.918,512,395.901V116.099C512,52.082,459.919,0,395.902,0z M14.573,395.901
	V116.099c0-55.982,45.544-101.526,101.526-101.526h14.693l70.263,54.9l-72.24,56.445c-1.768,1.381-2.8,3.499-2.8,5.741
	c0,2.243,1.033,4.361,2.801,5.742l72.239,56.436l-72.239,56.438c-1.768,1.381-2.801,3.499-2.801,5.742
	c0,2.243,1.033,4.361,2.801,5.742l72.238,56.435l-72.238,56.434c-1.768,1.381-2.801,3.499-2.801,5.742s1.033,4.361,2.801,5.742
	l72.237,56.426l-70.26,54.889h-14.694C60.117,497.427,14.573,451.883,14.573,395.901z M497.427,395.901
	c0,55.982-45.544,101.526-101.526,101.526H154.464l62.911-49.147c1.768-1.381,2.801-3.499,2.801-5.742s-1.033-4.361-2.801-5.742
	l-72.237-56.426l72.238-56.434c1.768-1.381,2.801-3.499,2.801-5.742s-1.033-4.361-2.801-5.742l-72.239-56.435l72.239-56.438
	c1.768-1.381,2.801-3.499,2.801-5.742c0-2.243-1.033-4.361-2.801-5.742l-72.239-56.436l72.239-56.445
	c1.768-1.38,2.8-3.499,2.8-5.741s-1.033-4.361-2.8-5.742l-62.914-49.158h241.44c55.982,0,101.526,45.544,101.526,101.526v279.802
	H497.427z"/>
<g>
</g>
<g>
</g>
<g>
</g>
<g>
</g>
<g>
</g>
<g>
</g>
<g>
</g>
<g>
</g>
<g>
</g>
<g>
</g>
<g>
</g>
<g>
</g>
<g>
</g>
<g>
</g>
<g>
</g>
</svg>
