<?xml version="1.0" encoding="iso-8859-1"?>
<!-- Generator: Adobe Illustrator 19.0.0, SVG Export Plug-In . SVG Version: 6.00 Build 0)  -->
<svg version="1.1" id="Layer_1" xmlns="http://www.w3.org/2000/svg" xmlns:xlink="http://www.w3.org/1999/xlink" x="0px" y="0px"
	 viewBox="0 0 512 512" style="enable-background:new 0 0 512 512;" xml:space="preserve">
<path style="fill:#ED1F34;" d="M173.096,504.714h222.806c60.095,0,108.812-48.717,108.812-108.812V256H173.096V504.714z"/>
<path style="fill:#FFE000;" d="M395.901,7.286H173.096V256h331.618V116.099C504.714,56.004,455.997,7.286,395.901,7.286z"/>
<path style="fill:#259245;" d="M173.096,7.286h-56.997C56.003,7.286,7.286,56.004,7.286,116.099v279.803
	c0,60.095,48.717,108.812,108.812,108.812h56.997V256L173.096,7.286L173.096,7.286z"/>
<path d="M395.901,0H116.099C52.082,0,0,52.082,0,116.099v279.803C0,459.918,52.082,512,116.099,512h279.803
	C459.918,512,512,459.918,512,395.901V116.099C512,52.082,459.918,0,395.901,0z M497.427,116.099v132.615H180.382V14.573h215.519
	C451.882,14.573,497.427,60.118,497.427,116.099z M395.901,497.427H180.382v-42.456c0-4.025-3.262-7.286-7.286-7.286
	s-7.287,3.262-7.287,7.286v42.456h-49.71c-55.982,0-101.526-45.545-101.526-101.526V116.099
	c0-55.981,45.544-101.526,101.526-101.526h49.71v390.655c0,4.025,3.262,7.286,7.287,7.286c4.024,0,7.286-3.262,7.286-7.286V263.286
	h317.045v132.615C497.427,451.882,451.882,497.427,395.901,497.427z"/>
<g>
</g>
<g>
</g>
<g>
</g>
<g>
</g>
<g>
</g>
<g>
</g>
<g>
</g>
<g>
</g>
<g>
</g>
<g>
</g>
<g>
</g>
<g>
</g>
<g>
</g>
<g>
</g>
<g>
</g>
</svg>
