<?xml version="1.0" encoding="iso-8859-1"?>
<!-- Generator: Adobe Illustrator 19.0.0, SVG Export Plug-In . SVG Version: 6.00 Build 0)  -->
<svg version="1.1" id="Layer_1" xmlns="http://www.w3.org/2000/svg" xmlns:xlink="http://www.w3.org/1999/xlink" x="0px" y="0px"
	 viewBox="0 0 512 512" style="enable-background:new 0 0 512 512;" xml:space="preserve">
<g>
	<path style="fill:#FFFFFF;" d="M8.258,385.927V126.073c0-19.459,15.775-35.234,35.234-35.234h425.015
		c19.459,0,35.234,15.775,35.234,35.234v259.854c0,19.459-15.775,35.234-35.234,35.234H43.492
		C24.033,421.161,8.258,405.386,8.258,385.927z"/>
	<path style="fill:#FFFFFF;" d="M154.212,241.736c-18.217,0-32.985-14.775-32.985-32.993H77.64
		c0,34.272,22.522,63.267,53.571,73.032l-18.629,45.152h41.631v-38.942c12.488-0.333,22.511-10.553,22.511-23.12
		C176.723,252.296,166.699,242.068,154.212,241.736z"/>
	<path style="fill:#FFFFFF;" d="M357.788,241.736c18.217,0,32.985-14.775,32.985-32.993h43.587
		c0,34.272-22.522,63.267-53.571,73.032l18.629,45.152h-41.631v-38.942c-12.488-0.333-22.512-10.553-22.512-23.12
		C335.277,252.296,345.301,242.068,357.788,241.736z"/>
</g>
<path style="fill:#ED1F34;" d="M306.175,235.865v20.161c0,8.811-1.325,16.517-3.552,23.251h-93.246
	c-2.227-6.733-3.552-14.441-3.552-23.251v-20.161H306.175z"/>
<g>
	<path style="fill:#164FCE;" d="M209.377,279.276h93.246C291.202,313.977,256,322.677,256,322.677S220.798,313.977,209.377,279.276z
		"/>
	<rect x="205.824" y="192.457" style="fill:#164FCE;" width="100.352" height="43.404"/>
</g>
<g>
	<path style="fill:#FFE000;" d="M256,149.312c-21.062,0-41.35,3.315-60.371,9.449c0,0.001,10.196,33.702,10.196,33.702h100.351
		l10.196-33.701C297.35,152.627,277.062,149.312,256,149.312z"/>
	<path style="fill:#FFE000;" d="M256,370.947c-24.836,0-48.043-10.498-64.337-28.616l-8.069,15.868
		c-2.068,4.066-7.039,5.687-11.104,3.618c-4.065-2.068-5.685-7.039-3.618-11.104l14-27.53c1.339-2.632,3.979-4.348,6.928-4.503
		c2.962-0.155,5.756,1.276,7.362,3.754c12.996,20.037,34.991,31.999,58.839,31.999s45.843-11.962,58.839-31.999
		c1.606-2.476,4.411-3.904,7.361-3.754c2.949,0.155,5.589,1.872,6.928,4.503l14,27.53c2.067,4.065,0.447,9.037-3.618,11.104
		c-4.064,2.069-9.036,0.448-11.104-3.618l-8.069-15.868C304.043,360.449,280.836,370.947,256,370.947z"/>
</g>
<g>
	<path style="fill:#1A1C20;" d="M183.942,211.991c2.214-3.987,0.778-9.014-3.209-11.229l-33.767-18.759
		c-3.142-1.745-7.053-1.257-9.672,1.207c-2.617,2.464-3.34,6.339-1.786,9.582l19.512,40.72c-0.197-0.009-0.392-0.024-0.59-0.03
		c-0.073-0.001-0.146-0.003-0.219-0.003c-13.635,0-24.727-11.097-24.727-24.735c0-4.561-3.696-8.258-8.258-8.258H77.64
		c-0.003,0-0.007,0-0.011,0H58.881c-4.562,0-8.258,3.697-8.258,8.258c0,4.561,3.696,8.258,8.258,8.258h10.909
		c2.952,30.749,22.233,57.258,50.531,69.517l-15.372,37.259c-1.052,2.547-0.762,5.451,0.77,7.742
		c1.534,2.291,4.107,3.665,6.863,3.665h41.631c4.562,0,8.258-3.697,8.258-8.258v-31.929c13.111-3.795,22.51-15.789,22.51-30.134
		c0-5.712-1.497-11.049-4.118-15.647l-19.258-40.188l11.108,6.17C176.699,217.414,181.726,215.977,183.942,211.991z
		 M168.465,264.865c0,8.119-6.357,14.65-14.473,14.866c-4.474,0.119-8.039,3.78-8.039,8.255v30.684h-21.032l13.922-33.745
		c0.883-2.139,0.828-4.551-0.153-6.647c-0.981-2.096-2.796-3.685-5.003-4.38c-25.926-8.155-44.137-30.451-47.3-56.897h27.411
		c3.827,18.76,20.429,32.932,40.285,32.993C162.155,250.257,168.465,256.771,168.465,264.865z"/>
	<path style="fill:#1A1C20;" d="M453.119,200.485h-18.748c-0.003,0-0.007,0-0.011,0h-43.587c-4.562,0-8.258,3.697-8.258,8.258
		c0,13.639-11.092,24.735-24.727,24.735c-0.073,0-0.146,0.001-0.219,0.003c-0.198,0.006-0.393,0.022-0.59,0.03l19.512-40.72
		c1.554-3.243,0.831-7.117-1.786-9.582c-2.617-2.464-6.528-2.952-9.672-1.207l-33.767,18.759c-3.987,2.215-5.423,7.243-3.209,11.229
		c2.215,3.988,7.245,5.423,11.23,3.209l11.108-6.17l-19.258,40.188c-2.622,4.598-4.119,9.935-4.119,15.647
		c0,14.345,9.4,26.339,22.51,30.134v31.929c0,4.561,3.696,8.258,8.258,8.258h41.631c0.009,0,0.017,0,0.022,0
		c4.562,0,8.258-3.697,8.258-8.258c0-1.33-0.314-2.588-0.873-3.701l-15.145-36.708c28.298-12.259,47.579-38.768,50.531-69.518
		h10.909c4.562,0,8.258-3.697,8.258-8.258C461.377,204.182,457.681,200.485,453.119,200.485z M378.312,273.898
		c-2.208,0.694-4.022,2.284-5.003,4.38c-0.981,2.096-1.035,4.508-0.153,6.647l13.921,33.745h-21.032v-30.684
		c0-4.475-3.564-8.136-8.039-8.255c-8.115-0.216-14.473-6.746-14.473-14.866c0-8.094,6.308-14.608,14.38-14.87
		c19.856-0.062,36.458-14.232,40.285-32.993h27.411C422.448,243.447,404.238,265.743,378.312,273.898z"/>
	<path style="fill:#1A1C20;" d="M330.209,163.619c1.542-4.292-0.688-9.022-4.981-10.564c-2.055-0.738-4.122-1.43-6.196-2.101
		c-0.091-0.031-0.177-0.069-0.27-0.097c-0.043-0.013-0.086-0.02-0.129-0.032c-20.181-6.479-41.214-9.771-62.634-9.771
		s-42.453,3.292-62.634,9.772c-0.043,0.012-0.086,0.019-0.129,0.032c-0.092,0.028-0.179,0.066-0.27,0.097
		c-2.073,0.671-4.14,1.363-6.196,2.101c-4.292,1.541-6.523,6.271-4.98,10.564c1.276,3.554,4.738,5.686,8.325,5.443l7.45,24.623
		v62.342c0,9.736,1.483,18.247,3.913,25.663c0.009,0.027,0.018,0.056,0.026,0.084c5.397,16.407,15.432,27.429,24.296,34.412
		c13.785,10.859,27.634,14.368,28.216,14.512c0.651,0.161,1.316,0.241,1.982,0.241s1.331-0.08,1.982-0.241
		c0.582-0.144,14.431-3.652,28.216-14.512c8.864-6.983,18.899-18.005,24.296-34.412c0.009-0.028,0.018-0.056,0.026-0.084
		c2.429-7.416,3.913-15.927,3.913-25.663v-62.342l7.449-24.621c0.185,0.012,0.37,0.023,0.555,0.023
		C325.822,169.088,328.998,166.989,330.209,163.619z M256,157.569c4.035,0,8.054,0.129,12.056,0.381l-2.647,26.251h-18.852
		l-2.647-26.249C247.921,157.699,251.954,157.569,256,157.569z M205.934,164.306c7.088-1.952,14.279-3.487,21.554-4.593l2.47,24.488
		h-18.004L205.934,164.306z M256,314.074c-5.967-1.946-23.441-8.932-33.848-26.54h67.696
		C279.441,305.142,261.967,312.128,256,314.074z M297.917,256.026c0,5.473-0.586,10.448-1.602,14.991h-80.631
		c-1.016-4.543-1.602-9.518-1.602-14.991v-11.904h83.835V256.026z M297.917,227.607h-83.835v-26.888h24.917
		c0.026,0.001,0.053,0.003,0.079,0.003c0.025,0,0.051-0.003,0.075-0.003h33.654c0.024,0,0.05,0.003,0.074,0.003
		c0.026,0,0.053-0.003,0.079-0.003h24.954v26.888H297.917z M300.046,184.201h-18.039l2.471-24.493
		c7.286,1.104,14.488,2.646,21.588,4.601L300.046,184.201z"/>
	<path style="fill:#1A1C20;" d="M468.324,82.581H43.676C19.594,82.581,0,102.173,0,126.256v259.487
		c0,24.084,19.594,43.676,43.676,43.676h424.647c24.083,0,43.676-19.593,43.676-43.676V126.256
		C512,102.173,492.406,82.581,468.324,82.581z M495.484,385.743c0,14.977-12.183,27.16-27.16,27.16H43.676
		c-14.977,0-27.16-12.183-27.16-27.16V126.256c0-14.976,12.183-27.159,27.16-27.159h424.647c14.977,0,27.16,12.183,27.16,27.159
		V385.743z"/>
</g>
<g>
</g>
<g>
</g>
<g>
</g>
<g>
</g>
<g>
</g>
<g>
</g>
<g>
</g>
<g>
</g>
<g>
</g>
<g>
</g>
<g>
</g>
<g>
</g>
<g>
</g>
<g>
</g>
<g>
</g>
</svg>
