<?xml version="1.0" encoding="iso-8859-1"?>
<!-- Generator: Adobe Illustrator 19.0.0, SVG Export Plug-In . SVG Version: 6.00 Build 0)  -->
<svg version="1.1" id="Layer_1" xmlns="http://www.w3.org/2000/svg" xmlns:xlink="http://www.w3.org/1999/xlink" x="0px" y="0px"
	 viewBox="0 0 512 512" style="enable-background:new 0 0 512 512;" xml:space="preserve">
<g>
	<path style="fill:#FFFFFF;" d="M395.901,7.286H116.099C56.003,7.286,7.286,56.004,7.286,116.099v279.803
		c0,60.095,48.717,108.812,108.812,108.812h279.803c60.095,0,108.812-48.717,108.812-108.812V116.099
		C504.714,56.004,455.997,7.286,395.901,7.286z"/>
	<path style="fill:#FFFFFF;" d="M153.813,241.68c-18.288,0-33.114-14.834-33.114-33.122H76.941
		c0,34.407,22.611,63.515,53.781,73.318l-18.702,45.329h41.793V288.11c12.537-0.334,22.6-10.594,22.6-23.211
		C176.412,252.282,166.35,242.014,153.813,241.68z"/>
	<path style="fill:#FFFFFF;" d="M358.187,241.68c18.289,0,33.114-14.834,33.114-33.122h43.758c0,34.407-22.611,63.515-53.781,73.318
		l18.703,45.329h-41.794V288.11c-12.537-0.334-22.599-10.594-22.599-23.211C335.588,252.282,345.65,242.014,358.187,241.68z"/>
</g>
<path style="fill:#ED1F34;" d="M306.372,235.785v20.24c0,8.845-1.33,16.582-3.566,23.342h-93.611
	c-2.237-6.76-3.566-14.497-3.566-23.342v-20.24L306.372,235.785L306.372,235.785z"/>
<g>
	<path style="fill:#164FCE;" d="M209.194,279.367h93.611C291.341,314.204,256,322.939,256,322.939S220.659,314.204,209.194,279.367z
		"/>
	<rect x="205.63" y="192.21" style="fill:#164FCE;" width="100.74" height="43.572"/>
</g>
<path style="fill:#FFE000;" d="M256,148.894c-21.145,0-41.512,3.328-60.608,9.486c0,0.001,10.236,33.834,10.236,33.834h100.744
	l10.236-33.833C297.512,152.222,277.145,148.894,256,148.894z"/>
<path d="M395.901,0H116.099C52.082,0,0,52.082,0,116.099v279.803C0,459.918,52.082,512,116.099,512h279.803
	C459.918,512,512,459.918,512,395.901V116.099C512,52.082,459.918,0,395.901,0z M497.427,395.901
	c0,55.982-45.545,101.526-101.526,101.526H116.099c-55.981,0-101.526-45.544-101.526-101.526V116.099
	c0-55.982,45.544-101.526,101.526-101.526h279.803c55.981,0,101.526,45.544,101.526,101.526v279.802H497.427z"/>
<path d="M182.781,211.331c1.954-3.518,0.688-7.954-2.83-9.908l-33.898-18.833c-2.775-1.541-6.225-1.11-8.533,1.064
	c-2.31,2.174-2.948,5.593-1.577,8.453l20.336,42.44c-0.75-0.074-1.505-0.131-2.271-0.152c-0.065-0.001-0.129-0.002-0.194-0.002
	c-14.242,0-25.828-11.59-25.828-25.835c0-4.024-3.262-7.287-7.286-7.287H76.941H76.94l0,0H58.108c-4.025,0-7.287,3.262-7.287,7.287
	s3.262,7.286,7.287,7.286h11.868c2.661,31.219,22.274,58.157,51.119,70.26l-15.811,38.322c-0.928,2.248-0.673,4.811,0.679,6.832
	c1.353,2.021,3.624,3.234,6.056,3.234h41.794c4.025,0,7.286-3.262,7.286-7.286v-32.819c13.117-3.452,22.599-15.283,22.599-29.487
	c0-5.561-1.459-10.754-4.014-15.228l-20.716-43.235l13.905,7.725C176.393,216.115,180.826,214.848,182.781,211.331z M153.62,280.826
	c-3.948,0.105-7.093,3.335-7.093,7.284v31.808h-23.619l14.549-35.263c0.779-1.888,0.731-4.016-0.135-5.866
	c-0.865-1.85-2.467-3.252-4.415-3.864c-26.775-8.422-45.471-31.653-48.306-59.082h29.468c3.434,18.78,19.891,33.069,39.633,33.122
	c8.655,0.274,15.422,7.257,15.422,15.933C169.125,273.599,162.314,280.595,153.62,280.826z"/>
<path d="M453.892,201.271H435.06c0,0,0,0-0.001,0l0,0h-43.757c-4.025,0-7.286,3.262-7.286,7.287
	c0,14.246-11.586,25.835-25.828,25.835c-0.064,0-0.129,0.001-0.193,0.002c-0.766,0.02-1.521,0.077-2.271,0.152l20.336-42.44
	c1.371-2.861,0.733-6.279-1.577-8.453c-2.309-2.176-5.762-2.606-8.533-1.064l-33.899,18.833c-3.518,1.954-4.785,6.39-2.83,9.908
	c1.953,3.518,6.392,4.786,9.908,2.831l13.905-7.725l-20.716,43.235c-2.555,4.474-4.014,9.667-4.014,15.228
	c0,14.204,9.482,26.036,22.599,29.487v32.819c0,4.024,3.262,7.286,7.286,7.286h41.794c0.007,0,0.014,0,0.019,0
	c4.025,0,7.286-3.262,7.286-7.286c0-1.174-0.277-2.283-0.77-3.265l-15.611-37.836c28.845-12.103,48.458-39.041,51.119-70.26h11.868
	c4.025,0,7.287-3.262,7.287-7.286S457.917,201.271,453.892,201.271z M379.092,274.926c-1.948,0.612-3.549,2.015-4.415,3.864
	c-0.865,1.85-0.914,3.978-0.135,5.866l14.549,35.263h-23.619v-31.808c0-3.949-3.145-7.179-7.093-7.284
	c-8.694-0.231-15.506-7.227-15.506-15.927c0-8.676,6.768-15.659,15.422-15.933c19.742-0.053,36.199-14.341,39.633-33.122h29.468
	C424.563,243.273,405.867,266.504,379.092,274.926z"/>
<path d="M325.159,153.596c-2.047-0.735-4.107-1.425-6.172-2.093c-0.09-0.031-0.177-0.068-0.269-0.096
	c-0.043-0.013-0.086-0.02-0.129-0.032c-20.167-6.476-41.186-9.767-62.589-9.767c-21.404,0-42.423,3.291-62.59,9.768
	c-0.043,0.012-0.086,0.019-0.128,0.032c-0.092,0.028-0.179,0.066-0.269,0.096c-2.066,0.668-4.125,1.358-6.172,2.093
	c-3.788,1.36-5.755,5.533-4.395,9.32c1.219,3.394,4.695,5.319,8.129,4.705l7.767,25.67v62.735c0,9.641,1.467,18.071,3.87,25.415
	c0.026,0.087,0.055,0.172,0.084,0.257c5.357,16.17,15.259,27.04,24.009,33.934c13.671,10.77,27.371,14.24,27.947,14.383
	c0.574,0.142,1.161,0.213,1.749,0.213c0.587,0,1.175-0.071,1.749-0.213c0.576-0.142,14.276-3.613,27.947-14.383
	c8.75-6.893,18.651-17.764,24.009-33.934c0.029-0.085,0.058-0.171,0.084-0.257c2.403-7.344,3.87-15.773,3.87-25.415v-62.735
	l7.765-25.664c0.425,0.076,0.851,0.114,1.273,0.114c2.988,0,5.789-1.852,6.858-4.826
	C330.915,159.13,328.947,154.956,325.159,153.596z M228.269,158.195l2.695,26.729h-19.929l-6.556-21.668
	C212.292,161.059,220.232,159.369,228.269,158.195z M272.874,199.497c0.025,0,0.05,0.004,0.075,0.004
	c0.027,0,0.053-0.003,0.08-0.004h26.056v29.002h-86.171v-29.002h26.019c0.027,0,0.053,0.004,0.08,0.004
	c0.025,0,0.05-0.003,0.075-0.004H272.874z M212.915,256.027v-12.955h86.171v12.955c0,5.893-0.669,11.216-1.814,16.054H214.73
	C213.584,267.243,212.915,261.92,212.915,256.027z M300.965,184.924h-19.966l2.696-26.734c8.049,1.175,16.001,2.866,23.825,5.066
	L300.965,184.924z M269.205,156.638l-2.853,28.286h-20.741l-2.852-28.283c4.393-0.302,8.808-0.461,13.241-0.461
	C260.421,156.18,264.824,156.338,269.205,156.638z M256,315.357c-5.964-1.898-25.054-9.305-35.711-28.703h71.421
	C281.054,306.052,261.964,313.459,256,315.357z"/>
<path style="fill:#FFE000;" d="M256,370.393c-25.143,0-48.604-10.842-64.814-29.496l-8.77,17.246
	c-1.825,3.587-6.211,5.018-9.798,3.192c-3.587-1.824-5.016-6.211-3.193-9.798l14.056-27.638c1.181-2.322,3.512-3.837,6.114-3.973
	c2.594-0.138,5.078,1.126,6.495,3.312c13.231,20.402,35.627,32.582,59.91,32.582s46.678-12.18,59.91-32.582
	c1.417-2.185,3.907-3.448,6.495-3.312c2.602,0.137,4.933,1.651,6.114,3.973l14.056,27.638c1.823,3.587,0.395,7.974-3.193,9.798
	c-3.584,1.824-7.972,0.396-9.798-3.192l-8.77-17.246C304.604,359.551,281.143,370.393,256,370.393z"/>
<g>
</g>
<g>
</g>
<g>
</g>
<g>
</g>
<g>
</g>
<g>
</g>
<g>
</g>
<g>
</g>
<g>
</g>
<g>
</g>
<g>
</g>
<g>
</g>
<g>
</g>
<g>
</g>
<g>
</g>
</svg>
