<?xml version="1.0" encoding="iso-8859-1"?>
<!-- Generator: Adobe Illustrator 19.0.0, SVG Export Plug-In . SVG Version: 6.00 Build 0)  -->
<svg version="1.1" id="Layer_1" xmlns="http://www.w3.org/2000/svg" xmlns:xlink="http://www.w3.org/1999/xlink" x="0px" y="0px"
	 viewBox="0 0 512 512" style="enable-background:new 0 0 512 512;" xml:space="preserve">
<path style="fill:#ED1F34;" d="M395.901,7.286H116.099C56.003,7.286,7.286,56.004,7.286,116.099v279.803
	c0,60.095,48.717,108.812,108.812,108.812h279.803c60.095,0,108.812-48.717,108.812-108.812V116.099
	C504.714,56.004,455.997,7.286,395.901,7.286z"/>
<path style="fill:#FFFFFF;" d="M328.773,296.365v106.24c0,44.527,41.066,45.435,61.736,59.379
	c20.669-13.944,61.736-14.852,61.736-59.379v-106.24H328.773z"/>
<path style="fill:#259245;" d="M328.773,402.605c0,44.527,41.066,45.435,61.736,59.379c20.669-13.945,61.736-14.852,61.736-59.379
	H328.773z"/>
<path style="fill:#ED1F34;" d="M390.509,329.719c-14.105,0-25.539,10.819-25.539,24.165v48.722h51.079v-48.722
	C416.049,340.538,404.614,329.719,390.509,329.719z"/>
<path style="fill:#103B9B;" d="M312.401,7.302H114.884C55.349,7.954,7.286,56.41,7.286,116.099v139.909H312.4L312.401,7.302
	L312.401,7.302z"/>
<g>
	<polygon style="fill:#FFFFFF;" points="312.401,165.22 312.401,98.067 193.42,98.067 193.42,7.286 126.267,7.286 126.267,98.067 
		7.286,98.067 7.286,165.22 126.267,165.22 126.267,256 193.42,256 193.42,165.22 	"/>
	<path style="fill:#FFFFFF;" d="M159.844,171.997L285.848,256h26.553v-63.006l-92.027-61.351l92.027-61.351V7.286h-26.553
		L159.844,91.29L58.536,23.751C39.097,35.894,23.77,54,15.116,75.511l84.198,56.132L7.286,192.994V256h26.552L159.844,171.997z"/>
</g>
<g>
	<path style="fill:#ED1F34;" d="M180.021,145.094l132.38,88.254v-26.383l-132.613-88.618l132.613-88.409V7.286h-6.376
		L139.676,118.198L32.34,46.641c-4.776,5.753-8.966,12.007-12.489,18.67l119.602,79.927L7.286,233.348V256h6.376L180.021,145.094z"
		/>
	<polygon style="fill:#ED1F34;" points="312.401,149.675 312.401,113.612 177.876,113.612 177.876,7.286 141.812,7.286 
		141.812,113.612 7.286,113.612 7.286,149.675 141.812,149.675 141.812,256 177.876,256 177.876,149.675 	"/>
</g>
<path d="M452.245,289.079H328.774c-4.024,0-7.286,3.262-7.286,7.287v106.24c0,37.806,27.17,48.821,47.01,56.864
	c6.773,2.746,13.17,5.34,17.937,8.556c1.232,0.831,2.653,1.246,4.075,1.246s2.844-0.416,4.075-1.246
	c4.767-3.216,11.165-5.809,17.937-8.555c19.839-8.043,47.01-19.058,47.01-56.864v-106.24
	C459.531,292.341,456.269,289.079,452.245,289.079z M444.958,402.605c0,27.989-18.415,35.455-37.912,43.359
	c-5.869,2.379-11.483,4.655-16.538,7.482c-5.054-2.827-10.668-5.103-16.537-7.482c-19.497-7.904-37.912-15.37-37.912-43.359v-98.953
	h108.898L444.958,402.605L444.958,402.605z"/>
<path d="M395.901,0H116.099C52.082,0,0,52.082,0,116.099v279.803C0,459.918,52.082,512,116.099,512h279.803
	C459.918,512,512,459.918,512,395.901V116.099C512,52.082,459.918,0,395.901,0z M116.099,14.573h189.016v234.148l-290.541-0.007
	V116.099C14.573,60.117,60.117,14.573,116.099,14.573z M497.427,395.901c0,55.982-45.544,101.526-101.526,101.526H116.099
	c-55.982,0-101.526-45.544-101.526-101.526V263.287l297.827,0.007c1.933,0,3.786-0.767,5.152-2.134
	c1.367-1.366,2.134-3.22,2.134-5.152l0.001-241.434h76.214c55.981,0,101.526,45.544,101.526,101.526V395.901z"/>
<g>
</g>
<g>
</g>
<g>
</g>
<g>
</g>
<g>
</g>
<g>
</g>
<g>
</g>
<g>
</g>
<g>
</g>
<g>
</g>
<g>
</g>
<g>
</g>
<g>
</g>
<g>
</g>
<g>
</g>
</svg>
