<?xml version="1.0" encoding="iso-8859-1"?>
<!-- Generator: Adobe Illustrator 19.0.0, SVG Export Plug-In . SVG Version: 6.00 Build 0)  -->
<svg version="1.1" id="Layer_1" xmlns="http://www.w3.org/2000/svg" xmlns:xlink="http://www.w3.org/1999/xlink" x="0px" y="0px"
	 viewBox="0 0 512 512" style="enable-background:new 0 0 512 512;" xml:space="preserve">
<path style="fill:#FFE000;" d="M395.901,7.287H116.099C56.003,7.287,7.287,56.004,7.287,116.099v279.803
	c0,60.095,48.717,108.812,108.812,108.812h279.803c60.095,0,108.812-48.717,108.812-108.812V116.099
	C504.713,56.004,455.997,7.287,395.901,7.287z"/>
<path style="fill:#333333;" d="M7.287,256L490.69,449.361c8.925-15.79,14.024-34.029,14.024-53.46v-36.27L7.287,156.514V256z"/>
<path style="fill:#FFFFFF;" d="M7.287,116.099v40.416l497.427,203.117V264.29L21.205,62.828
	C12.346,78.575,7.287,96.745,7.287,116.099z"/>
<path d="M512,359.522V116.099C512,52.082,459.918,0,395.901,0H116.099C52.082,0,0,52.082,0,116.099v40.469c0,0.018,0,0.037,0,0.056
	v239.278C0,459.918,52.082,512,116.099,512h279.803C459.918,512,512,459.918,512,395.901v-36.323
	C512,359.56,512,359.541,512,359.522z M116.099,14.573h279.803c55.981,0,101.526,45.545,101.526,101.525v232.686L14.573,151.619
	v-35.52C14.573,60.118,60.117,14.573,116.099,14.573z M395.901,497.427H116.099c-55.981,0-101.526-45.544-101.526-101.526v-228.54
	l482.854,197.166v31.375C497.427,451.882,451.883,497.427,395.901,497.427z"/>
<g>
	<path style="fill:#ED1F34;" d="M355.613,250.244c-4.024,0-7.287,3.262-7.287,7.287c0,50.909-41.417,92.326-92.326,92.326
		s-92.326-41.417-92.326-92.326c0-4.025-3.262-7.287-7.287-7.287c-4.024,0-7.287,3.262-7.287,7.287
		c0,58.945,47.955,106.899,106.899,106.899s106.899-47.954,106.899-106.899C362.899,253.506,359.637,250.244,355.613,250.244z"/>
	<path style="fill:#ED1F34;" d="M256,323.051c36.128,0,65.521-29.393,65.521-65.521c0-33.664-25.524-61.469-58.234-65.106v-37.567
		c0-4.025-3.262-7.286-7.286-7.286c-4.024,0-7.286,3.262-7.286,7.286v37.567c-32.71,3.638-58.234,31.442-58.234,65.106
		C190.479,293.658,219.872,323.051,256,323.051z M205.052,257.529h101.896v0.001c0,28.093-22.855,50.948-50.948,50.948
		S205.052,285.623,205.052,257.529L205.052,257.529z"/>
</g>
<g>
</g>
<g>
</g>
<g>
</g>
<g>
</g>
<g>
</g>
<g>
</g>
<g>
</g>
<g>
</g>
<g>
</g>
<g>
</g>
<g>
</g>
<g>
</g>
<g>
</g>
<g>
</g>
<g>
</g>
</svg>
