<?xml version="1.0" encoding="iso-8859-1"?>
<!-- Generator: Adobe Illustrator 19.0.0, SVG Export Plug-In . SVG Version: 6.00 Build 0)  -->
<svg version="1.1" id="Layer_1" xmlns="http://www.w3.org/2000/svg" xmlns:xlink="http://www.w3.org/1999/xlink" x="0px" y="0px"
	 viewBox="0 0 512 512" style="enable-background:new 0 0 512 512;" xml:space="preserve">
<path style="fill:#ED1F34;" d="M395.901,7.286H116.099C56.003,7.286,7.286,56.004,7.286,116.099v279.803
	c0,60.095,48.717,108.812,108.812,108.812h279.803c60.095,0,108.812-48.717,108.812-108.812V116.099
	C504.714,56.004,455.997,7.286,395.901,7.286z"/>
<path style="fill:#103B9B;" d="M31.605,390.072V121.928c0-49.884,40.439-90.323,90.323-90.323h268.144
	c49.884,0,90.323,40.439,90.323,90.323v268.144c0,49.884-40.439,90.323-90.323,90.323H121.928
	C72.044,480.395,31.605,439.956,31.605,390.072z"/>
<polygon style="fill:#FFFFFF;" points="421.809,256 256,366.539 90.191,256 256,145.461 "/>
<path style="fill:#259245;" d="M321.78,222.286c-33.566,0-60.938,26.482-62.385,59.691H227.45
	c-5.163-10.768-16.165-18.204-28.905-18.204c-0.546,0-1.089,0.014-1.628,0.041c-7.196-8.815-18.145-14.446-30.411-14.446
	c-19.136,0-35.053,13.704-38.521,31.829l52.571,35.047h150.886l52.664-35.109C382.236,248.323,355.06,222.286,321.78,222.286z"/>
<path style="fill:#ED1F34;" d="M504.714,248.714h-80.699L263.286,141.561V7.286C263.286,3.262,260.024,0,256,0
	s-7.286,3.262-7.286,7.286v134.275L87.985,248.714H7.286C3.262,248.714,0,251.976,0,256c0,4.025,3.262,7.286,7.286,7.286h80.699
	l160.728,107.152v134.275c0,4.025,3.262,7.286,7.286,7.286c4.024,0,7.286-3.262,7.286-7.286V370.438l160.728-107.152h80.699
	c4.024,0,7.286-3.262,7.286-7.286C512,251.976,508.738,248.714,504.714,248.714z M256,357.782L103.327,256L256,154.218L408.673,256
	L256,357.782z"/>
<path d="M395.901,512H116.099C52.082,512,0,459.918,0,395.901V116.099C0,52.082,52.082,0,116.099,0h279.803
	C459.918,0,512,52.082,512,116.099v279.803C512,459.918,459.918,512,395.901,512z M116.099,14.573
	c-55.982,0-101.526,45.544-101.526,101.526v279.803c0,55.981,45.544,101.526,101.526,101.526h279.803
	c55.981,0,101.526-45.545,101.526-101.526V116.099c0-55.982-45.544-101.526-101.526-101.526
	C395.902,14.573,116.099,14.573,116.099,14.573z"/>
<circle style="fill:#FFE000;" cx="256.05" cy="205.18" r="24.848"/>
<g>
</g>
<g>
</g>
<g>
</g>
<g>
</g>
<g>
</g>
<g>
</g>
<g>
</g>
<g>
</g>
<g>
</g>
<g>
</g>
<g>
</g>
<g>
</g>
<g>
</g>
<g>
</g>
<g>
</g>
</svg>
