<?xml version="1.0" encoding="iso-8859-1"?>
<!-- Generator: Adobe Illustrator 19.0.0, SVG Export Plug-In . SVG Version: 6.00 Build 0)  -->
<svg version="1.1" id="Layer_1" xmlns="http://www.w3.org/2000/svg" xmlns:xlink="http://www.w3.org/1999/xlink" x="0px" y="0px"
	 viewBox="0 0 512 512" style="enable-background:new 0 0 512 512;" xml:space="preserve">
<rect x="7.286" y="173.1" style="fill:#FFE000;" width="497.43" height="165.81"/>
<g>
	<path style="fill:#3DB4EA;" d="M7.286,395.901c0,60.095,48.717,108.812,108.812,108.812h279.803
		c60.095,0,108.812-48.717,108.812-108.812v-56.997H7.286V395.901z"/>
	<path style="fill:#3DB4EA;" d="M395.901,7.286H116.099C56.003,7.286,7.286,56.003,7.286,116.099v56.997h497.427v-56.997
		C504.714,56.003,455.997,7.286,395.901,7.286z"/>
</g>
<path style="fill:#333333;" d="M39.157,39.157c-19.691,19.691-31.87,46.894-31.87,76.942v279.803
	c0,30.047,12.179,57.25,31.87,76.942L256,256L39.157,39.157z"/>
<path d="M395.901,0H116.099C84.423,0,55.674,12.757,34.706,33.396c-0.243,0.188-0.479,0.387-0.702,0.609
	c-0.223,0.223-0.422,0.46-0.61,0.703C12.756,55.675,0,84.424,0,116.099v279.803c0,31.675,12.756,60.423,33.394,81.391
	c0.188,0.243,0.387,0.48,0.61,0.703c0.223,0.222,0.459,0.421,0.702,0.609C55.674,499.243,84.423,512,116.099,512h279.803
	C459.918,512,512,459.918,512,395.901V116.099C512,52.082,459.918,0,395.901,0z M261.153,250.847l-70.465-70.465h306.739v151.235
	H190.688l70.465-70.465c1.366-1.367,2.134-3.22,2.134-5.153C263.286,254.067,262.519,252.214,261.153,250.847z M395.901,14.573
	c55.981,0,101.526,45.544,101.526,101.526v49.711H176.114L49.679,39.374c17.817-15.444,41.046-24.801,66.42-24.801H395.901z
	 M14.573,116.099c0-25.373,9.356-48.603,24.8-66.419L245.695,256L39.374,462.32c-15.444-17.816-24.8-41.046-24.8-66.419V116.099
	H14.573z M395.901,497.427H116.099c-25.374,0-48.603-9.357-66.42-24.801l126.436-126.435h321.313v49.711
	C497.427,451.882,451.882,497.427,395.901,497.427z"/>
<g>
</g>
<g>
</g>
<g>
</g>
<g>
</g>
<g>
</g>
<g>
</g>
<g>
</g>
<g>
</g>
<g>
</g>
<g>
</g>
<g>
</g>
<g>
</g>
<g>
</g>
<g>
</g>
<g>
</g>
</svg>
