<?xml version="1.0" encoding="iso-8859-1"?>
<!-- Generator: Adobe Illustrator 19.0.0, SVG Export Plug-In . SVG Version: 6.00 Build 0)  -->
<svg version="1.1" id="Layer_1" xmlns="http://www.w3.org/2000/svg" xmlns:xlink="http://www.w3.org/1999/xlink" x="0px" y="0px"
	 viewBox="0 0 512 512" style="enable-background:new 0 0 512 512;" xml:space="preserve">
<path style="fill:#FFE000;" d="M395.901,7.287H116.099C56.003,7.287,7.286,56.004,7.286,116.099v279.803
	c0,30.048,12.179,57.251,31.871,76.942L472.843,39.157C453.152,19.466,425.949,7.287,395.901,7.287z"/>
<path style="fill:#FF7900;" d="M472.843,39.157L39.157,472.843c19.691,19.691,46.894,31.871,76.942,31.871h279.803
	c60.095,0,108.812-48.717,108.812-108.812V116.099C504.714,86.051,492.534,58.848,472.843,39.157z"/>
<path style="fill:#FFFFFF;" d="M279.607,234.15c33.055,0,59.851,26.796,59.851,59.851s-26.796,59.851-59.851,59.851H139.123
	c-12.067,0-21.849-9.782-21.849-21.849s9.782-21.85,21.849-21.85h140.484c8.92,0,16.151-7.231,16.151-16.152
	c0-8.92-7.231-16.151-16.151-16.151h-47.213c-33.055,0-59.851-26.796-59.851-59.851s26.796-59.851,59.851-59.851h157.494v21.85
	c0,12.067-9.782,21.85-21.85,21.85H232.394c-8.92,0-16.151,7.231-16.151,16.152s7.231,16.151,16.151,16.151L279.607,234.15z"/>
<path d="M395.901,0H116.099C52.082,0,0,52.082,0,116.099v279.803C0,459.918,52.082,512,116.099,512h279.803
	C459.918,512,512,459.918,512,395.901V116.099C512,52.082,459.918,0,395.901,0z M497.427,395.901
	c0,55.982-45.545,101.526-101.526,101.526H116.099c-55.982,0-101.526-45.544-101.526-101.526V116.099
	c0-55.981,45.544-101.526,101.526-101.526h279.803c55.981,0,101.526,45.544,101.526,101.526v279.802H497.427z"/>
<path d="M397.174,173.892v-15.744v-8.819c0-4.024-3.262-7.287-7.287-7.287s-7.286,3.262-7.286,7.287v1.532h-41.384v-12.058
	c0-4.024-3.262-7.286-7.286-7.286c-4.025,0-7.286,3.262-7.286,7.286v12.058h-8.271v-12.058c0-4.024-3.262-7.286-7.286-7.286
	c-4.025,0-7.286,3.262-7.286,7.286v12.058h-8.271V127.75c0-4.024-3.262-7.287-7.286-7.287s-7.286,3.262-7.286,7.287v23.112h-8.272
	V127.75c0-4.024-3.262-7.287-7.287-7.287s-7.286,3.262-7.286,7.287v23.112h-25.715c-37.02,0-67.138,30.118-67.138,67.137
	c0,37.02,30.118,67.137,67.138,67.137h47.213c4.888,0,8.865,3.977,8.865,8.865s-3.977,8.865-8.865,8.865H139.129h-29.587
	c-4.024,0-7.286,3.262-7.286,7.287c0,4.024,3.262,7.286,7.286,7.286h4.368c-1.307,2.254-2.327,4.694-2.994,7.277H98.481
	c-4.024,0-7.286,3.262-7.286,7.287s3.262,7.286,7.286,7.286h12.428c0.667,2.582,1.687,5.022,2.994,7.276h-4.368
	c-4.024,0-7.286,3.262-7.286,7.287c0,4.024,3.262,7.286,7.286,7.286h29.587h39.951v6.531c0,13.16,10.707,23.867,23.868,23.867h22.66
	c4.024,0,7.286-3.262,7.286-7.287s-3.262-7.286-7.286-7.286h-22.66c-5.125,0-9.295-4.169-9.295-9.294v-6.531h51.75v6.531
	c0,13.16,10.707,23.867,23.868,23.867h22.66c4.025,0,7.287-3.262,7.287-7.287s-3.262-7.286-7.287-7.286h-22.66
	c-5.125,0-9.295-4.169-9.295-9.294v-6.531h19.637c37.02,0,67.138-30.118,67.138-67.137c0-37.02-30.118-67.137-67.138-67.137h-47.213
	c-4.889,0-8.865-3.977-8.865-8.865s3.977-8.865,8.865-8.865h94.25v6.544c0,13.16,10.707,23.867,23.868,23.867h22.66
	c4.025,0,7.287-3.262,7.287-7.287s-3.262-7.287-7.287-7.287h-22.66c-5.125,0-9.295-4.169-9.295-9.294v-6.544h26.822
	c13.821,0,25.417-9.677,28.389-22.609c2.405-1.19,4.063-3.662,4.063-6.528C400.491,177.439,399.169,175.192,397.174,173.892z
	 M368.038,194.561h-34.107h-0.001c-0.001,0-0.001,0-0.001,0H232.394c-12.924,0-23.438,10.514-23.438,23.438
	s10.514,23.438,23.438,23.438h47.213c28.984,0,52.565,23.58,52.565,52.564s-23.581,52.564-52.565,52.564h-85.96v-1.556
	c0-4.024-3.262-7.287-7.286-7.287s-7.287,3.262-7.287,7.287v1.556h-39.951c-8.03,0-14.563-6.533-14.563-14.563
	s6.533-14.563,14.563-14.563h140.483c12.924,0,23.438-10.514,23.438-23.438c0-12.924-10.514-23.438-23.438-23.438h-47.213
	c-28.984,0-52.565-23.58-52.565-52.564s23.58-52.564,52.565-52.564h71.438c0.331,3.717,3.45,6.632,7.254,6.632
	s6.922-2.915,7.254-6.632h8.337c0.331,3.717,3.45,6.632,7.254,6.632s6.922-2.915,7.253-6.632H382.6v7.276h-15.509
	c-4.025,0-7.286,3.262-7.286,7.286s3.262,7.287,7.286,7.287h13.535C378.103,191.627,373.412,194.561,368.038,194.561z"/>
<g>
</g>
<g>
</g>
<g>
</g>
<g>
</g>
<g>
</g>
<g>
</g>
<g>
</g>
<g>
</g>
<g>
</g>
<g>
</g>
<g>
</g>
<g>
</g>
<g>
</g>
<g>
</g>
<g>
</g>
</svg>
