<?xml version="1.0" encoding="iso-8859-1"?>
<!-- Generator: Adobe Illustrator 19.0.0, SVG Export Plug-In . SVG Version: 6.00 Build 0)  -->
<svg version="1.1" id="Layer_1" xmlns="http://www.w3.org/2000/svg" xmlns:xlink="http://www.w3.org/1999/xlink" x="0px" y="0px"
	 viewBox="0 0 512 512" style="enable-background:new 0 0 512 512;" xml:space="preserve">
<path style="fill:#FFFFFF;" d="M139.788,7.286h-23.689C56.003,7.286,7.286,56.003,7.286,116.099v279.803
	c0,56.395,42.903,102.768,97.851,108.265h34.651V7.286z"/>
<path style="fill:#ED1F34;" d="M504.714,338.54V116.09C504.708,55.998,455.994,7.286,395.901,7.286H140.163V338.54H504.714z"/>
<path style="fill:#259245;" d="M140.163,338.54v165.627h266.701c54.944-5.497,97.845-51.865,97.85-108.255V338.54H140.163z"/>
<path style="fill:#ED1F34;" d="M144.774,499.4l-60.59-56.869l60.59-56.869c1.468-1.378,2.3-3.301,2.3-5.313
	c0-2.013-0.832-3.935-2.3-5.313l-60.59-56.866l60.59-56.866c1.468-1.378,2.3-3.3,2.3-5.313c0-2.013-0.832-3.936-2.3-5.313
	l-60.589-56.864l60.589-56.864c1.468-1.378,2.3-3.3,2.3-5.313s-0.833-3.936-2.3-5.313L84.185,69.461L144.774,12.6
	c1.527-1.434,2.292-3.371,2.292-5.313h-17.927L73.537,59.468L45.583,33.234c-3.706,3.157-7.199,6.557-10.451,10.178l94.008,88.224
	L73.537,183.82l-55.603-52.184l24.285-22.79c2.934-2.754,3.081-7.365,0.326-10.299c-2.753-2.934-7.364-3.082-10.3-0.327
	L7.286,121.643v19.986L129.14,255.99l-55.604,52.186L17.934,255.99l24.287-22.793c2.934-2.754,3.081-7.365,0.326-10.299
	c-2.753-2.934-7.364-3.082-10.3-0.327l-24.96,23.426v19.987L129.14,380.349l-55.603,52.189l-55.603-52.189l24.288-22.794
	c2.935-2.754,3.081-7.365,0.326-10.3c-2.753-2.933-7.364-3.082-10.3-0.326L7.286,370.356v19.987L129.14,504.714h17.927
	C147.067,502.772,146.302,500.834,144.774,499.4z"/>
<path d="M395.901,0H116.099C52.082,0,0,52.082,0,116.099v279.803C0,459.918,52.082,512,116.099,512h279.803
	C459.918,512,512,459.918,512,395.901V116.099C512,52.082,459.918,0,395.901,0z M14.573,395.901V116.099
	c0-55.982,45.544-101.526,101.526-101.526h16.402v482.854h-16.402C60.118,497.427,14.573,451.883,14.573,395.901z M395.901,497.427
	H147.074V345.826h52.205c4.025,0,7.287-3.262,7.287-7.287c0-4.024-3.262-7.286-7.287-7.286h-52.205V14.573h248.827
	c55.981,0,101.526,45.544,101.526,101.526v215.155h-268.59c-4.025,0-7.287,3.262-7.287,7.286c0,4.024,3.262,7.287,7.287,7.287
	h268.59v50.075C497.427,451.883,451.882,497.427,395.901,497.427z"/>
<g>
</g>
<g>
</g>
<g>
</g>
<g>
</g>
<g>
</g>
<g>
</g>
<g>
</g>
<g>
</g>
<g>
</g>
<g>
</g>
<g>
</g>
<g>
</g>
<g>
</g>
<g>
</g>
<g>
</g>
</svg>
