<?xml version="1.0" encoding="iso-8859-1"?>
<!-- Generator: Adobe Illustrator 19.0.0, SVG Export Plug-In . SVG Version: 6.00 Build 0)  -->
<svg version="1.1" id="Layer_1" xmlns="http://www.w3.org/2000/svg" xmlns:xlink="http://www.w3.org/1999/xlink" x="0px" y="0px"
	 viewBox="0 0 512 512" style="enable-background:new 0 0 512 512;" xml:space="preserve">
<path style="fill:#103B9B;" d="M13.633,79.414c-4.104,11.462-6.346,23.811-6.346,36.685v279.803c0,12.874,2.242,25.223,6.346,36.685
	h484.734c4.104-11.462,6.346-23.811,6.346-36.685V116.099c0-12.874-2.242-25.223-6.346-36.685H13.633z"/>
<g>
	<path style="fill:#ED1F34;" d="M395.901,7.286H116.099c-47.221,0-87.411,30.083-102.466,72.127h484.734
		C483.312,37.369,443.123,7.286,395.901,7.286z"/>
	<path style="fill:#ED1F34;" d="M116.099,504.714h279.803c47.222,0,87.411-30.083,102.466-72.127H13.633
		C28.688,474.631,68.877,504.714,116.099,504.714z"/>
</g>
<path d="M512,395.901V116.099c0-13.541-2.338-26.545-6.619-38.638c-0.093-0.335-0.206-0.661-0.344-0.975
	C488.809,31.915,446.013,0,395.901,0H116.099C65.987,0,23.191,31.915,6.963,76.486c-0.138,0.314-0.251,0.64-0.344,0.975
	C2.338,89.554,0,102.557,0,116.099v279.803c0,13.541,2.338,26.545,6.619,38.638c0.093,0.335,0.206,0.661,0.344,0.975
	C23.191,480.085,65.987,512,116.099,512h279.803c50.112,0,92.908-31.915,109.136-76.486c0.138-0.313,0.251-0.64,0.344-0.975
	C509.662,422.446,512,409.443,512,395.901z M116.099,14.573h279.803c40.238,0,75.085,23.53,91.501,57.554H24.598
	C41.014,38.103,75.86,14.573,116.099,14.573z M395.901,497.427H116.099c-40.238,0-75.085-23.53-91.501-57.554h381.834
	c4.025,0,7.286-3.262,7.286-7.287s-3.262-7.286-7.286-7.286H18.919c-2.822-9.31-4.346-19.179-4.346-29.398V116.099
	c0-10.219,1.524-20.088,4.346-29.398h474.162c2.822,9.31,4.346,19.179,4.346,29.398v279.803c0,10.219-1.524,20.088-4.346,29.398
	H432.89c-4.025,0-7.286,3.262-7.286,7.286c0,4.025,3.262,7.287,7.286,7.287h54.512C470.986,473.897,436.139,497.427,395.901,497.427
	z"/>
<circle style="fill:#FFFFFF;" cx="256" cy="256" r="126.84"/>
<path style="fill:#259245;" d="M256,361.114c-57.96,0-105.114-47.154-105.114-105.114S198.04,150.886,256,150.886
	S361.114,198.04,361.114,256S313.96,361.114,256,361.114z M256,165.459c-49.924,0-90.541,40.617-90.541,90.541
	s40.617,90.541,90.541,90.541s90.541-40.617,90.541-90.541S305.924,165.459,256,165.459z"/>
<path style="fill:#FFE000;" d="M220.949,212.998v55.957c0,22.089,18.544,34.906,35.051,39.996
	c16.508-5.09,35.051-17.907,35.051-39.996v-55.957L220.949,212.998L220.949,212.998z"/>
<path d="M256,316.237c-0.724,0-1.448-0.108-2.147-0.324c-19.43-5.991-40.191-21.474-40.191-46.959v-55.956
	c0-4.025,3.262-7.286,7.287-7.286h70.102c4.025,0,7.287,3.262,7.287,7.286v55.956c0,25.486-20.761,40.968-40.191,46.959
	C257.448,316.129,256.724,316.237,256,316.237z M228.235,220.285v48.67c0,20.186,19.113,29.255,27.765,32.321
	c8.652-3.065,27.765-12.135,27.765-32.321v-48.67L228.235,220.285L228.235,220.285z"/>
<g>
</g>
<g>
</g>
<g>
</g>
<g>
</g>
<g>
</g>
<g>
</g>
<g>
</g>
<g>
</g>
<g>
</g>
<g>
</g>
<g>
</g>
<g>
</g>
<g>
</g>
<g>
</g>
<g>
</g>
</svg>
