<?xml version="1.0" encoding="iso-8859-1"?>
<!-- Generator: Adobe Illustrator 19.0.0, SVG Export Plug-In . SVG Version: 6.00 Build 0)  -->
<svg version="1.1" id="Layer_1" xmlns="http://www.w3.org/2000/svg" xmlns:xlink="http://www.w3.org/1999/xlink" x="0px" y="0px"
	 viewBox="0 0 512 512" style="enable-background:new 0 0 512 512;" xml:space="preserve">
<rect x="117.83" y="7.286" style="fill:#FFFFFF;" width="276.35" height="497.43"/>
<g>
	<path style="fill:#ED1F34;" d="M116.099,7.286C56.003,7.286,7.286,56.003,7.286,116.099v279.803
		c0,60.095,48.717,108.812,108.812,108.812h1.727V7.286H116.099z"/>
	<path style="fill:#ED1F34;" d="M395.901,7.286h-1.727v497.427h1.727c60.095,0,108.812-48.717,108.812-108.812V116.099
		C504.713,56.003,455.997,7.286,395.901,7.286z"/>
	<polygon style="fill:#ED1F34;" points="349.515,210.67 306.82,212.969 278.696,247.398 284.565,189.169 256,157.353 
		227.435,189.169 233.304,247.398 205.18,212.969 162.485,210.67 164.784,253.366 207.8,288.505 207.8,310.669 304.2,310.669 
		304.2,288.505 347.216,253.366 	"/>
</g>
<path d="M356.403,236.454l-1.024,0.836l1.412-26.228c0.111-2.066-0.661-4.082-2.124-5.545c-1.463-1.463-3.481-2.223-5.544-2.123
	l-26.226,1.412l0.835-1.022c2.546-3.117,2.083-7.707-1.033-10.253s-7.706-2.082-10.252,1.033l-11.262,13.786
	c-0.002,0.003-0.005,0.006-0.008,0.008l-12.802,15.673l3.44-34.132c0-0.003,0-0.006,0-0.009l1.786-17.715
	c0.403-4.004-2.515-7.577-6.519-7.98c-3.995-0.415-7.577,2.515-7.981,6.519l-0.132,1.314l-17.547-19.544
	c-1.382-1.539-3.353-2.418-5.422-2.418s-4.04,0.88-5.422,2.418l-17.547,19.544l-0.132-1.314c-0.404-4.004-3.986-6.927-7.981-6.519
	c-4.004,0.403-6.923,3.976-6.519,7.98l1.786,17.724l3.44,34.132l-12.802-15.673c-0.002-0.003-0.005-0.006-0.008-0.008
	l-11.262-13.786c-2.545-3.115-7.137-3.579-10.252-1.033c-3.117,2.547-3.579,7.137-1.033,10.253l0.835,1.022l-26.226-1.412
	c-2.068-0.104-4.081,0.66-5.544,2.123c-1.463,1.463-2.235,3.479-2.124,5.545l1.412,26.228l-1.024-0.836
	c-3.116-2.545-7.706-2.084-10.253,1.034c-2.546,3.116-2.083,7.707,1.034,10.252l13.792,11.266c0.001,0.001,0.003,0.002,0.004,0.004
	l40.34,32.952v18.708c0,4.025,3.262,7.286,7.286,7.286h40.913v36.692c0,4.025,3.262,7.286,7.287,7.286
	c4.024,0,7.286-3.262,7.286-7.286v-36.692H304.2c4.024,0,7.286-3.262,7.286-7.286v-18.708l40.34-32.952
	c0.002-0.001,0.003-0.003,0.004-0.004l13.792-11.266c3.117-2.546,3.579-7.137,1.034-10.252
	C364.11,234.371,359.519,233.908,356.403,236.454z M299.59,282.862c-1.694,1.384-2.677,3.455-2.677,5.643v14.878h-81.826v-14.878
	c0-2.188-0.983-4.259-2.677-5.643l-40.523-33.102l-1.689-31.378l31.377,1.689l26.087,31.936c2.034,2.49,5.461,3.355,8.432,2.121
	c2.971-1.23,4.784-4.263,4.462-7.462l-5.546-55.026L256,168.26l20.992,23.381l-5.546,55.026c-0.322,3.199,1.49,6.231,4.462,7.462
	c2.971,1.231,6.397,0.369,8.432-2.121l26.087-31.936l31.377-1.689l-1.689,31.378L299.59,282.862z"/>
<path d="M395.901,0H116.099C52.082,0,0,52.082,0,116.099v279.803C0,459.918,52.082,512,116.099,512h279.803
	C459.918,512,512,459.918,512,395.901V116.099C512,52.082,459.918,0,395.901,0z M14.573,395.901V116.099
	c0-54.116,42.56-98.475,95.966-101.372v482.546C57.133,494.376,14.573,450.017,14.573,395.901z M497.427,395.901
	c0,54.116-42.56,98.475-95.966,101.371V167.568c0-4.025-3.262-7.286-7.286-7.286s-7.286,3.262-7.286,7.286v329.859H125.112V14.573
	h261.775v119.834c0,4.025,3.262,7.286,7.286,7.286s7.286-3.262,7.286-7.286V14.727c53.406,2.897,95.966,47.256,95.966,101.372
	v279.802H497.427z"/>
<g>
</g>
<g>
</g>
<g>
</g>
<g>
</g>
<g>
</g>
<g>
</g>
<g>
</g>
<g>
</g>
<g>
</g>
<g>
</g>
<g>
</g>
<g>
</g>
<g>
</g>
<g>
</g>
<g>
</g>
</svg>
