<?xml version="1.0" encoding="iso-8859-1"?>
<!-- Generator: Adobe Illustrator 19.0.0, SVG Export Plug-In . SVG Version: 6.00 Build 0)  -->
<svg version="1.1" id="Layer_1" xmlns="http://www.w3.org/2000/svg" xmlns:xlink="http://www.w3.org/1999/xlink" x="0px" y="0px"
	 viewBox="0 0 512 512" style="enable-background:new 0 0 512 512;" xml:space="preserve">
<path style="fill:#103B9B;" d="M395.901,7.286H116.099C56.003,7.286,7.286,56.004,7.286,116.099v279.803
	c0,60.095,48.717,108.812,108.812,108.812h279.803c60.095,0,108.812-48.717,108.812-108.812V116.099
	C504.713,56.004,455.997,7.286,395.901,7.286z"/>
<g>
	<path style="fill:#FFE000;" d="M314.147,328.387c-39.978,0-72.387-32.409-72.387-72.388s32.409-72.386,72.387-72.386
		c1.203,0,2.398,0.033,3.586,0.09c-11.994-6.744-25.824-10.607-40.563-10.607c-45.787,0-82.904,37.118-82.904,82.904
		c0,45.787,37.117,82.905,82.904,82.905c14.74,0,28.57-3.863,40.563-10.608C316.545,328.354,315.35,328.387,314.147,328.387z"/>
	<circle style="fill:#FFE000;" cx="109.6" cy="187.6" r="49.19"/>
	<circle style="fill:#FFE000;" cx="385.26" cy="156.51" r="16.581"/>
	<circle style="fill:#FFE000;" cx="385.26" cy="355.49" r="16.581"/>
	<circle style="fill:#FFE000;" cx="435" cy="197.97" r="16.581"/>
	<circle style="fill:#FFE000;" cx="335.52" cy="239.42" r="16.581"/>
	<circle style="fill:#FFE000;" cx="410.13" cy="276.73" r="11.05"/>
</g>
<circle style="fill:#259245;" cx="109.6" cy="176.57" r="21.402"/>
<path d="M314.147,190.899c1.029,0,2.089,0.027,3.238,0.082c0.131,0.006,0.264,0.006,0.394,0.009
	c4.012-0.014,7.261-3.271,7.261-7.287c0-2.876-1.666-5.362-4.086-6.547c-13.344-7.424-28.475-11.346-43.784-11.346
	c-49.732,0-90.191,40.459-90.191,90.19s40.459,90.192,90.191,90.192c15.444,0,30.705-3.992,44.135-11.543
	c2.945-1.656,4.365-5.119,3.432-8.365c-0.934-3.247-3.965-5.438-7.352-5.264c-1.149,0.055-2.209,0.082-3.238,0.082
	c-35.897,0-65.101-29.204-65.101-65.101C249.046,220.103,278.25,190.899,314.147,190.899z M234.473,255.999
	c0,34.452,21.982,63.866,52.654,74.958c-3.293,0.438-6.62,0.66-9.957,0.66c-41.696,0-75.618-33.922-75.618-75.619
	c0-41.695,33.922-75.617,75.618-75.617c3.337,0,6.664,0.222,9.956,0.66C256.455,192.134,234.473,221.548,234.473,255.999z"/>
<path d="M395.901,0H116.099C52.082,0,0,52.082,0,116.099v279.803C0,459.918,52.082,512,116.099,512h279.803
	C459.918,512,512,459.918,512,395.901V116.099C512,52.082,459.918,0,395.901,0z M497.427,395.901
	c0,55.981-45.544,101.526-101.526,101.526H116.099c-55.981,0-101.526-45.545-101.526-101.526V116.099
	c0-55.981,45.544-101.526,101.526-101.526h279.803c55.982,0,101.526,45.544,101.526,101.526v279.802H497.427z"/>
<path d="M109.604,147.878c-15.819,0-28.689,12.87-28.689,28.689c0,13.302,9.101,24.516,21.402,27.749v15.729
	c0,4.025,3.262,7.287,7.287,7.287s7.286-3.262,7.286-7.287v-15.729c12.301-3.233,21.402-14.447,21.402-27.749
	C138.293,160.748,125.424,147.878,109.604,147.878z M109.604,190.682c-7.784,0-14.116-6.332-14.116-14.116
	s6.332-14.116,14.116-14.116s14.116,6.332,14.116,14.116C123.72,184.35,117.388,190.682,109.604,190.682z"/>
<g>
</g>
<g>
</g>
<g>
</g>
<g>
</g>
<g>
</g>
<g>
</g>
<g>
</g>
<g>
</g>
<g>
</g>
<g>
</g>
<g>
</g>
<g>
</g>
<g>
</g>
<g>
</g>
<g>
</g>
</svg>
