<?xml version="1.0" encoding="iso-8859-1"?>
<!-- Generator: Adobe Illustrator 19.0.0, SVG Export Plug-In . SVG Version: 6.00 Build 0)  -->
<svg version="1.1" id="Layer_1" xmlns="http://www.w3.org/2000/svg" xmlns:xlink="http://www.w3.org/1999/xlink" x="0px" y="0px"
	 viewBox="0 0 512 512" style="enable-background:new 0 0 512 512;" xml:space="preserve">
<path style="fill:#3DB4EA;" d="M395.901,7.286H116.099C56.003,7.286,7.286,56.004,7.286,116.099v279.803
	c0,60.095,48.717,108.812,108.812,108.812h279.803c60.095,0,108.812-48.717,108.812-108.812V116.099
	C504.713,56.004,455.997,7.286,395.901,7.286z"/>
<polygon style="fill:#FFE000;" points="56.796,101.322 91.386,99.535 103.775,67.189 116.164,99.535 150.754,101.322 
	123.821,123.099 132.81,156.549 103.775,137.663 74.74,156.549 83.73,123.099 "/>
<path style="fill:#ED1F34;" d="M468.026,34.633L7.286,378.052v17.849c0,32.425,14.188,61.531,36.688,81.466l460.739-343.419v-17.849
	C504.713,83.674,490.526,54.567,468.026,34.633z"/>
<g>
	<path style="fill:#FFE000;" d="M78.394,498l426.319-317.758v-46.294L43.974,477.367C53.977,486.23,65.62,493.281,78.394,498z"/>
	<path style="fill:#FFE000;" d="M433.606,14L7.286,331.758v46.294l460.74-343.419C458.023,25.77,446.38,18.719,433.606,14z"/>
</g>
<path d="M52.214,106.988l23.249,18.798l-7.76,28.873c-0.783,2.915,0.312,6.011,2.754,7.786s5.725,1.86,8.256,0.214l25.062-16.302
	l25.062,16.302c1.21,0.788,2.592,1.178,3.973,1.178c1.506,0,3.01-0.466,4.283-1.392c2.443-1.774,3.537-4.871,2.754-7.786
	l-7.759-28.873l23.248-18.798c2.347-1.898,3.281-5.047,2.348-7.918s-3.539-4.87-6.554-5.026l-29.857-1.543L110.58,64.584
	c-1.08-2.819-3.786-4.68-6.805-4.68s-5.725,1.862-6.804,4.68L86.277,92.502L56.42,94.045c-3.015,0.156-5.621,2.155-6.554,5.026
	C48.933,101.941,49.867,105.09,52.214,106.988z M91.763,106.811c2.878-0.149,5.397-1.98,6.428-4.671l5.584-14.58l5.585,14.58
	c1.031,2.691,3.551,4.522,6.428,4.671l15.592,0.805l-12.141,9.817c-2.24,1.812-3.203,4.774-2.455,7.557l4.052,15.078l-13.088-8.513
	c-1.208-0.786-2.59-1.178-3.973-1.178s-2.765,0.393-3.973,1.178l-13.087,8.513l4.052-15.078c0.748-2.783-0.215-5.745-2.455-7.557
	l-12.141-9.817L91.763,106.811z"/>
<path d="M473.462,29.788c-0.386-0.435-0.815-0.812-1.276-1.133C451.769,10.821,425.076,0,395.901,0H116.099
	C52.082,0,0,52.082,0,116.099v279.803c0,34.246,14.908,65.071,38.57,86.34c0.366,0.407,0.77,0.761,1.202,1.066
	C60.194,501.164,86.904,512,116.099,512h279.803C459.918,512,512,459.918,512,395.901V116.099
	C512,81.868,497.106,51.055,473.462,29.788z M116.099,14.573h279.803c22.528,0,43.363,7.38,60.222,19.843L14.573,363.533V116.099
	C14.573,60.118,60.117,14.573,116.099,14.573z M395.901,497.427H116.099c-22.528,0-43.363-7.38-60.222-19.843l369.464-275.385
	c3.227-2.405,3.893-6.971,1.488-10.197c-2.405-3.228-6.972-3.893-10.196-1.488L44.545,467.854
	c-18.501-18.399-29.971-43.861-29.971-71.953v-14.193L467.455,44.146c18.501,18.399,29.971,43.861,29.971,71.953v14.193
	l-51.098,38.086c-3.227,2.405-3.893,6.971-1.488,10.197c1.43,1.919,3.625,2.932,5.848,2.932c1.514,0,3.042-0.47,4.349-1.444
	l42.389-31.596v247.435C497.427,451.882,451.883,497.427,395.901,497.427z"/>
<g>
</g>
<g>
</g>
<g>
</g>
<g>
</g>
<g>
</g>
<g>
</g>
<g>
</g>
<g>
</g>
<g>
</g>
<g>
</g>
<g>
</g>
<g>
</g>
<g>
</g>
<g>
</g>
<g>
</g>
</svg>
