<?xml version="1.0" encoding="iso-8859-1"?>
<!-- Generator: Adobe Illustrator 19.0.0, SVG Export Plug-In . SVG Version: 6.00 Build 0)  -->
<svg version="1.1" id="Layer_1" xmlns="http://www.w3.org/2000/svg" xmlns:xlink="http://www.w3.org/1999/xlink" x="0px" y="0px"
	 viewBox="0 0 512 512" style="enable-background:new 0 0 512 512;" xml:space="preserve">
<rect x="7.286" y="256" style="fill:#259245;" width="497.43" height="124.36"/>
<path style="fill:#164FCE;" d="M395.901,7.286H116.099C56.003,7.286,7.286,56.004,7.286,116.099v15.545h497.427v-15.545
	C504.713,56.004,455.997,7.286,395.901,7.286z"/>
<path style="fill:#FFE000;" d="M7.286,395.901c0,60.095,48.717,108.812,108.812,108.812h279.803
	c60.095,0,108.812-48.717,108.812-108.812v-15.545H7.286V395.901z"/>
<rect x="7.286" y="131.64" style="fill:#FFFFFF;" width="497.43" height="124.36"/>
<rect x="193.82" y="7.286" style="fill:#ED1F34;" width="124.36" height="497.43"/>
<path d="M395.901,0H116.099C52.082,0,0,52.082,0,116.099v279.803C0,459.918,52.082,512,116.099,512h279.803
	C459.918,512,512,459.918,512,395.901V116.099C512,52.082,459.918,0,395.901,0z M186.536,248.714H14.573V138.93h171.963V248.714z
	 M14.573,263.286h171.963V373.07H14.573V263.286z M201.109,14.573h109.784V129.49c-0.21,0.68-0.324,1.403-0.324,2.153
	s0.114,1.472,0.324,2.153v120.046c-0.211,0.682-0.325,1.407-0.325,2.158c0,0.751,0.114,1.476,0.325,2.158v120.04
	c-0.211,0.682-0.325,1.407-0.325,2.158c0,0.751,0.114,1.476,0.325,2.159v114.912H201.109V14.573z M325.466,138.93h171.961v109.784
	H325.466V138.93z M497.427,116.099v8.258H325.466V14.573h70.435C451.883,14.573,497.427,60.118,497.427,116.099z M116.099,14.573
	h70.437v109.784H14.573v-8.258C14.573,60.118,60.117,14.573,116.099,14.573z M14.573,395.901v-8.258h171.963v109.784h-70.437
	C60.117,497.427,14.573,451.882,14.573,395.901z M395.901,497.427h-70.435V387.643h113.896c4.024,0,7.287-3.262,7.287-7.287
	s-3.262-7.286-7.287-7.286H325.466V263.286h171.961V373.07h-25.875c-4.024,0-7.286,3.262-7.286,7.286
	c0,4.025,3.262,7.287,7.286,7.287h25.875v8.258C497.427,451.882,451.883,497.427,395.901,497.427z"/>
<circle style="fill:#FFE000;" cx="100.17" cy="69.47" r="24.871"/>
<g>
</g>
<g>
</g>
<g>
</g>
<g>
</g>
<g>
</g>
<g>
</g>
<g>
</g>
<g>
</g>
<g>
</g>
<g>
</g>
<g>
</g>
<g>
</g>
<g>
</g>
<g>
</g>
<g>
</g>
</svg>
