<?xml version="1.0" encoding="iso-8859-1"?>
<!-- Generator: Adobe Illustrator 19.0.0, SVG Export Plug-In . SVG Version: 6.00 Build 0)  -->
<svg version="1.1" id="Layer_1" xmlns="http://www.w3.org/2000/svg" xmlns:xlink="http://www.w3.org/1999/xlink" x="0px" y="0px"
	 viewBox="0 0 512.001 512.001" style="enable-background:new 0 0 512.001 512.001;" xml:space="preserve">
<path style="fill:#259245;" d="M116.099,7.286C56.004,7.286,7.287,56.004,7.287,116.099v279.803
	c0,27.037,9.865,51.768,26.187,70.799L349.959,7.286H116.099z"/>
<path style="fill:#ED1F34;" d="M162.042,504.714h233.86c60.095,0,108.812-48.717,108.812-108.812V116.099
	c0-27.037-9.865-51.769-26.187-70.799L162.042,504.714z"/>
<path style="fill:#FFE000;" d="M395.902,7.286h-45.943L33.474,466.7c19.956,23.268,49.567,38.013,82.625,38.013h45.943L478.527,45.3
	C458.571,22.031,428.96,7.286,395.902,7.286z"/>
<path d="M484.604,41.284c-0.313-0.474-0.689-0.914-1.119-1.313C462.184,15.496,430.819,0,395.902,0H116.099
	C52.082,0,0.001,52.082,0.001,116.099v279.803c0,28.481,10.315,54.594,27.397,74.815c0.313,0.474,0.689,0.914,1.119,1.313
	c21.3,24.474,52.665,39.97,87.582,39.97h45.924c0.004,0,0.009,0.001,0.013,0.001c0.005,0,0.011-0.001,0.016-0.001h233.85
	C459.919,512,512,459.918,512,395.901V116.099C512,87.618,501.686,61.505,484.604,41.284z M14.574,116.099
	c0-55.981,45.544-101.526,101.526-101.526h219.992L33.133,454.351c-11.685-16.538-18.559-36.706-18.559-58.45
	C14.574,395.901,14.574,116.099,14.574,116.099z M42.772,466.047L353.787,14.573h42.115c28.798,0,54.833,12.054,73.327,31.379
	L158.214,497.427H116.1C87.301,497.427,61.267,485.373,42.772,466.047z M497.427,395.901c0,55.981-45.544,101.526-101.526,101.526
	H175.91L478.868,57.649c11.685,16.538,18.559,36.706,18.559,58.45V395.901z"/>
<g>
</g>
<g>
</g>
<g>
</g>
<g>
</g>
<g>
</g>
<g>
</g>
<g>
</g>
<g>
</g>
<g>
</g>
<g>
</g>
<g>
</g>
<g>
</g>
<g>
</g>
<g>
</g>
<g>
</g>
</svg>
