<?xml version="1.0" encoding="iso-8859-1"?>
<!-- Generator: Adobe Illustrator 19.0.0, SVG Export Plug-In . SVG Version: 6.00 Build 0)  -->
<svg version="1.1" id="Layer_1" xmlns="http://www.w3.org/2000/svg" xmlns:xlink="http://www.w3.org/1999/xlink" x="0px" y="0px"
	 viewBox="0 0 512 512" style="enable-background:new 0 0 512 512;" xml:space="preserve">
<g>
	<circle style="fill:#FFFFFF;" cx="347.53" cy="465.07" r="14.36"/>
	<circle style="fill:#FFFFFF;" cx="388.73" cy="465.07" r="14.36"/>
</g>
<path style="fill:#103B9B;" d="M395.901,7.286H116.099C56.003,7.286,7.286,56.004,7.286,116.099v279.803
	c0,60.095,48.717,108.812,108.812,108.812h279.803c60.095,0,108.812-48.717,108.812-108.812V116.099
	C504.714,56.004,455.997,7.286,395.901,7.286z"/>
<g>
	<polygon style="fill:#FFFFFF;" points="312.401,165.22 312.401,98.067 193.42,98.067 193.42,7.286 126.267,7.286 126.267,98.067 
		7.286,98.067 7.286,165.22 126.267,165.22 126.267,256 193.42,256 193.42,165.22 	"/>
	<path style="fill:#FFFFFF;" d="M159.844,171.997L285.848,256h26.553v-63.006l-92.027-61.351l92.027-61.351V7.286h-26.553
		L159.844,91.29L58.536,23.751C39.097,35.894,23.77,54,15.116,75.511l84.198,56.132L7.286,192.994V256h26.552L159.844,171.997z"/>
</g>
<g>
	<path style="fill:#ED1F34;" d="M180.021,145.094l132.38,88.254v-26.383l-132.613-88.618l132.613-88.409V7.286h-6.376
		L139.676,118.198L32.34,46.641c-4.776,5.753-8.966,12.007-12.489,18.67l119.602,79.927L7.286,233.348V256h6.376L180.021,145.094z"
		/>
	<polygon style="fill:#ED1F34;" points="312.401,149.675 312.401,113.612 177.876,113.612 177.876,7.286 141.812,7.286 
		141.812,113.612 7.286,113.612 7.286,149.675 141.812,149.675 141.812,256 177.876,256 177.876,149.675 	"/>
</g>
<g>
	<circle style="fill:#FFFFFF;" cx="364.94" cy="268.7" r="13.951"/>
	<circle style="fill:#FFFFFF;" cx="325.79" cy="277.02" r="13.951"/>
	<circle style="fill:#FFFFFF;" cx="293.4" cy="300.55" r="13.951"/>
	<circle style="fill:#FFFFFF;" cx="273.39" cy="335.22" r="13.951"/>
	<circle style="fill:#FFFFFF;" cx="269.2" cy="375.03" r="13.951"/>
	<circle style="fill:#FFFFFF;" cx="281.57" cy="413.1" r="13.951"/>
	<circle style="fill:#FFFFFF;" cx="308.36" cy="442.84" r="13.951"/>
	<circle style="fill:#FFFFFF;" cx="421.52" cy="442.84" r="13.951"/>
	<circle style="fill:#FFFFFF;" cx="448.31" cy="413.1" r="13.951"/>
	<circle style="fill:#FFFFFF;" cx="460.67" cy="375.03" r="13.951"/>
	<circle style="fill:#FFFFFF;" cx="456.49" cy="335.22" r="13.951"/>
	<circle style="fill:#FFFFFF;" cx="436.48" cy="300.55" r="13.951"/>
	<circle style="fill:#FFFFFF;" cx="404.09" cy="277.02" r="13.951"/>
</g>
<path d="M395.901,512H116.099C52.082,512,0,459.918,0,395.901V116.099C0,52.082,52.082,0,116.099,0h279.803
	C459.918,0,512,52.082,512,116.099v279.803C512,459.918,459.918,512,395.901,512z M116.099,14.573
	c-55.982,0-101.526,45.544-101.526,101.526v279.803c0,55.982,45.544,101.526,101.526,101.526h279.803
	c55.981,0,101.526-45.544,101.526-101.526V116.099c0-55.982-45.545-101.526-101.526-101.526
	C395.902,14.573,116.099,14.573,116.099,14.573z"/>
<g>
</g>
<g>
</g>
<g>
</g>
<g>
</g>
<g>
</g>
<g>
</g>
<g>
</g>
<g>
</g>
<g>
</g>
<g>
</g>
<g>
</g>
<g>
</g>
<g>
</g>
<g>
</g>
<g>
</g>
</svg>
