<?xml version="1.0" encoding="iso-8859-1"?>
<!-- Generator: Adobe Illustrator 19.0.0, SVG Export Plug-In . SVG Version: 6.00 Build 0)  -->
<svg version="1.1" id="Layer_1" xmlns="http://www.w3.org/2000/svg" xmlns:xlink="http://www.w3.org/1999/xlink" x="0px" y="0px"
	 viewBox="0 0 512 512" style="enable-background:new 0 0 512 512;" xml:space="preserve">
<path style="fill:#FFFFFF;" d="M395.901,7.286H116.099C56.003,7.286,7.286,56.004,7.286,116.099v279.803
	c0,60.095,48.717,108.812,108.812,108.812h279.803c60.095,0,108.812-48.717,108.812-108.812V116.099
	C504.714,56.004,455.997,7.286,395.901,7.286z"/>
<path style="fill:#ED1F34;" d="M360.388,198.132c-11.993,17.334-28.196,31.528-47.123,41.124
	c-2.506-6.865-9.074-11.775-16.806-11.775c-9.889,0-17.906,8.017-17.906,17.906c0,1.868,0.288,3.668,0.818,5.36
	c-7.575,1.411-15.386,2.154-23.371,2.154s-15.796-0.743-23.371-2.154c0.53-1.692,0.818-3.492,0.818-5.36
	c0-9.889-8.017-17.906-17.906-17.906c-7.732,0-14.3,4.911-16.806,11.775c-18.928-9.596-35.13-23.79-47.123-41.124h-48.413
	c7.89,77.429,73.29,137.844,152.802,137.844s144.912-60.414,152.802-137.844L360.388,198.132L360.388,198.132z"/>
<path d="M395.901,0H116.099C52.082,0,0,52.082,0,116.099v279.803C0,459.918,52.082,512,116.099,512h279.803
	C459.918,512,512,459.918,512,395.901V116.099C512,52.082,459.918,0,395.901,0z M497.427,395.901
	c0,55.981-45.544,101.526-101.526,101.526H116.099c-55.982,0-101.526-45.545-101.526-101.526V116.099
	c0-55.981,45.544-101.526,101.526-101.526h279.803c55.981,0,101.526,45.544,101.526,101.526v279.802H497.427z"/>
<path d="M435.775,190.845H408.81c-0.01,0-0.02,0-0.03,0h-48.302c-0.002,0-0.004,0-0.005,0h-13.571c-4.024,0-7.286,3.262-7.286,7.286
	c0,3.55,2.54,6.503,5.9,7.151c-8.49,9.573-18.479,17.777-29.542,24.21c-4.703-5.759-11.836-9.299-19.515-9.299
	c-13.643,0-24.788,10.9-25.182,24.45c-10.118,1.29-20.436,1.29-30.554,0c-0.394-13.549-11.539-24.45-25.182-24.45
	c-7.679,0-14.812,3.54-19.515,9.299c-11.062-6.433-21.052-14.637-29.542-24.21c3.361-0.648,5.9-3.6,5.9-7.151
	c0-4.025-3.262-7.286-7.286-7.286h-13.564c-0.005,0-0.01,0-0.016,0H76.225c-4.024,0-7.287,3.262-7.287,7.286
	c0,4.025,3.262,7.286,7.287,7.286h20.532c4.907,34.019,20.801,65.919,45.188,90.43c25.937,26.069,60.277,42.579,96.696,46.488
	c0.264,0.028,0.526,0.043,0.786,0.043c3.675,0,6.835-2.773,7.236-6.509c0.43-4.002-2.466-7.593-6.467-8.023
	c-65.529-7.034-118.451-57.928-128.695-122.428h36.365c12.456,16.934,28.831,30.835,47.574,40.337
	c1.859,0.943,4.032,1.044,5.969,0.279c1.938-0.765,3.456-2.323,4.171-4.279c1.526-4.18,5.529-6.989,9.961-6.989
	c5.856,0,10.62,4.765,10.62,10.62c0,1.083-0.163,2.155-0.485,3.182c-0.623,1.989-0.364,4.148,0.71,5.934s2.861,3.026,4.909,3.407
	c8.111,1.511,16.423,2.278,24.705,2.278c8.283,0,16.595-0.767,24.705-2.278c2.048-0.381,3.835-1.622,4.909-3.407
	c1.074-1.786,1.333-3.945,0.71-5.934c-0.322-1.028-0.485-2.099-0.485-3.182c0-5.856,4.764-10.62,10.62-10.62
	c4.432,0,8.435,2.808,9.961,6.989c0.714,1.956,2.233,3.514,4.171,4.279c1.937,0.764,4.111,0.663,5.969-0.279
	c18.743-9.502,35.118-23.403,47.574-40.337h36.365c-10.244,64.5-63.166,115.394-128.695,122.428
	c-4.001,0.43-6.897,4.021-6.467,8.023c0.401,3.736,3.561,6.509,7.236,6.509c0.26,0,0.522-0.014,0.787-0.043
	c36.419-3.909,70.759-20.418,96.696-46.488c24.387-24.511,40.281-56.411,45.188-90.43h20.532c4.024,0,7.286-3.262,7.286-7.286
	C443.061,194.107,439.799,190.845,435.775,190.845z"/>
<g>
</g>
<g>
</g>
<g>
</g>
<g>
</g>
<g>
</g>
<g>
</g>
<g>
</g>
<g>
</g>
<g>
</g>
<g>
</g>
<g>
</g>
<g>
</g>
<g>
</g>
<g>
</g>
<g>
</g>
</svg>
