<?xml version="1.0" encoding="iso-8859-1"?>
<!-- Generator: Adobe Illustrator 19.0.0, SVG Export Plug-In . SVG Version: 6.00 Build 0)  -->
<svg version="1.1" id="Layer_1" xmlns="http://www.w3.org/2000/svg" xmlns:xlink="http://www.w3.org/1999/xlink" x="0px" y="0px"
	 viewBox="0 0 512 512" style="enable-background:new 0 0 512 512;" xml:space="preserve">
<path style="fill:#FFE000;" d="M395.901,7.286H116.099C56.003,7.286,7.286,56.004,7.286,116.099v279.803
	c0,60.095,48.717,108.812,108.812,108.812h279.803c60.095,0,108.812-48.717,108.812-108.812V116.099
	C504.713,56.004,455.997,7.286,395.901,7.286z"/>
<rect x="256" y="68.49" style="fill:#ED1F34;" width="187.53" height="375.02"/>
<g>
	<polygon style="fill:#103B9B;" points="349.579,68.493 256.003,256.046 443.532,68.493 	"/>
	<rect x="68.51" y="68.49" style="fill:#103B9B;" width="187.49" height="375.02"/>
</g>
<g>
	<polygon style="fill:#ED1F34;" points="68.513,162.264 256.021,256.046 68.513,256.046 	"/>
	<polygon style="fill:#ED1F34;" points="68.513,349.817 255.973,256.055 68.513,443.512 	"/>
	<polyline style="fill:#ED1F34;" points="162.427,68.493 256.003,256.046 68.513,68.493 	"/>
</g>
<g>
	<polygon style="fill:#103B9B;" points="443.532,162.264 255.985,256.046 443.532,256.046 	"/>
	<polygon style="fill:#103B9B;" points="443.532,349.817 256.032,256.055 443.532,443.512 	"/>
</g>
<path d="M395.901,512H116.099C52.082,512,0,459.918,0,395.901V116.099C0,52.082,52.082,0,116.099,0h279.803
	C459.918,0,512,52.082,512,116.099v279.803C512,459.918,459.918,512,395.901,512z M116.099,14.573
	c-55.981,0-101.526,45.544-101.526,101.526v279.803c0,55.981,45.544,101.526,101.526,101.526h279.803
	c55.982,0,101.526-45.545,101.526-101.526V116.099c0-55.981-45.544-101.526-101.526-101.526
	C395.902,14.573,116.099,14.573,116.099,14.573z"/>
<g>
	<path style="fill:#FFE000;" d="M256.003,357c-55.655,0-100.933-45.278-100.933-100.933s45.278-100.934,100.933-100.934
		s100.934,45.279,100.934,100.934C356.937,311.722,311.658,357,256.003,357z M256.003,169.707c-47.619,0-86.36,38.741-86.36,86.361
		c0,47.619,38.741,86.359,86.36,86.359c47.62,0,86.361-38.741,86.361-86.359C342.364,208.448,303.622,169.707,256.003,169.707z"/>
	<circle style="fill:#FFE000;" cx="256" cy="256.07" r="60.31"/>
</g>
<path d="M256.003,323.66c-37.271,0-67.593-30.322-67.593-67.593s30.322-67.594,67.593-67.594s67.594,30.323,67.594,67.594
	C323.596,293.339,293.274,323.66,256.003,323.66z M256.003,203.046c-29.235,0-53.02,23.785-53.02,53.021
	c0,29.235,23.785,53.02,53.02,53.02c29.236,0,53.02-23.785,53.02-53.02C309.023,226.831,285.239,203.046,256.003,203.046z"/>
<polygon style="fill:#FFFFFF;" points="68.513,371.396 256.111,256 443.532,371.396 443.532,443.512 68.513,443.512 "/>
<path style="fill:#FF7900;" d="M256.111,318.477c-16.882,0-30.568,13.686-30.568,30.568h61.136
	C286.679,332.163,272.993,318.477,256.111,318.477z"/>
<path style="fill:#103B9B;" d="M225.543,349.045c0,16.882,13.686,30.568,30.568,30.568s30.568-13.686,30.568-30.568H225.543z"/>
<path d="M443.532,61.207H68.513c-4.024,0-7.286,3.262-7.286,7.287v375.019c0,4.025,3.262,7.287,7.286,7.287h375.02
	c4.024,0,7.286-3.262,7.286-7.287V68.493C450.819,64.469,447.556,61.207,443.532,61.207z M436.246,75.78v282.572L259.931,249.795
	c-2.342-1.442-5.296-1.442-7.638-0.002L75.799,358.36V75.78H436.246z M75.799,436.226v-60.758l180.31-110.912l180.137,110.911
	v60.759L75.799,436.226L75.799,436.226z"/>
<g>
</g>
<g>
</g>
<g>
</g>
<g>
</g>
<g>
</g>
<g>
</g>
<g>
</g>
<g>
</g>
<g>
</g>
<g>
</g>
<g>
</g>
<g>
</g>
<g>
</g>
<g>
</g>
<g>
</g>
</svg>
