<?xml version="1.0" encoding="iso-8859-1"?>
<!-- Generator: Adobe Illustrator 19.0.0, SVG Export Plug-In . SVG Version: 6.00 Build 0)  -->
<svg version="1.1" id="Layer_1" xmlns="http://www.w3.org/2000/svg" xmlns:xlink="http://www.w3.org/1999/xlink" x="0px" y="0px"
	 viewBox="0 0 512.001 512.001" style="enable-background:new 0 0 512.001 512.001;" xml:space="preserve">
<g>
	<path style="fill:#103B9B;" d="M395.901,7.287H116.099c-51.166,0-94.076,35.319-105.7,82.905h491.203
		C489.978,42.606,447.068,7.287,395.901,7.287z"/>
	<path style="fill:#103B9B;" d="M116.099,504.715h279.803c51.167,0,94.076-35.319,105.7-82.905H10.398
		C22.022,469.396,64.932,504.715,116.099,504.715z"/>
</g>
<path style="fill:#FFFFFF;" d="M7.286,395.902c0,8.929,1.083,17.603,3.112,25.908h491.203c2.029-8.304,3.112-16.979,3.112-25.908
	v-56.997H7.286V395.902z"/>
<rect x="7.286" y="173.091" style="fill:#ED1F34;" width="497.43" height="165.81"/>
<path style="fill:#FFFFFF;" d="M10.398,90.192c-2.029,8.304-3.112,16.979-3.112,25.908v56.997h497.427V116.1
	c0-8.929-1.083-17.603-3.112-25.908C501.601,90.192,10.398,90.192,10.398,90.192z"/>
<path d="M508.755,88.822c-0.052-0.272-0.115-0.539-0.196-0.8c-12.588-50.495-58.32-88.021-112.658-88.021H116.099
	c-54.338,0-100.07,37.526-112.658,88.021c-0.081,0.26-0.144,0.528-0.196,0.8C1.129,97.574,0,106.707,0,116.1v279.803
	c0,9.393,1.129,18.526,3.245,27.278c0.052,0.272,0.115,0.539,0.196,0.8C16.029,474.475,61.761,512,116.099,512h279.803
	c54.338,0,100.069-37.526,112.658-88.021c0.081-0.26,0.144-0.528,0.196-0.8c2.116-8.752,3.245-17.885,3.245-27.278V116.1
	C512,106.707,510.871,97.574,508.755,88.822z M14.573,180.383H73.61c4.025,0,7.286-3.262,7.286-7.287
	c0-4.025-3.262-7.286-7.286-7.286H14.573v-49.711c0-6.36,0.594-12.583,1.718-18.621h479.418c1.124,6.039,1.718,12.262,1.718,18.621
	v49.711H106.772c-4.025,0-7.286,3.262-7.286,7.286c0,4.025,3.262,7.287,7.286,7.287h390.655v151.235H14.573V180.383z
	 M116.099,14.574h279.803c44.361,0,82.163,28.602,95.947,68.331H20.152C33.936,43.176,71.738,14.574,116.099,14.574z
	 M395.901,497.428H116.099c-44.361,0-82.163-28.602-95.947-68.331h415.956c4.025,0,7.287-3.262,7.287-7.286
	c0-4.025-3.262-7.286-7.287-7.286H16.291c-1.124-6.039-1.718-12.262-1.718-18.621v-49.711h482.854v49.711
	c0,6.36-0.594,12.583-1.718,18.621h-26.854c-4.025,0-7.286,3.262-7.286,7.286c0,4.025,3.262,7.286,7.286,7.286h22.993
	C478.064,468.826,440.262,497.428,395.901,497.428z"/>
<g>
</g>
<g>
</g>
<g>
</g>
<g>
</g>
<g>
</g>
<g>
</g>
<g>
</g>
<g>
</g>
<g>
</g>
<g>
</g>
<g>
</g>
<g>
</g>
<g>
</g>
<g>
</g>
<g>
</g>
</svg>
