<?xml version="1.0" encoding="iso-8859-1"?>
<!-- Generator: Adobe Illustrator 19.0.0, SVG Export Plug-In . SVG Version: 6.00 Build 0)  -->
<svg version="1.1" id="Layer_1" xmlns="http://www.w3.org/2000/svg" xmlns:xlink="http://www.w3.org/1999/xlink" x="0px" y="0px"
	 viewBox="0 0 512 512" style="enable-background:new 0 0 512 512;" xml:space="preserve">
<path style="fill:#103B9B;" d="M395.943,7.287H116.056C56.176,7.31,7.61,55.702,7.294,115.512v280.975
	c0.316,59.824,48.905,108.226,108.805,108.226h279.803c60.095,0,108.812-48.717,108.812-108.812V116.099
	C504.713,56.018,456.019,7.31,395.943,7.287z"/>
<rect x="7.286" y="285.15" style="fill:#FFFFFF;" width="497.42" height="82.903"/>
<path style="fill:#ED1F34;" d="M504.706,333.331H7.286c-4.024,0-7.286-3.262-7.286-7.286c0-4.025,3.262-7.286,7.286-7.286h497.419
	c4.024,0,7.286,3.262,7.286,7.286C511.992,330.069,508.73,333.331,504.706,333.331z"/>
<path d="M395.901,0H116.099C52.082,0,0,52.082,0,116.099v279.803C0,459.918,52.082,512,116.099,512h279.803
	C459.918,512,512,459.918,512,395.901V116.099C512,52.082,459.918,0,395.901,0z M116.099,14.573h279.803
	c55.982,0,101.526,45.544,101.526,101.526V277.86h-25.882c-4.024,0-7.286,3.262-7.286,7.286c0,4.025,3.262,7.286,7.286,7.286h25.882
	v68.33H14.573v-68.33h423.81c4.024,0,7.286-3.262,7.286-7.286c0-4.025-3.262-7.286-7.286-7.286H14.573V116.099
	C14.573,60.118,60.117,14.573,116.099,14.573z M395.901,497.427H116.099c-55.981,0-101.526-45.545-101.526-101.526v-20.565h482.854
	v20.565C497.427,451.882,451.883,497.427,395.901,497.427z"/>
<g>
	<circle style="fill:#FFE610;" cx="132.18" cy="244.72" r="16.581"/>
	<circle style="fill:#FFE610;" cx="84.38" cy="260.25" r="16.581"/>
	<circle style="fill:#FFE610;" cx="54.836" cy="300.91" r="16.581"/>
	<circle style="fill:#FFE610;" cx="54.836" cy="351.18" r="16.581"/>
	<circle style="fill:#FFE610;" cx="84.38" cy="391.84" r="16.581"/>
	<circle style="fill:#FFE610;" cx="132.18" cy="407.37" r="16.581"/>
	<circle style="fill:#FFE610;" cx="179.98" cy="391.84" r="16.581"/>
	<circle style="fill:#FFE610;" cx="209.53" cy="351.18" r="16.581"/>
	<circle style="fill:#FFE610;" cx="209.53" cy="300.91" r="16.581"/>
	<circle style="fill:#FFE610;" cx="179.98" cy="260.25" r="16.581"/>
</g>
<g>
</g>
<g>
</g>
<g>
</g>
<g>
</g>
<g>
</g>
<g>
</g>
<g>
</g>
<g>
</g>
<g>
</g>
<g>
</g>
<g>
</g>
<g>
</g>
<g>
</g>
<g>
</g>
<g>
</g>
</svg>
