<?xml version="1.0" encoding="iso-8859-1"?>
<!-- Generator: Adobe Illustrator 19.0.0, SVG Export Plug-In . SVG Version: 6.00 Build 0)  -->
<svg version="1.1" id="Layer_1" xmlns="http://www.w3.org/2000/svg" xmlns:xlink="http://www.w3.org/1999/xlink" x="0px" y="0px"
	 viewBox="0 0 512 512" style="enable-background:new 0 0 512 512;" xml:space="preserve">
<path style="fill:#164FCE;" d="M395.901,7.286H116.099C56.003,7.286,7.286,56.004,7.286,116.099v279.803
	c0,60.095,48.717,108.812,108.812,108.812h279.803c60.095,0,108.812-48.717,108.812-108.812V116.099
	C504.714,56.004,455.997,7.286,395.901,7.286z"/>
<rect x="7.286" y="338.9" style="fill:#FFE000;" width="497.43" height="59.691"/>
<g>
	<polygon style="fill:#FFFFFF;" points="164.391,139.412 201.241,137.508 214.439,103.05 227.637,137.508 264.487,139.412 
		235.794,162.613 245.371,198.248 214.439,178.128 183.507,198.248 193.084,162.613 	"/>
	<polygon style="fill:#FFFFFF;" points="67.211,94.59 94.957,93.156 104.894,67.211 114.832,93.156 142.578,94.59 120.974,112.058 
		128.184,138.889 104.894,123.74 81.605,138.889 88.815,112.058 	"/>
</g>
<path d="M264.863,132.136l-32.118-1.659l-11.502-30.032c-1.08-2.819-3.786-4.68-6.805-4.68c-3.018,0-5.725,1.861-6.805,4.68
	l-11.503,30.032l-32.117,1.659c-3.015,0.156-5.621,2.154-6.554,5.025c-0.933,2.871,0.001,6.02,2.348,7.918l25.008,20.221
	l-8.347,31.057c-0.784,2.916,0.312,6.012,2.754,7.786s5.725,1.858,8.256,0.214l26.958-17.536l26.958,17.536
	c1.211,0.787,2.593,1.178,3.973,1.178c1.506,0,3.008-0.466,4.283-1.392c2.442-1.774,3.538-4.87,2.754-7.786l-8.347-31.057
	l25.009-20.221c2.347-1.898,3.281-5.047,2.348-7.918C270.485,134.29,267.879,132.291,264.863,132.136z M231.212,156.947
	c-2.241,1.812-3.203,4.774-2.455,7.557l4.64,17.262l-14.984-9.747c-2.416-1.571-5.531-1.571-7.947,0l-14.984,9.747l4.639-17.262
	c0.748-2.783-0.214-5.746-2.455-7.557l-13.9-11.239l17.851-0.922c2.879-0.149,5.398-1.98,6.429-4.671l6.394-16.693l6.393,16.693
	c1.03,2.691,3.55,4.522,6.429,4.671l17.852,0.922L231.212,156.947z"/>
<path d="M142.954,87.313l-23.012-1.189L111.7,64.605c-1.08-2.819-3.786-4.68-6.805-4.68s-5.725,1.861-6.805,4.68l-8.242,21.519
	l-23.013,1.189c-3.015,0.156-5.621,2.155-6.554,5.026c-0.933,2.87,0.001,6.019,2.348,7.917l17.919,14.488l-5.981,22.254
	c-0.784,2.915,0.312,6.011,2.754,7.786s5.725,1.859,8.256,0.213l19.317-12.565l19.316,12.565c1.211,0.787,2.593,1.178,3.973,1.178
	c1.506,0,3.008-0.466,4.283-1.391c2.442-1.775,3.538-4.871,2.754-7.786l-5.981-22.254l17.919-14.488
	c2.347-1.898,3.281-5.047,2.348-7.917C148.575,89.467,145.969,87.469,142.954,87.313z M116.392,106.392
	c-2.241,1.812-3.203,4.774-2.455,7.557l2.273,8.459l-7.342-4.776c-2.417-1.571-5.531-1.571-7.947,0l-7.343,4.777l2.273-8.46
	c0.748-2.783-0.214-5.745-2.455-7.557l-6.811-5.507l8.748-0.452c2.879-0.149,5.398-1.98,6.429-4.671l3.133-8.179l3.133,8.179
	c1.03,2.691,3.55,4.522,6.429,4.671l8.747,0.452L116.392,106.392z"/>
<path d="M395.901,0H116.099C52.082,0,0,52.082,0,116.099v279.803C0,459.918,52.082,512,116.099,512h279.803
	C459.918,512,512,459.918,512,395.901V116.099C512,52.082,459.918,0,395.901,0z M497.427,395.901
	c0,55.982-45.545,101.526-101.526,101.526H116.099c-55.981,0-101.526-45.544-101.526-101.526V116.099
	c0-55.982,45.544-101.526,101.526-101.526h279.803c55.981,0,101.526,45.544,101.526,101.526v279.802H497.427z"/>
<g>
</g>
<g>
</g>
<g>
</g>
<g>
</g>
<g>
</g>
<g>
</g>
<g>
</g>
<g>
</g>
<g>
</g>
<g>
</g>
<g>
</g>
<g>
</g>
<g>
</g>
<g>
</g>
<g>
</g>
</svg>
