<?xml version="1.0" encoding="iso-8859-1"?>
<!-- Generator: Adobe Illustrator 19.0.0, SVG Export Plug-In . SVG Version: 6.00 Build 0)  -->
<svg version="1.1" id="Layer_1" xmlns="http://www.w3.org/2000/svg" xmlns:xlink="http://www.w3.org/1999/xlink" x="0px" y="0px"
	 viewBox="0 0 512 512" style="enable-background:new 0 0 512 512;" xml:space="preserve">
<g>
	<circle style="fill:#FFFFFF;" cx="112.3" cy="281.88" r="13.423"/>
	<circle style="fill:#FFFFFF;" cx="112.3" cy="442.96" r="13.423"/>
	<circle style="fill:#FFFFFF;" cx="152.57" cy="315.44" r="13.423"/>
	<circle style="fill:#FFFFFF;" cx="72.03" cy="349" r="13.423"/>
	<circle style="fill:#FFFFFF;" cx="132.43" cy="379.2" r="8.948"/>
</g>
<path style="fill:#164FCE;" d="M7.286,116.099v279.803c0,60.095,48.717,108.812,108.812,108.812h279.803
	c30.048,0,57.251-12.179,76.942-31.871L39.157,39.157C19.466,58.848,7.286,86.051,7.286,116.099z"/>
<path style="fill:#259245;" d="M395.901,7.286H116.099c-30.048,0-57.251,12.179-76.942,31.871l433.686,433.686
	c19.691-19.691,31.871-46.894,31.871-76.942V116.099C504.714,56.004,455.997,7.286,395.901,7.286z"/>
<path d="M512,116.099C512,52.082,459.918,0,395.901,0H116.099C84.421,0,55.672,12.758,34.703,33.398
	c-0.241,0.187-0.477,0.385-0.699,0.607s-0.42,0.458-0.607,0.699C12.757,55.672,0,84.422,0,116.099v279.803
	C0,459.918,52.082,512,116.099,512h279.803c31.675,0,60.423-12.756,81.391-33.394c0.243-0.188,0.48-0.387,0.703-0.61
	s0.422-0.46,0.61-0.703C499.244,456.325,512,427.577,512,395.901V116.099z M116.099,497.427
	c-55.982,0-101.526-45.545-101.526-101.526V116.099c0-25.374,9.357-48.603,24.801-66.419l422.947,422.947
	c-17.816,15.444-41.046,24.801-66.419,24.801L116.099,497.427L116.099,497.427z M497.427,395.901
	c0,25.374-9.357,48.603-24.801,66.42L49.679,39.374c17.816-15.444,41.046-24.801,66.42-24.801h279.803
	c55.981,0,101.526,45.544,101.526,101.526v279.802H497.427z"/>
<path style="fill:#FFE000;" d="M435.197,89.493c11.471,11.471,11.471,30.07,0,41.542c-11.471,11.471-30.07,11.471-41.541,0
	L435.197,89.493z"/>
<path d="M442.484,86.675V61.028c0-4.025-3.262-7.287-7.287-7.287s-7.286,3.262-7.286,7.287v25.445l-6.596,6.596l-17.448-13.488
	c-1.276-0.987-2.844-1.522-4.456-1.522h-93.313c-4.024,0-7.286,3.262-7.286,7.286c0,4.025,3.262,7.287,7.286,7.287h90.824
	l14.004,10.825l-22.423,22.423l-46.207,46.207c-2.846,2.846-2.846,7.459,0,10.306c1.423,1.422,3.287,2.134,5.152,2.134
	s3.73-0.712,5.152-2.134l41.565-41.565c5.955,3.965,12.944,6.095,20.26,6.095c9.792,0,18.999-3.813,25.923-10.737
	c6.925-6.925,10.738-16.131,10.738-25.923C451.088,101.532,448.049,93.272,442.484,86.675z M430.045,125.882
	c-4.172,4.172-9.718,6.469-15.618,6.469c-3.38,0-6.644-0.754-9.6-2.182l22.298-22.299c0.001-0.001,0.002-0.002,0.003-0.003
	l7.204-7.204c1.429,2.956,2.183,6.22,2.183,9.601C436.515,116.163,434.217,121.71,430.045,125.882z"/>
<circle style="fill:#FFE000;" cx="256" cy="256" r="56.21"/>
<path d="M256,319.495c-35.011,0-63.495-28.484-63.495-63.495s28.484-63.495,63.495-63.495s63.495,28.484,63.495,63.495
	S291.011,319.495,256,319.495z M256,207.078c-26.976,0-48.922,21.947-48.922,48.922s21.946,48.922,48.922,48.922
	s48.922-21.947,48.922-48.922S282.976,207.078,256,207.078z"/>
<path style="fill:#259245;stroke:#259245;stroke-width:15;stroke-linecap:round;stroke-linejoin:round;stroke-miterlimit:10;" d="
	M256,279.047c-12.708,0-23.047-10.339-23.047-23.047s10.339-23.047,23.047-23.047c12.708,0,23.047,10.339,23.047,23.047
	C279.047,268.708,268.708,279.047,256,279.047z"/>
<g>
</g>
<g>
</g>
<g>
</g>
<g>
</g>
<g>
</g>
<g>
</g>
<g>
</g>
<g>
</g>
<g>
</g>
<g>
</g>
<g>
</g>
<g>
</g>
<g>
</g>
<g>
</g>
<g>
</g>
</svg>
