<?xml version="1.0" encoding="iso-8859-1"?>
<!-- Generator: Adobe Illustrator 19.0.0, SVG Export Plug-In . SVG Version: 6.00 Build 0)  -->
<svg version="1.1" id="Layer_1" xmlns="http://www.w3.org/2000/svg" xmlns:xlink="http://www.w3.org/1999/xlink" x="0px" y="0px"
	 viewBox="0 0 512 512" style="enable-background:new 0 0 512 512;" xml:space="preserve">
<g>
	<path style="fill:#FFFFFF;" d="M10.399,90.191c-2.029,8.304-3.112,16.979-3.112,25.908v279.803c0,8.929,1.083,17.604,3.112,25.908
		h491.203c2.029-8.304,3.112-16.979,3.112-25.908V116.099c0-8.929-1.083-17.604-3.112-25.908
		C501.602,90.191,10.399,90.191,10.399,90.191z"/>
	<path style="fill:#FFFFFF;" d="M116.099,504.714h279.803c34.659,0,65.532-16.206,85.458-41.452H30.64
		C50.567,488.507,81.439,504.714,116.099,504.714z"/>
	<path style="fill:#FFFFFF;" d="M395.901,7.286H116.099c-34.659,0-65.532,16.206-85.458,41.452H481.36
		C461.433,23.493,430.56,7.286,395.901,7.286z"/>
</g>
<g>
	<path style="fill:#ED1F34;" d="M481.36,48.739H30.64c-9.491,12.024-16.492,26.1-20.242,41.452h491.203
		C497.852,74.839,490.85,60.763,481.36,48.739z"/>
	<path style="fill:#ED1F34;" d="M30.64,463.261h450.72c9.491-12.024,16.492-26.1,20.242-41.452H10.398
		C14.149,437.161,21.15,451.237,30.64,463.261z"/>
	<path style="fill:#ED1F34;" d="M271.004,345.075c-49.195,0-89.075-39.88-89.075-89.075s39.88-89.075,89.075-89.075
		c14.974,0,29.074,3.712,41.46,10.239c-21.2-22.889-51.498-37.23-85.157-37.23c-64.102,0-116.067,51.964-116.067,116.066
		c0,64.101,51.965,116.066,116.067,116.066c33.659,0,63.956-14.342,85.156-37.231C300.078,341.363,285.977,345.075,271.004,345.075z
		"/>
	<polygon style="fill:#ED1F34;" points="346.19,209.574 344.424,243.757 312.463,256 344.424,268.243 346.19,302.427 
		367.708,275.81 400.76,284.693 382.099,256 400.76,227.307 367.708,236.19 	"/>
</g>
<path d="M395.901,0H116.099C52.082,0,0,52.082,0,116.099v279.803C0,459.918,52.082,512,116.099,512h279.803
	C459.918,512,512,459.918,512,395.901V116.099C512,52.082,459.918,0,395.901,0z M116.099,14.573h279.803
	c44.361,0,82.163,28.602,95.947,68.332H20.151C33.935,43.175,71.737,14.573,116.099,14.573z M395.901,497.427H116.099
	c-44.362,0-82.163-28.602-95.947-68.332h44.831c4.024,0,7.287-3.262,7.287-7.287s-3.262-7.286-7.287-7.286H16.291
	c-1.124-6.039-1.718-12.261-1.718-18.621V116.099c0-6.36,0.594-12.582,1.718-18.621h479.418c1.124,6.039,1.718,12.261,1.718,18.621
	v279.803c0,6.36-0.594,12.582-1.718,18.621H96.594c-4.024,0-7.286,3.262-7.286,7.286s3.262,7.287,7.286,7.287h395.254
	C478.065,468.825,440.263,497.427,395.901,497.427z"/>
<path d="M227.307,379.353c34.225,0,67.211-14.421,90.501-39.565c2.413-2.605,2.597-6.569,0.437-9.387
	c-2.162-2.817-6.037-3.666-9.179-2.011c-11.834,6.236-24.639,9.398-38.062,9.398c-45.098,0-81.788-36.69-81.788-81.788
	s36.69-81.788,81.788-81.788c13.422,0,26.229,3.162,38.064,9.399c1.128,0.595,2.348,0.867,3.559,0.839
	c3.958-0.076,7.143-3.309,7.143-7.285c0-2.081-0.872-3.958-2.27-5.285c-23.271-24.937-56.118-39.232-90.192-39.232
	c-68.018,0-123.353,55.336-123.353,123.353S159.289,379.353,227.307,379.353z M227.307,147.22c17.863,0,35.344,4.455,50.896,12.69
	c-2.394-0.181-4.795-0.272-7.199-0.272c-53.134,0-96.361,43.228-96.361,96.361s43.227,96.362,96.361,96.362
	c2.403,0,4.804-0.091,7.197-0.271c-15.552,8.234-33.032,12.69-50.894,12.69c-59.982,0-108.78-48.798-108.78-108.78
	S167.325,147.22,227.307,147.22z"/>
<path d="M305.177,256c0,3.018,1.861,5.725,4.68,6.805l27.535,10.547l1.521,29.45c0.156,3.015,2.155,5.621,5.026,6.554
	c0.741,0.241,1.499,0.357,2.251,0.357c2.161,0,4.259-0.964,5.667-2.706l18.538-22.931l28.475,7.653
	c0.675,0.182,1.361,0.259,2.04,0.249c3.965-0.069,7.157-3.305,7.157-7.286c0-1.643-0.544-3.159-1.46-4.377L390.79,256l16.078-24.721
	c1.646-2.53,1.561-5.814-0.214-8.256c-1.774-2.442-4.873-3.536-7.785-2.754l-28.475,7.653l-18.538-22.931
	c-1.897-2.347-5.048-3.281-7.918-2.349c-2.871,0.933-4.87,3.539-5.026,6.554l-1.521,29.45l-27.535,10.547
	C307.038,250.275,305.177,252.982,305.177,256z M347.03,250.562c2.692-1.031,4.522-3.551,4.671-6.429l0.784-15.182l9.557,11.821
	c1.812,2.241,4.774,3.203,7.557,2.456l14.681-3.946l-8.289,12.746c-1.571,2.415-1.571,5.53,0,7.945l8.289,12.746l-14.681-3.946
	c-2.781-0.746-5.744,0.214-7.557,2.456l-9.557,11.821l-0.784-15.182c-0.149-2.878-1.979-5.398-4.671-6.429L332.833,256
	L347.03,250.562z"/>
<g>
</g>
<g>
</g>
<g>
</g>
<g>
</g>
<g>
</g>
<g>
</g>
<g>
</g>
<g>
</g>
<g>
</g>
<g>
</g>
<g>
</g>
<g>
</g>
<g>
</g>
<g>
</g>
<g>
</g>
</svg>
