<?xml version="1.0" encoding="iso-8859-1"?>
<!-- Generator: Adobe Illustrator 19.0.0, SVG Export Plug-In . SVG Version: 6.00 Build 0)  -->
<svg version="1.1" id="Layer_1" xmlns="http://www.w3.org/2000/svg" xmlns:xlink="http://www.w3.org/1999/xlink" x="0px" y="0px"
	 viewBox="0 0 512 512" style="enable-background:new 0 0 512 512;" xml:space="preserve">
<path style="fill:#ED1F34;" d="M35.689,469.21c19.899,21.815,48.555,35.504,80.409,35.504h279.803
	c60.095,0,108.812-48.717,108.812-108.812V256H206.257L35.689,469.21z"/>
<path style="fill:#FFFFFF;" d="M395.901,7.286H116.099c-31.854,0-60.51,13.689-80.409,35.504L206.257,256h298.456V116.099
	C504.714,56.003,455.997,7.286,395.901,7.286z"/>
<path style="fill:#103B9B;" d="M35.689,42.79C18.047,62.131,7.286,87.857,7.286,116.099v279.803
	c0,28.241,10.76,53.968,28.403,73.309L206.257,256L35.689,42.79z"/>
<path d="M395.901,0H116.099C82.497,0,52.19,14.354,30.97,37.246c-0.232,0.198-0.457,0.406-0.664,0.634
	C17.412,52.014,8.344,68.915,3.663,87.112c-0.004,0.016-0.008,0.033-0.012,0.049c-0.22,0.857-0.431,1.718-0.631,2.581
	c-0.068,0.292-0.13,0.585-0.196,0.877c-0.133,0.592-0.265,1.185-0.388,1.779c-0.085,0.406-0.163,0.813-0.243,1.221
	C2.096,94.107,2,94.595,1.911,95.084c-0.084,0.46-0.163,0.921-0.242,1.383c-0.076,0.446-0.151,0.893-0.223,1.34
	c-0.077,0.484-0.15,0.969-0.221,1.455c-0.063,0.432-0.124,0.865-0.182,1.298c-0.066,0.493-0.13,0.987-0.19,1.481
	c-0.053,0.438-0.103,0.877-0.151,1.316c-0.053,0.487-0.106,0.975-0.153,1.464c-0.045,0.461-0.084,0.922-0.123,1.384
	c-0.04,0.467-0.08,0.935-0.114,1.404c-0.037,0.504-0.066,1.009-0.096,1.514c-0.026,0.431-0.054,0.862-0.075,1.295
	c-0.029,0.591-0.048,1.183-0.068,1.775c-0.012,0.351-0.028,0.7-0.037,1.052C0.013,114.195,0,115.146,0,116.099v279.803
	c0,0.953,0.013,1.904,0.036,2.854c0.009,0.352,0.025,0.701,0.037,1.052c0.02,0.592,0.039,1.184,0.068,1.774
	c0.021,0.433,0.049,0.864,0.075,1.295c0.03,0.505,0.06,1.01,0.096,1.513c0.034,0.469,0.074,0.937,0.114,1.405
	c0.039,0.461,0.079,0.922,0.123,1.382c0.047,0.49,0.1,0.978,0.153,1.465c0.048,0.439,0.098,0.877,0.151,1.314
	c0.06,0.495,0.124,0.989,0.19,1.483c0.058,0.433,0.119,0.865,0.182,1.297c0.071,0.487,0.144,0.973,0.221,1.457
	c0.071,0.446,0.146,0.892,0.222,1.337c0.079,0.463,0.159,0.925,0.243,1.386c0.089,0.488,0.185,0.974,0.281,1.461
	c0.081,0.409,0.159,0.818,0.244,1.225c0.123,0.593,0.255,1.184,0.387,1.774c0.066,0.294,0.129,0.589,0.197,0.882
	c0.2,0.861,0.41,1.72,0.63,2.575c0.005,0.018,0.009,0.036,0.013,0.054c4.681,18.197,13.749,35.098,26.643,49.232
	c0.207,0.227,0.431,0.434,0.662,0.631C52.188,497.645,82.496,512,116.099,512h279.803C459.918,512,512,459.918,512,395.901V116.099
	C512,52.082,459.918,0,395.901,0z M35.587,457.674c-6.117-7.955-11.085-16.835-14.651-26.395c-0.173-0.465-0.342-0.932-0.508-1.4
	c-0.262-0.735-0.516-1.473-0.761-2.216c-0.248-0.754-0.49-1.509-0.72-2.268c-0.128-0.421-0.255-0.843-0.378-1.266
	c-0.302-1.045-0.591-2.094-0.859-3.149c-0.071-0.279-0.137-0.56-0.205-0.84c-0.257-1.048-0.501-2.1-0.724-3.157
	c-0.032-0.152-0.068-0.303-0.099-0.455c-0.248-1.201-0.471-2.408-0.676-3.62c-0.038-0.223-0.075-0.447-0.111-0.67
	c-0.2-1.23-0.381-2.464-0.536-3.703c-0.013-0.105-0.023-0.211-0.036-0.317c-0.145-1.19-0.266-2.384-0.369-3.582
	c-0.015-0.173-0.032-0.345-0.046-0.518c-0.099-1.227-0.173-2.458-0.228-3.691c-0.011-0.247-0.019-0.494-0.028-0.741
	c-0.046-1.258-0.078-2.519-0.078-3.783V116.099c0-1.264,0.031-2.525,0.078-3.783c0.009-0.247,0.017-0.494,0.028-0.741
	c0.055-1.234,0.129-2.464,0.228-3.691c0.014-0.173,0.031-0.345,0.046-0.518c0.103-1.198,0.224-2.392,0.369-3.582
	c0.013-0.105,0.023-0.211,0.036-0.317c0.155-1.24,0.336-2.473,0.536-3.703c0.036-0.224,0.073-0.447,0.111-0.67
	c0.205-1.212,0.428-2.419,0.676-3.62c0.031-0.152,0.067-0.303,0.099-0.455c0.224-1.057,0.467-2.109,0.724-3.157
	c0.069-0.28,0.134-0.561,0.205-0.84c0.268-1.055,0.558-2.104,0.859-3.149c0.123-0.423,0.249-0.845,0.378-1.266
	c0.23-0.759,0.472-1.515,0.72-2.269c0.245-0.743,0.499-1.481,0.761-2.216c0.166-0.468,0.335-0.935,0.508-1.4
	c3.565-9.56,8.533-18.44,14.651-26.395L196.926,256L35.587,457.674z M395.901,497.427H116.099c-27.45,0-52.386-10.955-70.678-28.717
	L209.76,263.287h195.469c4.024,0,7.286-3.262,7.286-7.286s-3.262-7.286-7.286-7.286h-195.47L45.421,43.29
	c18.292-17.762,43.228-28.717,70.678-28.717h279.803c55.981,0,101.526,45.544,101.526,101.526v132.615H438.39
	c-4.024,0-7.286,3.262-7.286,7.286c0,4.024,3.262,7.286,7.286,7.286h59.037v132.615
	C497.427,451.883,451.883,497.427,395.901,497.427z"/>
<g>
</g>
<g>
</g>
<g>
</g>
<g>
</g>
<g>
</g>
<g>
</g>
<g>
</g>
<g>
</g>
<g>
</g>
<g>
</g>
<g>
</g>
<g>
</g>
<g>
</g>
<g>
</g>
<g>
</g>
</svg>
