<?xml version="1.0" encoding="iso-8859-1"?>
<!-- Generator: Adobe Illustrator 19.0.0, SVG Export Plug-In . SVG Version: 6.00 Build 0)  -->
<svg version="1.1" id="Layer_1" xmlns="http://www.w3.org/2000/svg" xmlns:xlink="http://www.w3.org/1999/xlink" x="0px" y="0px"
	 viewBox="0 0 512 512" style="enable-background:new 0 0 512 512;" xml:space="preserve">
<path style="fill:#259245;" d="M39.157,472.843c19.691,19.691,46.894,31.871,76.942,31.871h279.803
	c60.095,0,108.812-48.717,108.812-108.812V256H256L39.157,472.843z"/>
<path style="fill:#3DB4EA;" d="M395.901,7.286H116.099c-30.048,0-57.251,12.179-76.942,31.871L256,256h248.714V116.099
	C504.714,56.004,455.997,7.286,395.901,7.286z"/>
<path style="fill:#FFFFFF;" d="M39.157,39.157C19.466,58.848,7.286,86.051,7.286,116.099v279.803
	c0,30.047,12.179,57.25,31.871,76.942L256,256L39.157,39.157z"/>
<polygon style="fill:#ED1F34;" points="49.844,239.922 84.435,238.135 96.823,205.79 109.212,238.135 143.803,239.922 
	116.869,261.7 125.858,295.149 96.823,276.263 67.789,295.149 76.778,261.7 "/>
<path d="M125.858,302.435c-1.38,0-2.763-0.391-3.973-1.178l-25.061-16.301l-25.063,16.301c-2.529,1.646-5.813,1.562-8.255-0.214
	c-2.442-1.774-3.538-4.871-2.754-7.786l7.76-28.873l-23.249-18.797c-2.347-1.897-3.281-5.046-2.348-7.917
	c0.933-2.871,3.539-4.87,6.554-5.026l29.857-1.543l10.694-27.919c1.08-2.819,3.786-4.68,6.805-4.68s5.725,1.861,6.805,4.68
	l10.694,27.919l29.857,1.543c3.015,0.156,5.621,2.155,6.554,5.026s-0.001,6.02-2.348,7.917l-23.249,18.797l7.759,28.873
	c0.784,2.916-0.312,6.011-2.754,7.786C128.866,301.97,127.363,302.435,125.858,302.435z M96.824,268.977
	c1.382,0,2.765,0.393,3.973,1.178l13.087,8.513l-4.052-15.079c-0.748-2.783,0.214-5.745,2.455-7.557l12.14-9.816l-15.591-0.805
	c-2.879-0.149-5.398-1.98-6.429-4.671l-5.584-14.58l-5.584,14.58c-1.03,2.691-3.55,4.522-6.429,4.671l-15.591,0.805l12.14,9.816
	c2.241,1.812,3.203,4.774,2.455,7.557l-4.052,15.078l13.088-8.512C94.058,269.37,95.441,268.977,96.824,268.977z"/>
<path d="M39.311,479.975c-1.864,0-3.73-0.712-5.153-2.134c-2.845-2.846-2.845-7.459,0-10.306L245.695,256L34.088,44.394
	c-2.845-2.846-2.845-7.459,0-10.306c2.846-2.844,7.459-2.844,10.306,0l216.759,216.759c2.845,2.846,2.845,7.459,0,10.306
	L44.464,477.842C43.041,479.264,41.175,479.975,39.311,479.975z"/>
<path d="M395.901,512H116.099C52.082,512,0,459.918,0,395.901V116.099C0,52.082,52.082,0,116.099,0h279.803
	C459.918,0,512,52.082,512,116.099v279.803C512,459.918,459.918,512,395.901,512z M116.099,14.573
	c-55.981,0-101.526,45.544-101.526,101.526v279.803c0,55.981,45.544,101.526,101.526,101.526h279.803
	c55.981,0,101.526-45.545,101.526-101.526V116.099c0-55.981-45.545-101.526-101.526-101.526
	C395.902,14.573,116.099,14.573,116.099,14.573z"/>
<path d="M504.714,263.286H438.39c-4.025,0-7.286-3.262-7.286-7.286c0-4.025,3.262-7.286,7.286-7.286h66.324
	c4.025,0,7.286,3.262,7.286,7.286C512,260.025,508.738,263.286,504.714,263.286z"/>
<path d="M405.228,263.286H256c-4.025,0-7.286-3.262-7.286-7.286c0-4.025,3.262-7.286,7.286-7.286h149.228
	c4.025,0,7.286,3.262,7.286,7.286C412.514,260.025,409.252,263.286,405.228,263.286z"/>
<g>
</g>
<g>
</g>
<g>
</g>
<g>
</g>
<g>
</g>
<g>
</g>
<g>
</g>
<g>
</g>
<g>
</g>
<g>
</g>
<g>
</g>
<g>
</g>
<g>
</g>
<g>
</g>
<g>
</g>
</svg>
