<?xml version="1.0" encoding="iso-8859-1"?>
<!-- Generator: Adobe Illustrator 19.0.0, SVG Export Plug-In . SVG Version: 6.00 Build 0)  -->
<svg version="1.1" id="Layer_1" xmlns="http://www.w3.org/2000/svg" xmlns:xlink="http://www.w3.org/1999/xlink" x="0px" y="0px"
	 viewBox="0 0 512 512" style="enable-background:new 0 0 512 512;" xml:space="preserve">
<path style="fill:#259245;" d="M395.901,7.286H116.099C56.003,7.286,7.286,56.004,7.286,116.099v279.803
	c0,60.095,48.717,108.812,108.812,108.812h279.803c60.095,0,108.812-48.717,108.812-108.812V116.099
	C504.714,56.004,455.997,7.286,395.901,7.286z"/>
<g>
	<polygon style="fill:#FFFFFF;" points="504.714,256 504.714,288.885 288.885,288.885 288.885,504.714 256,504.714 256,256 	"/>
	<rect x="256" y="7.286" style="fill:#FFFFFF;" width="32.885" height="215.83"/>
	<rect x="7.286" y="256" style="fill:#FFFFFF;" width="215.83" height="32.885"/>
</g>
<polygon style="fill:#FFE000;" points="256,223.115 256,7.286 223.115,7.286 223.115,223.115 7.286,223.115 7.286,256 223.115,256 
	223.115,504.714 256,504.714 256,256 504.714,256 504.714,223.115 "/>
<path d="M395.901,0H116.099C52.082,0,0,52.082,0,116.099v279.803C0,459.918,52.082,512,116.099,512h279.803
	C459.918,512,512,459.918,512,395.901V116.099C512,52.082,459.918,0,395.901,0z M281.6,288.885v208.542h-18.313v-234.14h234.14
	v18.312H288.886C284.862,281.599,281.6,284.861,281.6,288.885z M223.115,281.599H14.573v-18.312h234.14v234.14h-18.312V288.885
	C230.402,284.861,227.139,281.599,223.115,281.599z M230.402,223.115V14.573h18.312v234.14H14.573v-18.312h208.542
	C227.139,230.401,230.402,227.139,230.402,223.115z M497.427,116.099v99.73H438.39c-4.024,0-7.286,3.262-7.286,7.287
	c0,4.025,3.262,7.286,7.286,7.286h59.037v18.312h-234.14V14.573H281.6v208.542c0,4.025,3.262,7.286,7.286,7.286h116.342
	c4.024,0,7.286-3.262,7.286-7.286c0-4.025-3.262-7.287-7.286-7.287H296.173V14.573h99.729
	C451.883,14.573,497.427,60.118,497.427,116.099z M116.099,14.573h99.73v201.255H14.573v-99.73
	C14.573,60.118,60.117,14.573,116.099,14.573z M14.573,395.901v-99.73h201.256v201.255h-99.73
	C60.117,497.427,14.573,451.882,14.573,395.901z M395.901,497.427h-99.729V296.172h201.254v99.73
	C497.427,451.882,451.883,497.427,395.901,497.427z"/>
<circle style="fill:#ED1F34;" cx="256" cy="256" r="72.956"/>
<path d="M256,336.243c-44.246,0-80.242-35.997-80.242-80.243s35.997-80.243,80.242-80.243s80.242,35.997,80.242,80.243
	S300.246,336.243,256,336.243z M256,190.33c-36.21,0-65.669,29.459-65.669,65.67S219.79,321.67,256,321.67
	s65.669-29.459,65.669-65.67S292.21,190.33,256,190.33z"/>
<path style="fill:#259245;" d="M256,303.081c-25.96,0-47.081-21.12-47.081-47.081s21.12-47.081,47.081-47.081
	s47.081,21.12,47.081,47.081S281.96,303.081,256,303.081z M256,223.492c-17.925,0-32.508,14.583-32.508,32.508
	s14.583,32.508,32.508,32.508s32.508-14.583,32.508-32.508S273.925,223.492,256,223.492z"/>
<g>
</g>
<g>
</g>
<g>
</g>
<g>
</g>
<g>
</g>
<g>
</g>
<g>
</g>
<g>
</g>
<g>
</g>
<g>
</g>
<g>
</g>
<g>
</g>
<g>
</g>
<g>
</g>
<g>
</g>
</svg>
