<?xml version="1.0" encoding="iso-8859-1"?>
<!-- Generator: Adobe Illustrator 19.0.0, SVG Export Plug-In . SVG Version: 6.00 Build 0)  -->
<svg version="1.1" id="Layer_1" xmlns="http://www.w3.org/2000/svg" xmlns:xlink="http://www.w3.org/1999/xlink" x="0px" y="0px"
	 viewBox="0 0 512 512" style="enable-background:new 0 0 512 512;" xml:space="preserve">
<path style="fill:#164FCE;" d="M395.901,7.286H116.099C56.003,7.286,7.286,56.003,7.286,116.099v279.803
	c0,60.095,48.717,108.812,108.812,108.812h279.803c60.095,0,108.812-48.717,108.812-108.812V116.099
	C504.714,56.003,455.997,7.286,395.901,7.286z"/>
<polygon style="fill:#FFFFFF;" points="7.286,223.115 223.114,223.115 223.114,7.286 288.885,7.286 288.885,223.115 
	504.714,223.115 504.714,288.885 288.885,288.885 288.885,504.714 223.114,504.714 223.114,288.885 7.286,288.885 "/>
<circle style="fill:#259245;" cx="256" cy="256" r="19.344"/>
<path d="M395.901,0H116.099C52.082,0,0,52.082,0,116.099v279.803C0,459.918,52.082,512,116.099,512h279.803
	C459.918,512,512,459.918,512,395.901V116.099C512,52.082,459.918,0,395.901,0z M497.427,116.099v99.73H296.172V14.573h99.73
	C451.882,14.573,497.427,60.118,497.427,116.099z M116.099,14.573h99.729v201.255H73.61c-4.024,0-7.287,3.262-7.287,7.287
	c0,4.025,3.262,7.286,7.287,7.286h149.504c4.024,0,7.286-3.262,7.286-7.286V14.573h51.198v208.542c0,4.025,3.262,7.286,7.286,7.286
	h208.542v51.197H288.885c-4.025,0-7.286,3.262-7.286,7.286v208.542H230.4V288.885c0-4.025-3.262-7.286-7.286-7.286H14.573v-51.197
	h25.875c4.024,0,7.286-3.262,7.286-7.286c0-4.025-3.262-7.287-7.286-7.287H14.573v-99.73
	C14.573,60.118,60.117,14.573,116.099,14.573z M14.573,395.901v-99.73h201.254v201.255h-99.729
	C60.117,497.427,14.573,451.882,14.573,395.901z M395.901,497.427h-99.73V296.172h201.255v99.73
	C497.427,451.882,451.882,497.427,395.901,497.427z"/>
<g>
</g>
<g>
</g>
<g>
</g>
<g>
</g>
<g>
</g>
<g>
</g>
<g>
</g>
<g>
</g>
<g>
</g>
<g>
</g>
<g>
</g>
<g>
</g>
<g>
</g>
<g>
</g>
<g>
</g>
</svg>
