<?xml version="1.0" encoding="iso-8859-1"?>
<!-- Generator: Adobe Illustrator 19.0.0, SVG Export Plug-In . SVG Version: 6.00 Build 0)  -->
<svg version="1.1" id="Layer_1" xmlns="http://www.w3.org/2000/svg" xmlns:xlink="http://www.w3.org/1999/xlink" x="0px" y="0px"
	 viewBox="0 0 512 512" style="enable-background:new 0 0 512 512;" xml:space="preserve">
<path style="fill:#259245;" d="M116.099,7.286C56.003,7.286,7.286,56.004,7.286,116.099v279.803
	c0,60.095,48.717,108.812,108.812,108.812H256V7.286H116.099z"/>
<path style="fill:#FFFFFF;" d="M395.901,7.286H256v497.427h139.901c60.095,0,108.812-48.717,108.812-108.812V116.099
	C504.714,56.004,455.997,7.286,395.901,7.286z"/>
<path d="M395.901,512H116.099C52.082,512,0,459.918,0,395.901V116.099C0,52.082,52.082,0,116.099,0h279.803
	C459.918,0,512,52.082,512,116.099v279.803C512,459.918,459.918,512,395.901,512z M116.099,14.573
	c-55.982,0-101.526,45.544-101.526,101.526v279.803c0,55.982,45.544,101.526,101.526,101.526h279.803
	c55.981,0,101.526-45.544,101.526-101.526V116.099c0-55.982-45.545-101.526-101.526-101.526
	C395.902,14.573,116.099,14.573,116.099,14.573z"/>
<g>
	<path style="fill:#ED1F34;" d="M295.966,343.3c-48.214,0-87.3-39.085-87.3-87.3s39.085-87.3,87.3-87.3
		c23.777,0,45.322,9.518,61.066,24.936c-20.871-33.56-58.063-55.913-100.492-55.913c-65.323,0-118.277,52.954-118.277,118.277
		s52.954,118.277,118.277,118.277c42.429,0,79.621-22.354,100.492-55.914C341.288,333.782,319.743,343.3,295.966,343.3z"/>
	<polygon style="fill:#ED1F34;" points="344.696,216.201 346.21,245.505 373.612,256 346.21,266.495 344.696,295.799 
		326.246,272.982 297.908,280.598 313.908,256 297.908,231.402 326.246,239.018 	"/>
</g>
<path d="M344.696,303.086c-2.161,0-4.258-0.963-5.667-2.705l-15.47-19.132l-23.761,6.385c-2.915,0.783-6.01-0.312-7.786-2.754
	c-1.774-2.442-1.86-5.725-0.214-8.256L305.215,256L291.8,235.376c-1.646-2.53-1.561-5.814,0.214-8.256s4.871-3.536,7.786-2.754
	l23.761,6.385l15.47-19.132c1.899-2.347,5.05-3.279,7.918-2.348c2.871,0.933,4.87,3.539,5.026,6.554l1.269,24.571l22.976,8.8
	c2.819,1.08,4.68,3.786,4.68,6.805s-1.862,5.725-4.68,6.805l-22.976,8.8l-1.269,24.571c-0.156,3.014-2.155,5.621-5.026,6.554
	C346.207,302.97,345.448,303.086,344.696,303.086z M326.246,265.695c2.167,0,4.262,0.969,5.666,2.705l6.489,8.025l0.532-10.306
	c0.149-2.878,1.98-5.398,4.671-6.428L353.24,256l-9.637-3.691c-2.691-1.031-4.522-3.551-4.671-6.428l-0.532-10.306l-6.489,8.025
	c-1.812,2.241-4.776,3.201-7.557,2.455l-9.966-2.678l5.627,8.65c1.571,2.416,1.571,5.53,0,7.946l-5.627,8.65l9.966-2.678
	C324.981,265.777,325.617,265.695,326.246,265.695z"/>
<path d="M256.54,381.564c-30.462,0-59.84-11.046-82.722-31.103c-22.664-19.866-37.441-47.165-41.609-76.867
	c-0.559-3.985,2.218-7.669,6.203-8.228c3.987-0.56,7.669,2.219,8.228,6.203c7.633,54.399,54.88,95.422,109.899,95.422
	c22.833,0,44.492-6.86,62.607-19.26c-7.494,1.884-15.268,2.855-23.181,2.855c-52.155,0-94.586-42.431-94.586-94.586
	s42.431-94.586,94.586-94.586c7.914,0,15.687,0.971,23.182,2.856c-18.114-12.4-39.774-19.26-62.608-19.26
	c-55.019,0-102.266,41.022-109.899,95.422c-0.559,3.985-4.237,6.768-8.228,6.204c-3.985-0.559-6.763-4.243-6.203-8.228
	c4.167-29.702,18.945-57,41.609-76.867c22.882-20.057,52.26-31.103,82.722-31.103c43.685,0,83.566,22.187,106.68,59.352
	c1.947,3.131,1.249,7.224-1.628,9.532c-2.877,2.308-7.023,2.102-9.658-0.478c-15.049-14.739-34.926-22.855-55.968-22.855
	c-44.119,0-80.013,35.894-80.013,80.013s35.894,80.013,80.013,80.013c21.042,0,40.919-8.117,55.968-22.856
	c2.636-2.58,6.781-2.787,9.658-0.478c2.877,2.307,3.575,6.4,1.628,9.532C340.106,359.376,300.226,381.564,256.54,381.564z"/>
<g>
</g>
<g>
</g>
<g>
</g>
<g>
</g>
<g>
</g>
<g>
</g>
<g>
</g>
<g>
</g>
<g>
</g>
<g>
</g>
<g>
</g>
<g>
</g>
<g>
</g>
<g>
</g>
<g>
</g>
</svg>
