<?xml version="1.0" encoding="iso-8859-1"?>
<!-- Generator: Adobe Illustrator 19.0.0, SVG Export Plug-In . SVG Version: 6.00 Build 0)  -->
<svg version="1.1" id="Layer_1" xmlns="http://www.w3.org/2000/svg" xmlns:xlink="http://www.w3.org/1999/xlink" x="0px" y="0px"
	 viewBox="0 0 512 512" style="enable-background:new 0 0 512 512;" xml:space="preserve">
<rect x="7.286" y="173.1" style="fill:#FFFFFF;" width="497.43" height="165.81"/>
<path style="fill:#333333;" d="M7.286,395.901c0,60.095,48.717,108.812,108.812,108.812h279.803
	c60.095,0,108.812-48.717,108.812-108.812v-56.997H7.286V395.901z"/>
<path style="fill:#ED1F34;" d="M395.901,7.286H116.099C56.003,7.286,7.286,56.004,7.286,116.099v56.997h497.427v-56.997
	C504.713,56.004,455.997,7.286,395.901,7.286z"/>
<path d="M395.901,0H116.099C52.082,0,0,52.082,0,116.099v279.803C0,459.918,52.082,512,116.099,512h279.803
	C459.918,512,512,459.918,512,395.901V116.099C512,52.082,459.918,0,395.901,0z M116.099,14.573h279.803
	c55.982,0,101.526,45.544,101.526,101.526v49.71h-25.875c-4.024,0-7.286,3.262-7.286,7.287c0,4.024,3.262,7.286,7.286,7.286h25.875
	v151.236H14.573V180.382H438.39c4.024,0,7.287-3.262,7.287-7.286s-3.262-7.287-7.287-7.287H14.573v-49.71
	C14.573,60.117,60.117,14.573,116.099,14.573z M395.901,497.427H116.099c-55.981,0-101.526-45.544-101.526-101.526v-49.71h482.854
	v49.71C497.427,451.883,451.883,497.427,395.901,497.427z"/>
<path style="fill:#F2A643;" d="M288.839,269.706l-5.897-21.08c-0.521-1.862-1.76-3.44-3.445-4.388s-3.678-1.188-5.538-0.665
	l-10.673,2.99v-15.988c0-4.024-3.262-7.286-7.286-7.286h-5.434c-4.024,0-7.286,3.262-7.286,7.286c0,3.384,2.307,6.229,5.434,7.049
	v8.939l-10.673-2.99c-1.861-0.522-3.853-0.283-5.538,0.665c-1.684,0.948-2.924,2.526-3.444,4.388l-5.897,21.08
	c-1.084,3.876,1.179,7.896,5.054,8.98c3.874,1.083,7.896-1.179,8.98-5.054l3.933-14.06l7.585,2.125v19.726
	c0,4.024,3.262,7.286,7.287,7.286c4.024,0,7.286-3.262,7.286-7.286v-19.726l7.585-2.125l3.933,14.06
	c0.9,3.219,3.827,5.325,7.013,5.325c0.649,0,1.31-0.088,1.967-0.271C287.66,277.603,289.923,273.582,288.839,269.706z"/>
<g>
</g>
<g>
</g>
<g>
</g>
<g>
</g>
<g>
</g>
<g>
</g>
<g>
</g>
<g>
</g>
<g>
</g>
<g>
</g>
<g>
</g>
<g>
</g>
<g>
</g>
<g>
</g>
<g>
</g>
</svg>
