<?xml version="1.0" encoding="iso-8859-1"?>
<!-- Generator: Adobe Illustrator 19.0.0, SVG Export Plug-In . SVG Version: 6.00 Build 0)  -->
<svg version="1.1" id="Layer_1" xmlns="http://www.w3.org/2000/svg" xmlns:xlink="http://www.w3.org/1999/xlink" x="0px" y="0px"
	 viewBox="0 0 512 512" style="enable-background:new 0 0 512 512;" xml:space="preserve">
<rect x="7.286" y="173.1" style="fill:#FFFFFF;" width="497.43" height="165.81"/>
<g>
	<path style="fill:#ED1F34;" d="M345.681,301.423c-25.047,0-45.423-20.377-45.423-45.423s20.377-45.423,45.423-45.423
		c9.671,0,18.905,3.001,26.703,8.68c3.253,2.369,3.97,6.926,1.6,10.18c-2.368,3.252-6.925,3.97-10.179,1.601
		c-5.289-3.852-11.557-5.888-18.124-5.888c-17.01,0-30.85,13.839-30.85,30.85s13.84,30.85,30.85,30.85
		c6.568,0,12.836-2.036,18.126-5.889c3.252-2.369,7.811-1.653,10.179,1.6c2.369,3.253,1.653,7.811-1.601,10.18
		C364.587,298.42,355.353,301.423,345.681,301.423z"/>
	<circle style="fill:#ED1F34;" cx="402.48" cy="256" r="14.208"/>
</g>
<path style="fill:#259245;" d="M7.286,395.901c0,60.095,48.717,108.812,108.812,108.812h279.803
	c60.095,0,108.812-48.717,108.812-108.812v-56.997H7.286V395.901z"/>
<path style="fill:#333333;" d="M395.901,7.286H116.099C56.003,7.286,7.286,56.004,7.286,116.099v56.997h497.427v-56.997
	C504.714,56.004,455.997,7.286,395.901,7.286z"/>
<path style="fill:#ED1F34;" d="M35.689,42.79C18.047,62.131,7.286,87.858,7.286,116.099v279.803
	c0,28.241,10.761,53.968,28.403,73.308L206.257,256L35.689,42.79z"/>
<path d="M395.901,0H116.099c-33.61,0-63.924,14.361-85.145,37.263c-0.469,0.402-0.877,0.848-1.218,1.333
	C11.259,59.163,0,86.339,0,116.099v279.803c0,29.759,11.259,56.935,29.736,77.503c0.341,0.484,0.749,0.931,1.218,1.332
	C52.175,497.639,82.489,512,116.099,512h279.803C459.918,512,512,459.918,512,395.901V116.099C512,52.082,459.918,0,395.901,0z
	 M395.901,14.573c55.981,0,101.526,45.544,101.526,101.526v49.71H143.436L45.421,43.29c18.292-17.762,43.228-28.717,70.678-28.717
	C116.099,14.573,395.901,14.573,395.901,14.573z M14.573,116.099c0-23.224,7.844-44.648,21.014-61.773L196.926,256L35.587,457.674
	c-13.17-17.125-21.014-38.548-21.014-61.773C14.573,395.901,14.573,116.099,14.573,116.099z M395.901,497.427H116.099
	c-27.45,0-52.386-10.955-70.678-28.717l98.015-122.518h265.602c4.025,0,7.286-3.262,7.286-7.287c0-4.024-3.262-7.286-7.286-7.286
	H155.094l56.853-71.066c2.129-2.661,2.129-6.443,0-9.103l-56.853-71.066h342.333V331.62h-42.456c-4.025,0-7.286,3.262-7.286,7.286
	c0,4.024,3.262,7.287,7.286,7.287h42.456v49.71C497.427,451.883,451.882,497.427,395.901,497.427z"/>
<g>
</g>
<g>
</g>
<g>
</g>
<g>
</g>
<g>
</g>
<g>
</g>
<g>
</g>
<g>
</g>
<g>
</g>
<g>
</g>
<g>
</g>
<g>
</g>
<g>
</g>
<g>
</g>
<g>
</g>
</svg>
