<?xml version="1.0" encoding="iso-8859-1"?>
<!-- Generator: Adobe Illustrator 19.0.0, SVG Export Plug-In . SVG Version: 6.00 Build 0)  -->
<svg version="1.1" id="Layer_1" xmlns="http://www.w3.org/2000/svg" xmlns:xlink="http://www.w3.org/1999/xlink" x="0px" y="0px"
	 viewBox="0 0 512 512" style="enable-background:new 0 0 512 512;" xml:space="preserve">
<path style="fill:#3DB4EA;" d="M7.286,395.901c0,60.095,48.717,108.812,108.812,108.812h279.803
	c60.095,0,108.812-48.717,108.812-108.812V256H7.286V395.901z"/>
<path style="fill:#134923;" d="M395.901,7.286H116.099C56.003,7.286,7.286,56.004,7.286,116.099V256h497.427V116.099
	C504.714,56.004,455.997,7.286,395.901,7.286z"/>
<path style="fill:#ED1F34;" d="M7.286,116.099v279.803c0,35.597,17.095,67.199,43.521,87.052L504.714,256L50.808,29.047
	C24.381,48.899,7.286,80.502,7.286,116.099z"/>
<path d="M395.901,0H116.099C90.316,0,66.473,8.453,47.185,22.726c-0.513,0.293-0.989,0.656-1.422,1.072
	C17.968,45.029,0,78.502,0,116.099v279.803c0,37.629,18,71.128,45.835,92.357c0.402,0.376,0.835,0.71,1.304,0.983
	C66.435,503.535,90.296,512,116.099,512h279.803C459.918,512,512,459.918,512,395.901V116.099C512,52.082,459.918,0,395.901,0z
	 M395.901,14.573c55.981,0,101.526,45.544,101.526,101.526V244.21L65.37,28.182c14.935-8.651,32.263-13.609,50.729-13.609
	C116.099,14.573,395.901,14.573,395.901,14.573z M14.573,395.901V116.099c0-31.566,14.482-59.812,37.15-78.447L488.42,256
	L51.723,474.348C29.055,455.713,14.573,427.467,14.573,395.901z M395.901,497.427H116.099c-18.466,0-35.794-4.958-50.729-13.609
	L497.427,267.79v128.112C497.427,451.882,451.882,497.427,395.901,497.427z"/>
<path style="fill:#F2A643;" d="M190.434,249.297c0-29.658-19.892-56.114-48.374-64.338c-3.861-1.11-7.904,1.112-9.022,4.98
	c-1.116,3.866,1.113,7.905,4.98,9.022c22.281,6.433,37.842,27.132,37.842,50.336c0,26.421-19.659,48.326-45.116,51.884v-25.91
	v-0.009v-23.224l14.945-14.945c2.845-2.846,2.845-7.459,0-10.305c-2.846-2.844-7.459-2.844-10.306,0l-4.639,4.639v-8.656
	c0-4.025-3.262-7.286-7.286-7.286c-4.025,0-7.286,3.262-7.286,7.286v26.243c0,0.003,0,0.007,0,0.007v8.654l-4.639-4.639
	c-2.846-2.844-7.459-2.844-10.306,0c-2.845,2.846-2.845,7.459,0,10.306l14.945,14.945v22.896
	c-25.456-3.559-45.115-25.463-45.115-51.884c0-23.204,15.562-43.903,37.841-50.336c3.867-1.117,6.096-5.156,4.98-9.022
	c-1.118-3.866-5.158-6.095-9.022-4.98c-28.481,8.224-48.373,34.68-48.373,64.338c0,34.468,26.174,62.928,59.688,66.572v4.171
	c0,4.025,3.262,7.287,7.286,7.287c4.025,0,7.286-3.262,7.286-7.287v-4.171C164.26,312.225,190.434,283.765,190.434,249.297z"/>
<g>
</g>
<g>
</g>
<g>
</g>
<g>
</g>
<g>
</g>
<g>
</g>
<g>
</g>
<g>
</g>
<g>
</g>
<g>
</g>
<g>
</g>
<g>
</g>
<g>
</g>
<g>
</g>
<g>
</g>
</svg>
