<?xml version="1.0" encoding="iso-8859-1"?>
<!-- Generator: Adobe Illustrator 19.0.0, SVG Export Plug-In . SVG Version: 6.00 Build 0)  -->
<svg version="1.1" id="Layer_1" xmlns="http://www.w3.org/2000/svg" xmlns:xlink="http://www.w3.org/1999/xlink" x="0px" y="0px"
	 viewBox="0 0 512 512" style="enable-background:new 0 0 512 512;" xml:space="preserve">
<rect x="7.286" y="173.1" style="fill:#FFE000;" width="497.43" height="165.81"/>
<path style="fill:#ED1F34;" d="M7.286,395.901c0,60.095,48.717,108.812,108.812,108.812h279.803
	c60.095,0,108.812-48.717,108.812-108.812v-56.997H7.286V395.901z"/>
<path style="fill:#259245;" d="M395.901,7.286H116.099C56.003,7.286,7.286,56.004,7.286,116.099v56.997h497.427v-56.997
	C504.714,56.004,455.997,7.286,395.901,7.286z"/>
<path d="M395.901,0H116.099C52.082,0,0,52.082,0,116.099v279.803C0,459.918,52.082,512,116.099,512h279.803
	C459.918,512,512,459.918,512,395.901V116.099C512,52.082,459.918,0,395.901,0z M116.099,14.573h279.803
	c55.981,0,101.526,45.544,101.526,101.526v49.711H14.573v-49.711C14.573,60.118,60.117,14.573,116.099,14.573z M395.901,497.427
	H116.099c-55.982,0-101.526-45.545-101.526-101.526V346.19h25.875c4.024,0,7.286-3.262,7.286-7.286c0-4.025-3.262-7.287-7.286-7.287
	H14.573V180.382h482.854v151.235H73.61c-4.024,0-7.287,3.262-7.287,7.287s3.262,7.286,7.287,7.286h423.817v49.711
	C497.427,451.882,451.882,497.427,395.901,497.427z"/>
<circle style="fill:#164FCE;" cx="256" cy="256" r="161.18"/>
<path d="M256,424.465c-92.892,0-168.465-75.573-168.465-168.465S163.108,87.535,256,87.535S424.465,163.108,424.465,256
	S348.892,424.465,256,424.465z M256,102.108c-84.857,0-153.892,69.035-153.892,153.892S171.143,409.892,256,409.892
	S409.892,340.857,409.892,256S340.857,102.108,256,102.108z"/>
<g>
	<path style="fill:#FFE000;" d="M205.898,194.321c-2.253,0-4.475-1.043-5.901-3.005l-15.582-21.449
		c-2.365-3.256-1.643-7.812,1.612-10.177c3.257-2.366,7.813-1.642,10.178,1.612l15.582,21.449c2.365,3.256,1.643,7.812-1.613,10.177
		C208.882,193.868,207.383,194.321,205.898,194.321z"/>
	<path style="fill:#FFE000;" d="M149.709,297.823c-3.072,0-5.928-1.957-6.928-5.037c-1.244-3.827,0.851-7.937,4.678-9.181
		l25.214-8.193c3.828-1.244,7.938,0.85,9.182,4.678c1.244,3.827-0.851,7.937-4.678,9.181l-25.214,8.193
		C151.214,297.708,150.455,297.823,149.709,297.823z"/>
	<path style="fill:#FFE000;" d="M255.999,375.046L255.999,375.046c-4.024,0-7.286-3.263-7.286-7.286l0.001-26.511
		c0-4.024,3.263-7.286,7.286-7.286l0,0c4.025,0,7.286,3.263,7.286,7.286v26.511C263.286,371.783,260.024,375.046,255.999,375.046z"
		/>
	<path style="fill:#FFE000;" d="M362.29,297.824c-0.747,0-1.506-0.116-2.253-0.359l-25.212-8.192
		c-3.827-1.244-5.922-5.354-4.678-9.181c1.243-3.826,5.359-5.919,9.181-4.678l25.212,8.192c3.827,1.244,5.922,5.354,4.678,9.181
		C368.218,295.866,365.362,297.824,362.29,297.824z"/>
	<path style="fill:#FFE000;" d="M306.101,194.321c-1.486,0-2.984-0.453-4.278-1.393c-3.255-2.365-3.976-6.922-1.611-10.178
		l15.584-21.448c2.367-3.254,6.923-3.975,10.178-1.611c3.255,2.365,3.976,6.922,1.611,10.178L312,191.317
		C310.575,193.278,308.353,194.321,306.101,194.321z"/>
	<path style="fill:#FFE000;" d="M190.309,353.703c-1.503,0-3.006-0.464-4.283-1.392c-2.554-1.855-3.623-5.144-2.647-8.146
		l23.456-72.191l-61.406-44.615c-2.554-1.855-3.623-5.144-2.647-8.146c0.975-3.003,3.773-5.035,6.93-5.035h75.902l23.456-72.189
		c0.975-3.003,3.773-5.035,6.93-5.035c3.157,0,5.954,2.032,6.93,5.035l23.455,72.189h75.904c3.156,0,5.954,2.032,6.93,5.035
		c0.975,3.002-0.093,6.291-2.647,8.146l-61.407,44.616l23.455,72.19c0.975,3.002-0.093,6.291-2.647,8.146
		c-2.554,1.856-6.011,1.856-8.565,0L256,307.695l-61.408,44.616C193.315,353.239,191.812,353.703,190.309,353.703z M219.232,280.981
		l-15.063,46.359l39.435-28.651L219.232,280.981z M268.397,298.689l39.434,28.651l-15.063-46.358L268.397,298.689z M223.967,266.408
		L256,289.682l32.033-23.273l-12.236-37.658h-39.595L223.967,266.408z M291.121,228.751l9.309,28.651l39.434-28.651H291.121z
		 M172.138,228.751l39.433,28.65l9.309-28.65H172.138z M240.937,214.178h30.126L256,167.82L240.937,214.178z"/>
</g>
<g>
</g>
<g>
</g>
<g>
</g>
<g>
</g>
<g>
</g>
<g>
</g>
<g>
</g>
<g>
</g>
<g>
</g>
<g>
</g>
<g>
</g>
<g>
</g>
<g>
</g>
<g>
</g>
<g>
</g>
</svg>
