<?xml version="1.0" encoding="iso-8859-1"?>
<!-- Generator: Adobe Illustrator 19.0.0, SVG Export Plug-In . SVG Version: 6.00 Build 0)  -->
<svg version="1.1" id="Layer_1" xmlns="http://www.w3.org/2000/svg" xmlns:xlink="http://www.w3.org/1999/xlink" x="0px" y="0px"
	 viewBox="0 0 512 512" style="enable-background:new 0 0 512 512;" xml:space="preserve">
<path style="fill:#103B9B;" d="M395.901,7.286H116.099C56.003,7.286,7.286,56.004,7.286,116.099v279.803
	c0,60.095,48.717,108.812,108.812,108.812h279.803c60.095,0,108.812-48.717,108.812-108.812V116.099
	C504.714,56.004,455.997,7.286,395.901,7.286z"/>
<g>
	<circle style="fill:#FFE000;" cx="256" cy="156.51" r="16.581"/>
	<circle style="fill:#FFE000;" cx="206.26" cy="169.84" r="16.581"/>
	<circle style="fill:#FFE000;" cx="169.84" cy="206.26" r="16.581"/>
	<circle style="fill:#FFE000;" cx="156.51" cy="256" r="16.581"/>
	<circle style="fill:#FFE000;" cx="169.84" cy="305.74" r="16.581"/>
	<circle style="fill:#FFE000;" cx="206.26" cy="342.16" r="16.581"/>
	<circle style="fill:#FFE000;" cx="256" cy="355.49" r="16.581"/>
	<circle style="fill:#FFE000;" cx="305.74" cy="342.16" r="16.581"/>
	<circle style="fill:#FFE000;" cx="342.16" cy="305.74" r="16.581"/>
	<circle style="fill:#FFE000;" cx="355.49" cy="256" r="16.581"/>
	<circle style="fill:#FFE000;" cx="342.16" cy="206.26" r="16.581"/>
	<circle style="fill:#FFE000;" cx="305.74" cy="169.84" r="16.581"/>
</g>
<path d="M395.901,512H116.099C52.082,512,0,459.918,0,395.901V116.099C0,52.082,52.082,0,116.099,0h279.803
	C459.918,0,512,52.082,512,116.099v279.803C512,459.918,459.918,512,395.901,512z M116.099,14.573
	c-55.982,0-101.526,45.544-101.526,101.526v279.803c0,55.981,45.544,101.526,101.526,101.526h279.803
	c55.981,0,101.526-45.545,101.526-101.526V116.099c0-55.981-45.545-101.526-101.526-101.526
	C395.902,14.573,116.099,14.573,116.099,14.573z"/>
<g>
</g>
<g>
</g>
<g>
</g>
<g>
</g>
<g>
</g>
<g>
</g>
<g>
</g>
<g>
</g>
<g>
</g>
<g>
</g>
<g>
</g>
<g>
</g>
<g>
</g>
<g>
</g>
<g>
</g>
</svg>
