<?xml version="1.0" encoding="iso-8859-1"?>
<!-- Generator: Adobe Illustrator 19.0.0, SVG Export Plug-In . SVG Version: 6.00 Build 0)  -->
<svg version="1.1" id="Layer_1" xmlns="http://www.w3.org/2000/svg" xmlns:xlink="http://www.w3.org/1999/xlink" x="0px" y="0px"
	 viewBox="0 0 512 512" style="enable-background:new 0 0 512 512;" xml:space="preserve">
<path style="fill:#3DB4EA;" d="M395.901,7.286H116.099C56.003,7.286,7.286,56.004,7.286,116.099v279.803
	c0,60.095,48.717,108.812,108.812,108.812h279.803c60.095,0,108.812-48.717,108.812-108.812V116.099
	C504.714,56.004,455.997,7.286,395.901,7.286z"/>
<path style="fill:#FFFFFF;" d="M331.497,298.209v73.579c0,30.791,25.849,48.658,48.86,55.752
	c23.011-7.095,48.86-24.961,48.86-55.752v-73.579H331.497z"/>
<path style="fill:#ED1F34;" d="M429.216,364.501h-41.573v-31.439l0,0h41.573v-34.853h-97.72v34.853h41.573l0,0v31.439h-41.573
	c-4.025,0-7.287,3.262-7.287,7.287c0,4.024,3.262,7.286,7.287,7.286h41.573v48.465c0,4.024,3.262,7.287,7.286,7.287
	c4.025,0,7.287-3.262,7.287-7.287v-48.465h41.573c4.025,0,7.286-3.262,7.286-7.286C436.503,367.764,433.241,364.501,429.216,364.501
	z"/>
<path d="M380.357,434.826c-0.724,0-1.448-0.108-2.147-0.324c-26.104-8.049-53.999-28.751-53.999-62.715v-73.579
	c0-4.024,3.262-7.286,7.287-7.286h97.719c4.025,0,7.286,3.262,7.286,7.286v73.579c0,33.964-27.895,54.667-53.999,62.715
	C381.805,434.719,381.081,434.826,380.357,434.826z M338.784,305.495v66.293c0,30.743,29.466,43.965,41.573,48.091
	c12.107-4.126,41.573-17.348,41.573-48.091v-66.293H338.784z"/>
<path style="fill:#103B9B;" d="M312.401,7.302H114.884C55.349,7.954,7.286,56.41,7.286,116.099v139.909H312.4L312.401,7.302
	L312.401,7.302z"/>
<path style="fill:#FFFFFF;" d="M312.401,98.067h-41.662l41.662-27.775V7.286h-26.553L193.42,68.905V7.286h-67.153v61.619
	L58.536,23.751C39.097,35.894,23.77,54,15.116,75.511l33.833,22.556H7.286v67.153h41.662L7.286,192.994V256h26.552l92.429-61.619
	V256h67.153v-61.619L285.848,256h26.553v-63.006l-41.662-27.775h41.662V98.067z"/>
<path style="fill:#ED1F34;" d="M312.401,113.612h-125.51l125.51-83.673V7.286h-6.376l-128.15,85.442V7.286h-36.063v106.325h-9.016
	L32.34,46.641c-4.776,5.753-8.966,12.007-12.489,18.67l72.277,48.301H7.286v36.063h125.51L7.286,233.348V256h6.376l128.15-85.433
	V256h36.063V149.675h9.016L312.4,233.348v-26.383l-85.733-57.291H312.4L312.401,113.612L312.401,113.612z"/>
<path d="M395.901,0H116.099C52.082,0,0,52.082,0,116.099v279.803C0,459.918,52.082,512,116.099,512h279.803
	C459.918,512,512,459.918,512,395.901V116.099C512,52.082,459.918,0,395.901,0z M116.099,14.573h189.015v234.148l-290.541-0.007
	V116.099C14.573,60.117,60.118,14.573,116.099,14.573z M497.427,395.901c0,55.982-45.545,101.526-101.526,101.526H116.099
	c-55.981,0-101.526-45.544-101.526-101.526V263.287l297.827,0.007c1.933,0,3.786-0.767,5.152-2.134
	c1.367-1.366,2.135-3.22,2.135-5.152V14.573h76.214c55.981,0,101.526,45.544,101.526,101.526V395.901z"/>
<g>
</g>
<g>
</g>
<g>
</g>
<g>
</g>
<g>
</g>
<g>
</g>
<g>
</g>
<g>
</g>
<g>
</g>
<g>
</g>
<g>
</g>
<g>
</g>
<g>
</g>
<g>
</g>
<g>
</g>
</svg>
