<?xml version="1.0" encoding="iso-8859-1"?>
<!-- Generator: Adobe Illustrator 19.0.0, SVG Export Plug-In . SVG Version: 6.00 Build 0)  -->
<svg version="1.1" id="Layer_1" xmlns="http://www.w3.org/2000/svg" xmlns:xlink="http://www.w3.org/1999/xlink" x="0px" y="0px"
	 viewBox="0 0 512 512" style="enable-background:new 0 0 512 512;" xml:space="preserve">
<path style="fill:#103B9B;" d="M395.901,7.286H116.099C56.003,7.286,7.286,56.004,7.286,116.099v279.803
	c0,60.095,48.717,108.812,108.812,108.812h279.803c60.095,0,108.812-48.717,108.812-108.812V116.099
	C504.714,56.004,455.997,7.286,395.901,7.286z"/>
<g>
	<polygon style="fill:#FFFFFF;" points="312.401,165.22 312.401,98.067 193.42,98.067 193.42,7.286 126.267,7.286 126.267,98.067 
		7.286,98.067 7.286,165.22 126.267,165.22 126.267,256 193.42,256 193.42,165.22 	"/>
	<path style="fill:#FFFFFF;" d="M159.844,171.997L285.848,256h26.553v-63.006l-92.027-61.351l92.027-61.351V7.286h-26.553
		L159.844,91.289L58.536,23.751C39.097,35.894,23.77,54,15.116,75.511l84.198,56.132L7.286,192.994V256h26.552L159.844,171.997z"/>
</g>
<g>
	<path style="fill:#ED1F34;" d="M180.021,145.094l132.38,88.254v-26.382l-132.613-88.619l132.613-88.409V7.286h-6.376
		L139.676,118.198L32.34,46.641c-4.776,5.752-8.966,12.007-12.489,18.67l119.602,79.926L7.286,233.348V256h6.376L180.021,145.094z"
		/>
	<polygon style="fill:#ED1F34;" points="312.401,149.675 312.401,113.612 177.875,113.612 177.875,7.286 141.812,7.286 
		141.812,113.612 7.286,113.612 7.286,149.675 141.812,149.675 141.812,256 177.875,256 177.875,149.675 	"/>
</g>
<path style="fill:#3DB4EA;" d="M325.087,271.458v94.34c0,59.76,55.27,73.421,55.27,73.421s55.27-13.661,55.27-73.421v-94.34H325.087
	z"/>
<path style="fill:#103B9B;" d="M380.357,439.22c0,0,55.27-13.661,55.27-73.422v-9.395c-4.976-2.345-9.434-4.939-19.295-4.939
	c-17.989,0-17.989,8.635-35.979,8.635c-17.989,0-17.989-8.635-35.978-8.635c-9.857,0-14.314,2.592-19.288,4.936v9.397
	C325.087,425.558,380.357,439.22,380.357,439.22z"/>
<g>
	<path style="fill:#FFFFFF;" d="M380.353,405.366c-10.653,0-16.225-2.675-21.142-5.035c-4.19-2.011-7.5-3.6-14.835-3.6
		c-5.634,0-8.924,0.935-12.129,2.339c-3.687,1.613-7.984-0.065-9.597-3.752c-1.614-3.686,0.065-7.983,3.752-9.597
		c4.023-1.762,9.305-3.563,17.975-3.563c10.652,0,16.225,2.675,21.142,5.035c4.19,2.011,7.499,3.6,14.836,3.6
		s10.646-1.589,14.836-3.6c4.917-2.36,10.49-5.035,21.143-5.035c8.675,0,13.959,1.803,17.984,3.566
		c3.686,1.614,5.365,5.912,3.751,9.598c-1.615,3.686-5.912,5.365-9.598,3.75c-3.208-1.405-6.5-2.341-12.137-2.341
		c-7.337,0-10.646,1.589-14.836,3.6C396.578,402.691,391.005,405.366,380.353,405.366z"/>
	<path style="fill:#FFFFFF;" d="M380.353,367.386c-10.653,0-16.226-2.675-21.142-5.035c-4.19-2.011-7.5-3.6-14.835-3.6
		c-7.336,0-10.645,1.589-14.835,3.6c-0.434,0.208-0.868,0.417-1.306,0.623c-3.639,1.714-7.982,0.158-9.699-3.481
		c-1.717-3.639-0.158-7.982,3.481-9.699l1.217-0.581c4.916-2.36,10.489-5.035,21.142-5.035s16.225,2.675,21.142,5.035
		c4.19,2.011,7.499,3.6,14.836,3.6c7.336,0,10.646-1.589,14.836-3.6c4.917-2.36,10.49-5.035,21.143-5.035s16.226,2.675,21.143,5.035
		c0.419,0.201,0.838,0.402,1.261,0.602c3.64,1.715,5.202,6.056,3.486,9.697c-1.714,3.64-6.057,5.202-9.697,3.486
		c-0.455-0.214-0.906-0.43-1.356-0.647c-4.191-2.011-7.5-3.6-14.837-3.6c-7.336,0-10.646,1.589-14.836,3.6
		C396.578,364.711,391.006,367.386,380.353,367.386z"/>
</g>
<path style="fill:#F2A643;" d="M380.357,471.93c-28.946,0-55.651-13.344-72.965-35.682l-2.924,10.419
	c-1.087,3.875-5.11,6.134-8.984,5.047c-3.875-1.087-6.134-5.109-5.047-8.984l7.309-26.048c0.808-2.88,3.296-4.974,6.272-5.28
	c2.979-0.307,5.836,1.24,7.213,3.896c13.444,25.943,39.932,42.059,69.126,42.059s55.682-16.116,69.126-42.058
	c1.376-2.657,4.237-4.199,7.213-3.896c2.976,0.305,5.464,2.399,6.272,5.28l7.309,26.047c1.087,3.875-1.172,7.897-5.047,8.984
	c-3.876,1.086-7.897-1.173-8.984-5.047l-2.924-10.419C436.008,458.585,409.303,471.93,380.357,471.93z"/>
<path style="fill:#FFFFFF;" d="M400.688,329.85h-28.819c-6.541,0-11.844-5.303-11.844-11.844v-11.844h28.819
	c6.541,0,11.843,5.303,11.843,11.844v11.844H400.688z"/>
<path d="M371.869,337.137h28.819c4.024,0,7.287-3.262,7.287-7.286v-11.844c0-10.548-8.582-19.13-19.13-19.13h-21.532v-2.188
	c0-4.024-3.262-7.286-7.286-7.286s-7.286,3.262-7.286,7.286v9.475v11.843C352.739,328.555,361.321,337.137,371.869,337.137z
	 M393.402,318.007v4.557h-21.533c-2.513,0-4.557-2.044-4.557-4.557v-4.557h21.532C391.357,313.45,393.402,315.494,393.402,318.007z"
	/>
<path d="M435.627,264.171h-110.54c-4.024,0-7.287,3.262-7.287,7.286v94.34c0,33.793,16.538,53.915,30.412,64.844
	c14.881,11.723,29.769,15.496,30.395,15.65c0.574,0.142,1.161,0.213,1.749,0.213c0.587,0,1.174-0.071,1.749-0.213
	c0.626-0.155,15.514-3.927,30.396-15.65c13.874-10.93,30.412-31.052,30.412-64.844v-94.34
	C442.913,267.434,439.651,264.171,435.627,264.171z M428.34,365.798c0,47.996-38.928,63-47.961,65.835
	c-8.781-2.827-48.005-18.138-48.005-65.835v-87.054h95.966V365.798z"/>
<path d="M395.901,0H116.099C52.082,0,0,52.082,0,116.099v279.803C0,459.918,52.082,512,116.099,512h279.803
	C459.918,512,512,459.918,512,395.901V116.099C512,52.082,459.918,0,395.901,0z M497.427,395.901
	c0,55.982-45.544,101.526-101.526,101.526H116.099c-55.982,0-101.526-45.544-101.526-101.526V116.099
	c0-55.982,45.544-101.526,101.526-101.526h279.803c55.981,0,101.526,45.544,101.526,101.526v279.802H497.427z"/>
<g>
</g>
<g>
</g>
<g>
</g>
<g>
</g>
<g>
</g>
<g>
</g>
<g>
</g>
<g>
</g>
<g>
</g>
<g>
</g>
<g>
</g>
<g>
</g>
<g>
</g>
<g>
</g>
<g>
</g>
</svg>
