<?xml version="1.0" encoding="iso-8859-1"?>
<!-- Generator: Adobe Illustrator 19.0.0, SVG Export Plug-In . SVG Version: 6.00 Build 0)  -->
<svg version="1.1" id="Layer_1" xmlns="http://www.w3.org/2000/svg" xmlns:xlink="http://www.w3.org/1999/xlink" x="0px" y="0px"
	 viewBox="0 0 512 512" style="enable-background:new 0 0 512 512;" xml:space="preserve">
<path style="fill:#3DB4EA;" d="M395.901,7.286H116.099C56.003,7.286,7.286,56.004,7.286,116.099v279.803
	c0,60.095,48.717,108.812,108.812,108.812h279.803c60.095,0,108.812-48.717,108.812-108.812V116.099
	C504.713,56.004,455.997,7.286,395.901,7.286z"/>
<polygon style="fill:#FFFFFF;" points="218.807,152.586 246.192,151.171 256,125.564 265.808,151.171 293.193,152.586 
	271.87,169.827 278.986,196.309 256,181.357 233.013,196.309 240.13,169.827 "/>
<path d="M278.986,203.595c-1.38,0-2.762-0.391-3.972-1.178L256,190.049l-19.014,12.368c-2.53,1.647-5.813,1.561-8.256-0.214
	c-2.442-1.774-3.537-4.871-2.754-7.786l5.887-21.905l-17.638-14.261c-2.348-1.898-3.282-5.047-2.349-7.918s3.539-4.869,6.554-5.026
	l22.652-1.17l8.112-21.181c1.08-2.819,3.786-4.68,6.805-4.68c3.018,0,5.725,1.861,6.805,4.68l8.112,21.181l22.652,1.17
	c3.015,0.156,5.621,2.155,6.554,5.026c0.933,2.871-0.001,6.02-2.349,7.918l-17.638,14.261l5.887,21.905
	c0.783,2.915-0.312,6.012-2.754,7.786C281.996,203.13,280.492,203.595,278.986,203.595z M256,174.071
	c1.382,0,2.765,0.393,3.973,1.178l7.039,4.579l-2.18-8.11c-0.748-2.783,0.215-5.746,2.456-7.557l6.53-5.28l-8.387-0.433
	c-2.878-0.149-5.397-1.98-6.428-4.671L256,145.936l-3.003,7.841c-1.031,2.691-3.551,4.522-6.428,4.671l-8.387,0.433l6.53,5.28
	c2.241,1.812,3.204,4.774,2.456,7.557l-2.18,8.11l7.039-4.579C253.235,174.464,254.618,174.071,256,174.071z"/>
<polygon style="fill:#FFFFFF;" points="152.586,293.193 151.171,265.808 125.564,256 151.171,246.192 152.586,218.807 
	169.827,240.13 196.309,233.014 181.357,256 196.309,278.987 169.827,271.87 "/>
<path d="M152.585,300.48c-0.751,0-1.51-0.117-2.251-0.357c-2.871-0.933-4.869-3.539-5.026-6.554l-1.17-22.652l-21.181-8.112
	c-2.819-1.08-4.68-3.786-4.68-6.805s1.861-5.725,4.68-6.805l21.181-8.112l1.17-22.652c0.156-3.015,2.155-5.621,5.026-6.554
	c2.869-0.932,6.02,0.001,7.918,2.349l14.261,17.638l21.905-5.887c2.918-0.784,6.012,0.312,7.786,2.754
	c1.775,2.442,1.859,5.726,0.214,8.256L190.049,256l12.368,19.014c1.646,2.53,1.561,5.814-0.214,8.256
	c-1.774,2.442-4.87,3.536-7.786,2.754l-21.905-5.887l-14.261,17.638C156.843,299.516,154.746,300.48,152.585,300.48z M145.935,256
	l7.842,3.003c2.691,1.031,4.522,3.551,4.671,6.428l0.433,8.387l5.28-6.53c1.812-2.24,4.772-3.201,7.557-2.456l8.11,2.18
	l-4.579-7.039c-1.571-2.416-1.571-5.53,0-7.946l4.579-7.039l-8.11,2.18c-2.784,0.747-5.746-0.214-7.557-2.456l-5.28-6.53
	l-0.433,8.387c-0.149,2.878-1.98,5.398-4.671,6.428L145.935,256z"/>
<polygon style="fill:#FFFFFF;" points="293.193,359.414 265.808,360.829 256,386.436 246.192,360.829 218.807,359.414 
	240.13,342.173 233.013,315.691 256,330.643 278.986,315.691 271.87,342.173 "/>
<path d="M256,393.723c-3.019,0-5.725-1.861-6.805-4.68l-8.112-21.181l-22.652-1.17c-3.015-0.156-5.621-2.155-6.554-5.026
	s0.001-6.02,2.349-7.917l17.638-14.261l-5.887-21.905c-0.783-2.915,0.312-6.012,2.754-7.786c2.442-1.775,5.725-1.859,8.256-0.214
	L256,321.951l19.014-12.368c2.531-1.646,5.814-1.56,8.256,0.214c2.442,1.774,3.537,4.87,2.754,7.786l-5.887,21.905l17.638,14.261
	c2.348,1.898,3.282,5.046,2.349,7.917s-3.539,4.87-6.554,5.026l-22.652,1.17l-8.112,21.181
	C261.725,391.862,259.018,393.723,256,393.723z M238.182,353.119l8.387,0.433c2.878,0.149,5.398,1.98,6.428,4.671l3.003,7.842
	l3.003-7.842c1.031-2.691,3.551-4.522,6.428-4.671l8.387-0.433l-6.53-5.28c-2.241-1.812-3.204-4.774-2.456-7.557l2.18-8.11
	l-7.039,4.579c-2.416,1.571-5.53,1.571-7.946,0l-7.039-4.579l2.18,8.11c0.748,2.783-0.215,5.746-2.456,7.557L238.182,353.119z"/>
<polygon style="fill:#FFFFFF;" points="359.414,218.807 360.829,246.192 386.436,256 360.829,265.808 359.414,293.193 
	342.173,271.87 315.691,278.987 330.643,256 315.691,233.014 342.173,240.13 "/>
<path d="M359.415,300.48c-2.161,0-4.259-0.964-5.667-2.706l-14.261-17.638l-21.905,5.887c-2.918,0.784-6.012-0.312-7.786-2.754
	c-1.775-2.442-1.859-5.726-0.213-8.256L321.951,256l-12.368-19.014c-1.646-2.53-1.561-5.814,0.213-8.256
	c1.774-2.442,4.871-3.537,7.786-2.754l21.905,5.887l14.261-17.638c1.898-2.347,5.047-3.281,7.918-2.349
	c2.871,0.933,4.869,3.539,5.026,6.554l1.17,22.652l21.181,8.112c2.819,1.08,4.68,3.786,4.68,6.805c0,3.019-1.862,5.725-4.68,6.805
	l-21.181,8.112l-1.17,22.652c-0.156,3.015-2.155,5.621-5.026,6.554C360.925,300.363,360.166,300.48,359.415,300.48z
	 M342.173,264.582c2.167,0,4.262,0.969,5.667,2.706l5.28,6.53l0.433-8.387c0.149-2.878,1.98-5.397,4.671-6.428l7.841-3.003
	l-7.841-3.003c-2.691-1.031-4.522-3.551-4.671-6.428l-0.433-8.387l-5.28,6.53c-1.811,2.241-4.771,3.202-7.557,2.456l-8.11-2.18
	l4.579,7.039c1.571,2.416,1.571,5.53,0,7.946l-4.579,7.039l8.11-2.18C340.908,264.665,341.544,264.582,342.173,264.582z"/>
<path d="M395.901,512H116.099C52.082,512,0,459.918,0,395.901V116.099C0,52.082,52.082,0,116.099,0h279.803
	C459.918,0,512,52.082,512,116.099v279.803C512,459.918,459.918,512,395.901,512z M116.099,14.573
	c-55.981,0-101.526,45.544-101.526,101.526v279.803c0,55.982,45.544,101.526,101.526,101.526h279.803
	c55.982,0,101.526-45.544,101.526-101.526V116.099c0-55.982-45.544-101.526-101.526-101.526
	C395.902,14.573,116.099,14.573,116.099,14.573z"/>
<g>
</g>
<g>
</g>
<g>
</g>
<g>
</g>
<g>
</g>
<g>
</g>
<g>
</g>
<g>
</g>
<g>
</g>
<g>
</g>
<g>
</g>
<g>
</g>
<g>
</g>
<g>
</g>
<g>
</g>
</svg>
