<?xml version="1.0" encoding="iso-8859-1"?>
<!-- Generator: Adobe Illustrator 19.0.0, SVG Export Plug-In . SVG Version: 6.00 Build 0)  -->
<svg version="1.1" id="Layer_1" xmlns="http://www.w3.org/2000/svg" xmlns:xlink="http://www.w3.org/1999/xlink" x="0px" y="0px"
	 viewBox="0 0 512 512" style="enable-background:new 0 0 512 512;" xml:space="preserve">
<path style="fill:#FFFFFF;" d="M395.901,7.286H116.099C56.003,7.286,7.286,56.004,7.286,116.099v279.803
	c0,60.095,48.717,108.812,108.812,108.812h279.803c60.095,0,108.812-48.717,108.812-108.812V116.099
	C504.713,56.004,455.997,7.286,395.901,7.286z"/>
<polygon style="fill:#164FCE;" points="504.713,188.847 260.926,188.847 260.926,7.286 126.62,7.286 126.62,188.847 7.286,188.847 
	7.286,323.153 126.62,323.153 126.62,504.714 260.926,504.714 260.926,323.153 504.713,323.153 "/>
<polygon style="fill:#ED1F34;" points="504.713,219.937 229.836,219.937 229.836,7.286 157.709,7.286 157.709,219.937 
	7.286,219.937 7.286,292.064 157.709,292.064 157.709,504.714 229.836,504.714 229.836,292.064 504.713,292.064 "/>
<path d="M395.901,0H116.099C52.082,0,0,52.082,0,116.099v279.803C0,459.918,52.082,512,116.099,512h279.803
	C459.918,512,512,459.918,512,395.901V116.099C512,52.082,459.918,0,395.901,0z M497.427,116.099v96.551H237.123V14.573h158.778
	C451.883,14.573,497.427,60.117,497.427,116.099z M116.099,14.573h34.324V212.65H14.573v-96.551
	C14.573,60.117,60.117,14.573,116.099,14.573z M14.573,395.901V299.35h28.013c4.024,0,7.286-3.262,7.286-7.286
	s-3.262-7.287-7.286-7.287H14.573v-57.554H157.71c4.024,0,7.286-3.262,7.286-7.287V14.573h57.554v205.363
	c0,4.024,3.262,7.287,7.286,7.287h267.591v57.554H229.836c-4.024,0-7.286,3.262-7.286,7.287v205.363h-57.554V292.064
	c0-4.024-3.262-7.287-7.286-7.287H71.084c-4.024,0-7.287,3.262-7.287,7.287s3.262,7.286,7.287,7.286h79.339v198.077h-34.324
	C60.117,497.427,14.573,451.883,14.573,395.901z M395.901,497.427H237.123V299.35h260.304v96.551
	C497.427,451.883,451.883,497.427,395.901,497.427z"/>
<g>
</g>
<g>
</g>
<g>
</g>
<g>
</g>
<g>
</g>
<g>
</g>
<g>
</g>
<g>
</g>
<g>
</g>
<g>
</g>
<g>
</g>
<g>
</g>
<g>
</g>
<g>
</g>
<g>
</g>
</svg>
