<?xml version="1.0" encoding="iso-8859-1"?>
<!-- Generator: Adobe Illustrator 19.0.0, SVG Export Plug-In . SVG Version: 6.00 Build 0)  -->
<svg version="1.1" id="Layer_1" xmlns="http://www.w3.org/2000/svg" xmlns:xlink="http://www.w3.org/1999/xlink" x="0px" y="0px"
	 viewBox="0 0 512.001 512.001" style="enable-background:new 0 0 512.001 512.001;" xml:space="preserve">
<path style="fill:#164FCE;" d="M395.906,7.286H116.094C56.001,7.289,7.286,56.005,7.286,116.099v279.803
	c0,60.093,48.714,108.809,108.808,108.812h279.812c60.093-0.003,108.807-48.719,108.807-108.812V116.099
	C504.714,56.005,455.999,7.289,395.906,7.286z"/>
<path style="fill:#FFFFFF;" d="M496.285,74.044c-11.178-26.65-32.66-47.905-59.461-58.791L256,196.761L75.177,15.252
	C48.375,26.139,26.894,47.393,15.715,74.044L196.985,256L15.715,437.956c11.178,26.65,32.66,47.905,59.461,58.791L256,315.239
	l180.823,181.508c26.801-10.886,48.283-32.141,59.461-58.791L315.016,256L496.285,74.044z"/>
<path d="M512,395.901V116.099c0-15.661-3.124-30.604-8.77-44.25c-0.133-0.423-0.303-0.836-0.514-1.233
	c-11.93-27.911-34.492-50.229-62.566-61.846c-0.358-0.184-0.728-0.332-1.106-0.453C425.699,2.956,411.141,0,395.901,0H116.099
	c-15.234,0-29.789,2.954-43.13,8.312c-0.386,0.122-0.764,0.274-1.13,0.462C43.771,20.392,21.213,42.709,9.285,70.616
	c-0.212,0.398-0.382,0.811-0.515,1.234C3.124,85.494,0,100.437,0,116.099v279.803c0,15.661,3.124,30.604,8.77,44.249
	c0.133,0.423,0.303,0.837,0.515,1.234c11.931,27.913,34.495,50.232,62.571,61.848c0.353,0.181,0.719,0.327,1.091,0.447
	c13.347,5.362,27.909,8.321,43.151,8.321h279.803c15.237,0,29.794-2.955,43.137-8.315c0.379-0.12,0.75-0.27,1.109-0.454
	c28.074-11.617,50.637-33.935,62.567-61.846c0.212-0.398,0.382-0.811,0.515-1.233C508.876,426.506,512,411.563,512,395.901z
	 M395.901,14.573c9.539,0,18.773,1.325,27.532,3.796L256,186.436L88.566,18.369c8.759-2.471,17.994-3.796,27.532-3.796H395.901z
	 M14.573,395.901V116.099c0-9.972,1.452-19.608,4.143-28.719L186.7,256L18.716,424.621
	C16.025,415.509,14.573,405.873,14.573,395.901z M116.099,497.427c-9.539,0-18.773-1.324-27.532-3.796L256,325.564l167.434,168.067
	c-8.759,2.472-17.994,3.796-27.532,3.796L116.099,497.427L116.099,497.427z M438.458,488.065L261.162,310.097
	c-1.368-1.373-3.225-2.144-5.162-2.144c-1.937,0-3.795,0.771-5.162,2.144L73.542,488.065c-21.475-9.956-38.909-27.198-49.106-48.538
	l177.711-178.384c2.833-2.843,2.833-7.441,0-10.285L24.436,72.473c10.197-21.339,27.632-38.581,49.106-48.537l177.296,177.967
	c1.368,1.373,3.225,2.144,5.162,2.144c1.937,0,3.795-0.771,5.162-2.144L438.458,23.936c21.475,9.956,38.909,27.198,49.106,48.537
	l-27.926,28.032c-2.84,2.851-2.831,7.464,0.019,10.305c1.422,1.416,3.282,2.124,5.143,2.124c1.869,0,3.739-0.715,5.162-2.144
	l23.321-23.41c2.692,9.111,4.143,18.748,4.143,28.719v279.803c0,9.972-1.452,19.608-4.143,28.719L325.3,256l117.102-117.546
	c2.84-2.851,2.831-7.464-0.02-10.305c-2.851-2.84-7.464-2.831-10.305,0.02L309.853,250.858c-2.832,2.843-2.832,7.441,0,10.285
	l177.711,178.384C477.367,460.866,459.934,478.108,438.458,488.065z"/>
<g>
</g>
<g>
</g>
<g>
</g>
<g>
</g>
<g>
</g>
<g>
</g>
<g>
</g>
<g>
</g>
<g>
</g>
<g>
</g>
<g>
</g>
<g>
</g>
<g>
</g>
<g>
</g>
<g>
</g>
</svg>
