<?xml version="1.0" encoding="iso-8859-1"?>
<!-- Generator: Adobe Illustrator 19.0.0, SVG Export Plug-In . SVG Version: 6.00 Build 0)  -->
<svg version="1.1" id="Layer_1" xmlns="http://www.w3.org/2000/svg" xmlns:xlink="http://www.w3.org/1999/xlink" x="0px" y="0px"
	 viewBox="0 0 512 512" style="enable-background:new 0 0 512 512;" xml:space="preserve">
<path style="fill:#259245;" d="M7.286,395.901c0,60.095,48.717,108.812,108.812,108.812h279.803
	c60.095,0,108.812-48.717,108.812-108.812V256H7.286V395.901z"/>
<path style="fill:#FFFFFF;" d="M395.901,7.286H116.099C56.003,7.286,7.286,56.004,7.286,116.099V256h497.427V116.099
	C504.714,56.004,455.997,7.286,395.901,7.286z"/>
<path d="M395.901,0H116.099C52.082,0,0,52.082,0,116.099v279.803C0,459.918,52.082,512,116.099,512h279.803
	C459.918,512,512,459.918,512,395.901V116.099C512,52.082,459.918,0,395.901,0z M395.901,497.427H116.099
	c-55.982,0-101.526-45.545-101.526-101.526V263.286h25.875c4.024,0,7.286-3.262,7.286-7.286c0-4.025-3.262-7.286-7.286-7.286H14.573
	V116.099c0-55.981,45.544-101.526,101.526-101.526h279.803c55.981,0,101.526,45.544,101.526,101.526v132.615H73.61
	c-4.024,0-7.287,3.262-7.287,7.286c0,4.025,3.262,7.286,7.287,7.286h423.817v132.615
	C497.427,451.882,451.882,497.427,395.901,497.427z"/>
<path style="fill:#ED1F34;" d="M326.106,233.663h-37.958v-21.667l99.77-45.833H266.04c-18.318,0-33.167,14.85-33.167,33.167v34.333
	h-28.645l-11.054-73.448h-38.14v140.948h204.239V266.83C359.273,248.513,344.423,233.663,326.106,233.663z"/>
<path d="M395.036,164.606c-0.732-3.345-3.694-5.73-7.119-5.73H266.04c-22.306,0-40.453,18.147-40.453,40.454v27.046H210.5
	l-10.12-67.247c-0.536-3.566-3.6-6.202-7.205-6.202h-38.14h-30.951c-4.024,0-7.286,3.262-7.286,7.286
	c0,4.025,3.262,7.286,7.286,7.286h23.665v18.588h-23.665c-4.024,0-7.286,3.262-7.286,7.286s3.262,7.286,7.286,7.286h23.665v100.5
	v43.337h-19.352c-4.024,0-7.286,3.262-7.286,7.286c0,4.025,3.262,7.286,7.286,7.286h37.693c4.024,0,7.286-3.262,7.286-7.286
	c0-4.025-3.262-7.286-7.286-7.286h-3.768v-36.05h118.681v36.05H261.65c-4.025,0-7.287,3.262-7.287,7.286
	c0,4.025,3.262,7.286,7.287,7.286h37.693c4.025,0,7.286-3.262,7.286-7.286c0-4.025-3.262-7.286-7.286-7.286h-3.767v-36.05h56.412
	v36.05h-19.352c-4.025,0-7.287,3.262-7.287,7.286c0,4.025,3.262,7.286,7.287,7.286h37.693c4.025,0,7.287-3.262,7.287-7.286
	c0-4.025-3.262-7.286-7.287-7.286h-3.768v-43.337V266.83c0-22.307-18.147-40.454-40.454-40.454h-30.671v-9.71l95.525-43.882
	C394.071,171.355,395.768,167.952,395.036,164.606z M285.106,205.375c-2.587,1.189-4.245,3.774-4.245,6.621v21.667v23.853
	c0,4.025,3.262,7.287,7.286,7.287c4.025,0,7.286-3.262,7.286-7.287V240.95h30.671c14.27,0,25.881,11.61,25.881,25.88v27.046H162.32
	V167.501h24.582l10.12,67.247c0.536,3.565,3.6,6.202,7.205,6.202h28.645c4.024,0,7.286-3.262,7.286-7.287V199.33
	c0-14.27,11.61-25.88,25.88-25.88H354.6L285.106,205.375z"/>
<g>
</g>
<g>
</g>
<g>
</g>
<g>
</g>
<g>
</g>
<g>
</g>
<g>
</g>
<g>
</g>
<g>
</g>
<g>
</g>
<g>
</g>
<g>
</g>
<g>
</g>
<g>
</g>
<g>
</g>
</svg>
