<?xml version="1.0" encoding="iso-8859-1"?>
<!-- Generator: Adobe Illustrator 19.0.0, SVG Export Plug-In . SVG Version: 6.00 Build 0)  -->
<svg version="1.1" id="Layer_1" xmlns="http://www.w3.org/2000/svg" xmlns:xlink="http://www.w3.org/1999/xlink" x="0px" y="0px"
	 viewBox="0 0 512 512" style="enable-background:new 0 0 512 512;" xml:space="preserve">
<path style="fill:#103B9B;" d="M395.901,7.287H116.099C56.003,7.287,7.286,56.003,7.286,116.099v279.803
	c0,60.095,48.717,108.812,108.812,108.812h279.803c60.095,0,108.812-48.717,108.812-108.812V116.099
	C504.714,56.003,455.997,7.287,395.901,7.287z"/>
<path style="fill:#FFFFFF;" d="M501.781,90.926c-9.445-39.877-40.83-71.262-80.708-80.707L256,175.293L90.926,10.219
	c-39.877,9.445-71.262,40.83-80.708,80.707L175.293,256L10.219,421.074c9.445,39.877,40.83,71.262,80.707,80.707L256,336.707
	l165.074,165.074c39.877-9.445,71.262-40.83,80.707-80.707L336.707,256L501.781,90.926z"/>
<path style="fill:#ED1F34;" d="M472.843,39.157c-9.122-9.122-19.859-16.628-31.742-22.062L229.11,229.109L39.157,39.157
	C30.024,48.29,22.51,59.041,17.075,70.941l211.737,212.247L39.157,472.843c9.123,9.122,19.859,16.629,31.742,22.063l212.003-212.003
	l189.941,189.941c8.926-8.926,16.301-19.399,21.705-30.977L282.592,229.408L472.843,39.157z"/>
<path d="M70.897,502.192c-1.025,0-2.057-0.216-3.028-0.66c-12.627-5.774-24.021-13.693-33.865-23.537
	c-1.366-1.366-2.134-3.22-2.134-5.152s0.768-3.786,2.134-5.152l184.51-184.509L11.917,76.087c-2.146-2.151-2.732-5.409-1.47-8.174
	c5.776-12.644,13.701-24.053,23.557-33.909c1.367-1.367,3.22-2.134,5.153-2.134s3.786,0.767,5.153,2.134l184.801,184.8
	L435.949,11.943c2.153-2.152,5.417-2.741,8.183-1.474c12.627,5.774,24.021,13.693,33.864,23.536c1.366,1.366,2.134,3.22,2.134,5.153
	c0,1.932-0.768,3.786-2.134,5.152L292.891,229.414L499.707,436.72c2.162,2.167,2.739,5.454,1.444,8.228
	c-5.745,12.308-13.535,23.427-23.155,33.047c-1.366,1.366-3.22,2.134-5.153,2.134c-1.933,0-3.786-0.767-5.153-2.134L282.902,293.207
	L76.052,500.058C74.656,501.454,72.79,502.192,70.897,502.192z M49.644,472.661c6.05,5.247,12.667,9.738,19.775,13.42L277.75,277.75
	c2.845-2.845,7.458-2.846,10.305,0L472.66,462.355c5.062-5.839,9.425-12.212,13.035-19.046L277.434,234.554
	c-2.84-2.846-2.837-7.455,0.006-10.299L462.356,39.339c-6.048-5.246-12.668-9.738-19.774-13.42L234.263,234.261
	c-1.366,1.367-3.22,2.135-5.153,2.135s-3.786-0.768-5.153-2.134L39.339,49.644c-5.258,6.063-9.758,12.697-13.444,19.821
	l208.076,208.577c2.84,2.847,2.837,7.455-0.006,10.298L49.644,472.661z"/>
<polygon style="fill:#FFFFFF;" points="504.714,188.847 300.768,188.847 300.768,7.287 211.232,7.287 211.232,188.847 
	7.286,188.847 7.286,323.153 211.232,323.153 211.232,504.714 300.768,504.714 300.768,323.153 504.714,323.153 "/>
<polygon style="fill:#ED1F34;" points="504.714,231.958 280.042,231.958 280.042,7.287 231.958,7.287 231.958,231.958 
	7.286,231.958 7.286,280.042 231.958,280.042 231.958,504.714 280.042,504.714 280.042,280.042 504.714,280.042 "/>
<path d="M395.901,0H116.099C52.082,0,0,52.082,0,116.099v279.803C0,459.918,52.082,512,116.099,512h279.803
	C459.918,512,512,459.918,512,395.901V116.099C512,52.082,459.918,0,395.901,0z M497.427,116.099v108.573H287.329V14.573h108.572
	C451.882,14.573,497.427,60.117,497.427,116.099z M116.099,14.573h108.572v210.098H14.573V116.099
	C14.573,60.117,60.118,14.573,116.099,14.573z M14.573,395.901V287.329h210.098v210.098H116.099
	C60.118,497.427,14.573,451.883,14.573,395.901z M395.901,497.427H287.329V287.329H438.39c4.025,0,7.287-3.262,7.287-7.286
	s-3.262-7.286-7.287-7.286H280.043c-4.025,0-7.286,3.262-7.286,7.286v217.385h-33.512V280.042c0-4.024-3.262-7.286-7.286-7.286
	H14.573v-33.511h217.384c4.025,0,7.286-3.262,7.286-7.286V14.573h33.512v217.385c0,4.024,3.262,7.286,7.286,7.286h217.384v33.511
	h-25.876c-4.025,0-7.286,3.262-7.286,7.286s3.262,7.286,7.286,7.286h25.876V395.9C497.427,451.883,451.882,497.427,395.901,497.427z
	"/>
<g>
</g>
<g>
</g>
<g>
</g>
<g>
</g>
<g>
</g>
<g>
</g>
<g>
</g>
<g>
</g>
<g>
</g>
<g>
</g>
<g>
</g>
<g>
</g>
<g>
</g>
<g>
</g>
<g>
</g>
</svg>
