<?xml version="1.0" encoding="iso-8859-1"?>
<!-- Generator: Adobe Illustrator 19.0.0, SVG Export Plug-In . SVG Version: 6.00 Build 0)  -->
<svg version="1.1" id="Layer_1" xmlns="http://www.w3.org/2000/svg" xmlns:xlink="http://www.w3.org/1999/xlink" x="0px" y="0px"
	 viewBox="0 0 512 512" style="enable-background:new 0 0 512 512;" xml:space="preserve">
<path style="fill:#ED1F34;" d="M395.901,7.286H116.099C56.003,7.286,7.286,56.004,7.286,116.099v279.803
	c0,60.095,48.717,108.812,108.812,108.812h279.803c60.095,0,108.812-48.717,108.812-108.812V116.099
	C504.713,56.004,455.997,7.286,395.901,7.286z"/>
<rect x="62.56" y="62.56" style="fill:#FFE000;" width="386.89" height="386.89"/>
<g>
	<polygon style="fill:#259245;" points="62.556,62.556 62.556,449.444 256,256 	"/>
	<polygon style="fill:#259245;" points="256,256 449.444,449.444 449.444,62.556 	"/>
</g>
<path d="M395.901,512H116.099C52.082,512,0,459.918,0,395.901V116.099C0,52.082,52.082,0,116.099,0h279.803
	C459.918,0,512,52.082,512,116.099v279.803C512,459.918,459.918,512,395.901,512z M116.099,14.573
	c-55.981,0-101.526,45.544-101.526,101.526v279.803c0,55.981,45.544,101.526,101.526,101.526h279.803
	c55.982,0,101.526-45.545,101.526-101.526V116.099c0-55.981-45.544-101.526-101.526-101.526
	C395.902,14.573,116.099,14.573,116.099,14.573z"/>
<circle style="fill:#ED1F34;" cx="256" cy="256" r="57.2"/>
<g>
	<path style="fill:#FFE000;" d="M256,285.332c-16.173,0-29.332-13.157-29.332-29.332s13.159-29.332,29.332-29.332
		s29.332,13.157,29.332,29.332S272.173,285.332,256,285.332z"/>
	<path style="fill:#FFE000;" d="M120.909,216.206C106.375,223.57,96.366,238.622,96.366,256s10.008,32.43,24.542,39.794
		c14.534-7.365,24.542-22.416,24.542-39.794S135.443,223.57,120.909,216.206z"/>
</g>
<path d="M449.444,456.731H62.556c-4.024,0-7.287-3.262-7.287-7.287V62.556c0-4.025,3.262-7.287,7.287-7.287h386.888
	c4.024,0,7.287,3.262,7.287,7.287v386.888C456.731,453.469,453.468,456.731,449.444,456.731z M69.842,442.158h372.315V69.842H69.842
	V442.158z"/>
<g>
	<circle style="fill:#FFE000;" cx="156.51" cy="35.24" r="8.29"/>
	<circle style="fill:#FFE000;" cx="256" cy="35.24" r="8.29"/>
	<circle style="fill:#FFE000;" cx="355.49" cy="35.24" r="8.29"/>
	<circle style="fill:#FFE000;" cx="156.51" cy="475.78" r="8.29"/>
	<circle style="fill:#FFE000;" cx="256" cy="475.78" r="8.29"/>
	<circle style="fill:#FFE000;" cx="355.49" cy="475.78" r="8.29"/>
</g>
<g>
</g>
<g>
</g>
<g>
</g>
<g>
</g>
<g>
</g>
<g>
</g>
<g>
</g>
<g>
</g>
<g>
</g>
<g>
</g>
<g>
</g>
<g>
</g>
<g>
</g>
<g>
</g>
<g>
</g>
</svg>
