<?xml version="1.0" encoding="iso-8859-1"?>
<!-- Generator: Adobe Illustrator 19.0.0, SVG Export Plug-In . SVG Version: 6.00 Build 0)  -->
<svg version="1.1" id="Layer_1" xmlns="http://www.w3.org/2000/svg" xmlns:xlink="http://www.w3.org/1999/xlink" x="0px" y="0px"
	 viewBox="0 0 512 512" style="enable-background:new 0 0 512 512;" xml:space="preserve">
<g>
	<rect x="7.286" y="7.287" style="fill:#FFFFFF;" width="497.43" height="497.43"/>
	<path style="fill:#FFFFFF;" d="M395.901,7.286H116.099C56.003,7.286,7.286,56.004,7.286,116.099v279.803
		c0,60.095,48.717,108.812,108.812,108.812h279.803c60.095,0,108.812-48.717,108.812-108.812V116.099
		C504.714,56.004,455.997,7.286,395.901,7.286z"/>
</g>
<polygon style="fill:#ED1F34;" points="504.714,195.065 316.936,195.065 316.936,7.286 195.066,7.286 195.066,195.065 
	7.286,195.065 7.286,316.935 195.066,316.935 195.066,504.713 316.936,504.713 316.936,316.935 504.714,316.935 "/>
<path d="M395.901,0H116.099C52.082,0,0,52.082,0,116.099v279.803C0,459.918,52.082,512,116.099,512h279.803
	C459.918,512,512,459.918,512,395.901V116.099C512,52.082,459.918,0,395.901,0z M497.427,116.099v71.68H324.222V14.573h71.679
	C451.882,14.573,497.427,60.117,497.427,116.099z M116.099,14.573h71.681v173.205H14.573v-71.68
	C14.573,60.117,60.118,14.573,116.099,14.573z M14.573,395.901v-71.68H187.78v173.206h-71.681
	C60.118,497.427,14.573,451.883,14.573,395.901z M395.901,497.427h-71.679V324.221h102.769c4.025,0,7.286-3.262,7.286-7.287
	s-3.262-7.286-7.286-7.286H316.935c-4.025,0-7.286,3.262-7.286,7.286v180.492H202.353V316.935c0-4.024-3.262-7.286-7.286-7.286
	H14.573V202.352h180.493c4.025,0,7.286-3.262,7.286-7.286V14.573h107.296v180.492c0,4.024,3.262,7.286,7.286,7.286h180.491v107.297
	h-38.376c-4.025,0-7.286,3.262-7.286,7.286s3.262,7.287,7.286,7.287h38.376v71.68C497.427,451.883,451.882,497.427,395.901,497.427z
	"/>
<path style="fill:#FFE000;" d="M405.228,242.081c-3.804,0-6.922,2.915-7.254,6.632H263.286V114.025
	c3.718-0.331,6.633-3.45,6.633-7.254c0-4.024-3.262-7.286-7.287-7.286h-13.266c-4.025,0-7.287,3.262-7.287,7.286
	c0,3.804,2.915,6.923,6.633,7.254v134.688H114.026c-0.331-3.717-3.45-6.632-7.254-6.632c-4.025,0-7.286,3.262-7.286,7.286v13.265
	c0,4.024,3.262,7.287,7.286,7.287c3.804,0,6.922-2.915,7.254-6.632h134.688v134.688c-3.718,0.331-6.633,3.45-6.633,7.254
	c0,4.024,3.262,7.286,7.287,7.286h13.266c4.025,0,7.287-3.262,7.287-7.286c0-3.804-2.915-6.923-6.633-7.254V263.286h134.688
	c0.331,3.717,3.45,6.632,7.254,6.632c4.025,0,7.286-3.262,7.286-7.287v-13.265C412.514,245.344,409.252,242.081,405.228,242.081z"/>
<g>
</g>
<g>
</g>
<g>
</g>
<g>
</g>
<g>
</g>
<g>
</g>
<g>
</g>
<g>
</g>
<g>
</g>
<g>
</g>
<g>
</g>
<g>
</g>
<g>
</g>
<g>
</g>
<g>
</g>
</svg>
