<?xml version="1.0" encoding="iso-8859-1"?>
<!-- Generator: Adobe Illustrator 19.0.0, SVG Export Plug-In . SVG Version: 6.00 Build 0)  -->
<svg version="1.1" id="Layer_1" xmlns="http://www.w3.org/2000/svg" xmlns:xlink="http://www.w3.org/1999/xlink" x="0px" y="0px"
	 viewBox="0 0 512 512" style="enable-background:new 0 0 512 512;" xml:space="preserve">
<rect x="7.286" y="173.1" style="fill:#FFE000;" width="497.43" height="165.81"/>
<polygon style="fill:#333333;" points="200.211,243.475 241.288,241.352 256,202.941 270.712,241.352 311.789,243.475 
	279.805,269.336 290.48,309.059 256,286.631 221.52,309.059 232.195,269.336 "/>
<path style="fill:#259245;" d="M7.286,395.901c0,60.095,48.717,108.812,108.812,108.812h279.803
	c60.095,0,108.812-48.717,108.812-108.812v-56.997H7.286V395.901z"/>
<path style="fill:#ED1F34;" d="M395.901,7.286H116.099C56.003,7.286,7.286,56.004,7.286,116.099v56.997h497.427v-56.997
	C504.714,56.004,455.997,7.286,395.901,7.286z"/>
<path d="M312.166,236.197l-36.344-1.878l-13.017-33.985c-1.08-2.819-3.786-4.68-6.805-4.68s-5.725,1.861-6.805,4.68l-13.017,33.985
	l-36.344,1.878c-3.014,0.156-5.621,2.155-6.554,5.026s0.001,6.02,2.349,7.917l28.299,22.881l-9.445,35.146
	c-0.783,2.915,0.312,6.011,2.754,7.786c2.442,1.775,5.725,1.86,8.256,0.214L256,295.323l30.507,19.844
	c1.21,0.788,2.592,1.178,3.973,1.178c1.506,0,3.009-0.466,4.283-1.392c2.442-1.774,3.538-4.871,2.754-7.786l-9.445-35.146
	l28.299-22.881c2.348-1.897,3.282-5.046,2.349-7.917C317.786,238.352,315.18,236.353,312.166,236.197z M275.223,263.67
	c-2.241,1.812-3.203,4.774-2.456,7.557l5.738,21.351l-18.532-12.055c-1.208-0.786-2.59-1.178-3.973-1.178
	c-1.383,0-2.765,0.393-3.973,1.178l-18.532,12.055l5.738-21.351c0.748-2.783-0.215-5.745-2.456-7.557l-17.191-13.9l22.079-1.14
	c2.878-0.149,5.398-1.98,6.428-4.671L256,223.313l7.908,20.645c1.031,2.691,3.551,4.522,6.428,4.671l22.079,1.14L275.223,263.67z"/>
<path d="M395.901,0H116.099C52.082,0,0,52.082,0,116.099v279.803C0,459.918,52.082,512,116.099,512h279.803
	C459.918,512,512,459.918,512,395.901V116.099C512,52.082,459.918,0,395.901,0z M116.099,14.573h279.803
	c55.981,0,101.526,45.544,101.526,101.526v49.711H14.573v-49.711C14.573,60.118,60.117,14.573,116.099,14.573z M395.901,497.427
	H116.099c-55.982,0-101.526-45.545-101.526-101.526V346.19H438.39c4.024,0,7.287-3.262,7.287-7.286c0-4.025-3.262-7.287-7.287-7.287
	H14.573V180.382h482.854v151.235h-25.875c-4.024,0-7.286,3.262-7.286,7.287s3.262,7.286,7.286,7.286h25.875v49.711
	C497.427,451.882,451.883,497.427,395.901,497.427z"/>
<g>
</g>
<g>
</g>
<g>
</g>
<g>
</g>
<g>
</g>
<g>
</g>
<g>
</g>
<g>
</g>
<g>
</g>
<g>
</g>
<g>
</g>
<g>
</g>
<g>
</g>
<g>
</g>
<g>
</g>
</svg>
