<?xml version="1.0" encoding="iso-8859-1"?>
<!-- Generator: Adobe Illustrator 19.0.0, SVG Export Plug-In . SVG Version: 6.00 Build 0)  -->
<svg version="1.1" id="Layer_1" xmlns="http://www.w3.org/2000/svg" xmlns:xlink="http://www.w3.org/1999/xlink" x="0px" y="0px"
	 viewBox="0 0 512 512" style="enable-background:new 0 0 512 512;" xml:space="preserve">
<path style="fill:#FFFFFF;" d="M395.901,7.286H116.099C56.003,7.286,7.286,56.004,7.286,116.099v222.806h497.427V116.099
	C504.714,56.004,455.997,7.286,395.901,7.286z"/>
<g>
	<path style="fill:#ED1F34;" d="M7.286,395.901c0,60.095,48.717,108.812,108.812,108.812h279.803
		c60.095,0,108.812-48.717,108.812-108.812v-56.997H7.286V395.901z"/>
	<polygon style="fill:#ED1F34;" points="380.715,189.676 380.715,113.29 329.315,113.29 329.315,189.676 287.504,189.676 
		287.504,73.61 224.496,73.61 224.496,189.676 182.685,189.676 182.685,113.29 131.285,113.29 131.285,189.676 114.704,189.676 
		114.704,289.162 397.296,289.162 397.296,189.676 	"/>
</g>
<path d="M91.491,296.448H420.51c4.025,0,7.286-3.262,7.286-7.286s-3.262-7.287-7.286-7.287h-15.927v-85.293
	c2.89-0.967,4.974-3.691,4.974-6.906c0-4.024-3.262-7.287-7.286-7.287h-14.268v-69.1c0-4.024-3.262-7.286-7.286-7.286h-51.4
	c-4.025,0-7.286,3.262-7.286,7.286v69.1H294.79V73.61c0-4.024-3.262-7.287-7.286-7.287h-63.008c-4.024,0-7.286,3.262-7.286,7.287
	v108.78h-27.238v-69.1c0-4.024-3.262-7.286-7.286-7.286h-51.401c-4.024,0-7.287,3.262-7.287,7.286v69.1H109.73
	c-4.024,0-7.286,3.262-7.286,7.287c0,3.215,2.085,5.938,4.974,6.906v85.293H91.491c-4.024,0-7.286,3.262-7.286,7.287
	S87.466,296.448,91.491,296.448z M121.99,196.963h9.295c4.024,0,7.287-3.262,7.287-7.286v-69.1H175.4v69.1
	c0,4.024,3.262,7.286,7.286,7.286h41.811c4.024,0,7.286-3.262,7.286-7.286V80.897h48.435v108.78c0,4.024,3.262,7.286,7.287,7.286
	h41.811c4.025,0,7.286-3.262,7.286-7.286v-69.1h36.827v69.1c0,4.024,3.262,7.286,7.287,7.286h9.294v84.912H263.286v-42.456
	c0-4.024-3.262-7.286-7.286-7.286c-4.024,0-7.286,3.262-7.286,7.286v42.456H121.99V196.963z"/>
<path d="M395.901,0H116.099C52.082,0,0,52.082,0,116.099v279.803C0,459.918,52.082,512,116.099,512h279.803
	C459.918,512,512,459.918,512,395.901V116.099C512,52.082,459.918,0,395.901,0z M395.901,497.427H116.099
	c-55.982,0-101.526-45.544-101.526-101.526v-49.71h25.875c4.024,0,7.286-3.262,7.286-7.287c0-4.024-3.262-7.286-7.286-7.286H14.573
	V116.099c0-55.982,45.544-101.526,101.526-101.526h279.803c55.981,0,101.526,45.544,101.526,101.526v215.519H73.61
	c-4.024,0-7.287,3.262-7.287,7.286c0,4.024,3.262,7.287,7.287,7.287h423.817v49.71C497.427,451.883,451.882,497.427,395.901,497.427
	z"/>
<path style="fill:#FFE000;" d="M297.919,332.854l-32.389-21.733l18.452-34.556c1.896-3.55,0.554-7.964-2.995-9.859
	c-3.555-1.898-7.965-0.554-9.861,2.995l-15.128,28.33l-15.127-28.33c-1.896-3.55-6.31-4.893-9.86-2.995
	c-3.55,1.895-4.891,6.31-2.995,9.859l18.451,34.556l-32.388,21.732c-2.017,1.353-3.227,3.622-3.227,6.051s1.21,4.697,3.227,6.051
	l34.632,23.238v46.329h-14.268c-4.024,0-7.287,3.262-7.287,7.286s3.262,7.287,7.287,7.287h14.268v18.589h-14.268
	c-4.024,0-7.287,3.262-7.287,7.286s3.262,7.286,7.287,7.286h21.554c4.024,0,7.287-3.262,7.287-7.286v-86.777l34.633-23.238
	c2.017-1.353,3.227-3.622,3.227-6.051C301.146,336.476,299.936,334.207,297.919,332.854z M255.999,355.533l-24.782-16.628
	l24.782-16.629l24.782,16.629L255.999,355.533z"/>
<g>
</g>
<g>
</g>
<g>
</g>
<g>
</g>
<g>
</g>
<g>
</g>
<g>
</g>
<g>
</g>
<g>
</g>
<g>
</g>
<g>
</g>
<g>
</g>
<g>
</g>
<g>
</g>
<g>
</g>
</svg>
