<?xml version="1.0" encoding="iso-8859-1"?>
<!-- Generator: Adobe Illustrator 19.0.0, SVG Export Plug-In . SVG Version: 6.00 Build 0)  -->
<svg version="1.1" id="Layer_1" xmlns="http://www.w3.org/2000/svg" xmlns:xlink="http://www.w3.org/1999/xlink" x="0px" y="0px"
	 viewBox="0 0 512 512" style="enable-background:new 0 0 512 512;" xml:space="preserve">
<path style="fill:#ED1F34;" d="M7.286,395.901c0,60.095,48.717,108.812,108.812,108.812h279.803
	c60.095,0,108.812-48.717,108.812-108.812V256H7.286V395.901z"/>
<path style="fill:#FFFFFF;" d="M395.901,7.286H116.099C56.003,7.286,7.286,56.004,7.286,116.099V256h497.427V116.099
	C504.714,56.004,455.997,7.286,395.901,7.286z"/>
<path d="M395.901,0H116.099C52.082,0,0,52.082,0,116.099v279.803C0,459.918,52.082,512,116.099,512h279.803
	C459.918,512,512,459.918,512,395.901V116.099C512,52.082,459.918,0,395.901,0z M395.901,497.427H116.099
	c-55.982,0-101.526-45.544-101.526-101.526V263.286h423.265c4.025,0,7.286-3.262,7.286-7.286s-3.262-7.286-7.286-7.286H14.573
	V116.099c0-55.982,45.544-101.526,101.526-101.526h279.803c55.981,0,101.526,45.544,101.526,101.526v132.615H471
	c-4.025,0-7.287,3.262-7.287,7.286c0,4.024,3.262,7.286,7.287,7.286h26.428v132.615
	C497.427,451.883,451.882,497.427,395.901,497.427z"/>
<path style="fill:#FFFFFF;" d="M327.56,256c0,68.68-55.676,124.357-124.357,124.357c-68.68,0-124.357-55.676-124.357-124.357H327.56
	z"/>
<path style="fill:#ED1F34;" d="M203.203,131.643c68.68,0,124.357,55.676,124.357,124.357H78.846
	C78.846,187.32,134.523,131.643,203.203,131.643z"/>
<path d="M203.203,387.643c-25.922,0-51.022-7.549-72.587-21.831c-3.355-2.222-4.274-6.743-2.052-10.098
	c2.222-3.356,6.743-4.274,10.098-2.052c19.171,12.697,41.489,19.408,64.54,19.408c64.553,0,117.07-52.517,117.07-117.07
	s-52.517-117.07-117.07-117.07S86.132,191.448,86.132,256c0,23.052,6.711,45.369,19.408,64.54c2.222,3.355,1.304,7.876-2.052,10.098
	c-3.355,2.223-7.876,1.304-10.098-2.052C79.109,307.023,71.56,281.923,71.56,256c0-72.588,59.055-131.643,131.643-131.643
	S334.846,183.412,334.846,256S275.791,387.643,203.203,387.643z"/>
<g>
</g>
<g>
</g>
<g>
</g>
<g>
</g>
<g>
</g>
<g>
</g>
<g>
</g>
<g>
</g>
<g>
</g>
<g>
</g>
<g>
</g>
<g>
</g>
<g>
</g>
<g>
</g>
<g>
</g>
</svg>
