<?xml version="1.0" encoding="iso-8859-1"?>
<!-- Generator: Adobe Illustrator 19.0.0, SVG Export Plug-In . SVG Version: 6.00 Build 0)  -->
<svg version="1.1" id="Layer_1" xmlns="http://www.w3.org/2000/svg" xmlns:xlink="http://www.w3.org/1999/xlink" x="0px" y="0px"
	 viewBox="0 0 512 512" style="enable-background:new 0 0 512 512;" xml:space="preserve">
<rect x="7.286" y="173.1" style="fill:#FFFFFF;" width="497.43" height="165.81"/>
<path style="fill:#ED1F34;" d="M7.286,395.901c0,60.095,48.717,108.812,108.812,108.812h279.803
	c60.095,0,108.812-48.717,108.812-108.812v-56.997H7.286V395.901z"/>
<path style="fill:#259245;" d="M395.901,7.286H116.099C56.003,7.286,7.286,56.004,7.286,116.099v56.997h497.427v-56.997
	C504.713,56.004,455.997,7.286,395.901,7.286z"/>
<path style="fill:#164FCE;" d="M33.001,45.859C16.963,64.814,7.286,89.325,7.286,116.099v279.803
	c0,26.774,9.676,51.285,25.715,70.24L173.095,256L33.001,45.859z"/>
<path d="M395.901,0H116.099C80.901,0,49.315,15.748,28.006,40.564c-0.421,0.396-0.793,0.831-1.101,1.301
	C10.116,62.003,0,87.89,0,116.099v279.803c0,28.209,10.116,54.096,26.906,74.234c0.308,0.471,0.679,0.904,1.1,1.301
	C49.315,496.252,80.901,512,116.099,512h279.803C459.918,512,512,459.918,512,395.901V116.099C512,52.082,459.918,0,395.901,0z
	 M179.158,251.958l-47.717-71.576h365.986v151.235H131.441l47.717-71.576C180.79,257.594,180.79,254.406,179.158,251.958z
	 M116.099,14.573h279.803c55.982,0,101.526,45.544,101.526,101.526v49.711H121.725L42.215,46.544
	C60.742,26.874,87.009,14.573,116.099,14.573z M14.573,116.099c0-21.415,6.671-41.298,18.035-57.694l79.168,118.752
	c0.005,0.007,0.01,0.014,0.015,0.022L164.338,256l-52.547,78.821c-0.005,0.008-0.01,0.015-0.015,0.022L32.608,453.595
	c-11.364-16.395-18.035-36.279-18.035-57.694C14.573,395.901,14.573,116.099,14.573,116.099z M395.901,497.427H116.099
	c-29.089,0-55.357-12.302-73.884-31.971l79.511-119.266h375.702v49.711C497.427,451.882,451.883,497.427,395.901,497.427z"/>
<path d="M321.91,287.997c0.5,0.107,1.009,0.16,1.518,0.16s1.018-0.053,1.518-0.16c10.149-2.162,27.324-10.387,27.324-27.499v-29.369
	c0-4.025-3.262-7.286-7.287-7.286h-43.111c-4.024,0-7.286,3.262-7.286,7.286v29.369C294.587,277.61,311.762,285.835,321.91,287.997z
	 M309.16,238.416h28.538v22.083c0,7.712-10.325,11.615-14.29,12.828c-3.972-1.193-14.248-5.033-14.248-12.828V238.416z"/>
<g>
</g>
<g>
</g>
<g>
</g>
<g>
</g>
<g>
</g>
<g>
</g>
<g>
</g>
<g>
</g>
<g>
</g>
<g>
</g>
<g>
</g>
<g>
</g>
<g>
</g>
<g>
</g>
<g>
</g>
</svg>
