<?xml version="1.0" encoding="iso-8859-1"?>
<!-- Generator: Adobe Illustrator 19.0.0, SVG Export Plug-In . SVG Version: 6.00 Build 0)  -->
<svg version="1.1" id="Layer_1" xmlns="http://www.w3.org/2000/svg" xmlns:xlink="http://www.w3.org/1999/xlink" x="0px" y="0px"
	 viewBox="0 0 512 512" style="enable-background:new 0 0 512 512;" xml:space="preserve">
<path style="fill:#FFFFFF;" d="M395.901,7.286H116.099C56.003,7.286,7.286,56.003,7.286,116.099v279.803
	c0,60.095,48.717,108.812,108.812,108.812h279.803c60.095,0,108.812-48.717,108.812-108.812V116.099
	C504.714,56.003,455.997,7.286,395.901,7.286z"/>
<g>
	<rect x="7.286" y="338.9" style="fill:#3DB4EA;" width="497.43" height="55.26"/>
	<path style="fill:#3DB4EA;" d="M116.099,504.714h279.803c40.628,0,76.05-22.27,94.739-55.264H21.36
		C40.049,482.444,75.471,504.714,116.099,504.714z"/>
	<path style="fill:#3DB4EA;" d="M283.818,62.551H490.64c-18.689-32.995-54.111-55.264-94.739-55.264H116.099
		C56.003,7.286,7.286,56.003,7.286,116.099V283.64h497.427v-55.28H283.818v-55.264h220.895v-55.264H283.818V62.551z"/>
</g>
<polygon style="fill:#FFFFFF;" points="283.64,117.831 173.096,117.831 173.096,7.286 117.831,7.286 117.831,117.831 7.286,117.831 
	7.286,173.096 117.831,173.096 117.831,283.64 173.096,283.64 173.096,173.096 283.64,173.096 "/>
<path d="M497.339,59.682c-0.198-0.462-0.445-0.897-0.73-1.304C476.553,23.521,438.922,0,395.901,0H116.099
	C52.082,0,0,52.082,0,116.099v279.803c0,20.464,5.329,39.703,14.661,56.416c0.198,0.462,0.445,0.897,0.73,1.304
	C35.447,488.479,73.078,512,116.099,512h279.803c43.021,0,80.651-23.521,100.708-58.379c0.285-0.407,0.532-0.842,0.73-1.304
	c9.331-16.713,14.66-35.952,14.66-56.416V116.099C512,95.635,506.671,76.396,497.339,59.682z M338.905,386.882
	c-4.024,0-7.286,3.262-7.286,7.286s3.262,7.286,7.286,7.286h158.369c-0.791,14.595-4.676,28.38-11.013,40.708H25.739
	c-6.337-12.328-10.222-26.113-11.013-40.708h291.016c4.024,0,7.286-3.262,7.286-7.286s-3.262-7.286-7.286-7.286H14.573v-40.691
	h357.493c4.024,0,7.286-3.262,7.286-7.287c0-4.024-3.262-7.286-7.286-7.286H14.573v-40.691h482.854v40.691h-92.199
	c-4.024,0-7.286,3.262-7.286,7.286c0,4.024,3.262,7.287,7.286,7.287h92.199v40.691H338.905z M117.831,125.118
	c4.024,0,7.286-3.262,7.286-7.286V14.573h40.691v103.258c0,4.024,3.262,7.286,7.287,7.286h18.417c0.003,0,0.006,0.001,0.009,0.001
	h84.832v40.691h-84.832h-18.427c-4.024,0-7.287,3.262-7.287,7.287v103.259h-40.691v-103.26c0-4.024-3.262-7.287-7.286-7.287H14.573
	v-40.691L117.831,125.118L117.831,125.118z M497.273,110.545H290.927V69.837h195.334C492.598,82.165,496.482,95.95,497.273,110.545z
	 M191.522,180.382h84.832v47.978c0,4.024,3.262,7.286,7.287,7.286c0.194,0,0.385-0.014,0.575-0.029
	c0.19,0.015,0.381,0.029,0.575,0.029h212.637v40.708H180.382v-95.972H191.522z M290.927,221.073v-40.691h206.5v40.691H290.927z
	 M290.927,165.809v-40.691h206.5v40.691H290.927z M14.573,276.354v-95.972h95.972v95.972H14.573z M477.132,55.264H284.79
	c-0.194,0-0.384,0.014-0.575,0.029c-0.19-0.015-0.381-0.029-0.575-0.029c-4.024,0-7.287,3.262-7.287,7.287v47.994h-95.972V14.573
	H395.9C429.082,14.573,458.595,30.574,477.132,55.264z M110.545,14.727v95.818H14.727C17.521,58.975,58.975,17.521,110.545,14.727z
	 M395.901,497.427H116.099c-33.181,0-62.694-16.001-81.231-40.691h442.265C458.595,481.426,429.082,497.427,395.901,497.427z"/>
<g>
</g>
<g>
</g>
<g>
</g>
<g>
</g>
<g>
</g>
<g>
</g>
<g>
</g>
<g>
</g>
<g>
</g>
<g>
</g>
<g>
</g>
<g>
</g>
<g>
</g>
<g>
</g>
<g>
</g>
</svg>
