<?xml version="1.0" encoding="iso-8859-1"?>
<!-- Generator: Adobe Illustrator 19.0.0, SVG Export Plug-In . SVG Version: 6.00 Build 0)  -->
<svg version="1.1" id="Layer_1" xmlns="http://www.w3.org/2000/svg" xmlns:xlink="http://www.w3.org/1999/xlink" x="0px" y="0px"
	 viewBox="0 0 512 512" style="enable-background:new 0 0 512 512;" xml:space="preserve">
<path style="fill:#ED1F34;" d="M395.901,7.286H116.099C56.003,7.286,7.286,56.004,7.286,116.099v279.803
	c0,60.095,48.717,108.812,108.812,108.812h279.803c60.095,0,108.812-48.717,108.812-108.812V116.099
	C504.714,56.004,455.997,7.286,395.901,7.286z"/>
<rect x="57.03" y="57.03" style="fill:#103B9B;" width="397.94" height="397.94"/>
<path d="M395.901,512H116.099C52.082,512,0,459.918,0,395.901V116.099C0,52.082,52.082,0,116.099,0h279.803
	C459.918,0,512,52.082,512,116.099v279.803C512,459.918,459.918,512,395.901,512z M116.099,14.573
	c-55.982,0-101.526,45.544-101.526,101.526v279.803c0,55.981,45.544,101.526,101.526,101.526h279.803
	c55.981,0,101.526-45.545,101.526-101.526V116.099c0-55.981-45.545-101.526-101.526-101.526
	C395.902,14.573,116.099,14.573,116.099,14.573z"/>
<path style="fill:#3DB4EA;" d="M256,120.037c-49.659,25.162-83.853,76.587-83.853,135.963S206.341,366.802,256,391.963
	c49.659-25.162,83.853-76.587,83.853-135.963S305.659,145.199,256,120.037z"/>
<path style="fill:#164FCE;" d="M172.147,256c0,59.376,34.194,110.801,83.853,135.963c49.659-25.162,83.853-76.587,83.853-135.963
	H172.147z"/>
<path style="fill:#FFE000;" d="M185.639,318.593c14.391,31.721,39.362,57.663,70.361,73.371
	c30.999-15.707,55.97-41.65,70.361-73.371H185.639z"/>
<path style="fill:#ED1F34;" d="M256,399.25c-1.129,0-2.258-0.262-3.293-0.786c-25.973-13.16-47.904-33.136-63.421-57.768
	c-15.979-25.365-24.426-54.653-24.426-84.695s8.446-59.33,24.426-84.695c15.517-24.632,37.447-44.607,63.421-57.768
	c2.07-1.049,4.516-1.049,6.586,0c25.973,13.16,47.904,33.136,63.42,57.768c15.98,25.366,24.426,54.653,24.426,84.695
	s-8.446,59.329-24.426,84.695c-15.516,24.632-37.447,44.607-63.42,57.768C258.258,398.988,257.129,399.25,256,399.25z M256,128.257
	c-47.328,25.471-76.566,74.079-76.566,127.743S208.672,358.272,256,383.743c47.327-25.472,76.566-74.079,76.566-127.743
	S303.327,153.729,256,128.257z"/>
<g>
</g>
<g>
</g>
<g>
</g>
<g>
</g>
<g>
</g>
<g>
</g>
<g>
</g>
<g>
</g>
<g>
</g>
<g>
</g>
<g>
</g>
<g>
</g>
<g>
</g>
<g>
</g>
<g>
</g>
</svg>
