<?xml version="1.0" encoding="iso-8859-1"?>
<!-- Generator: Adobe Illustrator 19.0.0, SVG Export Plug-In . SVG Version: 6.00 Build 0)  -->
<svg version="1.1" id="Layer_1" xmlns="http://www.w3.org/2000/svg" xmlns:xlink="http://www.w3.org/1999/xlink" x="0px" y="0px"
	 viewBox="0 0 512 512" style="enable-background:new 0 0 512 512;" xml:space="preserve">
<path style="fill:#259245;" d="M173.096,256v248.712v0.001h222.806c60.088,0,108.799-48.704,108.812-108.789V256H173.096z"/>
<path style="fill:#FFE000;" d="M173.096,256h331.618V116.075C504.7,56.018,456.032,7.331,395.981,7.287H173.096V256z"/>
<path style="fill:#ED1F34;" d="M173.096,256V7.287V7.286h-56.997C56.003,7.286,7.286,56.004,7.286,116.099v279.803
	c0,60.068,48.674,108.768,108.733,108.811h57.077L173.096,256L173.096,256z"/>
<polygon style="fill:#333333;" points="52.998,247.649 80.383,246.234 90.191,220.627 99.999,246.234 127.383,247.649 
	106.06,264.89 113.177,291.372 90.191,276.42 67.204,291.372 74.321,264.89 "/>
<path d="M395.901,0H116.099C52.082,0,0,52.082,0,116.099v279.803C0,459.918,52.082,512,116.099,512h279.803
	C459.918,512,512,459.918,512,395.901V116.099C512,52.082,459.918,0,395.901,0z M14.573,395.901V116.099
	c0-55.981,45.544-101.526,101.526-101.526h49.71v482.854h-49.71C60.117,497.427,14.573,451.882,14.573,395.901z M395.901,497.427
	H180.382V263.286h258.007c4.024,0,7.286-3.262,7.286-7.287c0-4.025-3.262-7.287-7.286-7.287H180.382V14.573h215.519
	c55.982,0,101.526,45.544,101.526,101.526v132.614h-25.876c-4.024,0-7.287,3.262-7.287,7.287c0,4.025,3.262,7.287,7.287,7.287
	h25.876v132.616C497.427,451.882,451.883,497.427,395.901,497.427z"/>
<path d="M134.313,245.398c-0.933-2.871-3.539-4.87-6.554-5.026l-22.651-1.17l-8.112-21.181c-1.08-2.819-3.786-4.68-6.805-4.68
	s-5.725,1.861-6.805,4.68l-8.113,21.181l-22.651,1.17c-3.015,0.156-5.621,2.155-6.554,5.026c-0.933,2.871,0.001,6.019,2.348,7.917
	l17.638,14.262l-5.887,21.904c-0.783,2.915,0.312,6.011,2.754,7.786c2.443,1.775,5.726,1.862,8.256,0.214l19.014-12.367
	l19.013,12.367c1.21,0.788,2.592,1.178,3.972,1.178c1.506,0,3.01-0.466,4.283-1.392c2.442-1.774,3.537-4.871,2.754-7.786
	l-5.887-21.904l17.638-14.262C134.312,251.417,135.246,248.268,134.313,245.398z M101.479,259.225
	c-2.241,1.812-3.203,4.774-2.455,7.557l2.179,8.109l-7.039-4.579c-2.415-1.57-5.53-1.572-7.946,0l-7.039,4.579l2.179-8.109
	c0.748-2.783-0.215-5.745-2.455-7.557l-6.53-5.281l8.386-0.433c2.878-0.149,5.398-1.98,6.429-4.671l3.004-7.842l3.003,7.842
	c1.031,2.691,3.551,4.522,6.429,4.671l8.386,0.433L101.479,259.225z"/>
<g>
</g>
<g>
</g>
<g>
</g>
<g>
</g>
<g>
</g>
<g>
</g>
<g>
</g>
<g>
</g>
<g>
</g>
<g>
</g>
<g>
</g>
<g>
</g>
<g>
</g>
<g>
</g>
<g>
</g>
</svg>
