<?xml version="1.0" encoding="iso-8859-1"?>
<!-- Generator: Adobe Illustrator 19.0.0, SVG Export Plug-In . SVG Version: 6.00 Build 0)  -->
<svg version="1.1" id="Layer_1" xmlns="http://www.w3.org/2000/svg" xmlns:xlink="http://www.w3.org/1999/xlink" x="0px" y="0px"
	 viewBox="0 0 512 512" style="enable-background:new 0 0 512 512;" xml:space="preserve">
<path style="fill:#259245;" d="M395.901,7.286H116.099C56.003,7.286,7.286,56.003,7.286,116.099v279.803
	c0,60.095,48.717,108.812,108.812,108.812h279.803c60.095,0,108.812-48.717,108.812-108.812V116.099
	C504.714,56.003,455.997,7.286,395.901,7.286z"/>
<path style="fill:#FFE000;" d="M50.223,29.495C24.131,49.372,7.286,80.766,7.286,116.099v279.803
	c0,35.333,16.845,66.726,42.937,86.603L488.133,256L50.223,29.495z"/>
<path style="fill:#FFFFFF;" d="M50.229,489.793c-2.637,0-5.182-1.437-6.478-3.941c-1.848-3.574-0.45-7.971,3.125-9.82L472.272,256
	L46.876,35.968c-3.575-1.849-4.973-6.246-3.125-9.82c1.85-3.576,6.247-4.975,9.82-3.124l437.91,226.505
	c2.42,1.251,3.939,3.748,3.939,6.471s-1.519,5.22-3.939,6.471L53.57,488.976C52.5,489.53,51.356,489.793,50.229,489.793z"/>
<path style="fill:#ED1F34;" d="M39.157,39.157c-19.691,19.691-31.87,46.894-31.87,76.942v279.803
	c0,30.047,12.179,57.25,31.87,76.942L256,256L39.157,39.157z"/>
<path d="M395.901,0H116.099C84.423,0,55.674,12.757,34.706,33.396c-0.243,0.188-0.479,0.387-0.702,0.609
	c-0.223,0.223-0.422,0.46-0.61,0.703C12.756,55.675,0,84.424,0,116.099v279.803c0,31.675,12.756,60.423,33.394,81.391
	c0.188,0.243,0.387,0.48,0.61,0.703c0.223,0.222,0.459,0.421,0.702,0.609C55.674,499.243,84.423,512,116.099,512h279.803
	C459.918,512,512,459.918,512,395.901V116.099C512,52.082,459.918,0,395.901,0z M14.573,116.099c0-25.373,9.356-48.603,24.8-66.419
	L245.695,256L39.373,462.32c-15.444-17.816-24.8-41.046-24.8-66.419C14.573,395.901,14.573,116.099,14.573,116.099z
	 M497.427,395.901c0,55.981-45.545,101.526-101.526,101.526H116.099c-25.374,0-48.603-9.357-66.42-24.801l211.474-211.473
	c1.366-1.367,2.134-3.22,2.134-5.153c0-1.933-0.767-3.786-2.134-5.153L49.679,39.374c17.817-15.444,41.046-24.801,66.42-24.801
	h279.803c55.981,0,101.526,45.544,101.526,101.526v279.802H497.427z"/>
<g>
</g>
<g>
</g>
<g>
</g>
<g>
</g>
<g>
</g>
<g>
</g>
<g>
</g>
<g>
</g>
<g>
</g>
<g>
</g>
<g>
</g>
<g>
</g>
<g>
</g>
<g>
</g>
<g>
</g>
</svg>
