<?xml version="1.0" encoding="iso-8859-1"?>
<!-- Generator: Adobe Illustrator 19.0.0, SVG Export Plug-In . SVG Version: 6.00 Build 0)  -->
<svg version="1.1" id="Layer_1" xmlns="http://www.w3.org/2000/svg" xmlns:xlink="http://www.w3.org/1999/xlink" x="0px" y="0px"
	 viewBox="0 0 512 512" style="enable-background:new 0 0 512 512;" xml:space="preserve">
<path style="fill:#ED1F34;" d="M395.901,7.286H116.099C56.003,7.286,7.286,56.004,7.286,116.099v279.803
	c0,60.095,48.717,108.812,108.812,108.812h279.803c60.095,0,108.812-48.717,108.812-108.812V116.099
	C504.714,56.004,455.997,7.286,395.901,7.286z"/>
<g>
	<path style="fill:#FFFFFF;" d="M279.046,189.242c0-9.348-5.714-17.357-13.837-20.739v-20.16c-22.588,0-40.899,18.311-40.899,40.9
		c0,22.588,18.311,40.9,40.899,40.9v-20.16C273.333,206.599,279.046,198.59,279.046,189.242z"/>
	<path style="fill:#FFFFFF;" d="M190.65,216.108c-8.891-2.889-18.273,0.07-24,6.751l-19.173-6.23
		c-6.98,21.483,4.777,44.556,26.259,51.536c21.483,6.98,44.556-4.776,51.536-26.259l-19.173-6.23
		C205.393,226.906,199.541,218.997,190.65,216.108z"/>
	<path style="fill:#FFFFFF;" d="M188.886,308.48c-5.495,7.563-5.58,17.401-0.996,24.912l-11.85,16.31
		c18.274,13.277,43.852,9.226,57.129-9.048c13.277-18.274,9.226-43.852-9.048-57.129l-11.85,16.31
		C203.711,297.797,194.381,300.918,188.886,308.48z"/>
	<path style="fill:#FFFFFF;" d="M276.192,338.703c5.495,7.563,14.825,10.684,23.385,8.645l11.85,16.31
		c18.274-13.277,22.325-38.854,9.048-57.129c-13.277-18.274-38.854-22.325-57.129-9.048l11.85,16.31
		C270.612,321.302,270.698,331.14,276.192,338.703z"/>
	<path style="fill:#FFFFFF;" d="M331.914,265.009c8.891-2.889,14.742-10.798,15.448-19.569l19.173-6.23
		c-6.98-21.483-30.054-33.239-51.536-26.259c-21.483,6.98-33.239,30.054-26.259,51.536l19.173-6.23
		C313.641,264.939,323.024,267.898,331.914,265.009z"/>
</g>
<path d="M395.901,0H116.099C52.082,0,0,52.082,0,116.099v279.803C0,459.918,52.082,512,116.099,512h279.803
	C459.918,512,512,459.918,512,395.901V116.099C512,52.082,459.918,0,395.901,0z M497.427,395.901
	c0,55.981-45.545,101.526-101.526,101.526H116.099c-55.982,0-101.526-45.545-101.526-101.526V116.099
	c0-55.981,45.544-101.526,101.526-101.526h279.803c55.981,0,101.526,45.544,101.526,101.526v279.802H497.427z"/>
<path d="M265.21,237.428c4.025,0,7.286-3.262,7.286-7.286V214.38c8.539-5.388,13.837-14.796,13.837-25.139
	s-5.298-19.75-13.837-25.139v-15.761c0-4.025-3.262-7.287-7.286-7.287c-26.57,0-48.186,21.617-48.186,48.187
	S238.639,237.428,265.21,237.428z M257.923,156.423v12.079c0,2.942,1.77,5.596,4.486,6.727c5.68,2.365,9.351,7.866,9.351,14.013
	s-3.671,11.647-9.351,14.012c-2.716,1.131-4.486,3.785-4.486,6.727v12.079c-15.043-3.338-26.327-16.785-26.327-32.818
	S242.88,159.761,257.923,156.423z"/>
<path d="M186.382,277.465C186.383,277.465,186.382,277.465,186.382,277.465c20.933,0,39.347-13.385,45.82-33.307
	c0.597-1.838,0.44-3.838-0.437-5.56c-0.878-1.722-2.403-3.025-4.241-3.621l-14.989-4.87c-2.486-9.786-9.796-17.732-19.634-20.929
	c-2.984-0.97-6.076-1.461-9.191-1.461c-6.993,0-13.69,2.454-18.991,6.854l-14.991-4.871c-3.826-1.242-7.937,0.85-9.181,4.678
	c-3.977,12.24-2.95,25.298,2.894,36.766c5.843,11.468,15.803,19.974,28.044,23.952C176.323,276.668,181.335,277.465,186.382,277.465
	z M156.425,244.529c-2.95-5.789-4.14-12.159-3.521-18.474l11.495,3.734c2.799,0.912,5.869,0.047,7.784-2.188
	c2.893-3.376,7.095-5.311,11.528-5.311c1.583,0,3.161,0.251,4.688,0.748c5.846,1.899,9.943,7.091,10.437,13.224
	c0.236,2.934,2.213,5.436,5.011,6.345l11.493,3.734c-5.943,10.124-16.846,16.55-28.957,16.55c-3.516,0-7.013-0.557-10.395-1.656
	C167.449,258.462,160.501,252.529,156.425,244.529z"/>
<path d="M228.404,277.631c-3.258-2.367-7.813-1.645-10.178,1.612l-9.269,12.755c-0.628-0.04-1.258-0.06-1.888-0.06
	c-9.501,0-18.502,4.583-24.079,12.259c-6.079,8.368-7.323,19.093-3.582,28.472l-9.264,12.75c-2.366,3.255-1.644,7.812,1.612,10.177
	c8.289,6.023,18.071,9.206,28.289,9.206c15.394,0,29.98-7.427,39.017-19.866C254.681,323.441,249.899,293.249,228.404,277.631z
	 M227.274,336.371c-6.305,8.677-16.483,13.859-27.228,13.859c-4.652,0-9.175-0.948-13.365-2.777l7.104-9.778
	c1.73-2.38,1.858-5.567,0.325-8.079c-3.206-5.252-2.942-11.86,0.671-16.833c2.844-3.915,7.438-6.251,12.289-6.251
	c1.184,0,2.366,0.138,3.512,0.412c2.863,0.683,5.854-0.424,7.583-2.805l7.1-9.77C235.473,305.889,236.698,323.4,227.274,336.371z"/>
<path d="M287.353,282.38c-10.218,0-20.001,3.183-28.289,9.206c-3.256,2.365-3.978,6.922-1.612,10.177l9.264,12.75
	c-3.741,9.379-2.498,20.103,3.583,28.472c5.576,7.675,14.578,12.258,24.078,12.259c0.001,0,0.001,0,0.001,0
	c0.63,0,1.259-0.02,1.887-0.06l9.268,12.756c1.136,1.564,2.846,2.612,4.755,2.914c0.379,0.061,0.76,0.09,1.139,0.09
	c1.529,0,3.03-0.482,4.283-1.392c10.413-7.565,17.256-18.732,19.27-31.445c2.013-12.713-1.045-25.449-8.61-35.861
	C317.332,289.807,302.747,282.38,287.353,282.38z M320.586,335.828c-1.017,6.417-3.798,12.27-8.01,17.015l-7.104-9.778
	c-1.39-1.914-3.596-3.004-5.895-3.004c-0.561,0-1.127,0.064-1.689,0.198c-1.146,0.273-2.327,0.412-3.511,0.412
	c-4.851,0-9.445-2.337-12.289-6.251c-3.614-4.974-3.877-11.581-0.672-16.833c1.533-2.511,1.405-5.698-0.324-8.079l-7.104-9.778
	c4.191-1.829,8.714-2.777,13.366-2.777c10.744,0,20.922,5.181,27.228,13.859C319.858,318.076,321.991,326.96,320.586,335.828z"/>
<path d="M327.647,203.652c-5.047,0-10.06,0.798-14.898,2.37c-12.241,3.977-22.201,12.484-28.044,23.952
	c-5.843,11.468-6.871,24.526-2.894,36.766c1.244,3.828,5.36,5.922,9.181,4.678l14.991-4.871c5.3,4.4,11.996,6.853,18.989,6.854
	h0.001c3.116,0,6.209-0.492,9.193-1.462c9.837-3.195,17.147-11.141,19.633-20.928l14.989-4.87c1.838-0.597,3.363-1.899,4.241-3.621
	s1.035-3.722,0.437-5.56C366.993,217.037,348.58,203.652,327.647,203.652z M345.111,238.51c-2.799,0.909-4.775,3.413-5.011,6.345
	c-0.493,6.133-4.59,11.323-10.436,13.223c-1.529,0.496-3.106,0.749-4.69,0.749c-4.434-0.001-8.635-1.936-11.527-5.311
	c-1.409-1.643-3.442-2.545-5.533-2.545c-0.751,0-1.51,0.116-2.25,0.357l-11.494,3.734c-0.619-6.314,0.571-12.684,3.521-18.473
	c4.077-8,11.024-13.934,19.563-16.708c3.382-1.099,6.879-1.656,10.396-1.656c12.111,0,23.013,6.427,28.956,16.551L345.111,238.51z"
	/>
<g>
</g>
<g>
</g>
<g>
</g>
<g>
</g>
<g>
</g>
<g>
</g>
<g>
</g>
<g>
</g>
<g>
</g>
<g>
</g>
<g>
</g>
<g>
</g>
<g>
</g>
<g>
</g>
<g>
</g>
</svg>
