<?xml version="1.0" encoding="iso-8859-1"?>
<!-- Generator: Adobe Illustrator 19.0.0, SVG Export Plug-In . SVG Version: 6.00 Build 0)  -->
<svg version="1.1" id="Layer_1" xmlns="http://www.w3.org/2000/svg" xmlns:xlink="http://www.w3.org/1999/xlink" x="0px" y="0px"
	 viewBox="0 0 512 512" style="enable-background:new 0 0 512 512;" xml:space="preserve">
<rect x="7.286" y="173.1" style="fill:#FFFFFF;" width="497.43" height="165.81"/>
<path style="fill:#ED1F34;" d="M395.901,7.286H116.099C56.003,7.286,7.286,56.003,7.286,116.099v56.997h497.427v-56.997
	C504.713,56.003,455.997,7.286,395.901,7.286z"/>
<path style="fill:#103B9B;" d="M7.286,395.901c0,60.095,48.717,108.812,108.812,108.812h279.803
	c60.095,0,108.812-48.717,108.812-108.812v-56.997H7.286V395.901z"/>
<path d="M395.901,0H116.099C52.082,0,0,52.082,0,116.099v279.803C0,459.918,52.082,512,116.099,512h279.803
	C459.918,512,512,459.918,512,395.901V116.099C512,52.082,459.918,0,395.901,0z M116.099,14.573h279.803
	c55.982,0,101.526,45.544,101.526,101.526v49.71H438.39c-4.024,0-7.287,3.262-7.287,7.287c0,4.024,3.262,7.286,7.287,7.286h59.037
	v151.236H14.573V180.382h390.655c4.024,0,7.286-3.262,7.286-7.286s-3.262-7.287-7.286-7.287H14.573v-49.71
	C14.573,60.117,60.117,14.573,116.099,14.573z M395.901,497.427H116.099c-55.981,0-101.526-45.544-101.526-101.526v-49.71h482.854
	v49.71C497.427,451.883,451.883,497.427,395.901,497.427z"/>
<g>
	<path style="fill:#FFFFFF;" d="M340.198,256v31.039c0,46.509-37.705,84.198-84.198,84.198V256H340.198z"/>
	<rect x="171.8" y="140.76" style="fill:#FFFFFF;" width="84.2" height="115.24"/>
</g>
<g>
	<path style="fill:#ED1F34;" d="M256,256v115.237c-46.493,0-84.198-37.688-84.198-84.198V256H256z"/>
	<rect x="256" y="140.76" style="fill:#ED1F34;" width="84.2" height="115.24"/>
</g>
<path d="M256,378.524c-50.44,0-91.477-41.036-91.477-91.477V140.763c0-4.024,3.262-7.286,7.287-7.286h168.38
	c4.024,0,7.287,3.262,7.287,7.286v146.284C347.477,337.487,306.44,378.524,256,378.524z M179.096,148.049v138.998
	c0,42.405,34.499,76.904,76.904,76.904s76.904-34.499,76.904-76.904V148.049H179.096z"/>
<g>
</g>
<g>
</g>
<g>
</g>
<g>
</g>
<g>
</g>
<g>
</g>
<g>
</g>
<g>
</g>
<g>
</g>
<g>
</g>
<g>
</g>
<g>
</g>
<g>
</g>
<g>
</g>
<g>
</g>
</svg>
