<?xml version="1.0" encoding="iso-8859-1"?>
<!-- Generator: Adobe Illustrator 19.0.0, SVG Export Plug-In . SVG Version: 6.00 Build 0)  -->
<svg version="1.1" id="Layer_1" xmlns="http://www.w3.org/2000/svg" xmlns:xlink="http://www.w3.org/1999/xlink" x="0px" y="0px"
	 viewBox="0 0 512 512" style="enable-background:new 0 0 512 512;" xml:space="preserve">
<rect x="7.286" y="173.1" style="fill:#FFFFFF;" width="497.43" height="165.81"/>
<path style="fill:#259245;" d="M7.287,338.904v56.997c0,60.095,48.717,108.812,108.812,108.812h279.802
	c60.092,0,108.807-48.712,108.812-108.803v-57.006H7.287z"/>
<path style="fill:#ED1F34;" d="M504.714,116.089C504.708,55.998,455.994,7.286,395.901,7.286H116.099
	C56.003,7.286,7.287,56.003,7.287,116.099v56.997h497.427V116.089z"/>
<path d="M395.901,0H116.099C52.082,0,0,52.082,0,116.099v279.803C0,459.918,52.082,512,116.099,512h279.803
	C459.918,512,512,459.918,512,395.901V116.099C512,52.082,459.918,0,395.901,0z M116.099,14.573h279.803
	c55.981,0,101.526,45.544,101.526,101.526v49.71H14.573v-49.71C14.573,60.117,60.118,14.573,116.099,14.573z M395.901,497.427
	H116.099c-55.981,0-101.526-45.544-101.526-101.526v-49.71H73.61c4.025,0,7.286-3.262,7.286-7.287c0-4.024-3.262-7.286-7.286-7.286
	H14.573V180.382h482.854v151.236H106.772c-4.025,0-7.286,3.262-7.286,7.286c0,4.024,3.262,7.287,7.286,7.287h390.655v49.71
	C497.427,451.883,451.882,497.427,395.901,497.427z"/>
<g>
</g>
<g>
</g>
<g>
</g>
<g>
</g>
<g>
</g>
<g>
</g>
<g>
</g>
<g>
</g>
<g>
</g>
<g>
</g>
<g>
</g>
<g>
</g>
<g>
</g>
<g>
</g>
<g>
</g>
</svg>
