<?xml version="1.0" encoding="iso-8859-1"?>
<!-- Generator: Adobe Illustrator 19.0.0, SVG Export Plug-In . SVG Version: 6.00 Build 0)  -->
<svg version="1.1" id="Layer_1" xmlns="http://www.w3.org/2000/svg" xmlns:xlink="http://www.w3.org/1999/xlink" x="0px" y="0px"
	 viewBox="0 0 512 512" style="enable-background:new 0 0 512 512;" xml:space="preserve">
<path style="fill:#FFFFFF;" d="M8.989,96.823c-1.118,6.256-1.702,12.697-1.702,19.275v279.803c0,6.578,0.584,13.019,1.702,19.275
	h494.023c1.118-6.256,1.702-12.698,1.702-19.275V116.099c0-6.578-0.584-13.019-1.702-19.275L8.989,96.823L8.989,96.823z"/>
<g>
	<path style="fill:#164FCE;" d="M395.901,7.286H116.099c-53.518,0-98.011,38.636-107.11,89.537h494.023
		C493.912,45.923,449.419,7.286,395.901,7.286z"/>
	<path style="fill:#164FCE;" d="M116.099,504.714h279.803c53.518,0,98.011-38.636,107.11-89.537H8.989
		C18.088,466.077,62.581,504.714,116.099,504.714z"/>
	<path style="fill:#164FCE;" d="M325.656,288.147L307.096,256l18.817-32.592c1.389-2.405,1.389-5.368,0-7.772
		c-1.388-2.405-3.954-3.886-6.731-3.886h-37.634l-18.817-32.592c-1.388-2.405-3.954-3.886-6.731-3.886
		c-2.777,0-5.342,1.481-6.731,3.886l-18.817,32.592h-37.634c-2.777,0-5.342,1.481-6.731,3.886c-1.388,2.405-1.388,5.368,0,7.772
		L204.904,256l-18.817,32.592c-1.388,2.405-1.388,5.368,0,7.772c1.389,2.405,3.954,3.886,6.731,3.886h37.634l18.817,32.592
		c1.389,2.405,3.954,3.886,6.731,3.886c2.777,0,5.342-1.482,6.731-3.886l18.817-32.592h37.634c0.006,0,0.012,0,0.019,0
		c4.293,0,7.772-3.48,7.772-7.772C326.973,290.875,326.488,289.385,325.656,288.147z M305.72,227.294l-7.599,13.161l-7.599-13.161
		H305.72z M289.146,256l-16.573,28.706h-33.146L222.854,256l16.573-28.706h33.146L289.146,256z M256,198.589l7.599,13.161h-15.197
		L256,198.589z M206.28,227.294h15.197l-7.598,13.161L206.28,227.294z M206.28,284.706l7.599-13.161l7.598,13.161H206.28z
		 M256,313.411l-7.599-13.161h15.197L256,313.411z M290.523,284.706l7.599-13.161l7.599,13.161H290.523z"/>
</g>
<path d="M395.901,0H116.099C52.082,0,0,52.082,0,116.099v279.803C0,459.918,52.082,512,116.099,512h279.803
	C459.918,512,512,459.918,512,395.901V116.099C512,52.082,459.918,0,395.901,0z M116.099,14.573h279.803
	c46.794,0,86.288,31.824,97.993,74.964H438.39c-4.024,0-7.286,3.262-7.286,7.287s3.262,7.286,7.286,7.286h58.326
	c0.465,3.933,0.711,7.933,0.711,11.989v279.803c0,4.056-0.246,8.056-0.711,11.989H15.284c-0.465-3.933-0.711-7.933-0.711-11.989
	V116.099c0-4.056,0.246-8.056,0.711-11.989h389.944c4.024,0,7.286-3.262,7.286-7.286s-3.262-7.287-7.286-7.287H18.105
	C29.811,46.397,69.305,14.573,116.099,14.573z M395.901,497.427H116.099c-46.794,0-86.288-31.824-97.993-74.964h475.789
	C482.189,465.603,442.695,497.427,395.901,497.427z"/>
<g>
</g>
<g>
</g>
<g>
</g>
<g>
</g>
<g>
</g>
<g>
</g>
<g>
</g>
<g>
</g>
<g>
</g>
<g>
</g>
<g>
</g>
<g>
</g>
<g>
</g>
<g>
</g>
<g>
</g>
</svg>
