<?xml version="1.0" encoding="iso-8859-1"?>
<!-- Generator: Adobe Illustrator 19.0.0, SVG Export Plug-In . SVG Version: 6.00 Build 0)  -->
<svg version="1.1" id="Layer_1" xmlns="http://www.w3.org/2000/svg" xmlns:xlink="http://www.w3.org/1999/xlink" x="0px" y="0px"
	 viewBox="0 0 512 512" style="enable-background:new 0 0 512 512;" xml:space="preserve">
<path style="fill:#ED1F34;" d="M395.901,7.286H116.099C56.003,7.286,7.286,56.004,7.286,116.099v279.803
	c0,60.095,48.717,108.812,108.812,108.812h279.803c60.095,0,108.812-48.717,108.812-108.812V116.099
	C504.714,56.004,455.997,7.286,395.901,7.286z"/>
<path style="fill:#FFFFFF;" d="M325.298,266.686c-1.47,2.779-2.803,5.589-4.02,8.419c-13.067-8.616-30.03-19.8-44.329-29.229
	l-7.649-91.231c-0.719-8.573-7.957-15.255-16.693-15.149l-113.065,4.191c18.746,23.616,50.486,38.56,85.95,37.245
	c3.142-0.116,6.242-0.367,9.301-0.728c-0.928,15.625-2.133,35.907-3.149,53.004l-75.183,52.24
	c-7.065,4.909-9.233,14.518-4.773,22.031l60.162,95.822c11.08-28.042,8.151-63.002-10.72-93.058
	c-1.672-2.663-3.439-5.222-5.281-7.691c13.996-7.009,32.162-16.106,47.477-23.775l82.833,38.991
	c7.783,3.663,17.189,0.737,21.465-6.882l52.903-100.013C370.704,215.299,341.892,235.315,325.298,266.686z"/>
<path d="M395.901,0H116.099C52.082,0,0,52.082,0,116.099v279.803C0,459.918,52.082,512,116.099,512h279.803
	C459.918,512,512,459.918,512,395.901V116.099C512,52.082,459.918,0,395.901,0z M497.427,395.901
	c0,55.982-45.544,101.526-101.526,101.526H116.099c-55.982,0-101.526-45.544-101.526-101.526V116.099
	c0-55.982,45.544-101.526,101.526-101.526h279.803c55.981,0,101.526,45.544,101.526,101.526v279.802H497.427z"/>
<path d="M439.425,215.03l-49.831-15.079c-3.851-1.163-7.919,1.012-9.085,4.864c-0.376,1.242-0.4,2.504-0.137,3.686
	c-25.524,9.208-47.732,28.72-61.516,54.779c-0.195,0.37-0.39,0.742-0.583,1.117l-34.359-22.656l-7.354-87.705
	c-1.027-12.24-11.458-21.827-23.748-21.827l-0.294,0.002c-0.06,0.001-0.121,0.002-0.181,0.005l-107.067,3.969l-7.386-31.579
	c-0.916-3.919-4.838-6.353-8.754-5.435c-3.918,0.916-6.352,4.836-5.436,8.754l11.856,50.694c0.786,3.361,3.78,5.629,7.089,5.629
	c0.549,0,1.108-0.063,1.666-0.193c1.273-0.297,2.385-0.916,3.281-1.744c19.634,16.505,45.935,25.99,73.582,25.99
	c1.522,0,3.068-0.029,4.594-0.085c0.418-0.016,0.838-0.034,1.259-0.054l-2.441,41.083l-72.278,50.221
	c-10.21,7.095-13.232,21.035-6.881,31.734c0.031,0.052,0.063,0.103,0.094,0.155l56.971,90.738l-23.654,22.185
	c-2.936,2.753-3.083,7.364-0.331,10.299c1.435,1.53,3.373,2.302,5.316,2.302c1.787,0,3.577-0.653,4.983-1.972l37.974-35.615
	c2.936-2.753,3.084-7.364,0.331-10.299c-0.887-0.946-1.969-1.599-3.124-1.962c4.788-26.708-1.006-55.696-16.681-80.663
	c-0.223-0.354-0.447-0.709-0.676-1.064l36.799-18.428l79.631,37.484c3.193,1.502,6.598,2.264,10.121,2.264
	c8.617,0,16.588-4.665,20.802-12.173c0.029-0.053,0.058-0.106,0.086-0.159l50.097-94.707l31.041,9.393
	c0.703,0.213,1.414,0.314,2.113,0.314c3.127,0,6.019-2.03,6.971-5.178C445.454,220.263,443.277,216.196,439.425,215.03z
	 M341.233,307.388c-1.647,2.879-4.727,4.665-8.055,4.665c-1.362,0-2.678-0.295-3.915-0.877l-82.833-38.991
	c-2.023-0.952-4.369-0.924-6.366,0.077l-47.478,23.775c-1.928,0.966-3.33,2.736-3.827,4.835s-0.039,4.31,1.25,6.038
	c1.776,2.379,3.441,4.804,4.95,7.207c13.99,22.282,19.036,48.095,14.456,71.603l-51.501-82.028
	c-2.417-4.149-1.237-9.521,2.705-12.26l75.184-52.24c1.835-1.275,2.983-3.321,3.116-5.552l3.148-53.004
	c0.128-2.153-0.704-4.251-2.273-5.731c-1.569-1.481-3.714-2.189-5.854-1.937c-2.952,0.348-5.885,0.578-8.717,0.683
	c-1.347,0.05-2.711,0.075-4.055,0.075c-24.674,0-48.043-8.538-65.153-23.358l96.753-3.586l0.045-0.001
	c4.775,0,8.828,3.722,9.226,8.472l7.65,91.231c0.186,2.227,1.384,4.244,3.25,5.474l44.329,29.229
	c1.801,1.187,4.035,1.515,6.101,0.897c2.066-0.619,3.752-2.121,4.604-4.102c1.173-2.728,2.44-5.382,3.767-7.89
	c12.301-23.257,32.133-40.533,54.781-48.321L341.233,307.388z"/>
<g>
</g>
<g>
</g>
<g>
</g>
<g>
</g>
<g>
</g>
<g>
</g>
<g>
</g>
<g>
</g>
<g>
</g>
<g>
</g>
<g>
</g>
<g>
</g>
<g>
</g>
<g>
</g>
<g>
</g>
</svg>
