<?xml version="1.0" encoding="iso-8859-1"?>
<!-- Generator: Adobe Illustrator 19.0.0, SVG Export Plug-In . SVG Version: 6.00 Build 0)  -->
<svg version="1.1" id="Layer_1" xmlns="http://www.w3.org/2000/svg" xmlns:xlink="http://www.w3.org/1999/xlink" x="0px" y="0px"
	 viewBox="0 0 512 512" style="enable-background:new 0 0 512 512;" xml:space="preserve">
<rect x="7.286" y="173.1" style="fill:#FFFFFF;" width="497.43" height="165.81"/>
<path style="fill:#164FCE;" d="M256,296.448c-22.303,0-40.448-18.145-40.448-40.448s18.145-40.448,40.448-40.448
	s40.448,18.145,40.448,40.448S278.303,296.448,256,296.448z M256,230.125c-14.268,0-25.875,11.608-25.875,25.875
	c0,14.268,11.608,25.875,25.875,25.875c14.268,0,25.875-11.608,25.875-25.875C281.875,241.732,270.268,230.125,256,230.125z"/>
<path style="fill:#FF7900;" d="M395.901,7.287H116.099C56.003,7.287,7.286,56.004,7.286,116.099v56.997h497.427v-56.997
	C504.714,56.004,455.997,7.287,395.901,7.287z"/>
<path style="fill:#259245;" d="M7.286,395.901c0,60.095,48.717,108.812,108.812,108.812h279.803
	c60.095,0,108.812-48.717,108.812-108.812v-56.997H7.286V395.901z"/>
<path d="M395.901,0H116.099C52.082,0,0,52.082,0,116.099v279.803C0,459.918,52.082,512,116.099,512h279.803
	C459.918,512,512,459.918,512,395.901V116.099C512,52.082,459.918,0,395.901,0z M116.099,14.573h279.803
	c55.981,0,101.526,45.544,101.526,101.526v49.71H73.61c-4.024,0-7.287,3.262-7.287,7.286s3.262,7.286,7.287,7.286h423.817v151.236
	H14.573V180.382h25.875c4.024,0,7.286-3.262,7.286-7.286s-3.262-7.286-7.286-7.286H14.573V116.1
	C14.573,60.117,60.117,14.573,116.099,14.573z M395.901,497.427H116.099c-55.982,0-101.526-45.544-101.526-101.526v-49.71h482.854
	v49.71C497.427,451.883,451.883,497.427,395.901,497.427z"/>
<g>
</g>
<g>
</g>
<g>
</g>
<g>
</g>
<g>
</g>
<g>
</g>
<g>
</g>
<g>
</g>
<g>
</g>
<g>
</g>
<g>
</g>
<g>
</g>
<g>
</g>
<g>
</g>
<g>
</g>
</svg>
