<?xml version="1.0" encoding="iso-8859-1"?>
<!-- Generator: Adobe Illustrator 19.0.0, SVG Export Plug-In . SVG Version: 6.00 Build 0)  -->
<svg version="1.1" id="Layer_1" xmlns="http://www.w3.org/2000/svg" xmlns:xlink="http://www.w3.org/1999/xlink" x="0px" y="0px"
	 viewBox="0 0 512 512" style="enable-background:new 0 0 512 512;" xml:space="preserve">
<path style="fill:#103B9B;" d="M395.901,7.286H116.099C56.09,7.286,7.429,55.865,7.29,115.841V396.16
	c0.139,59.976,48.8,108.554,108.809,108.554h279.803c60.009,0,108.669-48.578,108.809-108.554V115.841
	C504.571,55.865,455.91,7.286,395.901,7.286z"/>
<g>
	<path style="fill:#FFFFFF;" d="M504.71,217.164c-24.496,0.002-37.314,9.199-48.623,17.314
		c-9.681,6.946-17.327,12.432-34.281,12.432s-24.6-5.486-34.281-12.432c-11.31-8.116-24.128-17.314-48.629-17.314
		c-24.5,0-37.32,9.199-48.629,17.314c-9.678,6.946-17.324,12.432-34.277,12.432s-24.598-5.486-34.276-12.432
		c-11.31-8.115-24.128-17.314-48.627-17.314s-37.317,9.199-48.626,17.315c-9.678,6.945-17.323,12.432-34.274,12.432
		c-16.952,0-24.598-5.486-34.277-12.432c-11.308-8.114-24.125-17.313-48.62-17.314v49.577c16.947,0.002,24.593,5.487,34.27,12.432
		c11.31,8.115,24.127,17.314,48.627,17.314c24.497,0,37.316-9.199,48.625-17.314c9.679-6.946,17.323-12.432,34.275-12.432
		s24.598,5.486,34.276,12.432c11.31,8.115,24.127,17.314,48.627,17.314s37.318-9.198,48.627-17.314
		c9.68-6.946,17.326-12.432,34.28-12.432s24.6,5.486,34.281,12.432c11.31,8.116,24.128,17.314,48.629,17.314
		s37.32-9.198,48.629-17.314c9.679-6.945,17.325-12.431,34.274-12.432L504.71,217.164L504.71,217.164z"/>
	<path style="fill:#FFFFFF;" d="M504.71,100.657c-24.496,0.002-37.314,9.199-48.623,17.314
		c-9.681,6.946-17.327,12.432-34.281,12.432s-24.6-5.486-34.281-12.432c-11.31-8.116-24.128-17.314-48.629-17.314
		c-24.5,0-37.32,9.199-48.629,17.314c-9.678,6.946-17.324,12.432-34.277,12.432s-24.598-5.486-34.276-12.432
		c-11.31-8.115-24.128-17.314-48.627-17.314s-37.317,9.199-48.626,17.315c-9.678,6.945-17.323,12.431-34.274,12.431
		c-16.952,0-24.598-5.486-34.277-12.432c-11.308-8.114-24.125-17.313-48.62-17.314v49.577c16.947,0.002,24.593,5.487,34.27,12.432
		c11.31,8.115,24.127,17.314,48.627,17.314c24.497,0,37.316-9.199,48.625-17.314c9.679-6.946,17.323-12.432,34.275-12.432
		s24.598,5.486,34.276,12.432c11.31,8.115,24.127,17.314,48.627,17.314s37.318-9.198,48.627-17.314
		c9.68-6.946,17.326-12.432,34.28-12.432s24.6,5.486,34.281,12.432c11.31,8.116,24.128,17.314,48.629,17.314
		s37.32-9.198,48.629-17.314c9.679-6.945,17.325-12.431,34.274-12.432L504.71,100.657L504.71,100.657z"/>
	<path style="fill:#FFFFFF;" d="M504.71,333.671c-24.496,0.002-37.314,9.199-48.623,17.314
		c-9.681,6.946-17.327,12.432-34.281,12.432s-24.6-5.486-34.281-12.432c-11.31-8.116-24.128-17.314-48.629-17.314
		c-24.5,0-37.32,9.199-48.629,17.314c-9.678,6.946-17.324,12.432-34.277,12.432s-24.598-5.486-34.276-12.432
		c-11.31-8.115-24.128-17.314-48.627-17.314s-37.317,9.199-48.626,17.315c-9.678,6.945-17.323,12.431-34.274,12.431
		c-16.952,0-24.598-5.486-34.277-12.432c-11.308-8.114-24.125-17.313-48.62-17.314v49.578c16.947,0.002,24.593,5.487,34.27,12.432
		c11.31,8.115,24.127,17.314,48.627,17.314c24.497,0,37.316-9.199,48.625-17.314c9.679-6.946,17.323-12.432,34.275-12.432
		s24.598,5.486,34.276,12.432c11.31,8.115,24.127,17.314,48.627,17.314s37.318-9.198,48.627-17.314
		c9.68-6.946,17.326-12.432,34.28-12.432s24.6,5.486,34.281,12.432c11.31,8.116,24.128,17.314,48.629,17.314
		s37.32-9.198,48.629-17.314c9.679-6.945,17.325-12.431,34.274-12.432L504.71,333.671L504.71,333.671z"/>
	<path style="fill:#FFFFFF;" d="M90.187,63.474c24.498,0,37.316-9.199,48.625-17.314c9.679-6.946,17.323-12.433,34.275-12.433
		s24.598,5.486,34.277,12.433c11.309,8.115,24.127,17.314,48.627,17.314s37.319-9.198,48.627-17.314
		c9.68-6.946,17.326-12.433,34.28-12.433s24.6,5.486,34.281,12.433c11.31,8.116,24.128,17.314,48.629,17.314
		s37.319-9.198,48.629-17.314c1.866-1.339,3.656-2.621,5.452-3.823c-12.077-13.09-27.323-23.207-44.524-29.135
		c-2.847,0.448-5.994,0.694-9.558,0.694c-11.789,0-19.075-2.656-25.677-6.607c-0.076,0-0.152-0.003-0.229-0.003H281.67
		c-6.602,3.953-13.889,6.61-25.68,6.61c-11.791,0-19.078-2.657-25.679-6.61H116.099c-0.08,0-0.16,0.003-0.24,0.003
		c-6.6,3.952-13.886,6.607-25.672,6.607c-3.562,0-6.708-0.246-9.553-0.694C63.433,19.131,48.187,29.249,36.11,42.339
		c1.795,1.201,3.585,2.483,5.45,3.822C52.869,54.275,65.687,63.474,90.187,63.474z"/>
	<path style="fill:#FFFFFF;" d="M421.807,479.925c-16.954,0-24.6-5.486-34.281-12.432c-11.31-8.116-24.128-17.314-48.629-17.314
		c-24.5,0-37.32,9.199-48.629,17.314c-9.679,6.946-17.324,12.432-34.277,12.432s-24.598-5.486-34.276-12.432
		c-11.31-8.115-24.128-17.314-48.627-17.314s-37.317,9.199-48.626,17.315c-9.679,6.945-17.323,12.431-34.274,12.431
		c-16.952,0-24.598-5.486-34.276-12.432c-8.684-6.232-18.265-13.097-33.333-15.951c18.984,31.84,53.759,53.172,93.522,53.172h34.291
		c5.872-3.019,12.644-4.958,22.697-4.958c10.053,0,16.826,1.939,22.698,4.958h120.411c5.873-3.019,12.646-4.958,22.701-4.958
		c10.054,0,16.828,1.939,22.701,4.958h34.304c39.763,0,74.538-21.332,93.522-53.172c-15.07,2.854-24.651,9.719-33.336,15.951
		C446.407,474.438,438.761,479.925,421.807,479.925z"/>
</g>
<path style="fill:#103B9B;" d="M312.401,7.302H114.884C55.349,7.954,7.286,56.41,7.286,116.099v139.909H312.4L312.401,7.302
	L312.401,7.302z"/>
<g>
	<polygon style="fill:#FFFFFF;" points="312.401,165.22 312.401,98.067 193.42,98.067 193.42,7.286 126.267,7.286 126.267,98.067 
		7.286,98.067 7.286,165.22 126.267,165.22 126.267,256 193.42,256 193.42,165.22 	"/>
	<path style="fill:#FFFFFF;" d="M159.844,171.997L285.848,256h26.553v-63.006l-92.027-61.351l92.027-61.351V7.286h-26.553
		L159.844,91.289L58.536,23.751C39.097,35.894,23.77,54,15.116,75.511l84.198,56.132L7.286,192.994V256h26.552L159.844,171.997z"/>
</g>
<g>
	<path style="fill:#ED1F34;" d="M180.021,145.094l132.38,88.254v-26.382l-132.613-88.619l132.613-88.409V7.286h-6.376
		L139.676,118.198L32.34,46.641c-4.776,5.753-8.966,12.007-12.489,18.67l119.602,79.926L7.286,233.348V256h6.376L180.021,145.094z"
		/>
	<polygon style="fill:#ED1F34;" points="312.401,149.675 312.401,113.612 177.876,113.612 177.876,7.286 141.812,7.286 
		141.812,113.612 7.286,113.612 7.286,149.675 141.812,149.675 141.812,256 177.876,256 177.876,149.675 	"/>
</g>
<path d="M395.901,0H116.099C52.082,0,0,52.082,0,116.099v279.803C0,459.918,52.082,512,116.099,512h279.803
	C459.918,512,512,459.918,512,395.901V116.099C512,52.082,459.918,0,395.901,0z M116.099,14.573h189.015v234.148l-290.541-0.008
	V116.099C14.573,60.117,60.118,14.573,116.099,14.573z M497.427,395.901c0,55.981-45.545,101.526-101.526,101.526H116.099
	c-55.981,0-101.526-45.545-101.526-101.526V263.286l297.827,0.008c1.933,0,3.786-0.767,5.152-2.134
	c1.367-1.367,2.135-3.22,2.135-5.153V14.573h76.214c55.981,0,101.526,45.544,101.526,101.526V395.901z"/>
<circle style="fill:#259245;" cx="402.7" cy="269.65" r="56.21"/>
<path d="M466.192,269.649c0-35.011-28.484-63.494-63.494-63.494s-63.494,28.483-63.494,63.494c0,32.545,24.618,59.435,56.208,63.064
	v131.65c0,4.025,3.262,7.287,7.286,7.287c4.025,0,7.287-3.262,7.287-7.287v-131.65C441.573,329.084,466.192,302.194,466.192,269.649
	z M402.697,318.57c-26.975,0-48.921-21.946-48.921-48.921s21.946-48.921,48.921-48.921s48.921,21.946,48.921,48.921
	C451.619,296.624,429.673,318.57,402.697,318.57z"/>
<path style="fill:#ED1F34;" d="M424.806,368.351c-9.741,0-18.154,5.681-22.109,13.911c-3.954-8.23-12.368-13.911-22.109-13.911
	c-13.539,0-24.515,10.976-24.515,24.515s9.024,24.515,9.024,24.515h75.199c0,0,9.024-10.976,9.024-24.515
	C449.321,379.327,438.345,368.351,424.806,368.351z"/>
<path d="M440.297,424.668h-75.199c-2.179,0-4.244-0.975-5.628-2.659c-0.436-0.53-10.682-13.176-10.682-29.142
	c0-17.535,14.266-31.802,31.801-31.802c8.341,0,16.259,3.336,22.109,8.972c5.849-5.636,13.768-8.972,22.108-8.972
	c17.535,0,31.802,14.267,31.802,31.802c0,15.967-10.246,28.612-10.682,29.142C444.542,423.693,442.476,424.668,440.297,424.668z
	 M368.894,410.095h67.607c2.188-3.497,5.533-10.024,5.533-17.229c0-9.5-7.729-17.229-17.229-17.229
	c-6.585,0-12.685,3.84-15.541,9.781c-1.213,2.525-3.767,4.131-6.567,4.131c-2.801,0-5.355-1.606-6.567-4.131
	c-2.856-5.941-8.955-9.781-15.542-9.781c-9.499,0-17.228,7.729-17.228,17.229C363.361,400.071,366.706,406.598,368.894,410.095z"/>
<g>
</g>
<g>
</g>
<g>
</g>
<g>
</g>
<g>
</g>
<g>
</g>
<g>
</g>
<g>
</g>
<g>
</g>
<g>
</g>
<g>
</g>
<g>
</g>
<g>
</g>
<g>
</g>
<g>
</g>
</svg>
