<?xml version="1.0" encoding="iso-8859-1"?>
<!-- Generator: Adobe Illustrator 19.0.0, SVG Export Plug-In . SVG Version: 6.00 Build 0)  -->
<svg version="1.1" id="Layer_1" xmlns="http://www.w3.org/2000/svg" xmlns:xlink="http://www.w3.org/1999/xlink" x="0px" y="0px"
	 viewBox="0 0 512 512" style="enable-background:new 0 0 512 512;" xml:space="preserve">
<rect x="7.286" y="173.1" style="fill:#FFFFFF;" width="497.43" height="165.81"/>
<path style="fill:#ED1F34;" d="M395.901,7.287H116.099C56.003,7.287,7.286,56.004,7.286,116.099v56.997h497.427v-56.997
	C504.714,56.004,455.997,7.287,395.901,7.287z"/>
<path style="fill:#333333;" d="M7.286,395.901c0,60.095,48.717,108.812,108.812,108.812h279.803
	c60.095,0,108.812-48.717,108.812-108.812v-56.997H7.286V395.901z"/>
<path d="M395.901,512H116.099C52.082,512,0,459.918,0,395.901V116.099C0,52.082,52.082,0,116.099,0h279.803
	C459.918,0,512,52.082,512,116.099v279.803C512,459.918,459.918,512,395.901,512z M116.099,14.573
	c-55.982,0-101.526,45.544-101.526,101.526v279.803c0,55.982,45.544,101.526,101.526,101.526h279.803
	c55.981,0,101.526-45.544,101.526-101.526V116.099c0-55.982-45.545-101.526-101.526-101.526
	C395.902,14.573,116.099,14.573,116.099,14.573z"/>
<path d="M73.61,346.191H7.286c-4.024,0-7.286-3.262-7.286-7.286s3.262-7.286,7.286-7.286H73.61c4.024,0,7.286,3.262,7.286,7.286
	S77.634,346.191,73.61,346.191z"/>
<path d="M504.714,346.191H106.772c-4.024,0-7.286-3.262-7.286-7.286s3.262-7.286,7.286-7.286h397.942
	c4.025,0,7.286,3.262,7.286,7.286S508.738,346.191,504.714,346.191z"/>
<path d="M504.714,180.382H7.286c-4.024,0-7.286-3.262-7.286-7.286s3.262-7.286,7.286-7.286h497.427c4.025,0,7.286,3.262,7.286,7.286
	S508.738,180.382,504.714,180.382z"/>
<g>
	<path style="fill:#259245;" d="M228.641,228.089c-4.024,0-7.287,3.262-7.287,7.286v34.966H199.45v-46.993
		c0-4.024-3.262-7.286-7.286-7.286s-7.287,3.262-7.287,7.286v46.993h-70.644c-4.024,0-7.286,3.262-7.286,7.287v11.534
		c0,4.024,3.262,7.286,7.286,7.286s7.286-3.262,7.286-7.286v-4.248h107.122c4.024,0,7.286-3.262,7.286-7.286v-42.252
		C235.928,231.351,232.666,228.089,228.641,228.089z"/>
	<path style="fill:#259245;" d="M397.767,270.341h-17.584v-23.12c0-4.024-3.262-7.286-7.287-7.286s-7.286,3.262-7.286,7.286v23.12
		h-21.905v-47.503c0-4.024-3.262-7.286-7.286-7.286c-4.025,0-7.287,3.262-7.287,7.286v47.503h-21.905v-17.106
		c0-4.024-3.262-7.286-7.286-7.286c-4.025,0-7.286,3.262-7.286,7.286v24.393c0,4.024,3.262,7.286,7.286,7.286h97.827
		c4.025,0,7.286-3.262,7.286-7.286S401.791,270.341,397.767,270.341z"/>
</g>
<g>
</g>
<g>
</g>
<g>
</g>
<g>
</g>
<g>
</g>
<g>
</g>
<g>
</g>
<g>
</g>
<g>
</g>
<g>
</g>
<g>
</g>
<g>
</g>
<g>
</g>
<g>
</g>
<g>
</g>
</svg>
