<?xml version="1.0" encoding="iso-8859-1"?>
<!-- Generator: Adobe Illustrator 19.0.0, SVG Export Plug-In . SVG Version: 6.00 Build 0)  -->
<svg version="1.1" id="Layer_1" xmlns="http://www.w3.org/2000/svg" xmlns:xlink="http://www.w3.org/1999/xlink" x="0px" y="0px"
	 viewBox="0 0 512 512" style="enable-background:new 0 0 512 512;" xml:space="preserve">
<path style="fill:#259245;" d="M395.901,7.287H116.099C56.003,7.287,7.286,56.004,7.286,116.099v56.997h497.427v-56.997
	C504.714,56.004,455.997,7.287,395.901,7.287z"/>
<path style="fill:#ED1F34;" d="M7.286,395.901c0,60.095,48.717,108.812,108.812,108.812h279.803
	c60.095,0,108.812-48.717,108.812-108.812v-56.997H7.286V395.901z"/>
<path style="fill:#FFFFFF;" d="M504.714,173.096h-30.977v-4.974c0-4.024-3.262-7.286-7.286-7.286c-4.025,0-7.286,3.262-7.286,7.286
	v4.974h-23.691v-4.974c0-4.024-3.262-7.286-7.286-7.286c-4.025,0-7.287,3.262-7.287,7.286v4.974H397.21v-4.974
	c0-4.024-3.262-7.286-7.286-7.286c-4.025,0-7.286,3.262-7.286,7.286v4.974h-23.69v-4.974c0-4.024-3.262-7.286-7.286-7.286
	c-4.025,0-7.286,3.262-7.286,7.286v4.974h-23.691v-4.974c0-4.024-3.262-7.286-7.287-7.286s-7.286,3.262-7.286,7.286v4.974h-23.691
	v-4.974c0-4.024-3.262-7.286-7.286-7.286c-4.025,0-7.286,3.262-7.286,7.286v4.974h-23.691v-4.974c0-4.024-3.262-7.286-7.286-7.286
	c-4.025,0-7.286,3.262-7.286,7.286v4.974h-23.691v-4.974c0-4.024-3.262-7.286-7.286-7.286c-4.025,0-7.287,3.262-7.287,7.286v4.974
	h-23.691v-4.974c0-4.024-3.262-7.286-7.286-7.286c-4.025,0-7.287,3.262-7.287,7.286v4.974h-23.69v-4.974
	c0-4.024-3.262-7.286-7.287-7.286s-7.286,3.262-7.286,7.286v4.974H91.101v-4.974c0-4.024-3.262-7.286-7.287-7.286
	s-7.287,3.262-7.287,7.286v4.974h-23.69v-4.974c0-4.024-3.262-7.286-7.286-7.286s-7.286,3.262-7.286,7.286v4.974H7.286v165.809
	h30.977v4.974c0,4.024,3.262,7.286,7.286,7.286s7.286-3.262,7.286-7.286v-4.974h23.691v4.974c0,4.024,3.262,7.286,7.287,7.286
	s7.287-3.262,7.287-7.286v-4.974h23.691v4.974c0,4.024,3.262,7.286,7.286,7.286c4.025,0,7.287-3.262,7.287-7.286v-4.974h23.69v4.974
	c0,4.024,3.262,7.286,7.287,7.286c4.025,0,7.286-3.262,7.286-7.286v-4.974h23.691v4.974c0,4.024,3.262,7.286,7.287,7.286
	c4.025,0,7.286-3.262,7.286-7.286v-4.974h23.691v4.974c0,4.024,3.262,7.286,7.286,7.286c4.025,0,7.286-3.262,7.286-7.286v-4.974
	h23.691v4.974c0,4.024,3.262,7.286,7.286,7.286c4.025,0,7.286-3.262,7.286-7.286v-4.974h23.691v4.974
	c0,4.024,3.262,7.286,7.286,7.286c4.025,0,7.287-3.262,7.287-7.286v-4.974h23.691v4.974c0,4.024,3.262,7.286,7.286,7.286
	c4.025,0,7.286-3.262,7.286-7.286v-4.974h23.69v4.974c0,4.024,3.262,7.286,7.286,7.286c4.025,0,7.286-3.262,7.286-7.286v-4.974
	h23.691v4.974c0,4.024,3.262,7.286,7.287,7.286s7.286-3.262,7.286-7.286v-4.974h23.691v4.974c0,4.024,3.262,7.286,7.286,7.286
	c4.025,0,7.286-3.262,7.286-7.286v-4.974h30.977V173.096H504.714z"/>
<g>
	<path style="fill:#ED1F34;" d="M256,284.943c-18.678,0-33.874-15.196-33.874-33.874c0-9.713,4.178-18.972,11.465-25.403
		c3.016-2.663,7.62-2.376,10.285,0.641c2.663,3.017,2.376,7.622-0.641,10.285c-4.153,3.665-6.535,8.942-6.535,14.477
		c0,10.643,8.658,19.301,19.301,19.301s19.301-8.658,19.301-19.301c0-5.535-2.382-10.811-6.535-14.477
		c-3.017-2.663-3.305-7.268-0.641-10.285s7.268-3.305,10.285-0.641c7.286,6.431,11.465,15.69,11.465,25.403
		C289.874,269.747,274.678,284.943,256,284.943z"/>
	<path style="fill:#ED1F34;" d="M256,290.369c-4.025,0-7.286-3.262-7.286-7.286v-36.897c0-4.024,3.262-7.286,7.286-7.286
		c4.025,0,7.286,3.262,7.286,7.286v36.897C263.286,287.106,260.025,290.369,256,290.369z"/>
</g>
<path d="M395.901,512H116.099C52.082,512,0,459.918,0,395.901V116.099C0,52.082,52.082,0,116.099,0h279.803
	C459.918,0,512,52.082,512,116.099v279.803C512,459.918,459.918,512,395.901,512z M116.099,14.573
	c-55.981,0-101.526,45.544-101.526,101.526v279.803c0,55.982,45.544,101.526,101.526,101.526h279.803
	c55.981,0,101.526-45.544,101.526-101.526V116.099c0-55.982-45.545-101.526-101.526-101.526
	C395.902,14.573,116.099,14.573,116.099,14.573z"/>
<g>
</g>
<g>
</g>
<g>
</g>
<g>
</g>
<g>
</g>
<g>
</g>
<g>
</g>
<g>
</g>
<g>
</g>
<g>
</g>
<g>
</g>
<g>
</g>
<g>
</g>
<g>
</g>
<g>
</g>
</svg>
