<?xml version="1.0" encoding="iso-8859-1"?>
<!-- Generator: Adobe Illustrator 19.0.0, SVG Export Plug-In . SVG Version: 6.00 Build 0)  -->
<svg version="1.1" id="Layer_1" xmlns="http://www.w3.org/2000/svg" xmlns:xlink="http://www.w3.org/1999/xlink" x="0px" y="0px"
	 viewBox="0 0 512 512" style="enable-background:new 0 0 512 512;" xml:space="preserve">
<path style="fill:#FFE000;" d="M395.9,7.3H116.1c-30,0-57.3,12.2-76.9,31.9l0,0l0,0C19.5,58.8,7.3,86.1,7.3,116.1v279.8
	C7.3,456,56,504.7,116.1,504.7h279.8c30,0,57.3-12.2,76.9-31.9l0,0l0,0c19.7-19.7,31.9-46.9,31.9-76.9V116.1
	C504.7,56,456,7.3,395.9,7.3z"/>
<path style="fill:#ED1F34;" d="M395.9,7.3H116.1c-30,0-57.3,12.2-76.9,31.9l433.7,433.7c19.7-19.7,31.9-46.9,31.9-76.9V116.1
	C504.7,56,456,7.3,395.9,7.3z"/>
<g>
	<path style="fill:#E7D3CD;" d="M271.5,232.5l-3.6-68c-0.4-6.5-5.6-9.9-11.7-7.6l-79.3,30.2c14.1,8.7,50.3,7.5,68.3,0.2l-2.6,43.9
		L271.5,232.5z"/>
	<path style="fill:#E7D3CD;" d="M201.9,299.7l39.3-19.7l-13.4-25.7l-57.1,37.1c-5.4,3.6-5.8,9.8-0.7,13.9l65.8,53.6
		C236.3,342.5,217.2,311.6,201.9,299.7z"/>
	<path style="fill:#E7D3CD;" d="M268.6,281.2l60.7,30.9c5.8,2.9,11.4,0.1,12.4-6.3l13.5-83.8c-14.5,7.9-31.7,39.8-34.3,59.1
		l-36.7-24.2L268.6,281.2z"/>
</g>
<path d="M395.9,0H116.1C52.1,0,0,52.1,0,116.1v279.8C0,459.9,52.1,512,116.1,512h279.8c64,0,116.1-52.1,116.1-116.1V116.1
	C512,52.1,459.9,0,395.9,0z M497.4,395.9c0,56-45.5,101.5-101.5,101.5H116.1c-56,0-101.5-45.5-101.5-101.5V116.1
	c0-56,45.5-101.5,101.5-101.5h279.8c56,0,101.5,45.5,101.5,101.5V395.9L497.4,395.9z"/>
<path d="M271.5,239.8c0.1,0,0.3,0,0.4,0c4-0.2,7.1-3.6,6.9-7.7l-3.6-68c-0.3-5.4-2.9-10.1-7-12.8c-4.2-2.7-9.5-3.1-14.5-1.2
	l-73.9,28.1l-8.3-12.7c-2.2-3.4-6.7-4.3-10.1-2.1c-3.4,2.2-4.3,6.7-2.1,10.1l15.6,23.9c1.4,2.1,3.7,3.3,6.1,3.3c1.4,0,2.7-0.4,4-1.2
	c0.5-0.3,1-0.7,1.4-1.2c15.1,3.4,35.4,2.7,51-0.9l-2,33.4c-0.2,4,2.8,7.5,6.8,7.7s7.5-2.8,7.7-6.8l2.6-43.9c0.1-2.5-1-4.9-3-6.4
	s-4.7-1.8-7-0.8c-10.6,4.3-27.4,6-41.3,5.1l57.6-21.9c0.9-0.3,1.4-0.2,1.4-0.2s0.3,0.4,0.4,1.4l3.6,68
	C264.5,236.8,267.7,239.8,271.5,239.8z"/>
<path d="M244.5,286.5c3.6-1.8,5.1-6.2,3.3-9.8c-1.8-3.6-6.2-5.1-9.8-3.3l-39.3,19.7c-2.2,1.1-3.7,3.3-4,5.8
	c-0.2,2.5,0.8,4.9,2.8,6.5c9,7,18.9,20.7,25.1,33.2l-47.8-39c-0.8-0.6-0.9-1.1-0.9-1.1c0-0.1,0.2-0.5,1-1l57.1-37.1
	c3.4-2.2,4.3-6.7,2.1-10.1c-2.2-3.4-6.7-4.3-10.1-2.1l-57.1,37.1c-4.6,3-7.3,7.5-7.6,12.5c-0.3,4.9,2,9.8,6.2,13.2l61.2,49.9
	l-6.9,13.6c-1.8,3.6-0.4,8,3.2,9.8c1.1,0.5,2.2,0.8,3.3,0.8c2.7,0,5.2-1.5,6.5-4l12.9-25.4c1.8-3.6,0.4-8-3.2-9.8
	c-0.6-0.3-1.1-0.5-1.7-0.6c-4.6-14.8-15.3-32-26.3-43.7L244.5,286.5z"/>
<path d="M375.9,213.5l-28.5,1.6c-4,0.2-7.1,3.7-6.9,7.7c0,0.6,0.1,1.2,0.3,1.8c-10.5,11.4-20.1,29.3-24.7,44.6l-28-18.4
	c-3.4-2.2-7.9-1.3-10.1,2.1c-2.2,3.4-1.3,7.9,2.1,10.1l36.7,24.2c2.1,1.4,4.7,1.6,7,0.6s3.9-3.2,4.2-5.6
	c1.6-11.3,8.5-26.7,16.2-38.3l-9.8,60.9c-0.2,1-0.5,1.3-0.5,1.3c-0.1,0-0.5,0.1-1.4-0.3l-60.7-30.9c-3.6-1.8-8-0.4-9.8,3.2
	s-0.4,8,3.2,9.8l60.7,30.9c2.5,1.3,5.2,1.9,7.8,1.9c2.4,0,4.7-0.5,6.8-1.6c4.4-2.2,7.4-6.6,8.3-12l12.6-78l15.2-0.8
	c4-0.2,7.1-3.7,6.9-7.7C383.3,216.4,379.9,213.3,375.9,213.5z"/>
<circle style="fill:#E7D3CD;" cx="256" cy="256" r="28.2"/>
<path style="fill:#F2A643;" d="M256,291.7c-19.7,0-35.7-16-35.7-35.7s16-35.7,35.7-35.7s35.7,16,35.7,35.7S275.7,291.7,256,291.7z
	 M256,235.3c-11.4,0-20.7,9.3-20.7,20.7s9.3,20.7,20.7,20.7s20.7-9.3,20.7-20.7S267.4,235.3,256,235.3z"/>
<g>
</g>
<g>
</g>
<g>
</g>
<g>
</g>
<g>
</g>
<g>
</g>
<g>
</g>
<g>
</g>
<g>
</g>
<g>
</g>
<g>
</g>
<g>
</g>
<g>
</g>
<g>
</g>
<g>
</g>
</svg>
