<?xml version="1.0" encoding="iso-8859-1"?>
<!-- Generator: Adobe Illustrator 19.0.0, SVG Export Plug-In . SVG Version: 6.00 Build 0)  -->
<svg version="1.1" id="Layer_1" xmlns="http://www.w3.org/2000/svg" xmlns:xlink="http://www.w3.org/1999/xlink" x="0px" y="0px"
	 viewBox="0 0 512 512" style="enable-background:new 0 0 512 512;" xml:space="preserve">
<path style="fill:#FFFFFF;" d="M395.901,7.286H116.099C56.003,7.286,7.286,56.004,7.286,116.099v279.803
	c0,60.095,48.717,108.812,108.812,108.812h279.803c60.095,0,108.812-48.717,108.812-108.812V116.099
	C504.714,56.004,455.997,7.286,395.901,7.286z"/>
<g>
	<path style="fill:#ED1F34;" d="M222.781,61.058c-3.727,8.25-5.887,17.984-5.887,28.416c0,42.283,39.106,62.779,39.106,62.779
		s39.106-20.497,39.106-62.779c0-10.432-2.159-20.166-5.887-28.416C289.219,61.058,222.781,61.058,222.781,61.058z"/>
	<path style="fill:#ED1F34;" d="M491.412,63.931c-9.997-18.264-25.079-33.346-43.343-43.343L256,212.657L63.931,20.588
		c-18.264,9.997-33.346,25.079-43.343,43.343L212.657,256L20.588,448.069c9.997,18.264,25.079,33.346,43.343,43.343L256,299.343
		l192.069,192.069c18.264-9.997,33.346-25.079,43.343-43.343L299.343,256L491.412,63.931z"/>
</g>
<path d="M252.618,158.707c1.059,0.555,2.221,0.833,3.382,0.833s2.323-0.277,3.382-0.833c1.756-0.921,43.009-23.073,43.009-69.233
	c0-11.091-2.259-21.955-6.532-31.416c-1.178-2.61-3.777-4.287-6.64-4.287h-66.438c-2.863,0-5.462,1.677-6.64,4.287
	c-4.273,9.461-6.532,20.324-6.532,31.416C209.608,135.634,250.861,157.786,252.618,158.707z M227.701,68.344h56.598
	c2.311,6.532,3.52,13.747,3.52,21.13c0,30.647-22.908,48.504-31.798,54.279c-8.803-5.785-31.84-23.837-31.84-54.279
	C224.181,82.092,225.39,74.876,227.701,68.344z"/>
<path d="M512,395.901V116.099c0-19.883-5.027-38.612-13.872-54.99c-0.194-0.463-0.441-0.908-0.736-1.331
	c-10.548-18.932-26.237-34.622-45.17-45.17c-0.422-0.294-0.866-0.54-1.328-0.734C434.516,5.028,415.786,0,395.901,0H116.099
	C96.214,0,77.484,5.028,61.106,13.874c-0.462,0.194-0.906,0.44-1.328,0.734c-18.933,10.548-34.622,26.238-45.17,45.17
	c-0.294,0.423-0.541,0.868-0.736,1.331C5.027,77.487,0,96.216,0,116.099v279.803c0,19.883,5.027,38.612,13.872,54.99
	c0.194,0.463,0.441,0.908,0.736,1.331c10.548,18.933,26.237,34.622,45.17,45.17c0.422,0.294,0.866,0.54,1.328,0.734
	C77.484,506.972,96.214,512,116.099,512h279.803c19.884,0,38.614-5.027,54.992-13.874c0.462-0.194,0.906-0.44,1.328-0.734
	c18.933-10.548,34.622-26.238,45.17-45.17c0.294-0.423,0.541-0.868,0.736-1.331C506.973,434.513,512,415.784,512,395.901z
	 M497.427,116.099v279.803c0,14.105-2.894,27.545-8.115,39.763L309.647,256L489.312,76.336
	C494.533,88.554,497.427,101.994,497.427,116.099z M395.901,14.573c14.105,0,27.545,2.894,39.763,8.115L256,202.352L76.335,22.688
	c12.218-5.221,25.659-8.115,39.763-8.115H395.901z M116.099,497.427c-14.105,0-27.545-2.894-39.763-8.115L256,309.647
	l179.665,179.665c-12.218,5.221-25.659,8.115-39.763,8.115H116.099z M449.223,482.26l-188.07-188.069
	c-2.846-2.845-7.459-2.845-10.306,0L62.777,482.26c-13.4-8.304-24.733-19.637-33.038-33.038l21.081-21.081
	c2.845-2.845,2.845-7.459,0-10.305c-2.846-2.845-7.459-2.845-10.306,0l-17.827,17.827c-5.221-12.218-8.115-25.658-8.115-39.763
	V116.099c0-14.105,2.894-27.545,8.115-39.763L202.353,256L68.107,390.245c-2.845,2.845-2.845,7.459,0,10.304
	c1.423,1.423,3.288,2.134,5.153,2.134c1.864,0,3.73-0.712,5.153-2.134L217.81,261.152c1.366-1.366,2.134-3.22,2.134-5.152
	c0-1.933-0.768-3.786-2.134-5.152L29.74,62.778c8.304-13.4,19.637-24.733,33.038-33.038l188.07,188.069
	c1.423,1.423,3.288,2.134,5.153,2.134c1.864,0,3.73-0.712,5.153-2.134L449.223,29.74c13.4,8.304,24.733,19.637,33.038,33.038
	L294.19,250.848c-1.366,1.366-2.134,3.22-2.134,5.152c0,1.933,0.767,3.786,2.134,5.152l188.071,188.07
	C473.956,462.623,462.623,473.956,449.223,482.26z"/>
<g>
</g>
<g>
</g>
<g>
</g>
<g>
</g>
<g>
</g>
<g>
</g>
<g>
</g>
<g>
</g>
<g>
</g>
<g>
</g>
<g>
</g>
<g>
</g>
<g>
</g>
<g>
</g>
<g>
</g>
</svg>
