<?xml version="1.0" encoding="iso-8859-1"?>
<!-- Generator: Adobe Illustrator 19.0.0, SVG Export Plug-In . SVG Version: 6.00 Build 0)  -->
<svg version="1.1" id="Layer_1" xmlns="http://www.w3.org/2000/svg" xmlns:xlink="http://www.w3.org/1999/xlink" x="0px" y="0px"
	 viewBox="0 0 512 512" style="enable-background:new 0 0 512 512;" xml:space="preserve">
<path style="fill:#259245;" d="M395.901,7.286H116.099C56.003,7.286,7.286,56.004,7.286,116.099v279.803
	c0,60.095,48.717,108.812,108.812,108.812h279.803c60.095,0,108.812-48.717,108.812-108.812V116.099
	C504.714,56.004,455.997,7.286,395.901,7.286z"/>
<path style="fill:#FFE000;" d="M470.437,36.832l-214.806,189.23L41.204,37.166C20.315,56.993,7.286,85.024,7.286,116.099v279.803
	c0,31.075,13.028,59.105,33.918,78.933l214.427-188.896l214.806,189.23c18.207-17.127,30.508-40.454,33.539-66.609V103.441
	C500.946,77.286,488.644,53.959,470.437,36.832z"/>
<g>
	<path style="fill:#333333;" d="M12.784,81.878c-3.563,10.761-5.497,22.265-5.497,34.221v279.803c0,11.956,1.934,23.46,5.497,34.221
		L210.441,256L12.784,81.878z"/>
	<path style="fill:#333333;" d="M499.052,81.373L300.822,256l198.231,174.627c2.376-7.06,4.041-14.444,4.924-22.068V103.441
		C503.093,95.817,501.428,88.433,499.052,81.373z"/>
</g>
<path d="M512,395.901V116.099c0-12.756-2.074-25.035-5.892-36.526c-0.088-0.346-0.201-0.687-0.341-1.02
	C490.124,32.905,446.785,0,395.901,0H116.099C64.971,0,21.459,33.222,6.009,79.213c-0.111,0.282-0.206,0.569-0.28,0.861
	C2.016,91.419,0,103.527,0,116.099v279.803c0,12.571,2.016,24.679,5.729,36.026c0.074,0.291,0.169,0.579,0.28,0.861
	C21.459,478.778,64.971,512,116.099,512h279.803c50.884,0,94.223-32.905,109.865-78.553c0.14-0.333,0.254-0.674,0.341-1.02
	C509.926,420.936,512,408.658,512,395.901z M497.427,116.099v279.803c0,7.393-0.802,14.601-2.309,21.548L311.844,256L495.118,94.55
	C496.625,101.498,497.427,108.706,497.427,116.099z M14.573,395.901V116.099c0-7.199,0.759-14.225,2.19-21.005L199.418,256
	L16.764,416.906C15.332,410.126,14.573,403.101,14.573,395.901z M395.901,497.427H116.099c-43.157,0-80.105-27.07-94.771-65.12
	l193.93-170.839c1.57-1.383,2.47-3.375,2.47-5.468c0-2.093-0.9-4.084-2.47-5.468L21.328,79.693
	c14.666-38.05,51.614-65.12,94.771-65.12h279.803c42.973,0,79.793,26.84,94.586,64.634L296.005,250.532
	c-1.57,1.383-2.47,3.375-2.47,5.468c0,2.093,0.899,4.084,2.47,5.468l194.482,171.326
	C475.694,470.587,438.874,497.427,395.901,497.427z"/>
<g>
</g>
<g>
</g>
<g>
</g>
<g>
</g>
<g>
</g>
<g>
</g>
<g>
</g>
<g>
</g>
<g>
</g>
<g>
</g>
<g>
</g>
<g>
</g>
<g>
</g>
<g>
</g>
<g>
</g>
</svg>
