<?xml version="1.0" encoding="iso-8859-1"?>
<!-- Generator: Adobe Illustrator 19.0.0, SVG Export Plug-In . SVG Version: 6.00 Build 0)  -->
<svg version="1.1" id="Layer_1" xmlns="http://www.w3.org/2000/svg" xmlns:xlink="http://www.w3.org/1999/xlink" x="0px" y="0px"
	 viewBox="0 0 512 512" style="enable-background:new 0 0 512 512;" xml:space="preserve">
<rect x="7.286" y="173.1" style="fill:#FFFFFF;" width="497.43" height="165.81"/>
<path style="fill:#259245;" d="M7.286,395.901c0,60.095,48.717,108.812,108.812,108.812h279.803
	c60.095,0,108.812-48.717,108.812-108.812v-56.997H7.286V395.901z"/>
<path style="fill:#333333;" d="M395.901,7.286H116.099C56.003,7.286,7.286,56.004,7.286,116.099v56.997h497.427v-56.997
	C504.713,56.004,455.997,7.286,395.901,7.286z"/>
<path style="fill:#ED1F34;" d="M39.157,39.157C19.466,58.848,7.286,86.051,7.286,116.099v279.803
	c0,30.047,12.179,57.251,31.871,76.942L256,256L39.157,39.157z"/>
<polygon style="fill:#FFFFFF;" points="97.929,212.691 107.511,236.102 131.789,228.997 119.46,251.086 140.152,265.637 
	115.195,269.77 116.72,295.02 97.929,278.085 79.138,295.02 80.662,269.77 55.705,265.637 76.397,251.086 64.068,228.997 
	88.346,236.102 "/>
<path d="M395.901,0H116.099C52.082,0,0,52.082,0,116.099v279.803C0,459.918,52.082,512,116.099,512h279.803
	C459.918,512,512,459.918,512,395.901V116.099C512,52.082,459.918,0,395.901,0z M261.152,250.848l-70.466-70.466h306.74v151.236
	h-306.74l70.466-70.466c1.367-1.367,2.134-3.22,2.134-5.152S262.519,252.214,261.152,250.848z M395.901,14.573
	c55.982,0,101.526,45.544,101.526,101.526v49.71H176.114L49.679,39.374c17.816-15.444,41.046-24.801,66.42-24.801H395.901z
	 M14.573,116.099c0-25.374,9.357-48.604,24.801-66.42l128.564,128.564c0.003,0.003,0.006,0.006,0.009,0.009L245.695,256
	l-75.618,75.618h-0.667c-4.024,0-7.286,3.262-7.286,7.286c0,0.214,0.014,0.425,0.032,0.635L39.374,462.321
	c-15.444-17.816-24.801-41.046-24.801-66.42V116.099z M395.901,497.427H116.099c-25.374,0-48.604-9.357-66.42-24.801
	l126.435-126.435h321.313v49.71C497.427,451.883,451.883,497.427,395.901,497.427z"/>
<g>
</g>
<g>
</g>
<g>
</g>
<g>
</g>
<g>
</g>
<g>
</g>
<g>
</g>
<g>
</g>
<g>
</g>
<g>
</g>
<g>
</g>
<g>
</g>
<g>
</g>
<g>
</g>
<g>
</g>
</svg>
