<?xml version="1.0" encoding="iso-8859-1"?>
<!-- Generator: Adobe Illustrator 19.0.0, SVG Export Plug-In . SVG Version: 6.00 Build 0)  -->
<svg version="1.1" id="Layer_1" xmlns="http://www.w3.org/2000/svg" xmlns:xlink="http://www.w3.org/1999/xlink" x="0px" y="0px"
	 viewBox="0 0 512 512" style="enable-background:new 0 0 512 512;" xml:space="preserve">
<path style="fill:#259245;" d="M7.286,395.901c0,60.095,48.717,108.812,108.812,108.812h279.803
	c60.095,0,108.812-48.717,108.812-108.812v-26.99H7.286V395.901z"/>
<path style="fill:#333333;" d="M395.901,7.286H116.099C56.003,7.286,7.286,56.004,7.286,116.099v26.989h497.427v-26.989
	C504.714,56.004,455.997,7.286,395.901,7.286z"/>
<rect x="7.286" y="184.53" style="fill:#ED1F34;" width="497.43" height="142.94"/>
<g>
	<rect x="7.286" y="143.09" style="fill:#FFFFFF;" width="497.43" height="41.44"/>
	<rect x="7.286" y="327.47" style="fill:#FFFFFF;" width="497.43" height="41.44"/>
</g>
<path d="M395.901,0H116.099C52.082,0,0,52.082,0,116.099v279.803C0,459.918,52.082,512,116.099,512h279.803
	C459.918,512,512,459.918,512,395.901V116.099C512,52.082,459.918,0,395.901,0z M116.099,14.573h279.803
	c55.981,0,101.526,45.544,101.526,101.526v61.145H14.573v-61.145C14.573,60.118,60.118,14.573,116.099,14.573z M395.901,497.427
	H116.099c-55.981,0-101.526-45.545-101.526-101.526v-61.145H438.39c4.025,0,7.287-3.262,7.287-7.287s-3.262-7.286-7.287-7.286
	H14.573V191.817h482.854v128.366h-25.876c-4.025,0-7.286,3.262-7.286,7.286c0,4.025,3.262,7.287,7.286,7.287h25.876v61.145
	C497.427,451.882,451.882,497.427,395.901,497.427z"/>
<path d="M266.306,256l149.049-149.049c2.845-2.846,2.845-7.459,0-10.305c-2.846-2.844-7.459-2.844-10.306,0L256,245.695
	L106.951,96.645c-2.846-2.844-7.459-2.844-10.305,0c-2.845,2.846-2.845,7.459,0,10.305L245.695,256L96.645,405.049
	c-2.845,2.846-2.845,7.459,0,10.306c1.423,1.422,3.288,2.134,5.153,2.134c1.864,0,3.73-0.712,5.153-2.134L256,266.306
	l149.049,149.049c1.423,1.422,3.289,2.134,5.153,2.134s3.73-0.712,5.153-2.134c2.845-2.846,2.845-7.459,0-10.306L266.306,256z"/>
<path style="fill:#ED1F34;" d="M256,103.456c-28.188,0-82.904,68.297-82.904,152.544S227.813,408.544,256,408.544
	S338.905,340.248,338.905,256S284.188,103.456,256,103.456z"/>
<g>
	<path style="fill:#333333;" d="M314.862,351.942c13.85-26.208,24.042-59.587,24.042-95.942s-10.193-69.734-24.042-95.942
		c-13.85,26.208-24.042,59.587-24.042,95.942S301.013,325.734,314.862,351.942z"/>
	<path style="fill:#333333;" d="M197.138,351.942c-13.85-26.208-24.042-59.587-24.042-95.942s10.193-69.734,24.042-95.942
		c13.85,26.208,24.042,59.587,24.042,95.942S210.988,325.734,197.138,351.942z"/>
</g>
<path style="fill:#FFFFFF;" d="M256,415.831c-4.025,0-7.286-3.262-7.286-7.286v-305.09c0-4.025,3.262-7.286,7.286-7.286
	c4.025,0,7.286,3.262,7.286,7.286v305.089C263.286,412.569,260.025,415.831,256,415.831z"/>
<path d="M256,415.831c-17.41,0-39.714-18.435-58.207-48.112C185.848,348.55,165.809,308.547,165.809,256
	s20.039-92.55,31.984-111.719C216.286,114.604,238.59,96.169,256,96.169s39.714,18.436,58.207,48.112
	c11.945,19.169,31.984,59.172,31.984,111.719s-20.039,92.55-31.984,111.719C295.714,397.396,273.41,415.831,256,415.831z
	 M256,110.742c-21.929,0-75.618,62.869-75.618,145.258S234.071,401.258,256,401.258S331.618,338.389,331.618,256
	S277.929,110.742,256,110.742z"/>
<g>
</g>
<g>
</g>
<g>
</g>
<g>
</g>
<g>
</g>
<g>
</g>
<g>
</g>
<g>
</g>
<g>
</g>
<g>
</g>
<g>
</g>
<g>
</g>
<g>
</g>
<g>
</g>
<g>
</g>
</svg>
