<?xml version="1.0" encoding="iso-8859-1"?>
<!-- Generator: Adobe Illustrator 19.0.0, SVG Export Plug-In . SVG Version: 6.00 Build 0)  -->
<svg version="1.1" id="Layer_1" xmlns="http://www.w3.org/2000/svg" xmlns:xlink="http://www.w3.org/1999/xlink" x="0px" y="0px"
	 viewBox="0 0 512 512" style="enable-background:new 0 0 512 512;" xml:space="preserve">
<path style="fill:#ED1F34;" d="M395.901,7.286H116.099C56.003,7.286,7.286,56.004,7.286,116.099v279.803
	c0,60.095,48.717,108.812,108.812,108.812h279.803c60.095,0,108.812-48.717,108.812-108.812V116.099
	C504.714,56.004,455.997,7.286,395.901,7.286z"/>
<path d="M395.901,512H116.099C52.082,512,0,459.918,0,395.901V116.099C0,52.082,52.082,0,116.099,0h279.803
	C459.918,0,512,52.082,512,116.099v279.803C512,459.918,459.918,512,395.901,512z M116.099,14.573
	c-55.982,0-101.526,45.544-101.526,101.526v279.803c0,55.982,45.544,101.526,101.526,101.526h279.803
	c55.981,0,101.526-45.544,101.526-101.526V116.099c0-55.982-45.544-101.526-101.526-101.526
	C395.902,14.573,116.099,14.573,116.099,14.573z"/>
<g>
	<path style="fill:#FFE000;" d="M256,240.22c-21.074,12.343-35.584,34.714-36.919,60.522c10.039,8.299,22.907,13.291,36.919,13.291
		c14.012,0,26.88-4.992,36.919-13.291C291.584,274.934,277.073,252.563,256,240.22z"/>
	<path style="fill:#FFE000;" d="M308.61,231.544c-4.855-0.996-9.881-1.52-15.027-1.52c-6.696,0-13.184,0.901-19.362,2.563
		c16.148,12.536,27.996,30.36,32.9,50.854c4.406-8.176,6.912-17.52,6.912-27.44C314.033,247.265,312.082,238.981,308.61,231.544z"/>
	<path style="fill:#FFE000;" d="M256,221.58c11.469-5.211,24.187-8.138,37.583-8.138c0.626,0,1.243,0.035,1.866,0.047
		c-10.362-9.623-24.227-15.523-39.45-15.523s-29.088,5.9-39.45,15.523c0.623-0.012,1.241-0.047,1.867-0.047
		C231.813,213.442,244.531,216.37,256,221.58z"/>
	<path style="fill:#FFE000;" d="M237.779,232.586c-6.179-1.662-12.666-2.563-19.362-2.563c-5.146,0-10.171,0.524-15.027,1.52
		c-3.471,7.438-5.423,15.722-5.423,24.456c0,9.92,2.506,19.264,6.912,27.44C209.782,262.946,221.63,245.122,237.779,232.586z"/>
	<path style="fill:#FFE000;" d="M355.603,266.164l-9.809-1.73c0.259-2.778,0.398-5.59,0.398-8.434c0-2.844-0.139-5.656-0.398-8.434
		l9.809-1.73c3.963-0.699,6.609-4.478,5.91-8.442c-0.699-3.962-4.478-6.608-8.442-5.91l-9.799,1.728
		c-1.438-5.503-3.385-10.802-5.786-15.845l8.632-4.984c3.485-2.012,4.679-6.469,2.667-9.954c-2.013-3.485-6.471-4.678-9.954-2.667
		l-8.654,4.997c-3.211-4.634-6.843-8.954-10.843-12.904l6.431-7.664c2.587-3.083,2.185-7.678-0.898-10.265
		c-3.082-2.587-7.679-2.186-10.265,0.898l-6.421,7.652c-4.567-3.251-9.451-6.083-14.592-8.45l3.409-9.366
		c1.376-3.781-0.574-7.963-4.355-9.339c-3.782-1.376-7.963,0.574-9.339,4.355l-3.404,9.353c-5.357-1.474-10.911-2.467-16.614-2.925
		v-9.958c0-4.024-3.262-7.286-7.286-7.286s-7.286,3.262-7.286,7.286v9.958c-5.703,0.458-11.257,1.451-16.614,2.925l-3.404-9.353
		c-1.377-3.782-5.559-5.732-9.339-4.355c-3.782,1.377-5.731,5.558-4.355,9.339l3.409,9.366c-5.141,2.367-10.025,5.199-14.592,8.45
		l-6.421-7.652c-2.586-3.083-7.183-3.485-10.265-0.898c-3.083,2.587-3.485,7.183-0.898,10.265l6.431,7.664
		c-4,3.95-7.632,8.27-10.843,12.904l-8.654-4.997c-3.485-2.013-7.941-0.819-9.954,2.667c-2.012,3.485-0.818,7.941,2.667,9.954
		l8.632,4.984c-2.401,5.043-4.348,10.342-5.786,15.845l-9.799-1.728c-3.963-0.697-7.742,1.947-8.442,5.91
		c-0.699,3.964,1.947,7.742,5.91,8.442l9.809,1.73c-0.259,2.778-0.398,5.59-0.398,8.434s0.139,5.656,0.398,8.434l-9.809,1.73
		c-3.963,0.699-6.609,4.478-5.91,8.442c0.624,3.535,3.698,6.022,7.167,6.022c0.42,0,0.846-0.036,1.274-0.112l9.799-1.728
		c1.438,5.503,3.385,10.802,5.786,15.845l-8.632,4.984c-3.485,2.012-4.679,6.469-2.667,9.953c1.35,2.338,3.799,3.645,6.317,3.645
		c1.236,0,2.49-0.315,3.637-0.978l8.654-4.997c3.211,4.634,6.843,8.954,10.843,12.904l-6.431,7.664
		c-2.587,3.083-2.185,7.678,0.898,10.265c1.365,1.146,3.027,1.705,4.68,1.705c2.079,0,4.144-0.885,5.585-2.603l6.421-7.652
		c4.567,3.251,9.452,6.083,14.592,8.45l-3.409,9.366c-1.376,3.781,0.574,7.963,4.355,9.339c0.823,0.299,1.664,0.441,2.491,0.441
		c2.976,0,5.771-1.837,6.848-4.797l3.404-9.353c5.357,1.474,10.911,2.467,16.614,2.925v9.958c0,4.024,3.262,7.286,7.286,7.286
		s7.286-3.262,7.286-7.286v-9.958c5.703-0.458,11.257-1.451,16.614-2.925l3.404,9.353c1.077,2.959,3.871,4.797,6.848,4.797
		c0.827,0,1.669-0.142,2.491-0.441c3.782-1.377,5.731-5.558,4.355-9.339l-3.409-9.366c5.141-2.367,10.025-5.199,14.592-8.45
		l6.421,7.652c1.441,1.718,3.506,2.603,5.585,2.603c1.653,0,3.315-0.559,4.68-1.705c3.083-2.587,3.485-7.183,0.898-10.265
		l-6.431-7.664c4-3.95,7.632-8.27,10.843-12.904l8.654,4.997c1.148,0.663,2.4,0.978,3.637,0.978c2.518,0,4.967-1.307,6.317-3.645
		c2.012-3.485,0.818-7.941-2.667-9.953l-8.632-4.984c2.401-5.043,4.348-10.342,5.786-15.845l9.799,1.728
		c0.428,0.075,0.854,0.112,1.274,0.112c3.469,0,6.544-2.488,7.167-6.022C362.212,270.642,359.565,266.863,355.603,266.164z
		 M281.932,327.036c-0.023,0.008-0.046,0.013-0.069,0.021c-0.009,0.003-0.017,0.008-0.026,0.011
		c-8.066,2.941-16.767,4.55-25.837,4.55s-17.772-1.608-25.837-4.55c-0.009-0.003-0.017-0.008-0.026-0.011
		c-0.023-0.008-0.046-0.013-0.069-0.021C201.106,316.43,180.381,288.59,180.381,256c0-32.583,20.715-60.419,49.667-71.029
		c0.029-0.01,0.059-0.017,0.089-0.028c0.009-0.003,0.017-0.008,0.026-0.011c8.066-2.941,16.767-4.55,25.837-4.55
		c9.07,0,17.772,1.608,25.837,4.55c0.009,0.003,0.017,0.008,0.026,0.011c0.029,0.011,0.059,0.018,0.088,0.028
		c28.952,10.611,49.667,38.447,49.667,71.03C331.618,288.59,310.894,316.43,281.932,327.036z"/>
</g>
<g>
</g>
<g>
</g>
<g>
</g>
<g>
</g>
<g>
</g>
<g>
</g>
<g>
</g>
<g>
</g>
<g>
</g>
<g>
</g>
<g>
</g>
<g>
</g>
<g>
</g>
<g>
</g>
<g>
</g>
</svg>
