<?xml version="1.0" encoding="iso-8859-1"?>
<!-- Generator: Adobe Illustrator 19.0.0, SVG Export Plug-In . SVG Version: 6.00 Build 0)  -->
<svg version="1.1" id="Layer_1" xmlns="http://www.w3.org/2000/svg" xmlns:xlink="http://www.w3.org/1999/xlink" x="0px" y="0px"
	 viewBox="0 0 512 512" style="enable-background:new 0 0 512 512;" xml:space="preserve">
<rect x="7.286" y="120.04" style="fill:#ED1F34;" width="497.43" height="271.93"/>
<g>
	<path style="fill:#103B9B;" d="M395.901,7.286H116.099C56.003,7.286,7.286,56.004,7.286,116.099v3.938h497.427v-3.938
		C504.714,56.004,455.997,7.286,395.901,7.286z"/>
	<path style="fill:#103B9B;" d="M7.286,395.901c0,60.095,48.717,108.812,108.812,108.812h279.803
		c60.095,0,108.812-48.717,108.812-108.812v-3.938H7.286V395.901z"/>
</g>
<path style="fill:#FFFFFF;" d="M350.804,256.345c-0.033-19.342-18.265-29.532-18.265-29.532s-18.232,10.19-18.265,29.532h-23.109
	C291.137,212.633,256,188.77,256,188.77s-35.137,23.863-35.165,67.575h-23.109c-0.033-19.342-18.265-29.532-18.265-29.532
	s-18.232,10.19-18.265,29.532h-16.902v66.886h223.412v-66.886L350.804,256.345L350.804,256.345z"/>
<path d="M395.901,0H116.099C52.082,0,0,52.082,0,116.099v279.803C0,459.918,52.082,512,116.099,512h279.803
	C459.918,512,512,459.918,512,395.901V116.099C512,52.082,459.918,0,395.901,0z M116.099,14.573h279.803
	c54.86,0,99.691,43.741,101.464,98.177h-25.814c-4.025,0-7.286,3.262-7.286,7.286c0,4.025,3.262,7.286,7.286,7.286h25.876v257.353
	H14.573V127.324H438.39c4.025,0,7.287-3.262,7.287-7.286c0-4.025-3.262-7.286-7.287-7.286H14.634
	C16.408,58.314,61.239,14.573,116.099,14.573z M395.901,497.427H116.099c-54.86,0-99.691-43.741-101.464-98.177h482.731
	C495.592,453.686,450.761,497.427,395.901,497.427z"/>
<path d="M381.496,315.944h-6.504v-59.6c0-4.025-3.262-7.286-7.286-7.286h-10.334c-3.701-18.567-20.48-28.159-21.278-28.605
	c-2.209-1.235-4.901-1.235-7.11,0c-0.798,0.446-17.577,10.038-21.278,28.605h-9.557c-3.519-42.374-36.573-65.309-38.055-66.316
	c-2.471-1.679-5.717-1.679-8.188,0c-1.482,1.007-34.536,23.942-38.055,66.316h-9.557c-3.701-18.567-20.48-28.159-21.278-28.605
	c-2.209-1.235-4.901-1.235-7.11,0c-0.798,0.446-17.577,10.038-21.278,28.605h-10.334c-4.025,0-7.286,3.262-7.286,7.286v59.6h-6.504
	c-4.025,0-7.286,3.262-7.286,7.287s3.262,7.286,7.286,7.286h250.992c4.025,0,7.287-3.262,7.287-7.286
	C388.783,319.206,385.521,315.944,381.496,315.944z M151.581,263.631h9.616c4.019,0,7.28-3.254,7.286-7.274
	c0.017-10.025,6.71-17.123,11.006-20.649c4.298,3.493,10.934,10.525,10.951,20.649c0.007,4.02,3.268,7.274,7.286,7.274h23.109
	c4.023,0,7.284-3.26,7.286-7.282c0.019-30.544,19.283-50.765,27.896-58.28c8.631,7.479,27.842,27.576,27.862,58.28
	c0.003,4.022,3.264,7.282,7.286,7.282h23.109c4.019,0,7.28-3.254,7.286-7.274c0.017-10.025,6.71-17.123,11.006-20.649
	c4.298,3.493,10.934,10.525,10.951,20.649c0.007,4.02,3.268,7.274,7.286,7.274h9.616v52.313H151.581V263.631z"/>
<g>
</g>
<g>
</g>
<g>
</g>
<g>
</g>
<g>
</g>
<g>
</g>
<g>
</g>
<g>
</g>
<g>
</g>
<g>
</g>
<g>
</g>
<g>
</g>
<g>
</g>
<g>
</g>
<g>
</g>
</svg>
