<?xml version="1.0" encoding="iso-8859-1"?>
<!-- Generator: Adobe Illustrator 19.0.0, SVG Export Plug-In . SVG Version: 6.00 Build 0)  -->
<svg version="1.1" id="Layer_1" xmlns="http://www.w3.org/2000/svg" xmlns:xlink="http://www.w3.org/1999/xlink" x="0px" y="0px"
	 viewBox="0 0 512 512" style="enable-background:new 0 0 512 512;" xml:space="preserve">
<path style="fill:#ED1F34;" d="M396,7H116C55.8,7,7,55.8,7,116v280c0,60.2,48.8,109,109,109h280c60.2,0,109-48.8,109-109V116
	C505,55.8,456.2,7,396,7z"/>
<path style="fill:#FFE000;" d="M256,164.8c-47.2,0-85.6,38.4-85.6,85.6S208.8,336,256,336s85.6-38.4,85.6-85.6
	S303.2,164.8,256,164.8z"/>
<path d="M256,343.2c-51.1,0-92.7-41.6-92.7-92.7s41.6-92.7,92.7-92.7s92.7,41.6,92.7,92.7S307.1,343.2,256,343.2z M256,171.9
	c-43.3,0-78.6,35.2-78.6,78.6c0,43.3,35.2,78.6,78.6,78.6c43.3,0,78.6-35.2,78.6-78.6S299.3,171.9,256,171.9z"/>
<path style="fill:#103B9B;" d="M336.5,241.5c-40.3,0-40.3,29-80.5,29s-40.3-29-80.5-29c-40.3,0-40.3,29-80.5,29
	c-40.3,0-40.3-29-80.5-29H7.4v158.4c0,58.4,54.4,105.7,112.8,105.7H392c58.4,0,112.8-47.3,112.8-105.7V241.5h-7.1
	c-40.3,0-40.3,29-80.5,29S376.8,241.5,336.5,241.5z"/>
<g>
	<path style="fill:#FFFFFF;" d="M417.1,406.4c-22.4,0-34.1-8.4-44.4-15.8c-9.8-7.1-18.3-13.2-36.1-13.2s-26.3,6.1-36.1,13.2
		c-10.3,7.4-22,15.8-44.4,15.8s-34.1-8.4-44.4-15.8c-9.8-7.1-18.3-13.2-36.1-13.2c-17.9,0-26.3,6.1-36.1,13.2
		c-10.3,7.4-22,15.8-44.4,15.8S61,398,50.7,390.6c-9.8-7.1-18.3-13.2-36.1-13.2c-3.9,0-7.1-3.2-7.1-7.1s3.2-7.1,7.1-7.1
		c22.4,0,34.1,8.4,44.4,15.8c9.8,7.1,18.3,13.2,36.1,13.2c17.9,0,26.3-6.1,36.1-13.2c10.3-7.4,22-15.8,44.4-15.8s34.1,8.4,44.4,15.8
		c9.8,7.1,18.3,13.2,36.1,13.2c17.9,0,26.3-6.1,36.1-13.2c10.3-7.4,22-15.8,44.4-15.8s34.1,8.4,44.4,15.8
		c9.8,7.1,18.3,13.2,36.1,13.2s26.3-6.1,36.1-13.2c10.3-7.4,22-15.8,44.4-15.8c3.9,0,7.1,3.2,7.1,7.1s-3.2,7.1-7.1,7.1
		c-17.9,0-26.3,6.1-36.1,13.2C451.2,398,439.5,406.4,417.1,406.4z"/>
	<path style="fill:#FFFFFF;" d="M417.1,342c-22.4,0-34.1-8.4-44.4-15.8c-9.8-7.1-18.3-13.2-36.1-13.2s-26.3,6.1-36.1,13.2
		c-10.3,7.4-22,15.8-44.4,15.8s-34.1-8.4-44.4-15.8c-9.8-7.1-18.3-13.2-36.1-13.2c-17.9,0-26.3,6.1-36.1,13.2
		c-10.3,7.4-22,15.8-44.4,15.8s-34.1-8.4-44.4-15.8c-9.8-7.1-18.3-13.2-36.1-13.2c-3.9,0-7.1-3.2-7.1-7.1s3.2-7.1,7.1-7.1
		c22.4,0,34.1,8.4,44.4,15.8c9.8,7.1,18.3,13.2,36.1,13.2s26.3-6.1,36.1-13.2c10.3-7.4,22-15.8,44.4-15.8s34.1,8.4,44.4,15.8
		c9.8,7.1,18.3,13.2,36.1,13.2c17.9,0,26.3-6.1,36.1-13.2c10.3-7.4,22-15.8,44.4-15.8s34.1,8.4,44.4,15.8
		c9.8,7.1,18.3,13.2,36.1,13.2s26.3-6.1,36.1-13.2c10.3-7.4,22-15.8,44.4-15.8c3.9,0,7.1,3.2,7.1,7.1s-3.2,7.1-7.1,7.1
		c-17.9,0-26.3,6.1-36.1,13.2C451.2,333.6,439.5,342,417.1,342z"/>
	<path style="fill:#FFFFFF;" d="M417.1,277.6c-22.4,0-34.1-8.4-44.4-15.8c-9.8-7.1-18.3-13.2-36.1-13.2s-26.3,6.1-36.1,13.2
		c-10.3,7.4-22,15.8-44.4,15.8s-34.1-8.4-44.4-15.8c-9.8-7.1-18.3-13.2-36.1-13.2c-17.9,0-26.3,6.1-36.1,13.2
		c-10.3,7.4-22,15.8-44.4,15.8s-34.1-8.4-44.4-15.8c-9.8-7.1-18.3-13.2-36.1-13.2c-3.9,0-7.1-3.2-7.1-7.1c0-3.9,3.2-7.1,7.1-7.1
		c22.4,0,34.1,8.4,44.4,15.8c9.8,7.1,18.3,13.2,36.1,13.2s26.3-6.1,36.1-13.2c10.3-7.4,22-15.8,44.4-15.8s34.1,8.4,44.4,15.8
		c9.8,7.1,18.3,13.2,36.1,13.2c17.9,0,26.3-6.1,36.1-13.2c10.3-7.4,22-15.8,44.4-15.8s34.1,8.4,44.4,15.8
		c9.8,7.1,18.3,13.2,36.1,13.2s26.3-6.1,36.1-13.2c10.3-7.4,22-15.8,44.4-15.8c3.9,0,7.1,3.2,7.1,7.1c0,3.9-3.2,7.1-7.1,7.1
		c-17.9,0-26.3,6.1-36.1,13.2C451.2,269.2,439.5,277.6,417.1,277.6z"/>
</g>
<path d="M256,114.7c-1.7,0-3.3-0.6-4.7-1.7l-24.6-21.4h-69.5c-3.9,0-7.1-3.2-7.1-7.1s3.2-7.1,7.1-7.1h72.2c1.7,0,3.4,0.6,4.7,1.7
	L256,98.2l21.9-19.1c1.3-1.1,2.9-1.7,4.7-1.7h72.2c3.9,0,7.1,3.2,7.1,7.1s-3.2,7.1-7.1,7.1h-69.5L260.6,113
	C259.3,114.1,257.6,114.7,256,114.7z"/>
<path d="M395.9,512H116.1C52.1,512,0,459.9,0,395.9V116.1C0,52.1,52.1,0,116.1,0h279.8C459.9,0,512,52.1,512,116.1v279.8
	C512,459.9,459.9,512,395.9,512z M116.1,14.6c-56,0-101.5,45.5-101.5,101.5v279.8c0,56,45.5,101.5,101.5,101.5h279.8
	c56,0,101.5-45.5,101.5-101.5V116.1c0-56-45.5-101.5-101.5-101.5C395.9,14.6,116.1,14.6,116.1,14.6z"/>
<g>
</g>
<g>
</g>
<g>
</g>
<g>
</g>
<g>
</g>
<g>
</g>
<g>
</g>
<g>
</g>
<g>
</g>
<g>
</g>
<g>
</g>
<g>
</g>
<g>
</g>
<g>
</g>
<g>
</g>
</svg>
