<?xml version="1.0" encoding="iso-8859-1"?>
<!-- Generator: Adobe Illustrator 19.0.0, SVG Export Plug-In . SVG Version: 6.00 Build 0)  -->
<svg version="1.1" id="Layer_1" xmlns="http://www.w3.org/2000/svg" xmlns:xlink="http://www.w3.org/1999/xlink" x="0px" y="0px"
	 viewBox="0 0 512 512" style="enable-background:new 0 0 512 512;" xml:space="preserve">
<rect x="7.286" y="131.64" style="fill:#FFFFFF;" width="497.43" height="124.36"/>
<rect x="7.286" y="256" style="fill:#ED1F34;" width="497.43" height="124.36"/>
<path style="fill:#FFE000;" d="M395.901,7.286H116.099C56.003,7.286,7.286,56.004,7.286,116.099v15.545h497.427v-15.545
	C504.714,56.004,455.997,7.286,395.901,7.286z"/>
<path style="fill:#164FCE;" d="M7.286,395.901c0,60.095,48.717,108.812,108.812,108.812h279.803
	c60.095,0,108.812-48.717,108.812-108.812v-15.545H7.286V395.901z"/>
<path d="M395.901,0H116.099C52.082,0,0,52.082,0,116.099v279.803C0,459.918,52.082,512,116.099,512h279.803
	C459.918,512,512,459.918,512,395.901V116.099C512,52.082,459.918,0,395.901,0z M14.573,138.93h482.854v109.784H14.573V138.93z
	 M14.573,263.286h482.854V373.07H14.573V263.286z M116.099,14.573h279.803c55.981,0,101.526,45.544,101.526,101.526v8.258H14.573
	v-8.258C14.573,60.118,60.117,14.573,116.099,14.573z M395.901,497.427H116.099c-55.982,0-101.526-45.545-101.526-101.526v-8.258
	h482.854v8.258C497.427,451.882,451.883,497.427,395.901,497.427z"/>
<path style="fill:#259245;" d="M39.157,39.157C19.466,58.848,7.286,86.051,7.286,116.099v279.803
	c0,30.047,12.179,57.25,31.871,76.942L256,256L39.157,39.157z"/>
<path style="fill:#FFFFFF;" d="M116.047,277.954c-4.024,0-7.287-3.262-7.287-7.287v-29.336c0-4.025,3.262-7.287,7.287-7.287
	s7.287,3.262,7.287,7.287v29.336C123.334,274.693,120.071,277.954,116.047,277.954z"/>
<path d="M395.901,0H116.099C84.423,0,55.675,12.756,34.707,33.394c-0.243,0.188-0.48,0.387-0.703,0.61s-0.422,0.46-0.61,0.703
	C12.756,55.675,0,84.423,0,116.099v279.803c0,31.676,12.756,60.424,33.395,81.392c0.188,0.243,0.387,0.48,0.61,0.703
	s0.46,0.422,0.703,0.61C55.675,499.244,84.423,512,116.099,512h279.803C459.918,512,512,459.918,512,395.901V116.099
	C512,52.082,459.918,0,395.901,0z M14.573,116.099c0-25.374,9.357-48.603,24.801-66.419L245.695,256L39.374,462.321
	c-15.444-17.816-24.801-41.046-24.801-66.419V116.099z M497.427,395.901c0,55.981-45.544,101.526-101.526,101.526H116.099
	c-25.374,0-48.603-9.357-66.419-24.801l211.473-211.473c2.846-2.846,2.846-7.459,0-10.306L49.679,39.374
	c17.816-15.444,41.046-24.801,66.419-24.801h279.803c55.981,0,101.526,45.544,101.526,101.526V395.901z"/>
<path style="fill:#FFFFFF;" d="M114.004,214.751c-22.781,0-41.249,18.468-41.249,41.249s18.468,41.248,41.249,41.248
	c0.685,0,1.366-0.019,2.044-0.051c-6.834,3.843-14.715,6.044-23.114,6.044c-26.091,0-47.242-21.151-47.242-47.241
	c0-26.091,21.151-47.242,47.242-47.242c8.399,0,16.28,2.201,23.114,6.044C115.37,214.77,114.689,214.751,114.004,214.751z"/>
<path d="M92.933,310.529c-30.067,0-54.528-24.461-54.528-54.529s24.461-54.529,54.528-54.529c9.198,0,18.291,2.342,26.324,6.778
	c2.425,1.183,4.097,3.673,4.097,6.553c0,4.014-3.246,7.27-7.256,7.286c-0.131-0.003-0.263-0.002-0.397-0.009
	c-0.562-0.027-1.128-0.043-1.697-0.043c-18.727,0-33.962,15.235-33.962,33.962s15.235,33.962,33.962,33.962
	c0.569,0,1.135-0.016,1.697-0.043c3.377-0.157,6.417,2.019,7.35,5.265c0.933,3.247-0.487,6.709-3.432,8.364
	C111.497,308.115,102.269,310.529,92.933,310.529z M85.5,216.738c-18.493,3.493-32.522,19.77-32.522,39.262
	s14.029,35.769,32.522,39.262C73.368,286.431,65.468,272.121,65.468,256S73.368,225.569,85.5,216.738z"/>
<g>
</g>
<g>
</g>
<g>
</g>
<g>
</g>
<g>
</g>
<g>
</g>
<g>
</g>
<g>
</g>
<g>
</g>
<g>
</g>
<g>
</g>
<g>
</g>
<g>
</g>
<g>
</g>
<g>
</g>
</svg>
