<?xml version="1.0" encoding="iso-8859-1"?>
<!-- Generator: Adobe Illustrator 19.0.0, SVG Export Plug-In . SVG Version: 6.00 Build 0)  -->
<svg version="1.1" id="Layer_1" xmlns="http://www.w3.org/2000/svg" xmlns:xlink="http://www.w3.org/1999/xlink" x="0px" y="0px"
	 viewBox="0 0 512 512" style="enable-background:new 0 0 512 512;" xml:space="preserve">
<path style="fill:#259245;" d="M116.099,7.286C56.003,7.286,7.286,56.004,7.286,116.099v239.164L355.247,7.286H116.099z"/>
<path style="fill:#ED1F34;" d="M116.099,504.714h279.803c60.095,0,108.812-48.717,108.812-108.812V156.755l-397.215,347.62
	C110.336,504.598,113.204,504.714,116.099,504.714z"/>
<path style="fill:#FFE000;" d="M395.901,7.286h-40.655L7.286,355.26v40.641c0,60.095,48.717,108.812,108.812,108.812h40.642
	l347.972-347.958v-40.657C504.714,56.004,455.997,7.286,395.901,7.286z"/>
<path style="fill:#333333;" d="M404.708,7.642L7.643,404.72c4.256,53.062,46.575,95.38,99.636,99.637l397.078-397.063
	C500.107,54.222,457.78,11.894,404.708,7.642z"/>
<polygon style="fill:#FFFFFF;" points="125.927,368.64 150.764,341.462 135.988,307.74 169.511,322.962 197.017,298.489 
	192.898,335.075 224.674,353.672 188.605,361.06 180.738,397.028 162.565,365.008 "/>
<path d="M180.736,404.314c-2.593,0-5.028-1.386-6.335-3.69l-15.833-27.898l-31.922,3.166c-3.008,0.295-5.88-1.287-7.233-3.987
	c-1.353-2.698-0.901-5.952,1.136-8.18l21.639-23.679l-12.874-29.381c-1.212-2.765-0.593-5.99,1.556-8.11
	c2.148-2.12,5.382-2.695,8.13-1.449l29.209,13.263l23.965-21.324c2.254-2.006,5.513-2.416,8.195-1.027
	c2.68,1.389,4.228,4.286,3.89,7.286l-3.588,31.877l27.684,16.203c2.605,1.525,4.001,4.498,3.508,7.476
	c-0.491,2.978-2.769,5.344-5.727,5.951l-31.425,6.437l-6.854,31.337c-0.645,2.949-3.042,5.194-6.027,5.647
	C181.464,404.288,181.099,404.314,180.736,404.314z M162.567,357.721c2.602,0,5.032,1.395,6.335,3.69l8.783,15.474l3.802-17.381
	c0.616-2.815,2.833-5.003,5.657-5.582l17.432-3.571l-15.357-8.988c-2.488-1.455-3.883-4.24-3.561-7.103l1.99-17.682l-13.293,11.828
	c-2.153,1.915-5.233,2.381-7.856,1.191l-16.203-7.357l7.141,16.298c1.157,2.639,0.649,5.712-1.295,7.84l-12.003,13.135l17.707-1.756
	C162.087,357.732,162.328,357.721,162.567,357.721z"/>
<polygon style="fill:#FFFFFF;" points="299.445,197.412 324.282,170.234 309.506,136.512 343.029,151.735 370.534,127.261 
	366.416,163.847 398.191,182.444 362.123,189.833 354.256,225.8 336.083,193.78 "/>
<path d="M354.254,233.086c-2.593,0-5.027-1.386-6.335-3.69l-15.834-27.899l-31.921,3.165c-3.009,0.296-5.88-1.287-7.233-3.987
	c-1.353-2.698-0.901-5.952,1.136-8.18l21.639-23.678l-12.874-29.382c-1.212-2.765-0.593-5.99,1.556-8.111
	c2.148-2.12,5.382-2.694,8.13-1.448l29.208,13.264l23.965-21.323c2.254-2.005,5.513-2.416,8.194-1.027
	c2.68,1.389,4.228,4.286,3.89,7.286l-3.588,31.877l27.685,16.203c2.605,1.525,4.001,4.498,3.509,7.476
	c-0.491,2.978-2.77,5.344-5.727,5.951l-31.425,6.437l-6.854,31.337c-0.645,2.949-3.042,5.194-6.027,5.647
	C354.982,233.06,354.617,233.086,354.254,233.086z M336.084,186.493c2.602,0,5.032,1.395,6.335,3.69l8.784,15.475l3.802-17.382
	c0.616-2.815,2.833-5.003,5.657-5.582l17.431-3.571l-15.357-8.988c-2.488-1.455-3.883-4.24-3.561-7.103l1.991-17.682l-13.293,11.828
	c-2.153,1.915-5.233,2.382-7.856,1.191l-16.202-7.358l7.141,16.299c1.157,2.64,0.649,5.713-1.295,7.84l-12.003,13.134l17.706-1.755
	C335.605,186.505,335.845,186.493,336.084,186.493z"/>
<path d="M395.901,512H116.099C52.082,512,0,459.918,0,395.901V116.099C0,52.082,52.082,0,116.099,0h279.803
	C459.918,0,512,52.082,512,116.099v279.803C512,459.918,459.918,512,395.901,512z M116.099,14.573
	c-55.981,0-101.526,45.544-101.526,101.526v279.803c0,55.981,45.544,101.526,101.526,101.526h279.803
	c55.981,0,101.526-45.545,101.526-101.526V116.099c0-55.981-45.545-101.526-101.526-101.526
	C395.902,14.573,116.099,14.573,116.099,14.573z"/>
<g>
</g>
<g>
</g>
<g>
</g>
<g>
</g>
<g>
</g>
<g>
</g>
<g>
</g>
<g>
</g>
<g>
</g>
<g>
</g>
<g>
</g>
<g>
</g>
<g>
</g>
<g>
</g>
<g>
</g>
</svg>
