<?xml version="1.0" encoding="iso-8859-1"?>
<!-- Generator: Adobe Illustrator 19.0.0, SVG Export Plug-In . SVG Version: 6.00 Build 0)  -->
<svg version="1.1" id="Layer_1" xmlns="http://www.w3.org/2000/svg" xmlns:xlink="http://www.w3.org/1999/xlink" x="0px" y="0px"
	 viewBox="0 0 512 512" style="enable-background:new 0 0 512 512;" xml:space="preserve">
<rect x="7.286" y="120.04" style="fill:#ED1F34;" width="497.43" height="271.93"/>
<path style="fill:#FFFFFF;" d="M151.333,163.976c-50.742,0-92.024,41.283-92.024,92.024s41.282,92.024,92.024,92.024
	s92.024-41.283,92.024-92.024S202.075,163.976,151.333,163.976z"/>
<polygon style="fill:#ED1F34;" points="86.688,236.348 134.286,233.889 151.333,189.381 168.38,233.889 215.978,236.348 
	178.916,266.315 191.286,312.343 151.333,286.355 111.38,312.343 123.75,266.315 "/>
<g>
	<path style="fill:#103B9B;" d="M395.901,7.286H116.099c-47.223,0-87.414,30.085-102.468,72.132h484.738
		C483.315,37.372,443.125,7.286,395.901,7.286z"/>
	<path style="fill:#103B9B;" d="M116.099,504.714h279.803c47.223,0,87.414-30.085,102.468-72.132H13.631
		C28.684,474.628,68.876,504.714,116.099,504.714z"/>
</g>
<g>
	<path style="fill:#FFFFFF;" d="M7.286,395.901c0,12.872,2.241,25.219,6.344,36.68h484.738c4.103-11.461,6.344-23.808,6.344-36.68
		v-3.938H7.286V395.901z"/>
	<path style="fill:#FFFFFF;" d="M13.631,79.418c-4.103,11.461-6.344,23.808-6.344,36.68v3.938h497.427v-3.938
		c0-12.872-2.241-25.219-6.344-36.68H13.631z"/>
</g>
<path d="M216.354,229.071l-42.864-2.214l-15.352-40.083c-1.08-2.819-3.786-4.68-6.805-4.68s-5.725,1.861-6.804,4.68l-15.352,40.083
	l-42.864,2.214c-3.015,0.156-5.621,2.155-6.554,5.026s0.001,6.02,2.348,7.917l33.377,26.987l-11.139,41.452
	c-0.784,2.915,0.312,6.011,2.754,7.785c2.441,1.774,5.724,1.859,8.256,0.214l35.979-23.403l35.979,23.403
	c1.211,0.788,2.593,1.178,3.973,1.178c1.506,0,3.008-0.466,4.283-1.392c2.442-1.774,3.538-4.87,2.754-7.785l-11.139-41.452
	l33.377-26.987c2.347-1.898,3.281-5.047,2.348-7.917C221.975,231.226,219.369,229.227,216.354,229.071z M174.335,260.649
	c-2.241,1.812-3.203,4.774-2.455,7.557l7.432,27.656l-24.005-15.615c-1.208-0.786-2.591-1.178-3.974-1.178
	c-1.382,0-2.766,0.393-3.973,1.178l-24.005,15.615l7.432-27.656c0.748-2.783-0.214-5.745-2.455-7.557l-22.269-18.006l28.599-1.477
	c2.878-0.149,5.398-1.98,6.429-4.671l10.243-26.743l10.243,26.743c1.03,2.691,3.55,4.522,6.429,4.671l28.599,1.477L174.335,260.649z
	"/>
<path d="M395.901,0H116.099C52.082,0,0,52.082,0,116.099v279.803C0,459.918,52.082,512,116.099,512h279.803
	C459.918,512,512,459.918,512,395.901V116.099C512,52.082,459.918,0,395.901,0z M116.099,14.573h279.803
	c54.86,0,99.691,43.741,101.464,98.177h-25.814c-4.025,0-7.286,3.262-7.286,7.286c0,4.025,3.262,7.286,7.286,7.286h25.876v257.353
	H14.573V127.324H438.39c4.025,0,7.287-3.262,7.287-7.286c0-4.025-3.262-7.286-7.287-7.286H14.634
	C16.408,58.314,61.239,14.573,116.099,14.573z M395.901,497.427H116.099c-54.86,0-99.691-43.741-101.464-98.177h482.731
	C495.592,453.686,450.761,497.427,395.901,497.427z"/>
<g>
</g>
<g>
</g>
<g>
</g>
<g>
</g>
<g>
</g>
<g>
</g>
<g>
</g>
<g>
</g>
<g>
</g>
<g>
</g>
<g>
</g>
<g>
</g>
<g>
</g>
<g>
</g>
<g>
</g>
</svg>
