<?xml version="1.0" encoding="iso-8859-1"?>
<!-- Generator: Adobe Illustrator 19.0.0, SVG Export Plug-In . SVG Version: 6.00 Build 0)  -->
<svg version="1.1" id="Layer_1" xmlns="http://www.w3.org/2000/svg" xmlns:xlink="http://www.w3.org/1999/xlink" x="0px" y="0px"
	 viewBox="0 0 512 512" style="enable-background:new 0 0 512 512;" xml:space="preserve">
<path style="fill:#FFFFFF;" d="M395.901,7.286H116.099C56.003,7.286,7.286,56.004,7.286,116.099v279.803
	c0,60.095,48.717,108.812,108.812,108.812h279.803c60.095,0,108.812-48.717,108.812-108.812V116.099
	C504.714,56.004,455.997,7.286,395.901,7.286z"/>
<path d="M395.901,512H116.099C52.082,512,0,459.918,0,395.901V116.099C0,52.082,52.082,0,116.099,0h279.803
	C459.918,0,512,52.082,512,116.099v279.803C512,459.918,459.918,512,395.901,512z M116.099,14.573
	c-55.981,0-101.526,45.544-101.526,101.526v279.803c0,55.981,45.544,101.526,101.526,101.526h279.803
	c55.981,0,101.526-45.545,101.526-101.526V116.099c0-55.981-45.545-101.526-101.526-101.526
	C395.902,14.573,116.099,14.573,116.099,14.573z"/>
<path style="fill:#103B9B;" d="M173.096,256c0,45.786,37.118,82.905,82.904,82.905s82.905-37.118,82.905-82.905H173.096z"/>
<path style="fill:#ED1F34;" d="M256,173.096c-45.787,0-82.904,37.117-82.904,82.904h165.809
	C338.905,210.212,301.787,173.096,256,173.096z"/>
<path d="M256,346.191c-49.732,0-90.191-40.459-90.191-90.191s40.459-90.191,90.191-90.191s90.191,40.459,90.191,90.191
	S305.732,346.191,256,346.191z M256,180.382c-41.695,0-75.618,33.922-75.618,75.618s33.922,75.618,75.618,75.618
	s75.618-33.922,75.618-75.618S297.695,180.382,256,180.382z"/>
<path d="M92.275,204.185c-1.236,0-2.489-0.315-3.637-0.977c-3.485-2.012-4.679-6.469-2.667-9.953l30.675-53.131
	c2.01-3.486,6.466-4.679,9.953-2.667c3.485,2.012,4.679,6.469,2.667,9.953l-30.675,53.131
	C97.243,202.879,94.793,204.185,92.275,204.185z"/>
<path d="M130.566,226.292c-1.236,0-2.489-0.315-3.637-0.977c-3.485-2.012-4.679-6.469-2.667-9.954l30.675-53.13
	c2.01-3.487,6.467-4.68,9.954-2.667c3.485,2.012,4.679,6.469,2.667,9.954l-30.675,53.13
	C135.534,224.986,133.084,226.292,130.566,226.292z"/>
<path d="M111.42,215.238c-1.236,0-2.49-0.315-3.637-0.977c-3.485-2.012-4.679-6.469-2.667-9.953l30.676-53.13
	c2.011-3.487,6.469-4.678,9.953-2.667c3.485,2.012,4.679,6.469,2.667,9.953l-30.676,53.13
	C116.388,213.932,113.938,215.238,111.42,215.238z"/>
<path d="M389.037,375.521c-1.236,0-2.489-0.315-3.637-0.977c-3.485-2.012-4.679-6.469-2.667-9.954l9.81-16.992
	c2.011-3.485,6.467-4.678,9.954-2.667c3.485,2.012,4.679,6.469,2.667,9.954l-9.81,16.992
	C394.005,374.214,391.555,375.521,389.037,375.521z"/>
<path d="M409.901,339.382c-1.236,0-2.489-0.315-3.637-0.977c-3.485-2.012-4.679-6.469-2.667-9.953l9.81-16.992
	c2.011-3.486,6.466-4.679,9.954-2.667c3.485,2.012,4.679,6.469,2.667,9.953l-9.81,16.992
	C414.869,338.076,412.419,339.382,409.901,339.382z"/>
<path d="M350.746,353.413c-1.236,0-2.489-0.315-3.637-0.977c-3.485-2.012-4.679-6.469-2.667-9.953l9.81-16.992
	c2.011-3.487,6.467-4.677,9.953-2.667c3.485,2.012,4.679,6.469,2.667,9.953l-9.81,16.992
	C355.714,352.106,353.264,353.413,350.746,353.413z"/>
<path d="M371.61,317.274c-1.236,0-2.49-0.315-3.637-0.977c-3.485-2.012-4.679-6.469-2.667-9.953l9.81-16.992
	c2.011-3.486,6.47-4.68,9.953-2.667c3.485,2.012,4.679,6.469,2.667,9.953l-9.81,16.992
	C376.578,315.968,374.128,317.274,371.61,317.274z"/>
<path d="M369.891,364.467c-1.236,0-2.49-0.315-3.637-0.977c-3.485-2.012-4.679-6.469-2.667-9.953l9.811-16.992
	c2.013-3.486,6.469-4.679,9.953-2.667c3.485,2.012,4.679,6.469,2.667,9.953l-9.811,16.992
	C374.858,363.16,372.409,364.467,369.891,364.467z"/>
<path d="M390.755,328.328c-1.236,0-2.49-0.315-3.637-0.977c-3.486-2.012-4.679-6.469-2.667-9.954l9.811-16.991
	c2.012-3.487,6.47-4.678,9.954-2.667c3.486,2.012,4.679,6.469,2.667,9.953l-9.811,16.992
	C395.722,327.022,393.273,328.328,390.755,328.328z"/>
<path d="M398.861,168.046c-2.518,0-4.968-1.306-6.317-3.644l-9.81-16.992c-2.012-3.485-0.818-7.941,2.667-9.953
	c3.484-2.011,7.942-0.819,9.954,2.667l9.81,16.992c2.012,3.485,0.818,7.941-2.667,9.954
	C401.35,167.732,400.097,168.046,398.861,168.046z"/>
<path d="M419.725,204.185c-2.518,0-4.968-1.306-6.317-3.644l-9.81-16.992c-2.012-3.485-0.818-7.941,2.667-9.954
	c3.484-2.01,7.942-0.818,9.953,2.667l9.81,16.992c2.012,3.485,0.818,7.941-2.667,9.953
	C422.214,203.87,420.961,204.185,419.725,204.185z"/>
<path d="M360.569,190.155c-2.518,0-4.968-1.306-6.317-3.644l-9.81-16.992c-2.012-3.485-0.818-7.941,2.667-9.954
	c3.483-2.012,7.942-0.819,9.953,2.667l9.81,16.992c2.012,3.485,0.818,7.941-2.667,9.953
	C363.059,189.84,361.806,190.155,360.569,190.155z"/>
<path d="M381.434,226.292c-2.518,0-4.967-1.306-6.317-3.644l-9.81-16.992c-2.012-3.485-0.818-7.941,2.667-9.953
	c3.483-2.011,7.94-0.819,9.954,2.667l9.81,16.992c2.012,3.485,0.818,7.941-2.667,9.954
	C383.923,225.977,382.67,226.292,381.434,226.292z"/>
<path d="M400.58,215.238c-2.518,0-4.967-1.306-6.317-3.644l-30.675-53.13c-2.012-3.485-0.818-7.941,2.667-9.953
	c3.484-2.01,7.94-0.82,9.953,2.667l30.676,53.13c2.012,3.485,0.818,7.941-2.667,9.953
	C403.069,214.923,401.816,215.238,400.58,215.238z"/>
<path d="M122.963,375.521c-2.518,0-4.968-1.307-6.317-3.644l-30.675-53.131c-2.012-3.485-0.818-7.941,2.667-9.953
	c3.484-2.011,7.942-0.819,9.954,2.667l30.675,53.131c2.012,3.485,0.818,7.941-2.667,9.954
	C125.453,375.206,124.199,375.521,122.963,375.521z"/>
<path d="M161.254,353.413c-2.518,0-4.968-1.306-6.317-3.644l-30.675-53.13c-2.012-3.485-0.818-7.941,2.667-9.953
	c3.483-2.011,7.942-0.819,9.953,2.667l30.675,53.13c2.012,3.485,0.818,7.941-2.667,9.953
	C163.744,353.098,162.49,353.413,161.254,353.413z"/>
<path d="M142.109,364.467c-2.518,0-4.967-1.306-6.317-3.644l-9.811-16.992c-2.012-3.485-0.818-7.941,2.667-9.953
	c3.483-2.011,7.94-0.818,9.954,2.667l9.811,16.992c2.012,3.485,0.818,7.941-2.667,9.953
	C144.599,364.152,143.345,364.467,142.109,364.467z"/>
<path d="M121.245,328.328c-2.518,0-4.967-1.307-6.317-3.644l-9.811-16.992c-2.012-3.485-0.819-7.941,2.667-9.953
	c3.483-2.01,7.941-0.82,9.953,2.667l9.811,16.991c2.012,3.485,0.819,7.941-2.667,9.954
	C123.734,328.013,122.481,328.328,121.245,328.328z"/>
<g>
</g>
<g>
</g>
<g>
</g>
<g>
</g>
<g>
</g>
<g>
</g>
<g>
</g>
<g>
</g>
<g>
</g>
<g>
</g>
<g>
</g>
<g>
</g>
<g>
</g>
<g>
</g>
<g>
</g>
</svg>
