<?xml version="1.0" encoding="iso-8859-1"?>
<!-- Generator: Adobe Illustrator 19.0.0, SVG Export Plug-In . SVG Version: 6.00 Build 0)  -->
<svg version="1.1" id="Layer_1" xmlns="http://www.w3.org/2000/svg" xmlns:xlink="http://www.w3.org/1999/xlink" x="0px" y="0px"
	 viewBox="0 0 512 512" style="enable-background:new 0 0 512 512;" xml:space="preserve">
<rect x="173.1" y="173.1" style="fill:#FFFFFF;" width="331.62" height="165.81"/>
<path style="fill:#259245;" d="M395.901,7.286H116.099c-30.048,0-57.251,12.179-76.942,31.871l133.939,133.938h331.618v-56.997
	C504.714,56.004,455.997,7.286,395.901,7.286z"/>
<path style="fill:#ED1F34;" d="M39.157,472.843c19.691,19.691,46.894,31.871,76.942,31.871h279.803
	c60.095,0,108.812-48.717,108.812-108.812v-56.997H173.096L39.157,472.843z"/>
<path style="fill:#333333;" d="M173.096,173.095L39.157,39.157C19.466,58.848,7.286,86.051,7.286,116.099v279.803
	c0,30.047,12.179,57.25,31.871,76.942l133.939-133.939V173.095z"/>
<path d="M395.901,0H116.099C84.422,0,55.673,12.757,34.704,33.397c-0.242,0.187-0.478,0.386-0.7,0.608s-0.42,0.458-0.608,0.7
	C12.757,55.673,0,84.422,0,116.099v279.803c0,31.677,12.757,60.426,33.397,81.394c0.187,0.242,0.386,0.478,0.608,0.7
	c0.222,0.222,0.458,0.42,0.7,0.608C55.673,499.243,84.422,512,116.099,512h279.803C459.918,512,512,459.918,512,395.901V116.099
	C512,52.082,459.918,0,395.901,0z M395.901,14.573c55.981,0,101.526,45.544,101.526,101.526v49.71h-25.876
	c-4.025,0-7.286,3.262-7.286,7.287c0,4.024,3.262,7.286,7.286,7.286h25.876v151.236H180.382V180.382H438.39
	c4.025,0,7.287-3.262,7.287-7.286s-3.262-7.287-7.287-7.287H176.113L49.679,39.374c17.816-15.444,41.046-24.801,66.42-24.801
	H395.901z M14.573,116.099c0-25.374,9.357-48.603,24.801-66.42l126.435,126.435v159.773L39.374,462.321
	c-15.444-17.816-24.801-41.046-24.801-66.42V116.099z M395.901,497.427H116.099c-25.374,0-48.604-9.357-66.42-24.801
	l126.435-126.435h321.314v49.71C497.427,451.883,451.882,497.427,395.901,497.427z"/>
<g>
</g>
<g>
</g>
<g>
</g>
<g>
</g>
<g>
</g>
<g>
</g>
<g>
</g>
<g>
</g>
<g>
</g>
<g>
</g>
<g>
</g>
<g>
</g>
<g>
</g>
<g>
</g>
<g>
</g>
</svg>
