<?xml version="1.0" encoding="iso-8859-1"?>
<!-- Generator: Adobe Illustrator 19.0.0, SVG Export Plug-In . SVG Version: 6.00 Build 0)  -->
<svg version="1.1" id="Layer_1" xmlns="http://www.w3.org/2000/svg" xmlns:xlink="http://www.w3.org/1999/xlink" x="0px" y="0px"
	 viewBox="0 0 512 512" style="enable-background:new 0 0 512 512;" xml:space="preserve">
<path style="fill:#103B9B;" d="M395.901,7.286H116.099C56.003,7.286,7.286,56.004,7.286,116.099v279.803
	c0,60.095,48.717,108.812,108.812,108.812h279.803c60.095,0,108.812-48.717,108.812-108.812V116.099
	C504.714,56.004,455.997,7.286,395.901,7.286z"/>
<path style="fill:#ED1F34;" d="M325.087,312.377v50.124c0,59.76,55.27,73.421,55.27,73.421s55.27-13.661,55.27-73.421v-50.124
	H325.087z"/>
<path style="fill:#103B9B;" d="M380.357,435.923c0,0,55.27-13.661,55.27-73.422v-9.395c-4.976-2.345-9.434-4.939-19.295-4.939
	c-17.99,0-17.99,8.635-35.979,8.635s-17.989-8.635-35.978-8.635c-9.857,0-14.314,2.592-19.288,4.936v9.397
	C325.087,422.262,380.357,435.923,380.357,435.923z"/>
<g>
	<path style="fill:#FFFFFF;" d="M380.353,402.07c-10.653,0-16.226-2.675-21.142-5.035c-4.191-2.011-7.5-3.6-14.836-3.6
		c-5.634,0-8.923,0.935-12.13,2.339c-3.685,1.616-7.983-0.066-9.597-3.752c-1.614-3.686,0.065-7.983,3.752-9.597
		c4.023-1.762,9.305-3.563,17.974-3.563c10.653,0,16.225,2.675,21.141,5.035c4.191,2.011,7.5,3.6,14.837,3.6
		s10.646-1.589,14.837-3.6c4.917-2.36,10.489-5.035,21.141-5.035c8.675,0,13.959,1.803,17.984,3.566
		c3.687,1.614,5.366,5.912,3.751,9.598c-1.615,3.687-5.915,5.367-9.598,3.75c-3.209-1.405-6.501-2.341-12.138-2.341
		c-7.336,0-10.645,1.589-14.836,3.6C396.579,399.395,391.006,402.07,380.353,402.07z"/>
	<path style="fill:#FFFFFF;" d="M380.353,364.09c-10.653,0-16.226-2.675-21.143-5.035c-4.19-2.011-7.499-3.6-14.835-3.6
		s-10.644,1.589-14.834,3.6c-0.435,0.209-0.868,0.417-1.306,0.624c-3.641,1.714-7.981,0.159-9.699-3.481
		c-1.717-3.639-0.158-7.982,3.481-9.699l1.218-0.581c4.916-2.36,10.488-5.035,21.14-5.035c10.653,0,16.225,2.675,21.141,5.035
		c4.191,2.011,7.5,3.6,14.837,3.6s10.646-1.589,14.837-3.6c4.917-2.36,10.489-5.035,21.141-5.035
		c10.654,0,16.227,2.675,21.144,5.035c0.418,0.201,0.838,0.402,1.26,0.602c3.64,1.715,5.201,6.056,3.487,9.697
		c-1.715,3.641-6.058,5.202-9.697,3.486c-0.454-0.214-0.905-0.43-1.356-0.647c-4.191-2.011-7.5-3.6-14.838-3.6
		c-7.336,0-10.645,1.589-14.835,3.6C396.579,361.415,391.006,364.09,380.353,364.09z"/>
</g>
<path style="fill:#F2A643;" d="M380.357,286.373c-4.025,0-7.286-3.262-7.286-7.287v-22.108c0-4.024,3.262-7.287,7.286-7.287
	c4.025,0,7.287,3.262,7.287,7.287v22.108C387.643,283.111,384.381,286.373,380.357,286.373z"/>
<path style="fill:#259245;" d="M380.357,279.086c-18.386,0-33.291,14.905-33.291,33.291h66.582
	C413.648,293.991,398.743,279.086,380.357,279.086z"/>
<path style="fill:#F2A643;" d="M380.357,468.633c-28.946,0-55.651-13.344-72.965-35.682l-2.924,10.418
	c-1.087,3.875-5.108,6.133-8.984,5.048c-3.875-1.087-6.134-5.11-5.046-8.984l7.308-26.047c0.807-2.881,3.295-4.975,6.271-5.28
	c2.978-0.309,5.837,1.24,7.214,3.896c13.445,25.943,39.933,42.059,69.126,42.059c29.194,0,55.681-16.116,69.126-42.059
	c1.376-2.656,4.228-4.203,7.214-3.896c2.976,0.305,5.464,2.399,6.271,5.28l7.308,26.047c1.087,3.874-1.172,7.897-5.046,8.984
	c-3.877,1.085-7.898-1.172-8.984-5.048l-2.924-10.418C436.008,455.289,409.303,468.633,380.357,468.633z"/>
<g>
	<polygon style="fill:#FFFFFF;" points="312.401,165.22 312.401,98.067 193.42,98.067 193.42,7.286 126.267,7.286 126.267,98.067 
		7.286,98.067 7.286,165.22 126.267,165.22 126.267,256 193.42,256 193.42,165.22 	"/>
	<path style="fill:#FFFFFF;" d="M159.844,171.997L285.848,256h26.553v-63.006l-92.027-61.351l92.027-61.351V7.286h-26.553
		L159.844,91.29L58.536,23.751C39.097,35.894,23.77,54,15.116,75.511l84.198,56.132L7.286,192.994V256h26.552L159.844,171.997z"/>
</g>
<g>
	<path style="fill:#ED1F34;" d="M180.021,145.094l132.38,88.254v-26.383l-132.613-88.618l132.613-88.409V7.286h-6.376
		L139.676,118.198L32.34,46.641c-4.776,5.753-8.966,12.007-12.489,18.67l119.602,79.927L7.286,233.348V256h6.376L180.021,145.094z"
		/>
	<polygon style="fill:#ED1F34;" points="312.401,149.675 312.401,113.612 177.876,113.612 177.876,7.286 141.812,7.286 
		141.812,113.612 7.286,113.612 7.286,149.675 141.812,149.675 141.812,256 177.876,256 177.876,149.675 	"/>
</g>
<path d="M435.626,305.091h-15.36c-3.444-18.907-20.023-33.291-39.91-33.291c-19.886,0-36.465,14.384-39.91,33.291h-15.36
	c-4.025,0-7.286,3.262-7.286,7.286v50.124c0,33.793,16.538,53.915,30.412,64.844c14.881,11.724,29.77,15.496,30.396,15.65
	c0.574,0.142,1.161,0.213,1.749,0.213c0.587,0,1.175-0.071,1.749-0.213c0.626-0.155,15.514-3.927,30.396-15.65
	c13.874-10.93,30.412-31.052,30.412-64.844v-50.124C442.913,308.353,439.651,305.091,435.626,305.091z M380.357,286.373
	c11.81,0,21.807,7.914,24.966,18.718h-49.932C358.549,294.287,368.547,286.373,380.357,286.373z M428.34,362.501
	c0,47.996-38.928,63-47.961,65.835c-8.781-2.827-48.005-18.138-48.005-65.835v-42.838h14.692h66.583h14.692L428.34,362.501
	L428.34,362.501z"/>
<path d="M395.901,0H116.099C52.082,0,0,52.082,0,116.099v279.803C0,459.918,52.082,512,116.099,512h279.803
	C459.918,512,512,459.918,512,395.901V116.099C512,52.082,459.918,0,395.901,0z M497.427,395.901
	c0,55.982-45.545,101.526-101.526,101.526H116.099c-55.981,0-101.526-45.544-101.526-101.526V116.099
	c0-55.982,45.544-101.526,101.526-101.526h279.803c55.981,0,101.526,45.544,101.526,101.526v279.802H497.427z"/>
<g>
</g>
<g>
</g>
<g>
</g>
<g>
</g>
<g>
</g>
<g>
</g>
<g>
</g>
<g>
</g>
<g>
</g>
<g>
</g>
<g>
</g>
<g>
</g>
<g>
</g>
<g>
</g>
<g>
</g>
</svg>
