<?xml version="1.0" encoding="iso-8859-1"?>
<!-- Generator: Adobe Illustrator 19.0.0, SVG Export Plug-In . SVG Version: 6.00 Build 0)  -->
<svg version="1.1" id="Layer_1" xmlns="http://www.w3.org/2000/svg" xmlns:xlink="http://www.w3.org/1999/xlink" x="0px" y="0px"
	 viewBox="0 0 512 512" style="enable-background:new 0 0 512 512;" xml:space="preserve">
<path style="fill:#3DB4EA;" d="M395.901,7.286H116.099C56.003,7.286,7.286,56.004,7.286,116.099v279.803
	c0,60.095,48.717,108.812,108.812,108.812h279.803c60.095,0,108.812-48.717,108.812-108.812V116.099
	C504.714,56.004,455.997,7.286,395.901,7.286z"/>
<path d="M395.901,512H116.099C52.082,512,0,459.918,0,395.901V116.099C0,52.082,52.082,0,116.099,0h279.803
	C459.918,0,512,52.082,512,116.099v279.803C512,459.918,459.918,512,395.901,512z M116.099,14.573
	c-55.981,0-101.526,45.544-101.526,101.526v279.803c0,55.982,45.544,101.526,101.526,101.526h279.803
	c55.981,0,101.526-45.544,101.526-101.526V116.099c0-55.982-45.545-101.526-101.526-101.526
	C395.902,14.573,116.099,14.573,116.099,14.573z"/>
<g>
	<path style="fill:#FFE000;" d="M299.847,266.539c24.741,0,44.87-20.129,44.87-44.87c0-24.742-20.129-44.87-44.87-44.87
		s-44.87,20.129-44.87,44.87C254.977,246.411,275.106,266.539,299.847,266.539z"/>
	<path style="fill:#FFE000;" d="M268.103,291.292c0.981,0.448,2.01,0.66,3.022,0.66c2.765,0,5.41-1.583,6.633-4.262
		c1.672-3.661,0.059-7.983-3.602-9.655c-22.013-10.052-36.237-32.177-36.237-56.366c0-4.024-3.262-7.287-7.287-7.287h-51.239
		c-4.025,0-7.287,3.262-7.287,7.287c0,4.024,3.262,7.286,7.287,7.286h44.314c0.465,4.837,1.382,9.579,2.729,14.167h-23.83
		c-4.025,0-7.286,3.262-7.286,7.287s3.262,7.287,7.286,7.287h29.799C240.177,272.226,252.565,284.197,268.103,291.292z"/>
	<path style="fill:#FFE000;" d="M420.301,214.383h-51.239c-4.025,0-7.287,3.262-7.287,7.287c0,34.147-27.781,61.928-61.928,61.928
		c-2.353,0-4.562,1.137-5.93,3.051l-26.45,37.03c-2.339,3.275-1.58,7.826,1.694,10.165c1.284,0.917,2.763,1.358,4.229,1.358
		c2.274,0,4.514-1.061,5.936-3.052l24.337-34.073c27.552-1.36,51.306-17.371,63.643-40.38h29.78c4.025,0,7.286-3.262,7.286-7.287
		s-3.262-7.287-7.286-7.287h-23.814c1.335-4.563,2.261-9.298,2.724-14.167h44.303c4.025,0,7.286-3.262,7.286-7.286
		C427.587,217.645,424.325,214.383,420.301,214.383z"/>
	<path style="fill:#FFE000;" d="M120.988,368.522l-29.9-34.322l29.899-34.322c2.39-2.743,2.39-6.829-0.001-9.573L91.089,255.99
		l29.898-34.316c2.391-2.743,2.391-6.83,0.001-9.573l-29.899-34.317l29.899-34.317c2.39-2.743,2.39-6.829-0.001-9.573L91.089,99.579
		l29.898-34.315c2.644-3.034,2.327-7.637-0.707-10.281c-3.034-2.643-7.637-2.328-10.28,0.707L81.425,88.487L52.849,55.69
		c-2.643-3.035-7.247-3.35-10.28-0.707c-3.034,2.644-3.351,7.246-0.707,10.281L71.76,99.579l-29.898,34.315
		c-2.391,2.743-2.391,6.83-0.001,9.573l29.899,34.317l-29.899,34.317c-2.39,2.743-2.39,6.83,0.001,9.573L71.76,255.99
		l-29.898,34.316c-2.391,2.743-2.391,6.829-0.001,9.573l29.9,34.321l-29.899,34.322c-2.39,2.743-2.39,6.829,0,9.572l29.899,34.322
		l-29.899,34.322c-2.643,3.034-2.326,7.637,0.708,10.28c1.381,1.202,3.085,1.792,4.784,1.792c2.033,0,4.056-0.847,5.497-2.501
		l28.574-32.801L110,456.309c1.441,1.654,3.464,2.501,5.497,2.501c1.697,0,3.403-0.59,4.784-1.792
		c3.034-2.644,3.351-7.246,0.708-10.28L91.09,412.416l29.899-34.322C123.378,375.351,123.378,371.265,120.988,368.522z
		 M57.02,138.68l24.405-28.01l24.405,28.01l-24.405,28.011L57.02,138.68z M57.02,216.888l24.405-28.011l24.405,28.011l-24.405,28.01
		L57.02,216.888z M57.02,295.092l24.405-28.011l24.405,28.011l-24.405,28.014L57.02,295.092z M81.425,401.323L57.02,373.308
		l24.405-28.015l24.405,28.015L81.425,401.323z"/>
</g>
<g>
</g>
<g>
</g>
<g>
</g>
<g>
</g>
<g>
</g>
<g>
</g>
<g>
</g>
<g>
</g>
<g>
</g>
<g>
</g>
<g>
</g>
<g>
</g>
<g>
</g>
<g>
</g>
<g>
</g>
</svg>
