<?xml version="1.0" encoding="iso-8859-1"?>
<!-- Generator: Adobe Illustrator 19.0.0, SVG Export Plug-In . SVG Version: 6.00 Build 0)  -->
<svg version="1.1" id="Layer_1" xmlns="http://www.w3.org/2000/svg" xmlns:xlink="http://www.w3.org/1999/xlink" x="0px" y="0px"
	 viewBox="0 0 512 512" style="enable-background:new 0 0 512 512;" xml:space="preserve">
<g>
	<path style="fill:#ED1F34;" d="M7.286,395.901c0,60.095,48.717,108.812,108.812,108.812h279.803
		c60.095,0,108.812-48.717,108.812-108.812v-3.938H7.286V395.901z"/>
	<path style="fill:#ED1F34;" d="M395.901,7.286H116.099C56.003,7.286,7.286,56.004,7.286,116.099v3.938h497.427v-3.938
		C504.713,56.004,455.997,7.286,395.901,7.286z"/>
</g>
<rect x="7.286" y="120.04" style="fill:#103B9B;" width="497.43" height="271.93"/>
<path style="fill:#FFFFFF;" d="M256,325.027c38.062,0,69.027-30.966,69.027-69.027S294.062,186.973,256,186.973
	S186.973,217.939,186.973,256S217.938,325.027,256,325.027z"/>
<path d="M395.901,0H116.099C52.082,0,0,52.082,0,116.099v279.803C0,459.918,52.082,512,116.099,512h279.803
	C459.918,512,512,459.918,512,395.901V116.099C512,52.082,459.918,0,395.901,0z M116.099,14.573h279.803
	c54.861,0,99.691,43.741,101.465,98.177H14.634C16.408,58.314,61.238,14.573,116.099,14.573z M395.901,497.427H116.099
	c-54.861,0-99.691-43.741-101.465-98.177h25.814c4.024,0,7.286-3.262,7.286-7.286c0-4.025-3.262-7.286-7.286-7.286H14.573V127.324
	h482.854v257.353H73.61c-4.024,0-7.287,3.262-7.287,7.286c0,4.025,3.262,7.286,7.287,7.286h423.756
	C495.592,453.686,450.762,497.427,395.901,497.427z"/>
<g>
</g>
<g>
</g>
<g>
</g>
<g>
</g>
<g>
</g>
<g>
</g>
<g>
</g>
<g>
</g>
<g>
</g>
<g>
</g>
<g>
</g>
<g>
</g>
<g>
</g>
<g>
</g>
<g>
</g>
</svg>
