<?xml version="1.0" encoding="iso-8859-1"?>
<!-- Generator: Adobe Illustrator 19.0.0, SVG Export Plug-In . SVG Version: 6.00 Build 0)  -->
<svg version="1.1" id="Layer_1" xmlns="http://www.w3.org/2000/svg" xmlns:xlink="http://www.w3.org/1999/xlink" x="0px" y="0px"
	 viewBox="0 0 512 512" style="enable-background:new 0 0 512 512;" xml:space="preserve">
<g>
	<path style="fill:#ED1F34;" d="M7.286,395.901c0,60.095,48.717,108.812,108.812,108.812h279.803
		c60.095,0,108.812-48.717,108.812-108.812v-3.938H7.286V395.901z"/>
	<path style="fill:#ED1F34;" d="M395.901,7.286H116.099C56.003,7.286,7.286,56.004,7.286,116.099v3.938h497.427v-3.938
		C504.714,56.004,455.997,7.286,395.901,7.286z"/>
</g>
<rect x="7.286" y="120.04" style="fill:#FFFFFF;" width="497.43" height="271.93"/>
<polygon style="fill:#259245;" points="191.645,301.083 256,169.779 320.355,301.083 "/>
<path d="M395.901,0H116.099C52.082,0,0,52.082,0,116.099v279.803C0,459.918,52.082,512,116.099,512h279.803
	C459.918,512,512,459.918,512,395.901V116.099C512,52.082,459.918,0,395.901,0z M116.099,14.573h279.803
	c54.86,0,99.691,43.74,101.464,98.177H14.634C16.408,58.313,61.238,14.573,116.099,14.573z M395.901,497.427H116.099
	c-54.86,0-99.691-43.74-101.464-98.177h25.814c4.024,0,7.286-3.262,7.286-7.286s-3.262-7.287-7.286-7.287H14.573V127.323h482.854
	v257.354H73.61c-4.024,0-7.287,3.262-7.287,7.287s3.262,7.286,7.287,7.286h423.756C495.592,453.687,450.761,497.427,395.901,497.427
	z"/>
<path d="M191.645,308.37h57.068v33.851c0,4.024,3.262,7.286,7.286,7.286c4.025,0,7.286-3.262,7.286-7.286V308.37h57.068
	c0.007,0,0.014,0,0.019,0c4.025,0,7.286-3.262,7.286-7.286c0-1.337-0.359-2.59-0.988-3.667l-64.13-130.844
	c-1.224-2.497-3.762-4.08-6.543-4.08s-5.319,1.583-6.543,4.08l-64.355,131.304c-1.107,2.258-0.971,4.928,0.36,7.062
	C186.793,307.073,189.13,308.37,191.645,308.37z M256,186.336l52.669,107.461h-45.382v-33.851c0-4.024-3.262-7.287-7.286-7.287
	c-4.024,0-7.286,3.262-7.286,7.287v33.851h-45.382L256,186.336z"/>
<g>
</g>
<g>
</g>
<g>
</g>
<g>
</g>
<g>
</g>
<g>
</g>
<g>
</g>
<g>
</g>
<g>
</g>
<g>
</g>
<g>
</g>
<g>
</g>
<g>
</g>
<g>
</g>
<g>
</g>
</svg>
