<?xml version="1.0" encoding="iso-8859-1"?>
<!-- Generator: Adobe Illustrator 19.0.0, SVG Export Plug-In . SVG Version: 6.00 Build 0)  -->
<svg version="1.1" id="Layer_1" xmlns="http://www.w3.org/2000/svg" xmlns:xlink="http://www.w3.org/1999/xlink" x="0px" y="0px"
	 viewBox="0 0 512 512" style="enable-background:new 0 0 512 512;" xml:space="preserve">
<path style="fill:#ED1F34;" d="M7.286,395.901c0,60.095,48.717,108.812,108.812,108.812h279.803
	c60.095,0,108.812-48.717,108.812-108.812V256H7.286V395.901z"/>
<path style="fill:#103B9B;" d="M395.901,7.286H116.099C56.003,7.286,7.286,56.003,7.286,116.099V256h497.427V116.099
	C504.713,56.003,455.997,7.286,395.901,7.286z"/>
<path style="fill:#FFE000;" d="M199.23,108.971c-11.932,0-22.238,6.96-27.082,17.041c-4.844-10.081-15.15-17.041-27.082-17.041
	c-16.585,0-30.03,13.445-30.03,30.03s11.054,30.03,11.054,30.03h92.116c0,0,11.054-13.445,11.054-30.03
	S215.815,108.971,199.23,108.971z"/>
<path d="M199.23,101.685c-7.107,0-13.951,2.063-19.796,5.725V89.074c0-4.024-3.262-7.287-7.287-7.287
	c-4.024,0-7.286,3.262-7.286,7.287v18.336c-5.844-3.662-12.689-5.725-19.796-5.725c-20.576,0-37.316,16.74-37.316,37.316
	c0,18.977,12.193,34.026,12.712,34.658c1.384,1.683,3.449,2.659,5.629,2.659h92.116c2.179,0,4.244-0.976,5.628-2.659
	c0.519-0.631,12.712-15.68,12.712-34.657C236.546,118.425,219.806,101.685,199.23,101.685z M214.453,161.745h-84.611
	c-2.749-4.225-7.52-12.97-7.52-22.743c0-12.541,10.203-22.743,22.743-22.743c8.694,0,16.746,5.067,20.514,12.91
	c0.015,0.031,0.035,0.057,0.05,0.088c0.138,0.277,0.287,0.546,0.458,0.801c0.003,0.005,0.006,0.011,0.01,0.016
	c0.17,0.252,0.359,0.489,0.558,0.718c0.054,0.061,0.108,0.121,0.164,0.18c0.177,0.19,0.362,0.371,0.558,0.541
	c0.034,0.029,0.065,0.062,0.1,0.09c0.23,0.193,0.475,0.368,0.728,0.532c0.056,0.036,0.113,0.069,0.17,0.103
	c0.223,0.135,0.453,0.259,0.69,0.37c0.046,0.022,0.091,0.046,0.137,0.066c0.282,0.125,0.572,0.232,0.872,0.321
	c0.044,0.013,0.089,0.022,0.133,0.034c0.253,0.07,0.511,0.125,0.775,0.167c0.076,0.012,0.152,0.025,0.229,0.035
	c0.307,0.04,0.618,0.067,0.936,0.067c0.318,0,0.629-0.027,0.936-0.067c0.077-0.01,0.153-0.023,0.229-0.035
	c0.263-0.042,0.522-0.098,0.775-0.167c0.044-0.012,0.089-0.021,0.133-0.034c0.299-0.089,0.59-0.197,0.872-0.321
	c0.047-0.021,0.091-0.045,0.137-0.066c0.238-0.111,0.467-0.235,0.69-0.37c0.057-0.034,0.114-0.067,0.17-0.103
	c0.253-0.163,0.498-0.339,0.728-0.532c0.035-0.029,0.066-0.061,0.1-0.09c0.196-0.17,0.381-0.351,0.558-0.541
	c0.055-0.06,0.11-0.119,0.164-0.18c0.199-0.229,0.389-0.466,0.558-0.718c0.003-0.005,0.006-0.011,0.01-0.016
	c0.171-0.255,0.32-0.525,0.458-0.801c0.015-0.031,0.035-0.057,0.05-0.088c3.768-7.842,11.821-12.91,20.514-12.91
	c12.541,0,22.743,10.203,22.743,22.743C221.973,148.775,217.202,157.519,214.453,161.745z"/>
<path d="M395.901,0H116.099C52.082,0,0,52.082,0,116.099v279.803C0,459.918,52.082,512,116.099,512h279.803
	C459.918,512,512,459.918,512,395.901V116.099C512,52.082,459.918,0,395.901,0z M395.901,497.427H116.099
	c-55.981,0-101.526-45.544-101.526-101.526V263.286h390.655c4.024,0,7.286-3.262,7.286-7.286s-3.262-7.286-7.286-7.286H14.573
	V116.099c0-55.982,45.544-101.526,101.526-101.526h279.803c55.982,0,101.526,45.544,101.526,101.526v132.615H438.39
	c-4.024,0-7.287,3.262-7.287,7.286c0,4.024,3.262,7.286,7.287,7.286h59.037v132.615
	C497.427,451.883,451.883,497.427,395.901,497.427z"/>
<g>
</g>
<g>
</g>
<g>
</g>
<g>
</g>
<g>
</g>
<g>
</g>
<g>
</g>
<g>
</g>
<g>
</g>
<g>
</g>
<g>
</g>
<g>
</g>
<g>
</g>
<g>
</g>
<g>
</g>
</svg>
