<?xml version="1.0" encoding="iso-8859-1"?>
<!-- Generator: Adobe Illustrator 19.0.0, SVG Export Plug-In . SVG Version: 6.00 Build 0)  -->
<svg version="1.1" id="Layer_1" xmlns="http://www.w3.org/2000/svg" xmlns:xlink="http://www.w3.org/1999/xlink" x="0px" y="0px"
	 viewBox="0 0 512 512" style="enable-background:new 0 0 512 512;" xml:space="preserve">
<path style="fill:#FFE000;" d="M395.901,7.287H116.099C56.003,7.287,7.286,56.004,7.286,116.099v279.803
	c0,60.095,48.717,108.812,108.812,108.812h279.803c60.095,0,108.812-48.717,108.812-108.812V116.099
	C504.714,56.004,455.997,7.287,395.901,7.287z"/>
<rect x="272.58" y="75.973" style="fill:#BF2300;" width="198.97" height="360.05"/>
<rect x="40.448" y="75.973" style="fill:#134923;" width="99.48" height="360.05"/>
<rect x="139.93" y="75.973" style="fill:#FF7900;" width="99.48" height="360.05"/>
<path style="fill:#FFE000;" d="M412.413,233.339h-37.015v-17.402c0-10.535-8.54-19.076-19.076-19.076
	c-10.535,0-19.076,8.541-19.076,19.076v67.145h96.169v-28.74C433.416,242.743,424.013,233.339,412.413,233.339z"/>
<path d="M310.717,214.999c-4.025,0-7.287,3.262-7.287,7.286v60.797c0,4.024,3.262,7.286,7.287,7.286s7.287-3.262,7.287-7.286
	v-60.797C318.004,218.261,314.742,214.999,310.717,214.999z"/>
<path d="M412.413,226.053h-29.729v-10.116c0-14.536-11.826-26.362-26.363-26.362c-14.536,0-26.361,11.826-26.361,26.362v67.145
	v32.056c0,4.024,3.262,7.286,7.286,7.286c4.025,0,7.286-3.262,7.286-7.286v-24.77h50.645v24.77c0,4.024,3.262,7.286,7.286,7.286
	c4.025,0,7.286-3.262,7.286-7.286v-24.77h16.378v24.77c0,4.024,3.262,7.286,7.287,7.286s7.286-3.262,7.286-7.286v-32.056v-28.74
	C440.702,238.743,428.011,226.053,412.413,226.053z M344.533,215.937c0-6.5,5.288-11.789,11.788-11.789
	c6.501,0,11.789,5.289,11.789,11.789v17.402c0,4.024,3.262,7.286,7.286,7.286h37.015c7.564,0,13.716,6.153,13.716,13.716v21.454
	h-81.596v-59.858H344.533z"/>
<path d="M395.901,0H116.099C52.082,0,0,52.082,0,116.099v279.803C0,459.918,52.082,512,116.099,512h279.803
	C459.918,512,512,459.918,512,395.901V116.099C512,52.082,459.918,0,395.901,0z M497.427,395.901
	c0,55.982-45.545,101.526-101.526,101.526H116.099c-55.981,0-101.526-45.544-101.526-101.526V116.099
	c0-55.981,45.544-101.526,101.526-101.526h279.803c55.981,0,101.526,45.544,101.526,101.526v279.802H497.427z"/>
<g>
</g>
<g>
</g>
<g>
</g>
<g>
</g>
<g>
</g>
<g>
</g>
<g>
</g>
<g>
</g>
<g>
</g>
<g>
</g>
<g>
</g>
<g>
</g>
<g>
</g>
<g>
</g>
<g>
</g>
</svg>
