<?xml version="1.0" encoding="iso-8859-1"?>
<!-- Generator: Adobe Illustrator 19.0.0, SVG Export Plug-In . SVG Version: 6.00 Build 0)  -->
<svg version="1.1" id="Layer_1" xmlns="http://www.w3.org/2000/svg" xmlns:xlink="http://www.w3.org/1999/xlink" x="0px" y="0px"
	 viewBox="0 0 512 512" style="enable-background:new 0 0 512 512;" xml:space="preserve">
<path style="fill:#FFFFFF;" d="M395.901,7.286H116.099C56.003,7.286,7.286,56.004,7.286,116.099v279.803
	c0,60.095,48.717,108.812,108.812,108.812h279.803c60.095,0,108.812-48.717,108.812-108.812V116.099
	C504.714,56.004,455.997,7.286,395.901,7.286z"/>
<g>
	<rect x="7.286" y="369.05" style="fill:#ED1F34;" width="497.43" height="45.22"/>
	<rect x="7.286" y="278.61" style="fill:#ED1F34;" width="497.43" height="45.22"/>
	<path style="fill:#ED1F34;" d="M116.099,504.714h279.803c36.351,0,68.534-17.829,88.295-45.216H27.804
		C47.565,486.884,79.748,504.714,116.099,504.714z"/>
	<rect x="7.286" y="188.16" style="fill:#ED1F34;" width="497.43" height="45.23"/>
	<rect x="154.67" y="97.73" style="fill:#ED1F34;" width="350.05" height="45.22"/>
	<path style="fill:#ED1F34;" d="M484.196,52.502c-19.761-27.387-51.943-45.216-88.295-45.216H154.669v45.216H484.196z"/>
</g>
<path style="fill:#164FCE;" d="M228.36,7.286H116.099C56.003,7.286,7.286,56.004,7.286,116.099v117.293H228.36V7.286z"/>
<polygon style="fill:#FFFFFF;" points="62.034,107.814 103.111,105.691 117.823,67.28 132.535,105.691 173.613,107.814 
	141.628,133.675 152.303,173.398 117.823,150.971 83.343,173.398 94.019,133.675 "/>
<path d="M57.453,113.48l28.299,22.881l-9.445,35.146c-0.784,2.915,0.312,6.011,2.754,7.786s5.725,1.858,8.256,0.213l30.507-19.843
	l30.506,19.843c1.211,0.787,2.593,1.178,3.974,1.178c1.506,0,3.008-0.466,4.283-1.392c2.442-1.774,3.538-4.87,2.754-7.786
	l-9.445-35.146l28.3-22.881c2.347-1.898,3.281-5.047,2.348-7.918s-3.539-4.87-6.554-5.026l-36.344-1.878L124.63,64.672
	c-1.08-2.819-3.786-4.68-6.805-4.68c-3.018,0-5.725,1.861-6.805,4.68L98.002,98.659l-36.343,1.878
	c-3.015,0.156-5.621,2.155-6.554,5.026C54.172,108.434,55.105,111.582,57.453,113.48z M103.487,112.969
	c2.879-0.149,5.398-1.98,6.429-4.671l7.908-20.645l7.907,20.645c1.03,2.691,3.55,4.522,6.429,4.671l22.079,1.14l-17.192,13.9
	c-2.241,1.812-3.203,4.774-2.455,7.557l5.737,21.351l-18.531-12.055c-2.417-1.571-5.531-1.571-7.947,0l-18.533,12.055l5.738-21.351
	c0.748-2.783-0.214-5.745-2.455-7.557l-17.191-13.9L103.487,112.969z"/>
<path d="M490.517,48.887c-0.264-0.461-0.578-0.888-0.933-1.278C468.44,18.766,434.324,0,395.901,0H116.099
	C52.082,0,0,52.082,0,116.099v279.803c0,6.613,0.564,13.096,1.631,19.411c0.024,0.164,0.047,0.328,0.081,0.488
	c3.018,17.397,9.915,33.48,19.774,47.317c0.262,0.457,0.574,0.881,0.926,1.268C43.556,493.232,77.674,512,116.099,512h279.803
	c38.425,0,72.543-18.768,93.686-47.614c0.352-0.388,0.664-0.812,0.926-1.268C504.038,444.137,512,420.931,512,395.901V116.099
	C512,91.071,504.039,67.867,490.517,48.887z M480.338,452.211H31.662c-6.197-9.262-10.912-19.593-13.803-30.656h476.282
	C491.25,432.618,486.534,442.949,480.338,452.211z M497.427,116.099v19.562H235.646v-30.642H496.82
	C497.217,108.658,497.427,112.354,497.427,116.099z M235.646,150.233h261.781v30.643H235.646V150.233z M235.646,195.45h261.781
	v30.656H235.646V195.45z M497.427,240.678v30.643h-25.876c-4.025,0-7.286,3.262-7.286,7.287s3.262,7.287,7.286,7.287h25.876v30.642
	H106.772c-4.025,0-7.286,3.262-7.286,7.286c0,4.025,3.262,7.287,7.286,7.287h390.655v30.656H14.573V331.11H73.61
	c4.025,0,7.286-3.262,7.286-7.287s-3.262-7.286-7.286-7.286H14.573v-30.642H438.39c4.025,0,7.287-3.262,7.287-7.287
	s-3.262-7.287-7.287-7.287H14.573v-30.643L497.427,240.678L497.427,240.678z M15.18,406.982c-0.397-3.64-0.607-7.336-0.607-11.081
	V376.34h482.854v19.562c0,3.744-0.21,7.44-0.607,11.081H15.18V406.982z M468.509,45.215H295.801c-4.025,0-7.287,3.262-7.287,7.286
	s3.262,7.286,7.287,7.286h184.536c6.197,9.262,10.913,19.594,13.804,30.657H235.646V59.788h26.992c4.025,0,7.286-3.262,7.286-7.286
	s-3.262-7.286-7.286-7.286h-26.992V14.573h160.255C424.329,14.573,450.061,26.323,468.509,45.215z M116.099,14.573h104.974v211.532
	h-206.5V116.099C14.573,60.118,60.118,14.573,116.099,14.573z M395.901,497.427H116.099c-28.429,0-54.161-11.75-72.609-30.643
	h425.02C450.062,485.677,424.33,497.427,395.901,497.427z"/>
<g>
</g>
<g>
</g>
<g>
</g>
<g>
</g>
<g>
</g>
<g>
</g>
<g>
</g>
<g>
</g>
<g>
</g>
<g>
</g>
<g>
</g>
<g>
</g>
<g>
</g>
<g>
</g>
<g>
</g>
</svg>
