<?xml version="1.0" encoding="iso-8859-1"?>
<!-- Generator: Adobe Illustrator 19.0.0, SVG Export Plug-In . SVG Version: 6.00 Build 0)  -->
<svg version="1.1" id="Layer_1" xmlns="http://www.w3.org/2000/svg" xmlns:xlink="http://www.w3.org/1999/xlink" x="0px" y="0px"
	 viewBox="0 0 512 512" style="enable-background:new 0 0 512 512;" xml:space="preserve">
<rect x="7.286" y="173.1" style="fill:#FFFFFF;" width="497.43" height="165.81"/>
<path style="fill:#259245;" d="M7.286,395.901c0,60.095,48.717,108.812,108.812,108.812h279.803
	c60.095,0,108.812-48.717,108.812-108.812v-56.997H7.286V395.901z"/>
<path style="fill:#103B9B;" d="M395.901,7.286H116.099C56.003,7.286,7.286,56.004,7.286,116.099v56.997h497.427v-56.997
	C504.714,56.004,455.997,7.286,395.901,7.286z"/>
<path style="fill:#333333;" d="M224.189,275.884c8.113,8.197,19.367,13.278,31.811,13.278s23.698-5.081,31.811-13.278L256,239.697
	L224.189,275.884z"/>
<path d="M395.901,0H116.099C52.082,0,0,52.082,0,116.099v279.803C0,459.918,52.082,512,116.099,512h279.803
	C459.918,512,512,459.918,512,395.901V116.099C512,52.082,459.918,0,395.901,0z M116.099,14.573h279.803
	c55.981,0,101.526,45.544,101.526,101.526v49.711H14.573v-49.711C14.573,60.118,60.117,14.573,116.099,14.573z M395.901,497.427
	H116.099c-55.982,0-101.526-45.545-101.526-101.526V346.19H73.61c4.024,0,7.286-3.262,7.286-7.286c0-4.025-3.262-7.287-7.286-7.287
	H14.573V180.382h482.854v151.235H106.772c-4.024,0-7.286,3.262-7.286,7.287s3.262,7.286,7.286,7.286h390.655v49.711
	C497.427,451.882,451.882,497.427,395.901,497.427z"/>
<path d="M256,296.449c13.999,0,27.136-5.483,36.99-15.438c2.694-2.721,2.822-7.062,0.294-9.937l-29.997-34.124v-14.111
	c0-4.025-3.262-7.287-7.286-7.287c-4.024,0-7.286,3.262-7.286,7.287v14.111l-29.997,34.124c-2.527,2.876-2.399,7.216,0.294,9.937
	C228.864,290.966,242.001,296.449,256,296.449z M256,250.732l21.453,24.404c-6.245,4.38-13.663,6.739-21.453,6.739
	s-15.208-2.359-21.452-6.739L256,250.732z"/>
<g>
</g>
<g>
</g>
<g>
</g>
<g>
</g>
<g>
</g>
<g>
</g>
<g>
</g>
<g>
</g>
<g>
</g>
<g>
</g>
<g>
</g>
<g>
</g>
<g>
</g>
<g>
</g>
<g>
</g>
</svg>
