<?xml version="1.0" encoding="iso-8859-1"?>
<!-- Generator: Adobe Illustrator 19.0.0, SVG Export Plug-In . SVG Version: 6.00 Build 0)  -->
<svg version="1.1" id="Layer_1" xmlns="http://www.w3.org/2000/svg" xmlns:xlink="http://www.w3.org/1999/xlink" x="0px" y="0px"
	 viewBox="0 0 512 512" style="enable-background:new 0 0 512 512;" xml:space="preserve">
<rect x="7.286" y="173.1" style="fill:#333333;" width="497.43" height="165.81"/>
<g>
	<path style="fill:#FFFFFF;" d="M238.32,301.422c-25.046,0-45.423-20.377-45.423-45.422s20.377-45.422,45.423-45.422
		c9.671,0,18.905,3.001,26.703,8.679c3.253,2.369,3.97,6.927,1.602,10.18c-2.368,3.251-6.926,3.97-10.179,1.602
		c-5.29-3.852-11.557-5.888-18.125-5.888c-17.01,0-30.85,13.839-30.85,30.849s13.839,30.849,30.85,30.849
		c6.568,0,12.836-2.036,18.126-5.889c3.254-2.371,7.811-1.654,10.18,1.6c2.369,3.252,1.653,7.81-1.6,10.179
		C257.226,298.42,247.992,301.422,238.32,301.422z"/>
	<circle style="fill:#FFFFFF;" cx="295.12" cy="256" r="14.208"/>
</g>
<path style="fill:#259245;" d="M7.286,395.901c0,60.095,48.717,108.812,108.812,108.812h279.803
	c60.095,0,108.812-48.717,108.812-108.812v-56.997H7.286V395.901z"/>
<path style="fill:#ED1F34;" d="M395.901,7.286H116.099C56.003,7.286,7.286,56.004,7.286,116.099v56.997h497.427v-56.997
	C504.714,56.004,455.997,7.286,395.901,7.286z"/>
<path d="M395.901,0H116.099C52.082,0,0,52.082,0,116.099v279.803C0,459.918,52.082,512,116.099,512h279.803
	C459.918,512,512,459.918,512,395.901V116.099C512,52.082,459.918,0,395.901,0z M116.099,14.573h279.803
	c55.981,0,101.526,45.544,101.526,101.526v49.711H14.573v-49.711C14.573,60.118,60.117,14.573,116.099,14.573z M395.901,497.427
	H116.099c-55.982,0-101.526-45.545-101.526-101.526V346.19H438.39c4.024,0,7.287-3.262,7.287-7.286c0-4.025-3.262-7.287-7.287-7.287
	H14.573V180.382h482.854v151.235h-25.875c-4.024,0-7.286,3.262-7.286,7.287s3.262,7.286,7.286,7.286h25.875v49.711
	C497.427,451.882,451.883,497.427,395.901,497.427z"/>
<g>
</g>
<g>
</g>
<g>
</g>
<g>
</g>
<g>
</g>
<g>
</g>
<g>
</g>
<g>
</g>
<g>
</g>
<g>
</g>
<g>
</g>
<g>
</g>
<g>
</g>
<g>
</g>
<g>
</g>
</svg>
