<?xml version="1.0" encoding="iso-8859-1"?>
<!-- Generator: Adobe Illustrator 19.0.0, SVG Export Plug-In . SVG Version: 6.00 Build 0)  -->
<svg version="1.1" id="Layer_1" xmlns="http://www.w3.org/2000/svg" xmlns:xlink="http://www.w3.org/1999/xlink" x="0px" y="0px"
	 viewBox="0 0 512 512" style="enable-background:new 0 0 512 512;" xml:space="preserve">
<path style="fill:#ED1F34;" d="M395.901,7.286H116.099C56.003,7.286,7.286,56.004,7.286,116.099v279.803
	c0,60.095,48.717,108.812,108.812,108.812h279.803c60.095,0,108.812-48.717,108.812-108.812V116.099
	C504.713,56.004,455.997,7.286,395.901,7.286z"/>
<path d="M395.901,512H116.099C52.082,512,0,459.918,0,395.901V116.099C0,52.082,52.082,0,116.099,0h279.803
	C459.918,0,512,52.082,512,116.099v279.803C512,459.918,459.918,512,395.901,512z M116.099,14.573
	c-55.981,0-101.526,45.544-101.526,101.526v279.803c0,55.982,45.544,101.526,101.526,101.526h279.803
	c55.982,0,101.526-45.544,101.526-101.526V116.099c0-55.982-45.544-101.526-101.526-101.526
	C395.902,14.573,116.099,14.573,116.099,14.573z"/>
<path style="fill:#134923;" d="M299.099,329.61c-1.503,0-3.006-0.464-4.283-1.391l-38.817-28.203l-38.817,28.202
	c-2.554,1.855-6.012,1.854-8.566,0c-2.554-1.855-3.623-5.144-2.647-8.147l14.826-45.631l-35.334-25.673
	c-4.981-3.619-6.484-4.712-6.484-8.424c0-4.024,3.262-7.286,7.286-7.286h47.978l14.827-45.632c0.975-3.002,3.773-5.035,6.93-5.035
	c3.156,0,5.954,2.033,6.93,5.035l14.827,45.632h47.98c3.156,0,5.954,2.033,6.93,5.035c0.976,3.002-0.093,6.291-2.647,8.146
	l-38.816,28.202l14.827,45.632c0.976,3.002-0.093,6.291-2.647,8.147C302.105,329.146,300.602,329.61,299.099,329.61z
	 M268.396,291.009l16.844,12.238l-6.434-19.801L268.396,291.009z M233.193,283.446l-6.434,19.8l16.843-12.237L233.193,283.446z
	 M237.928,268.873l18.071,13.13l18.071-13.13l-6.902-21.244h-22.337L237.928,268.873z M282.491,247.63l3.976,12.237l16.843-12.237
	H282.491z M208.689,247.63c4.98,3.618,10.712,7.784,16.842,12.237l3.976-12.237H208.689z M249.565,233.057h12.867l-6.434-19.8
	L249.565,233.057z"/>
<g>
</g>
<g>
</g>
<g>
</g>
<g>
</g>
<g>
</g>
<g>
</g>
<g>
</g>
<g>
</g>
<g>
</g>
<g>
</g>
<g>
</g>
<g>
</g>
<g>
</g>
<g>
</g>
<g>
</g>
</svg>
