<?xml version="1.0" encoding="iso-8859-1"?>
<!-- Generator: Adobe Illustrator 19.0.0, SVG Export Plug-In . SVG Version: 6.00 Build 0)  -->
<svg version="1.1" id="Layer_1" xmlns="http://www.w3.org/2000/svg" xmlns:xlink="http://www.w3.org/1999/xlink" x="0px" y="0px"
	 viewBox="0 0 512 512" style="enable-background:new 0 0 512 512;" xml:space="preserve">
<path style="fill:#FFE000;" d="M395.901,7.286H116.099C56.003,7.286,7.286,56.003,7.286,116.099v279.803
	c0,60.095,48.717,108.812,108.812,108.812h279.803c60.095,0,108.812-48.717,108.812-108.812V116.099
	C504.714,56.003,455.997,7.286,395.901,7.286z"/>
<path style="fill:#ED1F34;" d="M40.448,380.357V131.643c0-50.365,40.829-91.195,91.195-91.195h248.714
	c50.365,0,91.195,40.829,91.195,91.195v248.713c0,50.366-40.829,91.195-91.195,91.195H131.643
	C81.278,471.552,40.448,430.722,40.448,380.357z"/>
<path style="fill:#FFE000;" d="M346.24,203.391h-51.367c0,21.469-17.404,38.872-38.872,38.872s-38.872-17.404-38.872-38.872H165.76
	c0,44.341,31.989,81.185,74.143,88.779c-5.459,4.592-8.934,11.465-8.934,19.156v31.344h50.063v-31.344
	c0-7.691-3.476-14.565-8.935-19.156C314.25,284.575,346.24,247.731,346.24,203.391z"/>
<path d="M357.293,196.104H346.24h-51.367c-4.025,0-7.287,3.262-7.287,7.286c0,9.573-4.287,18.159-11.035,23.956v-50.73h5.978
	c4.025,0,7.286-3.262,7.286-7.286s-3.262-7.286-7.286-7.286h-13.265c-4.025,0-7.286,3.262-7.286,7.286v65.072
	c-1.937,0.373-3.934,0.575-5.978,0.575s-4.041-0.202-5.978-0.575V169.33c0-4.024-3.262-7.286-7.286-7.286h-13.265
	c-4.025,0-7.286,3.262-7.286,7.286s3.262,7.286,7.286,7.286h5.978v50.73c-6.748-5.797-11.035-14.383-11.035-23.956
	c0-4.024-3.262-7.286-7.287-7.286H165.76h-11.053c-4.025,0-7.286,3.262-7.286,7.286s3.262,7.286,7.286,7.286h4.048
	c2.973,40.157,30.309,74.203,68.485,85.908c-2.314,4.506-3.558,9.544-3.558,14.741v31.344c0,4.024,3.262,7.286,7.286,7.286h50.063
	c4.025,0,7.286-3.262,7.286-7.286v-31.344c0-5.197-1.244-10.235-3.558-14.741c38.177-11.706,65.512-45.751,68.485-85.908h4.048
	c4.025,0,7.286-3.262,7.286-7.286S361.318,196.104,357.293,196.104z M270.805,284.999c-2.78,0.501-5.021,2.565-5.749,5.294
	c-0.728,2.73,0.188,5.635,2.35,7.453c4.028,3.388,6.339,8.338,6.339,13.58v24.057h-35.49v-24.057c0-5.242,2.31-10.192,6.339-13.58
	c2.162-1.819,3.078-4.723,2.35-7.453s-2.969-4.793-5.749-5.294c-37.078-6.68-64.61-37.346-67.833-74.322h37.052
	c2.639,16.567,14.127,30.222,29.448,35.958c0.27,0.116,0.55,0.213,0.836,0.296c4.792,1.689,9.939,2.618,15.301,2.618
	s10.509-0.93,15.301-2.619c0.286-0.083,0.566-0.18,0.836-0.296c15.322-5.736,26.809-19.391,29.448-35.958h37.052
	C335.415,247.652,307.882,278.318,270.805,284.999z"/>
<path d="M395.901,0H116.099C52.082,0,0,52.082,0,116.099v279.803C0,459.918,52.082,512,116.099,512h279.803
	C459.918,512,512,459.918,512,395.901V116.099C512,52.082,459.918,0,395.901,0z M497.427,395.901
	c0,55.982-45.545,101.526-101.526,101.526H116.099c-55.981,0-101.526-45.544-101.526-101.526V116.099
	c0-55.982,45.544-101.526,101.526-101.526h279.803c55.981,0,101.526,45.544,101.526,101.526v279.802H497.427z"/>
<g>
</g>
<g>
</g>
<g>
</g>
<g>
</g>
<g>
</g>
<g>
</g>
<g>
</g>
<g>
</g>
<g>
</g>
<g>
</g>
<g>
</g>
<g>
</g>
<g>
</g>
<g>
</g>
<g>
</g>
</svg>
