<?xml version="1.0" encoding="iso-8859-1"?>
<!-- Generator: Adobe Illustrator 19.0.0, SVG Export Plug-In . SVG Version: 6.00 Build 0)  -->
<svg version="1.1" id="Layer_1" xmlns="http://www.w3.org/2000/svg" xmlns:xlink="http://www.w3.org/1999/xlink" x="0px" y="0px"
	 viewBox="0 0 512 512" style="enable-background:new 0 0 512 512;" xml:space="preserve">
<path style="fill:#103B9B;" d="M395.901,7.286H116.099C56.003,7.286,7.286,56.004,7.286,116.099v279.803
	c0,60.095,48.717,108.812,108.812,108.812h279.803c60.095,0,108.812-48.717,108.812-108.812V116.099
	C504.714,56.004,455.997,7.286,395.901,7.286z"/>
<path style="fill:#FFFFFF;" d="M32.617,465.687l472.096-232.901V133.3L24.315,454.368C26.84,458.323,29.617,462.102,32.617,465.687z
	"/>
<path style="fill:#FF7900;" d="M18.433,443.913c1.774,3.601,3.736,7.092,5.882,10.455l480.398-321.066V116.1
	c0-24.124-7.856-46.411-21.142-64.453L18.433,443.913z"/>
<circle style="fill:#FFFFFF;" cx="131.64" cy="142.15" r="33.16"/>
<path d="M74.456,149.431h17.409c3.01,16.47,16.022,29.482,32.492,32.492v17.409c0,4.024,3.262,7.286,7.287,7.286
	c4.024,0,7.286-3.262,7.286-7.286v-17.409c16.47-3.01,29.481-16.022,32.492-32.492h17.409c4.024,0,7.286-3.262,7.286-7.286
	s-3.262-7.286-7.286-7.286h-17.409c-3.01-16.47-16.022-29.481-32.492-32.492V84.958c0-4.024-3.262-7.286-7.286-7.286
	s-7.287,3.262-7.287,7.286v17.409c-16.47,3.01-29.481,16.021-32.492,32.492H74.456c-4.024,0-7.287,3.262-7.287,7.286
	S70.432,149.431,74.456,149.431z M131.643,116.269c14.268,0,25.875,11.608,25.875,25.875c0,14.268-11.608,25.875-25.875,25.875
	c-14.268,0-25.875-11.608-25.875-25.875C105.768,127.877,117.376,116.269,131.643,116.269z"/>
<path d="M489.891,48.03c-0.215-0.375-0.461-0.739-0.75-1.081c-0.057-0.068-0.121-0.128-0.18-0.193
	C467.773,18.394,433.945,0,395.901,0H116.099C52.082,0,0,52.082,0,116.099v279.803c0,18.15,4.19,35.338,11.648,50.654
	c0.153,0.394,0.344,0.776,0.57,1.146c3.952,7.894,8.772,15.282,14.344,22.028c0.295,0.444,0.639,0.837,1.012,1.196
	C48.886,496.035,80.661,512,116.099,512h279.803C459.918,512,512,459.918,512,395.901V116.099
	C512,90.691,503.789,67.168,489.891,48.03z M14.573,116.099c0-55.982,45.544-101.526,101.526-101.526h279.803
	c31.064,0,58.909,14.029,77.547,36.078l-21.234,17.908c-3.077,2.594-3.467,7.192-0.873,10.268c1.441,1.709,3.501,2.589,5.574,2.589
	c1.658,0,3.326-0.563,4.694-1.716l20.449-17.245c9.733,15.576,15.369,33.963,15.369,53.645v112.157L34.712,456.529
	c-2.579-3.453-4.94-7.079-7.07-10.85l405.062-341.602c3.077-2.594,3.467-7.191,0.873-10.268c-2.595-3.077-7.192-3.468-10.268-0.873
	L21.222,432.029c-4.291-11.23-6.649-23.408-6.649-36.128V116.099z M395.901,497.427H116.099c-27.864,0-53.14-11.286-71.504-29.523
	l452.832-223.397v151.395C497.427,451.883,451.882,497.427,395.901,497.427z"/>
<g>
</g>
<g>
</g>
<g>
</g>
<g>
</g>
<g>
</g>
<g>
</g>
<g>
</g>
<g>
</g>
<g>
</g>
<g>
</g>
<g>
</g>
<g>
</g>
<g>
</g>
<g>
</g>
<g>
</g>
</svg>
