<?xml version="1.0" encoding="iso-8859-1"?>
<!-- Generator: Adobe Illustrator 19.0.0, SVG Export Plug-In . SVG Version: 6.00 Build 0)  -->
<svg version="1.1" id="Layer_1" xmlns="http://www.w3.org/2000/svg" xmlns:xlink="http://www.w3.org/1999/xlink" x="0px" y="0px"
	 viewBox="0 0 512.001 512.001" style="enable-background:new 0 0 512.001 512.001;" xml:space="preserve">
<path style="fill:#ED1F34;" d="M400,0H112C50.144,0,0,50.144,0,112v288c0,61.856,50.144,112,112,112h288
	c61.856,0,112-50.144,112-112V112C512,50.144,461.856,0,400,0z"/>
<g>
	<path style="fill:#FFE000;" d="M256,138.24c7.253,0,14.342,0.694,21.236,1.955L297.03,0h-82.058l19.793,140.195
		C241.658,138.934,248.748,138.24,256,138.24z"/>
	<path style="fill:#FFE000;" d="M256,373.76c-7.253,0-14.342-0.694-21.236-1.955L214.971,512h82.058l-19.793-140.195
		C270.343,373.066,263.253,373.76,256,373.76z"/>
	<path style="fill:#FFE000;" d="M138.24,256c0-7.253,0.694-14.342,1.955-21.237L0,221.797v68.405l140.195-12.966
		C138.934,270.342,138.24,263.253,138.24,256z"/>
	<path style="fill:#FFE000;" d="M373.76,256c0,7.253-0.694,14.342-1.955,21.237L512,290.203v-68.405l-140.195,12.966
		C373.067,241.658,373.76,248.747,373.76,256z"/>
	<path style="fill:#FFE000;" d="M153.622,314.08L1.917,420.697c4.983,26.668,19.414,50.006,39.691,66.412L180.899,346.63
		C169.956,337.546,160.702,326.51,153.622,314.08z"/>
	<path style="fill:#FFE000;" d="M180.898,165.371L41.607,24.891C21.331,41.297,6.9,64.635,1.917,91.303L153.623,197.92
		C160.702,185.49,169.956,174.454,180.898,165.371z"/>
	<path style="fill:#FFE000;" d="M358.378,197.92L510.084,91.303c-4.983-26.668-19.414-50.006-39.691-66.412l-139.291,140.48
		C342.045,174.454,351.299,185.49,358.378,197.92z"/>
	<path style="fill:#FFE000;" d="M331.102,346.629l139.291,140.479c20.276-16.406,34.708-39.744,39.691-66.412L358.378,314.08
		C351.299,326.51,342.045,337.546,331.102,346.629z"/>
	<circle style="fill:#FFE000;" cx="256" cy="256" r="66.56"/>
</g>
<path d="M512,289.15v-66.3c0-0.004,0-0.008,0-0.012V116.099c0-7.289-0.682-14.421-1.974-21.342
	c-0.006-0.035-0.005-0.069-0.012-0.104c-0.081-0.432-0.171-0.861-0.257-1.292c-0.055-0.278-0.108-0.557-0.166-0.835
	c-0.178-0.863-0.365-1.723-0.563-2.579c-0.003-0.014-0.006-0.028-0.009-0.041c-5.803-25.125-19.931-47.744-40.147-64.101
	c-0.222-0.18-0.453-0.339-0.689-0.488C448.338,9.481,423.208,0,395.902,0H116.099C88.793,0,63.662,9.481,43.815,25.317
	c-0.235,0.149-0.467,0.308-0.688,0.488C22.911,42.162,8.783,64.78,2.98,89.906c-0.003,0.014-0.006,0.027-0.009,0.041
	c-0.198,0.857-0.385,1.717-0.563,2.579c-0.057,0.277-0.11,0.557-0.166,0.835c-0.086,0.431-0.176,0.86-0.257,1.292
	c-0.007,0.035-0.006,0.069-0.012,0.104C0.683,101.677,0,108.809,0,116.099v106.739c0,0.004,0,0.008,0,0.012v66.3
	c0,0.004,0,0.008,0,0.012v106.739c0,7.289,0.682,14.421,1.974,21.342c0.006,0.035,0.005,0.069,0.012,0.104
	c0.081,0.432,0.171,0.861,0.257,1.292c0.055,0.278,0.108,0.557,0.166,0.835c0.178,0.862,0.365,1.723,0.563,2.579
	c0.003,0.014,0.006,0.027,0.009,0.041c5.803,25.126,19.931,47.744,40.147,64.101c0.164,0.133,0.343,0.231,0.515,0.347
	C63.516,502.462,88.713,512,116.099,512h179.733c0.007,0,0.014,0.001,0.021,0.001c0.004,0,0.009-0.001,0.013-0.001h100.035
	c27.387,0,52.584-9.538,72.458-25.458c0.171-0.116,0.351-0.214,0.514-0.347c20.216-16.357,34.344-38.975,40.147-64.101
	c0.003-0.014,0.006-0.027,0.009-0.041c0.198-0.857,0.385-1.717,0.563-2.579c0.058-0.277,0.11-0.556,0.166-0.835
	c0.086-0.43,0.176-0.86,0.257-1.292c0.007-0.035,0.006-0.069,0.012-0.104c1.291-6.921,1.974-14.052,1.974-21.342V289.162
	C512,289.158,512,289.154,512,289.15z M376.858,241.913l120.569-11.151v50.475l-120.569-11.151
	c0.556-4.717,0.837-9.431,0.837-14.087C377.695,251.344,377.414,246.63,376.858,241.913z M489.351,76.423
	c0.061,0.144,0.122,0.288,0.182,0.432c0.858,2.04,1.65,4.115,2.376,6.22c0.135,0.394,0.268,0.788,0.399,1.184
	c0.229,0.692,0.453,1.387,0.668,2.087c0.224,0.729,0.442,1.459,0.649,2.194c0.137,0.487,0.267,0.977,0.398,1.466
	c0.167,0.629,0.328,1.261,0.483,1.894c0.073,0.299,0.149,0.597,0.219,0.897l-137.106,96.356
	c-5.183-7.872-11.225-15.081-18.056-21.542L464.647,41.46C475.177,51.166,483.657,63.063,489.351,76.423z M287.475,14.573
	l-17.028,120.612c-9.675-1.169-19.216-1.169-28.892,0L224.526,14.573H287.475z M17.496,91.9c0.155-0.633,0.316-1.264,0.483-1.894
	c0.13-0.49,0.26-0.979,0.398-1.466c0.207-0.734,0.425-1.465,0.649-2.194c0.215-0.699,0.438-1.394,0.668-2.087
	c0.131-0.396,0.263-0.79,0.399-1.184c0.726-2.105,1.517-4.18,2.376-6.22c0.06-0.144,0.121-0.288,0.182-0.432
	c5.694-13.36,14.174-25.257,24.704-34.963l125.084,126.151c-6.831,6.461-12.873,13.669-18.057,21.542L17.276,92.797
	C17.347,92.497,17.422,92.199,17.496,91.9z M135.143,270.087l-120.569,11.15v-50.475l120.569,11.151
	c-0.556,4.717-0.837,9.431-0.837,14.087S134.587,265.37,135.143,270.087z M22.647,435.569c-0.059-0.138-0.117-0.277-0.176-0.416
	c-0.86-2.044-1.653-4.123-2.38-6.232c-0.135-0.391-0.266-0.783-0.396-1.176c-0.231-0.698-0.457-1.398-0.673-2.103
	c-0.222-0.724-0.439-1.451-0.645-2.181c-0.138-0.487-0.268-0.978-0.398-1.468c-0.167-0.629-0.328-1.26-0.483-1.893
	c-0.073-0.299-0.149-0.598-0.22-0.898l137.106-96.356c5.183,7.873,11.224,15.081,18.057,21.542L47.354,470.54
	C36.822,460.832,28.341,448.933,22.647,435.569z M224.526,497.427l17.028-120.612c9.675,1.169,19.216,1.169,28.892,0l17.028,120.612
	H224.526z M302.192,497.427l-18.345-129.936c-0.277-1.964-1.344-3.731-2.953-4.891s-3.621-1.614-5.573-1.258
	c-6.456,1.181-12.957,1.78-19.321,1.78s-12.864-0.599-19.321-1.78c-1.952-0.357-3.964,0.097-5.574,1.258
	c-1.609,1.16-2.675,2.927-2.953,4.891l-18.345,129.936h-93.71c-21.236,0-40.966-6.558-57.282-17.75L188.21,349.18
	c1.439-1.452,2.203-3.441,2.104-5.483s-1.051-3.948-2.624-5.254c-10.007-8.307-18.358-18.274-24.822-29.623
	c-1.016-1.784-2.737-3.056-4.74-3.504c-2.005-0.449-4.103-0.032-5.782,1.149L14.832,403.108c-0.168-2.381-0.259-4.784-0.259-7.207
	V295.873l129.589-11.985c2.037-0.188,3.9-1.223,5.135-2.853c1.236-1.629,1.73-3.703,1.361-5.714
	c-1.181-6.455-1.78-12.956-1.78-19.321s0.599-12.865,1.78-19.321c0.368-2.011-0.126-4.085-1.361-5.714
	c-1.235-1.63-3.099-2.665-5.135-2.853L14.574,216.127V116.099c0-2.423,0.091-4.826,0.259-7.207l137.514,96.643
	c1.238,0.87,2.703,1.325,4.19,1.325c0.531,0,1.065-0.058,1.592-0.176c2.003-0.448,3.724-1.721,4.74-3.504
	c6.464-11.35,14.816-21.316,24.822-29.622c1.573-1.306,2.525-3.212,2.624-5.254c0.099-2.042-0.665-4.031-2.104-5.483L58.817,32.323
	c16.316-11.191,36.046-17.75,57.282-17.75h93.71l18.345,129.936c0.277,1.964,1.344,3.731,2.953,4.891
	c1.609,1.161,3.622,1.615,5.574,1.258c6.456-1.181,12.957-1.78,19.321-1.78s12.864,0.599,19.321,1.78
	c0.436,0.08,0.874,0.119,1.311,0.119c1.519,0,3.012-0.475,4.262-1.377c1.609-1.16,2.676-2.927,2.953-4.891l18.345-129.936h93.71
	c21.236,0,40.967,6.558,57.283,17.75L323.791,162.82c-1.439,1.452-2.203,3.441-2.104,5.483s1.051,3.948,2.624,5.254
	c10.006,8.305,18.357,18.272,24.822,29.622c1.016,1.784,2.737,3.056,4.74,3.504c0.527,0.118,1.06,0.176,1.591,0.176
	c1.487,0,2.952-0.455,4.19-1.325l137.514-96.643c0.168,2.381,0.259,4.784,0.259,7.207v100.028l-129.589,11.985
	c-2.037,0.188-3.9,1.223-5.135,2.853c-1.236,1.63-1.73,3.703-1.362,5.714c1.181,6.455,1.78,12.956,1.78,19.321
	s-0.599,12.865-1.78,19.321c-0.368,2.011,0.126,4.085,1.362,5.714c1.235,1.63,3.099,2.665,5.135,2.853l129.589,11.985V395.9
	c0,2.423-0.091,4.826-0.259,7.207l-137.514-96.643c-1.679-1.18-3.779-1.597-5.782-1.149c-2.003,0.448-3.724,1.721-4.74,3.504
	c-6.464,11.349-14.815,21.316-24.822,29.623c-1.573,1.306-2.525,3.212-2.624,5.254s0.665,4.031,2.104,5.483l129.393,130.497
	c-16.316,11.191-36.046,17.75-57.282,17.75h-93.709V497.427z M494.505,420.101c-0.155,0.633-0.316,1.264-0.483,1.893
	c-0.131,0.49-0.26,0.98-0.398,1.468c-0.206,0.73-0.423,1.456-0.645,2.181c-0.216,0.704-0.442,1.405-0.673,2.103
	c-0.13,0.393-0.262,0.785-0.396,1.176c-0.727,2.109-1.52,4.188-2.381,6.232c-0.058,0.139-0.117,0.278-0.176,0.416
	c-5.694,13.364-14.176,25.263-24.708,34.97L339.563,344.389c6.832-6.461,12.873-13.668,18.056-21.542l137.106,96.356
	C494.654,419.503,494.579,419.802,494.505,420.101z"/>
<path d="M318.507,274.147c-3.716-1.549-7.981,0.206-9.53,3.92C300.03,299.519,279.235,313.38,256,313.38
	c-31.639,0-57.379-25.74-57.379-57.379s25.74-57.379,57.379-57.379c23.235,0,44.03,13.861,52.977,35.313
	c1.548,3.714,5.815,5.468,9.53,3.92c3.714-1.549,5.469-5.815,3.92-9.53c-11.217-26.896-37.292-44.276-66.426-44.276
	c-39.675,0-71.952,32.277-71.952,71.952s32.277,71.952,71.952,71.952c29.135,0,55.209-17.379,66.426-44.276
	C323.976,279.962,322.221,275.695,318.507,274.147z"/>
<g>
</g>
<g>
</g>
<g>
</g>
<g>
</g>
<g>
</g>
<g>
</g>
<g>
</g>
<g>
</g>
<g>
</g>
<g>
</g>
<g>
</g>
<g>
</g>
<g>
</g>
<g>
</g>
<g>
</g>
</svg>
