<?xml version="1.0" encoding="iso-8859-1"?>
<!-- Generator: Adobe Illustrator 19.0.0, SVG Export Plug-In . SVG Version: 6.00 Build 0)  -->
<svg version="1.1" id="Layer_1" xmlns="http://www.w3.org/2000/svg" xmlns:xlink="http://www.w3.org/1999/xlink" x="0px" y="0px"
	 viewBox="0 0 512 512" style="enable-background:new 0 0 512 512;" xml:space="preserve">
<rect x="173.1" y="7.286" style="fill:#103B9B;" width="165.81" height="497.43"/>
<g>
	<path style="fill:#ED1F34;" d="M395.901,7.286h-56.997v497.427h56.997c60.095,0,108.812-48.717,108.812-108.812V116.099
		C504.714,56.004,455.997,7.286,395.901,7.286z"/>
	<path style="fill:#ED1F34;" d="M116.099,7.286C56.003,7.286,7.286,56.004,7.286,116.099v279.803
		c0,60.095,48.717,108.812,108.812,108.812h56.997V7.286H116.099z"/>
</g>
<path d="M395.901,0H116.099C52.082,0,0,52.082,0,116.099v279.803C0,459.918,52.082,512,116.099,512h279.803
	C459.918,512,512,459.918,512,395.901V116.099C512,52.082,459.918,0,395.901,0z M14.573,395.901V116.099
	c0-55.981,45.544-101.526,101.526-101.526h49.71v482.854h-49.71C60.117,497.427,14.573,451.882,14.573,395.901z M497.427,395.901
	c0,55.981-45.544,101.526-101.526,101.526h-49.71v-25.876c0-4.025-3.262-7.286-7.287-7.286c-4.024,0-7.286,3.262-7.286,7.286v25.876
	H180.382V14.573h151.236V438.39c0,4.025,3.262,7.287,7.286,7.287c4.024,0,7.287-3.262,7.287-7.287V14.573h49.71
	c55.981,0,101.526,45.544,101.526,101.526L497.427,395.901L497.427,395.901z"/>
<g>
	<path style="fill:#FFE000;" d="M129.903,289.731c-3.861-1.137-7.911,1.075-9.047,4.935c-3.975,13.515-16.585,22.954-30.665,22.954
		s-26.69-9.439-30.666-22.954c-1.136-3.86-5.186-6.066-9.047-4.934c-3.861,1.136-6.07,5.186-4.934,9.047
		c5.787,19.674,24.146,33.415,44.647,33.415s38.86-13.741,44.647-33.416C135.973,294.917,133.764,290.866,129.903,289.731z"/>
	<path style="fill:#FFE000;" d="M90.191,304.558c10.417,0,18.893-8.475,18.893-18.893s-8.475-18.893-18.893-18.893
		s-18.893,8.475-18.893,18.893C71.298,296.082,79.773,304.558,90.191,304.558z"/>
	<path style="fill:#FFE000;" d="M134.406,345.393c-4.024,0-7.286,3.262-7.286,7.286v88.954c0,4.025,3.262,7.286,7.286,7.286
		s7.287-3.262,7.287-7.286v-88.954C141.693,348.655,138.431,345.393,134.406,345.393z"/>
	<path style="fill:#FFE000;" d="M45.975,345.393c-4.024,0-7.286,3.262-7.286,7.286v88.954c0,4.025,3.262,7.286,7.286,7.286
		s7.287-3.262,7.287-7.286v-88.954C53.262,348.655,50,345.393,45.975,345.393z"/>
	<path style="fill:#FFE000;" d="M90.191,253.71c4.024,0,7.286-3.262,7.286-7.287v-10.248c0-4.025-3.262-7.286-7.286-7.286
		s-7.287,3.262-7.287,7.286v10.248C82.905,250.448,86.167,253.71,90.191,253.71z"/>
	<path style="fill:#FFE000;" d="M90.191,372.889c-13.161,0-23.868,10.707-23.868,23.868c0,13.16,10.707,23.867,23.868,23.867
		c13.16,0,23.867-10.707,23.867-23.867C114.058,383.596,103.352,372.889,90.191,372.889z"/>
	<path style="fill:#FFE000;" d="M106.772,433.686H73.61c-4.024,0-7.287,3.262-7.287,7.286s3.262,7.286,7.287,7.286h33.162
		c4.024,0,7.286-3.262,7.286-7.286S110.796,433.686,106.772,433.686z"/>
	<path style="fill:#FFE000;" d="M106.772,345.254H73.61c-4.024,0-7.287,3.262-7.287,7.286s3.262,7.286,7.287,7.286h33.162
		c4.024,0,7.286-3.262,7.286-7.286S110.796,345.254,106.772,345.254z"/>
</g>
<g>
</g>
<g>
</g>
<g>
</g>
<g>
</g>
<g>
</g>
<g>
</g>
<g>
</g>
<g>
</g>
<g>
</g>
<g>
</g>
<g>
</g>
<g>
</g>
<g>
</g>
<g>
</g>
<g>
</g>
</svg>
