<?xml version="1.0" encoding="iso-8859-1"?>
<!-- Generator: Adobe Illustrator 19.0.0, SVG Export Plug-In . SVG Version: 6.00 Build 0)  -->
<svg version="1.1" id="Layer_1" xmlns="http://www.w3.org/2000/svg" xmlns:xlink="http://www.w3.org/1999/xlink" x="0px" y="0px"
	 viewBox="0 0 512 512" style="enable-background:new 0 0 512 512;" xml:space="preserve">
<path style="fill:#048B7D;" d="M395.901,7.286H116.099C56.003,7.286,7.286,56.004,7.286,116.099v279.803
	c0,60.095,48.717,108.812,108.812,108.812h279.803c60.095,0,108.812-48.717,108.812-108.812V116.099
	C504.714,56.004,455.997,7.286,395.901,7.286z"/>
<path style="fill:#FFFFFF;" d="M345.792,252.669c-14.49-11.134-37.392-12.529-57.903-1.919c-1.271,0.658-2.51,1.35-3.715,2.073
	c0.089-1.403,0.134-2.821,0.134-4.252c0-23.093-11.762-42.794-28.308-50.547c-16.547,7.754-28.308,27.454-28.308,50.547
	c0,1.431,0.046,2.849,0.134,4.252c-1.205-0.723-2.444-1.416-3.715-2.073c-20.511-10.61-43.413-9.216-57.903,1.919
	c-0.716,18.259,11.378,37.758,31.889,48.368c20.511,10.61,43.413,9.215,57.903-1.919c14.49,11.134,37.392,12.529,57.903,1.919
	C334.413,290.427,346.508,270.928,345.792,252.669z"/>
<g>
	<circle style="fill:#FFE610;" cx="256" cy="145.14" r="16.581"/>
	<circle style="fill:#FFE610;" cx="208.2" cy="163.99" r="11.05"/>
	<circle style="fill:#FFE610;" cx="178.65" cy="196.92" r="11.05"/>
	<circle style="fill:#FFE610;" cx="333.35" cy="196.92" r="11.05"/>
	<circle style="fill:#FFE610;" cx="303.8" cy="163.99" r="11.05"/>
</g>
<path style="fill:#FFFFFF;" d="M256,383.437c23.865,0,45.477-9.625,61.182-25.197H194.818
	C210.523,373.812,232.135,383.437,256,383.437z"/>
<path d="M395.901,0H116.099C52.082,0,0,52.082,0,116.099v279.803C0,459.918,52.082,512,116.099,512h279.803
	C459.918,512,512,459.918,512,395.901V116.099C512,52.082,459.918,0,395.901,0z M497.427,395.901
	c0,55.981-45.545,101.526-101.526,101.526H116.099c-55.981,0-101.526-45.545-101.526-101.526V116.099
	c0-55.981,45.544-101.526,101.526-101.526h279.803c55.981,0,101.526,45.544,101.526,101.526v279.802H497.427z"/>
<path d="M350.232,246.891c-8.953-6.88-20.832-10.67-33.446-10.67c-8.56,0-17.27,1.716-25.548,5.004
	c-2.195-22.363-14.324-41.449-32.145-49.799c-1.96-0.918-4.224-0.918-6.184,0c-17.822,8.35-29.951,27.436-32.145,49.799
	c-8.278-3.288-16.989-5.004-25.548-5.004c-12.614,0-24.492,3.789-33.446,10.67c-1.716,1.319-2.757,3.331-2.842,5.492
	c-0.854,21.789,13.208,43.427,35.823,55.125c10.189,5.271,21.34,8.057,32.246,8.057c10.627,0,20.73-2.689,29.005-7.651
	c8.273,4.961,18.378,7.651,29.005,7.651c0.002,0,0.002,0,0.003,0c10.904,0,22.054-2.787,32.243-8.057
	c22.615-11.698,36.676-33.336,35.823-55.125C352.989,250.222,351.948,248.21,350.232,246.891z M310.554,294.565
	c-8.128,4.205-16.961,6.427-25.547,6.427h-0.002c-9.421,0-18.145-2.718-24.566-7.652c-1.308-1.006-2.874-1.509-4.439-1.509
	c-1.566,0-3.131,0.503-4.439,1.509c-6.422,4.934-15.146,7.652-24.565,7.652c-8.586,0-17.421-2.223-25.549-6.427
	c-16.073-8.314-26.899-23.284-27.905-38.1c6.04-3.676,13.602-5.672,21.674-5.672c8.586,0,17.42,2.223,25.546,6.426
	c1.124,0.582,2.24,1.205,3.316,1.851c2.323,1.394,5.226,1.385,7.539-0.024c2.314-1.408,3.656-3.983,3.484-6.686
	c-0.08-1.253-0.12-2.529-0.12-3.79c0-18.099,8.323-34.593,21.022-42.292c12.699,7.699,21.022,24.194,21.022,42.292
	c0,1.262-0.041,2.537-0.12,3.79c-0.172,2.703,1.17,5.278,3.484,6.686c2.313,1.409,5.216,1.418,7.539,0.024
	c1.076-0.646,2.192-1.27,3.313-1.85c8.128-4.204,16.962-6.427,25.548-6.427c8.072,0,15.634,1.995,21.674,5.672
	C337.453,271.282,326.627,286.251,310.554,294.565z"/>
<path d="M317.182,350.953H194.818c-2.952,0-5.614,1.782-6.738,4.512c-1.124,2.731-0.489,5.87,1.608,7.949
	C207.45,381.026,231,390.724,256,390.724s48.55-9.698,66.312-27.309c2.097-2.079,2.732-5.218,1.608-7.949
	C322.796,352.735,320.135,350.953,317.182,350.953z M256,376.151c-14.183,0-27.815-3.694-39.786-10.624h79.573
	C283.815,372.457,270.183,376.151,256,376.151z"/>
<path d="M337.751,325.973H174.249c-4.025,0-7.287,3.262-7.287,7.286s3.262,7.286,7.287,7.286h163.503
	c4.025,0,7.287-3.262,7.287-7.286S341.776,325.973,337.751,325.973z"/>
<g>
</g>
<g>
</g>
<g>
</g>
<g>
</g>
<g>
</g>
<g>
</g>
<g>
</g>
<g>
</g>
<g>
</g>
<g>
</g>
<g>
</g>
<g>
</g>
<g>
</g>
<g>
</g>
<g>
</g>
</svg>
