<?xml version="1.0" encoding="iso-8859-1"?>
<!-- Generator: Adobe Illustrator 19.0.0, SVG Export Plug-In . SVG Version: 6.00 Build 0)  -->
<svg version="1.1" id="Layer_1" xmlns="http://www.w3.org/2000/svg" xmlns:xlink="http://www.w3.org/1999/xlink" x="0px" y="0px"
	 viewBox="0 0 512 512" style="enable-background:new 0 0 512 512;" xml:space="preserve">
<path style="fill:#ED1F34;" d="M395.901,7.286H116.099C56.003,7.286,7.286,56.004,7.286,116.099v279.803
	c0,60.095,48.717,108.812,108.812,108.812h279.803c60.095,0,108.812-48.717,108.812-108.812V116.099
	C504.714,56.004,455.997,7.286,395.901,7.286z"/>
<path style="fill:#FFFFFF;" d="M256,362.772c-67.341,0-122.126-54.786-122.126-122.126S188.659,118.52,256,118.52
	s122.126,54.786,122.126,122.126S323.341,362.772,256,362.772z M256,133.093c-59.305,0-107.553,48.249-107.553,107.553
	c0,59.305,48.248,107.553,107.553,107.553s107.553-48.248,107.553-107.553C363.553,181.342,315.305,133.093,256,133.093z"/>
<polygon style="fill:#B3B3B3;" points="288.916,386.194 223.084,386.194 232.356,168.431 279.644,168.431 "/>
<path d="M288.935,393.48c-0.008-0.001-0.014-0.001-0.02,0h-65.832c-1.986,0-3.887-0.811-5.261-2.245
	c-1.374-1.434-2.104-3.367-2.019-5.352l9.272-217.763c0.166-3.899,3.376-6.976,7.28-6.976h47.287c3.904,0,7.114,3.077,7.28,6.976
	l9.25,217.224c0.032,0.278,0.049,0.562,0.049,0.849C296.222,390.218,292.96,393.48,288.935,393.48z M230.687,378.907h50.625
	l-8.652-203.19h-33.322L230.687,378.907z"/>
<path d="M395.901,512H116.099C52.082,512,0,459.918,0,395.901V116.099C0,52.082,52.082,0,116.099,0h279.803
	C459.918,0,512,52.082,512,116.099v279.803C512,459.918,459.918,512,395.901,512z M116.099,14.573
	c-55.982,0-101.526,45.544-101.526,101.526v279.803c0,55.981,45.544,101.526,101.526,101.526h279.803
	c55.981,0,101.526-45.545,101.526-101.526V116.099c0-55.981-45.544-101.526-101.526-101.526
	C395.902,14.573,116.099,14.573,116.099,14.573z"/>
<polygon style="fill:#FFFFFF;" points="192.075,241.648 239.142,239.216 256,195.203 272.858,239.216 319.925,241.648 
	283.276,271.281 295.508,316.797 256,291.098 216.492,316.797 228.724,271.281 "/>
<path d="M295.508,324.083c-1.38,0-2.762-0.391-3.973-1.178L256,299.791l-35.535,23.114c-2.53,1.648-5.814,1.562-8.256-0.213
	c-2.442-1.774-3.537-4.871-2.754-7.786l11.002-40.939l-32.963-26.653c-2.348-1.897-3.282-5.046-2.349-7.917s3.539-4.87,6.554-5.026
	l42.335-2.187l15.162-39.587c1.08-2.819,3.786-4.68,6.805-4.68s5.725,1.861,6.805,4.68l15.162,39.587l42.335,2.187
	c3.014,0.156,5.621,2.155,6.554,5.026c0.933,2.871-0.001,6.02-2.349,7.917l-32.963,26.653l11.002,40.939
	c0.783,2.915-0.312,6.011-2.754,7.786C298.517,323.618,297.013,324.083,295.508,324.083z M256,283.812
	c1.383,0,2.765,0.393,3.973,1.178l23.561,15.325l-7.295-27.144c-0.748-2.783,0.215-5.745,2.456-7.557l21.856-17.672l-28.069-1.45
	c-2.878-0.149-5.398-1.98-6.429-4.671L256,215.575l-10.053,26.248c-1.031,2.691-3.551,4.522-6.429,4.671l-28.069,1.45l21.856,17.672
	c2.241,1.812,3.204,4.774,2.456,7.557l-7.295,27.144l23.561-15.325C253.235,284.205,254.617,283.812,256,283.812z"/>
<g>
</g>
<g>
</g>
<g>
</g>
<g>
</g>
<g>
</g>
<g>
</g>
<g>
</g>
<g>
</g>
<g>
</g>
<g>
</g>
<g>
</g>
<g>
</g>
<g>
</g>
<g>
</g>
<g>
</g>
</svg>
