<?xml version="1.0" encoding="iso-8859-1"?>
<!-- Generator: Adobe Illustrator 19.0.0, SVG Export Plug-In . SVG Version: 6.00 Build 0)  -->
<svg version="1.1" id="Layer_1" xmlns="http://www.w3.org/2000/svg" xmlns:xlink="http://www.w3.org/1999/xlink" x="0px" y="0px"
	 viewBox="0 0 512 512" style="enable-background:new 0 0 512 512;" xml:space="preserve">
<path style="fill:#103B9B;" d="M395.901,7.286H116.099C56.003,7.286,7.286,56.004,7.286,116.099v279.803
	c0,60.095,48.717,108.812,108.812,108.812h279.803c60.095,0,108.812-48.717,108.812-108.812V116.099
	C504.713,56.004,455.997,7.286,395.901,7.286z"/>
<g>
	<polygon style="fill:#FFFFFF;" points="504.713,223.115 288.886,223.115 288.886,7.286 223.115,7.286 223.115,223.115 
		7.286,223.115 7.286,288.885 223.115,288.885 223.115,504.714 288.886,504.714 288.886,288.885 504.713,288.885 	"/>
	<path style="fill:#FFFFFF;" d="M142.782,434.795h-38.513c-13.199,0-23.936-10.738-23.936-23.936
		c0-13.199,10.738-23.936,23.936-23.936h21.863c5.163,0,9.363-4.2,9.363-9.363s-4.2-9.363-9.363-9.363h-21.863
		c-4.024,0-7.286-3.262-7.286-7.286s3.262-7.286,7.286-7.286h21.863c13.199,0,23.936,10.738,23.936,23.936
		c0,13.199-10.738,23.936-23.936,23.936h-21.863c-5.163,0-9.363,4.2-9.363,9.363s4.2,9.363,9.363,9.363h38.513
		c4.024,0,7.286,3.262,7.286,7.287S146.806,434.795,142.782,434.795z"/>
	<path style="fill:#FFFFFF;" d="M142.782,158.378h-38.513c-13.199,0-23.936-10.738-23.936-23.936
		c0-13.199,10.738-23.936,23.936-23.936h21.863c5.163,0,9.363-4.2,9.363-9.363s-4.2-9.363-9.363-9.363h-21.863
		c-4.024,0-7.286-3.262-7.286-7.286s3.262-7.287,7.286-7.287h21.863c13.199,0,23.936,10.738,23.936,23.937
		s-10.738,23.936-23.936,23.936h-21.863c-5.163,0-9.363,4.2-9.363,9.363c0,5.163,4.2,9.363,9.363,9.363h38.513
		c4.024,0,7.286,3.262,7.286,7.286S146.806,158.378,142.782,158.378z"/>
	<path style="fill:#FFFFFF;" d="M424.381,434.795h-38.512c-13.199,0-23.937-10.738-23.937-23.936
		c0-13.199,10.738-23.936,23.937-23.936h21.862c5.163,0,9.363-4.2,9.363-9.363s-4.2-9.363-9.363-9.363h-21.862
		c-4.024,0-7.286-3.262-7.286-7.286s3.262-7.286,7.286-7.286h21.862c13.199,0,23.936,10.738,23.936,23.936
		c0,13.199-10.738,23.936-23.936,23.936h-21.862c-5.163,0-9.364,4.2-9.364,9.363s4.201,9.363,9.364,9.363h38.512
		c4.024,0,7.287,3.262,7.287,7.287S428.405,434.795,424.381,434.795z"/>
	<path style="fill:#FFFFFF;" d="M424.381,158.378h-38.512c-13.199,0-23.937-10.738-23.937-23.936
		c0-13.199,10.738-23.936,23.937-23.936h21.862c5.163,0,9.363-4.2,9.363-9.363s-4.2-9.363-9.363-9.363h-21.862
		c-4.024,0-7.286-3.262-7.286-7.286s3.262-7.287,7.286-7.287h21.862c13.199,0,23.936,10.738,23.936,23.937
		s-10.738,23.936-23.936,23.936h-21.862c-5.163,0-9.364,4.2-9.364,9.363c0,5.163,4.201,9.363,9.364,9.363h38.512
		c4.024,0,7.287,3.262,7.287,7.286S428.405,158.378,424.381,158.378z"/>
</g>
<path d="M395.901,0H116.099C52.082,0,0,52.082,0,116.099v279.803C0,459.918,52.082,512,116.099,512h279.803
	C459.918,512,512,459.918,512,395.901V116.099C512,52.082,459.918,0,395.901,0z M497.427,116.099v99.729h-25.875
	c-4.024,0-7.286,3.262-7.286,7.286s3.262,7.287,7.286,7.287h25.875v51.198H288.886c-4.024,0-7.286,3.262-7.286,7.287v208.541
	h-51.198V288.886c0-4.024-3.262-7.287-7.286-7.287H14.573v-51.198h208.542c4.024,0,7.286-3.262,7.286-7.287V14.573H281.6v208.541
	c0,4.024,3.262,7.287,7.286,7.287H438.39c4.024,0,7.287-3.262,7.287-7.287s-3.262-7.286-7.287-7.286H296.173V14.573h99.729
	C451.883,14.573,497.427,60.117,497.427,116.099z M116.099,14.573h99.73v201.255H14.573v-99.729
	C14.573,60.117,60.117,14.573,116.099,14.573z M14.573,395.901v-99.729h201.256v201.255h-99.73
	C60.117,497.427,14.573,451.883,14.573,395.901z M395.901,497.427h-99.729V296.172h201.254v99.729
	C497.427,451.883,451.883,497.427,395.901,497.427z"/>
<g>
</g>
<g>
</g>
<g>
</g>
<g>
</g>
<g>
</g>
<g>
</g>
<g>
</g>
<g>
</g>
<g>
</g>
<g>
</g>
<g>
</g>
<g>
</g>
<g>
</g>
<g>
</g>
<g>
</g>
</svg>
