<?xml version="1.0" encoding="iso-8859-1"?>
<!-- Generator: Adobe Illustrator 19.0.0, SVG Export Plug-In . SVG Version: 6.00 Build 0)  -->
<svg version="1.1" id="Layer_1" xmlns="http://www.w3.org/2000/svg" xmlns:xlink="http://www.w3.org/1999/xlink" x="0px" y="0px"
	 viewBox="0 0 512 512" style="enable-background:new 0 0 512 512;" xml:space="preserve">
<path style="fill:#259245;" d="M395.901,7.286H116.099C56.003,7.286,7.286,56.004,7.286,116.099v279.803
	c0,60.095,48.717,108.812,108.812,108.812h279.803c60.095,0,108.812-48.717,108.812-108.812V116.099
	C504.714,56.004,455.997,7.286,395.901,7.286z"/>
<path d="M395.901,512H116.099C52.082,512,0,459.918,0,395.901V116.099C0,52.082,52.082,0,116.099,0h279.803
	C459.918,0,512,52.082,512,116.099v279.803C512,459.918,459.918,512,395.901,512z M116.099,14.573
	c-55.981,0-101.526,45.544-101.526,101.526v279.803c0,55.982,45.544,101.526,101.526,101.526h279.803
	c55.981,0,101.526-45.544,101.526-101.526V116.099c0-55.982-45.545-101.526-101.526-101.526
	C395.902,14.573,116.099,14.573,116.099,14.573z"/>
<polygon style="fill:#FFE000;" points="216.138,183.823 245.442,182.309 255.937,154.907 266.433,182.309 295.737,183.823 
	272.919,202.272 280.535,230.61 255.937,214.61 231.34,230.61 238.956,202.272 "/>
<path d="M280.535,237.897c-1.38,0-2.763-0.391-3.973-1.178l-20.624-13.415l-20.624,13.415c-2.532,1.645-5.815,1.561-8.256-0.214
	c-2.442-1.774-3.538-4.87-2.754-7.786l6.386-23.76l-19.133-15.47c-2.347-1.898-3.281-5.047-2.348-7.918
	c0.933-2.87,3.539-4.869,6.554-5.025l24.571-1.269l8.8-22.976c1.08-2.819,3.786-4.68,6.805-4.68c3.019,0,5.725,1.862,6.805,4.68
	l8.8,22.976l24.571,1.269c3.015,0.156,5.621,2.155,6.554,5.025c0.933,2.871-0.001,6.02-2.348,7.918l-19.133,15.47l6.386,23.76
	c0.784,2.916-0.312,6.012-2.754,7.786C283.544,237.431,282.041,237.897,280.535,237.897z M255.937,207.324
	c1.382,0,2.766,0.393,3.973,1.178l8.65,5.627l-2.678-9.965c-0.748-2.783,0.214-5.746,2.455-7.557l8.025-6.488l-10.306-0.533
	c-2.878-0.148-5.398-1.979-6.429-4.67l-3.691-9.636l-3.691,9.636c-1.03,2.691-3.55,4.522-6.429,4.67l-10.305,0.533l8.025,6.488
	c2.241,1.812,3.203,4.774,2.455,7.557l-2.678,9.965l8.65-5.627C253.172,207.716,254.555,207.324,255.937,207.324z"/>
<path style="fill:#FFE000;" d="M364.326,191.448c-0.088,59.787-48.581,108.228-108.389,108.228s-108.301-48.44-108.389-108.228
	c-6.352,14.503-9.888,30.52-9.888,47.369c0,65.323,52.954,118.277,118.277,118.277s118.277-52.954,118.277-118.277
	C374.215,221.968,370.679,205.951,364.326,191.448z"/>
<path d="M255.937,364.38c-69.236,0-125.564-56.328-125.564-125.564c0-17.464,3.533-34.384,10.5-50.292
	c1.383-3.157,4.792-4.914,8.162-4.21c3.375,0.704,5.794,3.676,5.799,7.122c0.073,49.429,36.91,92.327,85.686,99.786
	c3.978,0.608,6.71,4.326,6.102,8.304c-0.608,3.979-4.324,6.708-8.305,6.102c-27.012-4.131-51.801-17.833-69.798-38.582
	c-10.407-11.999-18.144-25.922-22.867-40.847c-0.47,4.164-0.706,8.372-0.706,12.619c0,61.2,49.79,110.99,110.99,110.99
	s110.99-49.79,110.99-110.99c0-4.246-0.236-8.456-0.707-12.62c-4.716,14.904-12.439,28.813-22.824,40.799
	c-17.969,20.74-42.724,34.451-69.706,38.61c-3.981,0.614-7.697-2.114-8.311-6.091c-0.613-3.978,2.114-7.699,6.091-8.312
	c49.508-7.63,85.495-49.587,85.569-99.765c0.005-3.446,2.424-6.418,5.799-7.122c3.371-0.702,6.78,1.053,8.162,4.21
	c6.967,15.908,10.5,32.828,10.5,50.292C381.501,308.052,325.174,364.38,255.937,364.38z"/>
<g>
</g>
<g>
</g>
<g>
</g>
<g>
</g>
<g>
</g>
<g>
</g>
<g>
</g>
<g>
</g>
<g>
</g>
<g>
</g>
<g>
</g>
<g>
</g>
<g>
</g>
<g>
</g>
<g>
</g>
</svg>
