<?xml version="1.0" encoding="iso-8859-1"?>
<!-- Generator: Adobe Illustrator 19.0.0, SVG Export Plug-In . SVG Version: 6.00 Build 0)  -->
<svg version="1.1" id="Layer_1" xmlns="http://www.w3.org/2000/svg" xmlns:xlink="http://www.w3.org/1999/xlink" x="0px" y="0px"
	 viewBox="0 0 512 512" style="enable-background:new 0 0 512 512;" xml:space="preserve">
<path style="fill:#103B9B;" d="M395.901,7.286H116.099C56.003,7.286,7.286,56.004,7.286,116.099v279.803
	c0,60.095,48.717,108.812,108.812,108.812h279.803c60.095,0,108.812-48.717,108.812-108.812V116.099
	C504.714,56.004,455.997,7.286,395.901,7.286z"/>
<g>
	<polygon style="fill:#FFFFFF;" points="312.401,165.22 312.401,98.067 193.42,98.067 193.42,7.286 126.267,7.286 126.267,98.067 
		7.286,98.067 7.286,165.22 126.267,165.22 126.267,256 193.42,256 193.42,165.22 	"/>
	<path style="fill:#FFFFFF;" d="M159.844,171.997L285.848,256h26.553v-63.006l-92.027-61.351l92.027-61.351V7.286h-26.553
		L159.844,91.289L58.536,23.751C39.097,35.894,23.77,54,15.116,75.511l84.198,56.132L7.286,192.994V256h26.552L159.844,171.997z"/>
</g>
<g>
	<path style="fill:#ED1F34;" d="M180.021,145.094l132.38,88.254v-26.382l-132.613-88.619l132.613-88.409V7.286h-6.376
		L139.676,118.198L32.34,46.641c-4.776,5.752-8.966,12.007-12.489,18.67l119.602,79.926L7.286,233.348V256h6.376L180.021,145.094z"
		/>
	<polygon style="fill:#ED1F34;" points="312.401,149.675 312.401,113.612 177.875,113.612 177.875,7.286 141.812,7.286 
		141.812,113.612 7.286,113.612 7.286,149.675 141.812,149.675 141.812,256 177.875,256 177.875,149.675 	"/>
</g>
<path style="fill:#3DB4EA;" d="M331.888,300.836v83.286c0,59.76,55.27,73.421,55.27,73.421s55.27-13.661,55.27-73.421v-83.286
	H331.888z"/>
<path style="fill:#BF2300;" d="M387.158,457.543c0,0,55.27-13.661,55.27-73.422h-110.54
	C331.888,443.882,387.158,457.543,387.158,457.543z"/>
<path style="fill:#134923;" d="M399.317,420.614c-4.025,0-7.286-3.262-7.286-7.287v-79.33c0-4.024,3.262-7.287,7.286-7.287
	c4.025,0,7.286,3.262,7.286,7.287v79.33C406.603,417.352,403.342,420.614,399.317,420.614z"/>
<path d="M442.427,293.549H331.888c-4.025,0-7.286,3.262-7.286,7.286v83.286c0,33.793,16.538,53.915,30.412,64.844
	c14.881,11.723,29.769,15.496,30.396,15.65c0.574,0.142,1.161,0.213,1.749,0.213s1.175-0.071,1.749-0.213
	c0.626-0.155,15.514-3.927,30.396-15.65c13.874-10.93,30.412-31.052,30.412-64.844v-83.286
	C449.714,296.811,446.452,293.549,442.427,293.549z M435.14,384.122c0,48.035-38.991,63.025-47.983,65.842
	c-8.992-2.817-47.983-17.806-47.983-65.842v-76h95.966V384.122z"/>
<path d="M374.998,420.614c4.025,0,7.286-3.262,7.286-7.287v-79.33c0-4.024-3.262-7.287-7.286-7.287
	c-4.025,0-7.286,3.262-7.286,7.287v79.33C367.712,417.352,370.973,420.614,374.998,420.614z"/>
<path d="M395.901,0H116.099C52.082,0,0,52.082,0,116.099v279.803C0,459.918,52.082,512,116.099,512h279.803
	C459.918,512,512,459.918,512,395.901V116.099C512,52.082,459.918,0,395.901,0z M497.427,395.901
	c0,55.982-45.545,101.526-101.526,101.526H116.099c-55.982,0-101.526-45.544-101.526-101.526V116.099
	c0-55.982,45.544-101.526,101.526-101.526h279.803c55.981,0,101.526,45.544,101.526,101.526v279.802H497.427z"/>
<g>
</g>
<g>
</g>
<g>
</g>
<g>
</g>
<g>
</g>
<g>
</g>
<g>
</g>
<g>
</g>
<g>
</g>
<g>
</g>
<g>
</g>
<g>
</g>
<g>
</g>
<g>
</g>
<g>
</g>
</svg>
