<?xml version="1.0" encoding="iso-8859-1"?>
<!-- Generator: Adobe Illustrator 19.0.0, SVG Export Plug-In . SVG Version: 6.00 Build 0)  -->
<svg version="1.1" id="Layer_1" xmlns="http://www.w3.org/2000/svg" xmlns:xlink="http://www.w3.org/1999/xlink" x="0px" y="0px"
	 viewBox="0 0 512 512" style="enable-background:new 0 0 512 512;" xml:space="preserve">
<path style="fill:#ED1F34;" d="M395.901,7.286H256v497.427h139.901c60.095,0,108.812-48.717,108.812-108.812V116.099
	C504.714,56.003,455.997,7.286,395.901,7.286z"/>
<path style="fill:#FFFFFF;" d="M116.099,7.286C56.003,7.286,7.286,56.003,7.286,116.099v279.803
	c0,60.095,48.717,108.812,108.812,108.812H256V7.286H116.099z"/>
<path style="fill:#999999;" d="M105.71,76.177H90.75V61.218c0-4.024-3.262-7.287-7.286-7.287s-7.287,3.262-7.287,7.287v14.959
	H61.218c-4.024,0-7.287,3.262-7.287,7.287s3.262,7.286,7.287,7.286h14.959v14.96c0,4.024,3.262,7.286,7.287,7.286
	s7.286-3.262,7.286-7.286V90.75h14.96c4.024,0,7.286-3.262,7.286-7.286S109.734,76.177,105.71,76.177z"/>
<path d="M395.901,0H116.099C52.082,0,0,52.082,0,116.099v279.803C0,459.918,52.082,512,116.099,512h279.803
	C459.918,512,512,459.918,512,395.901V116.099C512,52.082,459.918,0,395.901,0z M497.427,395.901
	c0,55.982-45.545,101.526-101.526,101.526H263.286v-92.199c0-4.024-3.262-7.286-7.286-7.286c-4.024,0-7.286,3.262-7.286,7.286
	v92.199H116.099c-55.982,0-101.526-45.544-101.526-101.526V116.099c0-55.982,45.544-101.526,101.526-101.526h132.615v340.912
	c0,4.024,3.262,7.286,7.286,7.286c4.025,0,7.286-3.262,7.286-7.286V14.573h132.615c55.981,0,101.526,45.544,101.526,101.526V395.901
	z"/>
<g>
</g>
<g>
</g>
<g>
</g>
<g>
</g>
<g>
</g>
<g>
</g>
<g>
</g>
<g>
</g>
<g>
</g>
<g>
</g>
<g>
</g>
<g>
</g>
<g>
</g>
<g>
</g>
<g>
</g>
</svg>
