<?xml version="1.0" encoding="iso-8859-1"?>
<!-- Generator: Adobe Illustrator 19.0.0, SVG Export Plug-In . SVG Version: 6.00 Build 0)  -->
<svg version="1.1" id="Layer_1" xmlns="http://www.w3.org/2000/svg" xmlns:xlink="http://www.w3.org/1999/xlink" x="0px" y="0px"
	 viewBox="0 0 512 512" style="enable-background:new 0 0 512 512;" xml:space="preserve">
<rect x="7.286" y="131.64" style="fill:#103B9B;" width="497.43" height="124.36"/>
<rect x="7.286" y="256" style="fill:#FFE000;" width="497.43" height="124.36"/>
<path style="fill:#ED1F34;" d="M395.901,7.286H116.099C56.003,7.286,7.286,56.004,7.286,116.099v15.545h497.427v-15.545
	C504.714,56.004,455.997,7.286,395.901,7.286z"/>
<path style="fill:#259245;" d="M7.286,395.901c0,60.095,48.717,108.812,108.812,108.812h279.803
	c60.095,0,108.812-48.717,108.812-108.812v-15.545H7.286V395.901z"/>
<path d="M395.901,0H116.099C52.082,0,0,52.082,0,116.099v279.803C0,459.918,52.082,512,116.099,512h279.803
	C459.918,512,512,459.918,512,395.901V116.099C512,52.082,459.918,0,395.901,0z M14.573,263.286h482.854V373.07H14.573V263.286z
	 M116.099,14.573h279.803c55.981,0,101.526,45.544,101.526,101.526v8.258H73.61c-4.024,0-7.287,3.262-7.287,7.287
	s3.262,7.286,7.287,7.286h423.817v109.784H14.573V138.93h25.875c4.024,0,7.286-3.262,7.286-7.286c0-4.025-3.262-7.287-7.286-7.287
	H14.573v-8.258C14.573,60.118,60.117,14.573,116.099,14.573z M395.901,497.427H116.099c-55.982,0-101.526-45.545-101.526-101.526
	v-8.258h482.854v8.258C497.427,451.882,451.882,497.427,395.901,497.427z"/>
<g>
</g>
<g>
</g>
<g>
</g>
<g>
</g>
<g>
</g>
<g>
</g>
<g>
</g>
<g>
</g>
<g>
</g>
<g>
</g>
<g>
</g>
<g>
</g>
<g>
</g>
<g>
</g>
<g>
</g>
</svg>
