<?xml version="1.0" encoding="iso-8859-1"?>
<!-- Generator: Adobe Illustrator 19.0.0, SVG Export Plug-In . SVG Version: 6.00 Build 0)  -->
<svg version="1.1" id="Layer_1" xmlns="http://www.w3.org/2000/svg" xmlns:xlink="http://www.w3.org/1999/xlink" x="0px" y="0px"
	 viewBox="0 0 512 512" style="enable-background:new 0 0 512 512;" xml:space="preserve">
<path style="fill:#ED1F34;" d="M395.901,7.287H116.099C56.003,7.287,7.286,56.004,7.286,116.099v279.803
	c0,60.095,48.717,108.812,108.812,108.812h279.803c60.095,0,108.812-48.717,108.812-108.812V116.099
	C504.713,56.004,455.997,7.287,395.901,7.287z"/>
<path d="M395.901,512H116.099C52.082,512,0,459.918,0,395.901V116.099C0,52.082,52.082,0,116.099,0h279.803
	C459.918,0,512,52.082,512,116.099v279.803C512,459.918,459.918,512,395.901,512z M116.099,14.573
	c-55.981,0-101.526,45.544-101.526,101.526v279.803c0,55.982,45.544,101.526,101.526,101.526h279.803
	c55.982,0,101.526-45.544,101.526-101.526V116.099c0-55.982-45.544-101.526-101.526-101.526
	C395.902,14.573,116.099,14.573,116.099,14.573z"/>
<rect x="84.66" y="123.35" style="fill:#278A2A;" width="342.67" height="265.29"/>
<path d="M427.336,395.934H84.664c-4.024,0-7.286-3.262-7.286-7.286V123.353c0-4.024,3.262-7.286,7.286-7.286h33.162
	c4.024,0,7.287,3.262,7.287,7.286s-3.262,7.287-7.287,7.287H91.951v250.722H420.05V130.639H150.988
	c-4.024,0-7.287-3.262-7.287-7.287s3.262-7.286,7.287-7.286h276.348c4.024,0,7.286,3.262,7.286,7.286v265.295
	C434.622,392.672,431.36,395.934,427.336,395.934z"/>
<path style="fill:#FFFFFF;" d="M294.765,304.258c-26.652,0-48.258-21.606-48.258-48.258s21.606-48.257,48.258-48.257
	c0.802,0,1.599,0.022,2.391,0.06c-7.996-4.496-17.216-7.072-27.042-7.072c-30.524,0-55.269,24.745-55.269,55.269
	c0,30.525,24.745,55.27,55.269,55.27c9.826,0,19.047-2.576,27.042-7.072C296.363,304.236,295.567,304.258,294.765,304.258z"/>
<path d="M270.113,318.556c-34.493,0-62.556-28.063-62.556-62.557c0-34.493,28.063-62.556,62.556-62.556
	c10.575,0,21.027,2.699,30.255,7.807c2.424,1.184,4.093,3.673,4.093,6.551c0,4.016-3.248,7.272-7.26,7.287
	c-0.129,0.001-0.263-0.002-0.397-0.009c-0.676-0.033-1.356-0.051-2.04-0.051c-22.592,0-40.971,18.38-40.971,40.971
	c0,22.592,18.38,40.972,40.971,40.972c0.684,0,1.364-0.019,2.04-0.051c3.378-0.162,6.418,2.016,7.353,5.263
	c0.934,3.247-0.486,6.71-3.431,8.366C291.412,315.788,280.826,318.556,270.113,318.556z M266.591,208.145
	c-24.819,1.81-44.46,22.582-44.46,47.855s19.642,46.045,44.46,47.856c-16.369-9.674-27.37-27.504-27.37-47.856
	C239.22,235.648,250.221,217.818,266.591,208.145z"/>
<g>
</g>
<g>
</g>
<g>
</g>
<g>
</g>
<g>
</g>
<g>
</g>
<g>
</g>
<g>
</g>
<g>
</g>
<g>
</g>
<g>
</g>
<g>
</g>
<g>
</g>
<g>
</g>
<g>
</g>
</svg>
