<?xml version="1.0" encoding="iso-8859-1"?>
<!-- Generator: Adobe Illustrator 19.0.0, SVG Export Plug-In . SVG Version: 6.00 Build 0)  -->
<svg version="1.1" id="Layer_1" xmlns="http://www.w3.org/2000/svg" xmlns:xlink="http://www.w3.org/1999/xlink" x="0px" y="0px"
	 viewBox="0 0 512 512" style="enable-background:new 0 0 512 512;" xml:space="preserve">
<path style="fill:#333333;" d="M395.901,7.286H116.099C56.003,7.286,7.286,56.004,7.286,116.099v56.997h497.427v-56.997
	C504.714,56.004,455.997,7.286,395.901,7.286z"/>
<path style="fill:#259245;" d="M7.286,395.901c0,60.095,48.717,108.812,108.812,108.812h279.803
	c60.095,0,108.812-48.717,108.812-108.812v-56.997H7.286V395.901z"/>
<g>
	<path style="fill:#ED1F34;" d="M334.265,175.365c-4.024,0-7.286-3.262-7.286-7.287c0-47.366-38.535-85.901-85.901-85.901
		s-85.901,38.535-85.901,85.901c0,4.025-3.262,7.287-7.286,7.287s-7.287-3.262-7.287-7.287c0-55.401,45.073-100.474,100.474-100.474
		s100.474,45.073,100.474,100.474C341.551,172.103,338.289,175.365,334.265,175.365z"/>
	
		<circle style="fill:#ED1F34;stroke:#ED1F34;stroke-width:15;stroke-linecap:round;stroke-linejoin:round;stroke-miterlimit:10;" cx="241.08" cy="168.08" r="55.23"/>
	<rect x="7.286" y="173.1" style="fill:#ED1F34;" width="497.43" height="165.81"/>
</g>
<path d="M395.901,0H116.099C52.082,0,0,52.082,0,116.099v279.803C0,459.918,52.082,512,116.099,512h279.803
	C459.918,512,512,459.918,512,395.901V116.099C512,52.082,459.918,0,395.901,0z M116.099,14.573h279.803
	c55.981,0,101.526,45.544,101.526,101.526v49.711H14.573v-49.711C14.573,60.118,60.117,14.573,116.099,14.573z M395.901,497.427
	H116.099c-55.982,0-101.526-45.545-101.526-101.526V346.19H438.39c4.024,0,7.287-3.262,7.287-7.286c0-4.025-3.262-7.287-7.287-7.287
	H14.573V180.382h482.854v151.235h-25.875c-4.024,0-7.286,3.262-7.286,7.287s3.262,7.286,7.286,7.286h25.875v49.711
	C497.427,451.882,451.883,497.427,395.901,497.427z"/>
<g>
</g>
<g>
</g>
<g>
</g>
<g>
</g>
<g>
</g>
<g>
</g>
<g>
</g>
<g>
</g>
<g>
</g>
<g>
</g>
<g>
</g>
<g>
</g>
<g>
</g>
<g>
</g>
<g>
</g>
</svg>
