<?xml version="1.0" encoding="iso-8859-1"?>
<!-- Generator: Adobe Illustrator 19.0.0, SVG Export Plug-In . SVG Version: 6.00 Build 0)  -->
<svg version="1.1" id="Layer_1" xmlns="http://www.w3.org/2000/svg" xmlns:xlink="http://www.w3.org/1999/xlink" x="0px" y="0px"
	 viewBox="0 0 512.001 512.001" style="enable-background:new 0 0 512.001 512.001;" xml:space="preserve">
<path style="fill:#FFFFFF;" d="M395.901,7.286H116.099C56.003,7.286,7.286,56.004,7.286,116.099v279.803
	c0,60.095,48.717,108.812,108.812,108.812h279.803c60.095,0,108.812-48.717,108.812-108.812V116.099
	C504.714,56.004,455.997,7.286,395.901,7.286z"/>
<path style="fill:#103B9B;" d="M380.357,7.286H116.099C56.003,7.286,7.286,56.004,7.286,116.099v222.806h373.07L380.357,7.286
	L380.357,7.286z"/>
<g>
	<rect x="7.286" y="338.9" style="fill:#ED1F34;" width="497.43" height="55.26"/>
	<rect x="380.36" y="228.36" style="fill:#ED1F34;" width="124.36" height="55.28"/>
	<rect x="380.36" y="117.83" style="fill:#ED1F34;" width="124.36" height="55.26"/>
	<path style="fill:#ED1F34;" d="M116.099,504.714h279.803c40.628,0,76.05-22.27,94.739-55.264H21.36
		C40.049,482.444,75.471,504.714,116.099,504.714z"/>
	<path style="fill:#ED1F34;" d="M490.64,62.55c-18.69-32.994-54.112-55.264-94.739-55.264h-15.545V62.55H490.64z"/>
</g>
<g>
	<circle style="fill:#FFE000;" cx="263.53" cy="173.1" r="52.847"/>
	<path style="fill:#FFE000;" d="M213.57,259.025c-47.454,0-85.924-38.47-85.924-85.924c0-47.455,38.469-85.923,85.924-85.923
		c1.428,0,2.846,0.039,4.257,0.107c-14.236-8.006-30.653-12.591-48.149-12.591c-54.349,0-98.407,44.059-98.407,98.407
		c0,54.349,44.058,98.409,98.407,98.409c17.496,0,33.912-4.586,48.149-12.591C216.417,258.986,214.998,259.025,213.57,259.025z"/>
</g>
<path d="M203.393,173.096c0,33.158,26.975,60.133,60.133,60.133s60.133-26.975,60.133-60.133s-26.975-60.134-60.133-60.134
	S203.393,139.938,203.393,173.096z M263.526,127.535c25.121,0,45.56,20.438,45.56,45.561c0,25.122-20.438,45.56-45.56,45.56
	c-25.121,0-45.56-20.438-45.56-45.56C217.966,147.973,238.404,127.535,263.526,127.535z"/>
<path d="M169.678,278.796c18.1,0,35.985-4.677,51.72-13.527c2.946-1.656,4.366-5.12,3.431-8.367
	c-0.934-3.248-3.985-5.422-7.354-5.262c-1.372,0.066-2.649,0.099-3.905,0.099c-43.361,0-78.638-35.277-78.638-78.637
	c0-43.361,35.277-78.637,78.638-78.637c1.256,0,2.534,0.032,3.905,0.099c0.135,0.007,0.279,0.008,0.402,0.009
	c4.01-0.017,7.255-3.272,7.255-7.287c0-2.876-1.664-5.361-4.083-6.547c-15.651-8.723-33.405-13.331-51.371-13.331
	c-58.28,0-105.694,47.414-105.694,105.694S111.398,278.796,169.678,278.796z M169.678,81.98c5.9,0,11.774,0.577,17.531,1.706
	c-38.602,11.398-66.85,47.169-66.85,89.415s28.249,78.017,66.85,89.416c-5.757,1.129-11.631,1.706-17.531,1.706
	c-50.244,0-91.121-40.877-91.121-91.121C78.558,122.857,119.435,81.98,169.678,81.98z"/>
<path d="M497.342,59.688c-0.199-0.465-0.448-0.903-0.735-1.313C476.55,23.52,438.921,0,395.901,0H116.099
	C52.082,0,0,52.082,0,116.099v279.803c0,20.462,5.328,39.699,14.658,56.412c0.199,0.465,0.448,0.902,0.734,1.312
	C35.45,488.48,73.079,512,116.099,512h279.803c43.02,0,80.649-23.52,100.706-58.375c0.287-0.41,0.536-0.848,0.735-1.313
	c9.33-16.712,14.658-35.95,14.658-56.411V116.099C512,95.638,506.672,76.4,497.342,59.688z M497.273,110.545h-109.63V69.837h98.617
	C492.598,82.164,496.482,95.95,497.273,110.545z M387.643,235.646h109.784v40.708H387.643V235.646z M387.643,221.073v-40.691
	h109.784v40.691H387.643z M387.643,165.809v-40.692h109.784v40.692H387.643z M387.643,290.927h109.784v40.691H387.643V290.927z
	 M477.132,55.264h-89.489V14.573h8.258C429.082,14.573,458.594,30.574,477.132,55.264z M116.099,14.573H373.07v317.045H87.342
	c-4.025,0-7.287,3.262-7.287,7.287s3.262,7.286,7.287,7.286h410.085v40.692H14.573v-40.692h42.456c4.025,0,7.287-3.262,7.287-7.286
	c0-4.025-3.262-7.287-7.287-7.287H14.573V116.099C14.573,60.118,60.118,14.573,116.099,14.573z M395.901,497.427H116.099
	c-33.18,0-62.693-16.001-81.231-40.691h376.189c4.025,0,7.287-3.262,7.287-7.286c0-4.025-3.262-7.286-7.287-7.286H25.74
	c-6.337-12.327-10.222-26.113-11.013-40.708h482.546c-0.791,14.595-4.676,28.38-11.013,40.708h-44.891
	c-4.025,0-7.287,3.262-7.287,7.286c0,4.025,3.262,7.286,7.287,7.286h35.763C458.594,481.426,429.082,497.427,395.901,497.427z"/>
<g>
</g>
<g>
</g>
<g>
</g>
<g>
</g>
<g>
</g>
<g>
</g>
<g>
</g>
<g>
</g>
<g>
</g>
<g>
</g>
<g>
</g>
<g>
</g>
<g>
</g>
<g>
</g>
<g>
</g>
</svg>
