<?xml version="1.0" encoding="iso-8859-1"?>
<!-- Generator: Adobe Illustrator 19.0.0, SVG Export Plug-In . SVG Version: 6.00 Build 0)  -->
<svg version="1.1" id="Layer_1" xmlns="http://www.w3.org/2000/svg" xmlns:xlink="http://www.w3.org/1999/xlink" x="0px" y="0px"
	 viewBox="0 0 512 512" style="enable-background:new 0 0 512 512;" xml:space="preserve">
<rect x="7.286" y="173.1" style="fill:#333333;" width="497.43" height="165.81"/>
<path style="fill:#FFE000;" d="M7.286,395.901c0,60.095,48.717,108.812,108.812,108.812h279.803
	c60.095,0,108.812-48.717,108.812-108.812v-56.997H7.286V395.901z"/>
<path style="fill:#048B7D;" d="M395.901,7.286H116.099C56.003,7.286,7.286,56.004,7.286,116.099v56.997h497.427v-56.997
	C504.713,56.004,455.997,7.286,395.901,7.286z"/>
<g>
	<path style="fill:#FFFFFF;" d="M504.713,346.191H173.095c-4.024,0-7.287-3.262-7.287-7.286c0-4.025,3.262-7.287,7.287-7.287
		h331.618c4.024,0,7.287,3.262,7.287,7.287C512,342.929,508.738,346.191,504.713,346.191z"/>
	<path style="fill:#FFFFFF;" d="M504.713,180.382H173.095c-4.024,0-7.287-3.262-7.287-7.287c0-4.025,3.262-7.286,7.287-7.286
		h331.618c4.024,0,7.287,3.262,7.287,7.286C512,177.12,508.738,180.382,504.713,180.382z"/>
</g>
<path style="fill:#ED1F34;" d="M39.157,39.157C19.466,58.848,7.286,86.051,7.286,116.099v279.803
	c0,30.047,12.179,57.25,31.871,76.942L256,256L39.157,39.157z"/>
<polygon style="fill:#FFE000;" points="31.052,237.261 77.037,234.885 93.507,191.885 109.977,234.885 155.962,237.261 
	120.156,266.212 132.106,310.681 93.507,285.574 54.908,310.681 66.859,266.212 "/>
<rect x="63.66" y="244.94" style="fill:#FFFFFF;" width="59.691" height="36.3"/>
<path d="M41.776,243.975l14.701-14.7L83.202,256l-36.255,36.255c-2.846,2.846-2.846,7.459,0,10.306
	c1.423,1.422,3.287,2.134,5.152,2.134s3.73-0.712,5.152-2.134l36.256-36.255l36.256,36.255c1.423,1.422,3.287,2.134,5.152,2.134
	s3.73-0.712,5.152-2.134c2.846-2.846,2.846-7.459,0-10.306L103.812,256l36.255-36.255c2.846-2.846,2.846-7.459,0-10.305
	c-2.845-2.844-7.459-2.844-10.305,0l-36.256,36.255L57.25,209.44c-2.845-2.844-7.459-2.844-10.305,0
	c-2.582,2.582-2.813,6.614-0.711,9.466L31.471,233.67c-2.846,2.846-2.846,7.459,0,10.305c1.423,1.422,3.288,2.134,5.152,2.134
	C38.489,246.109,40.353,245.398,41.776,243.975z"/>
<path d="M395.901,0H116.099C84.423,0,55.675,12.756,34.707,33.394c-0.243,0.188-0.48,0.387-0.703,0.61s-0.422,0.46-0.61,0.703
	C12.756,55.675,0,84.423,0,116.099v279.803c0,31.676,12.756,60.424,33.395,81.392c0.188,0.243,0.387,0.48,0.61,0.703
	s0.46,0.422,0.703,0.61C55.675,499.244,84.423,512,116.099,512h279.803C459.918,512,512,459.918,512,395.901V116.099
	C512,52.082,459.918,0,395.901,0z M14.573,116.099c0-25.374,9.357-48.603,24.801-66.419L245.695,256L39.374,462.321
	c-15.444-17.816-24.801-41.046-24.801-66.419V116.099z M497.427,395.901c0,55.981-45.544,101.526-101.526,101.526H116.099
	c-25.374,0-48.603-9.357-66.419-24.801l211.473-211.473c2.846-2.846,2.846-7.459,0-10.306L49.679,39.374
	c17.816-15.444,41.046-24.801,66.419-24.801h279.803c55.982,0,101.526,45.544,101.526,101.526V395.901z"/>
<g>
</g>
<g>
</g>
<g>
</g>
<g>
</g>
<g>
</g>
<g>
</g>
<g>
</g>
<g>
</g>
<g>
</g>
<g>
</g>
<g>
</g>
<g>
</g>
<g>
</g>
<g>
</g>
<g>
</g>
</svg>
