<?xml version="1.0" encoding="iso-8859-1"?>
<!-- Generator: Adobe Illustrator 19.0.0, SVG Export Plug-In . SVG Version: 6.00 Build 0)  -->
<svg version="1.1" id="Layer_1" xmlns="http://www.w3.org/2000/svg" xmlns:xlink="http://www.w3.org/1999/xlink" x="0px" y="0px"
	 viewBox="0 0 512 512" style="enable-background:new 0 0 512 512;" xml:space="preserve">
<path style="fill:#103B9B;" d="M395.901,7.286H116.099C56.003,7.286,7.286,56.004,7.286,116.099v279.803
	c0,60.095,48.717,108.812,108.812,108.812h279.803c60.095,0,108.812-48.717,108.812-108.812V116.099
	C504.714,56.004,455.997,7.286,395.901,7.286z"/>
<path d="M395.901,512H116.099C52.082,512,0,459.918,0,395.901V116.099C0,52.082,52.082,0,116.099,0h279.803
	C459.918,0,512,52.082,512,116.099v279.803C512,459.918,459.918,512,395.901,512z M116.099,14.573
	c-55.981,0-101.526,45.544-101.526,101.526v279.803c0,55.981,45.544,101.526,101.526,101.526h279.803
	c55.981,0,101.526-45.545,101.526-101.526V116.099c0-55.981-45.545-101.526-101.526-101.526
	C395.902,14.573,116.099,14.573,116.099,14.573z"/>
<g>
	<path style="fill:#FFFFFF;" d="M380.155,249.062L291.42,220.58l-28.482-88.734c-0.968-3.015-3.772-5.06-6.938-5.06
		c-3.166,0-5.971,2.045-6.938,5.06L220.58,220.58l-88.734,28.482c-3.015,0.968-5.06,3.772-5.06,6.938
		c0,3.166,2.045,5.971,5.06,6.938l88.734,28.482l28.482,88.734c0.968,3.015,3.772,5.06,6.938,5.06s5.971-2.045,6.938-5.06
		l28.482-88.734l88.734-28.482c3.015-0.968,5.06-3.772,5.06-6.938C385.214,252.834,383.17,250.029,380.155,249.062z M283.4,278.689
		c-1.119,0.36-2.117,0.978-2.925,1.786L256,256v98.086L233.311,283.4c-0.36-1.12-0.978-2.118-1.786-2.925L256,256h-98.086
		l70.686-22.689c1.119-0.36,2.117-0.978,2.926-1.786L256,256v-98.086l22.689,70.686c0.36,1.12,0.978,2.118,1.786,2.925L256,256
		h98.086L283.4,278.689z"/>
	<path style="fill:#FFFFFF;" d="M289.196,161.469c28.425,9.982,51.354,32.912,61.335,61.335c1.053,2.999,3.867,4.875,6.875,4.875
		c0.801,0,1.616-0.133,2.414-0.414c3.797-1.333,5.795-5.492,4.461-9.288c-11.433-32.559-37.696-58.824-70.255-70.257
		c-3.799-1.335-7.956,0.664-9.289,4.46C283.402,155.976,285.399,160.136,289.196,161.469z"/>
	<path style="fill:#FFFFFF;" d="M152.18,227.265c0.798,0.281,1.613,0.414,2.414,0.414c3.008,0,5.823-1.876,6.875-4.875
		c9.981-28.423,32.91-51.353,61.335-61.335c3.797-1.333,5.794-5.492,4.46-9.289c-1.333-3.796-5.49-5.797-9.289-4.46
		c-32.559,11.434-58.823,37.698-70.255,70.257C146.385,221.773,148.383,225.932,152.18,227.265z"/>
	<path style="fill:#FFFFFF;" d="M359.82,284.735c-3.793-1.333-7.955,0.664-9.288,4.461c-9.981,28.423-32.91,51.353-61.335,61.335
		c-3.797,1.333-5.794,5.492-4.46,9.289c1.053,2.998,3.867,4.874,6.875,4.874c0.801,0,1.616-0.133,2.415-0.414
		c32.559-11.434,58.823-37.698,70.255-70.257C365.615,290.227,363.617,286.068,359.82,284.735z"/>
	<path style="fill:#FFFFFF;" d="M222.804,350.531c-28.425-9.982-51.354-32.912-61.335-61.335c-1.333-3.797-5.492-5.795-9.288-4.461
		c-3.797,1.333-5.795,5.492-4.461,9.288c11.433,32.559,37.696,58.823,70.255,70.257c0.799,0.281,1.614,0.414,2.415,0.414
		c3.007,0,5.822-1.876,6.875-4.874C228.598,356.024,226.601,351.864,222.804,350.531z"/>
</g>
<g>
</g>
<g>
</g>
<g>
</g>
<g>
</g>
<g>
</g>
<g>
</g>
<g>
</g>
<g>
</g>
<g>
</g>
<g>
</g>
<g>
</g>
<g>
</g>
<g>
</g>
<g>
</g>
<g>
</g>
</svg>
