<?xml version="1.0" encoding="iso-8859-1"?>
<!-- Generator: Adobe Illustrator 19.0.0, SVG Export Plug-In . SVG Version: 6.00 Build 0)  -->
<svg version="1.1" id="Layer_1" xmlns="http://www.w3.org/2000/svg" xmlns:xlink="http://www.w3.org/1999/xlink" x="0px" y="0px"
	 viewBox="0 0 512 512" style="enable-background:new 0 0 512 512;" xml:space="preserve">
<path style="fill:#103B9B;" d="M42.575,421.161h426.851c18.953,0,34.317-15.364,34.317-34.317V125.156
	c0-18.953-15.364-34.317-34.317-34.317H42.575c-18.953,0-34.317,15.364-34.317,34.317v261.689
	C8.258,405.797,23.622,421.161,42.575,421.161z"/>
<g>
	<polygon style="fill:#FFFFFF;" points="377.452,256 256,256 285.511,226.489 	"/>
	<polygon style="fill:#FFFFFF;" points="285.511,285.511 256,377.452 256,256 	"/>
	<polygon style="fill:#FFFFFF;" points="256,134.548 256,256 226.489,226.489 	"/>
	<polygon style="fill:#FFFFFF;" points="256,256 226.489,285.511 134.548,256 	"/>
	<path style="fill:#FFFFFF;" d="M256,385.71c-3.588,0-6.766-2.317-7.864-5.734l-28.213-87.899l-87.899-28.213
		c-3.417-1.097-5.734-4.275-5.734-7.864s2.317-6.766,5.734-7.864l87.899-28.213l28.213-87.899c1.097-3.417,4.275-5.734,7.864-5.734
		s6.766,2.317,7.864,5.734l28.213,87.899l87.899,28.213c3.418,1.097,5.734,4.275,5.734,7.864s-2.317,6.766-5.734,7.864
		l-87.899,28.213l-28.213,87.899C262.766,383.392,259.588,385.71,256,385.71z M161.568,256l67.444,21.647
		c2.537,0.815,4.524,2.803,5.34,5.34L256,350.432l21.647-67.444c0.815-2.537,2.803-4.524,5.34-5.34L350.432,256l-67.444-21.647
		c-2.537-0.815-4.524-2.803-5.34-5.34L256,161.568l-21.647,67.444c-0.815,2.537-2.803,4.524-5.34,5.34L161.568,256z"/>
	<path style="fill:#FFFFFF;" d="M357.009,228.789c-3.409,0-6.599-2.126-7.791-5.525c-9.841-28.029-32.453-50.641-60.484-60.484
		c-4.303-1.511-6.567-6.224-5.055-10.528c1.51-4.302,6.223-6.567,10.527-5.055c32.716,11.489,59.107,37.879,70.593,70.595
		c1.512,4.303-0.753,9.017-5.056,10.527C358.84,228.638,357.917,228.789,357.009,228.789z"/>
	<path style="fill:#FFFFFF;" d="M154.991,228.789c-0.907,0-1.831-0.151-2.735-0.469c-4.303-1.511-6.568-6.223-5.056-10.527
		c11.488-32.716,37.877-59.108,70.593-70.595c4.307-1.511,9.017,0.753,10.527,5.055c1.512,4.303-0.752,9.017-5.055,10.528
		c-28.031,9.843-50.642,32.455-60.484,60.484C161.589,226.663,158.398,228.789,154.991,228.789z"/>
	<path style="fill:#FFFFFF;" d="M291.471,365.27c-3.409,0-6.598-2.126-7.791-5.524c-1.512-4.303,0.752-9.017,5.055-10.529
		c28.031-9.844,50.642-32.454,60.484-60.483c1.51-4.303,6.227-6.568,10.527-5.056c4.303,1.511,6.568,6.223,5.056,10.526
		c-11.488,32.715-37.877,59.107-70.593,70.594C293.302,365.12,292.378,365.27,291.471,365.27z"/>
	<path style="fill:#FFFFFF;" d="M220.529,365.27c-0.907,0-1.831-0.151-2.736-0.469c-32.716-11.489-59.107-37.879-70.593-70.594
		c-1.512-4.303,0.753-9.016,5.056-10.526c4.3-1.513,9.017,0.753,10.527,5.056c9.841,28.029,32.453,50.638,60.484,60.483
		c4.303,1.511,6.567,6.224,5.055,10.529C227.128,363.145,223.937,365.27,220.529,365.27z"/>
</g>
<path style="fill:#111A21;" d="M468.324,429.419H43.676C19.594,429.419,0,409.826,0,385.743V126.257
	c0-24.083,19.594-43.676,43.676-43.676h424.647c24.083,0,43.676,19.594,43.676,43.676v259.486
	C512,409.826,492.406,429.419,468.324,429.419z M43.676,99.097c-14.977,0-27.16,12.183-27.16,27.16v259.486
	c0,14.977,12.183,27.16,27.16,27.16h424.647c14.977,0,27.16-12.183,27.16-27.16V126.257c0-14.977-12.183-27.16-27.16-27.16H43.676z"
	/>
<g>
</g>
<g>
</g>
<g>
</g>
<g>
</g>
<g>
</g>
<g>
</g>
<g>
</g>
<g>
</g>
<g>
</g>
<g>
</g>
<g>
</g>
<g>
</g>
<g>
</g>
<g>
</g>
<g>
</g>
</svg>
