<?xml version="1.0" encoding="iso-8859-1"?>
<!-- Generator: Adobe Illustrator 19.0.0, SVG Export Plug-In . SVG Version: 6.00 Build 0)  -->
<svg version="1.1" id="Layer_1" xmlns="http://www.w3.org/2000/svg" xmlns:xlink="http://www.w3.org/1999/xlink" x="0px" y="0px"
	 viewBox="0 0 512 512" style="enable-background:new 0 0 512 512;" xml:space="preserve">
<rect x="150.99" y="7.286" style="fill:#FFFFFF;" width="210.03" height="497.43"/>
<g>
	<path style="fill:#259245;" d="M395.901,7.286h-34.889v497.427h34.889c60.095,0,108.812-48.717,108.812-108.812V116.099
		C504.714,56.004,455.997,7.286,395.901,7.286z"/>
	<path style="fill:#259245;" d="M116.099,7.286C56.003,7.286,7.286,56.004,7.286,116.099v279.803
		c0,60.095,48.717,108.812,108.812,108.812h34.889V7.286H116.099z"/>
	<polygon style="fill:#259245;" points="192.44,322.061 256,149.309 319.56,322.061 	"/>
</g>
<path d="M395.901,0H116.099C52.082,0,0,52.082,0,116.099v279.803C0,459.918,52.082,512,116.099,512h279.803
	C459.918,512,512,459.918,512,395.901V116.099C512,52.082,459.918,0,395.901,0z M14.573,395.901V116.099
	c0-55.981,45.544-101.526,101.526-101.526h27.602v482.854h-27.602C60.118,497.427,14.573,451.882,14.573,395.901z M497.427,395.901
	c0,55.981-45.545,101.526-101.526,101.526h-27.602v-42.456c0-4.025-3.262-7.286-7.287-7.286s-7.286,3.262-7.286,7.286v42.456
	H158.274V14.573h195.452v390.655c0,4.025,3.262,7.286,7.286,7.286c4.025,0,7.287-3.262,7.287-7.286V14.573h27.602
	c55.981,0,101.526,45.544,101.526,101.526V395.901z"/>
<path d="M262.839,146.793c-1.055-2.866-3.785-4.77-6.839-4.77s-5.784,1.904-6.839,4.77l-63.56,172.752
	c-0.822,2.235-0.5,4.732,0.862,6.685c1.363,1.954,3.595,3.118,5.976,3.118h56.273v33.342c0,4.025,3.262,7.286,7.286,7.286
	c4.025,0,7.286-3.262,7.286-7.286v-33.342h56.273c0.007,0.001,0.014,0,0.019,0c4.025,0,7.287-3.262,7.287-7.286
	c0-1.076-0.232-2.097-0.651-3.016L262.839,146.793z M263.286,314.775v-33.343c0-4.025-3.262-7.286-7.286-7.286
	c-4.025,0-7.286,3.262-7.286,7.286v33.343h-45.828L256,170.412l53.115,144.363L263.286,314.775L263.286,314.775z"/>
<g>
</g>
<g>
</g>
<g>
</g>
<g>
</g>
<g>
</g>
<g>
</g>
<g>
</g>
<g>
</g>
<g>
</g>
<g>
</g>
<g>
</g>
<g>
</g>
<g>
</g>
<g>
</g>
<g>
</g>
</svg>
