<?xml version="1.0" encoding="iso-8859-1"?>
<!-- Generator: Adobe Illustrator 19.0.0, SVG Export Plug-In . SVG Version: 6.00 Build 0)  -->
<svg version="1.1" id="Layer_1" xmlns="http://www.w3.org/2000/svg" xmlns:xlink="http://www.w3.org/1999/xlink" x="0px" y="0px"
	 viewBox="0 0 512 512" style="enable-background:new 0 0 512 512;" xml:space="preserve">
<rect x="7.286" y="173.1" style="fill:#FFFFFF;" width="497.43" height="165.81"/>
<g>
	<path style="fill:#164FCE;" d="M7.286,395.901c0,60.095,48.717,108.812,108.812,108.812h279.803
		c60.095,0,108.812-48.717,108.812-108.812v-56.997H7.286V395.901z"/>
	<path style="fill:#164FCE;" d="M395.901,7.286H116.099C56.003,7.286,7.286,56.003,7.286,116.099v56.997h497.427v-56.997
		C504.714,56.003,455.997,7.286,395.901,7.286z"/>
</g>
<polygon style="fill:#259245;" points="212.922,293.307 256,218.693 299.078,293.307 "/>
<path d="M395.901,0H116.099C52.082,0,0,52.082,0,116.099v279.803C0,459.918,52.082,512,116.099,512h279.803
	C459.918,512,512,459.918,512,395.901V116.099C512,52.082,459.918,0,395.901,0z M116.099,14.573h279.803
	c55.981,0,101.526,45.544,101.526,101.526v49.711h-25.876c-4.025,0-7.286,3.262-7.286,7.286c0,4.025,3.262,7.287,7.286,7.287h25.876
	v151.235H14.573V180.382H438.39c4.025,0,7.287-3.262,7.287-7.287c0-4.025-3.262-7.286-7.287-7.286H14.573v-49.711
	C14.573,60.118,60.117,14.573,116.099,14.573z M395.901,497.427H116.099c-55.982,0-101.526-45.545-101.526-101.526V346.19h482.854
	v49.711C497.427,451.882,451.882,497.427,395.901,497.427z"/>
<path d="M262.31,215.049c-1.302-2.254-3.707-3.643-6.31-3.643s-5.008,1.389-6.31,3.643l-43.078,74.615
	c-1.302,2.254-1.302,5.032,0,7.287c1.302,2.254,3.707,3.643,6.31,3.643h86.157c0.009,0,0.014,0,0.019,0
	c4.025,0,7.287-3.262,7.287-7.286c0-1.509-0.458-2.91-1.243-4.073L262.31,215.049z M225.542,286.021L256,233.266l30.458,52.755
	H225.542z"/>
<g>
</g>
<g>
</g>
<g>
</g>
<g>
</g>
<g>
</g>
<g>
</g>
<g>
</g>
<g>
</g>
<g>
</g>
<g>
</g>
<g>
</g>
<g>
</g>
<g>
</g>
<g>
</g>
<g>
</g>
</svg>
