<?xml version="1.0" encoding="iso-8859-1"?>
<!-- Generator: Adobe Illustrator 19.0.0, SVG Export Plug-In . SVG Version: 6.00 Build 0)  -->
<svg version="1.1" id="Layer_1" xmlns="http://www.w3.org/2000/svg" xmlns:xlink="http://www.w3.org/1999/xlink" x="0px" y="0px"
	 viewBox="0 0 512 512" style="enable-background:new 0 0 512 512;" xml:space="preserve">
<path style="fill:#ED1F34;" d="M395.901,7.286H116.099C56.003,7.286,7.286,56.003,7.286,116.099v279.803
	c0,60.095,48.717,108.812,108.812,108.812h279.803c60.095,0,108.812-48.717,108.812-108.812V116.099
	C504.714,56.003,455.997,7.286,395.901,7.286z"/>
<polygon style="fill:#FFFFFF;" points="504.714,211.232 239.853,211.232 239.853,7.286 150.316,7.286 150.316,211.232 
	7.286,211.232 7.286,300.768 150.316,300.768 150.316,504.714 239.853,504.714 239.853,300.768 504.714,300.768 "/>
<polygon style="fill:#164FCE;" points="504.714,231.958 219.127,231.958 219.127,7.286 171.042,7.286 171.042,231.958 
	7.286,231.958 7.286,280.042 171.042,280.042 171.042,504.714 219.127,504.714 219.127,280.042 504.714,280.042 "/>
<path d="M395.901,0H116.099C52.082,0,0,52.082,0,116.099v279.803C0,459.918,52.082,512,116.099,512h279.803
	C459.918,512,512,459.918,512,395.901V116.099C512,52.082,459.918,0,395.901,0z M497.427,116.099v108.573H226.414V14.573h169.488
	C451.882,14.573,497.427,60.117,497.427,116.099z M116.099,14.573h47.657v210.098H73.61c-4.024,0-7.287,3.262-7.287,7.286
	s3.262,7.286,7.287,7.286h97.432c4.024,0,7.286-3.262,7.286-7.286V14.573h33.512v217.385c0,4.024,3.262,7.286,7.286,7.286h278.3
	v33.511h-278.3c-4.024,0-7.286,3.262-7.286,7.286v217.385h-33.512V280.042c0-4.024-3.262-7.286-7.286-7.286H14.573v-33.511h25.875
	c4.024,0,7.286-3.262,7.286-7.286s-3.262-7.286-7.286-7.286H14.573V116.099C14.573,60.117,60.117,14.573,116.099,14.573z
	 M14.573,395.901V287.329h149.183v210.098h-47.657C60.117,497.427,14.573,451.883,14.573,395.901z M395.901,497.427H226.414V287.329
	h271.013v108.573C497.427,451.883,451.882,497.427,395.901,497.427z"/>
<g>
</g>
<g>
</g>
<g>
</g>
<g>
</g>
<g>
</g>
<g>
</g>
<g>
</g>
<g>
</g>
<g>
</g>
<g>
</g>
<g>
</g>
<g>
</g>
<g>
</g>
<g>
</g>
<g>
</g>
</svg>
