<?xml version="1.0" encoding="iso-8859-1"?>
<!-- Generator: Adobe Illustrator 19.0.0, SVG Export Plug-In . SVG Version: 6.00 Build 0)  -->
<svg version="1.1" id="Layer_1" xmlns="http://www.w3.org/2000/svg" xmlns:xlink="http://www.w3.org/1999/xlink" x="0px" y="0px"
	 viewBox="0 0 512.001 512.001" style="enable-background:new 0 0 512.001 512.001;" xml:space="preserve">
<path style="fill:#FFFFFF;" d="M395.902,7.287H116.099C56.004,7.287,7.287,56.004,7.287,116.099v279.803
	c0,60.095,48.717,108.812,108.812,108.812h279.803c60.095,0,108.812-48.717,108.812-108.812V116.099
	C504.714,56.004,455.997,7.287,395.902,7.287z"/>
<path style="fill:#103B9B;" d="M324.27,305.04L40.166,38.172C19.886,57.936,7.287,85.544,7.287,116.099v279.803
	c0,60.095,48.717,108.812,108.812,108.812h177.523L160.507,305.04H324.27z"/>
<path style="fill:#ED1F34;stroke:#ED1F34;stroke-miterlimit:10;" d="M224.268,269.721L36.015,92.887v296.24
	c0,44.331,35.937,80.268,80.268,80.268h107.986L91.153,269.721H224.268z"/>
<path d="M395.902,0H116.099C84.923,0,56.581,12.355,35.703,32.422c-0.296,0.23-0.583,0.478-0.848,0.76
	c-0.119,0.127-0.225,0.261-0.334,0.394C13.221,54.635,0,83.85,0,116.099v279.803C0,459.918,52.082,512,116.099,512h177.518
	c0.004,0,0.008,0.001,0.012,0.001c0.003,0,0.007-0.001,0.01-0.001h102.262C459.919,512,512,459.918,512,395.901V116.099
	C512,52.082,459.919,0,395.902,0z M14.573,395.901V116.099c0-25.964,9.801-49.678,25.892-67.649l265.404,249.304H160.507
	c-2.687,0-5.157,1.479-6.424,3.848c-1.269,2.369-1.129,5.244,0.361,7.48l125.564,188.345H116.099
	C60.118,497.427,14.573,451.883,14.573,395.901z M497.427,395.901c0,55.982-45.544,101.526-101.526,101.526h-98.379l-123.401-185.1
	h150.147c2.989,0,5.675-1.825,6.774-4.604c1.101-2.779,0.393-5.948-1.786-7.994L50.947,38.301
	C68.592,23.5,91.321,14.573,116.099,14.573h279.803c55.981,0,101.526,45.544,101.526,101.526v279.802H497.427z"/>
<g>
</g>
<g>
</g>
<g>
</g>
<g>
</g>
<g>
</g>
<g>
</g>
<g>
</g>
<g>
</g>
<g>
</g>
<g>
</g>
<g>
</g>
<g>
</g>
<g>
</g>
<g>
</g>
<g>
</g>
</svg>
