<?xml version="1.0" encoding="iso-8859-1"?>
<!-- Generator: Adobe Illustrator 19.0.0, SVG Export Plug-In . SVG Version: 6.00 Build 0)  -->
<svg version="1.1" id="Layer_1" xmlns="http://www.w3.org/2000/svg" xmlns:xlink="http://www.w3.org/1999/xlink" x="0px" y="0px"
	 viewBox="0 0 512 512" style="enable-background:new 0 0 512 512;" xml:space="preserve">
<path style="fill:#103B9B;" d="M395.901,7.286H116.099C56.003,7.286,7.286,56.004,7.286,116.099v279.803
	c0,60.095,48.717,108.812,108.812,108.812h279.803c60.095,0,108.812-48.717,108.812-108.812V116.099
	C504.714,56.004,455.997,7.286,395.901,7.286z"/>
<polygon style="fill:#FFFFFF;" points="131.643,345.625 137.6,364.691 152.291,351.158 147.916,370.647 167.406,366.273 
	153.873,380.964 172.938,386.92 153.873,392.876 167.406,407.568 147.916,403.193 152.291,422.682 137.6,409.149 131.643,428.215 
	125.687,409.149 110.996,422.682 115.37,403.193 95.881,407.568 109.414,392.876 90.348,386.92 109.414,380.964 95.881,366.273 
	115.37,370.647 110.996,351.158 125.687,364.691 "/>
<rect x="7.286" y="231.13" style="fill:#FFE000;" width="497.43" height="49.743"/>
<path d="M395.901,0H116.099C52.082,0,0,52.082,0,116.099v279.803C0,459.918,52.082,512,116.099,512h279.803
	C459.918,512,512,459.918,512,395.901V116.099C512,52.082,459.918,0,395.901,0z M116.099,14.573h279.803
	c55.981,0,101.526,45.544,101.526,101.526v107.743h-25.876c-4.025,0-7.286,3.262-7.286,7.287s3.262,7.286,7.286,7.286h25.876v35.17
	H14.573v-35.17H438.39c4.025,0,7.287-3.262,7.287-7.286s-3.262-7.287-7.287-7.287H14.573V116.099
	C14.573,60.117,60.117,14.573,116.099,14.573z M395.901,497.427H116.099c-55.982,0-101.526-45.544-101.526-101.526V288.158h482.854
	v107.743C497.427,451.883,451.882,497.427,395.901,497.427z"/>
<g>
</g>
<g>
</g>
<g>
</g>
<g>
</g>
<g>
</g>
<g>
</g>
<g>
</g>
<g>
</g>
<g>
</g>
<g>
</g>
<g>
</g>
<g>
</g>
<g>
</g>
<g>
</g>
<g>
</g>
</svg>
