<?xml version="1.0" encoding="iso-8859-1"?>
<!-- Generator: Adobe Illustrator 19.0.0, SVG Export Plug-In . SVG Version: 6.00 Build 0)  -->
<svg version="1.1" id="Layer_1" xmlns="http://www.w3.org/2000/svg" xmlns:xlink="http://www.w3.org/1999/xlink" x="0px" y="0px"
	 viewBox="0 0 512 512" style="enable-background:new 0 0 512 512;" xml:space="preserve">
<path style="fill:#FFE000;" d="M397.116,7.302H114.884C55.349,7.954,7.286,56.41,7.286,116.099v279.803
	c0,60.095,48.717,108.812,108.812,108.812h279.803c60.095,0,108.812-48.717,108.812-108.812V116.099
	C504.714,56.41,456.651,7.954,397.116,7.302z"/>
<path style="fill:#103B9B;" d="M312.401,7.302H114.884C55.349,7.954,7.286,56.41,7.286,116.099v139.909H312.4L312.401,7.302
	L312.401,7.302z"/>
<g>
	<polygon style="fill:#FFFFFF;" points="312.401,165.22 312.401,98.067 193.42,98.067 193.42,7.286 126.267,7.286 126.267,98.067 
		7.286,98.067 7.286,165.22 126.267,165.22 126.267,256 193.42,256 193.42,165.22 	"/>
	<path style="fill:#FFFFFF;" d="M159.844,171.997L285.848,256h26.553v-63.006l-92.027-61.351l92.027-61.351V7.286h-26.553
		L159.844,91.29L58.536,23.751C39.097,35.894,23.77,54,15.116,75.511l84.198,56.132L7.286,192.994V256h26.552L159.844,171.997z"/>
</g>
<g>
	<path style="fill:#ED1F34;" d="M180.021,145.094l132.38,88.254v-26.383l-132.613-88.618l132.613-88.409V7.286h-6.376
		L139.676,118.198L32.34,46.641c-4.776,5.753-8.966,12.007-12.489,18.67l119.602,79.927L7.286,233.348V256h6.376L180.021,145.094z"
		/>
	<polygon style="fill:#ED1F34;" points="312.401,149.675 312.401,113.612 177.876,113.612 177.876,7.286 141.812,7.286 
		141.812,113.612 7.286,113.612 7.286,149.675 141.812,149.675 141.812,256 177.876,256 177.876,149.675 	"/>
</g>
<path d="M395.901,0H116.099C52.082,0,0,52.082,0,116.099v279.803C0,459.918,52.082,512,116.099,512h279.803
	C459.918,512,512,459.918,512,395.901V116.099C512,52.082,459.918,0,395.901,0z M116.099,14.573h189.015v234.148l-290.541-0.007
	V116.099C14.573,60.117,60.118,14.573,116.099,14.573z M497.427,395.901c0,55.982-45.545,101.526-101.526,101.526H116.099
	c-55.981,0-101.526-45.544-101.526-101.526V263.287l297.827,0.007c1.933,0,3.786-0.767,5.152-2.134
	c1.367-1.366,2.135-3.22,2.135-5.152V14.573h76.214c55.981,0,101.526,45.544,101.526,101.526V395.901z"/>
<circle style="fill:#164FCE;" cx="159.84" cy="131.66" r="41.45"/>
<g>
	<circle style="fill:#FFE000;" cx="159.84" cy="131.66" r="24.871"/>
	<circle style="fill:#FFE000;" cx="159.84" cy="55.934" r="12.435"/>
	<circle style="fill:#FFE000;" cx="51.657" cy="131.66" r="12.435"/>
	<circle style="fill:#FFE000;" cx="268.03" cy="131.66" r="12.435"/>
	<circle style="fill:#FFE000;" cx="159.84" cy="207.37" r="12.435"/>
</g>
<g>
</g>
<g>
</g>
<g>
</g>
<g>
</g>
<g>
</g>
<g>
</g>
<g>
</g>
<g>
</g>
<g>
</g>
<g>
</g>
<g>
</g>
<g>
</g>
<g>
</g>
<g>
</g>
<g>
</g>
</svg>
