<?xml version="1.0" encoding="iso-8859-1"?>
<!-- Generator: Adobe Illustrator 19.0.0, SVG Export Plug-In . SVG Version: 6.00 Build 0)  -->
<svg version="1.1" id="Layer_1" xmlns="http://www.w3.org/2000/svg" xmlns:xlink="http://www.w3.org/1999/xlink" x="0px" y="0px"
	 viewBox="0 0 512 512" style="enable-background:new 0 0 512 512;" xml:space="preserve">
<path style="fill:#103B9B;" d="M395.9,7.3H116.1C56,7.3,7.3,56,7.3,116.1v279.8C7.3,456,56,504.7,116.1,504.7h279.8
	c60.1,0,108.8-48.7,108.8-108.8V116.1C504.7,56,456,7.3,395.9,7.3z"/>
<g>
	<circle style="fill:#ED1F34;" cx="380.4" cy="214.8" r="16.6"/>
	<circle style="fill:#ED1F34;" cx="380.4" cy="413.8" r="16.6"/>
	<circle style="fill:#ED1F34;" cx="430.1" cy="256.3" r="16.6"/>
	<circle style="fill:#ED1F34;" cx="330.6" cy="297.7" r="16.6"/>
</g>
<path style="fill:#FFFFFF;" d="M159.8,172l126,84h26.6v-63l-92-61.4l92-61.4v-63h-26.6l-126,84L58.5,23.8
	C39.1,35.9,23.8,54,15.1,75.5l84.2,56.1L7.3,193v63h26.6L159.8,172z"/>
<path style="fill:#ED1F34;" d="M180,145.1l132.4,88.3V207l-132.6-88.6L312.4,30V7.3H306L139.7,118.2L32.3,46.6
	c-4.8,5.8-9,12-12.5,18.7l119.6,79.9L7.3,233.3V256h6.4L180,145.1z"/>
<polygon style="fill:#FFFFFF;" points="312.4,165.2 312.4,98.1 193.4,98.1 193.4,7.3 126.3,7.3 126.3,98.1 7.3,98.1 7.3,165.2 
	126.3,165.2 126.3,256 193.4,256 193.4,165.2 "/>
<polygon style="fill:#ED1F34;" points="312.4,149.7 312.4,113.6 177.9,113.6 177.9,7.3 141.8,7.3 141.8,113.6 7.3,113.6 7.3,149.7 
	141.8,149.7 141.8,256 177.9,256 177.9,149.7 "/>
<path d="M395.9,512H116.1C52.1,512,0,459.9,0,395.9V116.1C0,52.1,52.1,0,116.1,0h279.8C459.9,0,512,52.1,512,116.1v279.8
	C512,459.9,459.9,512,395.9,512z M116.1,14.6c-56,0-101.5,45.5-101.5,101.5v279.8c0,56,45.5,101.5,101.5,101.5h279.8
	c56,0,101.5-45.5,101.5-101.5V116.1c0-56-45.5-101.5-101.5-101.5C395.9,14.6,116.1,14.6,116.1,14.6z"/>
<g>
</g>
<g>
</g>
<g>
</g>
<g>
</g>
<g>
</g>
<g>
</g>
<g>
</g>
<g>
</g>
<g>
</g>
<g>
</g>
<g>
</g>
<g>
</g>
<g>
</g>
<g>
</g>
<g>
</g>
</svg>
