<?xml version="1.0" encoding="iso-8859-1"?>
<!-- Generator: Adobe Illustrator 19.0.0, SVG Export Plug-In . SVG Version: 6.00 Build 0)  -->
<svg version="1.1" id="Layer_1" xmlns="http://www.w3.org/2000/svg" xmlns:xlink="http://www.w3.org/1999/xlink" x="0px" y="0px"
	 viewBox="0 0 512 512" style="enable-background:new 0 0 512 512;" xml:space="preserve">
<path style="fill:#FFFFFF;" d="M395.901,7.286H173.096v165.809h331.618v-56.997C504.714,56.004,455.997,7.286,395.901,7.286z"/>
<path style="fill:#259245;" d="M173.096,504.714h222.806c60.095,0,108.812-48.717,108.812-108.812v-56.997H173.096V504.714z"/>
<path style="fill:#ED1F34;" d="M173.096,7.286h-56.997C56.003,7.286,7.286,56.004,7.286,116.099v279.803
	c0,60.095,48.717,108.812,108.812,108.812h56.997v-165.81h331.618V173.096H173.096V7.286z"/>
<path d="M395.901,0H116.099C52.082,0,0,52.082,0,116.099v279.803C0,459.918,52.082,512,116.099,512h279.803
	C459.918,512,512,459.918,512,395.901V116.099C512,52.082,459.918,0,395.901,0z M497.427,116.099v49.71H180.382V14.573h215.519
	C451.882,14.573,497.427,60.117,497.427,116.099z M395.901,497.427H180.382V346.191h26.77c4.024,0,7.286-3.262,7.286-7.287
	c0-4.024-3.262-7.286-7.286-7.286h-34.057c-4.024,0-7.287,3.262-7.287,7.286v158.522h-49.71
	c-55.982,0-101.526-45.544-101.526-101.526V116.099c0-55.982,45.544-101.526,101.526-101.526h49.71v158.522
	c0,4.024,3.262,7.286,7.287,7.286h324.332v151.236H240.314c-4.024,0-7.286,3.262-7.286,7.286c0,4.024,3.262,7.287,7.286,7.287
	h257.113v49.71C497.427,451.883,451.882,497.427,395.901,497.427z"/>
<path style="fill:#FFFFFF;" d="M100.496,94.785l15.298-15.298c2.846-2.845,2.846-7.459,0-10.305c-2.845-2.845-7.459-2.845-10.305,0
	L90.191,84.481L74.894,69.183c-2.845-2.846-7.459-2.846-10.304,0c-2.846,2.845-2.846,7.459,0,10.305l15.297,15.298L64.59,110.084
	c-2.846,2.845-2.846,7.459,0,10.305c1.423,1.423,3.287,2.134,5.152,2.134s3.73-0.712,5.152-2.134l15.298-15.298l15.297,15.298
	c1.423,1.423,3.287,2.134,5.152,2.134c1.864,0,3.73-0.712,5.152-2.134c2.846-2.845,2.846-7.459,0-10.305L100.496,94.785z"/>
<g>
</g>
<g>
</g>
<g>
</g>
<g>
</g>
<g>
</g>
<g>
</g>
<g>
</g>
<g>
</g>
<g>
</g>
<g>
</g>
<g>
</g>
<g>
</g>
<g>
</g>
<g>
</g>
<g>
</g>
</svg>
