<?xml version="1.0" encoding="iso-8859-1"?>
<!-- Generator: Adobe Illustrator 19.0.0, SVG Export Plug-In . SVG Version: 6.00 Build 0)  -->
<svg version="1.1" id="Layer_1" xmlns="http://www.w3.org/2000/svg" xmlns:xlink="http://www.w3.org/1999/xlink" x="0px" y="0px"
	 viewBox="0 0 512 512" style="enable-background:new 0 0 512 512;" xml:space="preserve">
<path style="fill:#FFFFFF;" d="M256,7.286H116.099C56.003,7.286,7.286,56.003,7.286,116.099V256H256V7.286z"/>
<path style="fill:#ED1F34;" d="M395.901,7.286H256V256h248.714V116.099C504.714,56.003,455.997,7.286,395.901,7.286z"/>
<path style="fill:#FFFFFF;" d="M256,504.714h139.901c60.095,0,108.812-48.717,108.812-108.812V256H256V504.714z"/>
<g>
	<path style="fill:#164FCE;" d="M7.286,256v139.901c0,60.095,48.717,108.812,108.812,108.812H256V256H7.286z"/>
	<polygon style="fill:#164FCE;" points="84.664,113.971 119.255,112.184 131.643,79.839 144.032,112.184 178.622,113.971 
		151.689,135.749 160.678,169.199 131.643,150.313 102.608,169.199 111.598,135.749 	"/>
</g>
<polygon style="fill:#ED1F34;" points="333.378,367.219 367.968,365.431 380.357,333.086 392.746,365.431 427.336,367.219 
	400.402,388.996 409.392,422.446 380.357,403.56 351.322,422.446 360.311,388.996 "/>
<path d="M395.901,0H116.099C52.082,0,0,52.082,0,116.099v279.803C0,459.918,52.082,512,116.099,512h279.803
	C459.918,512,512,459.918,512,395.901V116.099C512,52.082,459.918,0,395.901,0z M497.427,116.099v132.615h-234.14V14.573h132.615
	C451.882,14.573,497.427,60.118,497.427,116.099z M116.099,14.573h132.615v234.14H14.573V116.099
	C14.573,60.118,60.118,14.573,116.099,14.573z M395.901,497.427H263.286v-40.772c0-4.025-3.262-7.286-7.286-7.286
	c-4.025,0-7.286,3.262-7.286,7.286v40.772H116.099c-55.981,0-101.526-45.545-101.526-101.526V263.286h234.14v160.207
	c0,4.025,3.262,7.286,7.286,7.286c4.025,0,7.286-3.262,7.286-7.286V263.286h234.14v132.615
	C497.427,451.882,451.882,497.427,395.901,497.427z"/>
<path d="M80.082,119.638l23.249,18.797l-7.76,28.873c-0.784,2.915,0.312,6.011,2.754,7.786c2.442,1.774,5.726,1.86,8.255,0.214
	l25.063-16.301l25.063,16.301c1.21,0.787,2.592,1.178,3.973,1.178c1.506,0,3.008-0.466,4.283-1.392
	c2.442-1.774,3.538-4.871,2.754-7.786l-7.76-28.873l23.249-18.797c2.347-1.898,3.281-5.047,2.348-7.918s-3.539-4.87-6.554-5.026
	l-29.857-1.543l-10.694-27.919c-1.08-2.819-3.786-4.68-6.805-4.68s-5.725,1.861-6.805,4.68l-10.693,27.919l-29.857,1.543
	c-3.015,0.156-5.621,2.155-6.554,5.026C76.802,114.591,77.735,117.74,80.082,119.638z M119.63,119.461
	c2.879-0.149,5.399-1.98,6.429-4.671l5.584-14.58l5.584,14.58c1.03,2.691,3.55,4.522,6.429,4.671l15.591,0.806l-12.14,9.816
	c-2.241,1.812-3.203,4.774-2.455,7.557l4.052,15.078l-13.088-8.512c-1.208-0.785-2.59-1.178-3.972-1.178s-2.765,0.393-3.972,1.178
	l-13.088,8.512l4.052-15.078c0.748-2.783-0.214-5.745-2.455-7.557l-12.14-9.816L119.63,119.461z"/>
<path d="M427.712,359.941l-29.857-1.542l-10.694-27.919c-1.08-2.819-3.786-4.68-6.805-4.68c-3.019,0-5.725,1.861-6.805,4.68
	l-10.694,27.919L333,359.941c-3.015,0.156-5.621,2.155-6.554,5.026c-0.933,2.871,0.001,6.02,2.348,7.918l23.249,18.798l-7.76,28.873
	c-0.784,2.915,0.312,6.011,2.754,7.786c2.442,1.774,5.725,1.86,8.256,0.214l25.062-16.302l25.062,16.302
	c1.211,0.788,2.593,1.178,3.973,1.178c1.506,0,3.009-0.466,4.283-1.392c2.442-1.774,3.538-4.871,2.754-7.786l-7.76-28.873
	l23.249-18.798c2.347-1.898,3.281-5.047,2.348-7.918C433.333,362.096,430.727,360.097,427.712,359.941z M395.821,383.33
	c-2.241,1.812-3.203,4.774-2.455,7.557l4.052,15.078l-13.087-8.513c-1.208-0.786-2.591-1.178-3.974-1.178
	c-1.382,0-2.766,0.393-3.973,1.178l-13.087,8.513l4.052-15.078c0.748-2.783-0.214-5.745-2.455-7.557l-12.14-9.816l15.591-0.805
	c2.878-0.149,5.398-1.98,6.429-4.671l5.584-14.58l5.585,14.58c1.031,2.691,3.551,4.522,6.429,4.671l15.591,0.805L395.821,383.33z"/>
<g>
</g>
<g>
</g>
<g>
</g>
<g>
</g>
<g>
</g>
<g>
</g>
<g>
</g>
<g>
</g>
<g>
</g>
<g>
</g>
<g>
</g>
<g>
</g>
<g>
</g>
<g>
</g>
<g>
</g>
</svg>
