<?xml version="1.0" encoding="iso-8859-1"?>
<!-- Generator: Adobe Illustrator 19.0.0, SVG Export Plug-In . SVG Version: 6.00 Build 0)  -->
<svg version="1.1" id="Layer_1" xmlns="http://www.w3.org/2000/svg" xmlns:xlink="http://www.w3.org/1999/xlink" x="0px" y="0px"
	 viewBox="0 0 512 512" style="enable-background:new 0 0 512 512;" xml:space="preserve">
<g>
	<path style="fill:#ED1F34;" d="M395.901,7.286H116.099C56.003,7.286,7.286,56.004,7.286,116.099v3.938h497.427v-3.938
		C504.713,56.004,455.997,7.286,395.901,7.286z"/>
	<path style="fill:#ED1F34;" d="M7.286,395.901c0,60.095,48.717,108.812,108.812,108.812h279.803
		c60.095,0,108.812-48.717,108.812-108.812v-3.938H7.286V395.901z"/>
</g>
<rect x="7.286" y="120.04" style="fill:#FFFFFF;" width="497.43" height="271.93"/>
<path style="fill:#F2A643;" d="M256,163.976c-50.742,0-92.024,41.283-92.024,92.024s41.282,92.024,92.024,92.024
	s92.024-41.283,92.024-92.024S306.742,163.976,256,163.976z"/>
<path style="fill:#164FCE;" d="M170.183,289.162c13.339,34.398,46.764,58.862,85.817,58.862s72.478-24.464,85.817-58.862H170.183z"
	/>
<path style="fill:#B21727;" d="M293.498,235.867c-4.024,0-7.286,3.262-7.286,7.286v34.72c0,6.321-5.142,11.463-11.462,11.463
	c-6.321,0-11.463-5.142-11.463-11.463v-62.497c0-4.025-3.262-7.287-7.286-7.287c-4.024,0-7.287,3.262-7.287,7.287v62.497
	c0,6.321-5.142,11.463-11.463,11.463s-11.463-5.142-11.463-11.463v-34.72c0-4.025-3.262-7.286-7.286-7.286s-7.286,3.262-7.286,7.286
	v34.72c0,14.357,11.679,26.036,26.036,26.036c7.359,0,14.009-3.074,18.749-7.999c4.74,4.925,11.39,7.999,18.749,7.999
	c14.356,0,26.035-11.679,26.035-26.036v-34.72C300.785,239.129,297.522,235.867,293.498,235.867z"/>
<path d="M256,156.69c-54.76,0-99.311,44.55-99.311,99.31S201.24,355.31,256,355.31s99.311-44.55,99.311-99.31
	S310.76,156.69,256,156.69z M256,340.737c-46.724,0-84.738-38.013-84.738-84.737s38.013-84.737,84.738-84.737
	s84.738,38.013,84.738,84.737S302.724,340.737,256,340.737z"/>
<path d="M395.901,0H116.099C52.082,0,0,52.082,0,116.099v279.803C0,459.918,52.082,512,116.099,512h279.803
	C459.918,512,512,459.918,512,395.901V116.099C512,52.082,459.918,0,395.901,0z M116.099,14.573h279.803
	c54.861,0,99.691,43.74,101.465,98.177h-25.814c-4.024,0-7.286,3.262-7.286,7.286c0,4.025,3.262,7.286,7.286,7.286h25.875v257.353
	H14.573V127.324H438.39c4.024,0,7.287-3.262,7.287-7.286c0-4.025-3.262-7.286-7.287-7.286H14.634
	C16.408,58.314,61.238,14.573,116.099,14.573z M395.901,497.427H116.099c-54.861,0-99.691-43.741-101.465-98.177h482.732
	C495.592,453.686,450.762,497.427,395.901,497.427z"/>
<g>
</g>
<g>
</g>
<g>
</g>
<g>
</g>
<g>
</g>
<g>
</g>
<g>
</g>
<g>
</g>
<g>
</g>
<g>
</g>
<g>
</g>
<g>
</g>
<g>
</g>
<g>
</g>
<g>
</g>
</svg>
