<?xml version="1.0" encoding="iso-8859-1"?>
<!-- Generator: Adobe Illustrator 19.0.0, SVG Export Plug-In . SVG Version: 6.00 Build 0)  -->
<svg version="1.1" id="Layer_1" xmlns="http://www.w3.org/2000/svg" xmlns:xlink="http://www.w3.org/1999/xlink" x="0px" y="0px"
	 viewBox="0 0 512 512" style="enable-background:new 0 0 512 512;" xml:space="preserve">
<path style="fill:#333333;" d="M7.286,116.099v279.803c0,60.095,48.717,108.812,108.812,108.812h279.803
	c30.048,0,57.251-12.179,76.942-31.871L39.157,39.157C19.466,58.848,7.286,86.051,7.286,116.099z"/>
<path style="fill:#ED1F34;" d="M395.901,7.286H116.099c-30.048,0-57.251,12.179-76.942,31.871l433.686,433.686
	c19.691-19.691,31.871-46.894,31.871-76.942V116.099C504.714,56.004,455.997,7.286,395.901,7.286z"/>
<g>
	<circle style="fill:#FFFFFF;" cx="112.3" cy="272.17" r="13.423"/>
	<circle style="fill:#FFFFFF;" cx="112.3" cy="433.24" r="13.423"/>
	<circle style="fill:#FFFFFF;" cx="152.57" cy="305.73" r="13.423"/>
	<circle style="fill:#FFFFFF;" cx="72.03" cy="339.28" r="13.423"/>
	<circle style="fill:#FFFFFF;" cx="132.43" cy="369.48" r="8.948"/>
</g>
<path style="fill:#FFE000;" d="M302.979,118.949c0,31.44,25.488,56.928,56.928,56.928s56.928-25.488,56.928-56.928H302.979z"/>
<path d="M414.041,153.421c5.132-8.03,8.529-17.266,9.655-27.186h9.68c4.024,0,7.287-3.262,7.287-7.286s-3.262-7.287-7.287-7.287
	h-16.542h-71.713V90.485c0-4.024-3.262-7.286-7.286-7.286h-11.09c-4.024,0-7.287,3.262-7.287,7.286s3.262,7.286,7.287,7.286h3.804
	v13.89h-27.57h-16.542c-4.024,0-7.286,3.262-7.286,7.287s3.262,7.286,7.286,7.286h9.68c3.631,31.988,30.846,56.928,63.789,56.928
	c16.847,0,32.192-6.531,43.658-17.182c13.793,1.387,24.597,13.064,24.597,27.217c0,4.024,3.262,7.287,7.287,7.287
	s7.286-3.262,7.286-7.287C442.735,174.702,430.693,158.977,414.041,153.421z M310.799,126.235h98.216
	c-3.535,23.931-24.21,42.355-49.108,42.355S314.333,150.166,310.799,126.235z"/>
<path d="M512,116.099C512,52.082,459.918,0,395.901,0H116.099C84.422,0,55.673,12.757,34.704,33.397
	c-0.242,0.187-0.478,0.386-0.7,0.608s-0.42,0.458-0.608,0.7C12.757,55.673,0,84.422,0,116.099v279.803
	C0,459.918,52.082,512,116.099,512h279.803c31.677,0,60.426-12.757,81.394-33.397c0.242-0.187,0.478-0.386,0.7-0.608
	c0.222-0.222,0.421-0.458,0.608-0.7C499.243,456.327,512,427.578,512,395.901V116.099z M116.099,497.427
	c-55.982,0-101.526-45.544-101.526-101.526V116.099c0-25.374,9.357-48.603,24.801-66.42l422.947,422.947
	c-17.816,15.444-41.046,24.801-66.42,24.801L116.099,497.427L116.099,497.427z M497.427,395.901c0,25.374-9.357,48.603-24.801,66.42
	L49.679,39.374c17.816-15.444,41.046-24.801,66.42-24.801h279.803c55.981,0,101.526,45.544,101.526,101.526v279.802H497.427z"/>
<g>
</g>
<g>
</g>
<g>
</g>
<g>
</g>
<g>
</g>
<g>
</g>
<g>
</g>
<g>
</g>
<g>
</g>
<g>
</g>
<g>
</g>
<g>
</g>
<g>
</g>
<g>
</g>
<g>
</g>
</svg>
