<?xml version="1.0" encoding="iso-8859-1"?>
<!-- Generator: Adobe Illustrator 19.0.0, SVG Export Plug-In . SVG Version: 6.00 Build 0)  -->
<svg version="1.1" id="Layer_1" xmlns="http://www.w3.org/2000/svg" xmlns:xlink="http://www.w3.org/1999/xlink" x="0px" y="0px"
	 viewBox="0 0 512 512" style="enable-background:new 0 0 512 512;" xml:space="preserve">
<path style="fill:#FFFFFF;" d="M39.157,39.157c-19.691,19.692-31.87,46.895-31.87,76.942v279.803
	c0,30.047,12.179,57.25,31.87,76.942L256,256L39.157,39.157z"/>
<path style="fill:#ED1F34;" d="M39.157,472.844c19.691,19.691,46.894,31.87,76.942,31.87h279.803
	c60.095,0,108.812-48.717,108.812-108.812V256H256L39.157,472.844z"/>
<path style="fill:#103B9B;" d="M395.901,7.286H116.099c-30.048,0-57.251,12.179-76.942,31.87L256,256h248.714V116.099
	C504.714,56.004,455.997,7.286,395.901,7.286z"/>
<g>
	<path style="fill:#FFE000;" d="M108.493,333.755c-42.874,0-77.755-34.88-77.755-77.755s34.881-77.755,77.755-77.755
		s77.755,34.88,77.755,77.755S151.368,333.755,108.493,333.755z M108.493,192.818c-34.839,0-63.182,28.344-63.182,63.182
		s28.343,63.182,63.182,63.182s63.182-28.343,63.182-63.182S143.332,192.818,108.493,192.818z"/>
	<circle style="fill:#FFE000;" cx="108.49" cy="256" r="38.965"/>
</g>
<path d="M395.901,0H116.099C84.423,0,55.675,12.756,34.707,33.394c-0.243,0.188-0.48,0.387-0.703,0.61s-0.422,0.46-0.61,0.703
	C12.756,55.675,0,84.423,0,116.099v279.803c0,31.676,12.756,60.424,33.395,81.392c0.188,0.243,0.387,0.48,0.61,0.703
	s0.46,0.422,0.703,0.61C55.675,499.244,84.423,512,116.099,512h279.803C459.918,512,512,459.918,512,395.901V116.099
	C512,52.082,459.918,0,395.901,0z M14.573,116.099c0-25.374,9.357-48.603,24.801-66.419L245.695,256L39.374,462.321
	c-15.444-17.816-24.801-41.046-24.801-66.419V116.099z M395.901,497.427H116.099c-25.374,0-48.603-9.357-66.419-24.801
	l209.34-209.34h179.37c4.025,0,7.287-3.262,7.287-7.286c0-4.025-3.262-7.286-7.287-7.286H259.019L49.679,39.374
	c17.816-15.444,41.046-24.801,66.419-24.801h279.803c55.981,0,101.526,45.544,101.526,101.526v132.615h-25.876
	c-4.025,0-7.286,3.262-7.286,7.286c0,4.025,3.262,7.286,7.286,7.286h25.876v132.615
	C497.427,451.882,451.882,497.427,395.901,497.427z"/>
<g>
</g>
<g>
</g>
<g>
</g>
<g>
</g>
<g>
</g>
<g>
</g>
<g>
</g>
<g>
</g>
<g>
</g>
<g>
</g>
<g>
</g>
<g>
</g>
<g>
</g>
<g>
</g>
<g>
</g>
</svg>
