<?xml version="1.0" encoding="iso-8859-1"?>
<!-- Generator: Adobe Illustrator 19.0.0, SVG Export Plug-In . SVG Version: 6.00 Build 0)  -->
<svg version="1.1" id="Layer_1" xmlns="http://www.w3.org/2000/svg" xmlns:xlink="http://www.w3.org/1999/xlink" x="0px" y="0px"
	 viewBox="0 0 512 512" style="enable-background:new 0 0 512 512;" xml:space="preserve">
<path style="fill:#134923;" d="M395.901,7.286H116.099C56.003,7.286,7.286,56.004,7.286,116.099v279.803
	c0,60.095,48.717,108.812,108.812,108.812h279.803c60.095,0,108.812-48.717,108.812-108.812V116.099
	C504.714,56.004,455.997,7.286,395.901,7.286z"/>
<g>
	<path style="fill:#FFFFFF;" d="M116.099,7.286C56.003,7.286,7.286,56.004,7.286,116.099v279.803
		c0,60.095,48.717,108.812,108.812,108.812h1.727V7.286H116.099z"/>
	<path style="fill:#FFFFFF;" d="M374.549,289.841c-28.269,28.269-74.102,28.269-102.371,0s-28.268-74.101,0.001-102.37
		c0.851-0.851,1.719-1.673,2.6-2.472c-13.25,3.712-25.761,10.76-36.183,21.182c-32.376,32.376-32.376,84.868,0,117.244
		s84.869,32.377,117.245,0.001c10.422-10.422,17.47-22.934,21.182-36.183C376.221,288.122,375.399,288.991,374.549,289.841z"/>
	<polygon style="fill:#FFFFFF;" points="323.094,225.241 344.373,201.644 331.428,172.627 360.445,185.572 384.042,164.293 
		380.698,195.891 408.227,211.758 377.142,218.341 370.559,249.426 354.692,221.897 	"/>
</g>
<path d="M395.901,0H116.099C52.082,0,0,52.082,0,116.099v279.803C0,459.918,52.082,512,116.099,512h279.803
	C459.918,512,512,459.918,512,395.901V116.099C512,52.082,459.918,0,395.901,0z M14.573,395.901V116.099
	c0-54.116,42.561-98.475,95.966-101.372v482.546C57.134,494.376,14.573,450.017,14.573,395.901z M497.427,395.901
	c0,55.982-45.545,101.526-101.526,101.526H125.112V14.573h270.789c55.981,0,101.526,45.544,101.526,101.526V395.901z"/>
<path d="M380.547,280.865c-2.956-1.634-6.649-1.022-8.921,1.479c-0.772,0.85-1.501,1.616-2.231,2.345
	c-12.295,12.296-28.643,19.068-46.032,19.068s-33.737-6.772-46.033-19.068s-19.068-28.644-19.068-46.033
	c0.001-17.389,6.772-33.737,19.07-46.035c0.736-0.736,1.502-1.465,2.342-2.227c2.503-2.271,3.116-5.964,1.48-8.922
	c-1.634-2.956-5.085-4.402-8.342-3.491c-14.836,4.157-28.45,12.126-39.37,23.046c-35.165,35.165-35.165,92.383-0.001,127.548
	c17.036,17.035,39.685,26.417,63.776,26.417s46.74-9.381,63.775-26.416c10.92-10.921,18.889-24.535,23.045-39.371
	C384.949,285.953,383.504,282.5,380.547,280.865z M350.688,318.273c-14.283,14.282-33.272,22.147-53.471,22.147
	c-20.198,0-39.188-7.866-53.471-22.148c-29.483-29.483-29.483-77.456,0.001-106.939c2.341-2.341,4.828-4.519,7.443-6.525
	c-4.913,10.456-7.501,21.952-7.501,33.848c-0.001,21.282,8.286,41.289,23.335,56.338c15.049,15.048,35.057,23.336,56.339,23.336
	c11.896,0,23.394-2.59,33.849-7.501C355.207,313.444,353.029,315.932,350.688,318.273z"/>
<path d="M411.865,205.445l-23.423-13.5l2.846-26.884c0.318-3.002-1.248-5.889-3.937-7.259c-2.69-1.37-5.945-0.94-8.188,1.081
	l-20.078,18.104l-24.689-11.014c-2.759-1.232-5.986-0.633-8.122,1.502c-2.134,2.134-2.731,5.364-1.502,8.121l11.014,24.689
	l-18.104,20.077c-2.021,2.242-2.451,5.498-1.081,8.188c1.371,2.69,4.254,4.252,7.26,3.938l26.883-2.846l13.5,23.423
	c1.315,2.28,3.736,3.648,6.311,3.648c0.379,0,0.76-0.03,1.141-0.09c2.982-0.473,5.363-2.734,5.989-5.687l5.602-26.448l26.448-5.602
	c2.954-0.626,5.215-3.007,5.687-5.989C415.896,209.916,414.481,206.952,411.865,205.445z M375.633,211.212
	c-2.82,0.597-5.022,2.8-5.619,5.619l-2.642,12.474l-6.367-11.047c-1.31-2.273-3.727-3.648-6.311-3.648
	c-0.255,0-0.511,0.013-0.769,0.04l-12.679,1.342l8.539-9.469c1.93-2.14,2.417-5.216,1.243-7.848l-5.194-11.644l11.643,5.194
	c2.634,1.175,5.71,0.686,7.848-1.243l9.47-8.538l-1.342,12.679c-0.304,2.866,1.11,5.641,3.607,7.08l11.047,6.367L375.633,211.212z"
	/>
<g>
</g>
<g>
</g>
<g>
</g>
<g>
</g>
<g>
</g>
<g>
</g>
<g>
</g>
<g>
</g>
<g>
</g>
<g>
</g>
<g>
</g>
<g>
</g>
<g>
</g>
<g>
</g>
<g>
</g>
</svg>
