<?xml version="1.0" encoding="iso-8859-1"?>
<!-- Generator: Adobe Illustrator 19.0.0, SVG Export Plug-In . SVG Version: 6.00 Build 0)  -->
<svg version="1.1" id="Layer_1" xmlns="http://www.w3.org/2000/svg" xmlns:xlink="http://www.w3.org/1999/xlink" x="0px" y="0px"
	 viewBox="0 0 512 512" style="enable-background:new 0 0 512 512;" xml:space="preserve">
<path style="fill:#ED1F34;" d="M7.287,256v139.901c0,60.095,48.717,108.812,108.812,108.812h279.803
	c60.092,0,108.807-48.712,108.812-108.803V256H7.287z"/>
<path style="fill:#FFFFFF;" d="M504.714,116.089C504.708,55.998,455.994,7.286,395.901,7.286H116.099
	C56.003,7.286,7.287,56.003,7.287,116.099V256h497.427V116.089z"/>
<path d="M395.901,0H116.099C52.082,0,0,52.082,0,116.099v279.803C0,459.918,52.082,512,116.099,512h279.803
	C459.918,512,512,459.918,512,395.901V116.099C512,52.082,459.918,0,395.901,0z M395.901,497.427H116.099
	c-55.982,0-101.526-45.544-101.526-101.526V263.286H73.61c4.024,0,7.286-3.262,7.286-7.286s-3.262-7.286-7.286-7.286H14.573V116.099
	c0-55.982,45.544-101.526,101.526-101.526h279.803c55.981,0,101.526,45.544,101.526,101.526v132.615H106.772
	c-4.024,0-7.286,3.262-7.286,7.286c0,4.024,3.262,7.286,7.286,7.286h390.655v132.615
	C497.427,451.883,451.883,497.427,395.901,497.427z"/>
<g>
</g>
<g>
</g>
<g>
</g>
<g>
</g>
<g>
</g>
<g>
</g>
<g>
</g>
<g>
</g>
<g>
</g>
<g>
</g>
<g>
</g>
<g>
</g>
<g>
</g>
<g>
</g>
<g>
</g>
</svg>
