<?xml version="1.0" encoding="iso-8859-1"?>
<!-- Generator: Adobe Illustrator 19.0.0, SVG Export Plug-In . SVG Version: 6.00 Build 0)  -->
<svg version="1.1" id="Layer_1" xmlns="http://www.w3.org/2000/svg" xmlns:xlink="http://www.w3.org/1999/xlink" x="0px" y="0px"
	 viewBox="0 0 512 512" style="enable-background:new 0 0 512 512;" xml:space="preserve">
<path style="fill:#103B9B;" d="M395.901,7.286H116.099C56.003,7.286,7.286,56.004,7.286,116.099v279.803
	c0,60.095,48.717,108.812,108.812,108.812h279.803c60.095,0,108.812-48.717,108.812-108.812V116.099
	C504.713,56.004,455.997,7.286,395.901,7.286z"/>
<g>
	<polygon style="fill:#FFFFFF;" points="312.401,165.22 312.401,98.067 193.42,98.067 193.42,7.286 126.267,7.286 126.267,98.067 
		7.286,98.067 7.286,165.22 126.267,165.22 126.267,256 193.42,256 193.42,165.22 	"/>
	<path style="fill:#FFFFFF;" d="M159.844,171.997L285.848,256H312.4v-63.006l-92.027-61.351L312.4,70.292V7.286h-26.553
		L159.844,91.289L58.536,23.751C39.097,35.894,23.77,54,15.115,75.511l84.198,56.132L7.287,192.994V256h26.552L159.844,171.997z"/>
</g>
<g>
	<path style="fill:#ED1F34;" d="M180.021,145.094l132.38,88.254v-26.382l-132.613-88.619l132.613-88.409V7.286h-6.376
		L139.676,118.198L32.34,46.641c-4.776,5.752-8.966,12.007-12.489,18.67l119.602,79.926L7.287,233.348V256h6.376L180.021,145.094z"
		/>
	<polygon style="fill:#ED1F34;" points="312.401,149.675 312.401,113.612 177.875,113.612 177.875,7.286 141.812,7.286 
		141.812,113.612 7.286,113.612 7.286,149.675 141.812,149.675 141.812,256 177.875,256 177.875,149.675 	"/>
</g>
<path style="fill:#259245;" d="M452.762,431.676c-4.024,0-7.286-3.262-7.286-7.286v-37.812c0-31.991-26.026-58.016-58.016-58.016
	s-58.016,26.026-58.016,58.016v37.812c0,4.025-3.262,7.286-7.286,7.286s-7.287-3.262-7.287-7.286v-37.812
	c0-40.026,32.563-72.589,72.589-72.589s72.589,32.564,72.589,72.589v37.812C460.049,428.414,456.786,431.676,452.762,431.676z"/>
<path style="fill:#FFE000;" d="M387.46,393.957c-40.026,0-72.589-32.564-72.589-72.589v-37.812c0-4.025,3.262-7.287,7.287-7.287
	s7.286,3.262,7.286,7.287v37.812c0,31.991,26.026,58.016,58.016,58.016s58.016-26.026,58.016-58.016v-37.812
	c0-4.025,3.262-7.287,7.286-7.287s7.287,3.262,7.287,7.287v37.812C460.049,361.394,427.486,393.957,387.46,393.957z"/>
<path style="fill:#3DB4EA;" d="M340.312,325.993v50.155c0,59.798,47.148,73.467,47.148,73.467s47.148-13.669,47.148-73.467v-50.155
	H340.312z"/>
<path style="fill:#259245;" d="M387.46,449.616c0,0,27.779-8.054,40.691-38.84l-40.695-71.02l-40.685,71.027
	C359.686,441.564,387.46,449.616,387.46,449.616z"/>
<path style="fill:#FFE000;" d="M346.765,418.07c-1.228,0-2.473-0.31-3.615-0.965c-3.492-2-4.701-6.452-2.701-9.944l40.685-71.027
	c1.298-2.267,3.71-3.665,6.322-3.665s5.024,1.398,6.323,3.664l40.695,71.02c2.001,3.492,0.792,7.944-2.699,9.945
	c-3.491,1.998-7.944,0.792-9.945-2.7l-34.372-59.985l-34.363,59.991C351.749,416.754,349.292,418.07,346.765,418.07z"/>
<path style="fill:#B3B3B3;" d="M387.46,268.464c-10.555,0-19.111,8.556-19.111,19.111v38.419h38.221v-38.419
	C406.571,277.021,398.014,268.464,387.46,268.464z"/>
<path d="M395.901,0H116.099C52.082,0,0,52.082,0,116.099v279.803C0,459.918,52.082,512,116.099,512h279.803
	C459.918,512,512,459.918,512,395.901V116.099C512,52.082,459.918,0,395.901,0z M497.427,395.901
	c0,55.981-45.544,101.526-101.526,101.526H116.099c-55.981,0-101.526-45.545-101.526-101.526V116.099
	c0-55.981,45.544-101.526,101.526-101.526h279.803c55.982,0,101.526,45.544,101.526,101.526v279.802H497.427z"/>
<path d="M434.608,318.707h-20.751v-31.132c0-14.556-11.841-26.398-26.397-26.398s-26.397,11.842-26.397,26.398v31.132h-20.751
	c-4.024,0-7.287,3.262-7.287,7.287v50.156c0,33.525,14.093,53.584,25.916,64.509c12.902,11.922,25.942,15.797,26.491,15.956
	c0.663,0.193,1.346,0.288,2.029,0.288c0.683,0,1.366-0.096,2.029-0.288c0.549-0.158,13.588-4.033,26.49-15.956
	c11.823-10.925,25.916-30.985,25.916-64.509v-50.156C441.895,321.969,438.632,318.707,434.608,318.707z M375.636,287.575
	c0-6.52,5.304-11.825,11.824-11.825c6.52,0,11.824,5.305,11.824,11.825v31.132h-23.648V287.575z M427.322,376.149
	c0,47.029-31.298,62.42-39.843,65.745c-8.358-3.314-39.88-18.925-39.88-65.745V333.28h20.751h38.221h20.751L427.322,376.149
	L427.322,376.149z"/>
<path style="fill:#259245;" d="M414.02,303.726H360.9c-4.024,0-7.286-3.262-7.286-7.286c0-4.025,3.262-7.286,7.286-7.286h53.121
	c4.024,0,7.286,3.262,7.286,7.286C421.307,300.464,418.045,303.726,414.02,303.726z"/>
<g>
</g>
<g>
</g>
<g>
</g>
<g>
</g>
<g>
</g>
<g>
</g>
<g>
</g>
<g>
</g>
<g>
</g>
<g>
</g>
<g>
</g>
<g>
</g>
<g>
</g>
<g>
</g>
<g>
</g>
</svg>
