<?xml version="1.0" encoding="iso-8859-1"?>
<!-- Generator: Adobe Illustrator 19.0.0, SVG Export Plug-In . SVG Version: 6.00 Build 0)  -->
<svg version="1.1" id="Layer_1" xmlns="http://www.w3.org/2000/svg" xmlns:xlink="http://www.w3.org/1999/xlink" x="0px" y="0px"
	 viewBox="0 0 512.001 512.001" style="enable-background:new 0 0 512.001 512.001;" xml:space="preserve">
<g>
	<path style="fill:#FFFFFF;" d="M7.286,395.901c0,3.142,0.141,6.251,0.402,9.326h496.623c0.261-3.075,0.402-6.184,0.402-9.326
		v-90.158H7.286V395.901z"/>
	<path style="fill:#FFFFFF;" d="M7.689,106.772c-0.261,3.075-0.402,6.184-0.402,9.326v90.158h497.427v-90.158
		c0-3.142-0.141-6.252-0.402-9.326L7.689,106.772L7.689,106.772z"/>
</g>
<g>
	<path style="fill:#ED1F34;" d="M116.099,504.714h279.803c56.953,0,103.678-43.757,108.41-99.486H7.689
		C12.42,460.956,59.146,504.714,116.099,504.714z"/>
	<rect x="7.286" y="206.26" style="fill:#ED1F34;" width="497.43" height="99.49"/>
	<path style="fill:#ED1F34;" d="M395.901,7.286H116.099c-56.953,0-103.678,43.757-108.41,99.486h496.623
		C499.579,51.044,452.854,7.286,395.901,7.286z"/>
</g>
<path style="fill:#164FCE;" d="M39.157,39.157c-19.691,19.692-31.87,46.895-31.87,76.942v279.803
	c0,30.047,12.179,57.25,31.87,76.942L256,256L39.157,39.157z"/>
<polygon style="fill:#FFFFFF;" points="50.982,228.546 92.06,226.424 106.772,188.013 121.484,226.424 162.561,228.546 
	130.577,254.408 141.252,294.132 106.772,271.703 72.292,294.132 82.967,254.408 "/>
<path d="M46.401,234.212L74.7,257.094l-9.445,35.146c-0.783,2.915,0.312,6.011,2.754,7.786c2.442,1.775,5.725,1.86,8.256,0.214
	l30.507-19.844l30.507,19.844c1.21,0.788,2.592,1.178,3.973,1.178c1.506,0,3.009-0.466,4.283-1.392
	c2.442-1.774,3.537-4.871,2.754-7.786l-9.445-35.146l28.299-22.881c2.348-1.897,3.282-5.046,2.349-7.917s-3.539-4.87-6.554-5.026
	l-36.345-1.878l-13.017-33.986c-1.08-2.819-3.786-4.68-6.805-4.68s-5.725,1.861-6.805,4.68l-13.017,33.986l-36.344,1.878
	c-3.014,0.156-5.621,2.155-6.554,5.026C43.119,229.166,44.054,232.315,46.401,234.212z M92.436,233.701
	c2.878-0.149,5.397-1.98,6.428-4.671l7.908-20.646l7.907,20.646c1.031,2.691,3.551,4.522,6.428,4.671l22.079,1.141l-17.192,13.9
	c-2.241,1.812-3.204,4.774-2.456,7.557l5.738,21.351l-18.533-12.055c-2.416-1.571-5.53-1.571-7.946,0l-18.53,12.055l5.738-21.351
	c0.748-2.783-0.215-5.745-2.456-7.557l-17.191-13.9L92.436,233.701z"/>
<path d="M512,106.772c0-1.074-0.238-2.091-0.656-3.009C505.165,45.525,455.752,0,395.901,0H116.099
	C84.423,0,55.675,12.756,34.707,33.394c-0.243,0.188-0.48,0.387-0.703,0.61s-0.422,0.46-0.61,0.703
	C12.756,55.675,0,84.423,0,116.099v279.803c0,31.676,12.756,60.424,33.395,81.392c0.188,0.243,0.387,0.48,0.61,0.703
	s0.46,0.422,0.703,0.61C55.675,499.244,84.423,512,116.099,512h279.803c59.851,0,109.264-45.525,115.443-103.764
	c0.417-0.917,0.656-1.935,0.656-3.009c0-0.642-0.091-1.261-0.247-1.854c0.158-2.471,0.247-4.962,0.247-7.473V116.099
	c0-2.51-0.089-5.001-0.247-7.473C511.909,108.033,512,107.415,512,106.772z M261.152,250.847l-37.304-37.304h273.578v84.913H223.849
	l37.304-37.304C263.998,258.306,263.998,253.693,261.152,250.847z M209.276,313.029h288.151v82.872c0,0.682-0.012,1.361-0.026,2.04
	H124.364L209.276,313.029z M395.901,14.573c50.324,0,92.207,36.807,100.159,84.913h-57.67c-4.024,0-7.287,3.262-7.287,7.286
	c0,4.025,3.262,7.286,7.287,7.286h59.011c0.013,0.678,0.026,1.358,0.026,2.04v82.872H209.276l-84.912-84.912h280.864
	c4.024,0,7.286-3.262,7.286-7.286c0-4.025-3.262-7.286-7.286-7.286H109.791L49.679,39.374
	c17.816-15.444,41.046-24.801,66.419-24.801H395.901z M14.573,116.099c0-25.374,9.357-48.603,24.801-66.419l62.237,62.237
	c0.005,0.006,0.011,0.01,0.016,0.016l99.474,99.473c0.002,0.002,0.004,0.005,0.006,0.007L245.695,256l-44.587,44.587
	c-0.002,0.002-0.004,0.005-0.006,0.007l-99.474,99.474c-0.005,0.006-0.011,0.01-0.016,0.016l-62.237,62.237
	c-15.444-17.816-24.801-41.046-24.801-66.419V116.099H14.573z M395.901,497.427H116.099c-25.374,0-48.603-9.357-66.419-24.801
	l60.112-60.112H496.06C488.108,460.62,446.226,497.427,395.901,497.427z"/>
<g>
</g>
<g>
</g>
<g>
</g>
<g>
</g>
<g>
</g>
<g>
</g>
<g>
</g>
<g>
</g>
<g>
</g>
<g>
</g>
<g>
</g>
<g>
</g>
<g>
</g>
<g>
</g>
<g>
</g>
</svg>
