<?xml version="1.0" encoding="iso-8859-1"?>
<!-- Generator: Adobe Illustrator 19.0.0, SVG Export Plug-In . SVG Version: 6.00 Build 0)  -->
<svg version="1.1" id="Layer_1" xmlns="http://www.w3.org/2000/svg" xmlns:xlink="http://www.w3.org/1999/xlink" x="0px" y="0px"
	 viewBox="0 0 512 512" style="enable-background:new 0 0 512 512;" xml:space="preserve">
<rect x="7.286" y="173.1" style="fill:#FFFFFF;" width="497.43" height="165.81"/>
<path style="fill:#259245;" d="M7.286,395.901c0,60.095,48.717,108.812,108.812,108.812h279.803
	c60.095,0,108.812-48.717,108.812-108.812v-56.997H7.286V395.901z"/>
<path style="fill:#333333;" d="M395.901,7.286H116.099C56.003,7.286,7.286,56.004,7.286,116.099v56.997h497.427v-56.997
	C504.714,56.004,455.997,7.286,395.901,7.286z"/>
<path style="fill:#ED1F34;" d="M35.69,42.79C18.047,62.131,7.286,87.858,7.286,116.099v279.803
	c0,28.241,10.761,53.968,28.403,73.308L206.257,256L35.69,42.79z"/>
<path d="M395.901,0H116.099C82.488,0,52.173,14.362,30.952,37.265c-0.467,0.4-0.873,0.846-1.214,1.328
	C11.26,59.161,0,86.338,0,116.099v279.803c0,29.76,11.26,56.937,29.738,77.505c0.34,0.482,0.747,0.928,1.214,1.328
	C52.173,497.638,82.488,512,116.099,512h279.803C459.918,512,512,459.918,512,395.901V116.099C512,52.082,459.918,0,395.901,0z
	 M211.947,251.448l-56.853-71.066h342.333v151.236H155.094l56.853-71.066C214.076,257.891,214.076,254.109,211.947,251.448z
	 M395.901,14.573c55.981,0,101.526,45.544,101.526,101.526v49.71H143.435L45.421,43.29c18.292-17.762,43.228-28.717,70.678-28.717
	C116.099,14.573,395.901,14.573,395.901,14.573z M14.573,116.099c0-23.224,7.844-44.648,21.014-61.773L196.926,256L35.587,457.674
	c-13.17-17.125-21.014-38.549-21.014-61.773C14.573,395.901,14.573,116.099,14.573,116.099z M395.901,497.427H116.099
	c-27.45,0-52.386-10.955-70.678-28.717l98.015-122.518h353.991v49.71C497.427,451.883,451.883,497.427,395.901,497.427z"/>
<g>
</g>
<g>
</g>
<g>
</g>
<g>
</g>
<g>
</g>
<g>
</g>
<g>
</g>
<g>
</g>
<g>
</g>
<g>
</g>
<g>
</g>
<g>
</g>
<g>
</g>
<g>
</g>
<g>
</g>
</svg>
