<?xml version="1.0" encoding="iso-8859-1"?>
<!-- Generator: Adobe Illustrator 19.0.0, SVG Export Plug-In . SVG Version: 6.00 Build 0)  -->
<svg version="1.1" id="Layer_1" xmlns="http://www.w3.org/2000/svg" xmlns:xlink="http://www.w3.org/1999/xlink" x="0px" y="0px"
	 viewBox="0 0 512 512" style="enable-background:new 0 0 512 512;" xml:space="preserve">
<path style="fill:#259245;" d="M116.099,7.287C56.003,7.287,7.286,56.003,7.286,116.099v279.803
	c0,60.095,48.717,108.812,108.812,108.812h80.118V7.287H116.099z"/>
<path style="fill:#ED1F34;" d="M395.901,7.287H196.217v497.427h199.684c60.095,0,108.812-48.717,108.812-108.812V116.099
	C504.713,56.003,455.997,7.287,395.901,7.287z"/>
<path d="M395.901,0H116.099C52.082,0,0,52.082,0,116.099v279.803C0,459.918,52.082,512,116.099,512h279.803
	C459.918,512,512,459.918,512,395.901V116.099C512,52.082,459.918,0,395.901,0z M497.427,395.901
	c0,55.982-45.544,101.526-101.526,101.526H203.504v-42.456c0-4.024-3.262-7.286-7.286-7.286s-7.287,3.262-7.287,7.286v42.456
	h-72.832c-55.981,0-101.526-45.544-101.526-101.526V116.099c0-55.981,45.544-101.526,101.526-101.526h72.832v390.655
	c0,4.024,3.262,7.286,7.287,7.286s7.286-3.262,7.286-7.286V14.573h192.397c55.982,0,101.526,45.544,101.526,101.526V395.901z"/>
<circle style="fill:#FFE000;" cx="196.22" cy="256" r="66.32"/>
<path d="M196.217,329.61c-40.589,0-73.61-33.021-73.61-73.61s33.021-73.61,73.61-73.61s73.61,33.021,73.61,73.61
	S236.806,329.61,196.217,329.61z M196.217,196.963c-32.553,0-59.037,26.484-59.037,59.037s26.484,59.037,59.037,59.037
	s59.037-26.484,59.037-59.037S228.77,196.963,196.217,196.963z"/>
<g>
</g>
<g>
</g>
<g>
</g>
<g>
</g>
<g>
</g>
<g>
</g>
<g>
</g>
<g>
</g>
<g>
</g>
<g>
</g>
<g>
</g>
<g>
</g>
<g>
</g>
<g>
</g>
<g>
</g>
</svg>
