<?xml version="1.0" encoding="iso-8859-1"?>
<!-- Generator: Adobe Illustrator 19.0.0, SVG Export Plug-In . SVG Version: 6.00 Build 0)  -->
<svg version="1.1" id="Layer_1" xmlns="http://www.w3.org/2000/svg" xmlns:xlink="http://www.w3.org/1999/xlink" x="0px" y="0px"
	 viewBox="0 0 512 512" style="enable-background:new 0 0 512 512;" xml:space="preserve">
<path style="fill:#3DB4EA;" d="M395.901,7.286H116.099C56.003,7.286,7.286,56.004,7.286,116.099v279.803
	c0,60.095,48.717,108.812,108.812,108.812h279.803c60.095,0,108.812-48.717,108.812-108.812V116.099
	C504.713,56.004,455.997,7.286,395.901,7.286z"/>
<path d="M395.901,512H116.099C52.082,512,0,459.918,0,395.901V116.099C0,52.082,52.082,0,116.099,0h279.803
	C459.918,0,512,52.082,512,116.099v279.803C512,459.918,459.918,512,395.901,512z M116.099,14.573
	c-55.981,0-101.526,45.544-101.526,101.526v279.803c0,55.982,45.544,101.526,101.526,101.526h279.803
	c55.982,0,101.526-45.544,101.526-101.526V116.099c0-55.982-45.544-101.526-101.526-101.526
	C395.902,14.573,116.099,14.573,116.099,14.573z"/>
<circle style="fill:#FFE000;" cx="219.97" cy="256" r="82.904"/>
<path d="M203.398,344.531c-0.481,0-0.968-0.048-1.457-0.147c-41.813-8.488-72.16-45.658-72.16-88.384
	c0-49.732,40.459-90.191,90.191-90.191s90.191,40.46,90.191,90.191c0,42.725-30.348,79.896-72.16,88.384
	c-3.94,0.799-7.79-1.748-8.591-5.691c-0.801-3.944,1.748-7.79,5.691-8.591c35.048-7.115,60.487-38.279,60.487-74.102
	c0-41.696-33.922-75.618-75.618-75.618S144.354,214.304,144.354,256c0,35.823,25.438,66.987,60.487,74.102
	c3.944,0.801,6.492,4.647,5.691,8.591C209.83,342.147,206.792,344.531,203.398,344.531z"/>
<g>
</g>
<g>
</g>
<g>
</g>
<g>
</g>
<g>
</g>
<g>
</g>
<g>
</g>
<g>
</g>
<g>
</g>
<g>
</g>
<g>
</g>
<g>
</g>
<g>
</g>
<g>
</g>
<g>
</g>
</svg>
