<?xml version="1.0" encoding="iso-8859-1"?>
<!-- Generator: Adobe Illustrator 19.0.0, SVG Export Plug-In . SVG Version: 6.00 Build 0)  -->
<svg version="1.1" id="Layer_1" xmlns="http://www.w3.org/2000/svg" xmlns:xlink="http://www.w3.org/1999/xlink" x="0px" y="0px"
	 viewBox="0 0 512.001 512.001" style="enable-background:new 0 0 512.001 512.001;" xml:space="preserve">
<path style="fill:#A10D50;" d="M395.902,7.287H116.098C56.004,7.287,7.286,56.004,7.286,116.099v279.803
	c0,60.095,48.717,108.812,108.812,108.812h279.803c60.095,0,108.812-48.717,108.812-108.812V116.099
	C504.714,56.004,455.997,7.287,395.902,7.287z"/>
<path style="fill:#FFFFFF;" d="M133.301,421.809l79.588-41.435l-79.588-41.452l79.588-41.452l-79.588-41.436l79.588-41.469
	l-79.588-41.452l79.588-41.452l-79.588-41.452l79.588-41.452l-79.588-41.47h-17.203C56.004,7.287,7.286,56.004,7.286,116.099
	v279.803c0,60.095,48.717,108.812,108.812,108.812h17.203l79.588-41.452L133.301,421.809z"/>
<path d="M395.902,0H133.203c-0.011,0-0.022,0-0.034,0h-17.071C52.082,0,0.001,52.082,0.001,116.099v279.803
	C0.001,459.918,52.082,512,116.098,512h17.188c0.007,0,0.014,0.001,0.021,0.001c0.008,0,0.016-0.001,0.024-0.001h262.57
	C459.919,512,512,459.918,512,395.901V116.099C512,52.082,459.919,0,395.902,0z M14.574,395.901V116.099
	c0-55.981,45.544-101.526,101.526-101.526h15.419l65.601,34.174l-67.184,35c-2.409,1.255-3.92,3.746-3.92,6.462
	c0,2.717,1.511,5.208,3.92,6.462l67.181,34.993l-67.181,34.991c-2.409,1.255-3.92,3.746-3.92,6.462s1.511,5.207,3.92,6.463
	l67.181,34.992l-67.181,34.991c-2.409,1.255-3.92,3.746-3.92,6.463s1.511,5.208,3.921,6.462l67.179,34.986l-67.179,34.985
	c-2.409,1.255-3.921,3.746-3.921,6.462c0,2.717,1.511,5.208,3.921,6.463l67.178,34.981l-67.178,34.987
	c-2.409,1.255-3.921,3.746-3.921,6.462s1.511,5.208,3.921,6.462l67.179,34.987l-65.597,34.162H116.1
	C60.118,497.427,14.574,451.883,14.574,395.901z M497.428,395.901c0,55.982-45.544,101.526-101.526,101.526H163.067l53.188-27.7
	c2.409-1.255,3.921-3.746,3.921-6.462s-1.511-5.208-3.921-6.462l-67.179-34.987l67.179-34.988c2.409-1.255,3.921-3.746,3.921-6.462
	c0-2.717-1.511-5.208-3.921-6.463l-67.177-34.981l67.178-34.984c2.409-1.255,3.921-3.746,3.921-6.462s-1.511-5.208-3.921-6.462
	l-67.18-34.986l67.18-34.99c2.409-1.255,3.92-3.746,3.92-6.463c0-2.716-1.511-5.207-3.92-6.462l-67.181-34.992l67.181-34.991
	c2.409-1.255,3.92-3.746,3.92-6.463c0-2.716-1.511-5.207-3.92-6.462l-67.183-34.993l67.183-34.999
	c2.409-1.255,3.92-3.746,3.92-6.462s-1.511-5.207-3.92-6.462l-53.197-27.716h232.842c55.982,0,101.526,45.544,101.526,101.526
	L497.428,395.901L497.428,395.901z"/>
<g>
</g>
<g>
</g>
<g>
</g>
<g>
</g>
<g>
</g>
<g>
</g>
<g>
</g>
<g>
</g>
<g>
</g>
<g>
</g>
<g>
</g>
<g>
</g>
<g>
</g>
<g>
</g>
<g>
</g>
</svg>
