<?xml version="1.0" encoding="iso-8859-1"?>
<!-- Generator: Adobe Illustrator 19.0.0, SVG Export Plug-In . SVG Version: 6.00 Build 0)  -->
<svg version="1.1" id="Layer_1" xmlns="http://www.w3.org/2000/svg" xmlns:xlink="http://www.w3.org/1999/xlink" x="0px" y="0px"
	 viewBox="0 0 512 512" style="enable-background:new 0 0 512 512;" xml:space="preserve">
<rect x="7.286" y="173.1" style="fill:#103B9B;" width="497.43" height="165.81"/>
<path style="fill:#ED1F34;" d="M504.714,116.089C504.708,55.998,455.994,7.286,395.901,7.286H116.099
	C56.003,7.286,7.287,56.003,7.287,116.099v56.997h497.427V116.089z"/>
<path style="fill:#FFFFFF;" d="M7.287,338.904v56.997c0,60.095,48.717,108.812,108.812,108.812h279.803
	c60.092,0,108.807-48.712,108.812-108.803v-57.006H7.287z"/>
<g>
	<path style="fill:#FFE000;" d="M123.252,127.768c-1.181,0-2.38-0.288-3.489-0.895c-3.531-1.931-4.828-6.358-2.897-9.889
		c16.285-29.785,47.461-48.287,81.36-48.287s65.075,18.502,81.361,48.286c1.931,3.531,0.634,7.958-2.897,9.889
		c-3.53,1.93-7.959,0.633-9.888-2.897c-13.729-25.108-40.005-40.705-68.575-40.705s-54.846,15.597-68.574,40.705
		C128.328,126.397,125.83,127.768,123.252,127.768z"/>
	<path style="fill:#FFE000;" d="M198.221,120.734C198.22,120.734,198.22,120.734,198.221,120.734c-4.025,0-7.287-3.263-7.286-7.287
		l0.005-54.606c0.001-4.024,3.263-7.286,7.286-7.286h0.001c4.025,0,7.286,3.263,7.286,7.287l-0.005,54.606
		C205.507,117.473,202.244,120.734,198.221,120.734z"/>
</g>
<g>
	<path style="fill:#FFFFFF;" d="M152.804,254.802c-12.001,0-21.731,9.729-21.731,21.731v70.97l43.462-23.679v-47.291
		C174.535,264.531,164.806,254.802,152.804,254.802z"/>
	<path style="fill:#FFFFFF;" d="M243.648,254.802c12.001,0,21.731,9.729,21.731,21.731v70.97l-43.462-23.679v-47.291
		C221.917,264.531,231.646,254.802,243.648,254.802z"/>
</g>
<path d="M395.901,0H116.099C52.082,0,0,52.082,0,116.099v279.803C0,459.918,52.082,512,116.099,512h279.803
	C459.918,512,512,459.918,512,395.901V116.099C512,52.082,459.918,0,395.901,0z M116.099,14.573h279.803
	c55.981,0,101.526,45.544,101.526,101.526v49.71H438.39c-4.025,0-7.286,3.262-7.286,7.287c0,4.024,3.262,7.286,7.286,7.286h59.037
	v151.236H14.573V180.382h390.655c4.025,0,7.286-3.262,7.286-7.286s-3.262-7.287-7.286-7.287H14.573v-49.71
	C14.573,60.117,60.117,14.573,116.099,14.573z M395.901,497.427H116.099c-55.982,0-101.526-45.544-101.526-101.526v-49.71h482.854
	v49.71C497.427,451.883,451.882,497.427,395.901,497.427z"/>
<g>
	<path style="fill:#ED1F34;" d="M76.211,170.667v167.945c0,66.452,53.87,120.322,120.322,120.322
		c66.453,0,120.322-53.87,120.322-120.322V170.667H76.211z"/>
	<path style="fill:#ED1F34;" d="M172.148,277.134v48.677c0,0,8.257,13.103,24.385,13.103s24.385-13.103,24.385-13.103v-48.677
		H172.148z"/>
</g>
<path d="M243.286,247.267c-13.879,0-25.577,9.517-28.913,22.367h-7.283l14.036-40.265h8.739c4.142,0,7.5-3.358,7.5-7.5
	s-3.358-7.5-7.5-7.5h-14.067c-3.19,0-6.032,2.019-7.082,5.031l-12.183,34.949L184.35,219.4c-1.05-3.013-3.892-5.031-7.082-5.031
	h-14.066c-4.142,0-7.5,3.358-7.5,7.5s3.358,7.5,7.5,7.5h8.738l14.036,40.265h-7.282c-3.336-12.85-15.033-22.367-28.913-22.367
	c-16.469,0-29.867,13.398-29.867,29.867v73.049c0,2.647,1.395,5.097,3.67,6.448c1.179,0.7,2.504,1.052,3.83,1.052
	c1.233,0,2.469-0.304,3.588-0.914l39.382-21.456c3.828,3.808,10.049,8.49,18.649,10.315v62.106c0,4.142,3.358,7.5,7.5,7.5
	s7.5-3.358,7.5-7.5v-62.106c8.6-1.825,14.822-6.508,18.65-10.315l39.382,21.456c1.119,0.61,2.354,0.914,3.588,0.914
	c1.326,0,2.651-0.352,3.83-1.052c2.275-1.352,3.67-3.802,3.67-6.448v-73.049C273.153,260.665,259.755,247.267,243.286,247.267z
	 M134.914,277.134c0-8.198,6.669-14.867,14.867-14.867s14.868,6.669,14.868,14.867v44.222l-29.735,16.2V277.134z M196.533,331.414
	c-8.869,0-14.58-5.397-16.885-8.103v-38.677h33.77v38.671C211.088,326.04,205.383,331.414,196.533,331.414z M258.153,337.557
	l-29.735-16.2v-44.222c0-8.198,6.669-14.867,14.867-14.867s14.868,6.669,14.868,14.867V337.557z"/>
<polygon style="fill:#FFE000;" points="241.103,136.192 196.528,109.271 151.958,136.192 107.387,109.271 124.454,170.667 
	268.612,170.667 285.679,109.271 "/>
<path d="M316.855,163.167h-38.374l14.423-51.886c0.823-2.961-0.243-6.124-2.69-7.982c-2.448-1.858-5.781-2.035-8.412-0.446
	l-40.698,24.579l-40.698-24.579c-2.385-1.44-5.371-1.439-7.755,0l-40.692,24.579l-40.693-24.579
	c-2.631-1.589-5.964-1.412-8.412,0.446c-2.448,1.858-3.515,5.021-2.691,7.982l14.423,51.886H76.211c-4.142,0-7.5,3.358-7.5,7.5
	v167.945c0,70.482,57.341,127.822,127.822,127.822s127.822-57.341,127.822-127.822V170.667
	C324.355,166.524,320.998,163.167,316.855,163.167z M119.67,125.452l28.411,17.16c2.384,1.44,5.371,1.44,7.755,0l40.692-24.579
	l40.698,24.579c2.385,1.441,5.371,1.44,7.755,0l28.416-17.161l-10.483,37.716h-132.76L119.67,125.452z M309.355,338.612
	c0,62.211-50.612,112.822-112.822,112.822S83.711,400.822,83.711,338.612V178.167h40.743h144.158h40.743L309.355,338.612
	L309.355,338.612z"/>
<g>
</g>
<g>
</g>
<g>
</g>
<g>
</g>
<g>
</g>
<g>
</g>
<g>
</g>
<g>
</g>
<g>
</g>
<g>
</g>
<g>
</g>
<g>
</g>
<g>
</g>
<g>
</g>
<g>
</g>
</svg>
