<?xml version="1.0" encoding="iso-8859-1"?>
<!-- Generator: Adobe Illustrator 19.0.0, SVG Export Plug-In . SVG Version: 6.00 Build 0)  -->
<svg version="1.1" id="Layer_1" xmlns="http://www.w3.org/2000/svg" xmlns:xlink="http://www.w3.org/1999/xlink" x="0px" y="0px"
	 viewBox="0 0 512 512" style="enable-background:new 0 0 512 512;" xml:space="preserve">
<rect x="7.286" y="256" style="fill:#FFE000;" width="497.43" height="124.36"/>
<path style="fill:#134923;" d="M7.286,395.901c0,60.095,48.717,108.812,108.812,108.812h279.803
	c60.095,0,108.812-48.717,108.812-108.812v-15.545H7.286V395.901z"/>
<path style="fill:#3DB4EA;" d="M395.901,7.286H116.099C56.003,7.286,7.286,56.004,7.286,116.099V256h497.427V116.099
	C504.714,56.004,455.997,7.286,395.901,7.286z"/>
<path d="M395.901,0H116.099C52.082,0,0,52.082,0,116.099v279.803C0,459.918,52.082,512,116.099,512h279.803
	C459.918,512,512,459.918,512,395.901V116.099C512,52.082,459.918,0,395.901,0z M116.099,14.573h279.803
	c55.981,0,101.526,45.544,101.526,101.526v132.615H73.61c-4.025,0-7.287,3.262-7.287,7.286c0,4.025,3.262,7.286,7.287,7.286h423.817
	V373.07H14.573V263.286h25.876c4.025,0,7.286-3.262,7.286-7.286c0-4.025-3.262-7.286-7.286-7.286H14.573V116.099
	C14.573,60.118,60.118,14.573,116.099,14.573z M395.901,497.427H116.099c-55.981,0-101.526-45.545-101.526-101.526v-8.258h482.854
	v8.258C497.427,451.882,451.882,497.427,395.901,497.427z"/>
<path style="fill:#FFE610;" d="M462.709,117.232H437.19l18.045-18.045c2.845-2.846,2.845-7.459,0-10.305
	c-2.846-2.844-7.459-2.844-10.306,0l-18.044,18.045V81.408c0-4.025-3.262-7.287-7.287-7.287s-7.286,3.262-7.286,7.287v25.519
	l-18.044-18.045c-2.845-2.843-7.458-2.845-10.306,0c-2.845,2.846-2.845,7.459,0,10.305l18.044,18.045h-25.518
	c-4.025,0-7.287,3.262-7.287,7.287c0,4.025,3.262,7.286,7.287,7.286h25.518l-18.044,18.044c-2.845,2.846-2.845,7.459,0,10.305
	c1.423,1.422,3.288,2.134,5.153,2.134c1.864,0,3.73-0.712,5.153-2.134l18.044-18.044v25.518c0,4.025,3.262,7.287,7.286,7.287
	c4.025,0,7.287-3.262,7.287-7.287V142.11l18.044,18.044c1.423,1.422,3.288,2.134,5.153,2.134c1.864,0,3.73-0.712,5.153-2.134
	c2.845-2.846,2.845-7.459,0-10.305l-18.044-18.044h25.519c4.025,0,7.287-3.262,7.287-7.286
	C469.995,120.494,466.733,117.232,462.709,117.232z"/>
<g>
</g>
<g>
</g>
<g>
</g>
<g>
</g>
<g>
</g>
<g>
</g>
<g>
</g>
<g>
</g>
<g>
</g>
<g>
</g>
<g>
</g>
<g>
</g>
<g>
</g>
<g>
</g>
<g>
</g>
</svg>
