<?xml version="1.0" encoding="iso-8859-1"?>
<!-- Generator: Adobe Illustrator 19.0.0, SVG Export Plug-In . SVG Version: 6.00 Build 0)  -->
<svg version="1.1" id="Layer_1" xmlns="http://www.w3.org/2000/svg" xmlns:xlink="http://www.w3.org/1999/xlink" x="0px" y="0px"
	 viewBox="0 0 512 512" style="enable-background:new 0 0 512 512;" xml:space="preserve">
<path style="fill:#259245;" d="M395.901,7.286H116.099C56.003,7.286,7.286,56.004,7.286,116.099v279.803
	c0,60.095,48.717,108.812,108.812,108.812h279.803c60.095,0,108.812-48.717,108.812-108.812V116.099
	C504.714,56.004,455.997,7.286,395.901,7.286z"/>
<path d="M395.901,512H116.099C52.082,512,0,459.918,0,395.901V116.099C0,52.082,52.082,0,116.099,0h279.803
	C459.918,0,512,52.082,512,116.099v279.803C512,459.918,459.918,512,395.901,512z M116.099,14.573
	c-55.982,0-101.526,45.544-101.526,101.526v279.803c0,55.982,45.544,101.526,101.526,101.526h279.803
	c55.981,0,101.526-45.544,101.526-101.526V116.099c0-55.982-45.544-101.526-101.526-101.526
	C395.902,14.573,116.099,14.573,116.099,14.573z"/>
<g>
	<path style="fill:#FFFFFF;" d="M340.87,314.772h-16.487v-9.231c0-4.024-3.262-7.287-7.286-7.287s-7.287,3.262-7.287,7.287v9.231
		H171.142c-4.024,0-7.287,3.262-7.287,7.286s3.262,7.287,7.287,7.287H309.81v9.232c0,4.024,3.262,7.286,7.287,7.286
		s7.286-3.262,7.286-7.286v-9.232h9.2v1.642c0,4.024,3.262,7.286,7.286,7.286s7.286-3.262,7.286-7.286v-8.929
		C348.156,318.035,344.894,314.772,340.87,314.772z"/>
	<path style="fill:#FFFFFF;" d="M208.074,208.227c4.024,0,7.286-3.262,7.286-7.286v-30.982c0-4.024-3.262-7.287-7.286-7.287
		s-7.286,3.262-7.286,7.287v30.982C200.788,204.965,204.05,208.227,208.074,208.227z"/>
	<path style="fill:#FFFFFF;" d="M188.384,233.36h19.69c4.024,0,7.286-3.262,7.286-7.287s-3.262-7.286-7.286-7.286h-19.232v-48.829
		c0-4.024-3.262-7.287-7.286-7.287s-7.286,3.262-7.286,7.287v58.185c0,8.699-7.077,15.776-15.776,15.776
		c-0.325,0-0.648,0.022-0.968,0.064c-3.861-0.257-7.449-1.899-10.184-4.682c-2.821-2.87-7.434-2.91-10.304-0.09
		c-2.87,2.821-2.91,7.434-0.09,10.304c5.682,5.782,13.276,9.005,21.382,9.074c0.021,0.001,0.042,0.001,0.063,0.001
		c0.453,0,0.901-0.042,1.339-0.124C174.132,257.885,185.971,247.22,188.384,233.36z"/>
	<path style="fill:#FFFFFF;" d="M369.855,162.672c-4.024,0-7.286,3.262-7.286,7.287v58.185c0,8.699-7.077,15.776-15.776,15.776
		c-1.92,0-3.763,0.758-5.128,2.109l-0.1,0.099c-2.859,2.832-2.881,7.445-0.049,10.304c1.425,1.439,3.301,2.159,5.177,2.159
		c0.45,0,0.9-0.041,1.344-0.124c16.16-0.655,29.105-14.006,29.105-30.324v-58.185C377.142,165.934,373.879,162.672,369.855,162.672z
		"/>
	<path style="fill:#FFFFFF;" d="M234.592,197.557c5.349,0,10.499-1.867,14.77-5.209c4.271,3.342,9.418,5.209,14.762,5.209
		c5.343,0,10.493-1.868,14.766-5.212c4.271,3.344,9.421,5.212,14.766,5.212c4.024,0,7.286-3.262,7.286-7.286
		s-3.262-7.287-7.286-7.287c-3.336,0-6.48-1.924-8.624-5.279c-1.339-2.094-3.652-3.361-6.137-3.362c-0.001,0-0.001,0-0.002,0
		c-2.484,0-4.797,1.266-6.137,3.358c-2.15,3.358-5.296,5.283-8.632,5.283s-6.48-1.924-8.624-5.279
		c-1.339-2.094-3.654-3.362-6.14-3.362c-0.001,0-0.001,0-0.002,0c-2.487,0.001-4.802,1.27-6.139,3.366
		c-2.14,3.352-5.284,5.275-8.627,5.275c-4.024,0-7.286,3.262-7.286,7.287S230.568,197.557,234.592,197.557z"/>
	<path style="fill:#FFFFFF;" d="M320.175,258.592c4.024,0,7.286-3.262,7.286-7.287v-77.73c0-4.024-3.262-7.286-7.286-7.286
		s-7.287,3.262-7.287,7.286v77.73C312.888,255.329,316.15,258.592,320.175,258.592z"/>
	<path style="fill:#FFFFFF;" d="M293.656,224.076c4.024,0,7.286-3.262,7.286-7.286s-3.262-7.287-7.286-7.287h-39.777
		c-4.024,0-7.287,3.262-7.287,7.287v11.354c0,8.699-7.077,15.776-15.776,15.776c-0.394,0-0.785,0.032-1.169,0.094l-21.541-0.094
		c-0.011,0-0.021,0-0.032,0c-4.01,0-7.269,3.241-7.286,7.255c-0.018,4.024,3.23,7.301,7.255,7.318l22.642,0.099
		c0.011,0,0.021,0,0.032,0c0.453,0,0.9-0.042,1.339-0.124c8.722-0.352,16.503-4.407,21.823-10.626
		c5.319,6.219,13.098,10.273,21.818,10.626c0.444,0.083,0.894,0.124,1.344,0.124c1.876,0,3.752-0.72,5.177-2.159
		c2.832-2.859,2.81-7.472-0.049-10.304l-0.1-0.099c-1.364-1.352-3.207-2.109-5.128-2.109c-8.699,0-15.776-7.077-15.776-15.776
		v-4.067h32.491V224.076z"/>
	<path style="fill:#FFFFFF;" d="M344.282,197.557c4.024,0,7.286-3.262,7.286-7.286v-16.696c0-4.024-3.262-7.286-7.286-7.286
		s-7.287,3.262-7.287,7.286v16.696C336.996,194.295,340.258,197.557,344.282,197.557z"/>
	<path style="fill:#FFFFFF;" d="M155.037,224.076c4.024,0,7.287-3.262,7.287-7.286v-46.831c0-4.024-3.262-7.287-7.287-7.287
		s-7.286,3.262-7.286,7.287v46.831C147.751,220.814,151.013,224.076,155.037,224.076z"/>
</g>
<g>
</g>
<g>
</g>
<g>
</g>
<g>
</g>
<g>
</g>
<g>
</g>
<g>
</g>
<g>
</g>
<g>
</g>
<g>
</g>
<g>
</g>
<g>
</g>
<g>
</g>
<g>
</g>
<g>
</g>
</svg>
