<?xml version="1.0" encoding="iso-8859-1"?>
<!-- Generator: Adobe Illustrator 19.0.0, SVG Export Plug-In . SVG Version: 6.00 Build 0)  -->
<svg version="1.1" id="Layer_1" xmlns="http://www.w3.org/2000/svg" xmlns:xlink="http://www.w3.org/1999/xlink" x="0px" y="0px"
	 viewBox="0 0 512 512" style="enable-background:new 0 0 512 512;" xml:space="preserve">
<path style="fill:#164FCE;" d="M395.901,7.286H116.099C56.003,7.286,7.286,56.004,7.286,116.099v279.803
	c0,30.047,12.179,57.25,31.871,76.942L472.843,39.157C453.152,19.466,425.949,7.286,395.901,7.286z"/>
<path style="fill:#259245;" d="M472.843,39.157L39.157,472.843c19.691,19.691,46.894,31.871,76.942,31.871h279.803
	c60.095,0,108.812-48.717,108.812-108.812V116.099C504.714,86.051,492.534,58.848,472.843,39.157z"/>
<path style="fill:#FFE000;" d="M456.438,25.671L25.671,456.438c7.918,11.805,18.086,21.973,29.891,29.891L486.328,55.562
	C478.41,43.758,468.242,33.59,456.438,25.671z"/>
<g>
	<circle style="fill:#FFFFFF;" cx="89.72" cy="93.81" r="16.58"/>
	<circle style="fill:#FFFFFF;" cx="128.41" cy="130.29" r="16.58"/>
	<circle style="fill:#FFFFFF;" cx="167.1" cy="93.81" r="16.58"/>
	<circle style="fill:#FFFFFF;" cx="89.72" cy="166.76" r="16.58"/>
	<circle style="fill:#FFFFFF;" cx="167.1" cy="166.76" r="16.58"/>
</g>
<path d="M492.818,52.254c-0.25-0.492-0.562-0.959-0.932-1.395c-8.231-12.071-18.675-22.515-30.746-30.746
	c-0.435-0.369-0.902-0.68-1.392-0.93C441.418,7.067,419.471,0,395.901,0H116.099C52.082,0,0,52.082,0,116.099v279.803
	c0,23.568,7.066,45.514,19.181,63.844c0.251,0.493,0.564,0.961,0.934,1.398c8.23,12.069,18.673,22.512,30.742,30.742
	c0.437,0.37,0.905,0.682,1.397,0.933C70.584,504.934,92.53,512,116.099,512h279.803C459.918,512,512,459.918,512,395.901V116.099
	C512,92.53,504.934,70.584,492.818,52.254z M14.573,116.099c0-55.982,45.544-101.526,101.526-101.526h279.803
	c17.679,0,34.314,4.546,48.805,12.525L27.098,444.707c-7.978-14.491-12.525-31.127-12.525-48.805V116.099z M497.427,395.901
	c0,55.982-45.545,101.526-101.526,101.526H116.099c-17.679,0-34.314-4.546-48.805-12.524L436.27,115.926
	c2.845-2.845,2.845-7.459,0-10.305c-2.847-2.846-7.46-2.845-10.306,0L54.806,476.781c-7.383-5.609-13.977-12.203-19.586-19.586
	L457.194,35.22c7.383,5.609,13.977,12.203,19.586,19.586L453.556,78.03c-2.845,2.845-2.845,7.459,0,10.304
	c1.423,1.423,3.288,2.134,5.153,2.134c1.864,0,3.73-0.712,5.153-2.134l21.041-21.041c7.978,14.491,12.525,31.126,12.525,48.805
	v279.803H497.427z"/>
<g>
</g>
<g>
</g>
<g>
</g>
<g>
</g>
<g>
</g>
<g>
</g>
<g>
</g>
<g>
</g>
<g>
</g>
<g>
</g>
<g>
</g>
<g>
</g>
<g>
</g>
<g>
</g>
<g>
</g>
</svg>
