<?xml version="1.0" encoding="iso-8859-1"?>
<!-- Generator: Adobe Illustrator 19.0.0, SVG Export Plug-In . SVG Version: 6.00 Build 0)  -->
<svg version="1.1" id="Layer_1" xmlns="http://www.w3.org/2000/svg" xmlns:xlink="http://www.w3.org/1999/xlink" x="0px" y="0px"
	 viewBox="0 0 512 512" style="enable-background:new 0 0 512 512;" xml:space="preserve">
<path style="fill:#FFFFFF;" d="M57.89,487.845l446.823-148.941V173.096L45.859,478.999C49.655,482.211,53.673,485.171,57.89,487.845
	z"/>
<path style="fill:#FFE000;" d="M173.836,7.287L24.204,454.189c2.653,4.174,5.585,8.153,8.766,11.915L338.164,7.287H173.836z"/>
<path style="fill:#259245;" d="M116.099,504.713h279.803c60.095,0,108.812-48.717,108.812-108.812v-56.997L57.89,487.845
	C74.724,498.526,94.688,504.713,116.099,504.713z"/>
<path style="fill:#ED1F34;" d="M395.901,7.287h-57.737L32.969,466.103c3.93,4.649,8.242,8.963,12.889,12.896l458.855-305.903
	v-56.997C504.713,56.004,455.996,7.287,395.901,7.287z"/>
<path style="fill:#103B9B;" d="M116.099,7.287C56.003,7.287,7.286,56.004,7.286,116.099v279.803
	c0,21.444,6.207,41.437,16.917,58.288L173.836,7.287H116.099z"/>
<path d="M512,338.764v-165.62c0,0,0-0.015,0-0.023v-57.023C512,52.082,459.918,0,395.901,0h-57.769c-0.006,0-0.012,0-0.018,0
	H116.099C52.082,0,0,52.082,0,116.099v279.803c0,22.557,6.473,43.627,17.649,61.464c0.236,0.488,0.528,0.948,0.868,1.373
	c6.113,9.46,13.563,17.977,22.081,25.285c0.377,0.396,0.786,0.746,1.229,1.04C61.971,501.871,87.873,512,116.099,512h279.803
	C459.918,512,512,459.918,512,395.901V338.8C512,338.788,512,338.776,512,338.764z M497.427,333.64L59.885,478.405l437.542-291.694
	V333.64z M497.427,116.099v53.098L46.544,469.785c-1.499-1.413-2.955-2.869-4.366-4.369L342.073,14.573h53.828
	C451.882,14.573,497.427,60.118,497.427,116.099z M14.573,116.099c0-55.981,45.545-101.526,101.526-101.526h47.61l-16.314,48.726
	c-1.277,3.816,0.781,7.945,4.597,9.223c0.768,0.256,1.547,0.379,2.314,0.379c3.046,0,5.888-1.926,6.909-4.975l17.863-53.352h145.491
	L32.573,453.544c-0.105-0.152-0.212-0.304-0.317-0.456l114.075-340.711c1.277-3.816-0.781-7.945-4.597-9.223
	c-3.815-1.276-7.945,0.779-9.223,4.597L22.706,435.707c-5.232-12.23-8.133-25.684-8.133-39.805
	C14.573,395.902,14.573,116.099,14.573,116.099z M395.901,497.427H116.099c-14.607,0-28.501-3.106-41.064-8.685L497.427,348.99
	v46.912C497.427,451.882,451.882,497.427,395.901,497.427z"/>
<g>
</g>
<g>
</g>
<g>
</g>
<g>
</g>
<g>
</g>
<g>
</g>
<g>
</g>
<g>
</g>
<g>
</g>
<g>
</g>
<g>
</g>
<g>
</g>
<g>
</g>
<g>
</g>
<g>
</g>
</svg>
