<?xml version="1.0" encoding="iso-8859-1"?>
<!-- Generator: Adobe Illustrator 19.0.0, SVG Export Plug-In . SVG Version: 6.00 Build 0)  -->
<svg version="1.1" id="Layer_1" xmlns="http://www.w3.org/2000/svg" xmlns:xlink="http://www.w3.org/1999/xlink" x="0px" y="0px"
	 viewBox="0 0 512 512" style="enable-background:new 0 0 512 512;" xml:space="preserve">
<path style="fill:#164FCE;" d="M395.901,7.286H116.099C56.003,7.286,7.286,56.003,7.286,116.099v279.803
	c0,60.095,48.717,108.812,108.812,108.812h279.803c60.095,0,108.812-48.717,108.812-108.812V116.099
	C504.714,56.003,455.997,7.286,395.901,7.286z"/>
<polygon style="fill:#FFE000;" points="504.714,231.958 219.403,231.958 219.403,7.286 171.319,7.286 171.319,231.958 
	7.286,231.958 7.286,280.042 171.319,280.042 171.319,504.714 219.403,504.714 219.403,280.042 504.714,280.042 "/>
<path d="M395.901,0H116.099C52.082,0,0,52.082,0,116.099v279.803C0,459.918,52.082,512,116.099,512h279.803
	C459.918,512,512,459.918,512,395.901V116.099C512,52.082,459.918,0,395.901,0z M497.427,116.099v108.573H226.69V14.573h169.212
	C451.882,14.573,497.427,60.117,497.427,116.099z M116.099,14.573h47.934v210.098H14.573V116.099
	C14.573,60.117,60.118,14.573,116.099,14.573z M14.573,395.901V287.329h149.459v210.098h-47.934
	C60.118,497.427,14.573,451.883,14.573,395.901z M395.901,497.427H226.69V287.329h178.538c4.025,0,7.286-3.262,7.286-7.286
	s-3.262-7.286-7.286-7.286H219.403c-4.025,0-7.286,3.262-7.286,7.286v217.385h-33.511V280.042c0-4.024-3.262-7.286-7.286-7.286
	H14.573v-33.511h156.746c4.025,0,7.286-3.262,7.286-7.286V14.573h33.511v217.385c0,4.024,3.262,7.286,7.286,7.286h278.024v33.511
	H438.39c-4.025,0-7.286,3.262-7.286,7.286s3.262,7.286,7.286,7.286h59.037V395.9C497.427,451.883,451.882,497.427,395.901,497.427z"
	/>
<g>
</g>
<g>
</g>
<g>
</g>
<g>
</g>
<g>
</g>
<g>
</g>
<g>
</g>
<g>
</g>
<g>
</g>
<g>
</g>
<g>
</g>
<g>
</g>
<g>
</g>
<g>
</g>
<g>
</g>
</svg>
