<?xml version="1.0" encoding="iso-8859-1"?>
<!-- Generator: Adobe Illustrator 19.0.0, SVG Export Plug-In . SVG Version: 6.00 Build 0)  -->
<svg version="1.1" id="Layer_1" xmlns="http://www.w3.org/2000/svg" xmlns:xlink="http://www.w3.org/1999/xlink" x="0px" y="0px"
	 viewBox="0 0 512 512" style="enable-background:new 0 0 512 512;" xml:space="preserve">
<path style="fill:#ED1F34;" d="M395.901,7.286H116.099C56.003,7.286,7.286,56.004,7.286,116.099V256h497.427V116.099
	C504.714,56.004,455.997,7.286,395.901,7.286z"/>
<g>
	<path style="fill:#FFFFFF;" d="M7.286,395.901c0,60.095,48.717,108.812,108.812,108.812h279.803
		c60.095,0,108.812-48.717,108.812-108.812V256H7.286V395.901z"/>
	<path style="fill:#FFFFFF;" d="M167.878,108.436c0-4.323-3.517-7.839-7.84-7.839s-7.84,3.517-7.84,7.839
		c0,4.323,3.517,7.839,7.84,7.839C164.361,116.276,167.878,112.759,167.878,108.436z"/>
	<path style="fill:#FFFFFF;" d="M147.522,125.362c1.329-4.107-0.93-8.534-5.034-9.869c-0.785-0.255-1.601-0.384-2.424-0.384
		c-3.411,0-6.408,2.18-7.452,5.405c-0.651,1.992-0.487,4.118,0.463,5.986c0.95,1.869,2.571,3.255,4.564,3.903
		c0.785,0.255,1.601,0.384,2.424,0.384C143.464,130.788,146.458,128.616,147.522,125.362z"/>
	<path style="fill:#FFFFFF;" d="M152.303,140.089c-1.348-0.98-2.942-1.499-4.609-1.499c-2.504,0-4.876,1.21-6.345,3.236
		c-2.537,3.496-1.758,8.406,1.728,10.939c1.35,0.984,2.947,1.504,4.617,1.504c2.501,0,4.871-1.207,6.345-3.235
		C156.574,147.538,155.796,142.628,152.303,140.089z"/>
	<path style="fill:#FFFFFF;" d="M172.382,138.591c-1.667,0-3.261,0.518-4.609,1.499c-3.493,2.539-4.271,7.449-1.731,10.951
		c1.471,2.022,3.841,3.23,6.342,3.23c1.67,0,3.267-0.52,4.608-1.498c3.494-2.539,4.273-7.449,1.736-10.945
		C177.258,139.8,174.886,138.591,172.382,138.591z"/>
	<path style="fill:#FFFFFF;" d="M187.471,120.535c-1.05-3.245-4.048-5.426-7.458-5.426c-0.824,0-1.639,0.129-2.424,0.384
		c-4.104,1.335-6.363,5.762-5.027,9.89c1.057,3.233,4.051,5.405,7.452,5.405c0.824,0,1.639-0.129,2.424-0.384
		c1.993-0.648,3.615-2.035,4.564-3.903C187.951,124.632,188.115,122.507,187.471,120.535z"/>
	<path style="fill:#FFFFFF;" d="M137.641,84.001c-23.987,0-43.432,19.445-43.432,43.433s19.445,43.432,43.432,43.432
		c0.722,0,1.439-0.02,2.152-0.054c-7.196,4.047-15.494,6.365-24.338,6.365c-27.472,0-49.743-22.271-49.743-49.742
		c0-27.472,22.27-49.743,49.743-49.743c8.844,0,17.142,2.318,24.338,6.365C139.079,84.021,138.362,84.001,137.641,84.001z"/>
</g>
<path d="M395.901,0H116.099C52.082,0,0,52.082,0,116.099v279.803C0,459.918,52.082,512,116.099,512h279.803
	C459.918,512,512,459.918,512,395.901V116.099C512,52.082,459.918,0,395.901,0z M395.901,497.427H116.099
	c-55.981,0-101.526-45.544-101.526-101.526V263.286H438.39c4.025,0,7.287-3.262,7.287-7.286s-3.262-7.286-7.287-7.286H14.573
	V116.099c0-55.982,45.544-101.526,101.526-101.526h279.803c55.981,0,101.526,45.544,101.526,101.526v132.615h-25.876
	c-4.025,0-7.286,3.262-7.286,7.286c0,4.024,3.262,7.286,7.286,7.286h25.876v132.615
	C497.427,451.883,451.882,497.427,395.901,497.427z"/>
<path d="M137.64,91.287c0.605,0,1.206,0.017,1.803,0.046c0.134,0.006,0.274,0.008,0.399,0.009c4.01-0.017,7.255-3.273,7.255-7.287
	c0-2.88-1.67-5.369-4.095-6.552c-8.405-4.646-17.92-7.099-27.548-7.099c-31.446,0-57.029,25.584-57.029,57.029
	s25.583,57.029,57.029,57.029c9.766,0,19.417-2.524,27.909-7.299c2.945-1.656,4.365-5.119,3.432-8.366
	c-0.934-3.246-3.972-5.422-7.352-5.264c-0.597,0.028-1.197,0.045-1.803,0.045c-19.931,0-36.146-16.214-36.146-36.145
	S117.71,91.287,137.64,91.287z M86.921,127.434c0,17.452,8.86,32.873,22.319,42.002c-20.475-3.016-36.242-20.703-36.242-42.002
	c0-21.3,15.766-38.987,36.241-42.003C95.782,94.56,86.921,109.982,86.921,127.434z"/>
<g>
</g>
<g>
</g>
<g>
</g>
<g>
</g>
<g>
</g>
<g>
</g>
<g>
</g>
<g>
</g>
<g>
</g>
<g>
</g>
<g>
</g>
<g>
</g>
<g>
</g>
<g>
</g>
<g>
</g>
</svg>
