<?xml version="1.0" encoding="iso-8859-1"?>
<!-- Generator: Adobe Illustrator 19.0.0, SVG Export Plug-In . SVG Version: 6.00 Build 0)  -->
<svg version="1.1" id="Layer_1" xmlns="http://www.w3.org/2000/svg" xmlns:xlink="http://www.w3.org/1999/xlink" x="0px" y="0px"
	 viewBox="0 0 512 512" style="enable-background:new 0 0 512 512;" xml:space="preserve">
<rect x="7.286" y="173.1" style="fill:#164FCE;" width="497.43" height="165.81"/>
<path style="fill:#ED1F34;" d="M7.286,395.901c0,60.095,48.717,108.812,108.812,108.812h279.803
	c60.095,0,108.812-48.717,108.812-108.812v-56.997H7.286V395.901z"/>
<path style="fill:#FFFFFF;" d="M395.901,7.286H116.099C56.003,7.286,7.286,56.003,7.286,116.099v56.997h497.427v-56.997
	C504.714,56.003,455.997,7.286,395.901,7.286z"/>
<path style="fill:#164FCE;" d="M84.438,102.627v82.191c0,32.445,27.237,51.271,51.484,58.747
	c24.247-7.476,51.483-26.302,51.483-58.747v-82.191C187.405,102.627,84.438,102.627,84.438,102.627z"/>
<path style="fill:#FFFFFF;" d="M84.438,173.096v11.722c0,32.445,27.237,51.271,51.483,58.747
	c24.247-7.475,51.483-26.302,51.483-58.747v-11.722H84.438z"/>
<path d="M395.901,0H116.099C52.082,0,0,52.082,0,116.099v279.803C0,459.918,52.082,512,116.099,512h279.803
	C459.918,512,512,459.918,512,395.901V116.099C512,52.082,459.918,0,395.901,0z M116.099,14.573h279.803
	c55.981,0,101.526,45.544,101.526,101.526v49.71H194.692v-63.182c0-4.024-3.262-7.287-7.287-7.287H84.437
	c-4.025,0-7.286,3.262-7.286,7.287v63.182H14.573v-49.71C14.573,60.117,60.118,14.573,116.099,14.573z M91.724,180.382h88.395v4.435
	c0,32.757-31.446,46.765-44.197,51.088c-12.751-4.324-44.197-18.331-44.197-51.088L91.724,180.382L91.724,180.382z M91.724,165.809
	v-55.896h88.395v55.896H91.724z M395.901,497.427H116.099c-55.981,0-101.526-45.544-101.526-101.526v-49.71h390.655
	c4.025,0,7.286-3.262,7.286-7.286s-3.262-7.286-7.286-7.286H14.573V180.382h62.578v4.435c0,35.576,29.25,57.27,56.623,65.71
	c0.699,0.216,1.423,0.324,2.147,0.324s1.448-0.108,2.147-0.324c27.373-8.439,56.623-30.134,56.623-65.71v-4.435h302.735v151.236
	H438.39c-4.025,0-7.286,3.262-7.286,7.286s3.262,7.286,7.286,7.286h59.037v49.71C497.427,451.883,451.882,497.427,395.901,497.427z"
	/>
<g>
</g>
<g>
</g>
<g>
</g>
<g>
</g>
<g>
</g>
<g>
</g>
<g>
</g>
<g>
</g>
<g>
</g>
<g>
</g>
<g>
</g>
<g>
</g>
<g>
</g>
<g>
</g>
<g>
</g>
</svg>
