<?xml version="1.0" encoding="iso-8859-1"?>
<!-- Generator: Adobe Illustrator 19.0.0, SVG Export Plug-In . SVG Version: 6.00 Build 0)  -->
<svg version="1.1" id="Layer_1" xmlns="http://www.w3.org/2000/svg" xmlns:xlink="http://www.w3.org/1999/xlink" x="0px" y="0px"
	 viewBox="0 0 512 512" style="enable-background:new 0 0 512 512;" xml:space="preserve">
<rect x="7.286" y="173.1" style="fill:#164FCE;" width="497.43" height="165.81"/>
<path style="fill:#ED1F34;" d="M7.286,338.904v56.997c0,60.095,48.717,108.812,108.812,108.812h279.803
	c60.092,0,108.807-48.712,108.812-108.803v-57.006H7.286z"/>
<path style="fill:#FFFFFF;" d="M504.714,116.089C504.708,55.998,455.994,7.286,395.901,7.286H116.099
	C56.003,7.286,7.286,56.003,7.286,116.099v56.997h497.427L504.714,116.089L504.714,116.089z"/>
<path d="M395.901,0H116.099C52.082,0,0,52.082,0,116.099v279.803C0,459.918,52.082,512,116.099,512h279.803
	C459.918,512,512,459.918,512,395.901V116.099C512,52.082,459.918,0,395.901,0z M497.427,331.618H438.39
	c-4.025,0-7.286,3.262-7.286,7.286c0,4.024,3.262,7.287,7.286,7.287h59.037v49.71c0,55.982-45.545,101.526-101.526,101.526H116.099
	c-55.981,0-101.526-45.544-101.526-101.526v-49.71h390.655c4.025,0,7.286-3.262,7.286-7.287c0-4.024-3.262-7.286-7.286-7.286H14.573
	V180.382h482.854V331.618z M497.427,165.809H14.573v-49.71c0-55.982,45.544-101.526,101.526-101.526h279.803
	c55.981,0,101.526,45.544,101.526,101.526v49.71H497.427z"/>
<path style="fill:#ED1F34;" d="M76.551,110.933V280.13c0,66.791,56.071,105.547,105.986,120.936
	c49.915-15.389,105.986-54.145,105.986-120.936V110.933H76.551z"/>
<path style="fill:#FFFFFF;" d="M221.27,228.236h-31.233v-33.101h16.344c4.143,0,7.5-3.358,7.5-7.5s-3.357-7.5-7.5-7.5h-16.344
	v-23.18c0-4.142-3.357-7.5-7.5-7.5s-7.5,3.358-7.5,7.5v23.18h-16.345c-4.143,0-7.5,3.358-7.5,7.5s3.357,7.5,7.5,7.5h16.345v33.101
	h-31.234c-4.143,0-7.5,3.358-7.5,7.5s3.357,7.5,7.5,7.5h31.234v43.866c0,4.142,3.357,7.5,7.5,7.5s7.5-3.358,7.5-7.5v-43.866h31.233
	c4.143,0,7.5-3.358,7.5-7.5S225.413,228.236,221.27,228.236z"/>
<path style="fill:#164FCE;" d="M182.537,287.103c-26.533,0-49.81,13.88-63.012,34.763c-7.022-2.7-14.641-4.195-22.614-4.195
	c-4.561,0-8.993,0.524-13.278,1.447c16.601,43.279,59.647,69.846,98.904,81.949c39.256-12.103,82.303-38.67,98.904-81.95
	c-4.285-0.922-8.717-1.446-13.278-1.446c-7.973,0-15.593,1.495-22.615,4.195C232.347,300.982,209.07,287.103,182.537,287.103z"/>
<path d="M288.522,103.434H76.551c-4.143,0-7.5,3.358-7.5,7.5V280.13c0,32.586,12.284,61.213,36.511,85.086
	c19.016,18.738,45.567,34.015,74.765,43.017c0.72,0.222,1.465,0.333,2.21,0.333c0.745,0,1.49-0.111,2.21-0.333
	c29.197-9.002,55.75-24.279,74.766-43.017c24.227-23.873,36.511-52.5,36.511-85.086V110.934
	C296.022,106.791,292.665,103.434,288.522,103.434z M281.022,280.13c0,74.509-72.625,104.704-98.486,113.071
	c-25.861-8.367-98.485-38.562-98.485-113.071V118.434h196.972V280.13H281.022z"/>
<g>
</g>
<g>
</g>
<g>
</g>
<g>
</g>
<g>
</g>
<g>
</g>
<g>
</g>
<g>
</g>
<g>
</g>
<g>
</g>
<g>
</g>
<g>
</g>
<g>
</g>
<g>
</g>
<g>
</g>
</svg>
