<?xml version="1.0" encoding="iso-8859-1"?>
<!-- Generator: Adobe Illustrator 19.0.0, SVG Export Plug-In . SVG Version: 6.00 Build 0)  -->
<svg version="1.1" id="Layer_1" xmlns="http://www.w3.org/2000/svg" xmlns:xlink="http://www.w3.org/1999/xlink" x="0px" y="0px"
	 viewBox="0 0 512 512" style="enable-background:new 0 0 512 512;" xml:space="preserve">
<path style="fill:#FFFFFF;" d="M395.901,7.286H116.099C56.003,7.286,7.286,56.003,7.286,116.099V256h497.427V116.099
	C504.714,56.003,455.997,7.286,395.901,7.286z"/>
<path style="fill:#3DB4EA;" d="M7.286,395.901c0,60.095,48.717,108.812,108.812,108.812h279.803
	c60.095,0,108.812-48.717,108.812-108.812V256H7.286V395.901z"/>
<path d="M395.901,0H116.099C52.082,0,0,52.082,0,116.099v279.803C0,459.918,52.082,512,116.099,512h279.803
	C459.918,512,512,459.918,512,395.901V116.099C512,52.082,459.918,0,395.901,0z M116.099,14.573h279.803
	c55.981,0,101.526,45.544,101.526,101.526v132.615H14.573V116.099C14.573,60.117,60.118,14.573,116.099,14.573z M395.901,497.427
	H116.099c-55.981,0-101.526-45.544-101.526-101.526V263.286h482.854v132.615C497.427,451.883,451.882,497.427,395.901,497.427z"/>
<path style="fill:#259245;" d="M256,333.387c-51.052,0-92.586-41.534-92.586-92.586c0-10.344,1.695-20.503,5.039-30.196
	c1.312-3.804,5.457-5.826,9.264-4.512c3.805,1.312,5.825,5.46,4.512,9.264c-2.815,8.161-4.242,16.722-4.242,25.445
	c0,43.017,34.996,78.013,78.013,78.013s78.013-34.997,78.013-78.013c0-8.721-1.427-17.282-4.243-25.446
	c-1.311-3.805,0.71-7.952,4.513-9.264c3.806-1.313,7.954,0.709,9.264,4.513c3.344,9.696,5.039,19.856,5.039,30.197
	C348.586,291.853,307.052,333.387,256,333.387z"/>
<path style="fill:#FFE000;" d="M214.795,212.982c-4.623,10.234-7.302,22.307-7.302,35.247C207.493,300.676,256,326.1,256,326.1
	s48.507-25.424,48.507-77.871c0-12.94-2.679-25.014-7.302-35.247H214.795z"/>
<path style="fill:#259245;" d="M256,272.489c-14.772,0-28.784,3.243-41.373,9.047C228.109,311.475,256,326.1,256,326.1
	s27.891-14.626,41.373-44.565C284.784,275.732,270.772,272.489,256,272.489z"/>
<path d="M324.903,330.789h-21.099c1.777-2.113,2.212-5.063,1.097-7.611c-1.16-2.651-3.781-4.364-6.674-4.364h-19.742
	c14.992-13.375,33.308-36.655,33.308-70.585c0-13.513-2.749-26.739-7.948-38.248c-1.179-2.61-3.777-4.286-6.641-4.286h-33.918
	v-31.77c0-4.024-3.262-7.287-7.286-7.287c-4.025,0-7.286,3.262-7.286,7.287v31.77h-33.918c-2.863,0-5.461,1.677-6.641,4.286
	c-5.199,11.509-7.948,24.735-7.948,38.248c0,33.93,18.316,57.21,33.308,70.585h-19.742c-2.894,0-5.514,1.713-6.674,4.364
	c-1.116,2.547-0.68,5.497,1.097,7.611h-21.099c-4.025,0-7.287,3.262-7.287,7.286s3.262,7.287,7.287,7.287h37.73
	c2.895,0,5.514-1.713,6.675-4.364c1.116-2.547,0.681-5.497-1.097-7.611h51.19c-1.778,2.113-2.213,5.063-1.097,7.611
	c1.16,2.651,3.78,4.364,6.675,4.364h37.73c4.025,0,7.287-3.262,7.287-7.287S328.928,330.789,324.903,330.789z M214.78,248.229
	c0-9.797,1.682-19.368,4.891-27.961h72.658c3.209,8.593,4.891,18.164,4.891,27.961c0,39.462-30.799,62.658-41.22,69.375
	C245.579,310.887,214.78,287.691,214.78,248.229z"/>
<g>
</g>
<g>
</g>
<g>
</g>
<g>
</g>
<g>
</g>
<g>
</g>
<g>
</g>
<g>
</g>
<g>
</g>
<g>
</g>
<g>
</g>
<g>
</g>
<g>
</g>
<g>
</g>
<g>
</g>
</svg>
