<?xml version="1.0" encoding="iso-8859-1"?>
<!-- Generator: Adobe Illustrator 19.0.0, SVG Export Plug-In . SVG Version: 6.00 Build 0)  -->
<svg version="1.1" id="Layer_1" xmlns="http://www.w3.org/2000/svg" xmlns:xlink="http://www.w3.org/1999/xlink" x="0px" y="0px"
	 viewBox="0 0 512 512" style="enable-background:new 0 0 512 512;" xml:space="preserve">
<rect x="173.1" y="7.286" style="fill:#FFE000;" width="165.81" height="497.43"/>
<g>
	<polygon style="fill:#259245;" points="218.807,247.65 246.192,246.235 256,220.627 265.808,246.235 293.193,247.65 
		271.87,264.891 278.987,291.373 256,276.421 233.014,291.373 240.13,264.891 	"/>
	<path style="fill:#259245;" d="M116.099,7.286C56.003,7.286,7.286,56.004,7.286,116.099v279.803
		c0,60.095,48.717,108.812,108.812,108.812h56.997V7.286H116.099z"/>
</g>
<path style="fill:#ED1F34;" d="M395.901,7.286h-56.997v497.427h56.997c60.095,0,108.812-48.717,108.812-108.812V116.099
	C504.714,56.004,455.997,7.286,395.901,7.286z"/>
<path d="M214.226,253.316l17.638,14.261l-5.887,21.905c-0.783,2.915,0.312,6.011,2.754,7.786c2.443,1.775,5.725,1.861,8.256,0.213
	L256,285.114l19.014,12.367c1.21,0.788,2.592,1.178,3.972,1.178c1.506,0,3.009-0.466,4.284-1.392
	c2.442-1.774,3.537-4.871,2.754-7.786l-5.887-21.905l17.638-14.261c2.348-1.898,3.282-5.047,2.349-7.917
	c-0.933-2.871-3.539-4.87-6.554-5.026l-22.652-1.171l-8.112-21.181c-1.08-2.819-3.786-4.68-6.805-4.68s-5.725,1.861-6.805,4.68
	l-8.112,21.181l-22.652,1.171c-3.015,0.156-5.621,2.155-6.554,5.026C210.944,248.269,211.878,251.418,214.226,253.316z
	 M246.568,253.511c2.878-0.149,5.398-1.98,6.428-4.671l3.003-7.842l3.003,7.842c1.031,2.691,3.551,4.522,6.428,4.671l8.387,0.434
	l-6.53,5.28c-2.241,1.812-3.203,4.774-2.456,7.557l2.18,8.11l-7.039-4.579c-1.208-0.786-2.591-1.178-3.973-1.178
	s-2.765,0.393-3.973,1.178l-7.039,4.579l2.18-8.11c0.748-2.783-0.215-5.745-2.456-7.557l-6.53-5.28L246.568,253.511z"/>
<path d="M395.901,0H116.099C52.082,0,0,52.082,0,116.099v279.803C0,459.918,52.082,512,116.099,512h279.803
	C459.918,512,512,459.918,512,395.901V116.099C512,52.082,459.918,0,395.901,0z M331.618,14.573v482.854H180.382V14.573H331.618z
	 M14.573,395.901V116.099c0-55.981,45.544-101.526,101.526-101.526h49.71v482.854h-49.71
	C60.117,497.427,14.573,451.882,14.573,395.901z M497.427,395.901c0,55.981-45.544,101.526-101.526,101.526h-49.71V14.573h49.71
	c55.981,0,101.526,45.544,101.526,101.526V395.901z"/>
<g>
</g>
<g>
</g>
<g>
</g>
<g>
</g>
<g>
</g>
<g>
</g>
<g>
</g>
<g>
</g>
<g>
</g>
<g>
</g>
<g>
</g>
<g>
</g>
<g>
</g>
<g>
</g>
<g>
</g>
</svg>
