<?xml version="1.0" encoding="iso-8859-1"?>
<!-- Generator: Adobe Illustrator 19.0.0, SVG Export Plug-In . SVG Version: 6.00 Build 0)  -->
<svg version="1.1" id="Layer_1" xmlns="http://www.w3.org/2000/svg" xmlns:xlink="http://www.w3.org/1999/xlink" x="0px" y="0px"
	 viewBox="0 0 512 512" style="enable-background:new 0 0 512 512;" xml:space="preserve">
<rect x="8.258" y="200.946" style="fill:#FFFFFF;" width="495.484" height="110.108"/>
<polygon style="fill:#333333;" points="225.174,249.079 247.871,247.906 256,226.683 264.129,247.906 286.826,249.079 
	269.153,263.368 275.052,285.317 256,272.925 236.948,285.317 242.847,263.368 "/>
<path style="fill:#259245;" d="M503.742,200.946H8.258v-73.964c0-19.961,16.183-36.144,36.144-36.144h423.197
	c19.961,0,36.144,16.183,36.144,36.144v73.964H503.742z"/>
<path style="fill:#ED1F34;" d="M467.598,421.161H44.402c-19.961,0-36.144-16.182-36.144-36.144v-73.964h495.484v73.964
	C503.742,404.979,487.559,421.161,467.598,421.161z"/>
<g>
	<path style="fill:#FFFFFF;" d="M263.266,166.88c-4.587,0-8.321-3.713-8.362-8.291h8.362c4.561,0,8.258-3.697,8.258-8.258
		s-3.697-8.258-8.258-8.258h-16.623c-4.561,0-8.258,3.697-8.258,8.258v8.184c0,4.612-3.752,8.365-8.365,8.365
		c-2.18,0-4.27,0.862-5.817,2.397l-0.072,0.072c-3.237,3.213-3.221,8.406-0.008,11.643c1.605,1.617,3.723,2.422,5.845,2.422
		c0.215,0,0.429-0.008,0.644-0.024c6.158-0.144,11.766-2.542,16.042-6.393c4.152,3.737,9.552,6.111,15.5,6.375
		c0.375,0.052,0.755,0.078,1.133,0.078c2.126,0,4.256-0.824,5.879-2.459c3.213-3.237,3.157-8.501-0.08-11.714
		C267.536,167.742,265.446,166.88,263.266,166.88z"/>
	<path style="fill:#FFFFFF;" d="M213.627,148.765h-10.857v-32.19c0-4.561-3.697-8.258-8.258-8.258s-8.258,3.697-8.258,8.258v41.94
		c0,4.612-3.752,8.365-8.365,8.365c-0.243,0-0.487,0.012-0.729,0.034c-1.414-0.133-2.76-0.621-3.931-1.426
		c-3.757-2.588-8.898-1.637-11.484,2.12c-2.586,3.757-1.637,8.898,2.12,11.484c4.096,2.82,8.896,4.333,13.881,4.375
		c0.022,0.001,0.043,0.001,0.066,0.001c0.413,0,0.826-0.033,1.233-0.098c10.865-0.499,19.917-8.005,22.772-18.088h11.809
		c4.561,0,8.258-3.697,8.258-8.258S218.188,148.765,213.627,148.765z"/>
	<path style="fill:#FFFFFF;" d="M343.452,108.317c-4.561,0-8.258,3.697-8.258,8.258v41.94c0,4.612-3.752,8.365-8.366,8.365
		c-0.351,0-0.704,0.024-1.052,0.072h-7.855c-4.561,0-8.258,3.697-8.258,8.258s3.697,8.258,8.258,8.258h8.835
		c0.413,0,0.825-0.033,1.233-0.098c13.182-0.609,23.72-11.524,23.72-24.855v-41.94C351.71,112.015,348.012,108.317,343.452,108.317z
		"/>
	<path style="fill:#FFFFFF;" d="M271.313,112.167c-3.839-2.458-8.947-1.339-11.407,2.502c-0.467,0.729-1.761,2.423-3.691,2.423
		c-1.929,0-3.218-1.691-3.683-2.419c-2.455-3.843-7.563-4.968-11.406-2.51c-3.843,2.457-4.967,7.563-2.51,11.406
		c4.018,6.286,10.598,10.04,17.6,10.04c6.997,0,13.577-3.751,17.6-10.034C276.274,119.733,275.153,114.626,271.313,112.167z"/>
	<path style="fill:#FFFFFF;" d="M292.391,110.923c-4.561,0-8.258,3.697-8.258,8.258v56.028c0,4.561,3.697,8.258,8.258,8.258
		c4.561,0,8.258-3.697,8.258-8.258v-56.028C300.649,114.621,296.951,110.923,292.391,110.923z"/>
	<path style="fill:#FFFFFF;" d="M317.921,139.474c4.561,0,8.258-3.697,8.258-8.258v-12.035c0-4.561-3.697-8.258-8.258-8.258
		c-4.561,0-8.258,3.697-8.258,8.258v12.035C309.663,135.777,313.361,139.474,317.921,139.474z"/>
	<path style="fill:#FFFFFF;" d="M168.982,147.578c4.561,0,8.258-3.697,8.258-8.258v-22.745c0-4.561-3.697-8.258-8.258-8.258
		s-8.258,3.697-8.258,8.258v22.745C160.724,143.881,164.421,147.578,168.982,147.578z"/>
	<path style="fill:#FFFFFF;" d="M220.043,136.155c4.561,0,8.258-3.697,8.258-8.258v-11.321c0-4.561-3.697-8.258-8.258-8.258
		s-8.258,3.697-8.258,8.258v11.321C211.785,132.457,215.483,136.155,220.043,136.155z"/>
</g>
<g>
	<path style="fill:#1A1C20;" d="M219.982,255.5l13.496,10.913l-4.505,16.762c-0.887,3.304,0.353,6.813,3.122,8.824
		c2.768,2.012,6.489,2.109,9.357,0.242L256,282.777l14.549,9.464c1.372,0.892,2.938,1.336,4.502,1.336
		c1.707,0,3.411-0.527,4.855-1.578c2.768-2.011,4.009-5.52,3.122-8.824l-4.504-16.762l13.496-10.913
		c2.66-2.151,3.719-5.72,2.661-8.974c-1.057-3.254-4.011-5.519-7.428-5.695l-17.332-0.895l-6.208-16.208
		c-1.223-3.194-4.291-5.304-7.712-5.304c-3.421,0-6.489,2.11-7.712,5.304l-6.208,16.208l-17.332,0.895
		c-3.417,0.177-6.371,2.441-7.428,5.695C216.263,249.781,217.321,253.35,219.982,255.5z M248.297,256.154
		c3.261-0.168,6.118-2.244,7.286-5.294l0.417-1.089l0.417,1.089c1.168,3.05,4.024,5.124,7.286,5.294l1.165,0.061l-0.907,0.733
		c-2.539,2.053-3.63,5.411-2.782,8.564l0.303,1.128l-0.979-0.636c-1.369-0.891-2.937-1.336-4.502-1.336s-3.134,0.445-4.502,1.336
		l-0.979,0.636l0.303-1.128c0.848-3.153-0.243-6.512-2.782-8.564l-0.907-0.733L248.297,256.154z"/>
	<path style="fill:#1A1C20;" d="M468.324,82.581H43.676C19.593,82.581,0,102.173,0,126.256v259.487
		c0,24.084,19.593,43.676,43.676,43.676h424.648c24.083,0,43.675-19.593,43.675-43.676V126.256
		C512,102.173,492.407,82.581,468.324,82.581z M43.676,99.097h424.648c14.976,0,27.159,12.183,27.159,27.159v66.432H74.323
		c-4.561,0-8.258,3.697-8.258,8.258s3.697,8.258,8.258,8.258h421.161v93.591H16.516v-93.591H41.29c4.561,0,8.258-3.697,8.258-8.258
		s-3.697-8.258-8.258-8.258H16.516v-66.432C16.516,111.28,28.7,99.097,43.676,99.097z M468.324,412.903H43.676
		c-14.977,0-27.16-12.183-27.16-27.16v-66.431h478.968v66.431C495.484,400.72,483.3,412.903,468.324,412.903z"/>
</g>
<g>
</g>
<g>
</g>
<g>
</g>
<g>
</g>
<g>
</g>
<g>
</g>
<g>
</g>
<g>
</g>
<g>
</g>
<g>
</g>
<g>
</g>
<g>
</g>
<g>
</g>
<g>
</g>
<g>
</g>
</svg>
