<?xml version="1.0" encoding="iso-8859-1"?>
<!-- Generator: Adobe Illustrator 19.0.0, SVG Export Plug-In . SVG Version: 6.00 Build 0)  -->
<svg version="1.1" id="Layer_1" xmlns="http://www.w3.org/2000/svg" xmlns:xlink="http://www.w3.org/1999/xlink" x="0px" y="0px"
	 viewBox="0 0 512 512" style="enable-background:new 0 0 512 512;" xml:space="preserve">
<rect x="7.286" y="173.1" style="fill:#FFFFFF;" width="497.43" height="165.81"/>
<polygon style="fill:#333333;" points="209.58,245.578 243.759,243.812 256,211.852 268.241,243.812 302.42,245.578 
	275.807,267.096 284.689,300.148 256,281.487 227.311,300.148 236.193,267.096 "/>
<path style="fill:#259245;" d="M395.901,7.286H116.099C56.003,7.286,7.286,56.004,7.286,116.099v56.997h497.427v-56.997
	C504.714,56.004,455.997,7.286,395.901,7.286z"/>
<path style="fill:#ED1F34;" d="M7.286,395.901c0,60.095,48.717,108.812,108.812,108.812h279.803
	c60.095,0,108.812-48.717,108.812-108.812v-56.997H7.286V395.901z"/>
<path d="M204.998,251.244l22.928,18.538l-7.652,28.475c-0.783,2.915,0.312,6.011,2.754,7.786c2.442,1.774,5.725,1.859,8.256,0.213
	L256,290.18l24.716,16.077c1.21,0.787,2.592,1.178,3.972,1.178c1.506,0,3.009-0.466,4.283-1.391
	c2.442-1.775,3.538-4.871,2.754-7.786l-7.652-28.475l22.928-18.538c2.347-1.898,3.281-5.047,2.348-7.918
	c-0.933-2.87-3.539-4.869-6.554-5.025l-29.445-1.521l-10.546-27.535c-1.08-2.819-3.786-4.68-6.805-4.68s-5.725,1.861-6.805,4.68
	l-10.546,27.535l-29.445,1.521c-3.015,0.156-5.621,2.155-6.554,5.025C201.717,246.197,202.651,249.346,204.998,251.244z
	 M244.134,251.089c2.878-0.149,5.398-1.98,6.429-4.671L256,232.223l5.437,14.195c1.031,2.691,3.551,4.522,6.429,4.671l15.18,0.784
	l-11.82,9.557c-2.241,1.812-3.203,4.774-2.455,7.557l3.945,14.68l-12.742-8.289c-1.208-0.785-2.59-1.178-3.973-1.178
	s-2.765,0.393-3.973,1.178l-12.742,8.289l3.945-14.68c0.748-2.783-0.215-5.745-2.455-7.557l-11.82-9.557L244.134,251.089z"/>
<path d="M395.901,0H116.099C52.082,0,0,52.082,0,116.099v279.803C0,459.918,52.082,512,116.099,512h279.803
	C459.918,512,512,459.918,512,395.901V116.099C512,52.082,459.918,0,395.901,0z M116.099,14.573h279.803
	c55.981,0,101.526,45.544,101.526,101.526v49.71H73.61c-4.024,0-7.287,3.262-7.287,7.287c0,4.024,3.262,7.286,7.287,7.286h423.817
	v151.236H14.573V180.382h25.875c4.024,0,7.286-3.262,7.286-7.286s-3.262-7.287-7.286-7.287H14.573v-49.71
	C14.573,60.117,60.117,14.573,116.099,14.573z M395.901,497.427H116.099c-55.982,0-101.526-45.544-101.526-101.526v-49.71h482.854
	v49.71C497.427,451.883,451.883,497.427,395.901,497.427z"/>
<g>
	<path style="fill:#FFFFFF;" d="M362.551,141.626h-13.305c-4.024,0-7.286-3.262-7.286-7.286s3.262-7.287,7.286-7.287h12.165
		c0.409-0.071,0.827-0.108,1.248-0.108c9.785,0,17.746-7.961,17.746-17.746V46.043c0-4.024,3.262-7.287,7.286-7.287
		s7.287,3.262,7.287,7.287v63.156c0,17.393-13.813,31.622-31.044,32.295C363.482,141.581,363.019,141.626,362.551,141.626z"/>
	<path style="fill:#FFFFFF;" d="M256.324,66.544c-8.778,0-17.064-4.763-22.164-12.741c-2.168-3.39-1.176-7.896,2.215-10.064
		c3.391-2.168,7.896-1.176,10.063,2.214c2.445,3.824,6.048,6.018,9.886,6.018c3.838,0,7.444-2.195,9.894-6.022
		c2.171-3.389,6.676-4.377,10.065-2.208c3.389,2.17,4.378,6.676,2.208,10.065C273.385,61.782,265.098,66.544,256.324,66.544z"/>
	<path style="fill:#FFFFFF;" d="M310.8,141.626c-4.024,0-7.286-3.262-7.286-7.286V49.968c0-4.024,3.262-7.287,7.286-7.287
		s7.286,3.262,7.286,7.287v84.372C318.087,138.363,314.824,141.626,310.8,141.626z"/>
	<path style="fill:#FFFFFF;" d="M272.18,129.164l-0.109-0.108c-1.364-1.353-3.208-2.112-5.129-2.112
		c-9.785,0-17.746-7.961-17.746-17.746v-5.037h17.746c4.024,0,7.287-3.262,7.287-7.287s-3.262-7.286-7.287-7.286h-25.033
		c-4.024,0-7.286,3.262-7.286,7.286v12.324c0,9.785-7.961,17.746-17.746,17.746c-1.921,0-3.765,0.759-5.13,2.112l-0.109,0.108
		c-2.858,2.833-2.879,7.447-0.046,10.305c1.425,1.437,3.299,2.157,5.175,2.157c0.465,0,0.93-0.044,1.388-0.133
		c9.566-0.374,18.074-4.931,23.753-11.883c5.679,6.952,14.187,11.509,23.753,11.883c0.458,0.089,0.923,0.133,1.388,0.133
		c1.875,0,3.75-0.72,5.175-2.157C275.059,136.611,275.038,131.997,272.18,129.164z"/>
	<path style="fill:#FFFFFF;" d="M192.192,99.666h-21.498V46.043c0-4.024-3.262-7.287-7.286-7.287s-7.287,3.262-7.287,7.287v63.156
		c0,9.785-7.961,17.746-17.746,17.746c-0.346,0-0.689,0.025-1.028,0.073c-3.202-0.202-6.264-1.256-8.908-3.076
		c-3.315-2.283-7.852-1.444-10.133,1.871c-2.281,3.315-1.443,7.851,1.871,10.133c5.318,3.66,11.551,5.624,18.027,5.679
		c0.021,0.001,0.042,0.001,0.063,0.001c0.468,0,0.931-0.045,1.383-0.132c15.534-0.605,28.284-12.228,30.647-27.255h21.895
		c4.024,0,7.286-3.262,7.286-7.286S196.216,99.666,192.192,99.666z"/>
	<path style="fill:#FFFFFF;" d="M349.246,75.378c-4.024,0-7.286-3.262-7.286-7.286V49.968c0-4.024,3.262-7.287,7.286-7.287
		s7.286,3.262,7.286,7.287v18.123C356.533,72.115,353.27,75.378,349.246,75.378z"/>
	<path style="fill:#FFFFFF;" d="M124.962,87.581c-4.024,0-7.287-3.262-7.287-7.286V46.043c0-4.024,3.262-7.287,7.287-7.287
		c4.024,0,7.286,3.262,7.286,7.287v34.251C132.248,84.318,128.986,87.581,124.962,87.581z"/>
	<path style="fill:#FFFFFF;" d="M201.853,70.378c-4.024,0-7.286-3.262-7.286-7.286V46.043c0-4.024,3.262-7.287,7.286-7.287
		s7.286,3.262,7.286,7.287v17.049C209.14,67.116,205.878,70.378,201.853,70.378z"/>
</g>
<g>
</g>
<g>
</g>
<g>
</g>
<g>
</g>
<g>
</g>
<g>
</g>
<g>
</g>
<g>
</g>
<g>
</g>
<g>
</g>
<g>
</g>
<g>
</g>
<g>
</g>
<g>
</g>
<g>
</g>
</svg>
