<?xml version="1.0" encoding="iso-8859-1"?>
<!-- Generator: Adobe Illustrator 19.0.0, SVG Export Plug-In . SVG Version: 6.00 Build 0)  -->
<svg version="1.1" id="Layer_1" xmlns="http://www.w3.org/2000/svg" xmlns:xlink="http://www.w3.org/1999/xlink" x="0px" y="0px"
	 viewBox="0 0 512.001 512.001" style="enable-background:new 0 0 512.001 512.001;" xml:space="preserve">
<g>
	<path style="fill:#259245;" d="M395.901,7.286H116.099c-53.518,0-98.011,38.636-107.11,89.537h494.023
		C493.912,45.922,449.419,7.286,395.901,7.286z"/>
	<path style="fill:#259245;" d="M116.099,504.714h279.803c53.518,0,98.011-38.636,107.11-89.537H8.989
		C18.088,466.078,62.581,504.714,116.099,504.714z"/>
</g>
<path style="fill:#FFFFFF;" d="M7.286,395.901c0,6.578,0.584,13.019,1.702,19.275h494.023c1.118-6.256,1.702-12.697,1.702-19.275
	v-37.1H7.286V395.901z"/>
<rect x="7.286" y="153.2" style="fill:#ED1F34;" width="497.43" height="205.6"/>
<path style="fill:#FFFFFF;" d="M8.989,96.824c-1.118,6.256-1.702,12.697-1.702,19.275v37.1h497.427v-37.1
	c0-6.578-0.584-13.019-1.702-19.275C503.012,96.824,8.989,96.824,8.989,96.824z"/>
<polygon style="fill:#FFE000;" points="200.211,243.475 241.288,241.352 256,202.941 270.712,241.352 311.789,243.475 
	279.805,269.336 290.48,309.059 256,286.632 221.52,309.059 232.195,269.336 "/>
<path d="M318.719,241.223c-0.933-2.871-3.539-4.87-6.554-5.026l-36.344-1.878l-13.017-33.985c-1.08-2.819-3.786-4.68-6.805-4.68
	s-5.725,1.861-6.805,4.68l-13.017,33.985l-36.344,1.878c-3.014,0.156-5.621,2.155-6.554,5.026s0.001,6.02,2.349,7.917l28.299,22.881
	l-9.445,35.146c-0.783,2.915,0.312,6.011,2.754,7.786c2.442,1.775,5.725,1.859,8.256,0.214L256,295.323l30.507,19.844
	c1.21,0.788,2.592,1.178,3.973,1.178c1.506,0,3.009-0.466,4.283-1.392c2.442-1.774,3.538-4.871,2.754-7.786l-9.445-35.146
	l28.299-22.881C318.718,247.243,319.652,244.094,318.719,241.223z M275.223,263.671c-2.241,1.812-3.203,4.774-2.456,7.557
	l5.738,21.351l-18.532-12.055c-1.208-0.786-2.59-1.178-3.973-1.178c-1.383,0-2.765,0.393-3.973,1.178l-18.532,12.055l5.738-21.351
	c0.748-2.783-0.215-5.745-2.456-7.557l-17.191-13.9l22.079-1.14c2.878-0.149,5.398-1.98,6.428-4.671L256,223.313l7.908,20.645
	c1.031,2.691,3.551,4.522,6.428,4.671l22.079,1.14L275.223,263.671z"/>
<path d="M510.183,95.571c-0.02-0.117-0.041-0.233-0.067-0.347C500.255,41.135,452.793,0,395.901,0H116.099
	C52.082,0,0,52.082,0,116.099v279.803c0,7.003,0.623,13.863,1.817,20.527c0.02,0.117,0.041,0.232,0.067,0.347
	C11.745,470.865,59.207,512,116.099,512h279.803c56.892,0,104.354-41.135,114.215-95.224c0.026-0.115,0.046-0.231,0.067-0.347
	c1.194-6.664,1.817-13.525,1.817-20.527V116.099C512,109.096,511.377,102.236,510.183,95.571z M14.573,160.485h482.854v191.03
	H14.573V160.485z M14.573,395.901v-29.813h482.854v29.813c0,4.056-0.246,8.055-0.711,11.989H15.284
	C14.819,403.956,14.573,399.957,14.573,395.901z M116.099,14.573h279.803c46.794,0,86.288,31.824,97.993,74.964H438.39
	c-4.024,0-7.286,3.262-7.286,7.286c0,4.025,3.262,7.287,7.286,7.287h58.326c0.465,3.933,0.711,7.933,0.711,11.989v29.813H14.573
	v-29.813c0-4.056,0.246-8.056,0.711-11.989h389.944c4.024,0,7.286-3.262,7.286-7.287s-3.262-7.286-7.286-7.286H18.105
	C29.811,46.397,69.305,14.573,116.099,14.573z M395.901,497.427H116.099c-46.794,0-86.288-31.824-97.993-74.964h475.789
	C482.189,465.603,442.695,497.427,395.901,497.427z"/>
<g>
</g>
<g>
</g>
<g>
</g>
<g>
</g>
<g>
</g>
<g>
</g>
<g>
</g>
<g>
</g>
<g>
</g>
<g>
</g>
<g>
</g>
<g>
</g>
<g>
</g>
<g>
</g>
<g>
</g>
</svg>
