<?xml version="1.0" encoding="iso-8859-1"?>
<!-- Generator: Adobe Illustrator 19.0.0, SVG Export Plug-In . SVG Version: 6.00 Build 0)  -->
<svg version="1.1" id="Layer_1" xmlns="http://www.w3.org/2000/svg" xmlns:xlink="http://www.w3.org/1999/xlink" x="0px" y="0px"
	 viewBox="0 0 512 512" style="enable-background:new 0 0 512 512;" xml:space="preserve">
<rect x="7.286" y="173.1" style="fill:#ED1F34;" width="497.43" height="165.81"/>
<path style="fill:#259245;" d="M7.286,395.901c0,60.095,48.717,108.812,108.812,108.812h279.803
	c60.095,0,108.812-48.717,108.812-108.812v-56.997H7.286V395.901z"/>
<path style="fill:#333333;" d="M395.901,7.286H116.099C56.003,7.286,7.286,56.004,7.286,116.099v56.997h497.427v-56.997
	C504.714,56.004,455.997,7.286,395.901,7.286z"/>
<g>
	<rect x="7.286" y="173.1" style="fill:#FFFFFF;" width="497.43" height="41.44"/>
	<rect x="7.286" y="297.46" style="fill:#FFFFFF;" width="497.43" height="41.44"/>
</g>
<path style="fill:#164FCE;" d="M35.689,42.79C18.047,62.131,7.286,87.858,7.286,116.099v279.803
	c0,28.241,10.761,53.968,28.403,73.308L206.257,256L35.689,42.79z"/>
<polygon style="fill:#FFE000;" points="71.195,291.373 69.85,265.328 45.496,256 69.85,246.672 71.195,220.627 87.593,240.907 
	112.778,234.139 98.558,256 112.778,277.862 87.593,271.093 "/>
<path d="M42.889,262.805l19.928,7.633l1.101,21.311c0.156,3.015,2.154,5.621,5.025,6.554c0.741,0.241,1.499,0.357,2.251,0.357
	c2.161,0,4.258-0.963,5.667-2.705l13.417-16.595l20.609,5.539c2.912,0.78,6.012-0.311,7.786-2.754
	c1.774-2.442,1.859-5.726,0.213-8.256L107.251,256l11.636-17.888c1.646-2.53,1.561-5.814-0.213-8.256
	c-1.775-2.442-4.871-3.536-7.786-2.754l-20.609,5.539l-13.417-16.595c-1.898-2.347-5.048-3.283-7.918-2.348
	c-2.871,0.933-4.869,3.539-5.025,6.554l-1.101,21.311l-19.928,7.633c-2.819,1.08-4.68,3.786-4.68,6.805
	C38.209,259.019,40.071,261.725,42.889,262.805z M72.456,253.476c2.691-1.031,4.522-3.55,4.67-6.429l0.364-7.045l4.436,5.487
	c1.812,2.24,4.775,3.2,7.557,2.455l6.814-1.831l-3.847,5.914c-1.571,2.415-1.571,5.531,0,7.947l3.847,5.914l-6.814-1.831
	c-2.783-0.747-5.745,0.215-7.557,2.455l-4.436,5.487l-0.364-7.046c-0.148-2.879-1.979-5.398-4.67-6.429L65.867,256L72.456,253.476z"
	/>
<path d="M395.901,0H116.099C82.487,0,52.172,14.362,30.952,37.266c-0.467,0.4-0.872,0.845-1.213,1.326
	C11.261,59.16,0,86.338,0,116.099v279.803c0,29.761,11.261,56.938,29.739,77.507c0.34,0.482,0.746,0.926,1.213,1.326
	C52.172,497.638,82.487,512,116.099,512h279.803C459.918,512,512,459.918,512,395.901V116.099C512,52.082,459.918,0,395.901,0z
	 M211.947,251.448l-56.852-71.065h342.332v151.235H155.095l56.852-71.065C214.076,257.891,214.076,254.109,211.947,251.448z
	 M395.901,14.573c55.981,0,101.526,45.544,101.526,101.526v49.711H143.436L45.421,43.29c18.292-17.762,43.228-28.717,70.678-28.717
	C116.099,14.573,395.901,14.573,395.901,14.573z M14.573,116.099c0-23.224,7.844-44.647,21.014-61.772L196.926,256L35.587,457.674
	c-13.17-17.125-21.014-38.548-21.014-61.772C14.573,395.902,14.573,116.099,14.573,116.099z M395.901,497.427H116.099
	c-27.45,0-52.386-10.955-70.678-28.717l98.015-122.519h353.991v49.711C497.427,451.882,451.882,497.427,395.901,497.427z"/>
<g>
</g>
<g>
</g>
<g>
</g>
<g>
</g>
<g>
</g>
<g>
</g>
<g>
</g>
<g>
</g>
<g>
</g>
<g>
</g>
<g>
</g>
<g>
</g>
<g>
</g>
<g>
</g>
<g>
</g>
</svg>
