<?xml version="1.0" encoding="iso-8859-1"?>
<!-- Generator: Adobe Illustrator 19.0.0, SVG Export Plug-In . SVG Version: 6.00 Build 0)  -->
<svg version="1.1" id="Layer_1" xmlns="http://www.w3.org/2000/svg" xmlns:xlink="http://www.w3.org/1999/xlink" x="0px" y="0px"
	 viewBox="0 0 512 512" style="enable-background:new 0 0 512 512;" xml:space="preserve">
<rect x="7.286" y="173.1" style="fill:#FFE000;" width="497.43" height="165.81"/>
<g>
	<polygon style="fill:#333333;" points="237.212,248.172 262.885,246.845 272.08,222.838 281.276,246.845 306.949,248.172 
		286.958,264.335 293.63,289.162 272.08,275.145 250.531,289.162 257.203,264.335 	"/>
	<polygon style="fill:#333333;" points="362.121,248.172 387.795,246.845 396.99,222.838 406.185,246.845 431.858,248.172 
		411.868,264.335 418.54,289.162 396.99,275.145 375.44,289.162 382.112,264.335 	"/>
</g>
<g>
	<path style="fill:#259245;" d="M7.286,395.901c0,60.095,48.717,108.812,108.812,108.812h279.803
		c60.095,0,108.812-48.717,108.812-108.812v-56.997H7.286V395.901z"/>
	<path style="fill:#259245;" d="M395.901,7.286H116.099C56.003,7.286,7.286,56.004,7.286,116.099v56.997h497.427v-56.997
		C504.714,56.004,455.997,7.286,395.901,7.286z"/>
</g>
<path style="fill:#ED1F34;" d="M33.001,45.859C16.963,64.814,7.286,89.325,7.286,116.099v279.803
	c0,26.774,9.676,51.285,25.715,70.24L173.096,256L33.001,45.859z"/>
<path d="M307.324,240.895l-20.94-1.082l-7.499-19.582c-1.08-2.819-3.786-4.68-6.805-4.68c-3.018,0-5.725,1.862-6.805,4.68
	l-7.5,19.582l-20.939,1.082c-3.015,0.156-5.621,2.155-6.554,5.026s0.001,6.02,2.348,7.917l16.305,13.183l-5.442,20.25
	c-0.784,2.916,0.312,6.011,2.754,7.786c1.274,0.926,2.777,1.392,4.283,1.392c1.38,0,2.763-0.392,3.973-1.178l17.577-11.434
	l17.576,11.434c2.531,1.646,5.814,1.562,8.256-0.214c2.442-1.774,3.538-4.87,2.754-7.786l-5.442-20.25l16.305-13.183
	c2.347-1.898,3.281-5.046,2.348-7.917C312.946,243.049,310.34,241.05,307.324,240.895z M282.377,258.669
	c-2.241,1.812-3.203,4.774-2.455,7.557l1.734,6.454l-5.602-3.644c-2.416-1.571-5.531-1.572-7.947,0l-5.603,3.645l1.734-6.455
	c0.748-2.783-0.214-5.745-2.455-7.557l-5.196-4.202l6.674-0.344c2.879-0.149,5.398-1.98,6.429-4.671l2.391-6.241l2.39,6.241
	c1.03,2.691,3.55,4.522,6.429,4.671l6.675,0.344L282.377,258.669z"/>
<path d="M432.234,240.895l-20.94-1.082l-7.5-19.582c-1.08-2.819-3.786-4.68-6.805-4.68c-3.019,0-5.725,1.862-6.805,4.68
	l-7.499,19.582l-20.94,1.082c-3.015,0.156-5.621,2.155-6.554,5.026c-0.933,2.871,0.001,6.02,2.348,7.917l16.306,13.183l-5.442,20.25
	c-0.784,2.916,0.312,6.011,2.754,7.786c2.441,1.775,5.724,1.857,8.256,0.214l17.576-11.434l17.577,11.434
	c1.211,0.788,2.593,1.178,3.973,1.178c1.506,0,3.009-0.466,4.283-1.392c2.442-1.774,3.538-4.87,2.754-7.786l-5.442-20.25
	l16.305-13.183c2.347-1.898,3.281-5.046,2.348-7.917C437.856,243.049,435.25,241.05,432.234,240.895z M407.286,258.669
	c-2.241,1.812-3.203,4.774-2.455,7.557l1.734,6.455l-5.602-3.645c-1.208-0.786-2.591-1.178-3.973-1.178s-2.766,0.393-3.973,1.178
	l-5.602,3.644l1.734-6.454c0.748-2.783-0.214-5.745-2.455-7.557l-5.197-4.202l6.675-0.344c2.878-0.149,5.398-1.98,6.429-4.671
	l2.39-6.241l2.391,6.241c1.03,2.691,3.55,4.522,6.429,4.671l6.675,0.344L407.286,258.669z"/>
<path d="M395.901,0H116.099C80.901,0,49.315,15.748,28.006,40.564c-0.421,0.397-0.792,0.83-1.099,1.3
	C10.116,62.003,0,87.89,0,116.099v279.803c0,28.209,10.116,54.096,26.906,74.235c0.308,0.47,0.679,0.903,1.099,1.3
	C49.315,496.252,80.901,512,116.099,512h279.803C459.918,512,512,459.918,512,395.901V116.099C512,52.082,459.918,0,395.901,0z
	 M116.099,14.573h279.803c55.981,0,101.526,45.544,101.526,101.526v49.711H121.726L42.215,46.544
	C60.742,26.875,87.009,14.573,116.099,14.573z M14.573,116.099c0-21.415,6.671-41.298,18.035-57.694l79.155,118.732
	c0.013,0.019,0.025,0.038,0.038,0.056L164.339,256l-52.538,78.806c-0.013,0.018-0.025,0.037-0.038,0.056L32.608,453.595
	c-11.364-16.396-18.035-36.279-18.035-57.694C14.573,395.901,14.573,116.099,14.573,116.099z M395.901,497.427H116.099
	c-29.089,0-55.357-12.302-73.884-31.971l79.511-119.266H438.39c4.025,0,7.287-3.262,7.287-7.286c0-4.025-3.262-7.287-7.287-7.287
	H131.441l47.717-71.576c1.632-2.448,1.632-5.636,0-8.083l-47.717-71.576h365.986v151.235h-25.876c-4.025,0-7.286,3.262-7.286,7.287
	s3.262,7.286,7.286,7.286h25.876v49.711C497.427,451.882,451.882,497.427,395.901,497.427z"/>
<g>
</g>
<g>
</g>
<g>
</g>
<g>
</g>
<g>
</g>
<g>
</g>
<g>
</g>
<g>
</g>
<g>
</g>
<g>
</g>
<g>
</g>
<g>
</g>
<g>
</g>
<g>
</g>
<g>
</g>
</svg>
