<?xml version="1.0" encoding="iso-8859-1"?>
<!-- Generator: Adobe Illustrator 19.0.0, SVG Export Plug-In . SVG Version: 6.00 Build 0)  -->
<svg version="1.1" id="Layer_1" xmlns="http://www.w3.org/2000/svg" xmlns:xlink="http://www.w3.org/1999/xlink" x="0px" y="0px"
	 viewBox="0 0 512 512" style="enable-background:new 0 0 512 512;" xml:space="preserve">
<path style="fill:#ED1F34;" d="M395.901,7.286H116.099C56.003,7.286,7.286,56.004,7.286,116.099V256h497.427V116.099
	C504.714,56.004,455.997,7.286,395.901,7.286z"/>
<path style="fill:#103B9B;" d="M7.286,395.901c0,60.095,48.717,108.812,108.812,108.812h279.803
	c60.095,0,108.812-48.717,108.812-108.812V256H7.286V395.901z"/>
<path style="fill:#FFFFFF;" d="M39.157,39.157C19.466,58.848,7.286,86.051,7.286,116.099v279.803
	c0,30.047,12.179,57.25,31.871,76.942L256,256L39.157,39.157z"/>
<polygon style="fill:#3DB4EA;" points="86.443,209.416 86.443,264.268 103.256,275.068 120.07,264.268 120.07,209.416 "/>
<path style="fill:#ED1F34;" d="M103.256,282.355c-1.369,0-2.739-0.385-3.938-1.156l-16.813-10.801
	c-2.087-1.341-3.348-3.651-3.348-6.131v-54.851c0-4.024,3.262-7.286,7.286-7.286h33.627c4.024,0,7.287,3.262,7.287,7.286v54.851
	c0,2.48-1.261,4.79-3.348,6.131l-16.814,10.801C105.995,281.97,104.625,282.355,103.256,282.355z M93.729,260.288l9.527,6.12
	l9.527-6.12v-43.585H93.729V260.288z"/>
<path style="fill:#FFE000;" d="M103.256,310.266c-29.922,0-54.266-24.343-54.266-54.266c0-4.024,3.262-7.286,7.286-7.286
	s7.287,3.262,7.287,7.286c0,21.886,17.806,39.693,39.693,39.693s39.693-17.806,39.693-39.693c0-4.024,3.262-7.286,7.286-7.286
	s7.286,3.262,7.286,7.286C157.522,285.922,133.178,310.266,103.256,310.266z"/>
<path d="M395.901,0H116.099C84.422,0,55.673,12.757,34.704,33.397c-0.242,0.187-0.478,0.386-0.7,0.608s-0.42,0.458-0.608,0.7
	C12.757,55.673,0,84.422,0,116.099v279.803c0,31.677,12.757,60.426,33.397,81.395c0.187,0.242,0.386,0.477,0.607,0.699
	c0.222,0.221,0.457,0.42,0.699,0.607C55.672,499.242,84.422,512,116.099,512h279.803C459.918,512,512,459.918,512,395.901V116.099
	C512,52.082,459.918,0,395.901,0z M14.573,116.099c0-25.374,9.357-48.603,24.801-66.42l205.037,205.037
	c-0.074,0.418-0.12,0.845-0.12,1.284s0.046,0.866,0.12,1.284L39.374,462.321c-15.444-17.816-24.801-41.046-24.801-66.419V116.099z
	 M395.901,497.427H116.099c-25.374,0-48.603-9.357-66.42-24.801l209.34-209.339h146.209c4.025,0,7.286-3.262,7.286-7.286
	c0-4.024-3.262-7.286-7.286-7.286h-146.21L49.679,39.374c17.817-15.444,41.046-24.801,66.42-24.801h279.803
	c55.981,0,101.526,45.544,101.526,101.526v132.615H438.39c-4.025,0-7.286,3.262-7.286,7.286c0,4.025,3.262,7.286,7.286,7.286h59.037
	v132.615C497.427,451.882,451.882,497.427,395.901,497.427z"/>
<g>
</g>
<g>
</g>
<g>
</g>
<g>
</g>
<g>
</g>
<g>
</g>
<g>
</g>
<g>
</g>
<g>
</g>
<g>
</g>
<g>
</g>
<g>
</g>
<g>
</g>
<g>
</g>
<g>
</g>
</svg>
