<?xml version="1.0" encoding="iso-8859-1"?>
<!-- Generator: Adobe Illustrator 19.0.0, SVG Export Plug-In . SVG Version: 6.00 Build 0)  -->
<svg version="1.1" id="Layer_1" xmlns="http://www.w3.org/2000/svg" xmlns:xlink="http://www.w3.org/1999/xlink" x="0px" y="0px"
	 viewBox="0 0 512 512" style="enable-background:new 0 0 512 512;" xml:space="preserve">
<rect x="7.286" y="173.1" style="fill:#FFFFFF;" width="497.43" height="165.81"/>
<g>
	<polygon style="fill:#259245;" points="130.858,248.172 156.531,246.845 165.726,222.838 174.921,246.845 200.595,248.172 
		180.604,264.335 187.276,289.162 165.726,275.145 144.176,289.162 150.848,264.335 	"/>
	<polygon style="fill:#259245;" points="311.405,248.172 337.079,246.845 346.274,222.838 355.469,246.845 381.142,248.172 
		361.152,264.335 367.824,289.162 346.274,275.145 324.724,289.162 331.396,264.335 	"/>
</g>
<path style="fill:#ED1F34;" d="M395.901,7.287H116.099C56.003,7.287,7.286,56.004,7.286,116.099v56.997h497.427v-56.997
	C504.714,56.004,455.997,7.287,395.901,7.287z"/>
<path style="fill:#333333;" d="M7.286,395.901c0,60.095,48.717,108.812,108.812,108.812h279.803
	c60.095,0,108.812-48.717,108.812-108.812v-56.997H7.286V395.901z"/>
<path d="M200.971,240.895l-20.94-1.082l-7.5-19.581c-1.08-2.819-3.786-4.68-6.805-4.68s-5.725,1.861-6.805,4.68l-7.499,19.581
	l-20.94,1.082c-3.015,0.156-5.621,2.154-6.554,5.025c-0.933,2.871,0.001,6.02,2.348,7.918l16.306,13.184l-5.442,20.25
	c-0.784,2.915,0.312,6.012,2.754,7.786c1.274,0.926,2.777,1.392,4.283,1.392c1.38,0,2.763-0.391,3.973-1.179l17.576-11.433
	l17.577,11.433c2.53,1.646,5.813,1.561,8.256-0.213c2.442-1.774,3.538-4.871,2.754-7.786l-5.442-20.25l16.305-13.184
	c2.347-1.898,3.281-5.047,2.348-7.918C206.592,243.049,203.986,241.051,200.971,240.895z M176.023,258.669
	c-2.241,1.812-3.203,4.774-2.455,7.557l1.734,6.455l-5.602-3.645c-1.209-0.786-2.591-1.178-3.973-1.178s-2.766,0.393-3.973,1.179
	l-5.602,3.644l1.734-6.454c0.748-2.783-0.214-5.745-2.455-7.557l-5.197-4.202l6.675-0.345c2.879-0.149,5.398-1.98,6.429-4.671
	l2.39-6.241l2.391,6.241c1.031,2.691,3.55,4.522,6.429,4.671l6.675,0.345L176.023,258.669z"/>
<path d="M381.518,240.895l-20.94-1.082l-7.499-19.581c-1.08-2.819-3.785-4.68-6.805-4.68c-3.018,0-5.725,1.861-6.805,4.68
	l-7.5,19.581l-20.94,1.082c-3.015,0.156-5.621,2.154-6.554,5.025c-0.933,2.871,0.001,6.02,2.348,7.918l16.306,13.184l-5.442,20.25
	c-0.784,2.915,0.312,6.012,2.754,7.786c2.441,1.774,5.724,1.858,8.256,0.213l17.577-11.433l17.576,11.433
	c1.211,0.787,2.593,1.179,3.973,1.179c1.506,0,3.009-0.466,4.283-1.392c2.442-1.774,3.538-4.871,2.754-7.786l-5.442-20.249
	l16.306-13.184c2.347-1.898,3.281-5.047,2.348-7.918C387.139,243.049,384.533,241.051,381.518,240.895z M356.57,258.669
	c-2.241,1.812-3.203,4.774-2.455,7.557l1.734,6.454l-5.602-3.644c-2.417-1.572-5.531-1.571-7.947,0l-5.603,3.645l1.734-6.455
	c0.748-2.783-0.214-5.745-2.455-7.557l-5.197-4.202l6.675-0.345c2.879-0.149,5.397-1.979,6.429-4.671l2.391-6.241l2.39,6.241
	c1.03,2.691,3.55,4.522,6.429,4.671l6.675,0.345L356.57,258.669z"/>
<path d="M395.901,0H116.099C52.082,0,0,52.082,0,116.099v279.803C0,459.918,52.082,512,116.099,512h279.803
	C459.918,512,512,459.918,512,395.901V116.099C512,52.082,459.918,0,395.901,0z M116.099,14.573h279.803
	c55.981,0,101.526,45.544,101.526,101.526v49.71h-25.876c-4.025,0-7.286,3.262-7.286,7.286s3.262,7.286,7.286,7.286h25.876v151.236
	H14.573V180.382H438.39c4.025,0,7.287-3.262,7.287-7.286s-3.262-7.286-7.287-7.286H14.573V116.1
	C14.573,60.117,60.118,14.573,116.099,14.573z M395.901,497.427H116.099c-55.981,0-101.526-45.544-101.526-101.526v-49.71h482.854
	v49.71C497.427,451.883,451.882,497.427,395.901,497.427z"/>
<g>
</g>
<g>
</g>
<g>
</g>
<g>
</g>
<g>
</g>
<g>
</g>
<g>
</g>
<g>
</g>
<g>
</g>
<g>
</g>
<g>
</g>
<g>
</g>
<g>
</g>
<g>
</g>
<g>
</g>
</svg>
