<?xml version="1.0" encoding="iso-8859-1"?>
<!-- Generator: Adobe Illustrator 19.0.0, SVG Export Plug-In . SVG Version: 6.00 Build 0)  -->
<svg version="1.1" id="Layer_1" xmlns="http://www.w3.org/2000/svg" xmlns:xlink="http://www.w3.org/1999/xlink" x="0px" y="0px"
	 viewBox="0 0 512 512" style="enable-background:new 0 0 512 512;" xml:space="preserve">
<rect x="7.286" y="120.04" style="fill:#B21727;" width="497.43" height="271.93"/>
<g>
	<path style="fill:#FFE000;" d="M431.237,263.286H80.763c-4.024,0-7.286-3.262-7.286-7.286c0-4.025,3.262-7.286,7.286-7.286h350.474
		c4.024,0,7.286,3.262,7.286,7.286C438.524,260.025,435.261,263.286,431.237,263.286z"/>
	<path style="fill:#FFE000;" d="M398.075,230.124h-284.15c-4.024,0-7.287-3.262-7.287-7.286c0-4.025,3.262-7.287,7.287-7.287
		h284.151c4.024,0,7.287,3.262,7.287,7.287C405.362,226.862,402.1,230.124,398.075,230.124z"/>
	<path style="fill:#FFE000;" d="M7.286,395.901c0,12.872,2.241,25.219,6.345,36.68h484.738c4.103-11.461,6.345-23.808,6.345-36.68
		v-3.938H7.286V395.901z"/>
	<path style="fill:#FFE000;" d="M13.631,79.418c-4.103,11.461-6.345,23.808-6.345,36.68v3.938h497.427v-3.938
		c0-12.872-2.241-25.219-6.345-36.68H13.631z"/>
</g>
<g>
	<path style="fill:#164FCE;" d="M395.901,7.286H116.099c-47.223,0-87.414,30.085-102.468,72.132h484.738
		C483.315,37.372,443.124,7.286,395.901,7.286z"/>
	<path style="fill:#164FCE;" d="M116.099,504.714h279.803c47.223,0,87.414-30.085,102.468-72.132H13.631
		C28.684,474.628,68.875,504.714,116.099,504.714z"/>
</g>
<path style="fill:#FFFFFF;" d="M256,200.73v110.54c56.165,0,90.642-55.27,90.642-55.27S312.165,200.73,256,200.73z"/>
<path style="fill:#333333;" d="M165.358,256c0,0,34.477,55.27,90.642,55.27V200.73C199.835,200.73,165.358,256,165.358,256z"/>
<path d="M395.901,0H116.099C52.082,0,0,52.082,0,116.099v279.803C0,459.918,52.082,512,116.099,512h279.803
	C459.918,512,512,459.918,512,395.901V116.099C512,52.082,459.918,0,395.901,0z M116.099,14.573h279.803
	c54.861,0,99.691,43.741,101.465,98.177H14.634C16.408,58.314,61.238,14.573,116.099,14.573z M395.901,497.427H116.099
	c-54.861,0-99.691-43.741-101.465-98.177h25.814c4.024,0,7.286-3.262,7.286-7.286c0-4.025-3.262-7.286-7.286-7.286H14.573V127.324
	h482.854v257.353H73.61c-4.024,0-7.287,3.262-7.287,7.286c0,4.025,3.262,7.286,7.287,7.286h423.756
	C495.592,453.686,450.762,497.427,395.901,497.427z"/>
<path d="M256,318.556c59.523,0,95.33-56.303,96.824-58.699c1.473-2.361,1.473-5.353,0-7.713
	c-1.495-2.397-37.301-58.699-96.824-58.699s-95.33,56.303-96.825,58.699c-1.472,2.361-1.472,5.353,0,7.713
	C160.67,262.253,196.477,318.556,256,318.556z M256,208.017c42.987,0,72.972,35.979,81.783,47.991
	c-8.786,12.029-38.659,47.974-81.783,47.974c-42.987,0-72.972-35.979-81.783-47.991C183.004,243.962,212.877,208.017,256,208.017z"
	/>
<g>
</g>
<g>
</g>
<g>
</g>
<g>
</g>
<g>
</g>
<g>
</g>
<g>
</g>
<g>
</g>
<g>
</g>
<g>
</g>
<g>
</g>
<g>
</g>
<g>
</g>
<g>
</g>
<g>
</g>
</svg>
