<?xml version="1.0" encoding="iso-8859-1"?>
<!-- Generator: Adobe Illustrator 19.0.0, SVG Export Plug-In . SVG Version: 6.00 Build 0)  -->
<svg version="1.1" id="Layer_1" xmlns="http://www.w3.org/2000/svg" xmlns:xlink="http://www.w3.org/1999/xlink" x="0px" y="0px"
	 viewBox="0 0 512.001 512.001" style="enable-background:new 0 0 512.001 512.001;" xml:space="preserve">
<g>
	<rect x="7.286" y="305.74" style="fill:#FFE000;" width="497.43" height="99.48"/>
	<rect x="305.74" y="106.77" style="fill:#FFE000;" width="198.97" height="99.48"/>
</g>
<g>
	<rect x="305.74" y="206.26" style="fill:#259245;" width="198.97" height="99.48"/>
	<path style="fill:#259245;" d="M116.099,504.714h279.803c56.953,0,103.678-43.758,108.41-99.485H7.689
		C12.42,460.956,59.146,504.714,116.099,504.714z"/>
	<path style="fill:#259245;" d="M504.311,106.772c-4.732-55.728-51.457-99.485-108.41-99.485h-90.159v99.485H504.311z"/>
</g>
<path style="fill:#ED1F34;" d="M305.743,7.286H116.099C56.003,7.286,7.286,56.004,7.286,116.099v189.644h298.456V7.286H305.743z"/>
<polygon style="fill:#FFFFFF;" points="86.046,140.693 137.931,138.013 156.515,89.495 175.098,138.013 226.983,140.693 
	186.583,173.36 200.067,223.534 156.515,195.206 112.962,223.534 126.446,173.36 "/>
<path d="M81.464,146.36l36.715,29.686l-12.254,45.598c-0.783,2.915,0.312,6.011,2.754,7.786s5.725,1.861,8.256,0.214l39.579-25.744
	l39.579,25.744c1.21,0.787,2.592,1.178,3.973,1.178c1.506,0,3.009-0.466,4.283-1.392c2.443-1.774,3.538-4.871,2.754-7.786
	l-12.254-45.598l36.715-29.686c2.348-1.898,3.282-5.047,2.349-7.918s-3.539-4.87-6.554-5.026l-47.153-2.436l-16.887-44.091
	c-1.08-2.819-3.786-4.68-6.805-4.68c-3.018,0-5.725,1.861-6.804,4.68l-16.888,44.091l-47.153,2.436
	c-3.015,0.156-5.621,2.155-6.554,5.026C78.183,141.313,79.117,144.462,81.464,146.36z M138.308,145.289
	c2.878-0.149,5.397-1.98,6.428-4.671l11.778-30.751l11.779,30.751c1.031,2.691,3.551,4.522,6.428,4.671l32.887,1.699l-25.607,20.705
	c-2.241,1.812-3.204,4.774-2.456,7.557l8.547,31.803l-27.605-17.955c-2.416-1.571-5.53-1.571-7.946,0l-27.605,17.955l8.547-31.803
	c0.748-2.783-0.215-5.745-2.456-7.557l-25.607-20.705L138.308,145.289z"/>
<path d="M511.967,107.434c0.02-0.218,0.033-0.438,0.033-0.661v-0.001l0,0c0-0.24-0.012-0.479-0.036-0.716
	c-0.079-0.811-0.296-1.581-0.62-2.292C505.165,45.524,455.752,0,395.901,0H116.099C52.082,0,0,52.082,0,116.099v279.803
	c0,2.511,0.089,5.001,0.247,7.473C0.091,403.967,0,404.586,0,405.228c0,1.074,0.238,2.091,0.656,3.009
	C6.835,466.477,56.248,512,116.099,512h279.803c59.851,0,109.264-45.524,115.443-103.763c0.417-0.918,0.656-1.935,0.656-3.009
	c0-0.642-0.091-1.261-0.247-1.854c0.158-2.471,0.247-4.962,0.247-7.473V116.099c0-2.511-0.089-5.001-0.247-7.473
	c0.097-0.37,0.173-0.749,0.211-1.139C511.966,107.469,511.965,107.452,511.967,107.434z M497.427,116.099v82.872H313.029v-84.912
	h184.372C497.414,114.738,497.427,115.416,497.427,116.099z M313.029,213.544h184.397v84.913H313.029V213.544z M496.06,99.486
	H313.029V14.573h82.872C446.226,14.573,488.108,51.381,496.06,99.486z M116.099,14.573h182.358v283.883H14.573V116.099
	C14.573,60.118,60.117,14.573,116.099,14.573z M395.901,497.427H116.099c-50.324,0-92.206-36.807-100.159-84.913h41.09
	c4.024,0,7.286-3.262,7.286-7.286c0-4.025-3.262-7.286-7.286-7.286H14.6c-0.014-0.679-0.026-1.358-0.026-2.04V313.03h482.854v82.872
	c0,0.682-0.012,1.361-0.026,2.04h-390.63c-4.024,0-7.287,3.262-7.287,7.286c0,4.025,3.262,7.286,7.287,7.286H496.06
	C488.108,460.62,446.226,497.427,395.901,497.427z"/>
<g>
</g>
<g>
</g>
<g>
</g>
<g>
</g>
<g>
</g>
<g>
</g>
<g>
</g>
<g>
</g>
<g>
</g>
<g>
</g>
<g>
</g>
<g>
</g>
<g>
</g>
<g>
</g>
<g>
</g>
</svg>
