<?xml version="1.0" encoding="iso-8859-1"?>
<!-- Generator: Adobe Illustrator 19.0.0, SVG Export Plug-In . SVG Version: 6.00 Build 0)  -->
<svg version="1.1" id="Layer_1" xmlns="http://www.w3.org/2000/svg" xmlns:xlink="http://www.w3.org/1999/xlink" x="0px" y="0px"
	 viewBox="0 0 512 512" style="enable-background:new 0 0 512 512;" xml:space="preserve">
<rect x="7.286" y="173.1" style="fill:#FFFFFF;" width="497.43" height="165.81"/>
<path style="fill:#ED1F34;" d="M395.901,7.286H116.099C56.003,7.286,7.286,56.004,7.286,116.099v56.997h497.427v-56.997
	C504.713,56.004,455.997,7.286,395.901,7.286z"/>
<path style="fill:#259245;" d="M7.286,395.901c0,60.095,48.717,108.812,108.812,108.812h279.803
	c60.095,0,108.812-48.717,108.812-108.812v-56.997H7.286V395.901z"/>
<path d="M395.901,0H116.099C52.082,0,0,52.082,0,116.099v279.803C0,459.918,52.082,512,116.099,512h279.803
	C459.918,512,512,459.918,512,395.901V116.099C512,52.082,459.918,0,395.901,0z M116.099,14.573h279.803
	c55.982,0,101.526,45.544,101.526,101.526v49.71H14.573v-49.71C14.573,60.117,60.117,14.573,116.099,14.573z M395.901,497.427
	H116.099c-55.981,0-101.526-45.544-101.526-101.526v-49.71H438.39c4.024,0,7.287-3.262,7.287-7.287c0-4.024-3.262-7.286-7.287-7.286
	H14.573V180.382h482.854v151.236h-25.875c-4.024,0-7.286,3.262-7.286,7.286c0,4.024,3.262,7.287,7.286,7.287h25.875v49.71
	C497.427,451.883,451.883,497.427,395.901,497.427z"/>
<g>
	<path style="fill:#FFE000;" d="M256,215.616c4.475,0,8.116-3.64,8.116-8.115s-3.641-8.116-8.116-8.116s-8.116,3.641-8.116,8.116
		C247.884,211.976,251.525,215.616,256,215.616z"/>
	<path style="fill:#FFE000;" d="M219.348,223.604c1.209,0,2.424-0.277,3.524-0.805c1.951-0.941,3.42-2.585,4.136-4.631
		c0.716-2.047,0.592-4.251-0.348-6.202c-1.344-2.791-4.215-4.594-7.313-4.594c-1.209,0-2.424,0.277-3.524,0.805
		c-4.031,1.944-5.73,6.804-3.788,10.832C213.38,221.801,216.25,223.604,219.348,223.604z"/>
	<path style="fill:#FFE000;" d="M194.853,232.245c-1.433-1.143-3.23-1.773-5.063-1.773c-2.483,0-4.795,1.113-6.35,3.061
		c-2.786,3.499-2.207,8.613,1.289,11.4c1.432,1.141,3.229,1.77,5.059,1.77c2.482,0,4.794-1.113,6.346-3.056
		C198.925,240.148,198.349,235.032,194.853,232.245z"/>
	<path style="fill:#FFE000;" d="M174.99,264.312c-0.592-0.136-1.201-0.204-1.808-0.204c-3.809,0-7.062,2.594-7.91,6.308
		c-0.997,4.363,1.741,8.723,6.104,9.719c0.592,0.136,1.201,0.204,1.808,0.204c3.813,0,7.066-2.597,7.91-6.308
		C182.091,269.668,179.352,265.308,174.99,264.312z"/>
	<path style="fill:#FFE000;" d="M289.137,222.803c1.09,0.524,2.306,0.801,3.514,0.801c0,0,0,0,0.001,0
		c3.098,0,5.968-1.804,7.311-4.592c1.943-4.031,0.245-8.891-3.795-10.839c-1.091-0.524-2.306-0.801-3.515-0.801
		c-3.098,0-5.968,1.804-7.311,4.591c-0.942,1.954-1.066,4.157-0.35,6.204C285.708,220.214,287.177,221.858,289.137,222.803z"/>
	<path style="fill:#FFE000;" d="M322.209,230.471c-1.832,0-3.63,0.63-5.059,1.77c-3.499,2.79-4.076,7.906-1.283,11.409
		c1.548,1.939,3.86,3.052,6.343,3.052c1.831,0,3.628-0.629,5.058-1.77c3.497-2.788,4.076-7.902,1.284-11.409
		C327.004,231.584,324.692,230.471,322.209,230.471z"/>
	<path style="fill:#FFE000;" d="M346.729,270.416c-0.849-3.714-4.101-6.308-7.91-6.308c-0.608,0-1.216,0.068-1.808,0.204
		c-4.363,0.997-7.101,5.357-6.106,9.712c0.846,3.719,4.1,6.315,7.912,6.315c0.607,0,1.216-0.068,1.808-0.204
		C344.988,279.138,347.726,274.779,346.729,270.416z"/>
	<path style="fill:#FFE000;" d="M303.544,298.702c-12.647-6.87-26.742-10.957-41.148-11.995v-31.122
		c0-4.024-3.262-7.286-7.286-7.286s-7.286,3.262-7.286,7.286v31.122c-14.575,1.049-28.823,5.219-41.589,12.236
		c-3.527,1.939-4.814,6.369-2.876,9.896c1.327,2.413,3.82,3.778,6.392,3.778c1.186,0,2.39-0.29,3.503-0.902
		c12.742-7.004,27.215-10.706,41.855-10.706c14.49,0,28.834,3.63,41.478,10.5c3.538,1.923,7.96,0.611,9.881-2.925
		C308.389,305.047,307.08,300.623,303.544,298.702z"/>
</g>
<g>
</g>
<g>
</g>
<g>
</g>
<g>
</g>
<g>
</g>
<g>
</g>
<g>
</g>
<g>
</g>
<g>
</g>
<g>
</g>
<g>
</g>
<g>
</g>
<g>
</g>
<g>
</g>
<g>
</g>
</svg>
