<?xml version="1.0" encoding="iso-8859-1"?>
<!-- Generator: Adobe Illustrator 19.0.0, SVG Export Plug-In . SVG Version: 6.00 Build 0)  -->
<svg version="1.1" id="Layer_1" xmlns="http://www.w3.org/2000/svg" xmlns:xlink="http://www.w3.org/1999/xlink" x="0px" y="0px"
	 viewBox="0 0 512 512" style="enable-background:new 0 0 512 512;" xml:space="preserve">
<path style="fill:#103B9B;" d="M395.901,7.286H116.099C56.003,7.286,7.286,56.004,7.286,116.099v279.803
	c0,60.095,48.717,108.812,108.812,108.812h279.803c60.095,0,108.812-48.717,108.812-108.812V116.099
	C504.714,56.004,455.997,7.286,395.901,7.286z"/>
<g>
	<circle style="fill:#FFFFFF;" cx="121.25" cy="89.89" r="12.781"/>
	<circle style="fill:#FFFFFF;" cx="121.25" cy="243.26" r="12.781"/>
	<circle style="fill:#FFFFFF;" cx="159.6" cy="121.84" r="12.781"/>
	<circle style="fill:#FFFFFF;" cx="82.911" cy="153.79" r="12.781"/>
</g>
<g>
	<path style="fill:#FFE000;" d="M430.361,292.759c0-38.669,6.6-75.791,18.698-110.33L179.388,374.71
		c-4.183,3.003-6.922,7.889-6.922,13.426c0,9.1,7.377,16.478,16.478,16.478h260.652
		C437.155,369.644,430.361,331.998,430.361,292.759z"/>
	<path style="fill:#FFE000;" d="M449.596,444.374h-277.13c-4.024,0-7.286-3.262-7.286-7.286c0-4.025,3.262-7.286,7.286-7.286h277.13
		c4.025,0,7.287,3.262,7.287,7.286C456.882,441.112,453.621,444.374,449.596,444.374z"/>
</g>
<path d="M437.647,292.759c0-36.965,6.153-73.275,18.288-107.921c1.05-2.997,0.038-6.328-2.501-8.235
	c-2.541-1.908-6.021-1.95-8.606-0.106L175.138,368.79c-6.236,4.477-9.959,11.709-9.959,19.345c0,13.103,10.66,23.764,23.764,23.764
	h260.653c2.368,0,4.588-1.151,5.953-3.085c1.365-1.935,1.705-4.413,0.912-6.643C443.977,367.082,437.647,330.27,437.647,292.759z
	 M188.943,397.326c-5.068,0-9.191-4.123-9.191-9.191c0-2.998,1.416-5.734,3.865-7.493L435.592,200.98
	c-8.313,29.777-12.518,60.557-12.518,91.779c0,35.73,5.499,70.855,16.36,104.567H188.943z"/>
<path d="M395.901,0H116.099C52.082,0,0,52.082,0,116.099v279.803C0,459.918,52.082,512,116.099,512h279.803
	C459.918,512,512,459.918,512,395.901V116.099C512,52.082,459.918,0,395.901,0z M497.427,395.901
	c0,55.981-45.545,101.526-101.526,101.526H116.099c-55.982,0-101.526-45.545-101.526-101.526V116.099
	c0-55.981,45.544-101.526,101.526-101.526h279.803c55.981,0,101.526,45.544,101.526,101.526v279.802H497.427z"/>
<g>
</g>
<g>
</g>
<g>
</g>
<g>
</g>
<g>
</g>
<g>
</g>
<g>
</g>
<g>
</g>
<g>
</g>
<g>
</g>
<g>
</g>
<g>
</g>
<g>
</g>
<g>
</g>
<g>
</g>
</svg>
