<?xml version="1.0" encoding="iso-8859-1"?>
<!-- Generator: Adobe Illustrator 19.0.0, SVG Export Plug-In . SVG Version: 6.00 Build 0)  -->
<svg version="1.1" id="Layer_1" xmlns="http://www.w3.org/2000/svg" xmlns:xlink="http://www.w3.org/1999/xlink" x="0px" y="0px"
	 viewBox="0 0 512 512" style="enable-background:new 0 0 512 512;" xml:space="preserve">
<path style="fill:#ED1F34;" d="M395.901,7.286H116.099C56.003,7.286,7.286,56.004,7.286,116.099v279.803
	c0,60.095,48.717,108.812,108.812,108.812h279.803c60.095,0,108.812-48.717,108.812-108.812V116.099
	C504.714,56.004,455.997,7.286,395.901,7.286z"/>
<path style="fill:#FFE000;" d="M43.589,34.974C21.312,54.899,7.286,83.86,7.286,116.099v279.803
	c0,32.239,14.025,61.199,36.302,81.124L333.378,256L43.589,34.974z"/>
<path style="fill:#333333;" d="M35.689,42.79C18.047,62.131,7.286,87.858,7.286,116.099v279.803
	c0,28.241,10.761,53.968,28.403,73.308L206.257,256L35.689,42.79z"/>
<circle style="fill:#FFFFFF;" cx="86.64" cy="256" r="36.767"/>
<path d="M395.901,0H116.099C86.746,0,59.907,10.955,39.443,28.984c-0.463,0.321-0.892,0.701-1.281,1.137
	c-2.506,2.274-4.908,4.66-7.208,7.143c-0.469,0.4-0.876,0.847-1.217,1.33C11.26,59.162,0,86.339,0,116.099v279.803
	c0,29.76,11.26,56.936,29.737,77.505c0.341,0.483,0.748,0.93,1.217,1.33c2.309,2.491,4.72,4.886,7.236,7.168
	c0.365,0.405,0.767,0.758,1.197,1.063C59.859,501.025,86.719,512,116.099,512h279.803C459.918,512,512,459.918,512,395.901V116.099
	C512,52.082,459.918,0,395.901,0z M211.947,251.448L50.032,49.054L321.362,256L50.032,462.946l161.915-202.394
	C214.076,257.891,214.076,254.109,211.947,251.448z M14.573,116.099c0-23.224,7.844-44.647,21.014-61.772L196.926,256
	L35.587,457.674c-13.17-17.125-21.014-38.548-21.014-61.772C14.573,395.902,14.573,116.099,14.573,116.099z M497.427,395.901
	c0,55.981-45.545,101.526-101.526,101.526H116.099c-22.755,0-43.786-7.526-60.735-20.218l282.433-215.415
	c1.806-1.379,2.867-3.521,2.867-5.794s-1.061-4.416-2.867-5.794L55.364,34.791c16.949-12.693,37.979-20.218,60.735-20.218h279.803
	c55.981,0,101.526,45.544,101.526,101.526v279.802H497.427z"/>
<g>
</g>
<g>
</g>
<g>
</g>
<g>
</g>
<g>
</g>
<g>
</g>
<g>
</g>
<g>
</g>
<g>
</g>
<g>
</g>
<g>
</g>
<g>
</g>
<g>
</g>
<g>
</g>
<g>
</g>
</svg>
