<?xml version="1.0" encoding="iso-8859-1"?>
<!-- Generator: Adobe Illustrator 19.0.0, SVG Export Plug-In . SVG Version: 6.00 Build 0)  -->
<svg version="1.1" id="Layer_1" xmlns="http://www.w3.org/2000/svg" xmlns:xlink="http://www.w3.org/1999/xlink" x="0px" y="0px"
	 viewBox="0 0 512 512" style="enable-background:new 0 0 512 512;" xml:space="preserve">
<path style="fill:#259245;" d="M395.901,7.286H116.099C56.003,7.286,7.286,56.004,7.286,116.099v279.803
	c0,60.095,48.717,108.812,108.812,108.812h279.803c60.095,0,108.812-48.717,108.812-108.812V116.099
	C504.714,56.004,455.997,7.286,395.901,7.286z"/>
<path style="fill:#ED1F34;" d="M116.099,7.286c-19.465,0-37.734,5.116-53.543,14.07v469.287c15.809,8.954,34.077,14.07,53.543,14.07
	h45.943V7.286H116.099z"/>
<path style="fill:#FFFFFF;" d="M228.975,165.785c16.961,16.961,44.461,16.961,61.423,0c16.962-16.962,16.961-44.461,0-61.422
	c-0.51-0.51-1.031-1.003-1.56-1.483c7.95,2.227,15.457,6.456,21.71,12.709c19.426,19.426,19.425,50.921,0,70.346
	c-19.426,19.426-50.921,19.426-70.347,0c-6.253-6.253-10.482-13.76-12.709-21.71C227.971,164.753,228.465,165.274,228.975,165.785z"
	/>
<path style="fill:#F2A643;" d="M128.88,440.939H95.718c-4.025,0-7.286-3.262-7.286-7.286s3.262-7.286,7.286-7.286h33.161
	c4.025,0,7.286,3.262,7.286,7.286S132.904,440.939,128.88,440.939z"/>
<g>
	<path style="fill:#259245;" d="M128.88,369.878H95.718c-4.025,0-7.286-3.262-7.286-7.286c0-4.024,3.262-7.287,7.286-7.287h33.161
		c4.025,0,7.286,3.262,7.286,7.287C136.166,366.616,132.904,369.878,128.88,369.878z"/>
	<path style="fill:#259245;" d="M128.88,298.817H95.718c-4.025,0-7.286-3.262-7.286-7.286s3.262-7.286,7.286-7.286h33.161
		c4.025,0,7.286,3.262,7.286,7.286S132.904,298.817,128.88,298.817z"/>
	<path style="fill:#259245;" d="M128.88,227.756H95.718c-4.025,0-7.286-3.262-7.286-7.286s3.262-7.286,7.286-7.286h33.161
		c4.025,0,7.286,3.262,7.286,7.286S132.904,227.756,128.88,227.756z"/>
	<path style="fill:#259245;" d="M128.88,156.695H95.718c-4.025,0-7.286-3.262-7.286-7.287c0-4.024,3.262-7.286,7.286-7.286h33.161
		c4.025,0,7.286,3.262,7.286,7.286C136.166,153.433,132.904,156.695,128.88,156.695z"/>
	<path style="fill:#259245;" d="M128.88,85.634H95.718c-4.025,0-7.286-3.262-7.286-7.286s3.262-7.287,7.286-7.287h33.161
		c4.025,0,7.286,3.262,7.286,7.287C136.166,82.372,132.904,85.634,128.88,85.634z"/>
</g>
<path d="M395.901,0H116.099C95.637,0,76.4,5.328,59.688,14.658c-0.462,0.198-0.897,0.445-1.304,0.73
	C23.523,35.444,0,73.076,0,116.099v279.803c0,43.022,23.522,80.654,58.382,100.71c0.408,0.286,0.845,0.534,1.309,0.733
	C76.402,506.673,95.638,512,116.099,512h279.803C459.918,512,512,459.918,512,395.901V116.099C512,52.082,459.918,0,395.901,0z
	 M14.573,395.901V116.099c0-33.183,16.003-62.698,40.696-81.235v442.273C30.577,458.599,14.573,429.085,14.573,395.901z
	 M69.842,486.263V25.737c13.88-7.134,29.606-11.164,46.256-11.164h38.657v482.854h-38.657
	C99.449,497.427,83.723,493.397,69.842,486.263z M497.427,395.901c0,55.982-45.545,101.526-101.526,101.526H169.328V14.573h226.573
	c55.981,0,101.526,45.544,101.526,101.526V395.901z"/>
<path d="M290.804,95.862c-3.257-0.913-6.706,0.534-8.342,3.489c-1.636,2.956-1.025,6.649,1.476,8.921
	c0.443,0.402,0.88,0.816,1.307,1.242c14.094,14.094,14.094,37.025,0,51.118c-6.827,6.827-15.901,10.587-25.554,10.587
	c-0.001,0-0.003,0-0.004,0c-9.656-0.001-18.733-3.761-25.561-10.588c-0.427-0.427-0.84-0.864-1.242-1.306
	c-2.271-2.5-5.963-3.112-8.92-1.476c-2.955,1.635-4.4,5.088-3.489,8.341c2.628,9.382,7.667,17.992,14.573,24.897
	c10.771,10.771,25.092,16.704,40.325,16.704s29.554-5.932,40.326-16.704c10.77-10.771,16.703-25.092,16.703-40.325
	s-5.932-29.555-16.703-40.326C308.795,103.53,300.186,98.491,290.804,95.862z M305.395,180.782
	c-8.019,8.019-18.68,12.435-30.021,12.436c-9.221,0-17.993-2.92-25.261-8.322c3.122,0.593,6.325,0.897,9.573,0.897
	c0.001,0,0.003,0,0.005,0c13.545,0,26.28-5.276,35.86-14.855c12.343-12.344,16.983-29.517,13.915-45.493
	c5.43,7.279,8.364,16.072,8.364,25.318C317.83,162.102,313.414,172.763,305.395,180.782z"/>
<g>
	<circle style="fill:#FFFFFF;" cx="259.69" cy="103.39" r="8.29"/>
	<circle style="fill:#FFFFFF;" cx="226.76" cy="132.91" r="8.29"/>
	<circle style="fill:#FFFFFF;" cx="236.24" cy="79.944" r="8.29"/>
	<circle style="fill:#FFFFFF;" cx="203.31" cy="109.46" r="8.29"/>
	<circle style="fill:#FFFFFF;" cx="232.35" cy="107.28" r="8.29"/>
</g>
<g>
</g>
<g>
</g>
<g>
</g>
<g>
</g>
<g>
</g>
<g>
</g>
<g>
</g>
<g>
</g>
<g>
</g>
<g>
</g>
<g>
</g>
<g>
</g>
<g>
</g>
<g>
</g>
<g>
</g>
</svg>
