<?xml version="1.0" encoding="iso-8859-1"?>
<!-- Generator: Adobe Illustrator 19.0.0, SVG Export Plug-In . SVG Version: 6.00 Build 0)  -->
<svg version="1.1" id="Layer_1" xmlns="http://www.w3.org/2000/svg" xmlns:xlink="http://www.w3.org/1999/xlink" x="0px" y="0px"
	 viewBox="0 0 512 512" style="enable-background:new 0 0 512 512;" xml:space="preserve">
<path style="fill:#ED1F34;" d="M395.901,7.286H116.099C56.003,7.286,7.286,56.004,7.286,116.099v279.803
	c0,60.095,48.717,108.812,108.812,108.812h279.803c60.095,0,108.812-48.717,108.812-108.812V116.099
	C504.714,56.004,455.997,7.286,395.901,7.286z"/>
<path d="M395.901,512H116.099C52.082,512,0,459.918,0,395.901V116.099C0,52.082,52.082,0,116.099,0h279.803
	C459.918,0,512,52.082,512,116.099v279.803C512,459.918,459.918,512,395.901,512z M116.099,14.573
	c-55.981,0-101.526,45.544-101.526,101.526v279.803c0,55.982,45.544,101.526,101.526,101.526h279.803
	c55.981,0,101.526-45.544,101.526-101.526V116.099c0-55.982-45.545-101.526-101.526-101.526
	C395.902,14.573,116.099,14.573,116.099,14.573z"/>
<circle style="fill:#FFFFFF;" cx="256" cy="256" r="115.51"/>
<path style="fill:#ED1F34;" d="M288.253,321.746c-36.31,0-65.746-29.435-65.746-65.746s29.435-65.746,65.746-65.746
	c11.052,0,21.459,2.74,30.601,7.557c-15.648-16.894-38.01-27.48-62.854-27.48c-47.313,0-85.668,38.354-85.668,85.668
	c0,47.313,38.355,85.668,85.668,85.668c24.844,0,47.206-10.586,62.854-27.48C309.712,319.006,299.305,321.746,288.253,321.746z"/>
<path d="M256,348.954c-51.255,0-92.954-41.699-92.954-92.954s41.699-92.954,92.954-92.954c25.639,0,50.354,10.737,67.886,29.478
	c1.4,1.328,2.273,3.206,2.273,5.289c0,3.974-3.182,7.206-7.138,7.285c-1.215,0.033-2.434-0.242-3.564-0.839
	c-8.458-4.457-17.611-6.717-27.205-6.717c-32.234,0-58.459,26.225-58.459,58.459s26.225,58.459,58.459,58.459
	c9.594,0,18.747-2.26,27.205-6.717c3.139-1.654,7.017-0.806,9.178,2.012c2.16,2.817,1.976,6.781-0.437,9.386
	C306.649,338.087,281.791,348.954,256,348.954z M256,177.619c-43.22,0-78.381,35.162-78.381,78.381S212.78,334.381,256,334.381
	c9.865,0,19.568-1.886,28.608-5.439c-38.583-1.905-69.388-33.894-69.388-72.943s30.805-71.038,69.389-72.943
	C275.568,179.504,265.865,177.619,256,177.619z"/>
<polygon style="fill:#ED1F34;" points="301.39,221.733 300.087,246.964 276.497,256 300.087,265.036 301.39,290.267 
	317.273,270.621 341.668,277.178 327.895,256 341.668,234.822 317.273,241.379 "/>
<path d="M301.389,297.554c-0.751,0-1.51-0.117-2.251-0.357c-2.871-0.933-4.87-3.539-5.026-6.554l-1.058-20.497l-19.164-7.341
	c-2.819-1.08-4.68-3.786-4.68-6.805s1.862-5.724,4.68-6.805l19.164-7.341l1.058-20.497c0.156-3.015,2.155-5.621,5.026-6.554
	c2.87-0.932,6.02,0.001,7.918,2.349l12.903,15.96l19.817-5.327c2.917-0.782,6.012,0.312,7.786,2.754
	c1.774,2.442,1.86,5.725,0.214,8.256L336.586,256l10.927,16.801c0.917,1.219,1.46,2.734,1.46,4.377c0,3.98-3.192,7.216-7.156,7.285
	c-0.674,0.013-1.363-0.067-2.041-0.249l-19.817-5.327l-12.903,15.96C305.648,296.59,303.55,297.554,301.389,297.554z M296.867,256
	l5.826,2.232c2.692,1.031,4.522,3.551,4.671,6.429l0.322,6.23l3.921-4.85c1.812-2.241,4.774-3.204,7.558-2.455l6.024,1.619
	l-3.402-5.232c-1.571-2.416-1.571-5.529,0-7.945l3.402-5.231l-6.024,1.619c-2.785,0.748-5.746-0.214-7.558-2.455l-3.921-4.85
	l-0.322,6.23c-0.149,2.878-1.979,5.398-4.671,6.429L296.867,256z"/>
<g>
</g>
<g>
</g>
<g>
</g>
<g>
</g>
<g>
</g>
<g>
</g>
<g>
</g>
<g>
</g>
<g>
</g>
<g>
</g>
<g>
</g>
<g>
</g>
<g>
</g>
<g>
</g>
<g>
</g>
</svg>
