<?xml version="1.0" encoding="iso-8859-1"?>
<!-- Generator: Adobe Illustrator 19.0.0, SVG Export Plug-In . SVG Version: 6.00 Build 0)  -->
<svg version="1.1" id="Layer_1" xmlns="http://www.w3.org/2000/svg" xmlns:xlink="http://www.w3.org/1999/xlink" x="0px" y="0px"
	 viewBox="0 0 512 512" style="enable-background:new 0 0 512 512;" xml:space="preserve">
<path style="fill:#ED1F34;" d="M395.901,7.286H116.099C56.003,7.286,7.286,56.004,7.286,116.099v279.803
	c0,60.095,48.717,108.812,108.812,108.812h279.803c60.095,0,108.812-48.717,108.812-108.812V116.099
	C504.714,56.004,455.997,7.286,395.901,7.286z"/>
<path style="fill:#FFFFFF;" d="M223.115,7.286H116.094C56.001,7.289,7.286,56.005,7.286,116.099V256h215.829L223.115,7.286
	L223.115,7.286z"/>
<path style="fill:#ED1F34;" d="M153.889,126.947h-31.402V95.545c0-4.024-3.262-7.287-7.286-7.287c-4.025,0-7.287,3.262-7.287,7.287
	v31.402H76.511c-4.025,0-7.286,3.262-7.286,7.287s3.262,7.286,7.286,7.286h31.402v31.402c0,4.024,3.262,7.286,7.287,7.286
	s7.286-3.262,7.286-7.286V141.52h31.402c4.025,0,7.286-3.262,7.286-7.286S157.914,126.947,153.889,126.947z"/>
<path d="M395.901,0H116.099C52.082,0,0,52.082,0,116.099v279.803C0,459.918,52.082,512,116.099,512h279.803
	C459.918,512,512,459.918,512,395.901V116.099C512,52.082,459.918,0,395.901,0z M116.099,14.573h99.73v234.14H14.573V116.099
	C14.573,60.117,60.118,14.573,116.099,14.573z M497.427,395.901c0,55.982-45.545,101.526-101.526,101.526H116.099
	c-55.981,0-101.526-45.544-101.526-101.526V263.286h208.542c4.025,0,7.286-3.262,7.286-7.286V14.573h165.5
	c55.981,0,101.526,45.544,101.526,101.526V395.901z"/>
<g>
</g>
<g>
</g>
<g>
</g>
<g>
</g>
<g>
</g>
<g>
</g>
<g>
</g>
<g>
</g>
<g>
</g>
<g>
</g>
<g>
</g>
<g>
</g>
<g>
</g>
<g>
</g>
<g>
</g>
</svg>
