<?xml version="1.0" encoding="iso-8859-1"?>
<!-- Generator: Adobe Illustrator 19.0.0, SVG Export Plug-In . SVG Version: 6.00 Build 0)  -->
<svg version="1.1" id="Layer_1" xmlns="http://www.w3.org/2000/svg" xmlns:xlink="http://www.w3.org/1999/xlink" x="0px" y="0px"
	 viewBox="0 0 512 512" style="enable-background:new 0 0 512 512;" xml:space="preserve">
<path style="fill:#ED1F34;" d="M395.901,7.286H116.099C56.003,7.286,7.286,56.003,7.286,116.099v279.803
	c0,60.095,48.717,108.812,108.812,108.812h279.803c60.095,0,108.812-48.717,108.812-108.812V116.099
	C504.714,56.003,455.997,7.286,395.901,7.286z"/>
<g>
	<path style="fill:#FFFFFF;" d="M210.126,337.996c-45.285,0-81.997-36.711-81.997-81.996s36.711-81.997,81.997-81.997
		c22.333,0,42.569,8.94,57.356,23.421c-19.603-31.521-54.536-52.517-94.387-52.517c-61.354,0-111.092,49.737-111.092,111.092
		s49.738,111.092,111.092,111.092c39.851,0,74.784-20.996,94.387-52.517C252.695,329.056,232.459,337.996,210.126,337.996z"/>
	<polygon style="fill:#FFFFFF;" points="277.713,256 310.058,243.611 311.845,209.021 333.623,235.955 367.073,226.965 348.187,256 
		367.073,285.035 333.623,276.045 311.845,302.979 310.058,268.389 	"/>
</g>
<path d="M311.844,310.266c-0.751,0-1.51-0.117-2.25-0.357c-2.871-0.933-4.87-3.539-5.026-6.554l-1.543-29.858l-27.919-10.693
	c-2.819-1.08-4.68-3.786-4.68-6.805s1.862-5.725,4.68-6.805l27.919-10.693l1.543-29.858c0.156-3.015,2.155-5.621,5.026-6.554
	c2.87-0.933,6.02,0.001,7.917,2.348l18.797,23.248l28.873-7.759c2.915-0.783,6.011,0.312,7.786,2.754
	c1.774,2.442,1.859,5.725,0.213,8.256L356.879,256l16.302,25.062c1.646,2.53,1.561,5.814-0.213,8.256
	c-1.774,2.443-4.874,3.536-7.786,2.754l-28.873-7.759l-18.797,23.248C316.103,309.302,314.006,310.266,311.844,310.266z
	 M298.085,256l14.579,5.584c2.691,1.031,4.522,3.551,4.671,6.428l0.805,15.592l9.816-12.141c1.812-2.24,4.773-3.203,7.557-2.455
	l15.078,4.052l-8.513-13.088c-1.571-2.416-1.571-5.53,0-7.946l8.513-13.088l-15.078,4.052c-2.783,0.745-5.745-0.215-7.557-2.455
	l-9.816-12.141l-0.805,15.592c-0.149,2.878-1.98,5.397-4.671,6.428L298.085,256z"/>
<path d="M395.901,0H116.099C52.082,0,0,52.082,0,116.099v279.803C0,459.918,52.082,512,116.099,512h279.803
	C459.918,512,512,459.918,512,395.901V116.099C512,52.082,459.918,0,395.901,0z M497.427,395.901
	c0,55.982-45.544,101.526-101.526,101.526H116.099c-55.982,0-101.526-45.544-101.526-101.526V116.099
	c0-55.982,45.544-101.526,101.526-101.526h279.803c55.981,0,101.526,45.544,101.526,101.526v279.802H497.427z"/>
<path d="M122.671,237.953c-0.81,3.942,1.73,7.794,5.672,8.604c3.939,0.806,7.794-1.73,8.603-5.672
	c7.092-34.532,37.868-59.595,73.18-59.595c19.646,0,38.205,7.579,52.258,21.341c2.635,2.581,6.782,2.785,9.658,0.478
	c2.876-2.308,3.575-6.4,1.628-9.532c-21.79-35.038-59.388-55.956-100.575-55.956c-65.274,0-118.379,53.104-118.379,118.379
	s53.104,118.379,118.379,118.379c41.186,0,78.785-20.918,100.575-55.956c1.948-3.131,1.249-7.224-1.628-9.532
	c-2.877-2.308-7.024-2.103-9.658,0.478c-14.053,13.762-32.612,21.342-52.258,21.342c-35.312,0-66.089-25.063-73.18-59.595
	c-0.809-3.942-4.662-6.479-8.603-5.672c-3.942,0.809-6.481,4.661-5.672,8.603c8.477,41.277,45.257,71.236,87.455,71.236
	c6.627,0,13.151-0.721,19.479-2.127c-16.516,10.734-36.008,16.649-56.51,16.649C115.857,359.806,69.29,313.239,69.29,256
	s46.567-103.805,103.806-103.805c20.505,0,39.993,5.912,56.51,16.649c-6.328-1.406-12.853-2.127-19.48-2.127
	C167.928,166.717,131.148,196.676,122.671,237.953z"/>
<g>
</g>
<g>
</g>
<g>
</g>
<g>
</g>
<g>
</g>
<g>
</g>
<g>
</g>
<g>
</g>
<g>
</g>
<g>
</g>
<g>
</g>
<g>
</g>
<g>
</g>
<g>
</g>
<g>
</g>
</svg>
