<?xml version="1.0" encoding="iso-8859-1"?>
<!-- Generator: Adobe Illustrator 19.0.0, SVG Export Plug-In . SVG Version: 6.00 Build 0)  -->
<svg version="1.1" id="Layer_1" xmlns="http://www.w3.org/2000/svg" xmlns:xlink="http://www.w3.org/1999/xlink" x="0px" y="0px"
	 viewBox="0 0 512.001 512.001" style="enable-background:new 0 0 512.001 512.001;" xml:space="preserve">
<path style="fill:#ED1F34;" d="M395.902,7.286H116.099C56.004,7.286,7.287,56.004,7.287,116.099v279.803
	c0,60.095,48.717,108.812,108.812,108.812h279.803c60.095,0,108.812-48.717,108.812-108.812V116.099
	C504.714,56.004,455.997,7.286,395.902,7.286z"/>
<g>
	<path style="fill:#FFFFFF;" d="M32.895,45.985l303.556,458.729h37.583L56.589,24.996C47.703,30.812,39.72,37.894,32.895,45.985z"/>
	<path style="fill:#FFFFFF;" d="M137.967,7.286l317.445,479.717c8.887-5.816,16.869-12.898,23.694-20.989L175.55,7.286H137.967z"/>
</g>
<path style="fill:#333333;" d="M116.099,7.286c-21.966,0-42.408,6.515-59.51,17.71l317.445,479.717h21.867
	c21.966,0,42.408-6.515,59.51-17.71L137.967,7.286H116.099z"/>
<path d="M395.902,0H138.035c-0.008,0-0.015,0-0.023,0h-21.913C92.966,0,71.394,6.804,53.272,18.511
	c-0.239,0.122-0.474,0.256-0.704,0.408c-0.223,0.147-0.433,0.306-0.635,0.473C20.656,40.215,0.001,75.787,0.001,116.099v279.803
	C0.001,459.918,52.082,512,116.099,512h257.928c0.005,0,0.01,0.001,0.016,0.001c0.004,0,0.009-0.001,0.013-0.001h21.845
	c23.194,0,44.819-6.841,62.97-18.605c0.188-0.102,0.38-0.194,0.561-0.314c0.223-0.148,0.434-0.307,0.636-0.474
	C491.346,471.784,512,436.212,512,395.901V116.099C512,52.082,459.919,0,395.902,0z M14.574,395.901V116.099
	c0-32.917,15.751-62.22,40.107-80.783l305.797,462.111H116.099C60.118,497.427,14.574,451.882,14.574,395.901z M377.952,497.427
	L66.873,27.333c14.59-8.123,31.376-12.76,49.226-12.76h17.949l311.08,470.094c-14.59,8.123-31.376,12.76-49.226,12.76H377.952z
	 M497.427,395.901c0,32.917-15.751,62.22-40.107,80.783L151.523,14.573h244.379c55.981,0,101.526,45.545,101.526,101.526
	L497.427,395.901L497.427,395.901z"/>
<g>
</g>
<g>
</g>
<g>
</g>
<g>
</g>
<g>
</g>
<g>
</g>
<g>
</g>
<g>
</g>
<g>
</g>
<g>
</g>
<g>
</g>
<g>
</g>
<g>
</g>
<g>
</g>
<g>
</g>
</svg>
