<?xml version="1.0" encoding="iso-8859-1"?>
<!-- Generator: Adobe Illustrator 19.0.0, SVG Export Plug-In . SVG Version: 6.00 Build 0)  -->
<svg version="1.1" id="Layer_1" xmlns="http://www.w3.org/2000/svg" xmlns:xlink="http://www.w3.org/1999/xlink" x="0px" y="0px"
	 viewBox="0 0 512 512" style="enable-background:new 0 0 512 512;" xml:space="preserve">
<path style="fill:#ED1F34;" d="M395.901,7.286H116.099C56.003,7.286,7.286,56.004,7.286,116.099v279.803
	c0,60.095,48.717,108.812,108.812,108.812h279.803c60.095,0,108.812-48.717,108.812-108.812V116.099
	C504.713,56.004,455.997,7.286,395.901,7.286z"/>
<path style="fill:#103B9B;" d="M312.401,7.294H115.494C55.677,7.621,7.286,56.206,7.286,116.099v139.909H312.4L312.401,7.294
	L312.401,7.294z"/>
<path d="M395.901,0H116.099C52.082,0,0,52.082,0,116.099v279.803C0,459.918,52.082,512,116.099,512h279.803
	C459.918,512,512,459.918,512,395.901V116.099C512,52.082,459.918,0,395.901,0z M116.099,14.573h189.016v234.148l-290.541-0.007
	V116.099C14.573,60.117,60.117,14.573,116.099,14.573z M497.427,395.901c0,55.982-45.544,101.526-101.526,101.526H116.099
	c-55.981,0-101.526-45.544-101.526-101.526V263.287l297.827,0.007c1.933,0,3.786-0.767,5.152-2.134
	c1.367-1.366,2.134-3.22,2.134-5.152V14.574H395.9c55.982,0,101.526,45.544,101.526,101.526v279.801H497.427z"/>
<g>
	<path style="fill:#FFFFFF;" d="M159.843,107.783c-13.16,0-23.867,10.707-23.867,23.867s10.706,23.867,23.867,23.867
		c13.16,0,23.867-10.706,23.867-23.867C183.711,118.49,173.004,107.783,159.843,107.783z"/>
	<path style="fill:#FFFFFF;" d="M234.171,124.364h-12.516c-1.373-11.714-6.008-22.438-12.974-31.247l8.872-8.872
		c2.846-2.845,2.846-7.459,0-10.304c-2.845-2.845-7.459-2.845-10.305,0l-8.872,8.871c-8.809-6.966-19.533-11.601-31.247-12.973
		V57.323c0-4.024-3.262-7.287-7.287-7.287c-4.024,0-7.287,3.262-7.287,7.287v12.516c-11.714,1.373-22.438,6.008-31.247,12.973
		l-8.871-8.871c-2.845-2.845-7.459-2.845-10.304,0c-2.846,2.845-2.846,7.459,0,10.304l8.871,8.872
		c-6.965,8.809-11.601,19.533-12.974,31.247H85.516c-4.024,0-7.287,3.262-7.287,7.287c0,4.024,3.262,7.286,7.287,7.286h12.516
		c1.373,11.714,6.008,22.438,12.974,31.248l-8.871,8.872c-2.846,2.845-2.846,7.459,0,10.304c1.423,1.423,3.287,2.134,5.152,2.134
		s3.73-0.712,5.152-2.134l8.871-8.871c8.809,6.965,19.533,11.601,31.247,12.973v12.516c0,4.024,3.262,7.286,7.287,7.286
		c4.024,0,7.287-3.262,7.287-7.286v-12.516c11.714-1.373,22.438-6.008,31.247-12.973l8.872,8.871
		c1.423,1.423,3.287,2.134,5.152,2.134c1.865,0,3.73-0.712,5.152-2.134c2.846-2.845,2.846-7.459,0-10.304l-8.872-8.872
		c6.966-8.809,11.601-19.534,12.974-31.248h12.516c4.024,0,7.286-3.262,7.286-7.286
		C241.458,127.627,238.195,124.364,234.171,124.364z M159.843,179.331c-26.29,0-47.679-21.389-47.679-47.68
		c0-26.29,21.389-47.679,47.679-47.679c26.291,0,47.68,21.389,47.68,47.679C207.523,157.942,186.134,179.331,159.843,179.331z"/>
</g>
<g>
</g>
<g>
</g>
<g>
</g>
<g>
</g>
<g>
</g>
<g>
</g>
<g>
</g>
<g>
</g>
<g>
</g>
<g>
</g>
<g>
</g>
<g>
</g>
<g>
</g>
<g>
</g>
<g>
</g>
</svg>
