<?xml version="1.0" encoding="iso-8859-1"?>
<!-- Generator: Adobe Illustrator 19.0.0, SVG Export Plug-In . SVG Version: 6.00 Build 0)  -->
<svg version="1.1" id="Layer_1" xmlns="http://www.w3.org/2000/svg" xmlns:xlink="http://www.w3.org/1999/xlink" x="0px" y="0px"
	 viewBox="0 0 512.001 512.001" style="enable-background:new 0 0 512.001 512.001;" xml:space="preserve">
<path style="fill:#259245;" d="M116.1,7.286C56.004,7.286,7.287,56.004,7.287,116.099v239.164L355.248,7.286H116.1z"/>
<path style="fill:#3DB4EA;" d="M395.902,504.714c60.095,0,108.812-48.717,108.812-108.812V156.755L156.742,504.714H395.902z"/>
<path style="fill:#FFE000;" d="M395.902,7.286h-40.655L7.287,355.26v40.641c0,60.095,48.717,108.812,108.812,108.812h40.642
	l347.972-347.958v-40.657C504.715,56.004,455.998,7.286,395.902,7.286z"/>
<path style="fill:#333333;" d="M404.709,7.642L7.644,404.72c4.256,53.061,46.575,95.38,99.636,99.637l397.078-397.063
	C500.108,54.223,457.781,11.894,404.709,7.642z"/>
<path d="M511.371,103.989C505.71,49.623,462.38,6.292,408.016,0.63c-1.508-0.668-3.193-0.798-4.773-0.391
	C400.815,0.086,398.369,0,395.902,0H116.1C52.083,0,0.001,52.082,0.001,116.099v279.803c0,2.47,0.087,4.918,0.239,7.35
	c-0.408,1.582-0.277,3.27,0.393,4.782C6.302,462.382,49.62,505.7,103.969,511.369c0.939,0.417,1.946,0.632,2.955,0.632
	c0.614,0,1.227-0.085,1.826-0.239c2.432,0.153,4.881,0.239,7.351,0.239h279.803C459.919,512,512,459.918,512,395.901V116.099
	c0-2.465-0.086-4.91-0.239-7.338C512.169,107.182,512.039,105.497,511.371,103.989z M116.1,14.573h271.375L14.574,387.486V116.099
	C14.574,60.118,60.118,14.573,116.1,14.573z M15.233,407.436L407.427,15.231c46.792,5.311,84.034,42.554,89.344,89.345
	L104.565,496.768C57.782,491.453,20.549,454.218,15.233,407.436z M395.902,497.427H124.516l372.912-372.898v271.372
	C497.428,451.882,451.883,497.427,395.902,497.427z"/>
<g>
</g>
<g>
</g>
<g>
</g>
<g>
</g>
<g>
</g>
<g>
</g>
<g>
</g>
<g>
</g>
<g>
</g>
<g>
</g>
<g>
</g>
<g>
</g>
<g>
</g>
<g>
</g>
<g>
</g>
</svg>
