<?xml version="1.0" encoding="iso-8859-1"?>
<!-- Generator: Adobe Illustrator 19.0.0, SVG Export Plug-In . SVG Version: 6.00 Build 0)  -->
<svg version="1.1" id="Layer_1" xmlns="http://www.w3.org/2000/svg" xmlns:xlink="http://www.w3.org/1999/xlink" x="0px" y="0px"
	 viewBox="0 0 512 512" style="enable-background:new 0 0 512 512;" xml:space="preserve">
<rect x="7.286" y="173.09" style="fill:#ED1F34;" width="497.43" height="82.905"/>
<path style="fill:#FFE000;" d="M7.286,395.901c0,8.929,1.083,17.603,3.112,25.908h491.203c2.029-8.305,3.112-16.979,3.112-25.908
	v-56.997H7.286V395.901z"/>
<path style="fill:#333333;" d="M395.901,7.286H116.099c-51.166,0-94.076,35.319-105.7,82.905h491.203
	C489.978,42.605,447.068,7.286,395.901,7.286z"/>
<path style="fill:#FFE000;" d="M10.399,90.191c-2.029,8.304-3.112,16.979-3.112,25.908v56.997h497.427v-56.997
	c0-8.929-1.083-17.603-3.112-25.908C501.602,90.191,10.399,90.191,10.399,90.191z"/>
<rect x="7.286" y="256" style="fill:#333333;" width="497.43" height="82.905"/>
<path style="fill:#ED1F34;" d="M116.099,504.714h279.803c51.166,0,94.076-35.319,105.7-82.904H10.398
	C22.022,469.395,64.932,504.714,116.099,504.714z"/>
<path d="M395.901,0H116.099C52.082,0,0,52.082,0,116.099v279.803C0,459.918,52.082,512,116.099,512h279.803
	C459.918,512,512,459.918,512,395.901V116.099C512,52.082,459.918,0,395.901,0z M497.427,116.099v49.711H14.573v-49.711
	c0-6.36,0.594-12.583,1.718-18.621h479.418C496.833,103.516,497.427,109.739,497.427,116.099z M497.427,180.382v68.331H14.573
	v-68.331L497.427,180.382L497.427,180.382z M14.573,395.901V346.19h25.875c4.024,0,7.286-3.262,7.286-7.286
	c0-4.025-3.262-7.287-7.286-7.287H14.573v-68.331h482.854v68.331H73.61c-4.024,0-7.287,3.262-7.287,7.287s3.262,7.286,7.287,7.286
	h423.817v49.711c0,6.36-0.594,12.583-1.718,18.621H16.291C15.167,408.484,14.573,402.261,14.573,395.901z M116.099,14.573h279.803
	c44.361,0,82.163,28.602,95.947,68.331H20.152C33.936,43.175,71.737,14.573,116.099,14.573z M395.901,497.427H116.099
	c-44.361,0-82.163-28.602-95.947-68.331h471.697C478.064,468.824,440.262,497.427,395.901,497.427z"/>
<circle style="fill:#FFFFFF;" cx="256" cy="256" r="82.905"/>
<path d="M256,346.191c-49.732,0-90.191-40.459-90.191-90.191s40.46-90.191,90.191-90.191s90.191,40.459,90.191,90.191
	S305.732,346.191,256,346.191z M256,180.382c-41.696,0-75.618,33.922-75.618,75.618s33.922,75.618,75.618,75.618
	c41.695,0,75.618-33.922,75.618-75.618S297.695,180.382,256,180.382z"/>
<path d="M299.854,253.05l-22.191-10.936c-2.257-1.113-4.932-0.983-7.069,0.349c-2.138,1.329-3.438,3.669-3.438,6.187
	c0,6.151-5.005,11.155-11.156,11.155c-5.644,0-10.323-4.214-11.056-9.659l17.592-35.693c1.113-2.258,0.981-4.932-0.349-7.069
	c-1.329-2.139-3.669-3.438-6.187-3.438h-13.096c-4.024,0-7.286,3.262-7.286,7.286c0,4.025,3.262,7.286,7.286,7.286h1.381
	l-13.263,26.911c-0.494,1.002-0.751,2.104-0.751,3.221c0,11.656,7.794,21.52,18.442,24.67v27.448c0,4.025,3.262,7.286,7.286,7.286
	c4.025,0,7.286-3.262,7.286-7.286V273.32c7.201-2.13,13.099-7.328,16.16-14.08l13.965,6.882c3.61,1.779,7.978,0.294,9.757-3.315
	C304.948,259.197,303.464,254.829,299.854,253.05z"/>
<g>
</g>
<g>
</g>
<g>
</g>
<g>
</g>
<g>
</g>
<g>
</g>
<g>
</g>
<g>
</g>
<g>
</g>
<g>
</g>
<g>
</g>
<g>
</g>
<g>
</g>
<g>
</g>
<g>
</g>
</svg>
