<?xml version="1.0" encoding="iso-8859-1"?>
<!-- Generator: Adobe Illustrator 19.0.0, SVG Export Plug-In . SVG Version: 6.00 Build 0)  -->
<svg version="1.1" id="Layer_1" xmlns="http://www.w3.org/2000/svg" xmlns:xlink="http://www.w3.org/1999/xlink" x="0px" y="0px"
	 viewBox="0 0 512 512" style="enable-background:new 0 0 512 512;" xml:space="preserve">
<path style="fill:#3DB4EA;" d="M395.901,7.286H116.099C56.003,7.286,7.286,56.004,7.286,116.099v279.803
	c0,60.095,48.717,108.812,108.812,108.812h279.803c60.095,0,108.812-48.717,108.812-108.812V116.099
	C504.714,56.004,455.997,7.286,395.901,7.286z"/>
<path d="M395.901,512H116.099C52.082,512,0,459.918,0,395.901V116.099C0,52.082,52.082,0,116.099,0h279.803
	C459.918,0,512,52.082,512,116.099v279.803C512,459.918,459.918,512,395.901,512z M116.099,14.573
	c-55.981,0-101.526,45.544-101.526,101.526v279.803c0,55.981,45.544,101.526,101.526,101.526h279.803
	c55.981,0,101.526-45.545,101.526-101.526V116.099c0-55.981-45.545-101.526-101.526-101.526
	C395.902,14.573,116.099,14.573,116.099,14.573z"/>
<g>
	<path style="fill:#FFFFFF;" d="M256,313.582c49.121,0,89.085-39.964,89.085-89.085c0-29.305-14.225-55.346-36.13-71.592
		c-0.187-0.168-0.384-0.328-0.592-0.479c-0.2-0.146-0.406-0.279-0.616-0.402c-14.597-10.452-32.466-16.612-51.748-16.612
		c-19.283,0-37.152,6.16-51.749,16.614c-0.209,0.121-0.414,0.255-0.614,0.4c-0.208,0.151-0.405,0.311-0.592,0.479
		c-21.905,16.246-36.13,42.287-36.13,71.592C166.915,273.618,206.879,313.582,256,313.582z M187.743,254.335l25.225-8.195
		c6.895,13.654,20.088,23.607,35.745,25.991v26.517C221.382,295.982,198.343,278.487,187.743,254.335z M222.387,224.496
		c0-8.525,3.196-16.313,8.445-22.245l13.379,18.414l-21.667,7.04C222.443,226.648,222.387,225.579,222.387,224.496z
		 M289.613,224.496c0,1.083-0.056,2.152-0.157,3.209l-21.666-7.04l13.379-18.414C286.417,208.183,289.613,215.971,289.613,224.496z
		 M263.286,234.525l21.655,7.037c-4.666,7.882-12.456,13.701-21.655,15.743V234.525z M256,212.101l-13.389-18.428
		c4.105-1.79,8.631-2.789,13.389-2.789c4.757,0,9.283,0.999,13.388,2.789L256,212.101z M248.714,234.525v22.78
		c-9.199-2.042-16.99-7.861-21.656-15.743L248.714,234.525z M263.286,298.648v-26.517c15.657-2.384,28.85-12.338,35.745-25.991
		l25.225,8.195C313.657,278.487,290.618,295.982,263.286,298.648z M330.512,224.496c0,5.487-0.613,10.83-1.744,15.982l-25.22-8.194
		c0.414-2.536,0.638-5.136,0.638-7.788c0-13.375-5.481-25.49-14.31-34.23l15.578-21.44
		C320.812,182.485,330.512,202.375,330.512,224.496z M293.673,160.249l-15.582,21.446c-6.623-3.433-14.131-5.384-22.091-5.384
		s-15.469,1.952-22.091,5.384l-15.582-21.446c11.062-6.512,23.934-10.265,37.673-10.265
		C269.739,149.984,282.611,153.736,293.673,160.249z M206.546,168.826l15.578,21.44c-8.829,8.739-14.31,20.855-14.31,34.23
		c0,2.652,0.224,5.251,0.638,7.788l-25.22,8.194c-1.131-5.152-1.744-10.495-1.744-15.982
		C181.488,202.375,191.188,182.485,206.546,168.826z"/>
	<path style="fill:#FFFFFF;" d="M383.481,224.496c0-27.004-8.379-52.831-24.233-74.689c-2.363-3.258-6.918-3.985-10.176-1.62
		c-3.258,2.362-3.983,6.919-1.62,10.176c14.038,19.354,21.457,42.222,21.457,66.133c0,62.256-50.647,112.906-112.903,112.909
		c-0.003,0-0.007,0-0.01,0c-62.256-0.003-112.903-50.653-112.903-112.909c0-23.911,7.419-46.779,21.457-66.133
		c2.363-3.257,1.638-7.814-1.62-10.176c-3.256-2.363-7.814-1.638-10.176,1.62c-15.854,21.858-24.233,47.685-24.233,74.689
		c0,63.463,46.615,116.236,107.401,125.896l-17.762,13.037c-3.245,2.381-3.944,6.941-1.563,10.185
		c2.382,3.246,6.943,3.943,10.185,1.563L256,353.731l29.219,21.446c1.299,0.953,2.808,1.414,4.305,1.414
		c2.241,0,4.453-1.031,5.88-2.976c2.381-3.244,1.682-7.804-1.563-10.185l-17.762-13.037
		C336.866,340.732,383.481,287.959,383.481,224.496z"/>
</g>
<g>
</g>
<g>
</g>
<g>
</g>
<g>
</g>
<g>
</g>
<g>
</g>
<g>
</g>
<g>
</g>
<g>
</g>
<g>
</g>
<g>
</g>
<g>
</g>
<g>
</g>
<g>
</g>
<g>
</g>
</svg>
