<?xml version="1.0" encoding="iso-8859-1"?>
<!-- Generator: Adobe Illustrator 19.0.0, SVG Export Plug-In . SVG Version: 6.00 Build 0)  -->
<svg version="1.1" id="Layer_1" xmlns="http://www.w3.org/2000/svg" xmlns:xlink="http://www.w3.org/1999/xlink" x="0px" y="0px"
	 viewBox="0 0 512 512" style="enable-background:new 0 0 512 512;" xml:space="preserve">
<path style="fill:#3DB4EA;" d="M395.901,7.286H116.099C56.003,7.286,7.286,56.004,7.286,116.099v61.971h497.427v-61.971
	C504.714,56.004,455.997,7.286,395.901,7.286z"/>
<path style="fill:#259245;" d="M7.286,395.901c0,60.095,48.717,108.812,108.812,108.812h279.803
	c60.095,0,108.812-48.717,108.812-108.812V333.93H7.286V395.901z"/>
<g>
	<rect x="7.286" y="178.07" style="fill:#FFFFFF;" width="497.43" height="155.86"/>
	<path style="fill:#FFFFFF;" d="M90.22,132.55c4.025,0,7.286-3.262,7.286-7.287c0-4.024-3.262-7.286-7.286-7.286
		c-11.788,0-21.379-9.59-21.379-21.378s9.59-21.378,21.379-21.378c4.025,0,7.286-3.262,7.286-7.286s-3.262-7.287-7.286-7.287
		c-19.824,0-35.952,16.128-35.952,35.951S70.397,132.55,90.22,132.55z"/>
	<path style="fill:#FFFFFF;" d="M193.949,132.849c4.347,0,7.883-3.537,7.883-7.884s-3.536-7.884-7.883-7.884
		s-7.884,3.537-7.884,7.884C186.064,129.312,189.602,132.849,193.949,132.849z"/>
	<path style="fill:#FFFFFF;" d="M263.499,132.849c4.347,0,7.883-3.537,7.883-7.884s-3.536-7.884-7.883-7.884
		c-4.347,0-7.884,3.537-7.884,7.884C255.615,129.312,259.152,132.849,263.499,132.849z"/>
	<path style="fill:#FFFFFF;" d="M228.724,132.849c4.347,0,7.883-3.537,7.883-7.884s-3.536-7.884-7.883-7.884
		s-7.884,3.537-7.884,7.884S224.377,132.849,228.724,132.849z"/>
	<path style="fill:#FFFFFF;" d="M263.499,76.117c4.347,0,7.883-3.537,7.883-7.884s-3.536-7.884-7.883-7.884
		c-4.347,0-7.884,3.537-7.884,7.884S259.152,76.117,263.499,76.117z"/>
	<path style="fill:#FFFFFF;" d="M159.174,132.849c4.347,0,7.883-3.537,7.883-7.884s-3.536-7.884-7.883-7.884
		s-7.884,3.537-7.884,7.884C151.289,129.312,154.826,132.849,159.174,132.849z"/>
	<path style="fill:#FFFFFF;" d="M193.949,104.184c4.347,0,7.883-3.537,7.883-7.884s-3.536-7.884-7.883-7.884
		s-7.884,3.537-7.884,7.884S189.602,104.184,193.949,104.184z"/>
	<path style="fill:#FFFFFF;" d="M228.724,104.184c4.347,0,7.883-3.537,7.883-7.884s-3.536-7.884-7.883-7.884
		s-7.884,3.537-7.884,7.884S224.377,104.184,228.724,104.184z"/>
	<path style="fill:#FFFFFF;" d="M193.949,76.117c4.347,0,7.883-3.537,7.883-7.884s-3.536-7.884-7.883-7.884
		s-7.884,3.537-7.884,7.884S189.602,76.117,193.949,76.117z"/>
	<path style="fill:#FFFFFF;" d="M228.724,76.117c4.347,0,7.883-3.537,7.883-7.884s-3.536-7.884-7.883-7.884
		s-7.884,3.537-7.884,7.884S224.377,76.117,228.724,76.117z"/>
	<path style="fill:#FFFFFF;" d="M159.174,104.184c4.347,0,7.883-3.537,7.883-7.884s-3.536-7.884-7.883-7.884
		s-7.884,3.537-7.884,7.884S154.826,104.184,159.174,104.184z"/>
	<path style="fill:#FFFFFF;" d="M124.398,132.849c4.347,0,7.883-3.537,7.883-7.884s-3.536-7.884-7.883-7.884
		c-4.347,0-7.884,3.537-7.884,7.884S120.051,132.849,124.398,132.849z"/>
	<path style="fill:#FFFFFF;" d="M263.499,104.184c4.347,0,7.883-3.537,7.883-7.884s-3.536-7.884-7.883-7.884
		c-4.347,0-7.884,3.537-7.884,7.884S259.152,104.184,263.499,104.184z"/>
</g>
<g>
	<path style="fill:#B21727;" d="M504.714,341.217H7.286c-4.025,0-7.286-3.262-7.286-7.286s3.262-7.287,7.286-7.287h497.427
		c4.025,0,7.286,3.262,7.286,7.287S508.738,341.217,504.714,341.217z"/>
	<path style="fill:#B21727;" d="M504.714,185.356H7.286c-4.025,0-7.286-3.262-7.286-7.287s3.262-7.286,7.286-7.286h497.427
		c4.025,0,7.286,3.262,7.286,7.286S508.738,185.356,504.714,185.356z"/>
</g>
<path d="M395.901,512H116.099C52.082,512,0,459.918,0,395.901V116.099C0,52.082,52.082,0,116.099,0h279.803
	C459.918,0,512,52.082,512,116.099v279.803C512,459.918,459.918,512,395.901,512z M116.099,14.573
	c-55.981,0-101.526,45.544-101.526,101.526v279.803c0,55.982,45.544,101.526,101.526,101.526h279.803
	c55.981,0,101.526-45.544,101.526-101.526V116.099c0-55.982-45.545-101.526-101.526-101.526
	C395.902,14.573,116.099,14.573,116.099,14.573z"/>
<g>
</g>
<g>
</g>
<g>
</g>
<g>
</g>
<g>
</g>
<g>
</g>
<g>
</g>
<g>
</g>
<g>
</g>
<g>
</g>
<g>
</g>
<g>
</g>
<g>
</g>
<g>
</g>
<g>
</g>
</svg>
