<?xml version="1.0" encoding="iso-8859-1"?>
<!-- Generator: Adobe Illustrator 19.0.0, SVG Export Plug-In . SVG Version: 6.00 Build 0)  -->
<svg version="1.1" id="Layer_1" xmlns="http://www.w3.org/2000/svg" xmlns:xlink="http://www.w3.org/1999/xlink" x="0px" y="0px"
	 viewBox="0 0 512 512" style="enable-background:new 0 0 512 512;" xml:space="preserve">
<path style="fill:#FFE000;" d="M116.099,7.286C56.003,7.286,7.286,56.003,7.286,116.099v279.803
	c0,60.095,48.717,108.812,108.812,108.812H256V7.286H116.099z"/>
<path style="fill:#FFFFFF;" d="M395.901,7.286H256v497.427h139.901c60.095,0,108.812-48.717,108.812-108.812V116.099
	C504.714,56.003,455.997,7.286,395.901,7.286z"/>
<path d="M395.901,0H116.099C52.082,0,0,52.082,0,116.099v279.803C0,459.918,52.082,512,116.099,512h279.803
	C459.918,512,512,459.918,512,395.901V116.099C512,52.082,459.918,0,395.901,0z M497.427,395.901
	c0,55.982-45.545,101.526-101.526,101.526H263.286V156.515c0-4.024-3.262-7.286-7.286-7.286c-4.025,0-7.286,3.262-7.286,7.286
	v340.912H116.099c-55.981,0-101.526-45.544-101.526-101.526V116.099c0-55.982,45.544-101.526,101.526-101.526h132.615v108.78
	c0,4.024,3.262,7.287,7.286,7.287c4.025,0,7.286-3.262,7.286-7.287V14.573h132.615c55.981,0,101.526,45.544,101.526,101.526V395.901
	z"/>
<path style="fill:#999999;" d="M419.782,268.699c-3.927,0-7.709,0.938-11.096,2.699l-18.024-18.024l18.783-18.783l6.737,6.736
	c1.422,1.423,3.287,2.134,5.152,2.134c1.864,0,3.73-0.712,5.153-2.134c2.845-2.846,2.845-7.459-0.001-10.305l-6.736-6.736
	l4.958-4.958l6.737,6.736c1.422,1.423,3.287,2.134,5.152,2.134c1.864,0,3.73-0.712,5.153-2.134
	c2.845-2.846,2.845-7.459-0.001-10.305l-6.736-6.736l1.484-1.484c2.845-2.845,2.845-7.459,0-10.305
	c-2.846-2.845-7.459-2.845-10.305,0l-6.635,6.635c0,0.001,0,0.001,0,0.001v0.001l-15.26,15.26l-0.001,0.001l-0.001,0.001
	l-23.934,23.934l-23.933-23.934l-0.001-0.001c-0.001-0.001-0.001-0.001-0.001-0.001l-15.26-15.26v-0.001c0,0,0,0,0-0.001
	l-6.635-6.635c-2.845-2.845-7.458-2.846-10.305,0c-2.845,2.845-2.845,7.459,0,10.305l1.484,1.484l-6.736,6.736
	c-2.846,2.845-2.846,7.459-0.001,10.305c1.423,1.423,3.288,2.134,5.153,2.134c1.864,0,3.73-0.712,5.152-2.134l6.737-6.736
	l4.958,4.958l-6.736,6.736c-2.846,2.845-2.846,7.459-0.001,10.305c1.423,1.423,3.288,2.134,5.153,2.134
	c1.864,0,3.73-0.712,5.152-2.134l6.736-6.736l18.783,18.783l-18.024,18.024c-3.387-1.761-7.169-2.699-11.096-2.699
	c-6.437,0-12.49,2.507-17.042,7.059c-9.396,9.397-9.396,24.685,0.001,34.082c4.551,4.552,10.603,7.058,17.041,7.058
	s12.49-2.507,17.042-7.059c7.6-7.601,9.046-19.054,4.351-28.128l18.032-18.032l18.032,18.032
	c-4.695,9.074-3.248,20.528,4.353,28.129c4.551,4.552,10.603,7.058,17.041,7.058s12.49-2.507,17.042-7.059
	c9.396-9.397,9.396-24.685-0.001-34.082C432.271,271.205,426.219,268.699,419.782,268.699z M347.669,299.534
	c-1.8,1.8-4.193,2.791-6.737,2.791c-2.545,0-4.937-0.991-6.736-2.79c-3.714-3.714-3.714-9.758-0.001-13.472
	c1.8-1.8,4.193-2.791,6.737-2.791c2.545,0,4.937,0.991,6.736,2.79C351.382,289.777,351.382,295.82,347.669,299.534z
	 M426.519,299.534c-1.8,1.8-4.193,2.791-6.737,2.791s-4.937-0.991-6.736-2.79c-3.714-3.714-3.714-9.756-0.003-13.47
	c0.001-0.001,0.002-0.001,0.003-0.002c0,0,0.001-0.001,0.002-0.002c1.8-1.798,4.191-2.788,6.734-2.788
	c2.545,0,4.937,0.991,6.736,2.79C430.232,289.777,430.232,295.82,426.519,299.534z"/>
<g>
</g>
<g>
</g>
<g>
</g>
<g>
</g>
<g>
</g>
<g>
</g>
<g>
</g>
<g>
</g>
<g>
</g>
<g>
</g>
<g>
</g>
<g>
</g>
<g>
</g>
<g>
</g>
<g>
</g>
</svg>
