<?xml version="1.0" encoding="iso-8859-1"?>
<!-- Generator: Adobe Illustrator 19.0.0, SVG Export Plug-In . SVG Version: 6.00 Build 0)  -->
<svg version="1.1" id="Layer_1" xmlns="http://www.w3.org/2000/svg" xmlns:xlink="http://www.w3.org/1999/xlink" x="0px" y="0px"
	 viewBox="0 0 512 512" style="enable-background:new 0 0 512 512;" xml:space="preserve">
<rect x="135.51" y="7.286" style="fill:#FFE000;" width="240.98" height="497.43"/>
<path style="fill:#3DB4EA;" d="M116.099,7.286C56.003,7.286,7.286,56.004,7.286,116.099v279.803
	c0,60.095,48.717,108.812,108.812,108.812h19.414V7.286H116.099z"/>
<path style="fill:#259245;" d="M395.901,7.286h-19.414v497.427h19.414c60.095,0,108.812-48.717,108.812-108.812V116.099
	C504.714,56.004,455.997,7.286,395.901,7.286z"/>
<path d="M395.901,0H116.099C52.082,0,0,52.082,0,116.099v279.803C0,459.918,52.082,512,116.099,512h279.803
	C459.918,512,512,459.918,512,395.901V116.099C512,52.082,459.918,0,395.901,0z M14.573,395.901V116.099
	c0-55.981,45.544-101.526,101.526-101.526h12.127v482.854h-12.127C60.117,497.427,14.573,451.882,14.573,395.901z M497.427,395.901
	c0,55.981-45.544,101.526-101.526,101.526h-12.127V156.514c0-4.025-3.262-7.286-7.286-7.286s-7.287,3.262-7.287,7.286v340.913
	H142.799V14.573h226.402v108.78c0,4.025,3.262,7.287,7.287,7.287s7.286-3.262,7.286-7.287V14.573h12.127
	c55.981,0,101.526,45.544,101.526,101.526V395.901z"/>
<g>
	<polygon style="fill:#259245;" points="256,369.219 225.027,314.551 256,259.883 286.973,314.551 	"/>
	<polygon style="fill:#259245;" points="219.073,303.838 188.1,249.17 219.073,194.502 250.045,249.17 	"/>
	<polygon style="fill:#259245;" points="292.927,303.838 323.9,249.17 292.927,194.502 261.955,249.17 	"/>
</g>
<g>
</g>
<g>
</g>
<g>
</g>
<g>
</g>
<g>
</g>
<g>
</g>
<g>
</g>
<g>
</g>
<g>
</g>
<g>
</g>
<g>
</g>
<g>
</g>
<g>
</g>
<g>
</g>
<g>
</g>
</svg>
