<?xml version="1.0" encoding="iso-8859-1"?>
<!-- Generator: Adobe Illustrator 19.0.0, SVG Export Plug-In . SVG Version: 6.00 Build 0)  -->
<svg version="1.1" id="Layer_1" xmlns="http://www.w3.org/2000/svg" xmlns:xlink="http://www.w3.org/1999/xlink" x="0px" y="0px"
	 viewBox="0 0 512 512" style="enable-background:new 0 0 512 512;" xml:space="preserve">
<path style="fill:#103B9B;" d="M395.901,7.286H116.099C56.003,7.286,7.286,56.004,7.286,116.099v279.803
	c0,60.095,48.717,108.812,108.812,108.812h279.803c60.095,0,108.812-48.717,108.812-108.812V116.099
	C504.714,56.004,455.997,7.286,395.901,7.286z"/>
<path style="fill:#259245;" d="M325.087,287.307v89.469c0,42.132,55.27,56.184,55.27,56.184s55.27-14.053,55.27-56.184v-89.469
	H325.087z"/>
<path style="fill:#FFE000;" d="M356.038,391.406c-4.025,0-7.287-3.262-7.287-7.286v-63.651c0-4.024,3.262-7.287,7.287-7.287
	s7.286,3.262,7.286,7.287v63.651C363.324,388.144,360.063,391.406,356.038,391.406z"/>
<path style="fill:#FFFFFF;" d="M380.357,402.46c-4.025,0-7.286-3.262-7.286-7.287v-74.704c0-4.024,3.262-7.287,7.286-7.287
	c4.025,0,7.287,3.262,7.287,7.287v74.704C387.643,399.198,384.381,402.46,380.357,402.46z"/>
<g>
	<path style="fill:#FFE000;" d="M404.676,391.406c-4.025,0-7.286-3.262-7.286-7.286v-63.651c0-4.024,3.262-7.287,7.286-7.287
		c4.025,0,7.286,3.262,7.286,7.287v63.651C411.962,388.144,408.7,391.406,404.676,391.406z"/>
	<path style="fill:#FFE000;" d="M380.357,465.672c-21.004,0-41.563-7.24-57.892-20.387c-6.798-5.473-12.758-11.873-17.726-18.952
		v1.054c0,4.024-3.262,7.287-7.286,7.287c-4.025,0-7.287-3.262-7.287-7.287v-34.848c0-3.704,2.78-6.82,6.46-7.24
		c3.688-0.423,7.091,1.989,7.926,5.598c8.194,35.446,39.366,60.202,75.805,60.202c36.438,0,67.611-24.756,75.805-60.201
		c0.835-3.61,4.248-6.013,7.926-5.598c3.68,0.42,6.46,3.535,6.46,7.24v34.847c0,4.024-3.262,7.287-7.286,7.287
		c-4.025,0-7.286-3.262-7.286-7.287v-1.054c-4.968,7.078-10.928,13.479-17.726,18.952
		C421.92,458.431,401.361,465.672,380.357,465.672z"/>
</g>
<g>
	<polygon style="fill:#FFFFFF;" points="312.401,165.22 312.401,98.067 193.42,98.067 193.42,7.286 126.267,7.286 126.267,98.067 
		7.286,98.067 7.286,165.22 126.267,165.22 126.267,256 193.42,256 193.42,165.22 	"/>
	<path style="fill:#FFFFFF;" d="M159.844,171.997L285.848,256h26.553v-63.006l-92.027-61.351l92.027-61.351V7.286h-26.553
		L159.844,91.29L58.536,23.751C39.097,35.894,23.77,54,15.116,75.511l84.198,56.132L7.286,192.994V256h26.552L159.844,171.997z"/>
</g>
<g>
	<path style="fill:#ED1F34;" d="M180.021,145.094l132.38,88.254v-26.383l-132.613-88.618l132.613-88.409V7.286h-6.376
		L139.676,118.198L32.34,46.641c-4.776,5.753-8.966,12.007-12.489,18.67l119.602,79.927L7.286,233.348V256h6.376L180.021,145.094z"
		/>
	<polygon style="fill:#ED1F34;" points="312.401,149.675 312.401,113.612 177.875,113.612 177.875,7.286 141.812,7.286 
		141.812,113.612 7.286,113.612 7.286,149.675 141.812,149.675 141.812,256 177.875,256 177.875,149.675 	"/>
</g>
<path d="M435.626,280.021H325.087c-4.025,0-7.286,3.262-7.286,7.286v89.47c0,47.254,58.28,62.615,60.761,63.246
	c0.588,0.15,1.192,0.225,1.795,0.225c0.604,0,1.207-0.075,1.795-0.225c2.481-0.63,60.761-15.992,60.761-63.246v-89.47
	C442.913,283.283,439.651,280.021,435.626,280.021z M428.34,376.777c0,31.953-39.044,45.84-47.983,48.599
	c-8.939-2.759-47.983-16.646-47.983-48.599v-82.183h95.966V376.777z"/>
<path d="M395.901,0H116.099C52.082,0,0,52.082,0,116.099v279.803C0,459.918,52.082,512,116.099,512h279.803
	C459.918,512,512,459.918,512,395.901V116.099C512,52.082,459.918,0,395.901,0z M497.427,395.901
	c0,55.982-45.545,101.526-101.526,101.526H116.099c-55.982,0-101.526-45.544-101.526-101.526V116.099
	c0-55.982,45.544-101.526,101.526-101.526h279.803c55.981,0,101.526,45.544,101.526,101.526v279.802H497.427z"/>
<g>
</g>
<g>
</g>
<g>
</g>
<g>
</g>
<g>
</g>
<g>
</g>
<g>
</g>
<g>
</g>
<g>
</g>
<g>
</g>
<g>
</g>
<g>
</g>
<g>
</g>
<g>
</g>
<g>
</g>
</svg>
