<?xml version="1.0" encoding="iso-8859-1"?>
<!-- Generator: Adobe Illustrator 19.0.0, SVG Export Plug-In . SVG Version: 6.00 Build 0)  -->
<svg version="1.1" id="Layer_1" xmlns="http://www.w3.org/2000/svg" xmlns:xlink="http://www.w3.org/1999/xlink" x="0px" y="0px"
	 viewBox="0 0 512 512" style="enable-background:new 0 0 512 512;" xml:space="preserve">
<path style="fill:#FFFFFF;" d="M395.901,7.286H116.099C56.003,7.286,7.286,56.004,7.286,116.099v279.803
	c0,60.095,48.717,108.812,108.812,108.812h279.803c60.095,0,108.812-48.717,108.812-108.812V116.099
	C504.714,56.004,455.997,7.286,395.901,7.286z"/>
<g>
	<path style="fill:#FFE000;" d="M256,301.785c0,0-7.285-3.822-15.831-11.556l-7.386,50.885h46.435l-7.386-50.886
		C263.285,297.964,256,301.785,256,301.785z"/>
	<path style="fill:#FFE000;" d="M213.353,233.322c0-1.852,0.085-3.674,0.206-5.481c-13.1-5.402-22.323-18.292-22.323-33.341h-47.645
		c0,46.482,37.681,84.163,84.162,84.163c0.534,0,1.061-0.03,1.593-0.04C220.731,267.562,213.353,252.498,213.353,233.322z"/>
</g>
<path id="SVGCleanerId_0" style="fill:#FFE000;" d="M298.647,233.322c0-1.852-0.085-3.674-0.206-5.481
	c13.1-5.402,22.323-18.292,22.323-33.341h47.645c0,46.482-37.681,84.163-84.162,84.163c-0.534,0-1.061-0.03-1.593-0.04
	C291.269,267.562,298.647,252.498,298.647,233.322z"/>
<path style="fill:#FFE000;" d="M213.56,227.84c-13.1-5.402-22.323-18.292-22.323-33.341h-47.645
	c0,46.482,37.681,84.163,84.162,84.163c0.534,0,1.061-0.03,1.593-0.04"/>
<g>
	<path id="SVGCleanerId_0_1_" style="fill:#FFE000;" d="M298.647,233.322c0-1.852-0.085-3.674-0.206-5.481
		c13.1-5.402,22.323-18.292,22.323-33.341h47.645c0,46.482-37.681,84.163-84.162,84.163c-0.534,0-1.061-0.03-1.593-0.04
		C291.269,267.562,298.647,252.498,298.647,233.322z"/>
</g>
<path style="fill:#FFFFFF;" d="M292.202,202.332c-4.1,6.414-10.676,10.6-18.111,10.6c-7.434,0-14.01-4.187-18.117-10.6
	c-4.1,6.414-10.677,10.6-18.111,10.6c-7.434,0-14.022-4.187-18.117-10.6c-4.04,8.997-6.395,19.612-6.395,30.989
	c0,46.111,42.647,68.464,42.647,68.464s42.647-22.353,42.647-68.464C298.647,221.945,296.292,211.33,292.202,202.332z"/>
<g>
	<path style="fill:#ED1F34;" d="M241.785,298.948c-4.025,0-7.287-3.262-7.287-7.287v-51.564c0-4.024,3.262-7.286,7.287-7.286
		c4.025,0,7.287,3.262,7.287,7.286v51.564C249.071,295.686,245.809,298.948,241.785,298.948z"/>
	<path style="fill:#ED1F34;" d="M270.215,298.948c-4.025,0-7.287-3.262-7.287-7.287v-51.564c0-4.024,3.262-7.286,7.287-7.286
		s7.286,3.262,7.286,7.286v51.564C277.502,295.686,274.24,298.948,270.215,298.948z"/>
</g>
<path style="fill:#164FCE;" d="M213.671,240.097h84.658c0.205-2.2,0.318-4.456,0.318-6.776c0-11.377-2.355-21.992-6.42-30.989
	c-4.125,6.413-10.701,10.6-18.135,10.6c-7.434,0-14.01-4.187-18.117-10.6c-4.1,6.413-10.676,10.6-18.111,10.6
	c-7.425,0-14.006-4.177-18.101-10.577c-4.058,8.992-6.41,19.599-6.41,30.966C213.353,235.641,213.466,237.898,213.671,240.097z"/>
<path d="M395.901,0H116.099C52.082,0,0,52.082,0,116.099v279.803C0,459.918,52.082,512,116.099,512h279.803
	C459.918,512,512,459.918,512,395.901V116.099C512,52.082,459.918,0,395.901,0z M497.427,395.901
	c0,55.981-45.545,101.526-101.526,101.526H116.099c-55.981,0-101.526-45.545-101.526-101.526V116.099
	c0-55.982,45.544-101.526,101.526-101.526h279.803c55.981,0,101.526,45.544,101.526,101.526v279.802H497.427z"/>
<path d="M419.673,187.212h-51.265h-47.644c-4.025,0-7.287,3.262-7.287,7.287c0,8.249-3.488,15.863-9.332,21.207
	c-1.183-5.721-2.943-11.227-5.246-16.357c-1.096-2.443-3.444-4.087-6.115-4.283c-0.02-0.002-0.04,0.001-0.06,0
	c-0.002-0.001-0.004-0.001-0.005-0.001c-2.676-0.191-5.219,1.094-6.657,3.344c-2.936,4.592-7.29,7.229-11.949,7.237
	c-4.097-0.007-7.958-2.049-10.827-5.666v-29.095c0-4.024-3.262-7.286-7.286-7.286h-22.556c-4.025,0-7.286,3.262-7.286,7.286
	s3.262,7.287,7.286,7.287h15.27v21.808c-2.869,3.617-6.73,5.658-10.827,5.666c-4.659-0.008-9.013-2.644-11.949-7.237
	c-1.437-2.249-3.979-3.533-6.657-3.344c-0.002,0-0.004,0.001-0.006,0.001c-0.02,0.001-0.04-0.002-0.06,0
	c-2.671,0.196-5.019,1.84-6.115,4.283c-2.303,5.13-4.063,10.636-5.246,16.357c-5.844-5.344-9.332-12.957-9.332-21.207
	c0-4.024-3.262-7.287-7.287-7.287h-47.644H92.327c-4.025,0-7.286,3.262-7.286,7.287c0,4.024,3.262,7.286,7.286,7.286h44.268
	c0.348,4.386,1.007,8.684,1.954,12.876h-22.641c-4.025,0-7.286,3.262-7.286,7.286s3.262,7.286,7.286,7.286h27.256
	c1.846,4.48,4.035,8.784,6.54,12.875H139.49c-4.025,0-7.286,3.262-7.286,7.286s3.262,7.286,7.286,7.286h21.277
	c16.298,17.544,39.381,28.699,65.031,29.241c2.185,2.591,4.412,4.952,6.604,7.085l-6.831,47.062c-0.305,2.093,0.317,4.215,1.7,5.814
	c1.384,1.6,3.396,2.519,5.51,2.519h46.435c2.115,0,4.126-0.919,5.51-2.519c1.383-1.599,2.005-3.721,1.7-5.814l-6.831-47.062
	c2.192-2.133,4.419-4.493,6.604-7.085c25.65-0.541,48.733-11.696,65.031-29.241h21.277c4.025,0,7.286-3.262,7.286-7.286
	s-3.262-7.286-7.286-7.286h-10.215c2.505-4.092,4.694-8.395,6.54-12.875h27.256c4.025,0,7.286-3.262,7.286-7.286
	s-3.262-7.286-7.286-7.286H373.45c0.947-4.192,1.607-8.49,1.954-12.876h44.268c4.025,0,7.286-3.262,7.286-7.286
	C426.959,190.475,423.697,187.212,419.673,187.212z M276.31,275.036c-2.814,3.52-5.752,6.575-8.57,9.173
	c-0.551,0.375-1.045,0.821-1.47,1.326c-4.05,3.566-7.741,6.161-10.269,7.782c-2.529-1.62-6.22-4.216-10.269-7.782
	c-0.426-0.505-0.919-0.951-1.471-1.326c-2.819-2.598-5.758-5.655-8.573-9.176c-0.35-0.617-0.788-1.176-1.295-1.664
	c-7.491-9.915-13.753-23.224-13.753-40.047c0-0.76,0.012-1.518,0.035-2.275c0.003-0.111,0.011-0.223,0.016-0.335
	c0.023-0.648,0.05-1.295,0.09-1.939c0.033-0.257,0.054-0.514,0.059-0.771c0.306-4.232,0.969-8.377,1.986-12.347
	c4.507,2.944,9.69,4.564,15.039,4.564c0.009,0,0.018,0,0.027,0c0.005,0,0.011,0,0.017,0c6.598,0,12.949-2.471,18.092-6.858
	c5.143,4.388,11.493,6.858,18.092,6.858c0.006,0,0.011,0,0.017,0c0.009,0,0.018,0,0.027,0c5.349,0,10.532-1.62,15.039-4.564
	c1.017,3.971,1.68,8.116,1.986,12.348c0.005,0.256,0.026,0.513,0.059,0.77c0.041,0.662,0.069,1.327,0.092,1.993
	c0.003,0.094,0.01,0.187,0.013,0.281c0.023,0.756,0.035,1.515,0.035,2.275c0,16.826-6.265,30.139-13.758,40.054
	C277.096,273.862,276.659,274.421,276.31,275.036z M170.228,245.416c-0.367-0.562-0.811-1.067-1.314-1.506
	c-6.013-7.149-10.752-15.402-13.859-24.411c-0.017-0.049-0.035-0.098-0.054-0.147c-1.917-5.595-3.205-11.479-3.78-17.567h33.338
	c2.174,12.88,10.049,24.083,21.521,30.504c-0.004,0.344-0.013,0.687-0.013,1.032c0,14.504,3.769,26.814,9.16,37.011
	C197.438,267.404,181.693,258.354,170.228,245.416z M270.797,333.829h-29.594l4.352-29.983c3.911,2.709,6.624,4.163,7.063,4.393
	c1.059,0.555,2.221,0.833,3.382,0.833c1.161,0,2.323-0.278,3.382-0.833c0.438-0.23,3.152-1.684,7.063-4.393L270.797,333.829z
	 M296.774,270.333c5.391-10.197,9.16-22.507,9.16-37.011c0-0.344-0.009-0.688-0.013-1.032c11.472-6.421,19.346-17.624,21.521-30.504
	h33.338c-0.575,6.089-1.864,11.973-3.781,17.568c-0.017,0.045-0.034,0.091-0.05,0.137c-3.107,9.012-7.847,17.268-13.862,24.42
	c-0.504,0.439-0.947,0.945-1.314,1.506C330.307,258.354,314.562,267.404,296.774,270.333z"/>
<g>
	<path style="fill:#3DB4EA;" d="M80.812,305.527c-3.231,0-6.075-2.127-6.989-5.226l-14.404-48.844
		c-1.139-3.86,1.067-7.912,4.928-9.05c3.858-1.137,7.911,1.068,9.049,4.928l7.416,25.145l7.416-25.145
		c1.139-3.86,5.186-6.065,9.049-4.928c3.861,1.139,6.066,5.19,4.928,9.05l-14.404,48.844
		C86.887,303.399,84.043,305.527,80.812,305.527z"/>
	<path style="fill:#3DB4EA;" d="M445.592,305.527c-4.025,0-7.286-3.262-7.286-7.287v-48.844c0-4.024,3.262-7.286,7.286-7.286
		c4.025,0,7.287,3.262,7.287,7.286v48.844C452.879,302.265,449.617,305.527,445.592,305.527z"/>
</g>
<g>
</g>
<g>
</g>
<g>
</g>
<g>
</g>
<g>
</g>
<g>
</g>
<g>
</g>
<g>
</g>
<g>
</g>
<g>
</g>
<g>
</g>
<g>
</g>
<g>
</g>
<g>
</g>
<g>
</g>
</svg>
