<?xml version="1.0" encoding="iso-8859-1"?>
<!-- Generator: Adobe Illustrator 19.0.0, SVG Export Plug-In . SVG Version: 6.00 Build 0)  -->
<svg version="1.1" id="Layer_1" xmlns="http://www.w3.org/2000/svg" xmlns:xlink="http://www.w3.org/1999/xlink" x="0px" y="0px"
	 viewBox="0 0 512 512" style="enable-background:new 0 0 512 512;" xml:space="preserve">
<path style="fill:#ED1F34;" d="M395.901,7.286H116.099C56.003,7.286,7.286,56.004,7.286,116.099v279.803
	c0,60.095,48.717,108.812,108.812,108.812h279.803c60.095,0,108.812-48.717,108.812-108.812V116.099
	C504.714,56.004,455.997,7.286,395.901,7.286z"/>
<path d="M395.901,512H116.099C52.082,512,0,459.918,0,395.901V116.099C0,52.082,52.082,0,116.099,0h279.803
	C459.918,0,512,52.082,512,116.099v279.803C512,459.918,459.918,512,395.901,512z M116.099,14.573
	c-55.981,0-101.526,45.544-101.526,101.526v279.803c0,55.981,45.544,101.526,101.526,101.526h279.803
	c55.981,0,101.526-45.545,101.526-101.526V116.099c0-55.981-45.545-101.526-101.526-101.526
	C395.902,14.573,116.099,14.573,116.099,14.573z"/>
<polygon style="fill:#FFE000;" points="168.829,236.429 233.012,233.113 256,173.096 278.988,233.113 343.171,236.429 
	293.195,276.838 309.875,338.905 256,303.861 202.125,338.905 218.805,276.838 "/>
<path d="M309.875,346.191c-1.38,0-2.763-0.391-3.973-1.178L256,312.554l-49.901,32.458c-2.531,1.646-5.815,1.561-8.256-0.213
	c-2.442-1.774-3.538-4.871-2.754-7.786l15.451-57.49l-46.291-37.429c-2.347-1.898-3.281-5.046-2.348-7.917s3.539-4.87,6.554-5.026
	l59.45-3.071l21.292-55.591c1.08-2.819,3.786-4.68,6.805-4.68c3.019,0,5.725,1.862,6.805,4.68l21.292,55.591l59.45,3.071
	c3.015,0.156,5.621,2.155,6.554,5.026c0.933,2.871-0.001,6.02-2.348,7.917l-46.291,37.429l15.451,57.49
	c0.784,2.915-0.312,6.011-2.754,7.786C312.883,345.725,311.38,346.191,309.875,346.191z M256,296.575
	c1.382,0,2.765,0.393,3.973,1.178l37.927,24.67l-11.743-43.694c-0.748-2.783,0.214-5.745,2.455-7.557l35.183-28.448l-45.184-2.334
	c-2.879-0.149-5.398-1.98-6.429-4.671L256,193.468l-16.183,42.251c-1.03,2.691-3.55,4.522-6.429,4.671l-45.184,2.334l35.183,28.448
	c2.241,1.812,3.203,4.774,2.455,7.557L214.1,322.423l37.927-24.67C253.235,296.968,254.618,296.575,256,296.575z"/>
<g>
</g>
<g>
</g>
<g>
</g>
<g>
</g>
<g>
</g>
<g>
</g>
<g>
</g>
<g>
</g>
<g>
</g>
<g>
</g>
<g>
</g>
<g>
</g>
<g>
</g>
<g>
</g>
<g>
</g>
</svg>
