<?xml version="1.0" encoding="iso-8859-1"?>
<!-- Generator: Adobe Illustrator 19.0.0, SVG Export Plug-In . SVG Version: 6.00 Build 0)  -->
<svg version="1.1" id="Layer_1" xmlns="http://www.w3.org/2000/svg" xmlns:xlink="http://www.w3.org/1999/xlink" x="0px" y="0px"
	 viewBox="0 0 512 512" style="enable-background:new 0 0 512 512;" xml:space="preserve">
<path style="fill:#259245;" d="M7.286,395.901c0,60.095,48.717,108.812,108.812,108.812h279.803
	c60.095,0,108.812-48.717,108.812-108.812V256H7.286V395.901z"/>
<path style="fill:#ED1F34;" d="M395.901,7.286H116.099C56.003,7.286,7.286,56.004,7.286,116.099V256h497.427V116.099
	C504.714,56.004,455.997,7.286,395.901,7.286z"/>
<path style="fill:#333333;" d="M42.79,35.69C20.976,55.589,7.286,84.245,7.286,116.099v279.803
	c0,31.854,13.689,60.509,35.504,80.409L256,305.743h248.714v-99.486H256L42.79,35.69z"/>
<g>
	<path style="fill:#FFE000;" d="M86.641,291.474c-4.024,0-7.286-3.262-7.286-7.286s3.262-7.286,7.286-7.286
		c11.525,0,20.901-9.376,20.901-20.901S98.166,235.1,86.641,235.1s-20.901,9.376-20.901,20.901c0,4.024-3.262,7.286-7.287,7.286
		s-7.286-3.262-7.286-7.286c0-19.56,15.914-35.474,35.474-35.474s35.474,15.914,35.474,35.474S106.201,291.474,86.641,291.474z"/>
	<path style="fill:#FFE000;" d="M504.714,248.714h-246.26L20.304,67.808c-3.203-2.434-7.775-1.81-10.21,1.395
		c-2.434,3.204-1.81,7.776,1.395,10.21L243.954,256L11.489,432.587c-3.205,2.434-3.829,7.005-1.395,10.21
		c1.433,1.887,3.608,2.88,5.807,2.88c1.536,0,3.085-0.484,4.402-1.485l238.149-180.905h246.26c4.024,0,7.286-3.262,7.286-7.286
		S508.738,248.714,504.714,248.714z"/>
</g>
<path d="M395.901,0H116.099c-29.76,0-56.937,11.26-77.505,29.738c-0.482,0.341-0.928,0.747-1.328,1.214
	C14.362,52.173,0,82.488,0,116.099v279.803c0,33.619,14.368,63.939,37.28,85.16c0.386,0.448,0.815,0.837,1.277,1.168
	C59.13,500.727,86.321,512,116.099,512h279.803C459.918,512,512,459.918,512,395.901V116.099C512,52.082,459.918,0,395.901,0z
	 M395.901,14.573c55.981,0,101.526,45.544,101.526,101.526v82.872H258.556L54.326,35.587c17.125-13.17,38.548-21.014,61.773-21.014
	C116.099,14.573,395.901,14.573,395.901,14.573z M395.901,497.427H116.099c-23.224,0-44.648-7.844-61.773-21.014l204.23-163.383
	H438.39c4.024,0,7.287-3.262,7.287-7.286s-3.262-7.286-7.287-7.286H256c-1.655,0-3.26,0.563-4.552,1.597L43.29,466.579
	c-17.762-18.292-28.717-43.228-28.717-70.678V116.099c0-27.45,10.955-52.386,28.717-70.678l208.158,166.526
	c1.292,1.034,2.897,1.597,4.552,1.597h241.427v84.913h-25.875c-4.024,0-7.286,3.262-7.286,7.286s3.262,7.286,7.286,7.286h25.875
	v82.872C497.427,451.883,451.883,497.427,395.901,497.427z"/>
<g>
</g>
<g>
</g>
<g>
</g>
<g>
</g>
<g>
</g>
<g>
</g>
<g>
</g>
<g>
</g>
<g>
</g>
<g>
</g>
<g>
</g>
<g>
</g>
<g>
</g>
<g>
</g>
<g>
</g>
</svg>
