<?xml version="1.0" encoding="iso-8859-1"?>
<!-- Generator: Adobe Illustrator 19.0.0, SVG Export Plug-In . SVG Version: 6.00 Build 0)  -->
<svg version="1.1" id="Layer_1" xmlns="http://www.w3.org/2000/svg" xmlns:xlink="http://www.w3.org/1999/xlink" x="0px" y="0px"
	 viewBox="0 0 512 512" style="enable-background:new 0 0 512 512;" xml:space="preserve">
<path style="fill:#ED1F34;" d="M395.901,7.286H116.099C56.003,7.286,7.286,56.004,7.286,116.099v279.803
	c0,60.095,48.717,108.812,108.812,108.812h279.803c60.095,0,108.812-48.717,108.812-108.812V116.099
	C504.714,56.004,455.997,7.286,395.901,7.286z"/>
<path style="fill:#103B9B;" d="M256,7.286H116.099C56.003,7.286,7.286,56.004,7.286,116.099V256H256V7.286z"/>
<g>
	<circle style="fill:#FFFFFF;" cx="134.58" cy="86.07" r="11.05"/>
	<circle style="fill:#FFFFFF;" cx="134.58" cy="180.45" r="11.05"/>
	<circle style="fill:#FFFFFF;" cx="167.1" cy="104.25" r="11.05"/>
	<circle style="fill:#FFFFFF;" cx="102.06" cy="122.42" r="11.05"/>
	<circle style="fill:#FFFFFF;" cx="150.84" cy="137.89" r="8.29"/>
</g>
<path d="M395.901,0H116.099C52.082,0,0,52.082,0,116.099v279.803C0,459.918,52.082,512,116.099,512h279.803
	C459.918,512,512,459.918,512,395.901V116.099C512,52.082,459.918,0,395.901,0z M497.427,395.901
	c0,55.982-45.545,101.526-101.526,101.526H116.099c-55.981,0-101.526-45.544-101.526-101.526V263.286H256
	c4.025,0,7.286-3.262,7.286-7.286V106.772c0-4.024-3.262-7.286-7.286-7.286c-4.025,0-7.286,3.262-7.286,7.286v141.942H14.573
	V116.099c0-55.982,45.544-101.526,101.526-101.526h132.615v42.456c0,4.024,3.262,7.287,7.286,7.287c4.025,0,7.286-3.262,7.286-7.287
	V14.573h132.615c55.981,0,101.526,45.544,101.526,101.526V395.901z"/>
<g>
</g>
<g>
</g>
<g>
</g>
<g>
</g>
<g>
</g>
<g>
</g>
<g>
</g>
<g>
</g>
<g>
</g>
<g>
</g>
<g>
</g>
<g>
</g>
<g>
</g>
<g>
</g>
<g>
</g>
</svg>
