<?xml version="1.0" encoding="iso-8859-1"?>
<!-- Generator: Adobe Illustrator 19.0.0, SVG Export Plug-In . SVG Version: 6.00 Build 0)  -->
<svg version="1.1" id="Layer_1" xmlns="http://www.w3.org/2000/svg" xmlns:xlink="http://www.w3.org/1999/xlink" x="0px" y="0px"
	 viewBox="0 0 512 512" style="enable-background:new 0 0 512 512;" xml:space="preserve">
<path style="fill:#103B9B;" d="M395.901,7.286H116.099C56.003,7.286,7.286,56.003,7.286,116.099v279.803
	c0,60.095,48.717,108.812,108.812,108.812h279.803c60.095,0,108.812-48.717,108.812-108.812V116.099
	C504.714,56.003,455.997,7.286,395.901,7.286z"/>
<g>
	<circle style="fill:#FFFFFF;" cx="232.28" cy="160.78" r="11.449"/>
	<circle style="fill:#FFFFFF;" cx="183.95" cy="166.8" r="11.447"/>
	<circle style="fill:#FFFFFF;" cx="136.75" cy="178.84" r="11.446"/>
	<circle style="fill:#FFFFFF;" cx="279.72" cy="160.78" r="11.449"/>
	<circle style="fill:#FFFFFF;" cx="328.05" cy="166.8" r="11.447"/>
	<circle style="fill:#FFFFFF;" cx="375.25" cy="178.84" r="11.446"/>
</g>
<path style="fill:#F2A643;" d="M282.402,217.006c-8.119-3.441-17.047-5.345-26.421-5.345c-8.356,0-16.354,1.522-23.745,4.288
	c2.678,5.387,4.191,11.456,4.191,17.881c0,22.222-18.014,40.236-40.236,40.236c-2.63,0-5.198-0.26-7.687-0.742l54.257,89.347
	c6.83,0,12.366-5.536,12.366-12.366v-3.137c0.285,0.004,0.567,0.022,0.854,0.022c35.533,0,64.658-27.354,67.514-62.15
	L282.402,217.006z"/>
<path d="M288.639,213.239c-0.794-1.313-1.981-2.342-3.394-2.941c-9.273-3.93-19.119-5.923-29.264-5.923
	c-9.029,0-17.877,1.598-26.299,4.749c-1.932,0.723-3.468,2.232-4.225,4.151s-0.665,4.069,0.253,5.917
	c2.276,4.579,3.43,9.504,3.43,14.637c0,18.168-14.781,32.949-32.95,32.949c-2.094,0-4.214-0.205-6.302-0.609
	c-2.831-0.55-5.718,0.624-7.365,2.991c-1.647,2.366-1.744,5.481-0.248,7.945l54.257,89.347c1.322,2.176,3.683,3.504,6.228,3.504
	c9.491,0,17.433-6.762,19.258-15.722c16.738-1.339,32.505-8.225,44.924-19.726c13.82-12.8,22.278-30.157,23.814-48.873
	c0.126-1.526-0.233-3.053-1.025-4.364L288.639,213.239z M255.982,339.902l-0.22-0.007c-0.179-0.007-0.357-0.012-0.537-0.015
	c-1.952-0.034-3.828,0.731-5.215,2.099c-1.388,1.37-2.169,3.238-2.169,5.187v3.137c0,1.524-0.675,2.894-1.742,3.825l-44.389-73.097
	c23.614-2.743,42.003-22.866,42.003-47.204c0-4.532-0.624-8.953-1.862-13.218c4.608-1.106,9.336-1.664,14.13-1.664
	c7.405,0,14.607,1.315,21.443,3.91l38.577,63.868C312.375,316.726,286.446,339.902,255.982,339.902z"/>
<path d="M395.901,0H116.099C52.082,0,0,52.082,0,116.099v279.803C0,459.918,52.082,512,116.099,512h279.803
	C459.918,512,512,459.918,512,395.901V116.099C512,52.082,459.918,0,395.901,0z M497.427,395.901
	c0,55.982-45.544,101.526-101.526,101.526H116.099c-55.982,0-101.526-45.544-101.526-101.526V116.099
	c0-55.982,45.544-101.526,101.526-101.526h279.803c55.981,0,101.526,45.544,101.526,101.526v279.802H497.427z"/>
<g>
</g>
<g>
</g>
<g>
</g>
<g>
</g>
<g>
</g>
<g>
</g>
<g>
</g>
<g>
</g>
<g>
</g>
<g>
</g>
<g>
</g>
<g>
</g>
<g>
</g>
<g>
</g>
<g>
</g>
</svg>
