<?xml version="1.0" encoding="iso-8859-1"?>
<!-- Generator: Adobe Illustrator 19.0.0, SVG Export Plug-In . SVG Version: 6.00 Build 0)  -->
<svg version="1.1" id="Layer_1" xmlns="http://www.w3.org/2000/svg" xmlns:xlink="http://www.w3.org/1999/xlink" x="0px" y="0px"
	 viewBox="0 0 511.9 511.9" style="enable-background:new 0 0 511.9 511.9;" xml:space="preserve">
<path style="fill:#164FCE;" d="M42.6,475.95c19.4,17.7,45.1,28.6,73.5,28.6h279.7c60.1,0,108.8-48.7,108.8-108.8v-92.5H256
	L42.6,475.95z"/>
<path style="fill:#ED1F34;" d="M395.7,7.35H116.1c-28.4,0-54.2,10.8-73.5,28.6L256,208.65h248.6v-92.5
	C504.5,56.05,455.8,7.35,395.7,7.35z"/>
<path style="fill:#048B7D;" d="M42.6,35.95c-21.7,19.8-35.3,48.4-35.3,80.2v279.7c0,31.7,13.6,60.3,35.3,80.2L256,303.35h248.5
	v-94.7H256L42.6,35.95z"/>
<polygon style="fill:#ED1F34;" points="7.3,121.15 7.3,390.75 173.9,255.95 "/>
<polyline style="fill:#333333;" points="7.3,390.75 173.9,255.95 7.3,121.15 "/>
<path style="fill:#FFE000;" d="M178.6,250.15L12,115.35c-3.2-2.6-4.7,15.5-4.7,15.5l154.6,125.1L8.8,379.85l-1.5,18.4
	c1.7,0,3.3-0.5,4.7-1.7l166.6-134.8c1.8-1.4,2.8-3.6,2.8-5.8C181.4,253.75,180.3,251.55,178.6,250.15z"/>
<g>
	<path style="fill:#FFFFFF;" d="M258.5,201.35L47.2,30.25L38,41.55l213.4,172.7c1.3,1,2.9,1.6,4.6,1.6h248.6v-14.6H258.5V201.35z"/>
	<path style="fill:#FFFFFF;" d="M256,296.05c-1.7,0-3.3,0.6-4.6,1.6L38,470.35l9.2,11.3l211.4-171.1h246v-14.6H256V296.05z"/>
</g>
<path d="M395.7,511.85H116.1c-64,0-116.1-52.1-116.1-116.1v-279.6c0-64,52.1-116.1,116.1-116.1h279.7c64,0,116.1,52.1,116.1,116.1
	v279.7C511.8,459.75,459.7,511.85,395.7,511.85z M116.1,14.65c-56,0-101.5,45.5-101.5,101.5v279.7c0,56,45.5,101.5,101.5,101.5
	h279.7c56,0,101.5-45.5,101.5-101.5v-279.7c0-56-45.5-101.5-101.5-101.5L116.1,14.65L116.1,14.65z"/>
<g>
</g>
<g>
</g>
<g>
</g>
<g>
</g>
<g>
</g>
<g>
</g>
<g>
</g>
<g>
</g>
<g>
</g>
<g>
</g>
<g>
</g>
<g>
</g>
<g>
</g>
<g>
</g>
<g>
</g>
</svg>
