<?xml version="1.0" encoding="iso-8859-1"?>
<!-- Generator: Adobe Illustrator 19.0.0, SVG Export Plug-In . SVG Version: 6.00 Build 0)  -->
<svg version="1.1" id="Layer_1" xmlns="http://www.w3.org/2000/svg" xmlns:xlink="http://www.w3.org/1999/xlink" x="0px" y="0px"
	 viewBox="0 0 512 512" style="enable-background:new 0 0 512 512;" xml:space="preserve">
<path style="fill:#259245;" d="M395.901,7.286H116.099C56.003,7.286,7.286,56.004,7.286,116.099v279.803
	c0,60.095,48.717,108.812,108.812,108.812h279.803c60.095,0,108.812-48.717,108.812-108.812V116.099
	C504.714,56.004,455.997,7.286,395.901,7.286z"/>
<rect x="338.9" y="173.1" style="fill:#ED1F34;" width="55.27" height="331.62"/>
<path style="fill:#FF7900;" d="M449.444,490.643c32.998-18.689,55.27-54.112,55.27-94.742V173.096h-55.27V490.643z"/>
<path style="fill:#333333;" d="M394.174,173.096v331.618h1.727c19.465,0,37.734-5.117,53.542-14.07V173.096H394.174z"/>
<path d="M368.412,96.986h32.431l16.178,14.104c1.372,1.196,3.081,1.794,4.788,1.794s3.417-0.598,4.788-1.794l16.177-14.104h32.431
	c4.025,0,7.286-3.262,7.286-7.287s-3.262-7.287-7.286-7.287h-35.161c-1.761,0-3.461,0.638-4.788,1.794L421.809,95.93l-13.448-11.724
	c-1.327-1.157-3.029-1.794-4.788-1.794h-35.161c-4.025,0-7.287,3.262-7.287,7.287C361.125,93.724,364.387,96.986,368.412,96.986z"/>
<path d="M395.901,0H116.099C52.082,0,0,52.082,0,116.099v279.803C0,459.918,52.082,512,116.099,512h279.803
	C459.918,512,512,459.918,512,395.901V116.099C512,52.082,459.918,0,395.901,0z M395.901,497.427H346.19v-42.456
	c0-4.025-3.262-7.286-7.286-7.286c-4.025,0-7.287,3.262-7.287,7.286v42.456H116.099c-55.981,0-101.526-45.545-101.526-101.526
	V116.099c0-55.981,45.544-101.526,101.526-101.526h279.803c55.981,0,101.526,45.544,101.526,101.526v49.711H338.904
	c-4.025,0-7.287,3.262-7.287,7.286v232.132c0,4.025,3.262,7.286,7.287,7.286s7.286-3.262,7.286-7.286V180.382h151.236v215.519
	C497.427,451.882,451.882,497.427,395.901,497.427z"/>
<g>
</g>
<g>
</g>
<g>
</g>
<g>
</g>
<g>
</g>
<g>
</g>
<g>
</g>
<g>
</g>
<g>
</g>
<g>
</g>
<g>
</g>
<g>
</g>
<g>
</g>
<g>
</g>
<g>
</g>
</svg>
