<?xml version="1.0" encoding="iso-8859-1"?>
<!-- Generator: Adobe Illustrator 19.0.0, SVG Export Plug-In . SVG Version: 6.00 Build 0)  -->
<svg version="1.1" id="Layer_1" xmlns="http://www.w3.org/2000/svg" xmlns:xlink="http://www.w3.org/1999/xlink" x="0px" y="0px"
	 viewBox="0 0 512 512" style="enable-background:new 0 0 512 512;" xml:space="preserve">
<rect x="7.286" y="220.47" style="fill:#333333;" width="497.43" height="71.07"/>
<g>
	<rect x="7.286" y="291.53" style="fill:#ED1F34;" width="497.43" height="71.06"/>
	<rect x="7.286" y="149.4" style="fill:#ED1F34;" width="497.43" height="71.06"/>
</g>
<g>
	<path style="fill:#FFE000;" d="M7.286,395.901c0,13.271,2.38,25.987,6.729,37.747h483.968c4.35-11.76,6.729-24.475,6.729-37.747
		v-33.303H7.286V395.901z"/>
	<path style="fill:#FFE000;" d="M14.016,78.352c-4.35,11.76-6.729,24.475-6.729,37.747v33.303h497.427v-33.303
		c0-13.271-2.379-25.987-6.729-37.747C497.985,78.352,14.016,78.352,14.016,78.352z"/>
</g>
<g>
	<path style="fill:#259245;" d="M116.099,504.714h279.803c46.824,0,86.736-29.577,102.083-71.065H14.016
		C29.363,475.137,69.275,504.714,116.099,504.714z"/>
	<path style="fill:#259245;" d="M395.901,7.286H116.099c-46.824,0-86.736,29.577-102.083,71.065h483.968
		C482.637,36.863,442.725,7.286,395.901,7.286z"/>
</g>
<path d="M395.901,0H116.099C52.082,0,0,52.082,0,116.099v279.803C0,459.918,52.082,512,116.099,512h279.803
	C459.918,512,512,459.918,512,395.901V116.099C512,52.082,459.918,0,395.901,0z M438.39,369.885h59.037v26.016
	c0,10.608-1.639,20.841-4.671,30.46H19.244c-3.032-9.62-4.671-19.852-4.671-30.46v-26.016h390.655c4.025,0,7.286-3.262,7.286-7.286
	c0-4.025-3.262-7.287-7.286-7.287H14.573V298.82h482.854v56.492H438.39c-4.025,0-7.286,3.262-7.286,7.287
	C431.103,366.623,434.365,369.885,438.39,369.885z M14.573,213.18v-56.492h482.854v56.492H14.573z M497.427,227.753v56.493H14.573
	v-56.493H497.427z M116.099,14.573h279.803c39.817,0,74.348,23.044,90.973,56.492h-24.166c-4.025,0-7.286,3.262-7.286,7.286
	c0,4.025,3.262,7.286,7.286,7.286h30.048c3.032,9.62,4.671,19.852,4.671,30.46v26.016H14.573v-26.016
	c0-10.608,1.638-20.841,4.671-30.46h411.663c4.025,0,7.286-3.262,7.286-7.286c0-4.025-3.262-7.286-7.286-7.286H25.126
	C41.751,37.617,76.282,14.573,116.099,14.573z M395.901,497.427H116.099c-39.817,0-74.348-23.044-90.973-56.492h461.748
	C470.249,474.383,435.718,497.427,395.901,497.427z"/>
<path style="fill:#FFFFFF;" d="M39.157,39.157C19.466,58.848,7.286,86.051,7.286,116.099v279.803
	c0,30.047,12.179,57.25,31.871,76.942L256,256L39.157,39.157z"/>
<polygon style="fill:#ED1F34;" points="31.052,237.261 77.037,234.885 93.507,191.885 109.977,234.885 155.962,237.261 
	120.156,266.212 132.106,310.681 93.507,285.574 54.908,310.681 66.859,266.212 "/>
<path d="M395.901,0H116.099C84.423,0,55.675,12.756,34.707,33.394c-0.243,0.188-0.48,0.387-0.703,0.61s-0.422,0.46-0.61,0.703
	C12.756,55.675,0,84.423,0,116.099v279.803c0,31.676,12.756,60.424,33.395,81.392c0.188,0.243,0.387,0.48,0.61,0.703
	s0.46,0.422,0.703,0.61C55.675,499.244,84.423,512,116.099,512h279.803C459.918,512,512,459.918,512,395.901V116.099
	C512,52.082,459.918,0,395.901,0z M14.573,116.099c0-25.374,9.357-48.603,24.801-66.419L245.695,256L39.374,462.321
	c-15.444-17.816-24.801-41.046-24.801-66.419V116.099z M497.427,395.901c0,55.981-45.545,101.526-101.526,101.526H116.099
	c-25.374,0-48.603-9.357-66.419-24.801l211.474-211.473c2.845-2.846,2.845-7.459,0-10.306L49.679,39.374
	c17.816-15.444,41.046-24.801,66.419-24.801h279.803c55.981,0,101.526,45.544,101.526,101.526V395.901z"/>
<path style="fill:#FFE000;" d="M125.291,264.051L125.291,264.051L125.291,264.051l-36.432-30.758v-10.722
	c0-7.271-5.895-13.167-13.167-13.167s-13.167,5.896-13.167,13.167v41.48l8.01,27.153h46.746L125.291,264.051L125.291,264.051
	L125.291,264.051z"/>
<path d="M135.984,280.368c-1.66,0-3.329-0.565-4.697-1.719l-10.694-9.028c-3.075-2.596-3.463-7.193-0.867-10.268
	c2.596-3.077,7.192-3.464,10.268-0.867l10.694,9.028c3.075,2.596,3.463,7.193,0.867,10.268
	C140.114,279.49,138.057,280.368,135.984,280.368z"/>
<path d="M132.513,264.973c0.038-0.303,0.065-0.609,0.065-0.922c0-0.007-0.001-0.013-0.001-0.02c0-0.032-0.004-0.064-0.005-0.096
	c-0.005-0.288-0.029-0.572-0.066-0.852c-0.01-0.077-0.022-0.153-0.035-0.23c-0.048-0.288-0.109-0.572-0.19-0.848
	c-0.006-0.02-0.009-0.041-0.016-0.061c-0.092-0.307-0.208-0.603-0.338-0.891c-0.025-0.056-0.053-0.109-0.079-0.164
	c-0.122-0.252-0.256-0.496-0.405-0.73c-0.025-0.039-0.046-0.079-0.071-0.118c-0.171-0.259-0.361-0.505-0.563-0.74
	c-0.047-0.054-0.096-0.105-0.144-0.158c-0.193-0.211-0.396-0.412-0.612-0.599c-0.022-0.019-0.04-0.042-0.062-0.061l-33.846-28.575
	v-7.338c0-11.278-9.175-20.454-20.453-20.454c-8.709,0-16.144,5.481-19.088,13.167h-3.551c-4.024,0-7.287,3.262-7.287,7.287
	c0,4.025,3.262,7.286,7.287,7.286h2.186v34.194c0,0.32,0.028,0.633,0.068,0.941c0.01,0.075,0.022,0.148,0.034,0.223
	c0.045,0.282,0.105,0.559,0.181,0.828c0.007,0.023,0.008,0.046,0.015,0.069l0.021,0.07c0.005,0.018,0.01,0.036,0.016,0.054
	l7.973,27.028c0.914,3.099,3.758,5.225,6.989,5.225h46.746c3.23,0,6.075-2.126,6.989-5.225l7.973-27.028
	c0.006-0.018,0.011-0.036,0.016-0.054l0.021-0.07c0.006-0.022,0.008-0.044,0.014-0.066c0.08-0.28,0.14-0.567,0.186-0.859
	C132.492,265.117,132.504,265.046,132.513,264.973z M75.692,216.691c3.242,0,5.881,2.638,5.881,5.88v10.722
	c0,2.146,0.946,4.183,2.586,5.567l21.207,17.904H69.812V222.57C69.812,219.328,72.45,216.691,75.692,216.691z M75.982,283.918
	l-3.711-12.58h43.273l-3.711,12.58H75.982z"/>
<g>
</g>
<g>
</g>
<g>
</g>
<g>
</g>
<g>
</g>
<g>
</g>
<g>
</g>
<g>
</g>
<g>
</g>
<g>
</g>
<g>
</g>
<g>
</g>
<g>
</g>
<g>
</g>
<g>
</g>
</svg>
