<svg id="Capa_1" enable-background="new 0 0 512 512" height="512" viewBox="0 0 512 512" width="512" xmlns="http://www.w3.org/2000/svg"><g><g id="_x3C_Group_x3E__15_"><path d="m49.124 290.819-25.509 48.201c-1.139 2.156.622 4.701 3.041 4.394l43.774-9.148c2.241-.284 3.985 1.908 3.205 4.028l-25.021 74.056 92.303-36.576c1.893-.828 4.038.454 4.208 2.513l7.484 101.725c.219 2.662 3.538 3.743 5.282 1.72l14.048-4.377 53.417-61.967c1.186-1.376 3.312-1.396 4.524-.043l59.34 51.597c1.355 1.513 3.788 1.278 4.829-.465l11.988-8.431 34.404-57.612c.914-1.53 2.949-1.936 4.38-.875l89.196 58.188c2.019 1.498 4.876.009 4.805-2.504l4.832-18.377-2.574-90.413c-.055-1.937 1.707-3.422 3.607-3.038l54.51 11.02c2.211.447 4.11-1.606 3.493-3.775l-34.48-127.644c-.114-.422-.087-.87.078-1.275l35.956-88.476c.771-1.765-.291-3.791-2.182-4.161l-26.75-5.233c-1.619-.317-2.681-1.876-2.384-3.499l7.549-41.16c.431-2.351-1.916-4.243-4.122-3.322l-97.071 40.505c-2.044.853-4.278-.718-4.167-2.93l4.809-95.82c.14-2.789-3.263-4.25-5.188-2.228l-72.339 75.965c-1.394 1.463-3.805 1.166-4.801-.592l-33.593-59.286c-1.147-2.024-4.059-2.039-5.225-.026l-40.05 69.097c-1.016 1.753-3.439 2.023-4.815.536l-66.857-72.226-15.209-3.758-2.575 81.294c.065 2.062-1.917 3.578-3.89 2.974l-63.595-19.436-10.831 2.221c-2.306-.705-4.464 1.451-3.761 3.758l7.207 54.276c.539 1.767-.627 3.599-2.456 3.859l-20.772 2.959-11.612 8.093c-1.744.248-2.903 1.934-2.511 3.651z" fill="#faf063"/><g fill="#f5de46"><path d="m141.871 114.371c1.973.603 8.317-.914 8.225-7.041l-2.614-77.981-15.878-17.153c-1.892-2.044-5.307-.644-5.22 2.14l2.879 91.802c.015.126.168 1.609-1.009 2.64-1.194 1.046-2.67.675-2.785.644 6.912 2.085 9.49 2.863 16.402 4.949z"/><path d="m52.035 154.066 20.865-2.875c6.182-1.649 5.56-7.602 5.022-9.37l-15.749-51.745-23.365-7.142c-2.306-.705-4.464 1.451-3.761 3.758l19.358 63.522c.131.4.206 1.045-.008 1.741-.392 1.272-1.506 1.993-2.362 2.111z"/><path d="m363.775 378.773c-1.431-1.062-6.225-3.954-10.708.683l-12.626 20.978c.101-.167.698-1.117 1.931-1.394 1.311-.294 2.305.404 2.454.513 31.631 23.471 63.263 46.942 94.894 70.413 2.019 1.498 4.876.009 4.805-2.504l-.837-29.39z"/><path d="m171.463 473.318-12.828-115.701c-.37-3.339-3.862-5.37-6.948-4.041l-68.039 29.314c-3.965 1.708-8.085-2.073-6.723-6.17l17.844-53.667c1.149-3.456-1.663-6.941-5.284-6.548l-28.955 3.141c-3.88.421-6.724-3.567-5.064-7.098l10.179-21.651c.502-1.067.61-2.277.306-3.417l-34.814-130.442-21.052 2.999c-1.744.248-2.903 1.934-2.511 3.651l32.458 127.521-28.164 53.313c-1.139 2.156.622 4.701 3.041 4.394l44.401-5.626c2.241-.284 3.985 1.908 3.205 4.028l-28.86 78.412c-.916 2.49 1.601 4.862 4.032 3.799l96.583-42.22c1.893-.828 4.038.454 4.208 2.513l8.885 108.196c.219 2.662 3.538 3.743 5.282 1.72l20.649-23.897c-.964-.406-1.73-1.292-1.831-2.523z"/><path d="m253.16 399.019c-1.212-1.353-6.544-7.007-12.546-1.647l-15.311 18.079c1.85-2.089 4.093-.683 4.577-.104l58.26 65.049c1.355 1.513 3.788 1.278 4.829-.465l13.068-21.883z"/></g></g><g><path d="m14.557 201.83c.552 0 1.114-.062 1.675-.189 4.039-.921 6.565-4.942 5.644-8.98l-5.906-25.887 37.035-5.275c3.043-.433 5.736-2.169 7.386-4.763 1.651-2.593 2.083-5.768 1.187-8.708l-16.9-55.456 78.512 23.999c3.235.989 6.771.352 9.457-1.703 2.687-2.055 4.228-5.3 4.121-8.679l-2.512-80.088 74.153 80.107c2.256 2.438 5.58 3.671 8.876 3.306 3.301-.368 6.267-2.303 7.932-5.176l36.123-62.321 29.731 52.471c1.633 2.882 4.57 4.845 7.858 5.251 3.283.402 6.614-.785 8.899-3.184l24.737-25.977c2.856-3 2.74-7.747-.26-10.603-2.999-2.856-7.745-2.741-10.603.259l-20.562 21.596-30.61-54.022c-1.853-3.269-5.337-5.31-9.094-5.329-.017 0-.033 0-.051 0-3.737 0-7.218 2.004-9.094 5.24l-37.002 63.838-78.181-84.457c-3.009-3.251-7.603-4.266-11.701-2.585-4.099 1.681-6.658 5.627-6.519 10.055l2.691 85.824-80.58-24.632c-3.722-1.138-7.748-.135-10.502 2.617s-3.76 6.775-2.625 10.499l17.83 58.509-36.675 5.224c-2.901.413-5.517 2.035-7.178 4.449-1.661 2.415-2.24 5.437-1.588 8.295l6.99 30.641c.794 3.478 3.885 5.835 7.306 5.834z"/><path d="m510.792 127.182c-1.488-2.839-4.146-4.82-7.291-5.435l-22.397-4.382 6.749-36.795c.696-3.795-.736-7.658-3.741-10.081-3.004-2.423-7.083-3.004-10.646-1.518l-90.501 37.764 4.451-88.71c.224-4.436-2.269-8.435-6.35-10.187-4.079-1.753-8.697-.807-11.761 2.41l-23.504 24.682c-2.856 3-2.74 7.747.26 10.603s7.746 2.742 10.603-.259l15.164-15.924-4.202 83.742c-.183 3.625 1.481 7.037 4.45 9.125 2.971 2.089 6.744 2.501 10.096 1.103l89.434-37.318-6.057 33.02c-1.034 5.635 2.698 11.114 8.32 12.213l21.279 4.163-19.037 44.019c-1.645 3.802.104 8.217 3.906 9.861.971.419 1.98.618 2.974.618 2.9 0 5.663-1.693 6.888-4.525l21.235-49.1c1.285-2.938 1.167-6.25-.322-9.089z"/><path d="m489.91 277.935c-1.128-3.986-5.272-6.303-9.259-5.175-3.985 1.127-6.303 5.272-5.175 9.258l17.994 63.609-47.3-9.562c-3.162-.639-6.388.187-8.854 2.264-2.466 2.078-3.827 5.118-3.734 8.338l3.183 111.767-87.474-64.898c-2.383-1.767-5.417-2.449-8.323-1.866-2.907.581-5.446 2.374-6.965 4.918l-44.344 74.259-54.191-60.505c-2.017-2.252-4.902-3.558-7.93-3.498-3.023.029-5.888 1.358-7.862 3.648l-65.715 76.232-2.087-25.416c-.339-4.128-3.964-7.215-8.088-6.861-4.128.339-7.2 3.96-6.861 8.088l2.964 36.096c.348 4.233 3.182 7.819 7.222 9.134 1.075.35 2.176.52 3.265.52 3.002 0 5.915-1.291 7.951-3.652l69.375-80.478 54.852 61.243c2.22 2.479 5.518 3.769 8.838 3.451 3.313-.319 6.312-2.216 8.018-5.074l44.928-75.236 90.915 67.451c3.26 2.417 7.522 2.754 11.121.878 3.6-1.876 5.764-5.562 5.648-9.62l-3.285-115.361 48.973 9.9c3.624.732 7.288-.449 9.799-3.164 2.512-2.714 3.407-6.458 2.398-10.004z"/><path d="m142.138 434.396c4.128-.339 7.2-3.96 6.861-8.088l-3.047-37.102c-.278-3.375-2.18-6.427-5.087-8.163-2.908-1.736-6.497-1.963-9.599-.606l-86.936 38.003 25.222-68.533c1.279-3.474.666-7.278-1.638-10.175-2.305-2.898-5.875-4.346-9.547-3.884l-35.834 4.541 24.13-45.678c1.935-3.663.534-8.2-3.128-10.135-3.662-1.934-8.201-.534-10.135 3.128l-28.164 53.314c-1.839 3.481-1.589 7.655.652 10.892s6.06 4.938 9.964 4.445l37.073-4.698-26.308 71.481c-1.458 3.959-.416 8.387 2.655 11.281 1.992 1.877 4.579 2.864 7.206 2.864 1.422 0 2.856-.289 4.213-.883l90.826-39.704 2.533 30.838c.339 4.13 3.96 7.206 8.088 6.862z"/><path d="m320.578 198.144c4.096.554 7.883-2.32 8.439-6.424.557-4.105-2.319-7.883-6.424-8.44-43.945-5.961-89.496-7.461-134.812-4.019-2.601.039-6.464 2.246-7.04 5.557-7.871 29.435-14.942 58.795-21.082 87.528-10.342-27.367-22.244-53.317-35.478-77.335-1.616-2.94-4.896-4.611-8.349-4.252-3.589.371-6.566 2.76-7.583 6.085-8.147 26.612-15.367 53.031-21.522 78.743-10.532-22.9-21.96-44.807-34.065-65.285-2.107-3.564-6.705-4.747-10.273-2.64-3.566 2.108-4.748 6.708-2.64 10.273 13.951 23.346 27.777 51.147 39.893 78.273 1.468 2.14 5.686 5.16 10.37 4.368 3.916-.639 6.948-3.305 7.915-6.956 5.484-24.269 12.631-51.837 20.308-77.864 12.13 23.513 23.927 51.132 33.373 78.367 1.561 3.917 5.416 6.501 9.72 6.428 4.123-.07 7.672-2.582 9.044-6.397 6.613-31.737 14.561-66.817 23.496-100.274 8.438-.571 16.912-.981 25.404-1.209l-9.438 106.578c-.365 4.126 2.683 7.767 6.809 8.132 3.137.282 7.213-1.996 8.132-6.809l9.575-108.117c8.186-.023 16.369.106 24.531.402l-16.72 112.756c-.607 4.097 2.222 7.912 6.319 8.519 3.18.481 7.329-1.563 8.519-6.319l8.048-54.275c11.733 1.563 25.937 4.6 38.356 6.832 3.456 0 6.565-2.405 7.324-5.921.872-4.049-1.702-8.039-5.751-8.912-12.436-2.681-25.093-4.97-37.729-6.836l6.692-45.125c15.551.942 31.209 2.475 46.639 4.568z"/><path d="m456.76 319.666c4.143 0 7.55-3.408 7.55-7.55s-3.407-7.55-7.55-7.55-7.551 3.408-7.551 7.55c.001 4.142 3.409 7.55 7.551 7.55z"/><path d="m360.491 295.963c-1.916-.567-4.012-.344-5.763.612-1.752.957-3.074 2.602-3.631 4.518-1.152 3.961 1.145 8.175 5.104 9.348.642.147 3.016.744 5.764-.613 1.74-.95 3.058-2.581 3.621-4.481 1.176-3.972-1.123-8.207-5.095-9.384z"/><path d="m456.893 280.295c4.143 0 7.5-3.358 7.5-7.5v-106.736c0-4.142-3.357-7.5-7.5-7.5s-7.5 3.358-7.5 7.5v106.736c0 4.142 3.358 7.5 7.5 7.5z"/><path d="m369.595 280.297c3.242 0 6.232-2.119 7.192-5.387l8.693-29.577c22.12 2.505 42.81-12.194 47.575-34.102 4.438-20.416-6.852-41.685-26.264-49.474-21.862-8.772-46.54 1.066-56.191 22.392-.834 1.841-1.545 3.76-2.115 5.701-1.167 3.975 1.108 8.143 5.083 9.31 3.977 1.169 8.143-1.109 9.31-5.083.375-1.276.842-2.536 1.389-3.745 6.329-13.988 22.557-20.423 36.939-14.654 12.705 5.098 20.096 19.012 17.191 32.367-3.203 14.737-17.395 24.507-32.305 22.241-6.455-.98-12.71 3.018-14.557 9.299l-9.14 31.095c-1.168 3.974 1.106 8.143 5.08 9.311.707.207 1.419.306 2.12.306z"/></g></g></svg>